let music = [
    {
        "header": {
            "keySignatures": [
                {
                    "key": "D",
                    "scale": "major",
                    "ticks": 0
                }
            ],
            "meta": [],
            "name": "In the Hall Of The Mountain King",
            "ppq": 256,
            "tempos": [
                {
                    "bpm": 138.00019320027047,
                    "ticks": 0
                },
                {
                    "bpm": 142.0000710000355,
                    "ticks": 17408
                },
                {
                    "bpm": 145.00003625000906,
                    "ticks": 41984
                },
                {
                    "bpm": 148.000148000148,
                    "ticks": 46080
                },
                {
                    "bpm": 150,
                    "ticks": 48128
                },
                {
                    "bpm": 153.33033487345136,
                    "ticks": 48256
                },
                {
                    "bpm": 156.66000861630047,
                    "ticks": 48384
                },
                {
                    "bpm": 159.9901872685142,
                    "ticks": 48512
                },
                {
                    "bpm": 163.32041287400375,
                    "ticks": 48640
                },
                {
                    "bpm": 166.6500016665,
                    "ticks": 48768
                },
                {
                    "bpm": 169.98033894079586,
                    "ticks": 48896
                },
                {
                    "bpm": 173.3102253032929,
                    "ticks": 49024
                },
                {
                    "bpm": 176.6404748095963,
                    "ticks": 49152
                },
                {
                    "bpm": 179.97048484048617,
                    "ticks": 49280
                },
                {
                    "bpm": 183.30013564210037,
                    "ticks": 49408
                },
                {
                    "bpm": 186.6304188919752,
                    "ticks": 49536
                },
                {
                    "bpm": 190.0002850004275,
                    "ticks": 49664
                },
                {
                    "bpm": 190.0002850004275,
                    "ticks": 50175
                },
                {
                    "bpm": 200,
                    "ticks": 66560
                },
                {
                    "bpm": 205.00064916872236,
                    "ticks": 70656
                },
                {
                    "bpm": 210.00021000021,
                    "ticks": 73216
                },
                {
                    "bpm": 215.00059125162593,
                    "ticks": 73472
                },
                {
                    "bpm": 220.00022000022,
                    "ticks": 73728
                },
                {
                    "bpm": 260.00026000026,
                    "ticks": 74752
                }
            ],
            "timeSignatures": [
                {
                    "ticks": 0,
                    "timeSignature": [
                        4,
                        4
                    ],
                    "measures": 0
                },
                {
                    "ticks": 0,
                    "timeSignature": [
                        4,
                        4
                    ],
                    "measures": 0
                }
            ]
        },
        "tracks": [
            {
                "channel": 0,
                "controlChanges": {
                    "0": [
                        {
                            "number": 0,
                            "ticks": 1024,
                            "time": 1.739128,
                            "value": 0
                        }
                    ],
                    "10": [
                        {
                            "number": 10,
                            "ticks": 0,
                            "time": 0,
                            "value": 0.5984251968503937
                        }
                    ],
                    "32": [
                        {
                            "number": 32,
                            "ticks": 1024,
                            "time": 1.739128,
                            "value": 0
                        }
                    ],
                    "91": [
                        {
                            "number": 91,
                            "ticks": 0,
                            "time": 0,
                            "value": 0.47244094488188976
                        }
                    ]
                },
                "pitchBends": [],
                "instrument": {
                    "family": "piano",
                    "name": "acoustic grand piano",
                    "number": 0
                },
                "name": "Piano",
                "notes": [
                    {
                        "duration": 0.1069971328124999,
                        "durationTicks": 63,
                        "midi": 35,
                        "name": "B1",
                        "ticks": 1024,
                        "time": 1.739128,
                        "velocity": 0.28346456692913385
                    },
                    {
                        "duration": 0.1069971328124999,
                        "durationTicks": 63,
                        "midi": 37,
                        "name": "C#2",
                        "ticks": 1152,
                        "time": 1.9565190000000001,
                        "velocity": 0.28346456692913385
                    },
                    {
                        "duration": 0.1069971328124999,
                        "durationTicks": 63,
                        "midi": 38,
                        "name": "D2",
                        "ticks": 1280,
                        "time": 2.1739100000000002,
                        "velocity": 0.30708661417322836
                    },
                    {
                        "duration": 0.1069971328124999,
                        "durationTicks": 63,
                        "midi": 40,
                        "name": "E2",
                        "ticks": 1408,
                        "time": 2.391301,
                        "velocity": 0.30708661417322836
                    },
                    {
                        "duration": 0.1069971328124999,
                        "durationTicks": 63,
                        "midi": 42,
                        "name": "F#2",
                        "ticks": 1536,
                        "time": 2.608692,
                        "velocity": 0.41732283464566927
                    },
                    {
                        "duration": 0.1069971328124999,
                        "durationTicks": 63,
                        "midi": 38,
                        "name": "D2",
                        "ticks": 1664,
                        "time": 2.826083,
                        "velocity": 0.2283464566929134
                    },
                    {
                        "duration": 0.21399426562500024,
                        "durationTicks": 126,
                        "midi": 42,
                        "name": "F#2",
                        "ticks": 1792,
                        "time": 3.043474,
                        "velocity": 0.29133858267716534
                    },
                    {
                        "duration": 0.1069971328124999,
                        "durationTicks": 63,
                        "midi": 41,
                        "name": "F2",
                        "ticks": 2048,
                        "time": 3.478256,
                        "velocity": 0.3937007874015748
                    },
                    {
                        "duration": 0.1069971328124999,
                        "durationTicks": 63,
                        "midi": 37,
                        "name": "C#2",
                        "ticks": 2176,
                        "time": 3.695647,
                        "velocity": 0.2283464566929134
                    },
                    {
                        "duration": 0.2139942656249998,
                        "durationTicks": 126,
                        "midi": 41,
                        "name": "F2",
                        "ticks": 2304,
                        "time": 3.9130380000000002,
                        "velocity": 0.2992125984251969
                    },
                    {
                        "duration": 0.10699713281249945,
                        "durationTicks": 63,
                        "midi": 40,
                        "name": "E2",
                        "ticks": 2560,
                        "time": 4.3478200000000005,
                        "velocity": 0.3858267716535433
                    },
                    {
                        "duration": 0.10699713281250034,
                        "durationTicks": 63,
                        "midi": 36,
                        "name": "C2",
                        "ticks": 2688,
                        "time": 4.565211,
                        "velocity": 0.25196850393700787
                    },
                    {
                        "duration": 0.2139942656249998,
                        "durationTicks": 126,
                        "midi": 40,
                        "name": "E2",
                        "ticks": 2816,
                        "time": 4.782602,
                        "velocity": 0.2992125984251969
                    },
                    {
                        "duration": 0.10699713281250034,
                        "durationTicks": 63,
                        "midi": 35,
                        "name": "B1",
                        "ticks": 3072,
                        "time": 5.217384,
                        "velocity": 0.25984251968503935
                    },
                    {
                        "duration": 0.10699713281249945,
                        "durationTicks": 63,
                        "midi": 37,
                        "name": "C#2",
                        "ticks": 3200,
                        "time": 5.434775,
                        "velocity": 0.28346456692913385
                    },
                    {
                        "duration": 0.10699713281249945,
                        "durationTicks": 63,
                        "midi": 38,
                        "name": "D2",
                        "ticks": 3328,
                        "time": 5.652166,
                        "velocity": 0.29133858267716534
                    },
                    {
                        "duration": 0.10699713281249945,
                        "durationTicks": 63,
                        "midi": 40,
                        "name": "E2",
                        "ticks": 3456,
                        "time": 5.869557,
                        "velocity": 0.2992125984251969
                    },
                    {
                        "duration": 0.10699713281250034,
                        "durationTicks": 63,
                        "midi": 42,
                        "name": "F#2",
                        "ticks": 3584,
                        "time": 6.086948,
                        "velocity": 0.33070866141732286
                    },
                    {
                        "duration": 0.10699713281250034,
                        "durationTicks": 63,
                        "midi": 38,
                        "name": "D2",
                        "ticks": 3712,
                        "time": 6.304339,
                        "velocity": 0.25196850393700787
                    },
                    {
                        "duration": 0.10699713281250034,
                        "durationTicks": 63,
                        "midi": 42,
                        "name": "F#2",
                        "ticks": 3840,
                        "time": 6.52173,
                        "velocity": 0.33070866141732286
                    },
                    {
                        "duration": 0.10699713281250034,
                        "durationTicks": 63,
                        "midi": 47,
                        "name": "B2",
                        "ticks": 3968,
                        "time": 6.739121,
                        "velocity": 0.30708661417322836
                    },
                    {
                        "duration": 0.10699713281250034,
                        "durationTicks": 63,
                        "midi": 45,
                        "name": "A2",
                        "ticks": 4096,
                        "time": 6.956512,
                        "velocity": 0.2677165354330709
                    },
                    {
                        "duration": 0.10699713281249945,
                        "durationTicks": 63,
                        "midi": 42,
                        "name": "F#2",
                        "ticks": 4224,
                        "time": 7.173903,
                        "velocity": 0.2283464566929134
                    },
                    {
                        "duration": 0.10699713281249945,
                        "durationTicks": 63,
                        "midi": 38,
                        "name": "D2",
                        "ticks": 4352,
                        "time": 7.391294,
                        "velocity": 0.2755905511811024
                    },
                    {
                        "duration": 0.10699713281249945,
                        "durationTicks": 63,
                        "midi": 42,
                        "name": "F#2",
                        "ticks": 4480,
                        "time": 7.608685,
                        "velocity": 0.30708661417322836
                    },
                    {
                        "duration": 0.7846456406249995,
                        "durationTicks": 462,
                        "midi": 45,
                        "name": "A2",
                        "ticks": 4608,
                        "time": 7.8260760000000005,
                        "velocity": 0.41732283464566927
                    },
                    {
                        "duration": 0.10699713281249856,
                        "durationTicks": 63,
                        "midi": 47,
                        "name": "B2",
                        "ticks": 5120,
                        "time": 8.695640000000001,
                        "velocity": 0.4330708661417323
                    },
                    {
                        "duration": 0.10699713281250034,
                        "durationTicks": 63,
                        "midi": 49,
                        "name": "C#3",
                        "ticks": 5248,
                        "time": 8.913031,
                        "velocity": 0.4015748031496063
                    },
                    {
                        "duration": 0.10699713281250034,
                        "durationTicks": 63,
                        "midi": 50,
                        "name": "D3",
                        "ticks": 5376,
                        "time": 9.130422,
                        "velocity": 0.4251968503937008
                    },
                    {
                        "duration": 0.10699713281250034,
                        "durationTicks": 63,
                        "midi": 52,
                        "name": "E3",
                        "ticks": 5504,
                        "time": 9.347813,
                        "velocity": 0.4015748031496063
                    },
                    {
                        "duration": 0.10699713281250034,
                        "durationTicks": 63,
                        "midi": 54,
                        "name": "F#3",
                        "ticks": 5632,
                        "time": 9.565204,
                        "velocity": 0.4330708661417323
                    },
                    {
                        "duration": 0.10699713281249856,
                        "durationTicks": 63,
                        "midi": 50,
                        "name": "D3",
                        "ticks": 5760,
                        "time": 9.782595,
                        "velocity": 0.23622047244094488
                    },
                    {
                        "duration": 0.21399426562500068,
                        "durationTicks": 126,
                        "midi": 54,
                        "name": "F#3",
                        "ticks": 5888,
                        "time": 9.999986,
                        "velocity": 0.2992125984251969
                    },
                    {
                        "duration": 0.10699713281250034,
                        "durationTicks": 63,
                        "midi": 53,
                        "name": "F3",
                        "ticks": 6144,
                        "time": 10.434768,
                        "velocity": 0.3700787401574803
                    },
                    {
                        "duration": 0.10699713281250034,
                        "durationTicks": 63,
                        "midi": 49,
                        "name": "C#3",
                        "ticks": 6272,
                        "time": 10.652159,
                        "velocity": 0.25196850393700787
                    },
                    {
                        "duration": 0.2139942656249989,
                        "durationTicks": 126,
                        "midi": 53,
                        "name": "F3",
                        "ticks": 6400,
                        "time": 10.86955,
                        "velocity": 0.31496062992125984
                    },
                    {
                        "duration": 0.10699713281250034,
                        "durationTicks": 63,
                        "midi": 52,
                        "name": "E3",
                        "ticks": 6656,
                        "time": 11.304332,
                        "velocity": 0.3858267716535433
                    },
                    {
                        "duration": 0.10699713281250034,
                        "durationTicks": 63,
                        "midi": 48,
                        "name": "C3",
                        "ticks": 6784,
                        "time": 11.521723,
                        "velocity": 0.25984251968503935
                    },
                    {
                        "duration": 0.2139942656249989,
                        "durationTicks": 126,
                        "midi": 52,
                        "name": "E3",
                        "ticks": 6912,
                        "time": 11.739114,
                        "velocity": 0.30708661417322836
                    },
                    {
                        "duration": 0.10699713281250034,
                        "durationTicks": 63,
                        "midi": 47,
                        "name": "B2",
                        "ticks": 7168,
                        "time": 12.173896,
                        "velocity": 0.2755905511811024
                    },
                    {
                        "duration": 0.10699713281250034,
                        "durationTicks": 63,
                        "midi": 49,
                        "name": "C#3",
                        "ticks": 7296,
                        "time": 12.391287,
                        "velocity": 0.2755905511811024
                    },
                    {
                        "duration": 0.10699713281250034,
                        "durationTicks": 63,
                        "midi": 50,
                        "name": "D3",
                        "ticks": 7424,
                        "time": 12.608678,
                        "velocity": 0.30708661417322836
                    },
                    {
                        "duration": 0.10699713281250034,
                        "durationTicks": 63,
                        "midi": 52,
                        "name": "E3",
                        "ticks": 7552,
                        "time": 12.826069,
                        "velocity": 0.2755905511811024
                    },
                    {
                        "duration": 0.10699713281250034,
                        "durationTicks": 63,
                        "midi": 54,
                        "name": "F#3",
                        "ticks": 7680,
                        "time": 13.04346,
                        "velocity": 0.31496062992125984
                    },
                    {
                        "duration": 0.10699713281249856,
                        "durationTicks": 63,
                        "midi": 50,
                        "name": "D3",
                        "ticks": 7808,
                        "time": 13.260851,
                        "velocity": 0.23622047244094488
                    },
                    {
                        "duration": 0.10699713281250034,
                        "durationTicks": 63,
                        "midi": 54,
                        "name": "F#3",
                        "ticks": 7936,
                        "time": 13.478242,
                        "velocity": 0.3228346456692913
                    },
                    {
                        "duration": 0.10699713281249856,
                        "durationTicks": 63,
                        "midi": 59,
                        "name": "B3",
                        "ticks": 8064,
                        "time": 13.695633,
                        "velocity": 0.30708661417322836
                    },
                    {
                        "duration": 0.10699713281250034,
                        "durationTicks": 63,
                        "midi": 57,
                        "name": "A3",
                        "ticks": 8192,
                        "time": 13.913024,
                        "velocity": 0.2992125984251969
                    },
                    {
                        "duration": 0.10699713281250034,
                        "durationTicks": 63,
                        "midi": 54,
                        "name": "F#3",
                        "ticks": 8320,
                        "time": 14.130415,
                        "velocity": 0.25984251968503935
                    },
                    {
                        "duration": 0.10699713281250034,
                        "durationTicks": 63,
                        "midi": 50,
                        "name": "D3",
                        "ticks": 8448,
                        "time": 14.347806,
                        "velocity": 0.25984251968503935
                    },
                    {
                        "duration": 0.10699713281250034,
                        "durationTicks": 63,
                        "midi": 54,
                        "name": "F#3",
                        "ticks": 8576,
                        "time": 14.565197,
                        "velocity": 0.2992125984251969
                    },
                    {
                        "duration": 0.7846456406249995,
                        "durationTicks": 462,
                        "midi": 45,
                        "name": "A2",
                        "ticks": 8704,
                        "time": 14.782588,
                        "velocity": 0.41732283464566927
                    },
                    {
                        "duration": 0.7846456406249995,
                        "durationTicks": 462,
                        "midi": 57,
                        "name": "A3",
                        "ticks": 8704,
                        "time": 14.782588,
                        "velocity": 0.4094488188976378
                    },
                    {
                        "duration": 0.10699713281249856,
                        "durationTicks": 63,
                        "midi": 42,
                        "name": "F#2",
                        "ticks": 9216,
                        "time": 15.652152000000001,
                        "velocity": 0.2125984251968504
                    },
                    {
                        "duration": 0.10699713281250034,
                        "durationTicks": 63,
                        "midi": 44,
                        "name": "G#2",
                        "ticks": 9344,
                        "time": 15.869543,
                        "velocity": 0.28346456692913385
                    },
                    {
                        "duration": 0.10699713281250212,
                        "durationTicks": 63,
                        "midi": 46,
                        "name": "A#2",
                        "ticks": 9472,
                        "time": 16.086934,
                        "velocity": 0.30708661417322836
                    },
                    {
                        "duration": 0.10699713281250212,
                        "durationTicks": 63,
                        "midi": 47,
                        "name": "B2",
                        "ticks": 9600,
                        "time": 16.304325,
                        "velocity": 0.2755905511811024
                    },
                    {
                        "duration": 0.10699713281249856,
                        "durationTicks": 63,
                        "midi": 49,
                        "name": "C#3",
                        "ticks": 9728,
                        "time": 16.521716,
                        "velocity": 0.4251968503937008
                    },
                    {
                        "duration": 0.10699713281249856,
                        "durationTicks": 63,
                        "midi": 46,
                        "name": "A#2",
                        "ticks": 9856,
                        "time": 16.739107,
                        "velocity": 0.2677165354330709
                    },
                    {
                        "duration": 0.21399426562500068,
                        "durationTicks": 126,
                        "midi": 49,
                        "name": "C#3",
                        "ticks": 9984,
                        "time": 16.956498,
                        "velocity": 0.2755905511811024
                    },
                    {
                        "duration": 0.10699713281249856,
                        "durationTicks": 63,
                        "midi": 50,
                        "name": "D3",
                        "ticks": 10240,
                        "time": 17.391280000000002,
                        "velocity": 0.4330708661417323
                    },
                    {
                        "duration": 0.10699713281249856,
                        "durationTicks": 63,
                        "midi": 46,
                        "name": "A#2",
                        "ticks": 10368,
                        "time": 17.608671,
                        "velocity": 0.2440944881889764
                    },
                    {
                        "duration": 0.21399426562500068,
                        "durationTicks": 126,
                        "midi": 50,
                        "name": "D3",
                        "ticks": 10496,
                        "time": 17.826062,
                        "velocity": 0.2992125984251969
                    },
                    {
                        "duration": 0.10699713281250212,
                        "durationTicks": 63,
                        "midi": 49,
                        "name": "C#3",
                        "ticks": 10752,
                        "time": 18.260844,
                        "velocity": 0.4015748031496063
                    },
                    {
                        "duration": 0.10699713281249856,
                        "durationTicks": 63,
                        "midi": 46,
                        "name": "A#2",
                        "ticks": 10880,
                        "time": 18.478235,
                        "velocity": 0.25196850393700787
                    },
                    {
                        "duration": 0.21399426562500068,
                        "durationTicks": 126,
                        "midi": 49,
                        "name": "C#3",
                        "ticks": 11008,
                        "time": 18.695626,
                        "velocity": 0.28346456692913385
                    },
                    {
                        "duration": 0.10699713281250212,
                        "durationTicks": 63,
                        "midi": 42,
                        "name": "F#2",
                        "ticks": 11264,
                        "time": 19.130408,
                        "velocity": 0.23622047244094488
                    },
                    {
                        "duration": 0.10699713281250212,
                        "durationTicks": 63,
                        "midi": 44,
                        "name": "G#2",
                        "ticks": 11392,
                        "time": 19.347799,
                        "velocity": 0.2755905511811024
                    },
                    {
                        "duration": 0.10699713281249856,
                        "durationTicks": 63,
                        "midi": 46,
                        "name": "A#2",
                        "ticks": 11520,
                        "time": 19.56519,
                        "velocity": 0.30708661417322836
                    },
                    {
                        "duration": 0.10699713281249856,
                        "durationTicks": 63,
                        "midi": 47,
                        "name": "B2",
                        "ticks": 11648,
                        "time": 19.782581,
                        "velocity": 0.29133858267716534
                    },
                    {
                        "duration": 0.10699713281250212,
                        "durationTicks": 63,
                        "midi": 49,
                        "name": "C#3",
                        "ticks": 11776,
                        "time": 19.999972,
                        "velocity": 0.4330708661417323
                    },
                    {
                        "duration": 0.10699713281250212,
                        "durationTicks": 63,
                        "midi": 46,
                        "name": "A#2",
                        "ticks": 11904,
                        "time": 20.217363,
                        "velocity": 0.2440944881889764
                    },
                    {
                        "duration": 0.21399426562499713,
                        "durationTicks": 126,
                        "midi": 49,
                        "name": "C#3",
                        "ticks": 12032,
                        "time": 20.434754,
                        "velocity": 0.28346456692913385
                    },
                    {
                        "duration": 0.10699713281249856,
                        "durationTicks": 63,
                        "midi": 50,
                        "name": "D3",
                        "ticks": 12288,
                        "time": 20.869536,
                        "velocity": 0.4251968503937008
                    },
                    {
                        "duration": 0.10699713281250212,
                        "durationTicks": 63,
                        "midi": 46,
                        "name": "A#2",
                        "ticks": 12416,
                        "time": 21.086927,
                        "velocity": 0.23622047244094488
                    },
                    {
                        "duration": 0.21399426562500068,
                        "durationTicks": 126,
                        "midi": 50,
                        "name": "D3",
                        "ticks": 12544,
                        "time": 21.304318,
                        "velocity": 0.30708661417322836
                    },
                    {
                        "duration": 0.4262901640625003,
                        "durationTicks": 251,
                        "midi": 49,
                        "name": "C#3",
                        "ticks": 12800,
                        "time": 21.7391,
                        "velocity": 0.3779527559055118
                    },
                    {
                        "duration": 0.10699713281249856,
                        "durationTicks": 63,
                        "midi": 54,
                        "name": "F#3",
                        "ticks": 13312,
                        "time": 22.608664,
                        "velocity": 0.33070866141732286
                    },
                    {
                        "duration": 0.10699713281249856,
                        "durationTicks": 63,
                        "midi": 56,
                        "name": "G#3",
                        "ticks": 13440,
                        "time": 22.826055,
                        "velocity": 0.28346456692913385
                    },
                    {
                        "duration": 0.10699713281250212,
                        "durationTicks": 63,
                        "midi": 58,
                        "name": "A#3",
                        "ticks": 13568,
                        "time": 23.043446,
                        "velocity": 0.30708661417322836
                    },
                    {
                        "duration": 0.10699713281250212,
                        "durationTicks": 63,
                        "midi": 59,
                        "name": "B3",
                        "ticks": 13696,
                        "time": 23.260837,
                        "velocity": 0.2677165354330709
                    },
                    {
                        "duration": 0.10699713281249856,
                        "durationTicks": 63,
                        "midi": 61,
                        "name": "C#4",
                        "ticks": 13824,
                        "time": 23.478228,
                        "velocity": 0.4330708661417323
                    },
                    {
                        "duration": 0.10699713281249856,
                        "durationTicks": 63,
                        "midi": 58,
                        "name": "A#3",
                        "ticks": 13952,
                        "time": 23.695619,
                        "velocity": 0.25196850393700787
                    },
                    {
                        "duration": 0.21399426562500068,
                        "durationTicks": 126,
                        "midi": 61,
                        "name": "C#4",
                        "ticks": 14080,
                        "time": 23.91301,
                        "velocity": 0.30708661417322836
                    },
                    {
                        "duration": 0.10699713281250212,
                        "durationTicks": 63,
                        "midi": 62,
                        "name": "D4",
                        "ticks": 14336,
                        "time": 24.347792,
                        "velocity": 0.4330708661417323
                    },
                    {
                        "duration": 0.10699713281249856,
                        "durationTicks": 63,
                        "midi": 58,
                        "name": "A#3",
                        "ticks": 14464,
                        "time": 24.565183,
                        "velocity": 0.2440944881889764
                    },
                    {
                        "duration": 0.21399426562500068,
                        "durationTicks": 126,
                        "midi": 62,
                        "name": "D4",
                        "ticks": 14592,
                        "time": 24.782574,
                        "velocity": 0.28346456692913385
                    },
                    {
                        "duration": 0.10699713281250212,
                        "durationTicks": 63,
                        "midi": 61,
                        "name": "C#4",
                        "ticks": 14848,
                        "time": 25.217356,
                        "velocity": 0.3858267716535433
                    },
                    {
                        "duration": 0.10699713281249856,
                        "durationTicks": 63,
                        "midi": 58,
                        "name": "A#3",
                        "ticks": 14976,
                        "time": 25.434747,
                        "velocity": 0.25196850393700787
                    },
                    {
                        "duration": 0.21399426562500068,
                        "durationTicks": 126,
                        "midi": 61,
                        "name": "C#4",
                        "ticks": 15104,
                        "time": 25.652138,
                        "velocity": 0.29133858267716534
                    },
                    {
                        "duration": 0.10699713281250212,
                        "durationTicks": 63,
                        "midi": 54,
                        "name": "F#3",
                        "ticks": 15360,
                        "time": 26.08692,
                        "velocity": 0.2440944881889764
                    },
                    {
                        "duration": 0.10699713281250212,
                        "durationTicks": 63,
                        "midi": 56,
                        "name": "G#3",
                        "ticks": 15488,
                        "time": 26.304311,
                        "velocity": 0.2677165354330709
                    },
                    {
                        "duration": 0.10699713281249856,
                        "durationTicks": 63,
                        "midi": 58,
                        "name": "A#3",
                        "ticks": 15616,
                        "time": 26.521702,
                        "velocity": 0.31496062992125984
                    },
                    {
                        "duration": 0.10699713281249856,
                        "durationTicks": 63,
                        "midi": 59,
                        "name": "B3",
                        "ticks": 15744,
                        "time": 26.739093,
                        "velocity": 0.29133858267716534
                    },
                    {
                        "duration": 0.10699713281250212,
                        "durationTicks": 63,
                        "midi": 61,
                        "name": "C#4",
                        "ticks": 15872,
                        "time": 26.956484,
                        "velocity": 0.41732283464566927
                    },
                    {
                        "duration": 0.10699713281250212,
                        "durationTicks": 63,
                        "midi": 58,
                        "name": "A#3",
                        "ticks": 16000,
                        "time": 27.173875,
                        "velocity": 0.25196850393700787
                    },
                    {
                        "duration": 0.21399426562499713,
                        "durationTicks": 126,
                        "midi": 61,
                        "name": "C#4",
                        "ticks": 16128,
                        "time": 27.391266,
                        "velocity": 0.29133858267716534
                    },
                    {
                        "duration": 0.10699713281249856,
                        "durationTicks": 63,
                        "midi": 62,
                        "name": "D4",
                        "ticks": 16384,
                        "time": 27.826048,
                        "velocity": 0.41732283464566927
                    },
                    {
                        "duration": 0.10699713281250212,
                        "durationTicks": 63,
                        "midi": 58,
                        "name": "A#3",
                        "ticks": 16512,
                        "time": 28.043439,
                        "velocity": 0.2283464566929134
                    },
                    {
                        "duration": 0.21399426562500068,
                        "durationTicks": 126,
                        "midi": 62,
                        "name": "D4",
                        "ticks": 16640,
                        "time": 28.26083,
                        "velocity": 0.29133858267716534
                    },
                    {
                        "duration": 0.4262901640625003,
                        "durationTicks": 251,
                        "midi": 61,
                        "name": "C#4",
                        "ticks": 16896,
                        "time": 28.695612,
                        "velocity": 0.3858267716535433
                    },
                    {
                        "duration": 0.10398322265625026,
                        "durationTicks": 63,
                        "midi": 35,
                        "name": "B1",
                        "ticks": 17408,
                        "time": 29.565176,
                        "velocity": 0.2204724409448819
                    },
                    {
                        "duration": 0.10398322265624671,
                        "durationTicks": 63,
                        "midi": 37,
                        "name": "C#2",
                        "ticks": 17536,
                        "time": 29.776443500000003,
                        "velocity": 0.2755905511811024
                    },
                    {
                        "duration": 0.10398322265625026,
                        "durationTicks": 63,
                        "midi": 38,
                        "name": "D2",
                        "ticks": 17664,
                        "time": 29.987711,
                        "velocity": 0.29133858267716534
                    },
                    {
                        "duration": 0.10398322265624671,
                        "durationTicks": 63,
                        "midi": 40,
                        "name": "E2",
                        "ticks": 17792,
                        "time": 30.198978500000003,
                        "velocity": 0.29133858267716534
                    },
                    {
                        "duration": 0.10398322265625026,
                        "durationTicks": 63,
                        "midi": 42,
                        "name": "F#2",
                        "ticks": 17920,
                        "time": 30.410246,
                        "velocity": 0.4094488188976378
                    },
                    {
                        "duration": 0.10398322265625026,
                        "durationTicks": 63,
                        "midi": 38,
                        "name": "D2",
                        "ticks": 18048,
                        "time": 30.621513500000002,
                        "velocity": 0.2440944881889764
                    },
                    {
                        "duration": 0.20796644531250053,
                        "durationTicks": 126,
                        "midi": 42,
                        "name": "F#2",
                        "ticks": 18176,
                        "time": 30.832781,
                        "velocity": 0.30708661417322836
                    },
                    {
                        "duration": 0.10398322265625026,
                        "durationTicks": 63,
                        "midi": 41,
                        "name": "F2",
                        "ticks": 18432,
                        "time": 31.255316,
                        "velocity": 0.3858267716535433
                    },
                    {
                        "duration": 0.10398322265625026,
                        "durationTicks": 63,
                        "midi": 37,
                        "name": "C#2",
                        "ticks": 18560,
                        "time": 31.466583500000002,
                        "velocity": 0.23622047244094488
                    },
                    {
                        "duration": 0.20796644531250053,
                        "durationTicks": 126,
                        "midi": 41,
                        "name": "F2",
                        "ticks": 18688,
                        "time": 31.677851,
                        "velocity": 0.2992125984251969
                    },
                    {
                        "duration": 0.10398322265625382,
                        "durationTicks": 63,
                        "midi": 40,
                        "name": "E2",
                        "ticks": 18944,
                        "time": 32.100386,
                        "velocity": 0.4015748031496063
                    },
                    {
                        "duration": 0.10398322265625382,
                        "durationTicks": 63,
                        "midi": 36,
                        "name": "C2",
                        "ticks": 19072,
                        "time": 32.3116535,
                        "velocity": 0.2440944881889764
                    },
                    {
                        "duration": 0.20796644531250053,
                        "durationTicks": 126,
                        "midi": 40,
                        "name": "E2",
                        "ticks": 19200,
                        "time": 32.522921000000004,
                        "velocity": 0.29133858267716534
                    },
                    {
                        "duration": 0.10398322265625382,
                        "durationTicks": 63,
                        "midi": 35,
                        "name": "B1",
                        "ticks": 19456,
                        "time": 32.945456,
                        "velocity": 0.2677165354330709
                    },
                    {
                        "duration": 0.10398322265625382,
                        "durationTicks": 63,
                        "midi": 37,
                        "name": "C#2",
                        "ticks": 19584,
                        "time": 33.1567235,
                        "velocity": 0.28346456692913385
                    },
                    {
                        "duration": 0.10398322265624671,
                        "durationTicks": 63,
                        "midi": 38,
                        "name": "D2",
                        "ticks": 19712,
                        "time": 33.367991,
                        "velocity": 0.3228346456692913
                    },
                    {
                        "duration": 0.10398322265624671,
                        "durationTicks": 63,
                        "midi": 40,
                        "name": "E2",
                        "ticks": 19840,
                        "time": 33.5792585,
                        "velocity": 0.28346456692913385
                    },
                    {
                        "duration": 0.10398322265625382,
                        "durationTicks": 63,
                        "midi": 42,
                        "name": "F#2",
                        "ticks": 19968,
                        "time": 33.790526,
                        "velocity": 0.3228346456692913
                    },
                    {
                        "duration": 0.10398322265624671,
                        "durationTicks": 63,
                        "midi": 38,
                        "name": "D2",
                        "ticks": 20096,
                        "time": 34.001793500000005,
                        "velocity": 0.25984251968503935
                    },
                    {
                        "duration": 0.10398322265624671,
                        "durationTicks": 63,
                        "midi": 42,
                        "name": "F#2",
                        "ticks": 20224,
                        "time": 34.213061,
                        "velocity": 0.3228346456692913
                    },
                    {
                        "duration": 0.10398322265625382,
                        "durationTicks": 63,
                        "midi": 47,
                        "name": "B2",
                        "ticks": 20352,
                        "time": 34.4243285,
                        "velocity": 0.30708661417322836
                    },
                    {
                        "duration": 0.10398322265625382,
                        "durationTicks": 63,
                        "midi": 45,
                        "name": "A2",
                        "ticks": 20480,
                        "time": 34.635596,
                        "velocity": 0.29133858267716534
                    },
                    {
                        "duration": 0.10398322265625382,
                        "durationTicks": 63,
                        "midi": 42,
                        "name": "F#2",
                        "ticks": 20608,
                        "time": 34.8468635,
                        "velocity": 0.23622047244094488
                    },
                    {
                        "duration": 0.10398322265624671,
                        "durationTicks": 63,
                        "midi": 38,
                        "name": "D2",
                        "ticks": 20736,
                        "time": 35.058131,
                        "velocity": 0.2677165354330709
                    },
                    {
                        "duration": 0.10398322265624671,
                        "durationTicks": 63,
                        "midi": 42,
                        "name": "F#2",
                        "ticks": 20864,
                        "time": 35.2693985,
                        "velocity": 0.30708661417322836
                    },
                    {
                        "duration": 0.7625436328125019,
                        "durationTicks": 462,
                        "midi": 45,
                        "name": "A2",
                        "ticks": 20992,
                        "time": 35.480666,
                        "velocity": 0.41732283464566927
                    },
                    {
                        "duration": 0.10398322265625382,
                        "durationTicks": 63,
                        "midi": 47,
                        "name": "B2",
                        "ticks": 21504,
                        "time": 36.325736,
                        "velocity": 0.41732283464566927
                    },
                    {
                        "duration": 0.10398322265624671,
                        "durationTicks": 63,
                        "midi": 49,
                        "name": "C#3",
                        "ticks": 21632,
                        "time": 36.537003500000004,
                        "velocity": 0.41732283464566927
                    },
                    {
                        "duration": 0.10398322265624671,
                        "durationTicks": 63,
                        "midi": 50,
                        "name": "D3",
                        "ticks": 21760,
                        "time": 36.748271,
                        "velocity": 0.41732283464566927
                    },
                    {
                        "duration": 0.10398322265625382,
                        "durationTicks": 63,
                        "midi": 52,
                        "name": "E3",
                        "ticks": 21888,
                        "time": 36.9595385,
                        "velocity": 0.4015748031496063
                    },
                    {
                        "duration": 0.10398322265625382,
                        "durationTicks": 63,
                        "midi": 54,
                        "name": "F#3",
                        "ticks": 22016,
                        "time": 37.170806,
                        "velocity": 0.4409448818897638
                    },
                    {
                        "duration": 0.10398322265624671,
                        "durationTicks": 63,
                        "midi": 50,
                        "name": "D3",
                        "ticks": 22144,
                        "time": 37.382073500000004,
                        "velocity": 0.25984251968503935
                    },
                    {
                        "duration": 0.20796644531250053,
                        "durationTicks": 126,
                        "midi": 54,
                        "name": "F#3",
                        "ticks": 22272,
                        "time": 37.593341,
                        "velocity": 0.29133858267716534
                    },
                    {
                        "duration": 0.10398322265624671,
                        "durationTicks": 63,
                        "midi": 53,
                        "name": "F3",
                        "ticks": 22528,
                        "time": 38.015876000000006,
                        "velocity": 0.3858267716535433
                    },
                    {
                        "duration": 0.10398322265624671,
                        "durationTicks": 63,
                        "midi": 49,
                        "name": "C#3",
                        "ticks": 22656,
                        "time": 38.227143500000004,
                        "velocity": 0.2440944881889764
                    },
                    {
                        "duration": 0.20796644531250053,
                        "durationTicks": 126,
                        "midi": 53,
                        "name": "F3",
                        "ticks": 22784,
                        "time": 38.438411,
                        "velocity": 0.2992125984251969
                    },
                    {
                        "duration": 0.10398322265625382,
                        "durationTicks": 63,
                        "midi": 52,
                        "name": "E3",
                        "ticks": 23040,
                        "time": 38.860946,
                        "velocity": 0.3937007874015748
                    },
                    {
                        "duration": 0.10398322265624671,
                        "durationTicks": 63,
                        "midi": 48,
                        "name": "C3",
                        "ticks": 23168,
                        "time": 39.072213500000004,
                        "velocity": 0.23622047244094488
                    },
                    {
                        "duration": 0.20796644531250053,
                        "durationTicks": 126,
                        "midi": 52,
                        "name": "E3",
                        "ticks": 23296,
                        "time": 39.283481,
                        "velocity": 0.28346456692913385
                    },
                    {
                        "duration": 0.10398322265624671,
                        "durationTicks": 63,
                        "midi": 47,
                        "name": "B2",
                        "ticks": 23552,
                        "time": 39.706016000000005,
                        "velocity": 0.2440944881889764
                    },
                    {
                        "duration": 0.10398322265624671,
                        "durationTicks": 63,
                        "midi": 49,
                        "name": "C#3",
                        "ticks": 23680,
                        "time": 39.9172835,
                        "velocity": 0.29133858267716534
                    },
                    {
                        "duration": 0.10398322265625382,
                        "durationTicks": 63,
                        "midi": 50,
                        "name": "D3",
                        "ticks": 23808,
                        "time": 40.128551,
                        "velocity": 0.3228346456692913
                    },
                    {
                        "duration": 0.10398322265625382,
                        "durationTicks": 63,
                        "midi": 52,
                        "name": "E3",
                        "ticks": 23936,
                        "time": 40.3398185,
                        "velocity": 0.2755905511811024
                    },
                    {
                        "duration": 0.10398322265625382,
                        "durationTicks": 63,
                        "midi": 54,
                        "name": "F#3",
                        "ticks": 24064,
                        "time": 40.551086,
                        "velocity": 0.3228346456692913
                    },
                    {
                        "duration": 0.10398322265624671,
                        "durationTicks": 63,
                        "midi": 50,
                        "name": "D3",
                        "ticks": 24192,
                        "time": 40.7623535,
                        "velocity": 0.2440944881889764
                    },
                    {
                        "duration": 0.10398322265624671,
                        "durationTicks": 63,
                        "midi": 54,
                        "name": "F#3",
                        "ticks": 24320,
                        "time": 40.973621,
                        "velocity": 0.33070866141732286
                    },
                    {
                        "duration": 0.10398322265625382,
                        "durationTicks": 63,
                        "midi": 59,
                        "name": "B3",
                        "ticks": 24448,
                        "time": 41.1848885,
                        "velocity": 0.2992125984251969
                    },
                    {
                        "duration": 0.10398322265624671,
                        "durationTicks": 63,
                        "midi": 54,
                        "name": "F#3",
                        "ticks": 24576,
                        "time": 41.396156000000005,
                        "velocity": 0.25984251968503935
                    },
                    {
                        "duration": 0.10398322265624671,
                        "durationTicks": 63,
                        "midi": 50,
                        "name": "D3",
                        "ticks": 24704,
                        "time": 41.6074235,
                        "velocity": 0.2440944881889764
                    },
                    {
                        "duration": 0.10398322265625382,
                        "durationTicks": 63,
                        "midi": 54,
                        "name": "F#3",
                        "ticks": 24832,
                        "time": 41.818691,
                        "velocity": 0.31496062992125984
                    },
                    {
                        "duration": 0.10398322265624671,
                        "durationTicks": 63,
                        "midi": 59,
                        "name": "B3",
                        "ticks": 24960,
                        "time": 42.029958500000006,
                        "velocity": 0.30708661417322836
                    },
                    {
                        "duration": 0.7625436328125019,
                        "durationTicks": 462,
                        "midi": 47,
                        "name": "B2",
                        "ticks": 25088,
                        "time": 42.241226000000005,
                        "velocity": 0.29133858267716534
                    },
                    {
                        "duration": 0.10398322265624671,
                        "durationTicks": 63,
                        "midi": 59,
                        "name": "B3",
                        "ticks": 25600,
                        "time": 43.086296000000004,
                        "velocity": 0.4881889763779528
                    },
                    {
                        "duration": 0.10398322265624671,
                        "durationTicks": 63,
                        "midi": 61,
                        "name": "C#4",
                        "ticks": 25728,
                        "time": 43.2975635,
                        "velocity": 0.41732283464566927
                    },
                    {
                        "duration": 0.10398322265625382,
                        "durationTicks": 63,
                        "midi": 54,
                        "name": "F#3",
                        "ticks": 25856,
                        "time": 43.508831,
                        "velocity": 0.4409448818897638
                    },
                    {
                        "duration": 0.10398322265625382,
                        "durationTicks": 63,
                        "midi": 62,
                        "name": "D4",
                        "ticks": 25856,
                        "time": 43.508831,
                        "velocity": 0.4409448818897638
                    },
                    {
                        "duration": 0.10398322265624671,
                        "durationTicks": 63,
                        "midi": 64,
                        "name": "E4",
                        "ticks": 25984,
                        "time": 43.720098500000006,
                        "velocity": 0.3858267716535433
                    },
                    {
                        "duration": 0.10398322265624671,
                        "durationTicks": 63,
                        "midi": 66,
                        "name": "F#4",
                        "ticks": 26112,
                        "time": 43.931366000000004,
                        "velocity": 0.6456692913385826
                    },
                    {
                        "duration": 0.10398322265625382,
                        "durationTicks": 63,
                        "midi": 62,
                        "name": "D4",
                        "ticks": 26240,
                        "time": 44.1426335,
                        "velocity": 0.3464566929133858
                    },
                    {
                        "duration": 0.20796644531250053,
                        "durationTicks": 126,
                        "midi": 54,
                        "name": "F#3",
                        "ticks": 26368,
                        "time": 44.353901,
                        "velocity": 0.4015748031496063
                    },
                    {
                        "duration": 0.20796644531250053,
                        "durationTicks": 126,
                        "midi": 66,
                        "name": "F#4",
                        "ticks": 26368,
                        "time": 44.353901,
                        "velocity": 0.4015748031496063
                    },
                    {
                        "duration": 0.10398322265624671,
                        "durationTicks": 63,
                        "midi": 65,
                        "name": "F4",
                        "ticks": 26624,
                        "time": 44.776436000000004,
                        "velocity": 0.5826771653543307
                    },
                    {
                        "duration": 0.10398322265624671,
                        "durationTicks": 63,
                        "midi": 61,
                        "name": "C#4",
                        "ticks": 26752,
                        "time": 44.9877035,
                        "velocity": 0.3464566929133858
                    },
                    {
                        "duration": 0.20796644531250053,
                        "durationTicks": 126,
                        "midi": 54,
                        "name": "F#3",
                        "ticks": 26880,
                        "time": 45.198971,
                        "velocity": 0.41732283464566927
                    },
                    {
                        "duration": 0.20796644531250053,
                        "durationTicks": 126,
                        "midi": 65,
                        "name": "F4",
                        "ticks": 26880,
                        "time": 45.198971,
                        "velocity": 0.4251968503937008
                    },
                    {
                        "duration": 0.10398322265624671,
                        "durationTicks": 63,
                        "midi": 64,
                        "name": "E4",
                        "ticks": 27136,
                        "time": 45.621506000000004,
                        "velocity": 0.5748031496062992
                    },
                    {
                        "duration": 0.10398322265625382,
                        "durationTicks": 63,
                        "midi": 60,
                        "name": "C4",
                        "ticks": 27264,
                        "time": 45.8327735,
                        "velocity": 0.33070866141732286
                    },
                    {
                        "duration": 0.20796644531249342,
                        "durationTicks": 126,
                        "midi": 54,
                        "name": "F#3",
                        "ticks": 27392,
                        "time": 46.04404100000001,
                        "velocity": 0.3937007874015748
                    },
                    {
                        "duration": 0.20796644531249342,
                        "durationTicks": 126,
                        "midi": 64,
                        "name": "E4",
                        "ticks": 27392,
                        "time": 46.04404100000001,
                        "velocity": 0.4094488188976378
                    },
                    {
                        "duration": 0.10398322265625382,
                        "durationTicks": 63,
                        "midi": 59,
                        "name": "B3",
                        "ticks": 27648,
                        "time": 46.466576,
                        "velocity": 0.3700787401574803
                    },
                    {
                        "duration": 0.10398322265624671,
                        "durationTicks": 63,
                        "midi": 61,
                        "name": "C#4",
                        "ticks": 27776,
                        "time": 46.6778435,
                        "velocity": 0.4015748031496063
                    },
                    {
                        "duration": 0.10398322265625382,
                        "durationTicks": 63,
                        "midi": 54,
                        "name": "F#3",
                        "ticks": 27904,
                        "time": 46.889111,
                        "velocity": 0.4094488188976378
                    },
                    {
                        "duration": 0.10398322265625382,
                        "durationTicks": 63,
                        "midi": 62,
                        "name": "D4",
                        "ticks": 27904,
                        "time": 46.889111,
                        "velocity": 0.4251968503937008
                    },
                    {
                        "duration": 0.10398322265624671,
                        "durationTicks": 63,
                        "midi": 64,
                        "name": "E4",
                        "ticks": 28032,
                        "time": 47.100378500000005,
                        "velocity": 0.41732283464566927
                    },
                    {
                        "duration": 0.10398322265624671,
                        "durationTicks": 63,
                        "midi": 66,
                        "name": "F#4",
                        "ticks": 28160,
                        "time": 47.311646,
                        "velocity": 0.4409448818897638
                    },
                    {
                        "duration": 0.10398322265625382,
                        "durationTicks": 63,
                        "midi": 62,
                        "name": "D4",
                        "ticks": 28288,
                        "time": 47.5229135,
                        "velocity": 0.33070866141732286
                    },
                    {
                        "duration": 0.10398322265624671,
                        "durationTicks": 63,
                        "midi": 66,
                        "name": "F#4",
                        "ticks": 28416,
                        "time": 47.73418100000001,
                        "velocity": 0.4409448818897638
                    },
                    {
                        "duration": 0.10398322265624671,
                        "durationTicks": 63,
                        "midi": 71,
                        "name": "B4",
                        "ticks": 28544,
                        "time": 47.945448500000005,
                        "velocity": 0.4409448818897638
                    },
                    {
                        "duration": 0.10398322265625382,
                        "durationTicks": 63,
                        "midi": 69,
                        "name": "A4",
                        "ticks": 28672,
                        "time": 48.156716,
                        "velocity": 0.3937007874015748
                    },
                    {
                        "duration": 0.10398322265624671,
                        "durationTicks": 63,
                        "midi": 66,
                        "name": "F#4",
                        "ticks": 28800,
                        "time": 48.36798350000001,
                        "velocity": 0.3464566929133858
                    },
                    {
                        "duration": 0.10398322265625382,
                        "durationTicks": 63,
                        "midi": 57,
                        "name": "A3",
                        "ticks": 28928,
                        "time": 48.579251,
                        "velocity": 0.33858267716535434
                    },
                    {
                        "duration": 0.10398322265625382,
                        "durationTicks": 63,
                        "midi": 62,
                        "name": "D4",
                        "ticks": 28928,
                        "time": 48.579251,
                        "velocity": 0.3464566929133858
                    },
                    {
                        "duration": 0.10398322265625382,
                        "durationTicks": 63,
                        "midi": 66,
                        "name": "F#4",
                        "ticks": 29056,
                        "time": 48.790518500000005,
                        "velocity": 0.4251968503937008
                    },
                    {
                        "duration": 0.7625436328125019,
                        "durationTicks": 462,
                        "midi": 69,
                        "name": "A4",
                        "ticks": 29184,
                        "time": 49.001786,
                        "velocity": 0.41732283464566927
                    },
                    {
                        "duration": 0.10398322265625382,
                        "durationTicks": 63,
                        "midi": 71,
                        "name": "B4",
                        "ticks": 29696,
                        "time": 49.846856,
                        "velocity": 0.4330708661417323
                    },
                    {
                        "duration": 0.10398322265624671,
                        "durationTicks": 63,
                        "midi": 73,
                        "name": "C#5",
                        "ticks": 29824,
                        "time": 50.05812350000001,
                        "velocity": 0.4015748031496063
                    },
                    {
                        "duration": 0.10398322265625382,
                        "durationTicks": 63,
                        "midi": 66,
                        "name": "F#4",
                        "ticks": 29952,
                        "time": 50.269391,
                        "velocity": 0.4330708661417323
                    },
                    {
                        "duration": 0.10398322265625382,
                        "durationTicks": 63,
                        "midi": 74,
                        "name": "D5",
                        "ticks": 29952,
                        "time": 50.269391,
                        "velocity": 0.4330708661417323
                    },
                    {
                        "duration": 0.10398322265625382,
                        "durationTicks": 63,
                        "midi": 76,
                        "name": "E5",
                        "ticks": 30080,
                        "time": 50.480658500000004,
                        "velocity": 0.3937007874015748
                    },
                    {
                        "duration": 0.10398322265624671,
                        "durationTicks": 63,
                        "midi": 78,
                        "name": "F#5",
                        "ticks": 30208,
                        "time": 50.691926,
                        "velocity": 0.6299212598425197
                    },
                    {
                        "duration": 0.10398322265625382,
                        "durationTicks": 63,
                        "midi": 74,
                        "name": "D5",
                        "ticks": 30336,
                        "time": 50.9031935,
                        "velocity": 0.33858267716535434
                    },
                    {
                        "duration": 0.20796644531249342,
                        "durationTicks": 126,
                        "midi": 66,
                        "name": "F#4",
                        "ticks": 30464,
                        "time": 51.114461000000006,
                        "velocity": 0.3937007874015748
                    },
                    {
                        "duration": 0.20796644531249342,
                        "durationTicks": 126,
                        "midi": 78,
                        "name": "F#5",
                        "ticks": 30464,
                        "time": 51.114461000000006,
                        "velocity": 0.4015748031496063
                    },
                    {
                        "duration": 0.10398322265625382,
                        "durationTicks": 63,
                        "midi": 77,
                        "name": "F5",
                        "ticks": 30720,
                        "time": 51.536996,
                        "velocity": 0.5826771653543307
                    },
                    {
                        "duration": 0.10398322265624671,
                        "durationTicks": 63,
                        "midi": 73,
                        "name": "C#5",
                        "ticks": 30848,
                        "time": 51.74826350000001,
                        "velocity": 0.33858267716535434
                    },
                    {
                        "duration": 0.20796644531250763,
                        "durationTicks": 126,
                        "midi": 66,
                        "name": "F#4",
                        "ticks": 30976,
                        "time": 51.959531,
                        "velocity": 0.4015748031496063
                    },
                    {
                        "duration": 0.20796644531250763,
                        "durationTicks": 126,
                        "midi": 77,
                        "name": "F5",
                        "ticks": 30976,
                        "time": 51.959531,
                        "velocity": 0.4015748031496063
                    },
                    {
                        "duration": 0.1039832226562396,
                        "durationTicks": 63,
                        "midi": 76,
                        "name": "E5",
                        "ticks": 31232,
                        "time": 52.38206600000001,
                        "velocity": 0.5669291338582677
                    },
                    {
                        "duration": 0.10398322265625382,
                        "durationTicks": 63,
                        "midi": 72,
                        "name": "C5",
                        "ticks": 31360,
                        "time": 52.5933335,
                        "velocity": 0.3228346456692913
                    },
                    {
                        "duration": 0.20796644531249342,
                        "durationTicks": 126,
                        "midi": 66,
                        "name": "F#4",
                        "ticks": 31488,
                        "time": 52.804601000000005,
                        "velocity": 0.4015748031496063
                    },
                    {
                        "duration": 0.20796644531249342,
                        "durationTicks": 126,
                        "midi": 76,
                        "name": "E5",
                        "ticks": 31488,
                        "time": 52.804601000000005,
                        "velocity": 0.4094488188976378
                    },
                    {
                        "duration": 0.10398322265625382,
                        "durationTicks": 63,
                        "midi": 71,
                        "name": "B4",
                        "ticks": 31744,
                        "time": 53.227136,
                        "velocity": 0.3700787401574803
                    },
                    {
                        "duration": 0.10398322265624671,
                        "durationTicks": 63,
                        "midi": 73,
                        "name": "C#5",
                        "ticks": 31872,
                        "time": 53.43840350000001,
                        "velocity": 0.3937007874015748
                    },
                    {
                        "duration": 0.10398322265624671,
                        "durationTicks": 63,
                        "midi": 66,
                        "name": "F#4",
                        "ticks": 32000,
                        "time": 53.649671000000005,
                        "velocity": 0.41732283464566927
                    },
                    {
                        "duration": 0.10398322265624671,
                        "durationTicks": 63,
                        "midi": 74,
                        "name": "D5",
                        "ticks": 32000,
                        "time": 53.649671000000005,
                        "velocity": 0.4094488188976378
                    },
                    {
                        "duration": 0.10398322265625382,
                        "durationTicks": 63,
                        "midi": 76,
                        "name": "E5",
                        "ticks": 32128,
                        "time": 53.8609385,
                        "velocity": 0.3937007874015748
                    },
                    {
                        "duration": 0.10398322265624671,
                        "durationTicks": 63,
                        "midi": 78,
                        "name": "F#5",
                        "ticks": 32256,
                        "time": 54.07220600000001,
                        "velocity": 0.4251968503937008
                    },
                    {
                        "duration": 0.10398322265625382,
                        "durationTicks": 63,
                        "midi": 74,
                        "name": "D5",
                        "ticks": 32384,
                        "time": 54.2834735,
                        "velocity": 0.33070866141732286
                    },
                    {
                        "duration": 0.10398322265625382,
                        "durationTicks": 63,
                        "midi": 78,
                        "name": "F#5",
                        "ticks": 32512,
                        "time": 54.494741000000005,
                        "velocity": 0.4409448818897638
                    },
                    {
                        "duration": 0.10398322265624671,
                        "durationTicks": 63,
                        "midi": 83,
                        "name": "B5",
                        "ticks": 32640,
                        "time": 54.7060085,
                        "velocity": 0.4409448818897638
                    },
                    {
                        "duration": 0.10398322265625382,
                        "durationTicks": 63,
                        "midi": 81,
                        "name": "A5",
                        "ticks": 32768,
                        "time": 54.917276,
                        "velocity": 0.3779527559055118
                    },
                    {
                        "duration": 0.10398322265624671,
                        "durationTicks": 63,
                        "midi": 78,
                        "name": "F#5",
                        "ticks": 32896,
                        "time": 55.128543500000006,
                        "velocity": 0.33070866141732286
                    },
                    {
                        "duration": 0.10398322265624671,
                        "durationTicks": 63,
                        "midi": 69,
                        "name": "A4",
                        "ticks": 33024,
                        "time": 55.339811000000005,
                        "velocity": 0.36220472440944884
                    },
                    {
                        "duration": 0.10398322265624671,
                        "durationTicks": 63,
                        "midi": 74,
                        "name": "D5",
                        "ticks": 33024,
                        "time": 55.339811000000005,
                        "velocity": 0.3700787401574803
                    },
                    {
                        "duration": 0.10398322265625382,
                        "durationTicks": 63,
                        "midi": 78,
                        "name": "F#5",
                        "ticks": 33152,
                        "time": 55.5510785,
                        "velocity": 0.4015748031496063
                    },
                    {
                        "duration": 0.7625436328124948,
                        "durationTicks": 462,
                        "midi": 81,
                        "name": "A5",
                        "ticks": 33280,
                        "time": 55.76234600000001,
                        "velocity": 0.4094488188976378
                    },
                    {
                        "duration": 0.10398322265625382,
                        "durationTicks": 63,
                        "midi": 66,
                        "name": "F#4",
                        "ticks": 33792,
                        "time": 56.607416,
                        "velocity": 0.2992125984251969
                    },
                    {
                        "duration": 0.10398322265624671,
                        "durationTicks": 63,
                        "midi": 68,
                        "name": "G#4",
                        "ticks": 33920,
                        "time": 56.818683500000006,
                        "velocity": 0.3858267716535433
                    },
                    {
                        "duration": 0.10398322265624671,
                        "durationTicks": 63,
                        "midi": 70,
                        "name": "A#4",
                        "ticks": 34048,
                        "time": 57.029951000000004,
                        "velocity": 0.4251968503937008
                    },
                    {
                        "duration": 0.3812718164062474,
                        "durationTicks": 231,
                        "midi": 66,
                        "name": "F#4",
                        "ticks": 34048,
                        "time": 57.029951000000004,
                        "velocity": 0.3543307086614173
                    },
                    {
                        "duration": 0.10398322265625382,
                        "durationTicks": 63,
                        "midi": 71,
                        "name": "B4",
                        "ticks": 34176,
                        "time": 57.2412185,
                        "velocity": 0.3858267716535433
                    },
                    {
                        "duration": 0.10398322265624671,
                        "durationTicks": 63,
                        "midi": 73,
                        "name": "C#5",
                        "ticks": 34304,
                        "time": 57.45248600000001,
                        "velocity": 0.6614173228346457
                    },
                    {
                        "duration": 0.10398322265624671,
                        "durationTicks": 63,
                        "midi": 70,
                        "name": "A#4",
                        "ticks": 34432,
                        "time": 57.663753500000006,
                        "velocity": 0.36220472440944884
                    },
                    {
                        "duration": 0.20796644531250053,
                        "durationTicks": 126,
                        "midi": 73,
                        "name": "C#5",
                        "ticks": 34560,
                        "time": 57.875021000000004,
                        "velocity": 0.4330708661417323
                    },
                    {
                        "duration": 0.3812718164062545,
                        "durationTicks": 231,
                        "midi": 66,
                        "name": "F#4",
                        "ticks": 34560,
                        "time": 57.875021000000004,
                        "velocity": 0.33070866141732286
                    },
                    {
                        "duration": 0.3812718164062545,
                        "durationTicks": 231,
                        "midi": 70,
                        "name": "A#4",
                        "ticks": 34560,
                        "time": 57.875021000000004,
                        "velocity": 0.3543307086614173
                    },
                    {
                        "duration": 0.10398322265625382,
                        "durationTicks": 63,
                        "midi": 74,
                        "name": "D5",
                        "ticks": 34816,
                        "time": 58.297556,
                        "velocity": 0.6456692913385826
                    },
                    {
                        "duration": 0.10398322265625382,
                        "durationTicks": 63,
                        "midi": 70,
                        "name": "A#4",
                        "ticks": 34944,
                        "time": 58.508823500000005,
                        "velocity": 0.3779527559055118
                    },
                    {
                        "duration": 0.20796644531250053,
                        "durationTicks": 126,
                        "midi": 74,
                        "name": "D5",
                        "ticks": 35072,
                        "time": 58.720091000000004,
                        "velocity": 0.4566929133858268
                    },
                    {
                        "duration": 0.3812718164062474,
                        "durationTicks": 231,
                        "midi": 66,
                        "name": "F#4",
                        "ticks": 35072,
                        "time": 58.720091000000004,
                        "velocity": 0.3464566929133858
                    },
                    {
                        "duration": 0.3812718164062474,
                        "durationTicks": 231,
                        "midi": 70,
                        "name": "A#4",
                        "ticks": 35072,
                        "time": 58.720091000000004,
                        "velocity": 0.3543307086614173
                    },
                    {
                        "duration": 0.10398322265624671,
                        "durationTicks": 63,
                        "midi": 73,
                        "name": "C#5",
                        "ticks": 35328,
                        "time": 59.14262600000001,
                        "velocity": 0.6299212598425197
                    },
                    {
                        "duration": 0.10398322265624671,
                        "durationTicks": 63,
                        "midi": 70,
                        "name": "A#4",
                        "ticks": 35456,
                        "time": 59.353893500000005,
                        "velocity": 0.4015748031496063
                    },
                    {
                        "duration": 0.20796644531250053,
                        "durationTicks": 126,
                        "midi": 73,
                        "name": "C#5",
                        "ticks": 35584,
                        "time": 59.565161,
                        "velocity": 0.4566929133858268
                    },
                    {
                        "duration": 0.3812718164062545,
                        "durationTicks": 231,
                        "midi": 66,
                        "name": "F#4",
                        "ticks": 35584,
                        "time": 59.565161,
                        "velocity": 0.3858267716535433
                    },
                    {
                        "duration": 0.3812718164062545,
                        "durationTicks": 231,
                        "midi": 70,
                        "name": "A#4",
                        "ticks": 35584,
                        "time": 59.565161,
                        "velocity": 0.3700787401574803
                    },
                    {
                        "duration": 0.10398322265625382,
                        "durationTicks": 63,
                        "midi": 66,
                        "name": "F#4",
                        "ticks": 35840,
                        "time": 59.987696,
                        "velocity": 0.3779527559055118
                    },
                    {
                        "duration": 0.10398322265625382,
                        "durationTicks": 63,
                        "midi": 68,
                        "name": "G#4",
                        "ticks": 35968,
                        "time": 60.198963500000005,
                        "velocity": 0.4330708661417323
                    },
                    {
                        "duration": 0.10398322265624671,
                        "durationTicks": 63,
                        "midi": 70,
                        "name": "A#4",
                        "ticks": 36096,
                        "time": 60.410231,
                        "velocity": 0.49606299212598426
                    },
                    {
                        "duration": 0.3812718164062474,
                        "durationTicks": 231,
                        "midi": 66,
                        "name": "F#4",
                        "ticks": 36096,
                        "time": 60.410231,
                        "velocity": 0.3858267716535433
                    },
                    {
                        "duration": 0.10398322265625382,
                        "durationTicks": 63,
                        "midi": 71,
                        "name": "B4",
                        "ticks": 36224,
                        "time": 60.6214985,
                        "velocity": 0.4566929133858268
                    },
                    {
                        "duration": 0.10398322265624671,
                        "durationTicks": 63,
                        "midi": 73,
                        "name": "C#5",
                        "ticks": 36352,
                        "time": 60.83276600000001,
                        "velocity": 0.7165354330708661
                    },
                    {
                        "duration": 0.10398322265624671,
                        "durationTicks": 63,
                        "midi": 70,
                        "name": "A#4",
                        "ticks": 36480,
                        "time": 61.044033500000005,
                        "velocity": 0.41732283464566927
                    },
                    {
                        "duration": 0.20796644531250053,
                        "durationTicks": 126,
                        "midi": 73,
                        "name": "C#5",
                        "ticks": 36608,
                        "time": 61.255301,
                        "velocity": 0.5039370078740157
                    },
                    {
                        "duration": 0.3812718164062545,
                        "durationTicks": 231,
                        "midi": 66,
                        "name": "F#4",
                        "ticks": 36608,
                        "time": 61.255301,
                        "velocity": 0.4015748031496063
                    },
                    {
                        "duration": 0.3812718164062545,
                        "durationTicks": 231,
                        "midi": 70,
                        "name": "A#4",
                        "ticks": 36608,
                        "time": 61.255301,
                        "velocity": 0.41732283464566927
                    },
                    {
                        "duration": 0.10398322265624671,
                        "durationTicks": 63,
                        "midi": 74,
                        "name": "D5",
                        "ticks": 36864,
                        "time": 61.677836000000006,
                        "velocity": 0.7007874015748031
                    },
                    {
                        "duration": 0.10398322265625382,
                        "durationTicks": 63,
                        "midi": 70,
                        "name": "A#4",
                        "ticks": 36992,
                        "time": 61.889103500000004,
                        "velocity": 0.4015748031496063
                    },
                    {
                        "duration": 0.20796644531250053,
                        "durationTicks": 126,
                        "midi": 74,
                        "name": "D5",
                        "ticks": 37120,
                        "time": 62.100371,
                        "velocity": 0.5039370078740157
                    },
                    {
                        "duration": 0.3812718164062545,
                        "durationTicks": 231,
                        "midi": 66,
                        "name": "F#4",
                        "ticks": 37120,
                        "time": 62.100371,
                        "velocity": 0.41732283464566927
                    },
                    {
                        "duration": 0.3812718164062545,
                        "durationTicks": 231,
                        "midi": 70,
                        "name": "A#4",
                        "ticks": 37120,
                        "time": 62.100371,
                        "velocity": 0.4094488188976378
                    },
                    {
                        "duration": 0.41428236328125223,
                        "durationTicks": 251,
                        "midi": 73,
                        "name": "C#5",
                        "ticks": 37376,
                        "time": 62.522906000000006,
                        "velocity": 0.6771653543307087
                    },
                    {
                        "duration": 0.3812718164062545,
                        "durationTicks": 231,
                        "midi": 66,
                        "name": "F#4",
                        "ticks": 37632,
                        "time": 62.945441,
                        "velocity": 0.41732283464566927
                    },
                    {
                        "duration": 0.3812718164062545,
                        "durationTicks": 231,
                        "midi": 70,
                        "name": "A#4",
                        "ticks": 37632,
                        "time": 62.945441,
                        "velocity": 0.4330708661417323
                    },
                    {
                        "duration": 0.10398322265624671,
                        "durationTicks": 63,
                        "midi": 78,
                        "name": "F#5",
                        "ticks": 37888,
                        "time": 63.367976000000006,
                        "velocity": 0.5748031496062992
                    },
                    {
                        "duration": 0.10398322265625382,
                        "durationTicks": 63,
                        "midi": 80,
                        "name": "G#5",
                        "ticks": 38016,
                        "time": 63.579243500000004,
                        "velocity": 0.5196850393700787
                    },
                    {
                        "duration": 0.10398322265625382,
                        "durationTicks": 63,
                        "midi": 82,
                        "name": "A#5",
                        "ticks": 38144,
                        "time": 63.790511,
                        "velocity": 0.5354330708661418
                    },
                    {
                        "duration": 0.20796644531250053,
                        "durationTicks": 126,
                        "midi": 78,
                        "name": "F#5",
                        "ticks": 38144,
                        "time": 63.790511,
                        "velocity": 0.4330708661417323
                    },
                    {
                        "duration": 0.10398322265625382,
                        "durationTicks": 63,
                        "midi": 83,
                        "name": "B5",
                        "ticks": 38272,
                        "time": 64.0017785,
                        "velocity": 0.5118110236220472
                    },
                    {
                        "duration": 0.10398322265625382,
                        "durationTicks": 63,
                        "midi": 85,
                        "name": "C#6",
                        "ticks": 38400,
                        "time": 64.213046,
                        "velocity": 0.7795275590551181
                    },
                    {
                        "duration": 0.1039832226562396,
                        "durationTicks": 63,
                        "midi": 82,
                        "name": "A#5",
                        "ticks": 38528,
                        "time": 64.42431350000001,
                        "velocity": 0.44881889763779526
                    },
                    {
                        "duration": 0.20796644531250763,
                        "durationTicks": 126,
                        "midi": 85,
                        "name": "C#6",
                        "ticks": 38656,
                        "time": 64.635581,
                        "velocity": 0.5511811023622047
                    },
                    {
                        "duration": 0.20796644531250763,
                        "durationTicks": 126,
                        "midi": 78,
                        "name": "F#5",
                        "ticks": 38656,
                        "time": 64.635581,
                        "velocity": 0.44881889763779526
                    },
                    {
                        "duration": 0.20796644531250763,
                        "durationTicks": 126,
                        "midi": 82,
                        "name": "A#5",
                        "ticks": 38656,
                        "time": 64.635581,
                        "velocity": 0.44881889763779526
                    },
                    {
                        "duration": 0.1039832226562396,
                        "durationTicks": 63,
                        "midi": 86,
                        "name": "D6",
                        "ticks": 38912,
                        "time": 65.05811600000001,
                        "velocity": 0.7716535433070866
                    },
                    {
                        "duration": 0.10398322265625382,
                        "durationTicks": 63,
                        "midi": 82,
                        "name": "A#5",
                        "ticks": 39040,
                        "time": 65.2693835,
                        "velocity": 0.4566929133858268
                    },
                    {
                        "duration": 0.20796644531250763,
                        "durationTicks": 126,
                        "midi": 86,
                        "name": "D6",
                        "ticks": 39168,
                        "time": 65.480651,
                        "velocity": 0.5669291338582677
                    },
                    {
                        "duration": 0.20796644531250763,
                        "durationTicks": 126,
                        "midi": 78,
                        "name": "F#5",
                        "ticks": 39168,
                        "time": 65.480651,
                        "velocity": 0.4645669291338583
                    },
                    {
                        "duration": 0.20796644531250763,
                        "durationTicks": 126,
                        "midi": 82,
                        "name": "A#5",
                        "ticks": 39168,
                        "time": 65.480651,
                        "velocity": 0.4645669291338583
                    },
                    {
                        "duration": 0.1039832226562396,
                        "durationTicks": 63,
                        "midi": 85,
                        "name": "C#6",
                        "ticks": 39424,
                        "time": 65.903186,
                        "velocity": 0.7322834645669292
                    },
                    {
                        "duration": 0.10398322265626803,
                        "durationTicks": 63,
                        "midi": 82,
                        "name": "A#5",
                        "ticks": 39552,
                        "time": 66.1144535,
                        "velocity": 0.49606299212598426
                    },
                    {
                        "duration": 0.2079664453124792,
                        "durationTicks": 126,
                        "midi": 85,
                        "name": "C#6",
                        "ticks": 39680,
                        "time": 66.32572100000002,
                        "velocity": 0.5590551181102362
                    },
                    {
                        "duration": 0.2079664453124792,
                        "durationTicks": 126,
                        "midi": 78,
                        "name": "F#5",
                        "ticks": 39680,
                        "time": 66.32572100000002,
                        "velocity": 0.4881889763779528
                    },
                    {
                        "duration": 0.2079664453124792,
                        "durationTicks": 126,
                        "midi": 82,
                        "name": "A#5",
                        "ticks": 39680,
                        "time": 66.32572100000002,
                        "velocity": 0.4881889763779528
                    },
                    {
                        "duration": 0.10398322265626803,
                        "durationTicks": 63,
                        "midi": 78,
                        "name": "F#5",
                        "ticks": 39936,
                        "time": 66.748256,
                        "velocity": 0.4645669291338583
                    },
                    {
                        "duration": 0.10398322265625382,
                        "durationTicks": 63,
                        "midi": 80,
                        "name": "G#5",
                        "ticks": 40064,
                        "time": 66.9595235,
                        "velocity": 0.5748031496062992
                    },
                    {
                        "duration": 0.1039832226562396,
                        "durationTicks": 63,
                        "midi": 82,
                        "name": "A#5",
                        "ticks": 40192,
                        "time": 67.17079100000001,
                        "velocity": 0.6062992125984252
                    },
                    {
                        "duration": 0.20796644531250763,
                        "durationTicks": 126,
                        "midi": 78,
                        "name": "F#5",
                        "ticks": 40192,
                        "time": 67.17079100000001,
                        "velocity": 0.4881889763779528
                    },
                    {
                        "duration": 0.10398322265625382,
                        "durationTicks": 63,
                        "midi": 83,
                        "name": "B5",
                        "ticks": 40320,
                        "time": 67.3820585,
                        "velocity": 0.5826771653543307
                    },
                    {
                        "duration": 0.10398322265625382,
                        "durationTicks": 63,
                        "midi": 85,
                        "name": "C#6",
                        "ticks": 40448,
                        "time": 67.593326,
                        "velocity": 0.8346456692913385
                    },
                    {
                        "duration": 0.1039832226562396,
                        "durationTicks": 63,
                        "midi": 82,
                        "name": "A#5",
                        "ticks": 40576,
                        "time": 67.80459350000001,
                        "velocity": 0.5275590551181102
                    },
                    {
                        "duration": 0.20796644531250763,
                        "durationTicks": 126,
                        "midi": 85,
                        "name": "C#6",
                        "ticks": 40704,
                        "time": 68.015861,
                        "velocity": 0.6220472440944882
                    },
                    {
                        "duration": 0.20796644531250763,
                        "durationTicks": 126,
                        "midi": 78,
                        "name": "F#5",
                        "ticks": 40704,
                        "time": 68.015861,
                        "velocity": 0.5118110236220472
                    },
                    {
                        "duration": 0.20796644531250763,
                        "durationTicks": 126,
                        "midi": 82,
                        "name": "A#5",
                        "ticks": 40704,
                        "time": 68.015861,
                        "velocity": 0.5196850393700787
                    },
                    {
                        "duration": 0.1039832226562396,
                        "durationTicks": 63,
                        "midi": 86,
                        "name": "D6",
                        "ticks": 40960,
                        "time": 68.43839600000001,
                        "velocity": 0.8267716535433071
                    },
                    {
                        "duration": 0.10398322265625382,
                        "durationTicks": 63,
                        "midi": 82,
                        "name": "A#5",
                        "ticks": 41088,
                        "time": 68.6496635,
                        "velocity": 0.5039370078740157
                    },
                    {
                        "duration": 0.20796644531249342,
                        "durationTicks": 126,
                        "midi": 86,
                        "name": "D6",
                        "ticks": 41216,
                        "time": 68.86093100000001,
                        "velocity": 0.6062992125984252
                    },
                    {
                        "duration": 0.20796644531249342,
                        "durationTicks": 126,
                        "midi": 78,
                        "name": "F#5",
                        "ticks": 41216,
                        "time": 68.86093100000001,
                        "velocity": 0.5196850393700787
                    },
                    {
                        "duration": 0.20796644531249342,
                        "durationTicks": 126,
                        "midi": 82,
                        "name": "A#5",
                        "ticks": 41216,
                        "time": 68.86093100000001,
                        "velocity": 0.5196850393700787
                    },
                    {
                        "duration": 0.4142823632812451,
                        "durationTicks": 251,
                        "midi": 85,
                        "name": "C#6",
                        "ticks": 41472,
                        "time": 69.283466,
                        "velocity": 0.7874015748031497
                    },
                    {
                        "duration": 0.3812718164062403,
                        "durationTicks": 231,
                        "midi": 78,
                        "name": "F#5",
                        "ticks": 41728,
                        "time": 69.70600100000001,
                        "velocity": 0.5275590551181102
                    },
                    {
                        "duration": 0.3812718164062403,
                        "durationTicks": 231,
                        "midi": 82,
                        "name": "A#5",
                        "ticks": 41728,
                        "time": 69.70600100000001,
                        "velocity": 0.5354330708661418
                    },
                    {
                        "duration": 0.10183187109375069,
                        "durationTicks": 63,
                        "midi": 59,
                        "name": "B3",
                        "ticks": 41984,
                        "time": 70.128536,
                        "velocity": 0.47244094488188976
                    },
                    {
                        "duration": 0.10183187109375069,
                        "durationTicks": 63,
                        "midi": 61,
                        "name": "C#4",
                        "ticks": 42112,
                        "time": 70.3354325,
                        "velocity": 0.6535433070866141
                    },
                    {
                        "duration": 0.10183187109375069,
                        "durationTicks": 63,
                        "midi": 54,
                        "name": "F#3",
                        "ticks": 42240,
                        "time": 70.542329,
                        "velocity": 0.6771653543307087
                    },
                    {
                        "duration": 0.10183187109375069,
                        "durationTicks": 63,
                        "midi": 62,
                        "name": "D4",
                        "ticks": 42240,
                        "time": 70.542329,
                        "velocity": 0.6614173228346457
                    },
                    {
                        "duration": 0.10183187109375069,
                        "durationTicks": 63,
                        "midi": 64,
                        "name": "E4",
                        "ticks": 42368,
                        "time": 70.7492255,
                        "velocity": 0.6614173228346457
                    },
                    {
                        "duration": 0.10183187109375069,
                        "durationTicks": 63,
                        "midi": 66,
                        "name": "F#4",
                        "ticks": 42496,
                        "time": 70.956122,
                        "velocity": 0.889763779527559
                    },
                    {
                        "duration": 0.10183187109375069,
                        "durationTicks": 63,
                        "midi": 62,
                        "name": "D4",
                        "ticks": 42624,
                        "time": 71.16301849999999,
                        "velocity": 0.5433070866141733
                    },
                    {
                        "duration": 0.20366374218750138,
                        "durationTicks": 126,
                        "midi": 54,
                        "name": "F#3",
                        "ticks": 42752,
                        "time": 71.36991499999999,
                        "velocity": 0.7007874015748031
                    },
                    {
                        "duration": 0.20366374218750138,
                        "durationTicks": 126,
                        "midi": 66,
                        "name": "F#4",
                        "ticks": 42752,
                        "time": 71.36991499999999,
                        "velocity": 0.6771653543307087
                    },
                    {
                        "duration": 0.10183187109375069,
                        "durationTicks": 63,
                        "midi": 65,
                        "name": "F4",
                        "ticks": 43008,
                        "time": 71.78370799999999,
                        "velocity": 0.8267716535433071
                    },
                    {
                        "duration": 0.10183187109375069,
                        "durationTicks": 63,
                        "midi": 61,
                        "name": "C#4",
                        "ticks": 43136,
                        "time": 71.9906045,
                        "velocity": 0.5669291338582677
                    },
                    {
                        "duration": 0.20366374218748717,
                        "durationTicks": 126,
                        "midi": 54,
                        "name": "F#3",
                        "ticks": 43264,
                        "time": 72.197501,
                        "velocity": 0.6771653543307087
                    },
                    {
                        "duration": 0.20366374218748717,
                        "durationTicks": 126,
                        "midi": 65,
                        "name": "F4",
                        "ticks": 43264,
                        "time": 72.197501,
                        "velocity": 0.6771653543307087
                    },
                    {
                        "duration": 0.10183187109375069,
                        "durationTicks": 63,
                        "midi": 64,
                        "name": "E4",
                        "ticks": 43520,
                        "time": 72.611294,
                        "velocity": 0.8267716535433071
                    },
                    {
                        "duration": 0.10183187109375069,
                        "durationTicks": 63,
                        "midi": 60,
                        "name": "C4",
                        "ticks": 43648,
                        "time": 72.8181905,
                        "velocity": 0.5669291338582677
                    },
                    {
                        "duration": 0.20366374218750138,
                        "durationTicks": 126,
                        "midi": 54,
                        "name": "F#3",
                        "ticks": 43776,
                        "time": 73.025087,
                        "velocity": 0.6850393700787402
                    },
                    {
                        "duration": 0.20366374218750138,
                        "durationTicks": 126,
                        "midi": 64,
                        "name": "E4",
                        "ticks": 43776,
                        "time": 73.025087,
                        "velocity": 0.6929133858267716
                    },
                    {
                        "duration": 0.10183187109375069,
                        "durationTicks": 63,
                        "midi": 59,
                        "name": "B3",
                        "ticks": 44032,
                        "time": 73.43888,
                        "velocity": 0.5669291338582677
                    },
                    {
                        "duration": 0.10183187109375069,
                        "durationTicks": 63,
                        "midi": 61,
                        "name": "C#4",
                        "ticks": 44160,
                        "time": 73.6457765,
                        "velocity": 0.6692913385826772
                    },
                    {
                        "duration": 0.10183187109375069,
                        "durationTicks": 63,
                        "midi": 54,
                        "name": "F#3",
                        "ticks": 44288,
                        "time": 73.852673,
                        "velocity": 0.6929133858267716
                    },
                    {
                        "duration": 0.10183187109375069,
                        "durationTicks": 63,
                        "midi": 62,
                        "name": "D4",
                        "ticks": 44288,
                        "time": 73.852673,
                        "velocity": 0.6850393700787402
                    },
                    {
                        "duration": 0.10183187109375069,
                        "durationTicks": 63,
                        "midi": 64,
                        "name": "E4",
                        "ticks": 44416,
                        "time": 74.0595695,
                        "velocity": 0.6614173228346457
                    },
                    {
                        "duration": 0.10183187109375069,
                        "durationTicks": 63,
                        "midi": 66,
                        "name": "F#4",
                        "ticks": 44544,
                        "time": 74.266466,
                        "velocity": 0.6850393700787402
                    },
                    {
                        "duration": 0.10183187109375069,
                        "durationTicks": 63,
                        "midi": 62,
                        "name": "D4",
                        "ticks": 44672,
                        "time": 74.4733625,
                        "velocity": 0.5669291338582677
                    },
                    {
                        "duration": 0.10183187109375069,
                        "durationTicks": 63,
                        "midi": 59,
                        "name": "B3",
                        "ticks": 44800,
                        "time": 74.68025899999999,
                        "velocity": 0.6929133858267716
                    },
                    {
                        "duration": 0.10183187109375069,
                        "durationTicks": 63,
                        "midi": 66,
                        "name": "F#4",
                        "ticks": 44800,
                        "time": 74.68025899999999,
                        "velocity": 0.6929133858267716
                    },
                    {
                        "duration": 0.10183187109375069,
                        "durationTicks": 63,
                        "midi": 71,
                        "name": "B4",
                        "ticks": 44928,
                        "time": 74.88715549999999,
                        "velocity": 0.7007874015748031
                    },
                    {
                        "duration": 0.10183187109375069,
                        "durationTicks": 63,
                        "midi": 69,
                        "name": "A4",
                        "ticks": 45056,
                        "time": 75.09405199999999,
                        "velocity": 0.6220472440944882
                    },
                    {
                        "duration": 0.10183187109373648,
                        "durationTicks": 63,
                        "midi": 66,
                        "name": "F#4",
                        "ticks": 45184,
                        "time": 75.3009485,
                        "velocity": 0.5826771653543307
                    },
                    {
                        "duration": 0.10183187109373648,
                        "durationTicks": 63,
                        "midi": 57,
                        "name": "A3",
                        "ticks": 45312,
                        "time": 75.507845,
                        "velocity": 0.5590551181102362
                    },
                    {
                        "duration": 0.10183187109373648,
                        "durationTicks": 63,
                        "midi": 62,
                        "name": "D4",
                        "ticks": 45312,
                        "time": 75.507845,
                        "velocity": 0.5748031496062992
                    },
                    {
                        "duration": 0.10183187109375069,
                        "durationTicks": 63,
                        "midi": 66,
                        "name": "F#4",
                        "ticks": 45440,
                        "time": 75.7147415,
                        "velocity": 0.6771653543307087
                    },
                    {
                        "duration": 0.7871765273437461,
                        "durationTicks": 487,
                        "midi": 69,
                        "name": "A4",
                        "ticks": 45568,
                        "time": 75.921638,
                        "velocity": 0.7086614173228346
                    },
                    {
                        "duration": 0.3733835273437478,
                        "durationTicks": 231,
                        "midi": 57,
                        "name": "A3",
                        "ticks": 45824,
                        "time": 76.335431,
                        "velocity": 0.6535433070866141
                    },
                    {
                        "duration": 0.3733835273437478,
                        "durationTicks": 231,
                        "midi": 62,
                        "name": "D4",
                        "ticks": 45824,
                        "time": 76.335431,
                        "velocity": 0.6299212598425197
                    },
                    {
                        "duration": 0.09976763671875233,
                        "durationTicks": 63,
                        "midi": 71,
                        "name": "B4",
                        "ticks": 46080,
                        "time": 76.749224,
                        "velocity": 0.7007874015748031
                    },
                    {
                        "duration": 0.09976763671875233,
                        "durationTicks": 63,
                        "midi": 73,
                        "name": "C#5",
                        "ticks": 46208,
                        "time": 76.9519265,
                        "velocity": 0.6614173228346457
                    },
                    {
                        "duration": 0.09976763671875233,
                        "durationTicks": 63,
                        "midi": 66,
                        "name": "F#4",
                        "ticks": 46336,
                        "time": 77.154629,
                        "velocity": 0.6850393700787402
                    },
                    {
                        "duration": 0.09976763671875233,
                        "durationTicks": 63,
                        "midi": 74,
                        "name": "D5",
                        "ticks": 46336,
                        "time": 77.154629,
                        "velocity": 0.7007874015748031
                    },
                    {
                        "duration": 0.09976763671875233,
                        "durationTicks": 63,
                        "midi": 76,
                        "name": "E5",
                        "ticks": 46464,
                        "time": 77.3573315,
                        "velocity": 0.6692913385826772
                    },
                    {
                        "duration": 0.09976763671875233,
                        "durationTicks": 63,
                        "midi": 78,
                        "name": "F#5",
                        "ticks": 46592,
                        "time": 77.560034,
                        "velocity": 0.905511811023622
                    },
                    {
                        "duration": 0.09976763671875233,
                        "durationTicks": 63,
                        "midi": 74,
                        "name": "D5",
                        "ticks": 46720,
                        "time": 77.7627365,
                        "velocity": 0.5590551181102362
                    },
                    {
                        "duration": 0.19953527343749045,
                        "durationTicks": 126,
                        "midi": 66,
                        "name": "F#4",
                        "ticks": 46848,
                        "time": 77.965439,
                        "velocity": 0.6850393700787402
                    },
                    {
                        "duration": 0.19953527343749045,
                        "durationTicks": 126,
                        "midi": 78,
                        "name": "F#5",
                        "ticks": 46848,
                        "time": 77.965439,
                        "velocity": 0.6850393700787402
                    },
                    {
                        "duration": 0.09976763671873812,
                        "durationTicks": 63,
                        "midi": 77,
                        "name": "F5",
                        "ticks": 47104,
                        "time": 78.370844,
                        "velocity": 0.8110236220472441
                    },
                    {
                        "duration": 0.09976763671875233,
                        "durationTicks": 63,
                        "midi": 73,
                        "name": "C#5",
                        "ticks": 47232,
                        "time": 78.57354649999999,
                        "velocity": 0.5669291338582677
                    },
                    {
                        "duration": 0.19953527343750466,
                        "durationTicks": 126,
                        "midi": 66,
                        "name": "F#4",
                        "ticks": 47360,
                        "time": 78.77624899999999,
                        "velocity": 0.6850393700787402
                    },
                    {
                        "duration": 0.19953527343750466,
                        "durationTicks": 126,
                        "midi": 77,
                        "name": "F5",
                        "ticks": 47360,
                        "time": 78.77624899999999,
                        "velocity": 0.6850393700787402
                    },
                    {
                        "duration": 0.09976763671875233,
                        "durationTicks": 63,
                        "midi": 76,
                        "name": "E5",
                        "ticks": 47616,
                        "time": 79.181654,
                        "velocity": 0.8346456692913385
                    },
                    {
                        "duration": 0.09976763671875233,
                        "durationTicks": 63,
                        "midi": 72,
                        "name": "C5",
                        "ticks": 47744,
                        "time": 79.3843565,
                        "velocity": 0.5590551181102362
                    },
                    {
                        "duration": 0.19953527343750466,
                        "durationTicks": 126,
                        "midi": 66,
                        "name": "F#4",
                        "ticks": 47872,
                        "time": 79.587059,
                        "velocity": 0.6929133858267716
                    },
                    {
                        "duration": 0.19953527343750466,
                        "durationTicks": 126,
                        "midi": 76,
                        "name": "E5",
                        "ticks": 47872,
                        "time": 79.587059,
                        "velocity": 0.6850393700787402
                    },
                    {
                        "duration": 0.09843750000000284,
                        "durationTicks": 63,
                        "midi": 71,
                        "name": "B4",
                        "ticks": 48128,
                        "time": 79.992464,
                        "velocity": 0.5826771653543307
                    },
                    {
                        "duration": 0.0962994374999937,
                        "durationTicks": 63,
                        "midi": 73,
                        "name": "C#5",
                        "ticks": 48256,
                        "time": 80.192464,
                        "velocity": 0.6614173228346457
                    },
                    {
                        "duration": 0.09425267578124874,
                        "durationTicks": 63,
                        "midi": 66,
                        "name": "F#4",
                        "ticks": 48384,
                        "time": 80.38812,
                        "velocity": 0.7086614173228346
                    },
                    {
                        "duration": 0.09425267578124874,
                        "durationTicks": 63,
                        "midi": 74,
                        "name": "D5",
                        "ticks": 48384,
                        "time": 80.38812,
                        "velocity": 0.7244094488188977
                    },
                    {
                        "duration": 0.0922908164062477,
                        "durationTicks": 63,
                        "midi": 76,
                        "name": "E5",
                        "ticks": 48512,
                        "time": 80.5796175,
                        "velocity": 0.7086614173228346
                    },
                    {
                        "duration": 0.09040893750000123,
                        "durationTicks": 63,
                        "midi": 78,
                        "name": "F#5",
                        "ticks": 48640,
                        "time": 80.767129,
                        "velocity": 0.7637795275590551
                    },
                    {
                        "duration": 0.08860260937500186,
                        "durationTicks": 63,
                        "midi": 74,
                        "name": "D5",
                        "ticks": 48768,
                        "time": 80.950817,
                        "velocity": 0.6220472440944882
                    },
                    {
                        "duration": 0.08686666406249799,
                        "durationTicks": 63,
                        "midi": 78,
                        "name": "F#5",
                        "ticks": 48896,
                        "time": 81.130835,
                        "velocity": 0.7874015748031497
                    },
                    {
                        "duration": 0.08519765625000275,
                        "durationTicks": 63,
                        "midi": 83,
                        "name": "B5",
                        "ticks": 49024,
                        "time": 81.307326,
                        "velocity": 0.8110236220472441
                    },
                    {
                        "duration": 0.08359140234375673,
                        "durationTicks": 63,
                        "midi": 78,
                        "name": "F#5",
                        "ticks": 49152,
                        "time": 81.48042600000001,
                        "velocity": 0.6929133858267716
                    },
                    {
                        "duration": 0.08204470312500689,
                        "durationTicks": 63,
                        "midi": 74,
                        "name": "D5",
                        "ticks": 49280,
                        "time": 81.65026250000001,
                        "velocity": 0.6614173228346457
                    },
                    {
                        "duration": 0.24278292578125615,
                        "durationTicks": 191,
                        "midi": 71,
                        "name": "B4",
                        "ticks": 49408,
                        "time": 81.81695650000002,
                        "velocity": 0.8503937007874016
                    },
                    {
                        "duration": 0.24278292578125615,
                        "durationTicks": 191,
                        "midi": 74,
                        "name": "D5",
                        "ticks": 49408,
                        "time": 81.81695650000002,
                        "velocity": 0.8582677165354331
                    },
                    {
                        "duration": 0.08055435937500022,
                        "durationTicks": 63,
                        "midi": 78,
                        "name": "F#5",
                        "ticks": 49408,
                        "time": 81.81695650000002,
                        "velocity": 0.8740157480314961
                    },
                    {
                        "duration": 0.07911692578124985,
                        "durationTicks": 63,
                        "midi": 83,
                        "name": "B5",
                        "ticks": 49536,
                        "time": 81.98062250000002,
                        "velocity": 0.8818897637795275
                    },
                    {
                        "duration": 0.5699004609375038,
                        "durationTicks": 462,
                        "midi": 71,
                        "name": "B4",
                        "ticks": 49664,
                        "time": 82.14136800000003,
                        "velocity": 0.7559055118110236
                    },
                    {
                        "duration": 0.07771369921874793,
                        "durationTicks": 63,
                        "midi": 83,
                        "name": "B5",
                        "ticks": 50176,
                        "time": 82.77294600000003,
                        "velocity": 1
                    },
                    {
                        "duration": 0.5699004609375038,
                        "durationTicks": 462,
                        "midi": 83,
                        "name": "B5",
                        "ticks": 50176,
                        "time": 82.77294600000003,
                        "velocity": 1
                    },
                    {
                        "duration": 0.07771369921874793,
                        "durationTicks": 63,
                        "midi": 85,
                        "name": "C#6",
                        "ticks": 50304,
                        "time": 82.93084050000003,
                        "velocity": 0.968503937007874
                    },
                    {
                        "duration": 0.07771369921874793,
                        "durationTicks": 63,
                        "midi": 86,
                        "name": "D6",
                        "ticks": 50432,
                        "time": 83.08873500000003,
                        "velocity": 0.952755905511811
                    },
                    {
                        "duration": 0.07771369921876214,
                        "durationTicks": 63,
                        "midi": 88,
                        "name": "E6",
                        "ticks": 50560,
                        "time": 83.24662950000003,
                        "velocity": 0.9291338582677166
                    },
                    {
                        "duration": 0.07771369921874793,
                        "durationTicks": 63,
                        "midi": 90,
                        "name": "F#6",
                        "ticks": 50688,
                        "time": 83.40452400000004,
                        "velocity": 1
                    },
                    {
                        "duration": 0.5699004609374896,
                        "durationTicks": 462,
                        "midi": 83,
                        "name": "B5",
                        "ticks": 50688,
                        "time": 83.40452400000004,
                        "velocity": 1
                    },
                    {
                        "duration": 0.07771369921874793,
                        "durationTicks": 63,
                        "midi": 86,
                        "name": "D6",
                        "ticks": 50816,
                        "time": 83.56241850000004,
                        "velocity": 0.7637795275590551
                    },
                    {
                        "duration": 0.15542739843749587,
                        "durationTicks": 126,
                        "midi": 90,
                        "name": "F#6",
                        "ticks": 50944,
                        "time": 83.72031300000003,
                        "velocity": 0.9606299212598425
                    },
                    {
                        "duration": 0.07771369921874793,
                        "durationTicks": 63,
                        "midi": 89,
                        "name": "F6",
                        "ticks": 51200,
                        "time": 84.03610200000003,
                        "velocity": 0.984251968503937
                    },
                    {
                        "duration": 0.5699004609375038,
                        "durationTicks": 462,
                        "midi": 83,
                        "name": "B5",
                        "ticks": 51200,
                        "time": 84.03610200000003,
                        "velocity": 0.889763779527559
                    },
                    {
                        "duration": 0.07771369921876214,
                        "durationTicks": 63,
                        "midi": 85,
                        "name": "C#6",
                        "ticks": 51328,
                        "time": 84.19399650000003,
                        "velocity": 0.7795275590551181
                    },
                    {
                        "duration": 0.15542739843749587,
                        "durationTicks": 126,
                        "midi": 89,
                        "name": "F6",
                        "ticks": 51456,
                        "time": 84.35189100000004,
                        "velocity": 0.968503937007874
                    },
                    {
                        "duration": 0.07771369921874793,
                        "durationTicks": 63,
                        "midi": 88,
                        "name": "E6",
                        "ticks": 51712,
                        "time": 84.66768000000003,
                        "velocity": 0.968503937007874
                    },
                    {
                        "duration": 0.5699004609375038,
                        "durationTicks": 462,
                        "midi": 83,
                        "name": "B5",
                        "ticks": 51712,
                        "time": 84.66768000000003,
                        "velocity": 0.8740157480314961
                    },
                    {
                        "duration": 0.07771369921874793,
                        "durationTicks": 63,
                        "midi": 84,
                        "name": "C6",
                        "ticks": 51840,
                        "time": 84.82557450000003,
                        "velocity": 0.7637795275590551
                    },
                    {
                        "duration": 0.15542739843751008,
                        "durationTicks": 126,
                        "midi": 88,
                        "name": "E6",
                        "ticks": 51968,
                        "time": 84.98346900000003,
                        "velocity": 0.968503937007874
                    },
                    {
                        "duration": 0.07771369921874793,
                        "durationTicks": 63,
                        "midi": 83,
                        "name": "B5",
                        "ticks": 52224,
                        "time": 85.29925800000004,
                        "velocity": 0.7716535433070866
                    },
                    {
                        "duration": 0.5699004609374896,
                        "durationTicks": 462,
                        "midi": 83,
                        "name": "B5",
                        "ticks": 52224,
                        "time": 85.29925800000004,
                        "velocity": 0.889763779527559
                    },
                    {
                        "duration": 0.07771369921874793,
                        "durationTicks": 63,
                        "midi": 85,
                        "name": "C#6",
                        "ticks": 52352,
                        "time": 85.45715250000003,
                        "velocity": 0.9133858267716536
                    },
                    {
                        "duration": 0.07771369921874793,
                        "durationTicks": 63,
                        "midi": 86,
                        "name": "D6",
                        "ticks": 52480,
                        "time": 85.61504700000003,
                        "velocity": 0.937007874015748
                    },
                    {
                        "duration": 0.07771369921874793,
                        "durationTicks": 63,
                        "midi": 88,
                        "name": "E6",
                        "ticks": 52608,
                        "time": 85.77294150000003,
                        "velocity": 0.9448818897637795
                    },
                    {
                        "duration": 0.07771369921874793,
                        "durationTicks": 63,
                        "midi": 90,
                        "name": "F#6",
                        "ticks": 52736,
                        "time": 85.93083600000003,
                        "velocity": 0.9606299212598425
                    },
                    {
                        "duration": 0.5699004609375038,
                        "durationTicks": 462,
                        "midi": 83,
                        "name": "B5",
                        "ticks": 52736,
                        "time": 85.93083600000003,
                        "velocity": 0.8818897637795275
                    },
                    {
                        "duration": 0.07771369921876214,
                        "durationTicks": 63,
                        "midi": 86,
                        "name": "D6",
                        "ticks": 52864,
                        "time": 86.08873050000003,
                        "velocity": 0.7716535433070866
                    },
                    {
                        "duration": 0.07771369921874793,
                        "durationTicks": 63,
                        "midi": 90,
                        "name": "F#6",
                        "ticks": 52992,
                        "time": 86.24662500000004,
                        "velocity": 0.984251968503937
                    },
                    {
                        "duration": 0.07771369921874793,
                        "durationTicks": 63,
                        "midi": 95,
                        "name": "B6",
                        "ticks": 53120,
                        "time": 86.40451950000003,
                        "velocity": 1
                    },
                    {
                        "duration": 0.07771369921874793,
                        "durationTicks": 63,
                        "midi": 93,
                        "name": "A6",
                        "ticks": 53248,
                        "time": 86.56241400000003,
                        "velocity": 0.8503937007874016
                    },
                    {
                        "duration": 0.5699004609375038,
                        "durationTicks": 462,
                        "midi": 81,
                        "name": "A5",
                        "ticks": 53248,
                        "time": 86.56241400000003,
                        "velocity": 0.9763779527559056
                    },
                    {
                        "duration": 0.39350269921874315,
                        "durationTicks": 319,
                        "midi": 86,
                        "name": "D6",
                        "ticks": 53248,
                        "time": 86.56241400000003,
                        "velocity": 0.968503937007874
                    },
                    {
                        "duration": 0.07771369921874793,
                        "durationTicks": 63,
                        "midi": 90,
                        "name": "F#6",
                        "ticks": 53376,
                        "time": 86.72030850000003,
                        "velocity": 0.7795275590551181
                    },
                    {
                        "duration": 0.2541114609375086,
                        "durationTicks": 206,
                        "midi": 86,
                        "name": "D6",
                        "ticks": 53504,
                        "time": 86.87820300000003,
                        "velocity": 0.7716535433070866
                    },
                    {
                        "duration": 0.07771369921874793,
                        "durationTicks": 63,
                        "midi": 90,
                        "name": "F#6",
                        "ticks": 53632,
                        "time": 87.03609750000004,
                        "velocity": 0.9606299212598425
                    },
                    {
                        "duration": 0.5699004609374896,
                        "durationTicks": 462,
                        "midi": 93,
                        "name": "A6",
                        "ticks": 53760,
                        "time": 87.19399200000004,
                        "velocity": 0.984251968503937
                    },
                    {
                        "duration": 0.5699004609374896,
                        "durationTicks": 462,
                        "midi": 81,
                        "name": "A5",
                        "ticks": 53760,
                        "time": 87.19399200000004,
                        "velocity": 0.9921259842519685
                    },
                    {
                        "duration": 0.5699004609374896,
                        "durationTicks": 462,
                        "midi": 86,
                        "name": "D6",
                        "ticks": 53760,
                        "time": 87.19399200000004,
                        "velocity": 0.984251968503937
                    },
                    {
                        "duration": 0.07771369921874793,
                        "durationTicks": 63,
                        "midi": 83,
                        "name": "B5",
                        "ticks": 54272,
                        "time": 87.82557000000003,
                        "velocity": 0.7086614173228346
                    },
                    {
                        "duration": 0.5699004609375038,
                        "durationTicks": 462,
                        "midi": 83,
                        "name": "B5",
                        "ticks": 54272,
                        "time": 87.82557000000003,
                        "velocity": 0.8110236220472441
                    },
                    {
                        "duration": 0.07771369921876214,
                        "durationTicks": 63,
                        "midi": 85,
                        "name": "C#6",
                        "ticks": 54400,
                        "time": 87.98346450000003,
                        "velocity": 0.8740157480314961
                    },
                    {
                        "duration": 0.07771369921874793,
                        "durationTicks": 63,
                        "midi": 86,
                        "name": "D6",
                        "ticks": 54528,
                        "time": 88.14135900000004,
                        "velocity": 0.9291338582677166
                    },
                    {
                        "duration": 0.07771369921874793,
                        "durationTicks": 63,
                        "midi": 88,
                        "name": "E6",
                        "ticks": 54656,
                        "time": 88.29925350000003,
                        "velocity": 0.9291338582677166
                    },
                    {
                        "duration": 0.07771369921874793,
                        "durationTicks": 63,
                        "midi": 90,
                        "name": "F#6",
                        "ticks": 54784,
                        "time": 88.45714800000003,
                        "velocity": 1
                    },
                    {
                        "duration": 0.5699004609375038,
                        "durationTicks": 462,
                        "midi": 83,
                        "name": "B5",
                        "ticks": 54784,
                        "time": 88.45714800000003,
                        "velocity": 0.8740157480314961
                    },
                    {
                        "duration": 0.07771369921874793,
                        "durationTicks": 63,
                        "midi": 86,
                        "name": "D6",
                        "ticks": 54912,
                        "time": 88.61504250000003,
                        "velocity": 0.7637795275590551
                    },
                    {
                        "duration": 0.15542739843751008,
                        "durationTicks": 126,
                        "midi": 90,
                        "name": "F#6",
                        "ticks": 55040,
                        "time": 88.77293700000003,
                        "velocity": 0.937007874015748
                    },
                    {
                        "duration": 0.07771369921874793,
                        "durationTicks": 63,
                        "midi": 89,
                        "name": "F6",
                        "ticks": 55296,
                        "time": 89.08872600000004,
                        "velocity": 0.9763779527559056
                    },
                    {
                        "duration": 0.5699004609374896,
                        "durationTicks": 462,
                        "midi": 83,
                        "name": "B5",
                        "ticks": 55296,
                        "time": 89.08872600000004,
                        "velocity": 0.8976377952755905
                    },
                    {
                        "duration": 0.07771369921874793,
                        "durationTicks": 63,
                        "midi": 85,
                        "name": "C#6",
                        "ticks": 55424,
                        "time": 89.24662050000003,
                        "velocity": 0.7795275590551181
                    },
                    {
                        "duration": 0.15542739843749587,
                        "durationTicks": 126,
                        "midi": 89,
                        "name": "F6",
                        "ticks": 55552,
                        "time": 89.40451500000003,
                        "velocity": 0.937007874015748
                    },
                    {
                        "duration": 0.07771369921874793,
                        "durationTicks": 63,
                        "midi": 88,
                        "name": "E6",
                        "ticks": 55808,
                        "time": 89.72030400000003,
                        "velocity": 0.984251968503937
                    },
                    {
                        "duration": 0.5699004609375038,
                        "durationTicks": 462,
                        "midi": 83,
                        "name": "B5",
                        "ticks": 55808,
                        "time": 89.72030400000003,
                        "velocity": 0.8818897637795275
                    },
                    {
                        "duration": 0.07771369921876214,
                        "durationTicks": 63,
                        "midi": 84,
                        "name": "C6",
                        "ticks": 55936,
                        "time": 89.87819850000002,
                        "velocity": 0.7716535433070866
                    },
                    {
                        "duration": 0.15542739843749587,
                        "durationTicks": 126,
                        "midi": 88,
                        "name": "E6",
                        "ticks": 56064,
                        "time": 90.03609300000004,
                        "velocity": 0.9448818897637795
                    },
                    {
                        "duration": 0.07771369921874793,
                        "durationTicks": 63,
                        "midi": 83,
                        "name": "B5",
                        "ticks": 56320,
                        "time": 90.35188200000003,
                        "velocity": 0.7795275590551181
                    },
                    {
                        "duration": 0.5699004609375038,
                        "durationTicks": 462,
                        "midi": 83,
                        "name": "B5",
                        "ticks": 56320,
                        "time": 90.35188200000003,
                        "velocity": 0.8976377952755905
                    },
                    {
                        "duration": 0.07771369921874793,
                        "durationTicks": 63,
                        "midi": 85,
                        "name": "C#6",
                        "ticks": 56448,
                        "time": 90.50977650000003,
                        "velocity": 0.9291338582677166
                    },
                    {
                        "duration": 0.07771369921876214,
                        "durationTicks": 63,
                        "midi": 86,
                        "name": "D6",
                        "ticks": 56576,
                        "time": 90.66767100000003,
                        "velocity": 0.9291338582677166
                    },
                    {
                        "duration": 0.07771369921874793,
                        "durationTicks": 63,
                        "midi": 88,
                        "name": "E6",
                        "ticks": 56704,
                        "time": 90.82556550000004,
                        "velocity": 0.9291338582677166
                    },
                    {
                        "duration": 0.07771369921874793,
                        "durationTicks": 63,
                        "midi": 90,
                        "name": "F#6",
                        "ticks": 56832,
                        "time": 90.98346000000004,
                        "velocity": 0.968503937007874
                    },
                    {
                        "duration": 0.5699004609374896,
                        "durationTicks": 462,
                        "midi": 83,
                        "name": "B5",
                        "ticks": 56832,
                        "time": 90.98346000000004,
                        "velocity": 0.8740157480314961
                    },
                    {
                        "duration": 0.07771369921874793,
                        "durationTicks": 63,
                        "midi": 86,
                        "name": "D6",
                        "ticks": 56960,
                        "time": 91.14135450000003,
                        "velocity": 0.7952755905511811
                    },
                    {
                        "duration": 0.07771369921874793,
                        "durationTicks": 63,
                        "midi": 90,
                        "name": "F#6",
                        "ticks": 57088,
                        "time": 91.29924900000003,
                        "velocity": 0.9606299212598425
                    },
                    {
                        "duration": 0.07771369921874793,
                        "durationTicks": 63,
                        "midi": 95,
                        "name": "B6",
                        "ticks": 57216,
                        "time": 91.45714350000003,
                        "velocity": 1
                    },
                    {
                        "duration": 0.07771369921874793,
                        "durationTicks": 63,
                        "midi": 93,
                        "name": "A6",
                        "ticks": 57344,
                        "time": 91.61503800000003,
                        "velocity": 0.8740157480314961
                    },
                    {
                        "duration": 0.39350269921875736,
                        "durationTicks": 319,
                        "midi": 81,
                        "name": "A5",
                        "ticks": 57344,
                        "time": 91.61503800000003,
                        "velocity": 0.9763779527559056
                    },
                    {
                        "duration": 0.39350269921875736,
                        "durationTicks": 319,
                        "midi": 86,
                        "name": "D6",
                        "ticks": 57344,
                        "time": 91.61503800000003,
                        "velocity": 0.9763779527559056
                    },
                    {
                        "duration": 0.07771369921876214,
                        "durationTicks": 63,
                        "midi": 90,
                        "name": "F#6",
                        "ticks": 57472,
                        "time": 91.77293250000002,
                        "velocity": 0.8031496062992126
                    },
                    {
                        "duration": 0.25411146093749437,
                        "durationTicks": 206,
                        "midi": 81,
                        "name": "A5",
                        "ticks": 57600,
                        "time": 91.93082700000004,
                        "velocity": 0.7795275590551181
                    },
                    {
                        "duration": 0.25411146093749437,
                        "durationTicks": 206,
                        "midi": 86,
                        "name": "D6",
                        "ticks": 57600,
                        "time": 91.93082700000004,
                        "velocity": 0.7874015748031497
                    },
                    {
                        "duration": 0.07771369921874793,
                        "durationTicks": 63,
                        "midi": 90,
                        "name": "F#6",
                        "ticks": 57728,
                        "time": 92.08872150000003,
                        "velocity": 0.937007874015748
                    },
                    {
                        "duration": 0.5699004609375038,
                        "durationTicks": 462,
                        "midi": 93,
                        "name": "A6",
                        "ticks": 57856,
                        "time": 92.24661600000003,
                        "velocity": 0.9606299212598425
                    },
                    {
                        "duration": 0.5699004609375038,
                        "durationTicks": 462,
                        "midi": 81,
                        "name": "A5",
                        "ticks": 57856,
                        "time": 92.24661600000003,
                        "velocity": 0.889763779527559
                    },
                    {
                        "duration": 0.5699004609375038,
                        "durationTicks": 462,
                        "midi": 86,
                        "name": "D6",
                        "ticks": 57856,
                        "time": 92.24661600000003,
                        "velocity": 0.8818897637795275
                    },
                    {
                        "duration": 0.07771369921874793,
                        "durationTicks": 63,
                        "midi": 90,
                        "name": "F#6",
                        "ticks": 58368,
                        "time": 92.87819400000004,
                        "velocity": 0.6771653543307087
                    },
                    {
                        "duration": 0.5699004609374896,
                        "durationTicks": 462,
                        "midi": 90,
                        "name": "F#6",
                        "ticks": 58368,
                        "time": 92.87819400000004,
                        "velocity": 0.7401574803149606
                    },
                    {
                        "duration": 0.07771369921874793,
                        "durationTicks": 63,
                        "midi": 92,
                        "name": "G#6",
                        "ticks": 58496,
                        "time": 93.03608850000003,
                        "velocity": 0.8740157480314961
                    },
                    {
                        "duration": 0.07771369921874793,
                        "durationTicks": 63,
                        "midi": 94,
                        "name": "A#6",
                        "ticks": 58624,
                        "time": 93.19398300000003,
                        "velocity": 0.937007874015748
                    },
                    {
                        "duration": 0.07771369921874793,
                        "durationTicks": 63,
                        "midi": 95,
                        "name": "B6",
                        "ticks": 58752,
                        "time": 93.35187750000003,
                        "velocity": 0.9212598425196851
                    },
                    {
                        "duration": 0.07771369921874793,
                        "durationTicks": 63,
                        "midi": 97,
                        "name": "C#7",
                        "ticks": 58880,
                        "time": 93.50977200000003,
                        "velocity": 1
                    },
                    {
                        "duration": 0.2849502304687519,
                        "durationTicks": 231,
                        "midi": 85,
                        "name": "C#6",
                        "ticks": 58880,
                        "time": 93.50977200000003,
                        "velocity": 0.8503937007874016
                    },
                    {
                        "duration": 0.2849502304687519,
                        "durationTicks": 231,
                        "midi": 90,
                        "name": "F#6",
                        "ticks": 58880,
                        "time": 93.50977200000003,
                        "velocity": 0.8503937007874016
                    },
                    {
                        "duration": 0.07771369921876214,
                        "durationTicks": 63,
                        "midi": 94,
                        "name": "A#6",
                        "ticks": 59008,
                        "time": 93.66766650000002,
                        "velocity": 0.7874015748031497
                    },
                    {
                        "duration": 0.15542739843749587,
                        "durationTicks": 126,
                        "midi": 97,
                        "name": "C#7",
                        "ticks": 59136,
                        "time": 93.82556100000004,
                        "velocity": 0.9212598425196851
                    },
                    {
                        "duration": 0.2849502304687377,
                        "durationTicks": 231,
                        "midi": 85,
                        "name": "C#6",
                        "ticks": 59136,
                        "time": 93.82556100000004,
                        "velocity": 0.8740157480314961
                    },
                    {
                        "duration": 0.2849502304687377,
                        "durationTicks": 231,
                        "midi": 90,
                        "name": "F#6",
                        "ticks": 59136,
                        "time": 93.82556100000004,
                        "velocity": 0.8740157480314961
                    },
                    {
                        "duration": 0.07771369921874793,
                        "durationTicks": 63,
                        "midi": 98,
                        "name": "D7",
                        "ticks": 59392,
                        "time": 94.14135000000003,
                        "velocity": 1
                    },
                    {
                        "duration": 0.15542739843749587,
                        "durationTicks": 126,
                        "midi": 86,
                        "name": "D6",
                        "ticks": 59392,
                        "time": 94.14135000000003,
                        "velocity": 0.905511811023622
                    },
                    {
                        "duration": 0.15542739843749587,
                        "durationTicks": 126,
                        "midi": 90,
                        "name": "F#6",
                        "ticks": 59392,
                        "time": 94.14135000000003,
                        "velocity": 0.9133858267716536
                    },
                    {
                        "duration": 0.07771369921874793,
                        "durationTicks": 63,
                        "midi": 94,
                        "name": "A#6",
                        "ticks": 59520,
                        "time": 94.29924450000003,
                        "velocity": 0.7795275590551181
                    },
                    {
                        "duration": 0.15542739843751008,
                        "durationTicks": 126,
                        "midi": 98,
                        "name": "D7",
                        "ticks": 59648,
                        "time": 94.45713900000003,
                        "velocity": 0.9606299212598425
                    },
                    {
                        "duration": 0.15542739843751008,
                        "durationTicks": 126,
                        "midi": 90,
                        "name": "F#6",
                        "ticks": 59648,
                        "time": 94.45713900000003,
                        "velocity": 0.9606299212598425
                    },
                    {
                        "duration": 0.15542739843751008,
                        "durationTicks": 126,
                        "midi": 94,
                        "name": "A#6",
                        "ticks": 59648,
                        "time": 94.45713900000003,
                        "velocity": 0.9606299212598425
                    },
                    {
                        "duration": 0.07771369921874793,
                        "durationTicks": 63,
                        "midi": 97,
                        "name": "C#7",
                        "ticks": 59904,
                        "time": 94.77292800000004,
                        "velocity": 0.9921259842519685
                    },
                    {
                        "duration": 0.15542739843749587,
                        "durationTicks": 126,
                        "midi": 85,
                        "name": "C#6",
                        "ticks": 59904,
                        "time": 94.77292800000004,
                        "velocity": 0.7952755905511811
                    },
                    {
                        "duration": 0.15542739843749587,
                        "durationTicks": 126,
                        "midi": 90,
                        "name": "F#6",
                        "ticks": 59904,
                        "time": 94.77292800000004,
                        "velocity": 0.7716535433070866
                    },
                    {
                        "duration": 0.07771369921874793,
                        "durationTicks": 63,
                        "midi": 94,
                        "name": "A#6",
                        "ticks": 60032,
                        "time": 94.93082250000003,
                        "velocity": 0.7795275590551181
                    },
                    {
                        "duration": 0.15542739843749587,
                        "durationTicks": 126,
                        "midi": 97,
                        "name": "C#7",
                        "ticks": 60160,
                        "time": 95.08871700000003,
                        "velocity": 0.9291338582677166
                    },
                    {
                        "duration": 0.2849502304687519,
                        "durationTicks": 231,
                        "midi": 85,
                        "name": "C#6",
                        "ticks": 60160,
                        "time": 95.08871700000003,
                        "velocity": 0.8503937007874016
                    },
                    {
                        "duration": 0.2849502304687519,
                        "durationTicks": 231,
                        "midi": 90,
                        "name": "F#6",
                        "ticks": 60160,
                        "time": 95.08871700000003,
                        "velocity": 0.8740157480314961
                    },
                    {
                        "duration": 0.07771369921874793,
                        "durationTicks": 63,
                        "midi": 90,
                        "name": "F#6",
                        "ticks": 60416,
                        "time": 95.40450600000003,
                        "velocity": 0.7559055118110236
                    },
                    {
                        "duration": 0.14309189062500138,
                        "durationTicks": 116,
                        "midi": 90,
                        "name": "F#6",
                        "ticks": 60416,
                        "time": 95.40450600000003,
                        "velocity": 0.8976377952755905
                    },
                    {
                        "duration": 0.07771369921876214,
                        "durationTicks": 63,
                        "midi": 92,
                        "name": "G#6",
                        "ticks": 60544,
                        "time": 95.56240050000002,
                        "velocity": 0.889763779527559
                    },
                    {
                        "duration": 0.07771369921876214,
                        "durationTicks": 63,
                        "midi": 90,
                        "name": "F#6",
                        "ticks": 60544,
                        "time": 95.56240050000002,
                        "velocity": 0.889763779527559
                    },
                    {
                        "duration": 0.07771369921874793,
                        "durationTicks": 63,
                        "midi": 94,
                        "name": "A#6",
                        "ticks": 60672,
                        "time": 95.72029500000004,
                        "velocity": 0.937007874015748
                    },
                    {
                        "duration": 0.07771369921874793,
                        "durationTicks": 63,
                        "midi": 90,
                        "name": "F#6",
                        "ticks": 60672,
                        "time": 95.72029500000004,
                        "velocity": 0.889763779527559
                    },
                    {
                        "duration": 0.07771369921874793,
                        "durationTicks": 63,
                        "midi": 95,
                        "name": "B6",
                        "ticks": 60800,
                        "time": 95.87818950000003,
                        "velocity": 0.9133858267716536
                    },
                    {
                        "duration": 0.07771369921874793,
                        "durationTicks": 63,
                        "midi": 90,
                        "name": "F#6",
                        "ticks": 60800,
                        "time": 95.87818950000003,
                        "velocity": 0.8661417322834646
                    },
                    {
                        "duration": 0.07771369921874793,
                        "durationTicks": 63,
                        "midi": 97,
                        "name": "C#7",
                        "ticks": 60928,
                        "time": 96.03608400000003,
                        "velocity": 1
                    },
                    {
                        "duration": 0.07771369921874793,
                        "durationTicks": 63,
                        "midi": 85,
                        "name": "C#6",
                        "ticks": 60928,
                        "time": 96.03608400000003,
                        "velocity": 0.889763779527559
                    },
                    {
                        "duration": 0.07771369921874793,
                        "durationTicks": 63,
                        "midi": 90,
                        "name": "F#6",
                        "ticks": 60928,
                        "time": 96.03608400000003,
                        "velocity": 0.889763779527559
                    },
                    {
                        "duration": 0.07771369921874793,
                        "durationTicks": 63,
                        "midi": 94,
                        "name": "A#6",
                        "ticks": 61056,
                        "time": 96.19397850000003,
                        "velocity": 0.8110236220472441
                    },
                    {
                        "duration": 0.07771369921874793,
                        "durationTicks": 63,
                        "midi": 85,
                        "name": "C#6",
                        "ticks": 61056,
                        "time": 96.19397850000003,
                        "velocity": 0.889763779527559
                    },
                    {
                        "duration": 0.07771369921874793,
                        "durationTicks": 63,
                        "midi": 90,
                        "name": "F#6",
                        "ticks": 61056,
                        "time": 96.19397850000003,
                        "velocity": 0.8818897637795275
                    },
                    {
                        "duration": 0.15542739843751008,
                        "durationTicks": 126,
                        "midi": 97,
                        "name": "C#7",
                        "ticks": 61184,
                        "time": 96.35187300000003,
                        "velocity": 0.9448818897637795
                    },
                    {
                        "duration": 0.15542739843751008,
                        "durationTicks": 126,
                        "midi": 85,
                        "name": "C#6",
                        "ticks": 61184,
                        "time": 96.35187300000003,
                        "velocity": 0.8740157480314961
                    },
                    {
                        "duration": 0.15542739843751008,
                        "durationTicks": 126,
                        "midi": 90,
                        "name": "F#6",
                        "ticks": 61184,
                        "time": 96.35187300000003,
                        "velocity": 0.8818897637795275
                    },
                    {
                        "duration": 0.07771369921874793,
                        "durationTicks": 63,
                        "midi": 98,
                        "name": "D7",
                        "ticks": 61440,
                        "time": 96.66766200000004,
                        "velocity": 1
                    },
                    {
                        "duration": 0.07771369921874793,
                        "durationTicks": 63,
                        "midi": 86,
                        "name": "D6",
                        "ticks": 61440,
                        "time": 96.66766200000004,
                        "velocity": 0.905511811023622
                    },
                    {
                        "duration": 0.07771369921874793,
                        "durationTicks": 63,
                        "midi": 90,
                        "name": "F#6",
                        "ticks": 61440,
                        "time": 96.66766200000004,
                        "velocity": 0.889763779527559
                    },
                    {
                        "duration": 0.07771369921874793,
                        "durationTicks": 63,
                        "midi": 94,
                        "name": "A#6",
                        "ticks": 61568,
                        "time": 96.82555650000003,
                        "velocity": 0.7952755905511811
                    },
                    {
                        "duration": 0.07771369921874793,
                        "durationTicks": 63,
                        "midi": 86,
                        "name": "D6",
                        "ticks": 61568,
                        "time": 96.82555650000003,
                        "velocity": 0.889763779527559
                    },
                    {
                        "duration": 0.07771369921874793,
                        "durationTicks": 63,
                        "midi": 90,
                        "name": "F#6",
                        "ticks": 61568,
                        "time": 96.82555650000003,
                        "velocity": 0.8740157480314961
                    },
                    {
                        "duration": 0.15542739843749587,
                        "durationTicks": 126,
                        "midi": 98,
                        "name": "D7",
                        "ticks": 61696,
                        "time": 96.98345100000003,
                        "velocity": 0.9448818897637795
                    },
                    {
                        "duration": 0.15542739843749587,
                        "durationTicks": 126,
                        "midi": 86,
                        "name": "D6",
                        "ticks": 61696,
                        "time": 96.98345100000003,
                        "velocity": 0.8740157480314961
                    },
                    {
                        "duration": 0.15542739843749587,
                        "durationTicks": 126,
                        "midi": 90,
                        "name": "F#6",
                        "ticks": 61696,
                        "time": 96.98345100000003,
                        "velocity": 0.8740157480314961
                    },
                    {
                        "duration": 0.3096212460937551,
                        "durationTicks": 251,
                        "midi": 97,
                        "name": "C#7",
                        "ticks": 61952,
                        "time": 97.29924000000003,
                        "velocity": 0.968503937007874
                    },
                    {
                        "duration": 0.5699004609375038,
                        "durationTicks": 462,
                        "midi": 85,
                        "name": "C#6",
                        "ticks": 61952,
                        "time": 97.29924000000003,
                        "velocity": 0.8661417322834646
                    },
                    {
                        "duration": 0.5699004609375038,
                        "durationTicks": 462,
                        "midi": 90,
                        "name": "F#6",
                        "ticks": 61952,
                        "time": 97.29924000000003,
                        "velocity": 0.8582677165354331
                    },
                    {
                        "duration": 0.07771369921874793,
                        "durationTicks": 63,
                        "midi": 90,
                        "name": "F#6",
                        "ticks": 62464,
                        "time": 97.93081800000003,
                        "velocity": 0.7480314960629921
                    },
                    {
                        "duration": 0.5699004609375038,
                        "durationTicks": 462,
                        "midi": 90,
                        "name": "F#6",
                        "ticks": 62464,
                        "time": 97.93081800000003,
                        "velocity": 0.905511811023622
                    },
                    {
                        "duration": 0.07771369921874793,
                        "durationTicks": 63,
                        "midi": 92,
                        "name": "G#6",
                        "ticks": 62592,
                        "time": 98.08871250000003,
                        "velocity": 0.889763779527559
                    },
                    {
                        "duration": 0.07771369921876214,
                        "durationTicks": 63,
                        "midi": 94,
                        "name": "A#6",
                        "ticks": 62720,
                        "time": 98.24660700000003,
                        "velocity": 0.937007874015748
                    },
                    {
                        "duration": 0.07771369921874793,
                        "durationTicks": 63,
                        "midi": 95,
                        "name": "B6",
                        "ticks": 62848,
                        "time": 98.40450150000004,
                        "velocity": 0.9212598425196851
                    },
                    {
                        "duration": 0.07771369921874793,
                        "durationTicks": 63,
                        "midi": 97,
                        "name": "C#7",
                        "ticks": 62976,
                        "time": 98.56239600000004,
                        "velocity": 1
                    },
                    {
                        "duration": 0.2849502304687519,
                        "durationTicks": 231,
                        "midi": 85,
                        "name": "C#6",
                        "ticks": 62976,
                        "time": 98.56239600000004,
                        "velocity": 0.8740157480314961
                    },
                    {
                        "duration": 0.2849502304687519,
                        "durationTicks": 231,
                        "midi": 90,
                        "name": "F#6",
                        "ticks": 62976,
                        "time": 98.56239600000004,
                        "velocity": 0.8740157480314961
                    },
                    {
                        "duration": 0.07771369921874793,
                        "durationTicks": 63,
                        "midi": 94,
                        "name": "A#6",
                        "ticks": 63104,
                        "time": 98.72029050000003,
                        "velocity": 0.7952755905511811
                    },
                    {
                        "duration": 0.15542739843749587,
                        "durationTicks": 126,
                        "midi": 97,
                        "name": "C#7",
                        "ticks": 63232,
                        "time": 98.87818500000003,
                        "velocity": 0.952755905511811
                    },
                    {
                        "duration": 0.2849502304687519,
                        "durationTicks": 231,
                        "midi": 85,
                        "name": "C#6",
                        "ticks": 63232,
                        "time": 98.87818500000003,
                        "velocity": 0.8818897637795275
                    },
                    {
                        "duration": 0.2849502304687519,
                        "durationTicks": 231,
                        "midi": 90,
                        "name": "F#6",
                        "ticks": 63232,
                        "time": 98.87818500000003,
                        "velocity": 0.889763779527559
                    },
                    {
                        "duration": 0.07771369921874793,
                        "durationTicks": 63,
                        "midi": 99,
                        "name": "D#7",
                        "ticks": 63488,
                        "time": 99.19397400000003,
                        "velocity": 1
                    },
                    {
                        "duration": 0.15542739843751008,
                        "durationTicks": 126,
                        "midi": 87,
                        "name": "D#6",
                        "ticks": 63488,
                        "time": 99.19397400000003,
                        "velocity": 0.905511811023622
                    },
                    {
                        "duration": 0.15542739843751008,
                        "durationTicks": 126,
                        "midi": 90,
                        "name": "F#6",
                        "ticks": 63488,
                        "time": 99.19397400000003,
                        "velocity": 0.889763779527559
                    },
                    {
                        "duration": 0.07771369921876214,
                        "durationTicks": 63,
                        "midi": 94,
                        "name": "A#6",
                        "ticks": 63616,
                        "time": 99.35186850000002,
                        "velocity": 0.7637795275590551
                    },
                    {
                        "duration": 0.15542739843749587,
                        "durationTicks": 126,
                        "midi": 99,
                        "name": "D#7",
                        "ticks": 63744,
                        "time": 99.50976300000004,
                        "velocity": 0.9763779527559056
                    },
                    {
                        "duration": 0.15542739843749587,
                        "durationTicks": 126,
                        "midi": 90,
                        "name": "F#6",
                        "ticks": 63744,
                        "time": 99.50976300000004,
                        "velocity": 0.968503937007874
                    },
                    {
                        "duration": 0.15542739843749587,
                        "durationTicks": 126,
                        "midi": 94,
                        "name": "A#6",
                        "ticks": 63744,
                        "time": 99.50976300000004,
                        "velocity": 0.968503937007874
                    },
                    {
                        "duration": 0.07771369921874793,
                        "durationTicks": 63,
                        "midi": 97,
                        "name": "C#7",
                        "ticks": 64000,
                        "time": 99.82555200000003,
                        "velocity": 0.9763779527559056
                    },
                    {
                        "duration": 0.15542739843749587,
                        "durationTicks": 126,
                        "midi": 85,
                        "name": "C#6",
                        "ticks": 64000,
                        "time": 99.82555200000003,
                        "velocity": 0.7716535433070866
                    },
                    {
                        "duration": 0.15542739843749587,
                        "durationTicks": 126,
                        "midi": 90,
                        "name": "F#6",
                        "ticks": 64000,
                        "time": 99.82555200000003,
                        "velocity": 0.7795275590551181
                    },
                    {
                        "duration": 0.07771369921876214,
                        "durationTicks": 63,
                        "midi": 94,
                        "name": "A#6",
                        "ticks": 64128,
                        "time": 99.98344650000003,
                        "velocity": 0.7795275590551181
                    },
                    {
                        "duration": 0.15542739843749587,
                        "durationTicks": 126,
                        "midi": 97,
                        "name": "C#7",
                        "ticks": 64256,
                        "time": 100.14134100000004,
                        "velocity": 0.937007874015748
                    },
                    {
                        "duration": 0.2849502304687377,
                        "durationTicks": 231,
                        "midi": 85,
                        "name": "C#6",
                        "ticks": 64256,
                        "time": 100.14134100000004,
                        "velocity": 0.8503937007874016
                    },
                    {
                        "duration": 0.2849502304687377,
                        "durationTicks": 231,
                        "midi": 90,
                        "name": "F#6",
                        "ticks": 64256,
                        "time": 100.14134100000004,
                        "velocity": 0.84251968503937
                    },
                    {
                        "duration": 0.07771369921874793,
                        "durationTicks": 63,
                        "midi": 90,
                        "name": "F#6",
                        "ticks": 64512,
                        "time": 100.45713000000003,
                        "velocity": 0.7480314960629921
                    },
                    {
                        "duration": 0.14309189062500138,
                        "durationTicks": 116,
                        "midi": 90,
                        "name": "F#6",
                        "ticks": 64512,
                        "time": 100.45713000000003,
                        "velocity": 0.9133858267716536
                    },
                    {
                        "duration": 0.07771369921874793,
                        "durationTicks": 63,
                        "midi": 92,
                        "name": "G#6",
                        "ticks": 64640,
                        "time": 100.61502450000003,
                        "velocity": 0.889763779527559
                    },
                    {
                        "duration": 0.07771369921874793,
                        "durationTicks": 63,
                        "midi": 90,
                        "name": "F#6",
                        "ticks": 64640,
                        "time": 100.61502450000003,
                        "velocity": 0.8818897637795275
                    },
                    {
                        "duration": 0.07771369921874793,
                        "durationTicks": 63,
                        "midi": 94,
                        "name": "A#6",
                        "ticks": 64768,
                        "time": 100.77291900000003,
                        "velocity": 0.952755905511811
                    },
                    {
                        "duration": 0.07771369921874793,
                        "durationTicks": 63,
                        "midi": 90,
                        "name": "F#6",
                        "ticks": 64768,
                        "time": 100.77291900000003,
                        "velocity": 0.889763779527559
                    },
                    {
                        "duration": 0.07771369921874793,
                        "durationTicks": 63,
                        "midi": 95,
                        "name": "B6",
                        "ticks": 64896,
                        "time": 100.93081350000003,
                        "velocity": 0.905511811023622
                    },
                    {
                        "duration": 0.07771369921874793,
                        "durationTicks": 63,
                        "midi": 90,
                        "name": "F#6",
                        "ticks": 64896,
                        "time": 100.93081350000003,
                        "velocity": 0.8740157480314961
                    },
                    {
                        "duration": 0.07771369921874793,
                        "durationTicks": 63,
                        "midi": 97,
                        "name": "C#7",
                        "ticks": 65024,
                        "time": 101.08870800000003,
                        "velocity": 1
                    },
                    {
                        "duration": 0.07771369921874793,
                        "durationTicks": 63,
                        "midi": 85,
                        "name": "C#6",
                        "ticks": 65024,
                        "time": 101.08870800000003,
                        "velocity": 0.8976377952755905
                    },
                    {
                        "duration": 0.07771369921874793,
                        "durationTicks": 63,
                        "midi": 90,
                        "name": "F#6",
                        "ticks": 65024,
                        "time": 101.08870800000003,
                        "velocity": 0.9133858267716536
                    },
                    {
                        "duration": 0.07771369921876214,
                        "durationTicks": 63,
                        "midi": 94,
                        "name": "A#6",
                        "ticks": 65152,
                        "time": 101.24660250000002,
                        "velocity": 0.8031496062992126
                    },
                    {
                        "duration": 0.07771369921876214,
                        "durationTicks": 63,
                        "midi": 85,
                        "name": "C#6",
                        "ticks": 65152,
                        "time": 101.24660250000002,
                        "velocity": 0.8740157480314961
                    },
                    {
                        "duration": 0.07771369921876214,
                        "durationTicks": 63,
                        "midi": 90,
                        "name": "F#6",
                        "ticks": 65152,
                        "time": 101.24660250000002,
                        "velocity": 0.8818897637795275
                    },
                    {
                        "duration": 0.15542739843749587,
                        "durationTicks": 126,
                        "midi": 97,
                        "name": "C#7",
                        "ticks": 65280,
                        "time": 101.40449700000003,
                        "velocity": 0.9212598425196851
                    },
                    {
                        "duration": 0.15542739843749587,
                        "durationTicks": 126,
                        "midi": 85,
                        "name": "C#6",
                        "ticks": 65280,
                        "time": 101.40449700000003,
                        "velocity": 0.8740157480314961
                    },
                    {
                        "duration": 0.15542739843749587,
                        "durationTicks": 126,
                        "midi": 90,
                        "name": "F#6",
                        "ticks": 65280,
                        "time": 101.40449700000003,
                        "velocity": 0.8661417322834646
                    },
                    {
                        "duration": 0.07771369921874793,
                        "durationTicks": 63,
                        "midi": 99,
                        "name": "D#7",
                        "ticks": 65536,
                        "time": 101.72028600000003,
                        "velocity": 1
                    },
                    {
                        "duration": 0.07771369921874793,
                        "durationTicks": 63,
                        "midi": 87,
                        "name": "D#6",
                        "ticks": 65536,
                        "time": 101.72028600000003,
                        "velocity": 0.8976377952755905
                    },
                    {
                        "duration": 0.07771369921874793,
                        "durationTicks": 63,
                        "midi": 90,
                        "name": "F#6",
                        "ticks": 65536,
                        "time": 101.72028600000003,
                        "velocity": 0.905511811023622
                    },
                    {
                        "duration": 0.07771369921876214,
                        "durationTicks": 63,
                        "midi": 94,
                        "name": "A#6",
                        "ticks": 65664,
                        "time": 101.87818050000003,
                        "velocity": 0.7795275590551181
                    },
                    {
                        "duration": 0.07771369921876214,
                        "durationTicks": 63,
                        "midi": 87,
                        "name": "D#6",
                        "ticks": 65664,
                        "time": 101.87818050000003,
                        "velocity": 0.889763779527559
                    },
                    {
                        "duration": 0.07771369921876214,
                        "durationTicks": 63,
                        "midi": 90,
                        "name": "F#6",
                        "ticks": 65664,
                        "time": 101.87818050000003,
                        "velocity": 0.8582677165354331
                    },
                    {
                        "duration": 0.15542739843749587,
                        "durationTicks": 126,
                        "midi": 99,
                        "name": "D#7",
                        "ticks": 65792,
                        "time": 102.03607500000004,
                        "velocity": 0.968503937007874
                    },
                    {
                        "duration": 0.15542739843749587,
                        "durationTicks": 126,
                        "midi": 87,
                        "name": "D#6",
                        "ticks": 65792,
                        "time": 102.03607500000004,
                        "velocity": 0.8818897637795275
                    },
                    {
                        "duration": 0.15542739843749587,
                        "durationTicks": 126,
                        "midi": 90,
                        "name": "F#6",
                        "ticks": 65792,
                        "time": 102.03607500000004,
                        "velocity": 0.8582677165354331
                    },
                    {
                        "duration": 0.30962124609374087,
                        "durationTicks": 251,
                        "midi": 97,
                        "name": "C#7",
                        "ticks": 66048,
                        "time": 102.35186400000003,
                        "velocity": 0.9606299212598425
                    },
                    {
                        "duration": 0.5699004609375038,
                        "durationTicks": 462,
                        "midi": 85,
                        "name": "C#6",
                        "ticks": 66048,
                        "time": 102.35186400000003,
                        "velocity": 0.8740157480314961
                    },
                    {
                        "duration": 0.5699004609375038,
                        "durationTicks": 462,
                        "midi": 90,
                        "name": "F#6",
                        "ticks": 66048,
                        "time": 102.35186400000003,
                        "velocity": 0.8818897637795275
                    },
                    {
                        "duration": 0.07382812500000568,
                        "durationTicks": 63,
                        "midi": 83,
                        "name": "B5",
                        "ticks": 66560,
                        "time": 102.98344200000003,
                        "velocity": 0.6299212598425197
                    },
                    {
                        "duration": 0.5414062499999943,
                        "durationTicks": 462,
                        "midi": 83,
                        "name": "B5",
                        "ticks": 66560,
                        "time": 102.98344200000003,
                        "velocity": 0.7322834645669292
                    },
                    {
                        "duration": 0.07382812499999147,
                        "durationTicks": 63,
                        "midi": 85,
                        "name": "C#6",
                        "ticks": 66688,
                        "time": 103.13344200000003,
                        "velocity": 0.8740157480314961
                    },
                    {
                        "duration": 0.07382812500000568,
                        "durationTicks": 63,
                        "midi": 86,
                        "name": "D6",
                        "ticks": 66816,
                        "time": 103.28344200000002,
                        "velocity": 0.937007874015748
                    },
                    {
                        "duration": 0.07382812499999147,
                        "durationTicks": 63,
                        "midi": 88,
                        "name": "E6",
                        "ticks": 66944,
                        "time": 103.43344200000003,
                        "velocity": 0.9448818897637795
                    },
                    {
                        "duration": 0.07382812500000568,
                        "durationTicks": 63,
                        "midi": 90,
                        "name": "F#6",
                        "ticks": 67072,
                        "time": 103.58344200000002,
                        "velocity": 1
                    },
                    {
                        "duration": 0.5414062500000085,
                        "durationTicks": 462,
                        "midi": 83,
                        "name": "B5",
                        "ticks": 67072,
                        "time": 103.58344200000002,
                        "velocity": 0.8503937007874016
                    },
                    {
                        "duration": 0.07382812500000568,
                        "durationTicks": 63,
                        "midi": 86,
                        "name": "D6",
                        "ticks": 67200,
                        "time": 103.73344200000003,
                        "velocity": 0.7795275590551181
                    },
                    {
                        "duration": 0.14765624999999716,
                        "durationTicks": 126,
                        "midi": 90,
                        "name": "F#6",
                        "ticks": 67328,
                        "time": 103.88344200000003,
                        "velocity": 0.952755905511811
                    },
                    {
                        "duration": 0.07382812499999147,
                        "durationTicks": 63,
                        "midi": 89,
                        "name": "F6",
                        "ticks": 67584,
                        "time": 104.18344200000003,
                        "velocity": 0.9921259842519685
                    },
                    {
                        "duration": 0.5414062499999943,
                        "durationTicks": 462,
                        "midi": 83,
                        "name": "B5",
                        "ticks": 67584,
                        "time": 104.18344200000003,
                        "velocity": 0.9133858267716536
                    },
                    {
                        "duration": 0.07382812500000568,
                        "durationTicks": 63,
                        "midi": 85,
                        "name": "C#6",
                        "ticks": 67712,
                        "time": 104.33344200000002,
                        "velocity": 0.7874015748031497
                    },
                    {
                        "duration": 0.14765624999999716,
                        "durationTicks": 126,
                        "midi": 89,
                        "name": "F6",
                        "ticks": 67840,
                        "time": 104.48344200000003,
                        "velocity": 0.952755905511811
                    },
                    {
                        "duration": 0.07382812500000568,
                        "durationTicks": 63,
                        "midi": 88,
                        "name": "E6",
                        "ticks": 68096,
                        "time": 104.78344200000002,
                        "velocity": 0.9763779527559056
                    },
                    {
                        "duration": 0.5414062500000085,
                        "durationTicks": 462,
                        "midi": 83,
                        "name": "B5",
                        "ticks": 68096,
                        "time": 104.78344200000002,
                        "velocity": 0.8740157480314961
                    },
                    {
                        "duration": 0.07382812499999147,
                        "durationTicks": 63,
                        "midi": 84,
                        "name": "C6",
                        "ticks": 68224,
                        "time": 104.93344200000003,
                        "velocity": 0.7795275590551181
                    },
                    {
                        "duration": 0.14765625000001137,
                        "durationTicks": 126,
                        "midi": 88,
                        "name": "E6",
                        "ticks": 68352,
                        "time": 105.08344200000002,
                        "velocity": 0.952755905511811
                    },
                    {
                        "duration": 0.07382812499999147,
                        "durationTicks": 63,
                        "midi": 83,
                        "name": "B5",
                        "ticks": 68608,
                        "time": 105.38344200000003,
                        "velocity": 0.7874015748031497
                    },
                    {
                        "duration": 0.5414062499999943,
                        "durationTicks": 462,
                        "midi": 83,
                        "name": "B5",
                        "ticks": 68608,
                        "time": 105.38344200000003,
                        "velocity": 0.8976377952755905
                    },
                    {
                        "duration": 0.07382812500000568,
                        "durationTicks": 63,
                        "midi": 85,
                        "name": "C#6",
                        "ticks": 68736,
                        "time": 105.53344200000002,
                        "velocity": 0.9212598425196851
                    },
                    {
                        "duration": 0.07382812499999147,
                        "durationTicks": 63,
                        "midi": 86,
                        "name": "D6",
                        "ticks": 68864,
                        "time": 105.68344200000003,
                        "velocity": 0.9448818897637795
                    },
                    {
                        "duration": 0.07382812500000568,
                        "durationTicks": 63,
                        "midi": 88,
                        "name": "E6",
                        "ticks": 68992,
                        "time": 105.83344200000002,
                        "velocity": 0.9212598425196851
                    },
                    {
                        "duration": 0.07382812500000568,
                        "durationTicks": 63,
                        "midi": 90,
                        "name": "F#6",
                        "ticks": 69120,
                        "time": 105.98344200000003,
                        "velocity": 0.937007874015748
                    },
                    {
                        "duration": 0.5414062499999943,
                        "durationTicks": 462,
                        "midi": 83,
                        "name": "B5",
                        "ticks": 69120,
                        "time": 105.98344200000003,
                        "velocity": 0.8661417322834646
                    },
                    {
                        "duration": 0.07382812499999147,
                        "durationTicks": 63,
                        "midi": 86,
                        "name": "D6",
                        "ticks": 69248,
                        "time": 106.13344200000003,
                        "velocity": 0.7795275590551181
                    },
                    {
                        "duration": 0.07382812500000568,
                        "durationTicks": 63,
                        "midi": 90,
                        "name": "F#6",
                        "ticks": 69376,
                        "time": 106.28344200000002,
                        "velocity": 0.968503937007874
                    },
                    {
                        "duration": 0.07382812499999147,
                        "durationTicks": 63,
                        "midi": 95,
                        "name": "B6",
                        "ticks": 69504,
                        "time": 106.43344200000003,
                        "velocity": 1
                    },
                    {
                        "duration": 0.07382812500000568,
                        "durationTicks": 63,
                        "midi": 93,
                        "name": "A6",
                        "ticks": 69632,
                        "time": 106.58344200000002,
                        "velocity": 0.8740157480314961
                    },
                    {
                        "duration": 0.5414062500000085,
                        "durationTicks": 462,
                        "midi": 81,
                        "name": "A5",
                        "ticks": 69632,
                        "time": 106.58344200000002,
                        "velocity": 0.968503937007874
                    },
                    {
                        "duration": 0.37382812500000284,
                        "durationTicks": 319,
                        "midi": 86,
                        "name": "D6",
                        "ticks": 69632,
                        "time": 106.58344200000002,
                        "velocity": 0.9606299212598425
                    },
                    {
                        "duration": 0.07382812500000568,
                        "durationTicks": 63,
                        "midi": 90,
                        "name": "F#6",
                        "ticks": 69760,
                        "time": 106.73344200000003,
                        "velocity": 0.7874015748031497
                    },
                    {
                        "duration": 0.24140624999999716,
                        "durationTicks": 206,
                        "midi": 86,
                        "name": "D6",
                        "ticks": 69888,
                        "time": 106.88344200000003,
                        "velocity": 0.7795275590551181
                    },
                    {
                        "duration": 0.07382812500000568,
                        "durationTicks": 63,
                        "midi": 90,
                        "name": "F#6",
                        "ticks": 70016,
                        "time": 107.03344200000002,
                        "velocity": 0.952755905511811
                    },
                    {
                        "duration": 0.5414062499999943,
                        "durationTicks": 462,
                        "midi": 93,
                        "name": "A6",
                        "ticks": 70144,
                        "time": 107.18344200000003,
                        "velocity": 0.952755905511811
                    },
                    {
                        "duration": 0.5414062499999943,
                        "durationTicks": 462,
                        "midi": 81,
                        "name": "A5",
                        "ticks": 70144,
                        "time": 107.18344200000003,
                        "velocity": 0.8976377952755905
                    },
                    {
                        "duration": 0.5414062499999943,
                        "durationTicks": 462,
                        "midi": 86,
                        "name": "D6",
                        "ticks": 70144,
                        "time": 107.18344200000003,
                        "velocity": 0.889763779527559
                    },
                    {
                        "duration": 0.07202721093750597,
                        "durationTicks": 63,
                        "midi": 83,
                        "name": "B5",
                        "ticks": 70656,
                        "time": 107.78344200000002,
                        "velocity": 0.6850393700787402
                    },
                    {
                        "duration": 0.13262153124999543,
                        "durationTicks": 116,
                        "midi": 83,
                        "name": "B5",
                        "ticks": 70656,
                        "time": 107.78344200000002,
                        "velocity": 0.8267716535433071
                    },
                    {
                        "duration": 0.07202721093749176,
                        "durationTicks": 63,
                        "midi": 85,
                        "name": "C#6",
                        "ticks": 70784,
                        "time": 107.92978300000003,
                        "velocity": 0.8740157480314961
                    },
                    {
                        "duration": 0.07202721093749176,
                        "durationTicks": 63,
                        "midi": 83,
                        "name": "B5",
                        "ticks": 70784,
                        "time": 107.92978300000003,
                        "velocity": 0.84251968503937
                    },
                    {
                        "duration": 0.07202721093750597,
                        "durationTicks": 63,
                        "midi": 86,
                        "name": "D6",
                        "ticks": 70912,
                        "time": 108.07612400000002,
                        "velocity": 0.9212598425196851
                    },
                    {
                        "duration": 0.07202721093750597,
                        "durationTicks": 63,
                        "midi": 83,
                        "name": "B5",
                        "ticks": 70912,
                        "time": 108.07612400000002,
                        "velocity": 0.889763779527559
                    },
                    {
                        "duration": 0.07202721093749176,
                        "durationTicks": 63,
                        "midi": 88,
                        "name": "E6",
                        "ticks": 71040,
                        "time": 108.22246500000003,
                        "velocity": 0.937007874015748
                    },
                    {
                        "duration": 0.07202721093749176,
                        "durationTicks": 63,
                        "midi": 83,
                        "name": "B5",
                        "ticks": 71040,
                        "time": 108.22246500000003,
                        "velocity": 0.8740157480314961
                    },
                    {
                        "duration": 0.07202721093750597,
                        "durationTicks": 63,
                        "midi": 90,
                        "name": "F#6",
                        "ticks": 71168,
                        "time": 108.36880600000002,
                        "velocity": 1
                    },
                    {
                        "duration": 0.07202721093750597,
                        "durationTicks": 63,
                        "midi": 83,
                        "name": "B5",
                        "ticks": 71168,
                        "time": 108.36880600000002,
                        "velocity": 0.905511811023622
                    },
                    {
                        "duration": 0.07202721093749176,
                        "durationTicks": 63,
                        "midi": 86,
                        "name": "D6",
                        "ticks": 71296,
                        "time": 108.51514700000003,
                        "velocity": 0.7874015748031497
                    },
                    {
                        "duration": 0.07202721093749176,
                        "durationTicks": 63,
                        "midi": 83,
                        "name": "B5",
                        "ticks": 71296,
                        "time": 108.51514700000003,
                        "velocity": 0.8661417322834646
                    },
                    {
                        "duration": 0.14405442187499773,
                        "durationTicks": 126,
                        "midi": 90,
                        "name": "F#6",
                        "ticks": 71424,
                        "time": 108.66148800000002,
                        "velocity": 0.9606299212598425
                    },
                    {
                        "duration": 0.14405442187499773,
                        "durationTicks": 126,
                        "midi": 83,
                        "name": "B5",
                        "ticks": 71424,
                        "time": 108.66148800000002,
                        "velocity": 0.8661417322834646
                    },
                    {
                        "duration": 0.07202721093750597,
                        "durationTicks": 63,
                        "midi": 89,
                        "name": "F6",
                        "ticks": 71680,
                        "time": 108.95417000000002,
                        "velocity": 0.9921259842519685
                    },
                    {
                        "duration": 0.13262153125000964,
                        "durationTicks": 116,
                        "midi": 83,
                        "name": "B5",
                        "ticks": 71680,
                        "time": 108.95417000000002,
                        "velocity": 0.889763779527559
                    },
                    {
                        "duration": 0.07202721093749176,
                        "durationTicks": 63,
                        "midi": 85,
                        "name": "C#6",
                        "ticks": 71808,
                        "time": 109.10051100000003,
                        "velocity": 0.7716535433070866
                    },
                    {
                        "duration": 0.13262153124999543,
                        "durationTicks": 116,
                        "midi": 83,
                        "name": "B5",
                        "ticks": 71808,
                        "time": 109.10051100000003,
                        "velocity": 0.8740157480314961
                    },
                    {
                        "duration": 0.14405442187499773,
                        "durationTicks": 126,
                        "midi": 89,
                        "name": "F6",
                        "ticks": 71936,
                        "time": 109.24685200000002,
                        "velocity": 0.952755905511811
                    },
                    {
                        "duration": 0.13262153125000964,
                        "durationTicks": 116,
                        "midi": 83,
                        "name": "B5",
                        "ticks": 71936,
                        "time": 109.24685200000002,
                        "velocity": 0.8818897637795275
                    },
                    {
                        "duration": 0.07202721093750597,
                        "durationTicks": 63,
                        "midi": 88,
                        "name": "E6",
                        "ticks": 72192,
                        "time": 109.53953400000002,
                        "velocity": 0.9763779527559056
                    },
                    {
                        "duration": 0.13262153125000964,
                        "durationTicks": 116,
                        "midi": 83,
                        "name": "B5",
                        "ticks": 72192,
                        "time": 109.53953400000002,
                        "velocity": 0.8110236220472441
                    },
                    {
                        "duration": 0.07202721093749176,
                        "durationTicks": 63,
                        "midi": 84,
                        "name": "C6",
                        "ticks": 72320,
                        "time": 109.68587500000002,
                        "velocity": 0.7795275590551181
                    },
                    {
                        "duration": 0.13262153124999543,
                        "durationTicks": 116,
                        "midi": 83,
                        "name": "B5",
                        "ticks": 72320,
                        "time": 109.68587500000002,
                        "velocity": 0.8661417322834646
                    },
                    {
                        "duration": 0.14405442187501194,
                        "durationTicks": 126,
                        "midi": 88,
                        "name": "E6",
                        "ticks": 72448,
                        "time": 109.83221600000002,
                        "velocity": 0.9606299212598425
                    },
                    {
                        "duration": 0.13262153125000964,
                        "durationTicks": 116,
                        "midi": 83,
                        "name": "B5",
                        "ticks": 72448,
                        "time": 109.83221600000002,
                        "velocity": 0.905511811023622
                    },
                    {
                        "duration": 0.07202721093750597,
                        "durationTicks": 63,
                        "midi": 83,
                        "name": "B5",
                        "ticks": 72704,
                        "time": 110.12489800000002,
                        "velocity": 0.7716535433070866
                    },
                    {
                        "duration": 0.13262153125000964,
                        "durationTicks": 116,
                        "midi": 83,
                        "name": "B5",
                        "ticks": 72704,
                        "time": 110.12489800000002,
                        "velocity": 0.8110236220472441
                    },
                    {
                        "duration": 0.07202721093750597,
                        "durationTicks": 63,
                        "midi": 85,
                        "name": "C#6",
                        "ticks": 72832,
                        "time": 110.27123900000002,
                        "velocity": 0.9133858267716536
                    },
                    {
                        "duration": 0.07202721093750597,
                        "durationTicks": 63,
                        "midi": 83,
                        "name": "B5",
                        "ticks": 72832,
                        "time": 110.27123900000002,
                        "velocity": 0.84251968503937
                    },
                    {
                        "duration": 0.07202721093750597,
                        "durationTicks": 63,
                        "midi": 86,
                        "name": "D6",
                        "ticks": 72960,
                        "time": 110.41758000000002,
                        "velocity": 0.952755905511811
                    },
                    {
                        "duration": 0.07202721093750597,
                        "durationTicks": 63,
                        "midi": 83,
                        "name": "B5",
                        "ticks": 72960,
                        "time": 110.41758000000002,
                        "velocity": 0.905511811023622
                    },
                    {
                        "duration": 0.07202721093750597,
                        "durationTicks": 63,
                        "midi": 88,
                        "name": "E6",
                        "ticks": 73088,
                        "time": 110.56392100000002,
                        "velocity": 0.9448818897637795
                    },
                    {
                        "duration": 0.07202721093750597,
                        "durationTicks": 63,
                        "midi": 83,
                        "name": "B5",
                        "ticks": 73088,
                        "time": 110.56392100000002,
                        "velocity": 0.8818897637795275
                    },
                    {
                        "duration": 0.07031242968750462,
                        "durationTicks": 63,
                        "midi": 90,
                        "name": "F#6",
                        "ticks": 73216,
                        "time": 110.71026200000003,
                        "velocity": 0.9606299212598425
                    },
                    {
                        "duration": 0.07031242968750462,
                        "durationTicks": 63,
                        "midi": 83,
                        "name": "B5",
                        "ticks": 73216,
                        "time": 110.71026200000003,
                        "velocity": 0.889763779527559
                    },
                    {
                        "duration": 0.07031242968749041,
                        "durationTicks": 63,
                        "midi": 86,
                        "name": "D6",
                        "ticks": 73344,
                        "time": 110.85311900000004,
                        "velocity": 0.7795275590551181
                    },
                    {
                        "duration": 0.07031242968749041,
                        "durationTicks": 63,
                        "midi": 83,
                        "name": "B5",
                        "ticks": 73344,
                        "time": 110.85311900000004,
                        "velocity": 0.8582677165354331
                    },
                    {
                        "duration": 0.06867713671874753,
                        "durationTicks": 63,
                        "midi": 90,
                        "name": "F#6",
                        "ticks": 73472,
                        "time": 110.99597600000003,
                        "velocity": 0.968503937007874
                    },
                    {
                        "duration": 0.06867713671874753,
                        "durationTicks": 63,
                        "midi": 83,
                        "name": "B5",
                        "ticks": 73472,
                        "time": 110.99597600000003,
                        "velocity": 0.905511811023622
                    },
                    {
                        "duration": 0.06867713671874753,
                        "durationTicks": 63,
                        "midi": 95,
                        "name": "B6",
                        "ticks": 73600,
                        "time": 111.13551050000002,
                        "velocity": 1
                    },
                    {
                        "duration": 0.06867713671874753,
                        "durationTicks": 63,
                        "midi": 83,
                        "name": "B5",
                        "ticks": 73600,
                        "time": 111.13551050000002,
                        "velocity": 0.8818897637795275
                    },
                    {
                        "duration": 0.06711641015624537,
                        "durationTicks": 63,
                        "midi": 90,
                        "name": "F#6",
                        "ticks": 73728,
                        "time": 111.27504500000003,
                        "velocity": 0.7952755905511811
                    },
                    {
                        "duration": 0.06711641015624537,
                        "durationTicks": 63,
                        "midi": 83,
                        "name": "B5",
                        "ticks": 73728,
                        "time": 111.27504500000003,
                        "velocity": 0.8976377952755905
                    },
                    {
                        "duration": 0.06711641015624537,
                        "durationTicks": 63,
                        "midi": 86,
                        "name": "D6",
                        "ticks": 73856,
                        "time": 111.41140850000004,
                        "velocity": 0.7716535433070866
                    },
                    {
                        "duration": 0.06711641015624537,
                        "durationTicks": 63,
                        "midi": 90,
                        "name": "F#6",
                        "ticks": 73984,
                        "time": 111.54777200000004,
                        "velocity": 0.9606299212598425
                    },
                    {
                        "duration": 0.06711641015624537,
                        "durationTicks": 63,
                        "midi": 95,
                        "name": "B6",
                        "ticks": 74112,
                        "time": 111.68413550000004,
                        "velocity": 0.984251968503937
                    },
                    {
                        "duration": 0.4921870078124897,
                        "durationTicks": 462,
                        "midi": 83,
                        "name": "B5",
                        "ticks": 74240,
                        "time": 111.82049900000004,
                        "velocity": 0.7322834645669292
                    },
                    {
                        "duration": 0.04146630468750345,
                        "durationTicks": 46,
                        "midi": 92,
                        "name": "G#6",
                        "ticks": 74840,
                        "time": 112.44527984375003,
                        "velocity": 0.7716535433070866
                    },
                    {
                        "duration": 0.06941098828124836,
                        "durationTicks": 77,
                        "midi": 93,
                        "name": "A6",
                        "ticks": 74886,
                        "time": 112.48674614843753,
                        "velocity": 0.905511811023622
                    },
                    {
                        "duration": 0.0405648632812472,
                        "durationTicks": 45,
                        "midi": 94,
                        "name": "A#6",
                        "ticks": 74963,
                        "time": 112.55615713671878,
                        "velocity": 0.905511811023622
                    },
                    {
                        "duration": 0.2082329648437593,
                        "durationTicks": 231,
                        "midi": 86,
                        "name": "D6",
                        "ticks": 75008,
                        "time": 112.59672200000003,
                        "velocity": 0.9133858267716536
                    },
                    {
                        "duration": 0.2082329648437593,
                        "durationTicks": 231,
                        "midi": 95,
                        "name": "B6",
                        "ticks": 75008,
                        "time": 112.59672200000003,
                        "velocity": 0.9133858267716536
                    },
                    {
                        "duration": 0.04146630468748924,
                        "durationTicks": 46,
                        "midi": 92,
                        "name": "G#6",
                        "ticks": 75864,
                        "time": 113.36835584375004,
                        "velocity": 0.7952755905511811
                    },
                    {
                        "duration": 0.06941098828126258,
                        "durationTicks": 77,
                        "midi": 93,
                        "name": "A6",
                        "ticks": 75910,
                        "time": 113.40982214843753,
                        "velocity": 0.905511811023622
                    },
                    {
                        "duration": 0.0405648632812472,
                        "durationTicks": 45,
                        "midi": 94,
                        "name": "A#6",
                        "ticks": 75987,
                        "time": 113.47923313671879,
                        "velocity": 0.9133858267716536
                    },
                    {
                        "duration": 0.2082329648437451,
                        "durationTicks": 231,
                        "midi": 86,
                        "name": "D6",
                        "ticks": 76032,
                        "time": 113.51979800000004,
                        "velocity": 0.9212598425196851
                    },
                    {
                        "duration": 0.2082329648437451,
                        "durationTicks": 231,
                        "midi": 95,
                        "name": "B6",
                        "ticks": 76032,
                        "time": 113.51979800000004,
                        "velocity": 0.905511811023622
                    },
                    {
                        "duration": 0.05679080859374608,
                        "durationTicks": 63,
                        "midi": 71,
                        "name": "B4",
                        "ticks": 76800,
                        "time": 114.21210500000004,
                        "velocity": 0.5984251968503937
                    },
                    {
                        "duration": 0.05679080859376029,
                        "durationTicks": 63,
                        "midi": 73,
                        "name": "C#5",
                        "ticks": 76928,
                        "time": 114.32748950000003,
                        "velocity": 0.6535433070866141
                    },
                    {
                        "duration": 0.05679080859374608,
                        "durationTicks": 63,
                        "midi": 74,
                        "name": "D5",
                        "ticks": 77056,
                        "time": 114.44287400000003,
                        "velocity": 0.7322834645669292
                    },
                    {
                        "duration": 0.05679080859374608,
                        "durationTicks": 63,
                        "midi": 76,
                        "name": "E5",
                        "ticks": 77184,
                        "time": 114.55825850000004,
                        "velocity": 0.7401574803149606
                    },
                    {
                        "duration": 0.05679080859376029,
                        "durationTicks": 63,
                        "midi": 78,
                        "name": "F#5",
                        "ticks": 77312,
                        "time": 114.67364300000003,
                        "velocity": 0.7637795275590551
                    },
                    {
                        "duration": 0.05679080859374608,
                        "durationTicks": 63,
                        "midi": 74,
                        "name": "D5",
                        "ticks": 77440,
                        "time": 114.78902750000003,
                        "velocity": 0.6535433070866141
                    },
                    {
                        "duration": 0.05679080859374608,
                        "durationTicks": 63,
                        "midi": 78,
                        "name": "F#5",
                        "ticks": 77568,
                        "time": 114.90441200000004,
                        "velocity": 0.84251968503937
                    },
                    {
                        "duration": 0.05679080859376029,
                        "durationTicks": 63,
                        "midi": 83,
                        "name": "B5",
                        "ticks": 77696,
                        "time": 115.01979650000003,
                        "velocity": 0.8661417322834646
                    },
                    {
                        "duration": 0.05679080859374608,
                        "durationTicks": 63,
                        "midi": 82,
                        "name": "A#5",
                        "ticks": 77824,
                        "time": 115.13518100000003,
                        "velocity": 0.7795275590551181
                    },
                    {
                        "duration": 0.05679080859374608,
                        "durationTicks": 63,
                        "midi": 78,
                        "name": "F#5",
                        "ticks": 77952,
                        "time": 115.25056550000004,
                        "velocity": 0.7322834645669292
                    },
                    {
                        "duration": 0.05679080859376029,
                        "durationTicks": 63,
                        "midi": 82,
                        "name": "A#5",
                        "ticks": 78080,
                        "time": 115.36595000000003,
                        "velocity": 0.937007874015748
                    },
                    {
                        "duration": 0.05679080859374608,
                        "durationTicks": 63,
                        "midi": 85,
                        "name": "C#6",
                        "ticks": 78208,
                        "time": 115.48133450000003,
                        "velocity": 0.952755905511811
                    },
                    {
                        "duration": 0.4164659296874902,
                        "durationTicks": 462,
                        "midi": 83,
                        "name": "B5",
                        "ticks": 78336,
                        "time": 115.59671900000004,
                        "velocity": 0.9448818897637795
                    },
                    {
                        "duration": 0.04146630468750345,
                        "durationTicks": 46,
                        "midi": 92,
                        "name": "G#6",
                        "ticks": 78936,
                        "time": 116.13758384375004,
                        "velocity": 0.7952755905511811
                    },
                    {
                        "duration": 0.06941098828124836,
                        "durationTicks": 77,
                        "midi": 93,
                        "name": "A6",
                        "ticks": 78982,
                        "time": 116.17905014843754,
                        "velocity": 0.889763779527559
                    },
                    {
                        "duration": 0.0405648632812472,
                        "durationTicks": 45,
                        "midi": 94,
                        "name": "A#6",
                        "ticks": 79059,
                        "time": 116.24846113671879,
                        "velocity": 0.905511811023622
                    },
                    {
                        "duration": 0.2082329648437451,
                        "durationTicks": 231,
                        "midi": 86,
                        "name": "D6",
                        "ticks": 79104,
                        "time": 116.28902600000004,
                        "velocity": 0.9291338582677166
                    },
                    {
                        "duration": 0.2082329648437451,
                        "durationTicks": 231,
                        "midi": 95,
                        "name": "B6",
                        "ticks": 79104,
                        "time": 116.28902600000004,
                        "velocity": 0.937007874015748
                    },
                    {
                        "duration": 0.04146630468750345,
                        "durationTicks": 46,
                        "midi": 92,
                        "name": "G#6",
                        "ticks": 79960,
                        "time": 117.06065984375003,
                        "velocity": 0.7795275590551181
                    },
                    {
                        "duration": 0.06941098828124836,
                        "durationTicks": 77,
                        "midi": 93,
                        "name": "A6",
                        "ticks": 80006,
                        "time": 117.10212614843753,
                        "velocity": 0.905511811023622
                    },
                    {
                        "duration": 0.0405648632812472,
                        "durationTicks": 45,
                        "midi": 94,
                        "name": "A#6",
                        "ticks": 80083,
                        "time": 117.17153713671878,
                        "velocity": 0.9133858267716536
                    },
                    {
                        "duration": 0.2082329648437593,
                        "durationTicks": 231,
                        "midi": 86,
                        "name": "D6",
                        "ticks": 80128,
                        "time": 117.21210200000003,
                        "velocity": 0.9212598425196851
                    },
                    {
                        "duration": 0.2082329648437593,
                        "durationTicks": 231,
                        "midi": 95,
                        "name": "B6",
                        "ticks": 80128,
                        "time": 117.21210200000003,
                        "velocity": 0.9133858267716536
                    },
                    {
                        "duration": 0.05679080859376029,
                        "durationTicks": 63,
                        "midi": 83,
                        "name": "B5",
                        "ticks": 80896,
                        "time": 117.90440900000003,
                        "velocity": 0.5826771653543307
                    },
                    {
                        "duration": 0.05679080859374608,
                        "durationTicks": 63,
                        "midi": 85,
                        "name": "C#6",
                        "ticks": 81024,
                        "time": 118.01979350000003,
                        "velocity": 0.6771653543307087
                    },
                    {
                        "duration": 0.05679080859374608,
                        "durationTicks": 63,
                        "midi": 86,
                        "name": "D6",
                        "ticks": 81152,
                        "time": 118.13517800000004,
                        "velocity": 0.7244094488188977
                    },
                    {
                        "duration": 0.05679080859374608,
                        "durationTicks": 63,
                        "midi": 88,
                        "name": "E6",
                        "ticks": 81280,
                        "time": 118.25056250000003,
                        "velocity": 0.7244094488188977
                    },
                    {
                        "duration": 0.05679080859374608,
                        "durationTicks": 63,
                        "midi": 90,
                        "name": "F#6",
                        "ticks": 81408,
                        "time": 118.36594700000003,
                        "velocity": 0.7716535433070866
                    },
                    {
                        "duration": 0.05679080859374608,
                        "durationTicks": 63,
                        "midi": 86,
                        "name": "D6",
                        "ticks": 81536,
                        "time": 118.48133150000004,
                        "velocity": 0.6614173228346457
                    },
                    {
                        "duration": 0.05679080859376029,
                        "durationTicks": 63,
                        "midi": 90,
                        "name": "F#6",
                        "ticks": 81664,
                        "time": 118.59671600000003,
                        "velocity": 0.8267716535433071
                    },
                    {
                        "duration": 0.05679080859374608,
                        "durationTicks": 63,
                        "midi": 95,
                        "name": "B6",
                        "ticks": 81792,
                        "time": 118.71210050000003,
                        "velocity": 0.889763779527559
                    },
                    {
                        "duration": 0.05679080859374608,
                        "durationTicks": 63,
                        "midi": 94,
                        "name": "A#6",
                        "ticks": 81920,
                        "time": 118.82748500000004,
                        "velocity": 0.7952755905511811
                    },
                    {
                        "duration": 0.05679080859374608,
                        "durationTicks": 63,
                        "midi": 90,
                        "name": "F#6",
                        "ticks": 82048,
                        "time": 118.94286950000003,
                        "velocity": 0.7244094488188977
                    },
                    {
                        "duration": 0.05679080859374608,
                        "durationTicks": 63,
                        "midi": 94,
                        "name": "A#6",
                        "ticks": 82176,
                        "time": 119.05825400000003,
                        "velocity": 0.9212598425196851
                    },
                    {
                        "duration": 0.05679080859374608,
                        "durationTicks": 63,
                        "midi": 97,
                        "name": "C#7",
                        "ticks": 82304,
                        "time": 119.17363850000004,
                        "velocity": 0.9606299212598425
                    },
                    {
                        "duration": 0.4164659296875044,
                        "durationTicks": 462,
                        "midi": 95,
                        "name": "B6",
                        "ticks": 82432,
                        "time": 119.28902300000003,
                        "velocity": 0.937007874015748
                    },
                    {
                        "duration": 0.04146630468750345,
                        "durationTicks": 46,
                        "midi": 92,
                        "name": "G#6",
                        "ticks": 83032,
                        "time": 119.82988784375003,
                        "velocity": 0.7952755905511811
                    },
                    {
                        "duration": 0.06941098828124836,
                        "durationTicks": 77,
                        "midi": 93,
                        "name": "A6",
                        "ticks": 83078,
                        "time": 119.87135414843753,
                        "velocity": 0.905511811023622
                    },
                    {
                        "duration": 0.0405648632812472,
                        "durationTicks": 45,
                        "midi": 94,
                        "name": "A#6",
                        "ticks": 83155,
                        "time": 119.94076513671878,
                        "velocity": 0.9133858267716536
                    },
                    {
                        "duration": 0.2082329648437593,
                        "durationTicks": 231,
                        "midi": 86,
                        "name": "D6",
                        "ticks": 83200,
                        "time": 119.98133000000003,
                        "velocity": 0.9133858267716536
                    },
                    {
                        "duration": 0.2082329648437593,
                        "durationTicks": 231,
                        "midi": 95,
                        "name": "B6",
                        "ticks": 83200,
                        "time": 119.98133000000003,
                        "velocity": 0.9291338582677166
                    },
                    {
                        "duration": 0.04146630468748924,
                        "durationTicks": 46,
                        "midi": 92,
                        "name": "G#6",
                        "ticks": 84056,
                        "time": 120.75296384375004,
                        "velocity": 0.7795275590551181
                    },
                    {
                        "duration": 0.06941098828124836,
                        "durationTicks": 77,
                        "midi": 93,
                        "name": "A6",
                        "ticks": 84102,
                        "time": 120.79443014843753,
                        "velocity": 0.905511811023622
                    },
                    {
                        "duration": 0.04056486328126141,
                        "durationTicks": 45,
                        "midi": 94,
                        "name": "A#6",
                        "ticks": 84179,
                        "time": 120.86384113671878,
                        "velocity": 0.905511811023622
                    },
                    {
                        "duration": 0.2082329648437451,
                        "durationTicks": 231,
                        "midi": 86,
                        "name": "D6",
                        "ticks": 84224,
                        "time": 120.90440600000004,
                        "velocity": 0.905511811023622
                    },
                    {
                        "duration": 0.2082329648437451,
                        "durationTicks": 231,
                        "midi": 95,
                        "name": "B6",
                        "ticks": 84224,
                        "time": 120.90440600000004,
                        "velocity": 0.905511811023622
                    },
                    {
                        "duration": 0.04146630468750345,
                        "durationTicks": 46,
                        "midi": 92,
                        "name": "G#6",
                        "ticks": 85080,
                        "time": 121.67603984375003,
                        "velocity": 0.2440944881889764
                    },
                    {
                        "duration": 0.06941098828124836,
                        "durationTicks": 77,
                        "midi": 93,
                        "name": "A6",
                        "ticks": 85126,
                        "time": 121.71750614843754,
                        "velocity": 0.2992125984251969
                    },
                    {
                        "duration": 0.0405648632812472,
                        "durationTicks": 45,
                        "midi": 94,
                        "name": "A#6",
                        "ticks": 85203,
                        "time": 121.78691713671878,
                        "velocity": 0.29133858267716534
                    },
                    {
                        "duration": 0.2082329648437451,
                        "durationTicks": 231,
                        "midi": 86,
                        "name": "D6",
                        "ticks": 85248,
                        "time": 121.82748200000003,
                        "velocity": 0.28346456692913385
                    },
                    {
                        "duration": 0.2082329648437451,
                        "durationTicks": 231,
                        "midi": 95,
                        "name": "B6",
                        "ticks": 85248,
                        "time": 121.82748200000003,
                        "velocity": 0.28346456692913385
                    },
                    {
                        "duration": 0.06490378124999552,
                        "durationTicks": 72,
                        "midi": 92,
                        "name": "G#6",
                        "ticks": 85310,
                        "time": 121.88337136718754,
                        "velocity": 0.25984251968503935
                    },
                    {
                        "duration": 0.06941098828124836,
                        "durationTicks": 77,
                        "midi": 93,
                        "name": "A6",
                        "ticks": 85382,
                        "time": 121.94827514843753,
                        "velocity": 0.2755905511811024
                    },
                    {
                        "duration": 0.0405648632812472,
                        "durationTicks": 45,
                        "midi": 94,
                        "name": "A#6",
                        "ticks": 85459,
                        "time": 122.01768613671878,
                        "velocity": 0.2677165354330709
                    },
                    {
                        "duration": 0.2082329648437593,
                        "durationTicks": 231,
                        "midi": 86,
                        "name": "D6",
                        "ticks": 85504,
                        "time": 122.05825100000003,
                        "velocity": 0.28346456692913385
                    },
                    {
                        "duration": 0.2082329648437593,
                        "durationTicks": 231,
                        "midi": 95,
                        "name": "B6",
                        "ticks": 85504,
                        "time": 122.05825100000003,
                        "velocity": 0.2755905511811024
                    },
                    {
                        "duration": 0.06490378124999552,
                        "durationTicks": 72,
                        "midi": 92,
                        "name": "G#6",
                        "ticks": 85566,
                        "time": 122.11414036718753,
                        "velocity": 0.23622047244094488
                    },
                    {
                        "duration": 0.06941098828124836,
                        "durationTicks": 77,
                        "midi": 93,
                        "name": "A6",
                        "ticks": 85638,
                        "time": 122.17904414843753,
                        "velocity": 0.2677165354330709
                    },
                    {
                        "duration": 0.04056486328126141,
                        "durationTicks": 45,
                        "midi": 94,
                        "name": "A#6",
                        "ticks": 85715,
                        "time": 122.24845513671877,
                        "velocity": 0.2755905511811024
                    },
                    {
                        "duration": 0.2082329648437451,
                        "durationTicks": 231,
                        "midi": 86,
                        "name": "D6",
                        "ticks": 85760,
                        "time": 122.28902000000004,
                        "velocity": 0.2755905511811024
                    },
                    {
                        "duration": 0.2082329648437451,
                        "durationTicks": 231,
                        "midi": 95,
                        "name": "B6",
                        "ticks": 85760,
                        "time": 122.28902000000004,
                        "velocity": 0.28346456692913385
                    },
                    {
                        "duration": 0.04146630468750345,
                        "durationTicks": 46,
                        "midi": 92,
                        "name": "G#6",
                        "ticks": 86016,
                        "time": 122.51978900000003,
                        "velocity": 0.25196850393700787
                    },
                    {
                        "duration": 0.06941098828124836,
                        "durationTicks": 77,
                        "midi": 93,
                        "name": "A6",
                        "ticks": 86062,
                        "time": 122.56125530468753,
                        "velocity": 0.2677165354330709
                    },
                    {
                        "duration": 0.06490378124999552,
                        "durationTicks": 72,
                        "midi": 92,
                        "name": "G#6",
                        "ticks": 86078,
                        "time": 122.57567836718754,
                        "velocity": 0.47244094488188976
                    },
                    {
                        "duration": 0.0405648632812472,
                        "durationTicks": 45,
                        "midi": 94,
                        "name": "A#6",
                        "ticks": 86139,
                        "time": 122.63066629296878,
                        "velocity": 0.2677165354330709
                    },
                    {
                        "duration": 0.06941098828124836,
                        "durationTicks": 77,
                        "midi": 93,
                        "name": "A6",
                        "ticks": 86150,
                        "time": 122.64058214843753,
                        "velocity": 0.5039370078740157
                    },
                    {
                        "duration": 0.05679080859374608,
                        "durationTicks": 63,
                        "midi": 86,
                        "name": "D6",
                        "ticks": 86184,
                        "time": 122.67123115625003,
                        "velocity": 0.2755905511811024
                    },
                    {
                        "duration": 0.05679080859374608,
                        "durationTicks": 63,
                        "midi": 95,
                        "name": "B6",
                        "ticks": 86184,
                        "time": 122.67123115625003,
                        "velocity": 0.29133858267716534
                    },
                    {
                        "duration": 0.0405648632812472,
                        "durationTicks": 45,
                        "midi": 94,
                        "name": "A#6",
                        "ticks": 86227,
                        "time": 122.70999313671878,
                        "velocity": 0.5196850393700787
                    },
                    {
                        "duration": 0.2082329648437593,
                        "durationTicks": 231,
                        "midi": 86,
                        "name": "D6",
                        "ticks": 86272,
                        "time": 122.75055800000003,
                        "velocity": 0.5275590551181102
                    },
                    {
                        "duration": 0.2082329648437593,
                        "durationTicks": 231,
                        "midi": 95,
                        "name": "B6",
                        "ticks": 86272,
                        "time": 122.75055800000003,
                        "velocity": 0.5118110236220472
                    },
                    {
                        "duration": 0.06490378124999552,
                        "durationTicks": 72,
                        "midi": 92,
                        "name": "G#6",
                        "ticks": 86334,
                        "time": 122.80644736718753,
                        "velocity": 0.6692913385826772
                    },
                    {
                        "duration": 0.06941098828124836,
                        "durationTicks": 77,
                        "midi": 93,
                        "name": "A6",
                        "ticks": 86406,
                        "time": 122.87135114843753,
                        "velocity": 0.7559055118110236
                    },
                    {
                        "duration": 0.04056486328126141,
                        "durationTicks": 45,
                        "midi": 94,
                        "name": "A#6",
                        "ticks": 86483,
                        "time": 122.94076213671877,
                        "velocity": 0.7480314960629921
                    },
                    {
                        "duration": 0.2082329648437451,
                        "durationTicks": 231,
                        "midi": 86,
                        "name": "D6",
                        "ticks": 86528,
                        "time": 122.98132700000004,
                        "velocity": 0.7559055118110236
                    },
                    {
                        "duration": 0.2082329648437451,
                        "durationTicks": 231,
                        "midi": 95,
                        "name": "B6",
                        "ticks": 86528,
                        "time": 122.98132700000004,
                        "velocity": 0.7559055118110236
                    },
                    {
                        "duration": 0.06490378124999552,
                        "durationTicks": 72,
                        "midi": 92,
                        "name": "G#6",
                        "ticks": 86590,
                        "time": 123.03721636718754,
                        "velocity": 0.8582677165354331
                    },
                    {
                        "duration": 0.06941098828124836,
                        "durationTicks": 77,
                        "midi": 93,
                        "name": "A6",
                        "ticks": 86662,
                        "time": 123.10212014843754,
                        "velocity": 0.968503937007874
                    },
                    {
                        "duration": 0.0405648632812472,
                        "durationTicks": 45,
                        "midi": 94,
                        "name": "A#6",
                        "ticks": 86739,
                        "time": 123.17153113671878,
                        "velocity": 0.9921259842519685
                    },
                    {
                        "duration": 0.2082329648437451,
                        "durationTicks": 231,
                        "midi": 86,
                        "name": "D6",
                        "ticks": 86784,
                        "time": 123.21209600000003,
                        "velocity": 0.9921259842519685
                    },
                    {
                        "duration": 0.2082329648437451,
                        "durationTicks": 231,
                        "midi": 95,
                        "name": "B6",
                        "ticks": 86784,
                        "time": 123.21209600000003,
                        "velocity": 0.984251968503937
                    },
                    {
                        "duration": 0.04146630468750345,
                        "durationTicks": 46,
                        "midi": 92,
                        "name": "G#6",
                        "ticks": 89176,
                        "time": 125.36834384375003,
                        "velocity": 0.8976377952755905
                    },
                    {
                        "duration": 0.06941098828124836,
                        "durationTicks": 77,
                        "midi": 93,
                        "name": "A6",
                        "ticks": 89222,
                        "time": 125.40981014843753,
                        "velocity": 1
                    },
                    {
                        "duration": 0.04056486328126141,
                        "durationTicks": 45,
                        "midi": 94,
                        "name": "A#6",
                        "ticks": 89299,
                        "time": 125.47922113671878,
                        "velocity": 0.9921259842519685
                    },
                    {
                        "duration": 0.2082329648437451,
                        "durationTicks": 231,
                        "midi": 86,
                        "name": "D6",
                        "ticks": 89344,
                        "time": 125.51978600000004,
                        "velocity": 1
                    },
                    {
                        "duration": 0.2082329648437451,
                        "durationTicks": 231,
                        "midi": 95,
                        "name": "B6",
                        "ticks": 89344,
                        "time": 125.51978600000004,
                        "velocity": 0.9921259842519685
                    }
                ]
            },
            {
                "channel": 1,
                "controlChanges": {
                    "0": [
                        {
                            "number": 0,
                            "ticks": 0,
                            "time": 0,
                            "value": 0
                        }
                    ],
                    "10": [
                        {
                            "number": 10,
                            "ticks": 0,
                            "time": 0,
                            "value": 0.3937007874015748
                        }
                    ],
                    "32": [
                        {
                            "number": 32,
                            "ticks": 0,
                            "time": 0,
                            "value": 0
                        }
                    ],
                    "64": [
                        {
                            "number": 64,
                            "ticks": 17408,
                            "time": 29.565176,
                            "value": 1
                        },
                        {
                            "number": 64,
                            "ticks": 18176,
                            "time": 30.832781,
                            "value": 0
                        },
                        {
                            "number": 64,
                            "ticks": 25600,
                            "time": 43.086296000000004,
                            "value": 1
                        },
                        {
                            "number": 64,
                            "ticks": 26112,
                            "time": 43.931366000000004,
                            "value": 1
                        },
                        {
                            "number": 64,
                            "ticks": 26112,
                            "time": 43.931366000000004,
                            "value": 0
                        },
                        {
                            "number": 64,
                            "ticks": 26496,
                            "time": 44.5651685,
                            "value": 0
                        },
                        {
                            "number": 64,
                            "ticks": 26624,
                            "time": 44.776436000000004,
                            "value": 1
                        },
                        {
                            "number": 64,
                            "ticks": 27136,
                            "time": 45.621506000000004,
                            "value": 1
                        },
                        {
                            "number": 64,
                            "ticks": 27136,
                            "time": 45.621506000000004,
                            "value": 0
                        },
                        {
                            "number": 64,
                            "ticks": 27520,
                            "time": 46.2553085,
                            "value": 0
                        },
                        {
                            "number": 64,
                            "ticks": 27648,
                            "time": 46.466576,
                            "value": 1
                        },
                        {
                            "number": 64,
                            "ticks": 28160,
                            "time": 47.311646,
                            "value": 1
                        },
                        {
                            "number": 64,
                            "ticks": 28160,
                            "time": 47.311646,
                            "value": 0
                        },
                        {
                            "number": 64,
                            "ticks": 28544,
                            "time": 47.945448500000005,
                            "value": 0
                        },
                        {
                            "number": 64,
                            "ticks": 28800,
                            "time": 48.36798350000001,
                            "value": 1
                        },
                        {
                            "number": 64,
                            "ticks": 29184,
                            "time": 49.001786,
                            "value": 1
                        },
                        {
                            "number": 64,
                            "ticks": 29440,
                            "time": 49.424321000000006,
                            "value": 0
                        },
                        {
                            "number": 64,
                            "ticks": 29568,
                            "time": 49.635588500000004,
                            "value": 0
                        },
                        {
                            "number": 64,
                            "ticks": 29696,
                            "time": 49.846856,
                            "value": 1
                        },
                        {
                            "number": 64,
                            "ticks": 30208,
                            "time": 50.691926,
                            "value": 1
                        },
                        {
                            "number": 64,
                            "ticks": 30208,
                            "time": 50.691926,
                            "value": 0
                        },
                        {
                            "number": 64,
                            "ticks": 30592,
                            "time": 51.325728500000004,
                            "value": 0
                        },
                        {
                            "number": 64,
                            "ticks": 30720,
                            "time": 51.536996,
                            "value": 1
                        },
                        {
                            "number": 64,
                            "ticks": 31232,
                            "time": 52.38206600000001,
                            "value": 1
                        },
                        {
                            "number": 64,
                            "ticks": 31232,
                            "time": 52.38206600000001,
                            "value": 0
                        },
                        {
                            "number": 64,
                            "ticks": 31616,
                            "time": 53.0158685,
                            "value": 0
                        },
                        {
                            "number": 64,
                            "ticks": 31744,
                            "time": 53.227136,
                            "value": 1
                        },
                        {
                            "number": 64,
                            "ticks": 32256,
                            "time": 54.07220600000001,
                            "value": 1
                        },
                        {
                            "number": 64,
                            "ticks": 32256,
                            "time": 54.07220600000001,
                            "value": 0
                        },
                        {
                            "number": 64,
                            "ticks": 32640,
                            "time": 54.7060085,
                            "value": 0
                        },
                        {
                            "number": 64,
                            "ticks": 32896,
                            "time": 55.128543500000006,
                            "value": 1
                        },
                        {
                            "number": 64,
                            "ticks": 33280,
                            "time": 55.76234600000001,
                            "value": 1
                        },
                        {
                            "number": 64,
                            "ticks": 33536,
                            "time": 56.184881000000004,
                            "value": 0
                        },
                        {
                            "number": 64,
                            "ticks": 33664,
                            "time": 56.3961485,
                            "value": 0
                        },
                        {
                            "number": 64,
                            "ticks": 33920,
                            "time": 56.818683500000006,
                            "value": 1
                        },
                        {
                            "number": 64,
                            "ticks": 34304,
                            "time": 57.45248600000001,
                            "value": 1
                        },
                        {
                            "number": 64,
                            "ticks": 34560,
                            "time": 57.875021000000004,
                            "value": 0
                        },
                        {
                            "number": 64,
                            "ticks": 34688,
                            "time": 58.08628850000001,
                            "value": 0
                        },
                        {
                            "number": 64,
                            "ticks": 34816,
                            "time": 58.297556,
                            "value": 1
                        },
                        {
                            "number": 64,
                            "ticks": 35328,
                            "time": 59.14262600000001,
                            "value": 1
                        },
                        {
                            "number": 64,
                            "ticks": 35584,
                            "time": 59.565161,
                            "value": 0
                        },
                        {
                            "number": 64,
                            "ticks": 35712,
                            "time": 59.77642850000001,
                            "value": 0
                        },
                        {
                            "number": 64,
                            "ticks": 35968,
                            "time": 60.198963500000005,
                            "value": 1
                        },
                        {
                            "number": 64,
                            "ticks": 36352,
                            "time": 60.83276600000001,
                            "value": 1
                        },
                        {
                            "number": 64,
                            "ticks": 36608,
                            "time": 61.255301,
                            "value": 0
                        },
                        {
                            "number": 64,
                            "ticks": 36736,
                            "time": 61.46656850000001,
                            "value": 0
                        },
                        {
                            "number": 64,
                            "ticks": 36864,
                            "time": 61.677836000000006,
                            "value": 1
                        },
                        {
                            "number": 64,
                            "ticks": 37376,
                            "time": 62.522906000000006,
                            "value": 1
                        },
                        {
                            "number": 64,
                            "ticks": 37632,
                            "time": 62.945441,
                            "value": 0
                        },
                        {
                            "number": 64,
                            "ticks": 37760,
                            "time": 63.15670850000001,
                            "value": 0
                        },
                        {
                            "number": 64,
                            "ticks": 38016,
                            "time": 63.579243500000004,
                            "value": 1
                        },
                        {
                            "number": 64,
                            "ticks": 38400,
                            "time": 64.213046,
                            "value": 1
                        },
                        {
                            "number": 64,
                            "ticks": 38656,
                            "time": 64.635581,
                            "value": 0
                        },
                        {
                            "number": 64,
                            "ticks": 38784,
                            "time": 64.84684850000001,
                            "value": 0
                        },
                        {
                            "number": 64,
                            "ticks": 38912,
                            "time": 65.05811600000001,
                            "value": 1
                        },
                        {
                            "number": 64,
                            "ticks": 39424,
                            "time": 65.903186,
                            "value": 1
                        },
                        {
                            "number": 64,
                            "ticks": 39680,
                            "time": 66.32572100000002,
                            "value": 0
                        },
                        {
                            "number": 64,
                            "ticks": 39808,
                            "time": 66.5369885,
                            "value": 0
                        },
                        {
                            "number": 64,
                            "ticks": 40064,
                            "time": 66.9595235,
                            "value": 1
                        },
                        {
                            "number": 64,
                            "ticks": 40448,
                            "time": 67.593326,
                            "value": 1
                        },
                        {
                            "number": 64,
                            "ticks": 40704,
                            "time": 68.015861,
                            "value": 0
                        },
                        {
                            "number": 64,
                            "ticks": 40832,
                            "time": 68.2271285,
                            "value": 0
                        },
                        {
                            "number": 64,
                            "ticks": 40960,
                            "time": 68.43839600000001,
                            "value": 1
                        },
                        {
                            "number": 64,
                            "ticks": 41472,
                            "time": 69.283466,
                            "value": 1
                        },
                        {
                            "number": 64,
                            "ticks": 41728,
                            "time": 69.70600100000001,
                            "value": 0
                        },
                        {
                            "number": 64,
                            "ticks": 41983,
                            "time": 70.12688547265626,
                            "value": 0
                        },
                        {
                            "number": 64,
                            "ticks": 41984,
                            "time": 70.128536,
                            "value": 1
                        },
                        {
                            "number": 64,
                            "ticks": 42496,
                            "time": 70.956122,
                            "value": 1
                        },
                        {
                            "number": 64,
                            "ticks": 42496,
                            "time": 70.956122,
                            "value": 0
                        },
                        {
                            "number": 64,
                            "ticks": 42922,
                            "time": 71.6446994140625,
                            "value": 0
                        },
                        {
                            "number": 64,
                            "ticks": 43008,
                            "time": 71.78370799999999,
                            "value": 1
                        },
                        {
                            "number": 64,
                            "ticks": 43520,
                            "time": 72.611294,
                            "value": 1
                        },
                        {
                            "number": 64,
                            "ticks": 43520,
                            "time": 72.611294,
                            "value": 0
                        },
                        {
                            "number": 64,
                            "ticks": 43946,
                            "time": 73.2998714140625,
                            "value": 0
                        },
                        {
                            "number": 64,
                            "ticks": 44032,
                            "time": 73.43888,
                            "value": 1
                        },
                        {
                            "number": 64,
                            "ticks": 44544,
                            "time": 74.266466,
                            "value": 1
                        },
                        {
                            "number": 64,
                            "ticks": 44544,
                            "time": 74.266466,
                            "value": 0
                        },
                        {
                            "number": 64,
                            "ticks": 45055,
                            "time": 75.09243562109374,
                            "value": 1
                        },
                        {
                            "number": 64,
                            "ticks": 45055,
                            "time": 75.09243562109374,
                            "value": 0
                        },
                        {
                            "number": 64,
                            "ticks": 45482,
                            "time": 75.7826294140625,
                            "value": 0
                        },
                        {
                            "number": 64,
                            "ticks": 45568,
                            "time": 75.921638,
                            "value": 1
                        },
                        {
                            "number": 64,
                            "ticks": 45994,
                            "time": 76.6102154140625,
                            "value": 0
                        },
                        {
                            "number": 64,
                            "ticks": 46080,
                            "time": 76.749224,
                            "value": 1
                        },
                        {
                            "number": 64,
                            "ticks": 46592,
                            "time": 77.560034,
                            "value": 1
                        },
                        {
                            "number": 64,
                            "ticks": 46592,
                            "time": 77.560034,
                            "value": 0
                        },
                        {
                            "number": 64,
                            "ticks": 47018,
                            "time": 78.2346532578125,
                            "value": 0
                        },
                        {
                            "number": 64,
                            "ticks": 47104,
                            "time": 78.370844,
                            "value": 1
                        },
                        {
                            "number": 64,
                            "ticks": 47616,
                            "time": 79.181654,
                            "value": 1
                        },
                        {
                            "number": 64,
                            "ticks": 47616,
                            "time": 79.181654,
                            "value": 0
                        },
                        {
                            "number": 64,
                            "ticks": 48042,
                            "time": 79.8562732578125,
                            "value": 0
                        },
                        {
                            "number": 64,
                            "ticks": 50176,
                            "time": 82.77294600000003,
                            "value": 1
                        },
                        {
                            "number": 64,
                            "ticks": 50688,
                            "time": 83.40452400000004,
                            "value": 1
                        },
                        {
                            "number": 64,
                            "ticks": 50688,
                            "time": 83.40452400000004,
                            "value": 0
                        },
                        {
                            "number": 64,
                            "ticks": 51072,
                            "time": 83.87820750000003,
                            "value": 0
                        },
                        {
                            "number": 64,
                            "ticks": 51328,
                            "time": 84.19399650000003,
                            "value": 1
                        },
                        {
                            "number": 64,
                            "ticks": 51712,
                            "time": 84.66768000000003,
                            "value": 1
                        },
                        {
                            "number": 64,
                            "ticks": 51840,
                            "time": 84.82557450000003,
                            "value": 0
                        },
                        {
                            "number": 64,
                            "ticks": 52096,
                            "time": 85.14136350000003,
                            "value": 0
                        },
                        {
                            "number": 64,
                            "ticks": 52224,
                            "time": 85.29925800000004,
                            "value": 1
                        },
                        {
                            "number": 64,
                            "ticks": 52736,
                            "time": 85.93083600000003,
                            "value": 1
                        },
                        {
                            "number": 64,
                            "ticks": 52736,
                            "time": 85.93083600000003,
                            "value": 0
                        },
                        {
                            "number": 64,
                            "ticks": 53120,
                            "time": 86.40451950000003,
                            "value": 0
                        },
                        {
                            "number": 64,
                            "ticks": 53248,
                            "time": 86.56241400000003,
                            "value": 1
                        },
                        {
                            "number": 64,
                            "ticks": 53760,
                            "time": 87.19399200000004,
                            "value": 1
                        },
                        {
                            "number": 64,
                            "ticks": 53760,
                            "time": 87.19399200000004,
                            "value": 0
                        },
                        {
                            "number": 64,
                            "ticks": 54144,
                            "time": 87.66767550000003,
                            "value": 0
                        },
                        {
                            "number": 64,
                            "ticks": 54400,
                            "time": 87.98346450000003,
                            "value": 1
                        },
                        {
                            "number": 64,
                            "ticks": 54784,
                            "time": 88.45714800000003,
                            "value": 1
                        },
                        {
                            "number": 64,
                            "ticks": 54912,
                            "time": 88.61504250000003,
                            "value": 0
                        },
                        {
                            "number": 64,
                            "ticks": 55168,
                            "time": 88.93083150000004,
                            "value": 0
                        },
                        {
                            "number": 64,
                            "ticks": 55424,
                            "time": 89.24662050000003,
                            "value": 1
                        },
                        {
                            "number": 64,
                            "ticks": 55808,
                            "time": 89.72030400000003,
                            "value": 1
                        },
                        {
                            "number": 64,
                            "ticks": 55936,
                            "time": 89.87819850000002,
                            "value": 0
                        },
                        {
                            "number": 64,
                            "ticks": 56192,
                            "time": 90.19398750000003,
                            "value": 0
                        },
                        {
                            "number": 64,
                            "ticks": 56320,
                            "time": 90.35188200000003,
                            "value": 1
                        },
                        {
                            "number": 64,
                            "ticks": 56832,
                            "time": 90.98346000000004,
                            "value": 1
                        },
                        {
                            "number": 64,
                            "ticks": 56832,
                            "time": 90.98346000000004,
                            "value": 0
                        },
                        {
                            "number": 64,
                            "ticks": 57216,
                            "time": 91.45714350000003,
                            "value": 0
                        },
                        {
                            "number": 64,
                            "ticks": 57344,
                            "time": 91.61503800000003,
                            "value": 1
                        },
                        {
                            "number": 64,
                            "ticks": 57856,
                            "time": 92.24661600000003,
                            "value": 1
                        },
                        {
                            "number": 64,
                            "ticks": 57856,
                            "time": 92.24661600000003,
                            "value": 0
                        },
                        {
                            "number": 64,
                            "ticks": 58240,
                            "time": 92.72029950000004,
                            "value": 0
                        },
                        {
                            "number": 64,
                            "ticks": 58368,
                            "time": 92.87819400000004,
                            "value": 1
                        },
                        {
                            "number": 64,
                            "ticks": 58880,
                            "time": 93.50977200000003,
                            "value": 1
                        },
                        {
                            "number": 64,
                            "ticks": 58880,
                            "time": 93.50977200000003,
                            "value": 0
                        },
                        {
                            "number": 64,
                            "ticks": 59264,
                            "time": 93.98345550000003,
                            "value": 0
                        },
                        {
                            "number": 64,
                            "ticks": 59392,
                            "time": 94.14135000000003,
                            "value": 1
                        },
                        {
                            "number": 64,
                            "ticks": 59904,
                            "time": 94.77292800000004,
                            "value": 1
                        },
                        {
                            "number": 64,
                            "ticks": 59904,
                            "time": 94.77292800000004,
                            "value": 0
                        },
                        {
                            "number": 64,
                            "ticks": 60416,
                            "time": 95.40450600000003,
                            "value": 1
                        },
                        {
                            "number": 64,
                            "ticks": 60544,
                            "time": 95.56240050000002,
                            "value": 0
                        },
                        {
                            "number": 64,
                            "ticks": 60928,
                            "time": 96.03608400000003,
                            "value": 1
                        },
                        {
                            "number": 64,
                            "ticks": 60928,
                            "time": 96.03608400000003,
                            "value": 0
                        },
                        {
                            "number": 64,
                            "ticks": 61312,
                            "time": 96.50976750000004,
                            "value": 0
                        },
                        {
                            "number": 64,
                            "ticks": 61440,
                            "time": 96.66766200000004,
                            "value": 1
                        },
                        {
                            "number": 64,
                            "ticks": 61952,
                            "time": 97.29924000000003,
                            "value": 1
                        },
                        {
                            "number": 64,
                            "ticks": 61952,
                            "time": 97.29924000000003,
                            "value": 0
                        },
                        {
                            "number": 64,
                            "ticks": 62464,
                            "time": 97.93081800000003,
                            "value": 1
                        },
                        {
                            "number": 64,
                            "ticks": 62592,
                            "time": 98.08871250000003,
                            "value": 0
                        },
                        {
                            "number": 64,
                            "ticks": 62976,
                            "time": 98.56239600000004,
                            "value": 1
                        },
                        {
                            "number": 64,
                            "ticks": 62976,
                            "time": 98.56239600000004,
                            "value": 0
                        },
                        {
                            "number": 64,
                            "ticks": 63360,
                            "time": 99.03607950000003,
                            "value": 0
                        },
                        {
                            "number": 64,
                            "ticks": 63488,
                            "time": 99.19397400000003,
                            "value": 1
                        },
                        {
                            "number": 64,
                            "ticks": 64000,
                            "time": 99.82555200000003,
                            "value": 1
                        },
                        {
                            "number": 64,
                            "ticks": 64000,
                            "time": 99.82555200000003,
                            "value": 0
                        },
                        {
                            "number": 64,
                            "ticks": 64384,
                            "time": 100.29923550000004,
                            "value": 0
                        },
                        {
                            "number": 64,
                            "ticks": 64512,
                            "time": 100.45713000000003,
                            "value": 1
                        },
                        {
                            "number": 64,
                            "ticks": 65024,
                            "time": 101.08870800000003,
                            "value": 1
                        },
                        {
                            "number": 64,
                            "ticks": 65024,
                            "time": 101.08870800000003,
                            "value": 0
                        },
                        {
                            "number": 64,
                            "ticks": 65408,
                            "time": 101.56239150000003,
                            "value": 0
                        },
                        {
                            "number": 64,
                            "ticks": 65536,
                            "time": 101.72028600000003,
                            "value": 1
                        },
                        {
                            "number": 64,
                            "ticks": 66048,
                            "time": 102.35186400000003,
                            "value": 1
                        },
                        {
                            "number": 64,
                            "ticks": 66048,
                            "time": 102.35186400000003,
                            "value": 0
                        },
                        {
                            "number": 64,
                            "ticks": 66688,
                            "time": 103.13344200000003,
                            "value": 1
                        },
                        {
                            "number": 64,
                            "ticks": 66688,
                            "time": 103.13344200000003,
                            "value": 0
                        },
                        {
                            "number": 64,
                            "ticks": 67072,
                            "time": 103.58344200000002,
                            "value": 1
                        },
                        {
                            "number": 64,
                            "ticks": 67200,
                            "time": 103.73344200000003,
                            "value": 0
                        },
                        {
                            "number": 64,
                            "ticks": 67456,
                            "time": 104.03344200000002,
                            "value": 0
                        },
                        {
                            "number": 64,
                            "ticks": 67712,
                            "time": 104.33344200000002,
                            "value": 1
                        },
                        {
                            "number": 64,
                            "ticks": 68096,
                            "time": 104.78344200000002,
                            "value": 1
                        },
                        {
                            "number": 64,
                            "ticks": 68224,
                            "time": 104.93344200000003,
                            "value": 0
                        },
                        {
                            "number": 64,
                            "ticks": 68480,
                            "time": 105.23344200000003,
                            "value": 0
                        },
                        {
                            "number": 64,
                            "ticks": 68608,
                            "time": 105.38344200000003,
                            "value": 1
                        },
                        {
                            "number": 64,
                            "ticks": 69120,
                            "time": 105.98344200000003,
                            "value": 1
                        },
                        {
                            "number": 64,
                            "ticks": 69120,
                            "time": 105.98344200000003,
                            "value": 0
                        },
                        {
                            "number": 64,
                            "ticks": 69504,
                            "time": 106.43344200000003,
                            "value": 0
                        },
                        {
                            "number": 64,
                            "ticks": 69632,
                            "time": 106.58344200000002,
                            "value": 1
                        },
                        {
                            "number": 64,
                            "ticks": 70144,
                            "time": 107.18344200000003,
                            "value": 1
                        },
                        {
                            "number": 64,
                            "ticks": 70144,
                            "time": 107.18344200000003,
                            "value": 0
                        },
                        {
                            "number": 64,
                            "ticks": 70528,
                            "time": 107.63344200000003,
                            "value": 0
                        },
                        {
                            "number": 64,
                            "ticks": 70784,
                            "time": 107.92978300000003,
                            "value": 1
                        },
                        {
                            "number": 64,
                            "ticks": 71168,
                            "time": 108.36880600000002,
                            "value": 1
                        },
                        {
                            "number": 64,
                            "ticks": 71296,
                            "time": 108.51514700000003,
                            "value": 0
                        },
                        {
                            "number": 64,
                            "ticks": 71552,
                            "time": 108.80782900000003,
                            "value": 0
                        },
                        {
                            "number": 64,
                            "ticks": 71808,
                            "time": 109.10051100000003,
                            "value": 1
                        },
                        {
                            "number": 64,
                            "ticks": 72192,
                            "time": 109.53953400000002,
                            "value": 1
                        },
                        {
                            "number": 64,
                            "ticks": 72320,
                            "time": 109.68587500000002,
                            "value": 0
                        },
                        {
                            "number": 64,
                            "ticks": 72576,
                            "time": 109.97855700000002,
                            "value": 0
                        },
                        {
                            "number": 64,
                            "ticks": 72704,
                            "time": 110.12489800000002,
                            "value": 1
                        },
                        {
                            "number": 64,
                            "ticks": 73216,
                            "time": 110.71026200000003,
                            "value": 1
                        },
                        {
                            "number": 64,
                            "ticks": 73216,
                            "time": 110.71026200000003,
                            "value": 0
                        },
                        {
                            "number": 64,
                            "ticks": 73600,
                            "time": 111.13551050000002,
                            "value": 0
                        },
                        {
                            "number": 64,
                            "ticks": 73728,
                            "time": 111.27504500000003,
                            "value": 1
                        },
                        {
                            "number": 64,
                            "ticks": 74240,
                            "time": 111.82049900000004,
                            "value": 1
                        },
                        {
                            "number": 64,
                            "ticks": 74240,
                            "time": 111.82049900000004,
                            "value": 0
                        },
                        {
                            "number": 64,
                            "ticks": 74624,
                            "time": 112.22958950000003,
                            "value": 0
                        },
                        {
                            "number": 64,
                            "ticks": 74752,
                            "time": 112.36595300000003,
                            "value": 1
                        },
                        {
                            "number": 64,
                            "ticks": 75264,
                            "time": 112.82749100000004,
                            "value": 0
                        },
                        {
                            "number": 64,
                            "ticks": 75775,
                            "time": 113.28812755859379,
                            "value": 1
                        },
                        {
                            "number": 64,
                            "ticks": 76288,
                            "time": 113.75056700000003,
                            "value": 0
                        },
                        {
                            "number": 64,
                            "ticks": 76800,
                            "time": 114.21210500000004,
                            "value": 1
                        },
                        {
                            "number": 64,
                            "ticks": 77312,
                            "time": 114.67364300000003,
                            "value": 1
                        },
                        {
                            "number": 64,
                            "ticks": 77312,
                            "time": 114.67364300000003,
                            "value": 0
                        },
                        {
                            "number": 64,
                            "ticks": 77568,
                            "time": 114.90441200000004,
                            "value": 0
                        },
                        {
                            "number": 64,
                            "ticks": 77824,
                            "time": 115.13518100000003,
                            "value": 1
                        },
                        {
                            "number": 64,
                            "ticks": 78336,
                            "time": 115.59671900000004,
                            "value": 1
                        },
                        {
                            "number": 64,
                            "ticks": 78592,
                            "time": 115.82748800000003,
                            "value": 0
                        },
                        {
                            "number": 64,
                            "ticks": 78592,
                            "time": 115.82748800000003,
                            "value": 0
                        },
                        {
                            "number": 64,
                            "ticks": 78848,
                            "time": 116.05825700000003,
                            "value": 1
                        },
                        {
                            "number": 64,
                            "ticks": 79360,
                            "time": 116.51979500000003,
                            "value": 0
                        },
                        {
                            "number": 64,
                            "ticks": 79871,
                            "time": 116.98043155859378,
                            "value": 1
                        },
                        {
                            "number": 64,
                            "ticks": 80384,
                            "time": 117.44287100000003,
                            "value": 0
                        },
                        {
                            "number": 64,
                            "ticks": 80896,
                            "time": 117.90440900000003,
                            "value": 1
                        },
                        {
                            "number": 64,
                            "ticks": 81408,
                            "time": 118.36594700000003,
                            "value": 1
                        },
                        {
                            "number": 64,
                            "ticks": 81408,
                            "time": 118.36594700000003,
                            "value": 0
                        },
                        {
                            "number": 64,
                            "ticks": 81664,
                            "time": 118.59671600000003,
                            "value": 0
                        },
                        {
                            "number": 64,
                            "ticks": 81920,
                            "time": 118.82748500000004,
                            "value": 1
                        },
                        {
                            "number": 64,
                            "ticks": 82432,
                            "time": 119.28902300000003,
                            "value": 1
                        },
                        {
                            "number": 64,
                            "ticks": 82688,
                            "time": 119.51979200000004,
                            "value": 0
                        },
                        {
                            "number": 64,
                            "ticks": 82688,
                            "time": 119.51979200000004,
                            "value": 0
                        },
                        {
                            "number": 64,
                            "ticks": 82944,
                            "time": 119.75056100000003,
                            "value": 1
                        },
                        {
                            "number": 64,
                            "ticks": 83456,
                            "time": 120.21209900000004,
                            "value": 0
                        },
                        {
                            "number": 64,
                            "ticks": 83968,
                            "time": 120.67363700000003,
                            "value": 1
                        },
                        {
                            "number": 64,
                            "ticks": 84480,
                            "time": 121.13517500000003,
                            "value": 0
                        },
                        {
                            "number": 64,
                            "ticks": 87552,
                            "time": 123.90440300000003,
                            "value": 1
                        },
                        {
                            "number": 64,
                            "ticks": 89600,
                            "time": 125.75055500000003,
                            "value": 0
                        }
                    ],
                    "91": [
                        {
                            "number": 91,
                            "ticks": 0,
                            "time": 0,
                            "value": 0.47244094488188976
                        }
                    ]
                },
                "pitchBends": [],
                "instrument": {
                    "family": "piano",
                    "name": "acoustic grand piano",
                    "number": 0
                },
                "name": "",
                "notes": [
                    {
                        "duration": 1.654209640625,
                        "durationTicks": 974,
                        "midi": 54,
                        "name": "F#3",
                        "ticks": 0,
                        "time": 0,
                        "velocity": 0.2677165354330709
                    },
                    {
                        "duration": 1.654209640625,
                        "durationTicks": 974,
                        "midi": 66,
                        "name": "F#4",
                        "ticks": 0,
                        "time": 0,
                        "velocity": 0.2677165354330709
                    },
                    {
                        "duration": 0.213994265625,
                        "durationTicks": 126,
                        "midi": 23,
                        "name": "B0",
                        "ticks": 1024,
                        "time": 1.739128,
                        "velocity": 0.2047244094488189
                    },
                    {
                        "duration": 0.2139942656249998,
                        "durationTicks": 126,
                        "midi": 30,
                        "name": "F#1",
                        "ticks": 1280,
                        "time": 2.1739100000000002,
                        "velocity": 0.31496062992125984
                    },
                    {
                        "duration": 0.2139942656249998,
                        "durationTicks": 126,
                        "midi": 23,
                        "name": "B0",
                        "ticks": 1536,
                        "time": 2.608692,
                        "velocity": 0.2283464566929134
                    },
                    {
                        "duration": 0.21399426562500024,
                        "durationTicks": 126,
                        "midi": 30,
                        "name": "F#1",
                        "ticks": 1792,
                        "time": 3.043474,
                        "velocity": 0.33070866141732286
                    },
                    {
                        "duration": 0.2139942656249998,
                        "durationTicks": 126,
                        "midi": 23,
                        "name": "B0",
                        "ticks": 2048,
                        "time": 3.478256,
                        "velocity": 0.25196850393700787
                    },
                    {
                        "duration": 0.2139942656249998,
                        "durationTicks": 126,
                        "midi": 30,
                        "name": "F#1",
                        "ticks": 2304,
                        "time": 3.9130380000000002,
                        "velocity": 0.2992125984251969
                    },
                    {
                        "duration": 0.2139942656249998,
                        "durationTicks": 126,
                        "midi": 23,
                        "name": "B0",
                        "ticks": 2560,
                        "time": 4.3478200000000005,
                        "velocity": 0.2204724409448819
                    },
                    {
                        "duration": 0.2139942656249998,
                        "durationTicks": 126,
                        "midi": 30,
                        "name": "F#1",
                        "ticks": 2816,
                        "time": 4.782602,
                        "velocity": 0.3228346456692913
                    },
                    {
                        "duration": 0.2139942656249998,
                        "durationTicks": 126,
                        "midi": 23,
                        "name": "B0",
                        "ticks": 3072,
                        "time": 5.217384,
                        "velocity": 0.25984251968503935
                    },
                    {
                        "duration": 0.2139942656249998,
                        "durationTicks": 126,
                        "midi": 30,
                        "name": "F#1",
                        "ticks": 3328,
                        "time": 5.652166,
                        "velocity": 0.30708661417322836
                    },
                    {
                        "duration": 0.21399426562500068,
                        "durationTicks": 126,
                        "midi": 23,
                        "name": "B0",
                        "ticks": 3584,
                        "time": 6.086948,
                        "velocity": 0.2283464566929134
                    },
                    {
                        "duration": 0.2139942656249998,
                        "durationTicks": 126,
                        "midi": 30,
                        "name": "F#1",
                        "ticks": 3840,
                        "time": 6.52173,
                        "velocity": 0.33070866141732286
                    },
                    {
                        "duration": 0.2139942656249998,
                        "durationTicks": 126,
                        "midi": 26,
                        "name": "D1",
                        "ticks": 4096,
                        "time": 6.956512,
                        "velocity": 0.25984251968503935
                    },
                    {
                        "duration": 0.2139942656249998,
                        "durationTicks": 126,
                        "midi": 33,
                        "name": "A1",
                        "ticks": 4352,
                        "time": 7.391294,
                        "velocity": 0.31496062992125984
                    },
                    {
                        "duration": 0.2139942656249989,
                        "durationTicks": 126,
                        "midi": 26,
                        "name": "D1",
                        "ticks": 4608,
                        "time": 7.8260760000000005,
                        "velocity": 0.2440944881889764
                    },
                    {
                        "duration": 0.2139942656249989,
                        "durationTicks": 126,
                        "midi": 33,
                        "name": "A1",
                        "ticks": 4864,
                        "time": 8.260858,
                        "velocity": 0.3228346456692913
                    },
                    {
                        "duration": 0.2139942656249989,
                        "durationTicks": 126,
                        "midi": 23,
                        "name": "B0",
                        "ticks": 5120,
                        "time": 8.695640000000001,
                        "velocity": 0.2440944881889764
                    },
                    {
                        "duration": 0.21399426562500068,
                        "durationTicks": 126,
                        "midi": 30,
                        "name": "F#1",
                        "ticks": 5376,
                        "time": 9.130422,
                        "velocity": 0.2992125984251969
                    },
                    {
                        "duration": 0.21399426562500068,
                        "durationTicks": 126,
                        "midi": 23,
                        "name": "B0",
                        "ticks": 5632,
                        "time": 9.565204,
                        "velocity": 0.2283464566929134
                    },
                    {
                        "duration": 0.21399426562500068,
                        "durationTicks": 126,
                        "midi": 30,
                        "name": "F#1",
                        "ticks": 5888,
                        "time": 9.999986,
                        "velocity": 0.3228346456692913
                    },
                    {
                        "duration": 0.21399426562500068,
                        "durationTicks": 126,
                        "midi": 23,
                        "name": "B0",
                        "ticks": 6144,
                        "time": 10.434768,
                        "velocity": 0.25984251968503935
                    },
                    {
                        "duration": 0.2139942656249989,
                        "durationTicks": 126,
                        "midi": 30,
                        "name": "F#1",
                        "ticks": 6400,
                        "time": 10.86955,
                        "velocity": 0.30708661417322836
                    },
                    {
                        "duration": 0.2139942656249989,
                        "durationTicks": 126,
                        "midi": 23,
                        "name": "B0",
                        "ticks": 6656,
                        "time": 11.304332,
                        "velocity": 0.23622047244094488
                    },
                    {
                        "duration": 0.2139942656249989,
                        "durationTicks": 126,
                        "midi": 30,
                        "name": "F#1",
                        "ticks": 6912,
                        "time": 11.739114,
                        "velocity": 0.3228346456692913
                    },
                    {
                        "duration": 0.21399426562500068,
                        "durationTicks": 126,
                        "midi": 23,
                        "name": "B0",
                        "ticks": 7168,
                        "time": 12.173896,
                        "velocity": 0.25196850393700787
                    },
                    {
                        "duration": 0.21399426562500068,
                        "durationTicks": 126,
                        "midi": 30,
                        "name": "F#1",
                        "ticks": 7424,
                        "time": 12.608678,
                        "velocity": 0.3228346456692913
                    },
                    {
                        "duration": 0.21399426562500068,
                        "durationTicks": 126,
                        "midi": 23,
                        "name": "B0",
                        "ticks": 7680,
                        "time": 13.04346,
                        "velocity": 0.23622047244094488
                    },
                    {
                        "duration": 0.21399426562500068,
                        "durationTicks": 126,
                        "midi": 30,
                        "name": "F#1",
                        "ticks": 7936,
                        "time": 13.478242,
                        "velocity": 0.2992125984251969
                    },
                    {
                        "duration": 0.21399426562500068,
                        "durationTicks": 126,
                        "midi": 26,
                        "name": "D1",
                        "ticks": 8192,
                        "time": 13.913024,
                        "velocity": 0.25984251968503935
                    },
                    {
                        "duration": 0.2139942656249989,
                        "durationTicks": 126,
                        "midi": 33,
                        "name": "A1",
                        "ticks": 8448,
                        "time": 14.347806,
                        "velocity": 0.30708661417322836
                    },
                    {
                        "duration": 0.2139942656249989,
                        "durationTicks": 126,
                        "midi": 26,
                        "name": "D1",
                        "ticks": 8704,
                        "time": 14.782588,
                        "velocity": 0.23622047244094488
                    },
                    {
                        "duration": 0.2139942656249989,
                        "durationTicks": 126,
                        "midi": 33,
                        "name": "A1",
                        "ticks": 8960,
                        "time": 15.21737,
                        "velocity": 0.30708661417322836
                    },
                    {
                        "duration": 0.2139942656249989,
                        "durationTicks": 126,
                        "midi": 30,
                        "name": "F#1",
                        "ticks": 9216,
                        "time": 15.652152000000001,
                        "velocity": 0.28346456692913385
                    },
                    {
                        "duration": 0.21399426562500068,
                        "durationTicks": 126,
                        "midi": 37,
                        "name": "C#2",
                        "ticks": 9472,
                        "time": 16.086934,
                        "velocity": 0.31496062992125984
                    },
                    {
                        "duration": 0.21399426562499713,
                        "durationTicks": 126,
                        "midi": 30,
                        "name": "F#1",
                        "ticks": 9728,
                        "time": 16.521716,
                        "velocity": 0.2440944881889764
                    },
                    {
                        "duration": 0.21399426562500068,
                        "durationTicks": 126,
                        "midi": 37,
                        "name": "C#2",
                        "ticks": 9984,
                        "time": 16.956498,
                        "velocity": 0.3228346456692913
                    },
                    {
                        "duration": 0.21399426562499713,
                        "durationTicks": 126,
                        "midi": 26,
                        "name": "D1",
                        "ticks": 10240,
                        "time": 17.391280000000002,
                        "velocity": 0.2204724409448819
                    },
                    {
                        "duration": 0.21399426562500068,
                        "durationTicks": 126,
                        "midi": 33,
                        "name": "A1",
                        "ticks": 10496,
                        "time": 17.826062,
                        "velocity": 0.2992125984251969
                    },
                    {
                        "duration": 0.21399426562500068,
                        "durationTicks": 126,
                        "midi": 30,
                        "name": "F#1",
                        "ticks": 10752,
                        "time": 18.260844,
                        "velocity": 0.2677165354330709
                    },
                    {
                        "duration": 0.21399426562500068,
                        "durationTicks": 126,
                        "midi": 37,
                        "name": "C#2",
                        "ticks": 11008,
                        "time": 18.695626,
                        "velocity": 0.31496062992125984
                    },
                    {
                        "duration": 0.21399426562500068,
                        "durationTicks": 126,
                        "midi": 30,
                        "name": "F#1",
                        "ticks": 11264,
                        "time": 19.130408,
                        "velocity": 0.2440944881889764
                    },
                    {
                        "duration": 0.21399426562499713,
                        "durationTicks": 126,
                        "midi": 37,
                        "name": "C#2",
                        "ticks": 11520,
                        "time": 19.56519,
                        "velocity": 0.31496062992125984
                    },
                    {
                        "duration": 0.21399426562500068,
                        "durationTicks": 126,
                        "midi": 30,
                        "name": "F#1",
                        "ticks": 11776,
                        "time": 19.999972,
                        "velocity": 0.2204724409448819
                    },
                    {
                        "duration": 0.21399426562499713,
                        "durationTicks": 126,
                        "midi": 37,
                        "name": "C#2",
                        "ticks": 12032,
                        "time": 20.434754,
                        "velocity": 0.2992125984251969
                    },
                    {
                        "duration": 0.21399426562500068,
                        "durationTicks": 126,
                        "midi": 26,
                        "name": "D1",
                        "ticks": 12288,
                        "time": 20.869536,
                        "velocity": 0.23622047244094488
                    },
                    {
                        "duration": 0.21399426562500068,
                        "durationTicks": 126,
                        "midi": 33,
                        "name": "A1",
                        "ticks": 12544,
                        "time": 21.304318,
                        "velocity": 0.2992125984251969
                    },
                    {
                        "duration": 0.21399426562500068,
                        "durationTicks": 126,
                        "midi": 30,
                        "name": "F#1",
                        "ticks": 12800,
                        "time": 21.7391,
                        "velocity": 0.25984251968503935
                    },
                    {
                        "duration": 0.21399426562500068,
                        "durationTicks": 126,
                        "midi": 37,
                        "name": "C#2",
                        "ticks": 13056,
                        "time": 22.173882,
                        "velocity": 0.30708661417322836
                    },
                    {
                        "duration": 0.21399426562500068,
                        "durationTicks": 126,
                        "midi": 30,
                        "name": "F#1",
                        "ticks": 13312,
                        "time": 22.608664,
                        "velocity": 0.25196850393700787
                    },
                    {
                        "duration": 0.21399426562500068,
                        "durationTicks": 126,
                        "midi": 37,
                        "name": "C#2",
                        "ticks": 13568,
                        "time": 23.043446,
                        "velocity": 0.3228346456692913
                    },
                    {
                        "duration": 0.21399426562499713,
                        "durationTicks": 126,
                        "midi": 30,
                        "name": "F#1",
                        "ticks": 13824,
                        "time": 23.478228,
                        "velocity": 0.2204724409448819
                    },
                    {
                        "duration": 0.21399426562500068,
                        "durationTicks": 126,
                        "midi": 37,
                        "name": "C#2",
                        "ticks": 14080,
                        "time": 23.91301,
                        "velocity": 0.3228346456692913
                    },
                    {
                        "duration": 0.21399426562500068,
                        "durationTicks": 126,
                        "midi": 26,
                        "name": "D1",
                        "ticks": 14336,
                        "time": 24.347792,
                        "velocity": 0.2125984251968504
                    },
                    {
                        "duration": 0.21399426562500068,
                        "durationTicks": 126,
                        "midi": 33,
                        "name": "A1",
                        "ticks": 14592,
                        "time": 24.782574,
                        "velocity": 0.3228346456692913
                    },
                    {
                        "duration": 0.21399426562500068,
                        "durationTicks": 126,
                        "midi": 30,
                        "name": "F#1",
                        "ticks": 14848,
                        "time": 25.217356,
                        "velocity": 0.2677165354330709
                    },
                    {
                        "duration": 0.21399426562500068,
                        "durationTicks": 126,
                        "midi": 37,
                        "name": "C#2",
                        "ticks": 15104,
                        "time": 25.652138,
                        "velocity": 0.33070866141732286
                    },
                    {
                        "duration": 0.21399426562500068,
                        "durationTicks": 126,
                        "midi": 30,
                        "name": "F#1",
                        "ticks": 15360,
                        "time": 26.08692,
                        "velocity": 0.25196850393700787
                    },
                    {
                        "duration": 0.21399426562499713,
                        "durationTicks": 126,
                        "midi": 37,
                        "name": "C#2",
                        "ticks": 15616,
                        "time": 26.521702,
                        "velocity": 0.33070866141732286
                    },
                    {
                        "duration": 0.21399426562500068,
                        "durationTicks": 126,
                        "midi": 30,
                        "name": "F#1",
                        "ticks": 15872,
                        "time": 26.956484,
                        "velocity": 0.2440944881889764
                    },
                    {
                        "duration": 0.21399426562499713,
                        "durationTicks": 126,
                        "midi": 37,
                        "name": "C#2",
                        "ticks": 16128,
                        "time": 27.391266,
                        "velocity": 0.30708661417322836
                    },
                    {
                        "duration": 0.21399426562500068,
                        "durationTicks": 126,
                        "midi": 26,
                        "name": "D1",
                        "ticks": 16384,
                        "time": 27.826048,
                        "velocity": 0.2283464566929134
                    },
                    {
                        "duration": 0.21399426562500068,
                        "durationTicks": 126,
                        "midi": 33,
                        "name": "A1",
                        "ticks": 16640,
                        "time": 28.26083,
                        "velocity": 0.3228346456692913
                    },
                    {
                        "duration": 0.21399426562500068,
                        "durationTicks": 126,
                        "midi": 30,
                        "name": "F#1",
                        "ticks": 16896,
                        "time": 28.695612,
                        "velocity": 0.25984251968503935
                    },
                    {
                        "duration": 0.21399426562500068,
                        "durationTicks": 126,
                        "midi": 37,
                        "name": "C#2",
                        "ticks": 17152,
                        "time": 29.130394,
                        "velocity": 0.33858267716535434
                    },
                    {
                        "duration": 0.20796644531250053,
                        "durationTicks": 126,
                        "midi": 23,
                        "name": "B0",
                        "ticks": 17408,
                        "time": 29.565176,
                        "velocity": 0.23622047244094488
                    },
                    {
                        "duration": 0.20796644531250053,
                        "durationTicks": 126,
                        "midi": 30,
                        "name": "F#1",
                        "ticks": 17664,
                        "time": 29.987711,
                        "velocity": 0.2992125984251969
                    },
                    {
                        "duration": 0.20796644531250053,
                        "durationTicks": 126,
                        "midi": 23,
                        "name": "B0",
                        "ticks": 17920,
                        "time": 30.410246,
                        "velocity": 0.23622047244094488
                    },
                    {
                        "duration": 0.20796644531250053,
                        "durationTicks": 126,
                        "midi": 30,
                        "name": "F#1",
                        "ticks": 18176,
                        "time": 30.832781,
                        "velocity": 0.3228346456692913
                    },
                    {
                        "duration": 0.20796644531250053,
                        "durationTicks": 126,
                        "midi": 23,
                        "name": "B0",
                        "ticks": 18432,
                        "time": 31.255316,
                        "velocity": 0.25984251968503935
                    },
                    {
                        "duration": 0.20796644531250053,
                        "durationTicks": 126,
                        "midi": 30,
                        "name": "F#1",
                        "ticks": 18688,
                        "time": 31.677851,
                        "velocity": 0.31496062992125984
                    },
                    {
                        "duration": 0.20796644531250053,
                        "durationTicks": 126,
                        "midi": 23,
                        "name": "B0",
                        "ticks": 18944,
                        "time": 32.100386,
                        "velocity": 0.23622047244094488
                    },
                    {
                        "duration": 0.20796644531250053,
                        "durationTicks": 126,
                        "midi": 30,
                        "name": "F#1",
                        "ticks": 19200,
                        "time": 32.522921000000004,
                        "velocity": 0.2992125984251969
                    },
                    {
                        "duration": 0.20796644531250053,
                        "durationTicks": 126,
                        "midi": 23,
                        "name": "B0",
                        "ticks": 19456,
                        "time": 32.945456,
                        "velocity": 0.25984251968503935
                    },
                    {
                        "duration": 0.20796644531250053,
                        "durationTicks": 126,
                        "midi": 30,
                        "name": "F#1",
                        "ticks": 19712,
                        "time": 33.367991,
                        "velocity": 0.33070866141732286
                    },
                    {
                        "duration": 0.20796644531250053,
                        "durationTicks": 126,
                        "midi": 23,
                        "name": "B0",
                        "ticks": 19968,
                        "time": 33.790526,
                        "velocity": 0.2283464566929134
                    },
                    {
                        "duration": 0.20796644531250053,
                        "durationTicks": 126,
                        "midi": 30,
                        "name": "F#1",
                        "ticks": 20224,
                        "time": 34.213061,
                        "velocity": 0.2992125984251969
                    },
                    {
                        "duration": 0.20796644531250053,
                        "durationTicks": 126,
                        "midi": 26,
                        "name": "D1",
                        "ticks": 20480,
                        "time": 34.635596,
                        "velocity": 0.25196850393700787
                    },
                    {
                        "duration": 0.20796644531250053,
                        "durationTicks": 126,
                        "midi": 33,
                        "name": "A1",
                        "ticks": 20736,
                        "time": 35.058131,
                        "velocity": 0.3228346456692913
                    },
                    {
                        "duration": 0.20796644531250053,
                        "durationTicks": 126,
                        "midi": 26,
                        "name": "D1",
                        "ticks": 20992,
                        "time": 35.480666,
                        "velocity": 0.2204724409448819
                    },
                    {
                        "duration": 0.20796644531250053,
                        "durationTicks": 126,
                        "midi": 33,
                        "name": "A1",
                        "ticks": 21248,
                        "time": 35.903201,
                        "velocity": 0.3228346456692913
                    },
                    {
                        "duration": 0.20796644531250053,
                        "durationTicks": 126,
                        "midi": 23,
                        "name": "B0",
                        "ticks": 21504,
                        "time": 36.325736,
                        "velocity": 0.25196850393700787
                    },
                    {
                        "duration": 0.20796644531250053,
                        "durationTicks": 126,
                        "midi": 30,
                        "name": "F#1",
                        "ticks": 21760,
                        "time": 36.748271,
                        "velocity": 0.3228346456692913
                    },
                    {
                        "duration": 0.20796644531250053,
                        "durationTicks": 126,
                        "midi": 23,
                        "name": "B0",
                        "ticks": 22016,
                        "time": 37.170806,
                        "velocity": 0.2204724409448819
                    },
                    {
                        "duration": 0.20796644531250053,
                        "durationTicks": 126,
                        "midi": 30,
                        "name": "F#1",
                        "ticks": 22272,
                        "time": 37.593341,
                        "velocity": 0.2992125984251969
                    },
                    {
                        "duration": 0.20796644531249342,
                        "durationTicks": 126,
                        "midi": 23,
                        "name": "B0",
                        "ticks": 22528,
                        "time": 38.015876000000006,
                        "velocity": 0.25984251968503935
                    },
                    {
                        "duration": 0.20796644531250053,
                        "durationTicks": 126,
                        "midi": 30,
                        "name": "F#1",
                        "ticks": 22784,
                        "time": 38.438411,
                        "velocity": 0.33070866141732286
                    },
                    {
                        "duration": 0.20796644531250763,
                        "durationTicks": 126,
                        "midi": 23,
                        "name": "B0",
                        "ticks": 23040,
                        "time": 38.860946,
                        "velocity": 0.2125984251968504
                    },
                    {
                        "duration": 0.20796644531250053,
                        "durationTicks": 126,
                        "midi": 30,
                        "name": "F#1",
                        "ticks": 23296,
                        "time": 39.283481,
                        "velocity": 0.33070866141732286
                    },
                    {
                        "duration": 0.20796644531249342,
                        "durationTicks": 126,
                        "midi": 23,
                        "name": "B0",
                        "ticks": 23552,
                        "time": 39.706016000000005,
                        "velocity": 0.23622047244094488
                    },
                    {
                        "duration": 0.20796644531250053,
                        "durationTicks": 126,
                        "midi": 35,
                        "name": "B1",
                        "ticks": 23808,
                        "time": 40.128551,
                        "velocity": 0.33858267716535434
                    },
                    {
                        "duration": 0.20796644531250763,
                        "durationTicks": 126,
                        "midi": 33,
                        "name": "A1",
                        "ticks": 24064,
                        "time": 40.551086,
                        "velocity": 0.25196850393700787
                    },
                    {
                        "duration": 0.20796644531250053,
                        "durationTicks": 126,
                        "midi": 31,
                        "name": "G1",
                        "ticks": 24320,
                        "time": 40.973621,
                        "velocity": 0.23622047244094488
                    },
                    {
                        "duration": 0.20796644531249342,
                        "durationTicks": 126,
                        "midi": 30,
                        "name": "F#1",
                        "ticks": 24576,
                        "time": 41.396156000000005,
                        "velocity": 0.29133858267716534
                    },
                    {
                        "duration": 0.20796644531250053,
                        "durationTicks": 126,
                        "midi": 28,
                        "name": "E1",
                        "ticks": 24832,
                        "time": 41.818691,
                        "velocity": 0.25196850393700787
                    },
                    {
                        "duration": 0.20796644531250053,
                        "durationTicks": 126,
                        "midi": 26,
                        "name": "D1",
                        "ticks": 25088,
                        "time": 42.241226000000005,
                        "velocity": 0.25984251968503935
                    },
                    {
                        "duration": 0.20796644531250053,
                        "durationTicks": 126,
                        "midi": 25,
                        "name": "C#1",
                        "ticks": 25344,
                        "time": 42.663761,
                        "velocity": 0.2677165354330709
                    },
                    {
                        "duration": 0.20796644531250053,
                        "durationTicks": 126,
                        "midi": 23,
                        "name": "B0",
                        "ticks": 25600,
                        "time": 43.086296000000004,
                        "velocity": 0.3779527559055118
                    },
                    {
                        "duration": 0.09573058593750261,
                        "durationTicks": 58,
                        "midi": 42,
                        "name": "F#2",
                        "ticks": 25856,
                        "time": 43.508831,
                        "velocity": 0.49606299212598426
                    },
                    {
                        "duration": 0.09573058593750261,
                        "durationTicks": 58,
                        "midi": 50,
                        "name": "D3",
                        "ticks": 25856,
                        "time": 43.508831,
                        "velocity": 0.5039370078740157
                    },
                    {
                        "duration": 0.0957305859374955,
                        "durationTicks": 58,
                        "midi": 41,
                        "name": "F2",
                        "ticks": 25920,
                        "time": 43.61446475,
                        "velocity": 0.2992125984251969
                    },
                    {
                        "duration": 0.10398322265624671,
                        "durationTicks": 63,
                        "midi": 42,
                        "name": "F#2",
                        "ticks": 25984,
                        "time": 43.720098500000006,
                        "velocity": 0.3700787401574803
                    },
                    {
                        "duration": 0.20796644531250053,
                        "durationTicks": 126,
                        "midi": 35,
                        "name": "B1",
                        "ticks": 26112,
                        "time": 43.931366000000004,
                        "velocity": 0.31496062992125984
                    },
                    {
                        "duration": 0.09573058593750261,
                        "durationTicks": 58,
                        "midi": 42,
                        "name": "F#2",
                        "ticks": 26368,
                        "time": 44.353901,
                        "velocity": 0.48031496062992124
                    },
                    {
                        "duration": 0.09573058593750261,
                        "durationTicks": 58,
                        "midi": 50,
                        "name": "D3",
                        "ticks": 26368,
                        "time": 44.353901,
                        "velocity": 0.48031496062992124
                    },
                    {
                        "duration": 0.09573058593750261,
                        "durationTicks": 58,
                        "midi": 41,
                        "name": "F2",
                        "ticks": 26432,
                        "time": 44.45953475,
                        "velocity": 0.2992125984251969
                    },
                    {
                        "duration": 0.10398322265625382,
                        "durationTicks": 63,
                        "midi": 42,
                        "name": "F#2",
                        "ticks": 26496,
                        "time": 44.5651685,
                        "velocity": 0.36220472440944884
                    },
                    {
                        "duration": 0.20796644531250053,
                        "durationTicks": 126,
                        "midi": 35,
                        "name": "B1",
                        "ticks": 26624,
                        "time": 44.776436000000004,
                        "velocity": 0.3228346456692913
                    },
                    {
                        "duration": 0.09573058593750261,
                        "durationTicks": 58,
                        "midi": 42,
                        "name": "F#2",
                        "ticks": 26880,
                        "time": 45.198971,
                        "velocity": 0.4881889763779528
                    },
                    {
                        "duration": 0.09573058593750261,
                        "durationTicks": 58,
                        "midi": 49,
                        "name": "C#3",
                        "ticks": 26880,
                        "time": 45.198971,
                        "velocity": 0.5039370078740157
                    },
                    {
                        "duration": 0.09573058593750261,
                        "durationTicks": 58,
                        "midi": 41,
                        "name": "F2",
                        "ticks": 26944,
                        "time": 45.30460475,
                        "velocity": 0.31496062992125984
                    },
                    {
                        "duration": 0.10398322265624671,
                        "durationTicks": 63,
                        "midi": 42,
                        "name": "F#2",
                        "ticks": 27008,
                        "time": 45.410238500000006,
                        "velocity": 0.3858267716535433
                    },
                    {
                        "duration": 0.20796644531250053,
                        "durationTicks": 126,
                        "midi": 35,
                        "name": "B1",
                        "ticks": 27136,
                        "time": 45.621506000000004,
                        "velocity": 0.3228346456692913
                    },
                    {
                        "duration": 0.0957305859374955,
                        "durationTicks": 58,
                        "midi": 42,
                        "name": "F#2",
                        "ticks": 27392,
                        "time": 46.04404100000001,
                        "velocity": 0.47244094488188976
                    },
                    {
                        "duration": 0.0957305859374955,
                        "durationTicks": 58,
                        "midi": 48,
                        "name": "C3",
                        "ticks": 27392,
                        "time": 46.04404100000001,
                        "velocity": 0.49606299212598426
                    },
                    {
                        "duration": 0.09573058593750261,
                        "durationTicks": 58,
                        "midi": 41,
                        "name": "F2",
                        "ticks": 27456,
                        "time": 46.14967475,
                        "velocity": 0.30708661417322836
                    },
                    {
                        "duration": 0.10398322265625382,
                        "durationTicks": 63,
                        "midi": 42,
                        "name": "F#2",
                        "ticks": 27520,
                        "time": 46.2553085,
                        "velocity": 0.3700787401574803
                    },
                    {
                        "duration": 0.20796644531250053,
                        "durationTicks": 126,
                        "midi": 35,
                        "name": "B1",
                        "ticks": 27648,
                        "time": 46.466576,
                        "velocity": 0.3228346456692913
                    },
                    {
                        "duration": 0.09573058593750261,
                        "durationTicks": 58,
                        "midi": 42,
                        "name": "F#2",
                        "ticks": 27904,
                        "time": 46.889111,
                        "velocity": 0.48031496062992124
                    },
                    {
                        "duration": 0.09573058593750261,
                        "durationTicks": 58,
                        "midi": 50,
                        "name": "D3",
                        "ticks": 27904,
                        "time": 46.889111,
                        "velocity": 0.48031496062992124
                    },
                    {
                        "duration": 0.0957305859374955,
                        "durationTicks": 58,
                        "midi": 41,
                        "name": "F2",
                        "ticks": 27968,
                        "time": 46.99474475,
                        "velocity": 0.30708661417322836
                    },
                    {
                        "duration": 0.10398322265624671,
                        "durationTicks": 63,
                        "midi": 42,
                        "name": "F#2",
                        "ticks": 28032,
                        "time": 47.100378500000005,
                        "velocity": 0.3937007874015748
                    },
                    {
                        "duration": 0.20796644531250053,
                        "durationTicks": 126,
                        "midi": 35,
                        "name": "B1",
                        "ticks": 28160,
                        "time": 47.311646,
                        "velocity": 0.30708661417322836
                    },
                    {
                        "duration": 0.0957305859374955,
                        "durationTicks": 58,
                        "midi": 42,
                        "name": "F#2",
                        "ticks": 28416,
                        "time": 47.73418100000001,
                        "velocity": 0.4881889763779528
                    },
                    {
                        "duration": 0.0957305859374955,
                        "durationTicks": 58,
                        "midi": 50,
                        "name": "D3",
                        "ticks": 28416,
                        "time": 47.73418100000001,
                        "velocity": 0.49606299212598426
                    },
                    {
                        "duration": 0.09573058593750261,
                        "durationTicks": 58,
                        "midi": 41,
                        "name": "F2",
                        "ticks": 28480,
                        "time": 47.83981475,
                        "velocity": 0.31496062992125984
                    },
                    {
                        "duration": 0.10398322265624671,
                        "durationTicks": 63,
                        "midi": 42,
                        "name": "F#2",
                        "ticks": 28544,
                        "time": 47.945448500000005,
                        "velocity": 0.3779527559055118
                    },
                    {
                        "duration": 0.20796644531250053,
                        "durationTicks": 126,
                        "midi": 38,
                        "name": "D2",
                        "ticks": 28672,
                        "time": 48.156716,
                        "velocity": 0.36220472440944884
                    },
                    {
                        "duration": 0.09573058593750261,
                        "durationTicks": 58,
                        "midi": 45,
                        "name": "A2",
                        "ticks": 28928,
                        "time": 48.579251,
                        "velocity": 0.4881889763779528
                    },
                    {
                        "duration": 0.09573058593750261,
                        "durationTicks": 58,
                        "midi": 54,
                        "name": "F#3",
                        "ticks": 28928,
                        "time": 48.579251,
                        "velocity": 0.5039370078740157
                    },
                    {
                        "duration": 0.09573058593750261,
                        "durationTicks": 58,
                        "midi": 44,
                        "name": "G#2",
                        "ticks": 28992,
                        "time": 48.68488475,
                        "velocity": 0.30708661417322836
                    },
                    {
                        "duration": 0.10398322265625382,
                        "durationTicks": 63,
                        "midi": 45,
                        "name": "A2",
                        "ticks": 29056,
                        "time": 48.790518500000005,
                        "velocity": 0.3937007874015748
                    },
                    {
                        "duration": 0.20796644531250053,
                        "durationTicks": 126,
                        "midi": 38,
                        "name": "D2",
                        "ticks": 29184,
                        "time": 49.001786,
                        "velocity": 0.3228346456692913
                    },
                    {
                        "duration": 0.0957305859374955,
                        "durationTicks": 58,
                        "midi": 45,
                        "name": "A2",
                        "ticks": 29440,
                        "time": 49.424321000000006,
                        "velocity": 0.49606299212598426
                    },
                    {
                        "duration": 0.0957305859374955,
                        "durationTicks": 58,
                        "midi": 54,
                        "name": "F#3",
                        "ticks": 29440,
                        "time": 49.424321000000006,
                        "velocity": 0.5039370078740157
                    },
                    {
                        "duration": 0.09573058593750261,
                        "durationTicks": 58,
                        "midi": 44,
                        "name": "G#2",
                        "ticks": 29504,
                        "time": 49.52995475,
                        "velocity": 0.2992125984251969
                    },
                    {
                        "duration": 0.10398322265624671,
                        "durationTicks": 63,
                        "midi": 45,
                        "name": "A2",
                        "ticks": 29568,
                        "time": 49.635588500000004,
                        "velocity": 0.3858267716535433
                    },
                    {
                        "duration": 0.20796644531250053,
                        "durationTicks": 126,
                        "midi": 35,
                        "name": "B1",
                        "ticks": 29696,
                        "time": 49.846856,
                        "velocity": 0.30708661417322836
                    },
                    {
                        "duration": 0.09573058593750261,
                        "durationTicks": 58,
                        "midi": 42,
                        "name": "F#2",
                        "ticks": 29952,
                        "time": 50.269391,
                        "velocity": 0.49606299212598426
                    },
                    {
                        "duration": 0.09573058593750261,
                        "durationTicks": 58,
                        "midi": 50,
                        "name": "D3",
                        "ticks": 29952,
                        "time": 50.269391,
                        "velocity": 0.49606299212598426
                    },
                    {
                        "duration": 0.0957305859374955,
                        "durationTicks": 58,
                        "midi": 41,
                        "name": "F2",
                        "ticks": 30016,
                        "time": 50.37502475000001,
                        "velocity": 0.30708661417322836
                    },
                    {
                        "duration": 0.10398322265625382,
                        "durationTicks": 63,
                        "midi": 42,
                        "name": "F#2",
                        "ticks": 30080,
                        "time": 50.480658500000004,
                        "velocity": 0.36220472440944884
                    },
                    {
                        "duration": 0.20796644531250053,
                        "durationTicks": 126,
                        "midi": 35,
                        "name": "B1",
                        "ticks": 30208,
                        "time": 50.691926,
                        "velocity": 0.30708661417322836
                    },
                    {
                        "duration": 0.09573058593750261,
                        "durationTicks": 58,
                        "midi": 42,
                        "name": "F#2",
                        "ticks": 30464,
                        "time": 51.114461000000006,
                        "velocity": 0.4881889763779528
                    },
                    {
                        "duration": 0.09573058593750261,
                        "durationTicks": 58,
                        "midi": 50,
                        "name": "D3",
                        "ticks": 30464,
                        "time": 51.114461000000006,
                        "velocity": 0.47244094488188976
                    },
                    {
                        "duration": 0.09573058593750261,
                        "durationTicks": 58,
                        "midi": 41,
                        "name": "F2",
                        "ticks": 30528,
                        "time": 51.22009475,
                        "velocity": 0.30708661417322836
                    },
                    {
                        "duration": 0.10398322265624671,
                        "durationTicks": 63,
                        "midi": 42,
                        "name": "F#2",
                        "ticks": 30592,
                        "time": 51.325728500000004,
                        "velocity": 0.3858267716535433
                    },
                    {
                        "duration": 0.20796644531250053,
                        "durationTicks": 126,
                        "midi": 35,
                        "name": "B1",
                        "ticks": 30720,
                        "time": 51.536996,
                        "velocity": 0.33070866141732286
                    },
                    {
                        "duration": 0.09573058593750261,
                        "durationTicks": 58,
                        "midi": 42,
                        "name": "F#2",
                        "ticks": 30976,
                        "time": 51.959531,
                        "velocity": 0.48031496062992124
                    },
                    {
                        "duration": 0.09573058593750261,
                        "durationTicks": 58,
                        "midi": 49,
                        "name": "C#3",
                        "ticks": 30976,
                        "time": 51.959531,
                        "velocity": 0.49606299212598426
                    },
                    {
                        "duration": 0.0957305859374955,
                        "durationTicks": 58,
                        "midi": 41,
                        "name": "F2",
                        "ticks": 31040,
                        "time": 52.06516475000001,
                        "velocity": 0.3228346456692913
                    },
                    {
                        "duration": 0.10398322265625382,
                        "durationTicks": 63,
                        "midi": 42,
                        "name": "F#2",
                        "ticks": 31104,
                        "time": 52.170798500000004,
                        "velocity": 0.3858267716535433
                    },
                    {
                        "duration": 0.20796644531249342,
                        "durationTicks": 126,
                        "midi": 35,
                        "name": "B1",
                        "ticks": 31232,
                        "time": 52.38206600000001,
                        "velocity": 0.31496062992125984
                    },
                    {
                        "duration": 0.09573058593750261,
                        "durationTicks": 58,
                        "midi": 42,
                        "name": "F#2",
                        "ticks": 31488,
                        "time": 52.804601000000005,
                        "velocity": 0.4881889763779528
                    },
                    {
                        "duration": 0.09573058593750261,
                        "durationTicks": 58,
                        "midi": 48,
                        "name": "C3",
                        "ticks": 31488,
                        "time": 52.804601000000005,
                        "velocity": 0.4881889763779528
                    },
                    {
                        "duration": 0.09573058593750261,
                        "durationTicks": 58,
                        "midi": 41,
                        "name": "F2",
                        "ticks": 31552,
                        "time": 52.91023475,
                        "velocity": 0.3228346456692913
                    },
                    {
                        "duration": 0.10398322265624671,
                        "durationTicks": 63,
                        "midi": 42,
                        "name": "F#2",
                        "ticks": 31616,
                        "time": 53.0158685,
                        "velocity": 0.3937007874015748
                    },
                    {
                        "duration": 0.20796644531250053,
                        "durationTicks": 126,
                        "midi": 35,
                        "name": "B1",
                        "ticks": 31744,
                        "time": 53.227136,
                        "velocity": 0.33070866141732286
                    },
                    {
                        "duration": 0.0957305859374955,
                        "durationTicks": 58,
                        "midi": 42,
                        "name": "F#2",
                        "ticks": 32000,
                        "time": 53.649671000000005,
                        "velocity": 0.48031496062992124
                    },
                    {
                        "duration": 0.0957305859374955,
                        "durationTicks": 58,
                        "midi": 50,
                        "name": "D3",
                        "ticks": 32000,
                        "time": 53.649671000000005,
                        "velocity": 0.5039370078740157
                    },
                    {
                        "duration": 0.0957305859374955,
                        "durationTicks": 58,
                        "midi": 41,
                        "name": "F2",
                        "ticks": 32064,
                        "time": 53.75530475000001,
                        "velocity": 0.2992125984251969
                    },
                    {
                        "duration": 0.10398322265625382,
                        "durationTicks": 63,
                        "midi": 42,
                        "name": "F#2",
                        "ticks": 32128,
                        "time": 53.8609385,
                        "velocity": 0.3779527559055118
                    },
                    {
                        "duration": 0.20796644531249342,
                        "durationTicks": 126,
                        "midi": 35,
                        "name": "B1",
                        "ticks": 32256,
                        "time": 54.07220600000001,
                        "velocity": 0.31496062992125984
                    },
                    {
                        "duration": 0.09573058593750261,
                        "durationTicks": 58,
                        "midi": 42,
                        "name": "F#2",
                        "ticks": 32512,
                        "time": 54.494741000000005,
                        "velocity": 0.48031496062992124
                    },
                    {
                        "duration": 0.09573058593750261,
                        "durationTicks": 58,
                        "midi": 50,
                        "name": "D3",
                        "ticks": 32512,
                        "time": 54.494741000000005,
                        "velocity": 0.48031496062992124
                    },
                    {
                        "duration": 0.09573058593750261,
                        "durationTicks": 58,
                        "midi": 41,
                        "name": "F2",
                        "ticks": 32576,
                        "time": 54.60037475,
                        "velocity": 0.2992125984251969
                    },
                    {
                        "duration": 0.10398322265624671,
                        "durationTicks": 63,
                        "midi": 42,
                        "name": "F#2",
                        "ticks": 32640,
                        "time": 54.7060085,
                        "velocity": 0.3700787401574803
                    },
                    {
                        "duration": 0.20796644531250763,
                        "durationTicks": 126,
                        "midi": 38,
                        "name": "D2",
                        "ticks": 32768,
                        "time": 54.917276,
                        "velocity": 0.36220472440944884
                    },
                    {
                        "duration": 0.0957305859374955,
                        "durationTicks": 58,
                        "midi": 45,
                        "name": "A2",
                        "ticks": 33024,
                        "time": 55.339811000000005,
                        "velocity": 0.49606299212598426
                    },
                    {
                        "duration": 0.0957305859374955,
                        "durationTicks": 58,
                        "midi": 54,
                        "name": "F#3",
                        "ticks": 33024,
                        "time": 55.339811000000005,
                        "velocity": 0.5039370078740157
                    },
                    {
                        "duration": 0.0957305859374955,
                        "durationTicks": 58,
                        "midi": 44,
                        "name": "G#2",
                        "ticks": 33088,
                        "time": 55.44544475000001,
                        "velocity": 0.29133858267716534
                    },
                    {
                        "duration": 0.10398322265625382,
                        "durationTicks": 63,
                        "midi": 45,
                        "name": "A2",
                        "ticks": 33152,
                        "time": 55.5510785,
                        "velocity": 0.3937007874015748
                    },
                    {
                        "duration": 0.20796644531249342,
                        "durationTicks": 126,
                        "midi": 38,
                        "name": "D2",
                        "ticks": 33280,
                        "time": 55.76234600000001,
                        "velocity": 0.29133858267716534
                    },
                    {
                        "duration": 0.09573058593750261,
                        "durationTicks": 58,
                        "midi": 45,
                        "name": "A2",
                        "ticks": 33536,
                        "time": 56.184881000000004,
                        "velocity": 0.48031496062992124
                    },
                    {
                        "duration": 0.09573058593750261,
                        "durationTicks": 58,
                        "midi": 54,
                        "name": "F#3",
                        "ticks": 33536,
                        "time": 56.184881000000004,
                        "velocity": 0.4881889763779528
                    },
                    {
                        "duration": 0.09573058593750261,
                        "durationTicks": 58,
                        "midi": 44,
                        "name": "G#2",
                        "ticks": 33600,
                        "time": 56.29051475,
                        "velocity": 0.2992125984251969
                    },
                    {
                        "duration": 0.10398322265624671,
                        "durationTicks": 63,
                        "midi": 45,
                        "name": "A2",
                        "ticks": 33664,
                        "time": 56.3961485,
                        "velocity": 0.3779527559055118
                    },
                    {
                        "duration": 0.20796644531250763,
                        "durationTicks": 126,
                        "midi": 42,
                        "name": "F#2",
                        "ticks": 33792,
                        "time": 56.607416,
                        "velocity": 0.36220472440944884
                    },
                    {
                        "duration": 0.0957305859374955,
                        "durationTicks": 58,
                        "midi": 49,
                        "name": "C#3",
                        "ticks": 34048,
                        "time": 57.029951000000004,
                        "velocity": 0.49606299212598426
                    },
                    {
                        "duration": 0.0957305859374955,
                        "durationTicks": 58,
                        "midi": 58,
                        "name": "A#3",
                        "ticks": 34048,
                        "time": 57.029951000000004,
                        "velocity": 0.4881889763779528
                    },
                    {
                        "duration": 0.09573058593750261,
                        "durationTicks": 58,
                        "midi": 48,
                        "name": "C3",
                        "ticks": 34112,
                        "time": 57.13558475000001,
                        "velocity": 0.31496062992125984
                    },
                    {
                        "duration": 0.10398322265625382,
                        "durationTicks": 63,
                        "midi": 49,
                        "name": "C#3",
                        "ticks": 34176,
                        "time": 57.2412185,
                        "velocity": 0.3779527559055118
                    },
                    {
                        "duration": 0.20796644531249342,
                        "durationTicks": 126,
                        "midi": 42,
                        "name": "F#2",
                        "ticks": 34304,
                        "time": 57.45248600000001,
                        "velocity": 0.3228346456692913
                    },
                    {
                        "duration": 0.09573058593750261,
                        "durationTicks": 58,
                        "midi": 49,
                        "name": "C#3",
                        "ticks": 34560,
                        "time": 57.875021000000004,
                        "velocity": 0.5275590551181102
                    },
                    {
                        "duration": 0.09573058593750261,
                        "durationTicks": 58,
                        "midi": 58,
                        "name": "A#3",
                        "ticks": 34560,
                        "time": 57.875021000000004,
                        "velocity": 0.5039370078740157
                    },
                    {
                        "duration": 0.09573058593750261,
                        "durationTicks": 58,
                        "midi": 48,
                        "name": "C3",
                        "ticks": 34624,
                        "time": 57.98065475,
                        "velocity": 0.30708661417322836
                    },
                    {
                        "duration": 0.10398322265624671,
                        "durationTicks": 63,
                        "midi": 49,
                        "name": "C#3",
                        "ticks": 34688,
                        "time": 58.08628850000001,
                        "velocity": 0.3937007874015748
                    },
                    {
                        "duration": 0.20796644531250763,
                        "durationTicks": 126,
                        "midi": 38,
                        "name": "D2",
                        "ticks": 34816,
                        "time": 58.297556,
                        "velocity": 0.2992125984251969
                    },
                    {
                        "duration": 0.09573058593750261,
                        "durationTicks": 58,
                        "midi": 50,
                        "name": "D3",
                        "ticks": 35072,
                        "time": 58.720091000000004,
                        "velocity": 0.5118110236220472
                    },
                    {
                        "duration": 0.09573058593750261,
                        "durationTicks": 58,
                        "midi": 58,
                        "name": "A#3",
                        "ticks": 35072,
                        "time": 58.720091000000004,
                        "velocity": 0.5275590551181102
                    },
                    {
                        "duration": 0.09573058593750261,
                        "durationTicks": 58,
                        "midi": 49,
                        "name": "C#3",
                        "ticks": 35136,
                        "time": 58.825724750000006,
                        "velocity": 0.33858267716535434
                    },
                    {
                        "duration": 0.10398322265625382,
                        "durationTicks": 63,
                        "midi": 50,
                        "name": "D3",
                        "ticks": 35200,
                        "time": 58.9313585,
                        "velocity": 0.4251968503937008
                    },
                    {
                        "duration": 0.20796644531249342,
                        "durationTicks": 126,
                        "midi": 42,
                        "name": "F#2",
                        "ticks": 35328,
                        "time": 59.14262600000001,
                        "velocity": 0.33858267716535434
                    },
                    {
                        "duration": 0.09573058593750261,
                        "durationTicks": 58,
                        "midi": 49,
                        "name": "C#3",
                        "ticks": 35584,
                        "time": 59.565161,
                        "velocity": 0.5590551181102362
                    },
                    {
                        "duration": 0.09573058593750261,
                        "durationTicks": 58,
                        "midi": 58,
                        "name": "A#3",
                        "ticks": 35584,
                        "time": 59.565161,
                        "velocity": 0.5669291338582677
                    },
                    {
                        "duration": 0.0957305859374955,
                        "durationTicks": 58,
                        "midi": 48,
                        "name": "C3",
                        "ticks": 35648,
                        "time": 59.670794750000006,
                        "velocity": 0.33858267716535434
                    },
                    {
                        "duration": 0.10398322265624671,
                        "durationTicks": 63,
                        "midi": 49,
                        "name": "C#3",
                        "ticks": 35712,
                        "time": 59.77642850000001,
                        "velocity": 0.4251968503937008
                    },
                    {
                        "duration": 0.20796644531250763,
                        "durationTicks": 126,
                        "midi": 42,
                        "name": "F#2",
                        "ticks": 35840,
                        "time": 59.987696,
                        "velocity": 0.3937007874015748
                    },
                    {
                        "duration": 0.09573058593750261,
                        "durationTicks": 58,
                        "midi": 49,
                        "name": "C#3",
                        "ticks": 36096,
                        "time": 60.410231,
                        "velocity": 0.5511811023622047
                    },
                    {
                        "duration": 0.09573058593750261,
                        "durationTicks": 58,
                        "midi": 58,
                        "name": "A#3",
                        "ticks": 36096,
                        "time": 60.410231,
                        "velocity": 0.5748031496062992
                    },
                    {
                        "duration": 0.09573058593750261,
                        "durationTicks": 58,
                        "midi": 48,
                        "name": "C3",
                        "ticks": 36160,
                        "time": 60.515864750000006,
                        "velocity": 0.3464566929133858
                    },
                    {
                        "duration": 0.10398322265625382,
                        "durationTicks": 63,
                        "midi": 49,
                        "name": "C#3",
                        "ticks": 36224,
                        "time": 60.6214985,
                        "velocity": 0.4566929133858268
                    },
                    {
                        "duration": 0.20796644531249342,
                        "durationTicks": 126,
                        "midi": 42,
                        "name": "F#2",
                        "ticks": 36352,
                        "time": 60.83276600000001,
                        "velocity": 0.3464566929133858
                    },
                    {
                        "duration": 0.09573058593750261,
                        "durationTicks": 58,
                        "midi": 49,
                        "name": "C#3",
                        "ticks": 36608,
                        "time": 61.255301,
                        "velocity": 0.6062992125984252
                    },
                    {
                        "duration": 0.09573058593750261,
                        "durationTicks": 58,
                        "midi": 58,
                        "name": "A#3",
                        "ticks": 36608,
                        "time": 61.255301,
                        "velocity": 0.5905511811023622
                    },
                    {
                        "duration": 0.0957305859374955,
                        "durationTicks": 58,
                        "midi": 48,
                        "name": "C3",
                        "ticks": 36672,
                        "time": 61.360934750000006,
                        "velocity": 0.36220472440944884
                    },
                    {
                        "duration": 0.10398322265624671,
                        "durationTicks": 63,
                        "midi": 49,
                        "name": "C#3",
                        "ticks": 36736,
                        "time": 61.46656850000001,
                        "velocity": 0.44881889763779526
                    },
                    {
                        "duration": 0.20796644531250053,
                        "durationTicks": 126,
                        "midi": 38,
                        "name": "D2",
                        "ticks": 36864,
                        "time": 61.677836000000006,
                        "velocity": 0.36220472440944884
                    },
                    {
                        "duration": 0.09573058593750261,
                        "durationTicks": 58,
                        "midi": 50,
                        "name": "D3",
                        "ticks": 37120,
                        "time": 62.100371,
                        "velocity": 0.5905511811023622
                    },
                    {
                        "duration": 0.09573058593750261,
                        "durationTicks": 58,
                        "midi": 58,
                        "name": "A#3",
                        "ticks": 37120,
                        "time": 62.100371,
                        "velocity": 0.5905511811023622
                    },
                    {
                        "duration": 0.09573058593750261,
                        "durationTicks": 58,
                        "midi": 49,
                        "name": "C#3",
                        "ticks": 37184,
                        "time": 62.206004750000005,
                        "velocity": 0.3700787401574803
                    },
                    {
                        "duration": 0.10398322265624671,
                        "durationTicks": 63,
                        "midi": 50,
                        "name": "D3",
                        "ticks": 37248,
                        "time": 62.31163850000001,
                        "velocity": 0.47244094488188976
                    },
                    {
                        "duration": 0.20796644531250053,
                        "durationTicks": 126,
                        "midi": 42,
                        "name": "F#2",
                        "ticks": 37376,
                        "time": 62.522906000000006,
                        "velocity": 0.3858267716535433
                    },
                    {
                        "duration": 0.09573058593750261,
                        "durationTicks": 58,
                        "midi": 49,
                        "name": "C#3",
                        "ticks": 37632,
                        "time": 62.945441,
                        "velocity": 0.6062992125984252
                    },
                    {
                        "duration": 0.09573058593750261,
                        "durationTicks": 58,
                        "midi": 58,
                        "name": "A#3",
                        "ticks": 37632,
                        "time": 62.945441,
                        "velocity": 0.6220472440944882
                    },
                    {
                        "duration": 0.09573058593750261,
                        "durationTicks": 58,
                        "midi": 48,
                        "name": "C3",
                        "ticks": 37696,
                        "time": 63.051074750000005,
                        "velocity": 0.3700787401574803
                    },
                    {
                        "duration": 0.10398322265624671,
                        "durationTicks": 63,
                        "midi": 49,
                        "name": "C#3",
                        "ticks": 37760,
                        "time": 63.15670850000001,
                        "velocity": 0.4881889763779528
                    },
                    {
                        "duration": 0.20796644531250053,
                        "durationTicks": 126,
                        "midi": 42,
                        "name": "F#2",
                        "ticks": 37888,
                        "time": 63.367976000000006,
                        "velocity": 0.4094488188976378
                    },
                    {
                        "duration": 0.09573058593750261,
                        "durationTicks": 58,
                        "midi": 49,
                        "name": "C#3",
                        "ticks": 38144,
                        "time": 63.790511,
                        "velocity": 0.6299212598425197
                    },
                    {
                        "duration": 0.09573058593750261,
                        "durationTicks": 58,
                        "midi": 58,
                        "name": "A#3",
                        "ticks": 38144,
                        "time": 63.790511,
                        "velocity": 0.6456692913385826
                    },
                    {
                        "duration": 0.09573058593750261,
                        "durationTicks": 58,
                        "midi": 48,
                        "name": "C3",
                        "ticks": 38208,
                        "time": 63.896144750000005,
                        "velocity": 0.4094488188976378
                    },
                    {
                        "duration": 0.10398322265625382,
                        "durationTicks": 63,
                        "midi": 49,
                        "name": "C#3",
                        "ticks": 38272,
                        "time": 64.0017785,
                        "velocity": 0.49606299212598426
                    },
                    {
                        "duration": 0.20796644531249342,
                        "durationTicks": 126,
                        "midi": 42,
                        "name": "F#2",
                        "ticks": 38400,
                        "time": 64.213046,
                        "velocity": 0.4251968503937008
                    },
                    {
                        "duration": 0.09573058593750261,
                        "durationTicks": 58,
                        "midi": 49,
                        "name": "C#3",
                        "ticks": 38656,
                        "time": 64.635581,
                        "velocity": 0.6614173228346457
                    },
                    {
                        "duration": 0.09573058593750261,
                        "durationTicks": 58,
                        "midi": 58,
                        "name": "A#3",
                        "ticks": 38656,
                        "time": 64.635581,
                        "velocity": 0.6456692913385826
                    },
                    {
                        "duration": 0.09573058593750261,
                        "durationTicks": 58,
                        "midi": 48,
                        "name": "C3",
                        "ticks": 38720,
                        "time": 64.74121475000001,
                        "velocity": 0.41732283464566927
                    },
                    {
                        "duration": 0.10398322265625382,
                        "durationTicks": 63,
                        "midi": 49,
                        "name": "C#3",
                        "ticks": 38784,
                        "time": 64.84684850000001,
                        "velocity": 0.5039370078740157
                    },
                    {
                        "duration": 0.20796644531249342,
                        "durationTicks": 126,
                        "midi": 38,
                        "name": "D2",
                        "ticks": 38912,
                        "time": 65.05811600000001,
                        "velocity": 0.4015748031496063
                    },
                    {
                        "duration": 0.09573058593750261,
                        "durationTicks": 58,
                        "midi": 50,
                        "name": "D3",
                        "ticks": 39168,
                        "time": 65.480651,
                        "velocity": 0.6614173228346457
                    },
                    {
                        "duration": 0.09573058593750261,
                        "durationTicks": 58,
                        "midi": 58,
                        "name": "A#3",
                        "ticks": 39168,
                        "time": 65.480651,
                        "velocity": 0.6535433070866141
                    },
                    {
                        "duration": 0.09573058593750261,
                        "durationTicks": 58,
                        "midi": 49,
                        "name": "C#3",
                        "ticks": 39232,
                        "time": 65.58628475,
                        "velocity": 0.4409448818897638
                    },
                    {
                        "duration": 0.1039832226562396,
                        "durationTicks": 63,
                        "midi": 50,
                        "name": "D3",
                        "ticks": 39296,
                        "time": 65.69191850000001,
                        "velocity": 0.5354330708661418
                    },
                    {
                        "duration": 0.20796644531250763,
                        "durationTicks": 126,
                        "midi": 42,
                        "name": "F#2",
                        "ticks": 39424,
                        "time": 65.903186,
                        "velocity": 0.4251968503937008
                    },
                    {
                        "duration": 0.0957305859374884,
                        "durationTicks": 58,
                        "midi": 49,
                        "name": "C#3",
                        "ticks": 39680,
                        "time": 66.32572100000002,
                        "velocity": 0.6692913385826772
                    },
                    {
                        "duration": 0.0957305859374884,
                        "durationTicks": 58,
                        "midi": 58,
                        "name": "A#3",
                        "ticks": 39680,
                        "time": 66.32572100000002,
                        "velocity": 0.6771653543307087
                    },
                    {
                        "duration": 0.09573058593750261,
                        "durationTicks": 58,
                        "midi": 48,
                        "name": "C3",
                        "ticks": 39744,
                        "time": 66.43135475,
                        "velocity": 0.4094488188976378
                    },
                    {
                        "duration": 0.1039832226562396,
                        "durationTicks": 63,
                        "midi": 49,
                        "name": "C#3",
                        "ticks": 39808,
                        "time": 66.5369885,
                        "velocity": 0.5433070866141733
                    },
                    {
                        "duration": 0.20796644531250763,
                        "durationTicks": 126,
                        "midi": 42,
                        "name": "F#2",
                        "ticks": 39936,
                        "time": 66.748256,
                        "velocity": 0.4645669291338583
                    },
                    {
                        "duration": 0.09573058593750261,
                        "durationTicks": 58,
                        "midi": 49,
                        "name": "C#3",
                        "ticks": 40192,
                        "time": 67.17079100000001,
                        "velocity": 0.6929133858267716
                    },
                    {
                        "duration": 0.09573058593750261,
                        "durationTicks": 58,
                        "midi": 58,
                        "name": "A#3",
                        "ticks": 40192,
                        "time": 67.17079100000001,
                        "velocity": 0.7086614173228346
                    },
                    {
                        "duration": 0.09573058593750261,
                        "durationTicks": 58,
                        "midi": 48,
                        "name": "C3",
                        "ticks": 40256,
                        "time": 67.27642475,
                        "velocity": 0.4566929133858268
                    },
                    {
                        "duration": 0.10398322265625382,
                        "durationTicks": 63,
                        "midi": 49,
                        "name": "C#3",
                        "ticks": 40320,
                        "time": 67.3820585,
                        "velocity": 0.5669291338582677
                    },
                    {
                        "duration": 0.20796644531249342,
                        "durationTicks": 126,
                        "midi": 42,
                        "name": "F#2",
                        "ticks": 40448,
                        "time": 67.593326,
                        "velocity": 0.4645669291338583
                    },
                    {
                        "duration": 0.09573058593750261,
                        "durationTicks": 58,
                        "midi": 49,
                        "name": "C#3",
                        "ticks": 40704,
                        "time": 68.015861,
                        "velocity": 0.7322834645669292
                    },
                    {
                        "duration": 0.09573058593750261,
                        "durationTicks": 58,
                        "midi": 58,
                        "name": "A#3",
                        "ticks": 40704,
                        "time": 68.015861,
                        "velocity": 0.7322834645669292
                    },
                    {
                        "duration": 0.09573058593750261,
                        "durationTicks": 58,
                        "midi": 48,
                        "name": "C3",
                        "ticks": 40768,
                        "time": 68.12149475000001,
                        "velocity": 0.4409448818897638
                    },
                    {
                        "duration": 0.10398322265625382,
                        "durationTicks": 63,
                        "midi": 49,
                        "name": "C#3",
                        "ticks": 40832,
                        "time": 68.2271285,
                        "velocity": 0.5748031496062992
                    },
                    {
                        "duration": 0.20796644531249342,
                        "durationTicks": 126,
                        "midi": 38,
                        "name": "D2",
                        "ticks": 40960,
                        "time": 68.43839600000001,
                        "velocity": 0.4409448818897638
                    },
                    {
                        "duration": 0.0957305859374884,
                        "durationTicks": 58,
                        "midi": 50,
                        "name": "D3",
                        "ticks": 41216,
                        "time": 68.86093100000001,
                        "velocity": 0.7165354330708661
                    },
                    {
                        "duration": 0.0957305859374884,
                        "durationTicks": 58,
                        "midi": 58,
                        "name": "A#3",
                        "ticks": 41216,
                        "time": 68.86093100000001,
                        "velocity": 0.7322834645669292
                    },
                    {
                        "duration": 0.09573058593750261,
                        "durationTicks": 58,
                        "midi": 49,
                        "name": "C#3",
                        "ticks": 41280,
                        "time": 68.96656475,
                        "velocity": 0.4645669291338583
                    },
                    {
                        "duration": 0.1039832226562396,
                        "durationTicks": 63,
                        "midi": 50,
                        "name": "D3",
                        "ticks": 41344,
                        "time": 69.07219850000001,
                        "velocity": 0.5984251968503937
                    },
                    {
                        "duration": 0.20796644531250763,
                        "durationTicks": 126,
                        "midi": 42,
                        "name": "F#2",
                        "ticks": 41472,
                        "time": 69.283466,
                        "velocity": 0.44881889763779526
                    },
                    {
                        "duration": 0.0957305859374884,
                        "durationTicks": 58,
                        "midi": 49,
                        "name": "C#3",
                        "ticks": 41728,
                        "time": 69.70600100000001,
                        "velocity": 0.7637795275590551
                    },
                    {
                        "duration": 0.0957305859374884,
                        "durationTicks": 58,
                        "midi": 58,
                        "name": "A#3",
                        "ticks": 41728,
                        "time": 69.70600100000001,
                        "velocity": 0.7480314960629921
                    },
                    {
                        "duration": 0.09573058593750261,
                        "durationTicks": 58,
                        "midi": 48,
                        "name": "C3",
                        "ticks": 41792,
                        "time": 69.81163475,
                        "velocity": 0.47244094488188976
                    },
                    {
                        "duration": 0.1039832226562396,
                        "durationTicks": 63,
                        "midi": 49,
                        "name": "C#3",
                        "ticks": 41856,
                        "time": 69.9172685,
                        "velocity": 0.5984251968503937
                    },
                    {
                        "duration": 0.12446117578124927,
                        "durationTicks": 77,
                        "midi": 35,
                        "name": "B1",
                        "ticks": 41984,
                        "time": 70.128536,
                        "velocity": 0.47244094488188976
                    },
                    {
                        "duration": 0.12446117578124927,
                        "durationTicks": 77,
                        "midi": 41,
                        "name": "F2",
                        "ticks": 42069,
                        "time": 70.26592820703125,
                        "velocity": 0.7007874015748031
                    },
                    {
                        "duration": 0.12607755468749815,
                        "durationTicks": 78,
                        "midi": 42,
                        "name": "F#2",
                        "ticks": 42154,
                        "time": 70.40332041406249,
                        "velocity": 0.6771653543307087
                    },
                    {
                        "duration": 0.12446117578124927,
                        "durationTicks": 77,
                        "midi": 50,
                        "name": "D3",
                        "ticks": 42240,
                        "time": 70.542329,
                        "velocity": 0.7637795275590551
                    },
                    {
                        "duration": 0.12446117578124927,
                        "durationTicks": 77,
                        "midi": 41,
                        "name": "F2",
                        "ticks": 42325,
                        "time": 70.67972120703125,
                        "velocity": 0.5275590551181102
                    },
                    {
                        "duration": 0.12607755468751236,
                        "durationTicks": 78,
                        "midi": 42,
                        "name": "F#2",
                        "ticks": 42410,
                        "time": 70.81711341406249,
                        "velocity": 0.6299212598425197
                    },
                    {
                        "duration": 0.12446117578124927,
                        "durationTicks": 77,
                        "midi": 35,
                        "name": "B1",
                        "ticks": 42496,
                        "time": 70.956122,
                        "velocity": 0.5275590551181102
                    },
                    {
                        "duration": 0.12446117578124927,
                        "durationTicks": 77,
                        "midi": 41,
                        "name": "F2",
                        "ticks": 42581,
                        "time": 71.09351420703125,
                        "velocity": 0.7007874015748031
                    },
                    {
                        "duration": 0.12607755468749815,
                        "durationTicks": 78,
                        "midi": 42,
                        "name": "F#2",
                        "ticks": 42666,
                        "time": 71.2309064140625,
                        "velocity": 0.6535433070866141
                    },
                    {
                        "duration": 0.12446117578124927,
                        "durationTicks": 77,
                        "midi": 50,
                        "name": "D3",
                        "ticks": 42752,
                        "time": 71.36991499999999,
                        "velocity": 0.7716535433070866
                    },
                    {
                        "duration": 0.12446117578124927,
                        "durationTicks": 77,
                        "midi": 41,
                        "name": "F2",
                        "ticks": 42837,
                        "time": 71.50730720703125,
                        "velocity": 0.5196850393700787
                    },
                    {
                        "duration": 0.12607755468749815,
                        "durationTicks": 78,
                        "midi": 42,
                        "name": "F#2",
                        "ticks": 42922,
                        "time": 71.6446994140625,
                        "velocity": 0.6299212598425197
                    },
                    {
                        "duration": 0.12446117578126348,
                        "durationTicks": 77,
                        "midi": 35,
                        "name": "B1",
                        "ticks": 43008,
                        "time": 71.78370799999999,
                        "velocity": 0.5354330708661418
                    },
                    {
                        "duration": 0.12446117578124927,
                        "durationTicks": 77,
                        "midi": 41,
                        "name": "F2",
                        "ticks": 43093,
                        "time": 71.92110020703124,
                        "velocity": 0.7165354330708661
                    },
                    {
                        "duration": 0.12607755468749815,
                        "durationTicks": 78,
                        "midi": 42,
                        "name": "F#2",
                        "ticks": 43178,
                        "time": 72.0584924140625,
                        "velocity": 0.6850393700787402
                    },
                    {
                        "duration": 0.12446117578124927,
                        "durationTicks": 77,
                        "midi": 49,
                        "name": "C#3",
                        "ticks": 43264,
                        "time": 72.197501,
                        "velocity": 0.7716535433070866
                    },
                    {
                        "duration": 0.12446117578124927,
                        "durationTicks": 77,
                        "midi": 41,
                        "name": "F2",
                        "ticks": 43349,
                        "time": 72.33489320703124,
                        "velocity": 0.5354330708661418
                    },
                    {
                        "duration": 0.12607755468749815,
                        "durationTicks": 78,
                        "midi": 42,
                        "name": "F#2",
                        "ticks": 43434,
                        "time": 72.4722854140625,
                        "velocity": 0.6220472440944882
                    },
                    {
                        "duration": 0.12446117578124927,
                        "durationTicks": 77,
                        "midi": 35,
                        "name": "B1",
                        "ticks": 43520,
                        "time": 72.611294,
                        "velocity": 0.5511811023622047
                    },
                    {
                        "duration": 0.12446117578124927,
                        "durationTicks": 77,
                        "midi": 41,
                        "name": "F2",
                        "ticks": 43605,
                        "time": 72.74868620703124,
                        "velocity": 0.7244094488188977
                    },
                    {
                        "duration": 0.12607755468749815,
                        "durationTicks": 78,
                        "midi": 42,
                        "name": "F#2",
                        "ticks": 43690,
                        "time": 72.8860784140625,
                        "velocity": 0.6771653543307087
                    },
                    {
                        "duration": 0.12446117578124927,
                        "durationTicks": 77,
                        "midi": 48,
                        "name": "C3",
                        "ticks": 43776,
                        "time": 73.025087,
                        "velocity": 0.7480314960629921
                    },
                    {
                        "duration": 0.12446117578124927,
                        "durationTicks": 77,
                        "midi": 41,
                        "name": "F2",
                        "ticks": 43861,
                        "time": 73.16247920703125,
                        "velocity": 0.5118110236220472
                    },
                    {
                        "duration": 0.12607755468749815,
                        "durationTicks": 78,
                        "midi": 42,
                        "name": "F#2",
                        "ticks": 43946,
                        "time": 73.2998714140625,
                        "velocity": 0.6220472440944882
                    },
                    {
                        "duration": 0.12446117578124927,
                        "durationTicks": 77,
                        "midi": 35,
                        "name": "B1",
                        "ticks": 44032,
                        "time": 73.43888,
                        "velocity": 0.5433070866141733
                    },
                    {
                        "duration": 0.12446117578124927,
                        "durationTicks": 77,
                        "midi": 41,
                        "name": "F2",
                        "ticks": 44117,
                        "time": 73.57627220703125,
                        "velocity": 0.7086614173228346
                    },
                    {
                        "duration": 0.12607755468749815,
                        "durationTicks": 78,
                        "midi": 42,
                        "name": "F#2",
                        "ticks": 44202,
                        "time": 73.71366441406249,
                        "velocity": 0.6614173228346457
                    },
                    {
                        "duration": 0.12446117578124927,
                        "durationTicks": 77,
                        "midi": 50,
                        "name": "D3",
                        "ticks": 44288,
                        "time": 73.852673,
                        "velocity": 0.7795275590551181
                    },
                    {
                        "duration": 0.12446117578124927,
                        "durationTicks": 77,
                        "midi": 41,
                        "name": "F2",
                        "ticks": 44373,
                        "time": 73.99006520703125,
                        "velocity": 0.5275590551181102
                    },
                    {
                        "duration": 0.12607755468751236,
                        "durationTicks": 78,
                        "midi": 42,
                        "name": "F#2",
                        "ticks": 44458,
                        "time": 74.12745741406249,
                        "velocity": 0.6377952755905512
                    },
                    {
                        "duration": 0.12446117578124927,
                        "durationTicks": 77,
                        "midi": 35,
                        "name": "B1",
                        "ticks": 44544,
                        "time": 74.266466,
                        "velocity": 0.5275590551181102
                    },
                    {
                        "duration": 0.12446117578124927,
                        "durationTicks": 77,
                        "midi": 41,
                        "name": "F2",
                        "ticks": 44629,
                        "time": 74.40385820703125,
                        "velocity": 0.7007874015748031
                    },
                    {
                        "duration": 0.12607755468749815,
                        "durationTicks": 78,
                        "midi": 42,
                        "name": "F#2",
                        "ticks": 44714,
                        "time": 74.5412504140625,
                        "velocity": 0.6614173228346457
                    },
                    {
                        "duration": 0.12446117578124927,
                        "durationTicks": 77,
                        "midi": 50,
                        "name": "D3",
                        "ticks": 44800,
                        "time": 74.68025899999999,
                        "velocity": 0.7795275590551181
                    },
                    {
                        "duration": 0.12446117578124927,
                        "durationTicks": 77,
                        "midi": 41,
                        "name": "F2",
                        "ticks": 44885,
                        "time": 74.81765120703125,
                        "velocity": 0.49606299212598426
                    },
                    {
                        "duration": 0.12607755468749815,
                        "durationTicks": 78,
                        "midi": 42,
                        "name": "F#2",
                        "ticks": 44970,
                        "time": 74.9550434140625,
                        "velocity": 0.6456692913385826
                    },
                    {
                        "duration": 0.12446117578126348,
                        "durationTicks": 77,
                        "midi": 38,
                        "name": "D2",
                        "ticks": 45056,
                        "time": 75.09405199999999,
                        "velocity": 0.5826771653543307
                    },
                    {
                        "duration": 0.12446117578124927,
                        "durationTicks": 77,
                        "midi": 44,
                        "name": "G#2",
                        "ticks": 45141,
                        "time": 75.23144420703125,
                        "velocity": 0.7322834645669292
                    },
                    {
                        "duration": 0.12607755468749815,
                        "durationTicks": 78,
                        "midi": 45,
                        "name": "A2",
                        "ticks": 45226,
                        "time": 75.3688364140625,
                        "velocity": 0.6614173228346457
                    },
                    {
                        "duration": 0.12446117578124927,
                        "durationTicks": 77,
                        "midi": 54,
                        "name": "F#3",
                        "ticks": 45312,
                        "time": 75.507845,
                        "velocity": 0.7874015748031497
                    },
                    {
                        "duration": 0.12446117578124927,
                        "durationTicks": 77,
                        "midi": 44,
                        "name": "G#2",
                        "ticks": 45397,
                        "time": 75.64523720703124,
                        "velocity": 0.5118110236220472
                    },
                    {
                        "duration": 0.12607755468749815,
                        "durationTicks": 78,
                        "midi": 45,
                        "name": "A2",
                        "ticks": 45482,
                        "time": 75.7826294140625,
                        "velocity": 0.6220472440944882
                    },
                    {
                        "duration": 0.12446117578124927,
                        "durationTicks": 77,
                        "midi": 38,
                        "name": "D2",
                        "ticks": 45568,
                        "time": 75.921638,
                        "velocity": 0.5354330708661418
                    },
                    {
                        "duration": 0.12446117578124927,
                        "durationTicks": 77,
                        "midi": 44,
                        "name": "G#2",
                        "ticks": 45653,
                        "time": 76.05903020703124,
                        "velocity": 0.7007874015748031
                    },
                    {
                        "duration": 0.12607755468749815,
                        "durationTicks": 78,
                        "midi": 45,
                        "name": "A2",
                        "ticks": 45738,
                        "time": 76.1964224140625,
                        "velocity": 0.6850393700787402
                    },
                    {
                        "duration": 0.12446117578124927,
                        "durationTicks": 77,
                        "midi": 54,
                        "name": "F#3",
                        "ticks": 45824,
                        "time": 76.335431,
                        "velocity": 0.7874015748031497
                    },
                    {
                        "duration": 0.12446117578126348,
                        "durationTicks": 77,
                        "midi": 44,
                        "name": "G#2",
                        "ticks": 45909,
                        "time": 76.47282320703124,
                        "velocity": 0.5118110236220472
                    },
                    {
                        "duration": 0.12607755468749815,
                        "durationTicks": 78,
                        "midi": 45,
                        "name": "A2",
                        "ticks": 45994,
                        "time": 76.6102154140625,
                        "velocity": 0.6299212598425197
                    },
                    {
                        "duration": 0.12193822265625442,
                        "durationTicks": 77,
                        "midi": 35,
                        "name": "B1",
                        "ticks": 46080,
                        "time": 76.749224,
                        "velocity": 0.49606299212598426
                    },
                    {
                        "duration": 0.12193822265624021,
                        "durationTicks": 77,
                        "midi": 41,
                        "name": "F2",
                        "ticks": 46165,
                        "time": 76.88383112890625,
                        "velocity": 0.6850393700787402
                    },
                    {
                        "duration": 0.12352183593750965,
                        "durationTicks": 78,
                        "midi": 42,
                        "name": "F#2",
                        "ticks": 46250,
                        "time": 77.01843825781249,
                        "velocity": 0.6614173228346457
                    },
                    {
                        "duration": 0.12193822265625442,
                        "durationTicks": 77,
                        "midi": 50,
                        "name": "D3",
                        "ticks": 46336,
                        "time": 77.154629,
                        "velocity": 0.7716535433070866
                    },
                    {
                        "duration": 0.12193822265624021,
                        "durationTicks": 77,
                        "midi": 41,
                        "name": "F2",
                        "ticks": 46421,
                        "time": 77.28923612890625,
                        "velocity": 0.5039370078740157
                    },
                    {
                        "duration": 0.12352183593750965,
                        "durationTicks": 78,
                        "midi": 42,
                        "name": "F#2",
                        "ticks": 46506,
                        "time": 77.42384325781249,
                        "velocity": 0.6299212598425197
                    },
                    {
                        "duration": 0.12193822265624021,
                        "durationTicks": 77,
                        "midi": 35,
                        "name": "B1",
                        "ticks": 46592,
                        "time": 77.560034,
                        "velocity": 0.5354330708661418
                    },
                    {
                        "duration": 0.12193822265624021,
                        "durationTicks": 77,
                        "midi": 41,
                        "name": "F2",
                        "ticks": 46677,
                        "time": 77.69464112890626,
                        "velocity": 0.7086614173228346
                    },
                    {
                        "duration": 0.12352183593750965,
                        "durationTicks": 78,
                        "midi": 42,
                        "name": "F#2",
                        "ticks": 46762,
                        "time": 77.8292482578125,
                        "velocity": 0.6850393700787402
                    },
                    {
                        "duration": 0.12193822265624021,
                        "durationTicks": 77,
                        "midi": 50,
                        "name": "D3",
                        "ticks": 46848,
                        "time": 77.965439,
                        "velocity": 0.7874015748031497
                    },
                    {
                        "duration": 0.12193822265625442,
                        "durationTicks": 77,
                        "midi": 41,
                        "name": "F2",
                        "ticks": 46933,
                        "time": 78.10004612890624,
                        "velocity": 0.5039370078740157
                    },
                    {
                        "duration": 0.12352183593749544,
                        "durationTicks": 78,
                        "midi": 42,
                        "name": "F#2",
                        "ticks": 47018,
                        "time": 78.2346532578125,
                        "velocity": 0.6299212598425197
                    },
                    {
                        "duration": 0.12193822265624021,
                        "durationTicks": 77,
                        "midi": 35,
                        "name": "B1",
                        "ticks": 47104,
                        "time": 78.370844,
                        "velocity": 0.5433070866141733
                    },
                    {
                        "duration": 0.12193822265625442,
                        "durationTicks": 77,
                        "midi": 41,
                        "name": "F2",
                        "ticks": 47189,
                        "time": 78.50545112890624,
                        "velocity": 0.7165354330708661
                    },
                    {
                        "duration": 0.12352183593749544,
                        "durationTicks": 78,
                        "midi": 42,
                        "name": "F#2",
                        "ticks": 47274,
                        "time": 78.6400582578125,
                        "velocity": 0.6771653543307087
                    },
                    {
                        "duration": 0.12193822265625442,
                        "durationTicks": 77,
                        "midi": 49,
                        "name": "C#3",
                        "ticks": 47360,
                        "time": 78.77624899999999,
                        "velocity": 0.7559055118110236
                    },
                    {
                        "duration": 0.12193822265625442,
                        "durationTicks": 77,
                        "midi": 41,
                        "name": "F2",
                        "ticks": 47445,
                        "time": 78.91085612890625,
                        "velocity": 0.5275590551181102
                    },
                    {
                        "duration": 0.12352183593749544,
                        "durationTicks": 78,
                        "midi": 42,
                        "name": "F#2",
                        "ticks": 47530,
                        "time": 79.0454632578125,
                        "velocity": 0.6299212598425197
                    },
                    {
                        "duration": 0.12193822265625442,
                        "durationTicks": 77,
                        "midi": 35,
                        "name": "B1",
                        "ticks": 47616,
                        "time": 79.181654,
                        "velocity": 0.5433070866141733
                    },
                    {
                        "duration": 0.12193822265625442,
                        "durationTicks": 77,
                        "midi": 41,
                        "name": "F2",
                        "ticks": 47701,
                        "time": 79.31626112890625,
                        "velocity": 0.7165354330708661
                    },
                    {
                        "duration": 0.12352183593749544,
                        "durationTicks": 78,
                        "midi": 42,
                        "name": "F#2",
                        "ticks": 47786,
                        "time": 79.4508682578125,
                        "velocity": 0.6614173228346457
                    },
                    {
                        "duration": 0.12193822265625442,
                        "durationTicks": 77,
                        "midi": 48,
                        "name": "C3",
                        "ticks": 47872,
                        "time": 79.587059,
                        "velocity": 0.7559055118110236
                    },
                    {
                        "duration": 0.12193822265625442,
                        "durationTicks": 77,
                        "midi": 41,
                        "name": "F2",
                        "ticks": 47957,
                        "time": 79.72166612890625,
                        "velocity": 0.5196850393700787
                    },
                    {
                        "duration": 0.12352183593749544,
                        "durationTicks": 78,
                        "midi": 42,
                        "name": "F#2",
                        "ticks": 48042,
                        "time": 79.8562732578125,
                        "velocity": 0.6299212598425197
                    },
                    {
                        "duration": 0.12031249999999716,
                        "durationTicks": 77,
                        "midi": 35,
                        "name": "B1",
                        "ticks": 48128,
                        "time": 79.992464,
                        "velocity": 0.5354330708661418
                    },
                    {
                        "duration": 0.11915862499999719,
                        "durationTicks": 77,
                        "midi": 41,
                        "name": "F2",
                        "ticks": 48213,
                        "time": 80.1252765,
                        "velocity": 0.7007874015748031
                    },
                    {
                        "duration": 0.11922787499999288,
                        "durationTicks": 78,
                        "midi": 42,
                        "name": "F#2",
                        "ticks": 48298,
                        "time": 80.256663625,
                        "velocity": 0.6850393700787402
                    },
                    {
                        "duration": 0.3423856601562534,
                        "durationTicks": 231,
                        "midi": 47,
                        "name": "B2",
                        "ticks": 48384,
                        "time": 80.38812,
                        "velocity": 0.8503937007874016
                    },
                    {
                        "duration": 0.3423856601562534,
                        "durationTicks": 231,
                        "midi": 59,
                        "name": "B3",
                        "ticks": 48384,
                        "time": 80.38812,
                        "velocity": 0.8582677165354331
                    },
                    {
                        "duration": 0.32854623437499697,
                        "durationTicks": 231,
                        "midi": 45,
                        "name": "A2",
                        "ticks": 48640,
                        "time": 80.767129,
                        "velocity": 0.6929133858267716
                    },
                    {
                        "duration": 0.32854623437499697,
                        "durationTicks": 231,
                        "midi": 47,
                        "name": "B2",
                        "ticks": 48640,
                        "time": 80.767129,
                        "velocity": 0.6771653543307087
                    },
                    {
                        "duration": 0.32854623437499697,
                        "durationTicks": 231,
                        "midi": 57,
                        "name": "A3",
                        "ticks": 48640,
                        "time": 80.767129,
                        "velocity": 0.6771653543307087
                    },
                    {
                        "duration": 0.3157824062499941,
                        "durationTicks": 231,
                        "midi": 43,
                        "name": "G2",
                        "ticks": 48896,
                        "time": 81.130835,
                        "velocity": 0.6850393700787402
                    },
                    {
                        "duration": 0.3157824062499941,
                        "durationTicks": 231,
                        "midi": 47,
                        "name": "B2",
                        "ticks": 48896,
                        "time": 81.130835,
                        "velocity": 0.6692913385826772
                    },
                    {
                        "duration": 0.3157824062499941,
                        "durationTicks": 231,
                        "midi": 55,
                        "name": "G3",
                        "ticks": 48896,
                        "time": 81.130835,
                        "velocity": 0.6771653543307087
                    },
                    {
                        "duration": 0.3039730781249972,
                        "durationTicks": 231,
                        "midi": 42,
                        "name": "F#2",
                        "ticks": 49152,
                        "time": 81.48042600000001,
                        "velocity": 0.7322834645669292
                    },
                    {
                        "duration": 0.3039730781249972,
                        "durationTicks": 231,
                        "midi": 47,
                        "name": "B2",
                        "ticks": 49152,
                        "time": 81.48042600000001,
                        "velocity": 0.7322834645669292
                    },
                    {
                        "duration": 0.3039730781249972,
                        "durationTicks": 231,
                        "midi": 54,
                        "name": "F#3",
                        "ticks": 49152,
                        "time": 81.48042600000001,
                        "velocity": 0.7244094488188977
                    },
                    {
                        "duration": 0.2930158945312513,
                        "durationTicks": 231,
                        "midi": 40,
                        "name": "E2",
                        "ticks": 49408,
                        "time": 81.81695650000002,
                        "velocity": 0.905511811023622
                    },
                    {
                        "duration": 0.2930158945312513,
                        "durationTicks": 231,
                        "midi": 47,
                        "name": "B2",
                        "ticks": 49408,
                        "time": 81.81695650000002,
                        "velocity": 0.905511811023622
                    },
                    {
                        "duration": 0.2930158945312513,
                        "durationTicks": 231,
                        "midi": 52,
                        "name": "E3",
                        "ticks": 49408,
                        "time": 81.81695650000002,
                        "velocity": 0.8976377952755905
                    },
                    {
                        "duration": 0.2849502304687519,
                        "durationTicks": 231,
                        "midi": 38,
                        "name": "D2",
                        "ticks": 49664,
                        "time": 82.14136800000003,
                        "velocity": 0.9212598425196851
                    },
                    {
                        "duration": 0.2849502304687519,
                        "durationTicks": 231,
                        "midi": 47,
                        "name": "B2",
                        "ticks": 49664,
                        "time": 82.14136800000003,
                        "velocity": 0.9212598425196851
                    },
                    {
                        "duration": 0.2849502304687519,
                        "durationTicks": 231,
                        "midi": 50,
                        "name": "D3",
                        "ticks": 49664,
                        "time": 82.14136800000003,
                        "velocity": 0.9291338582677166
                    },
                    {
                        "duration": 0.2849502304687519,
                        "durationTicks": 231,
                        "midi": 37,
                        "name": "C#2",
                        "ticks": 49920,
                        "time": 82.45715700000002,
                        "velocity": 0.9448818897637795
                    },
                    {
                        "duration": 0.2849502304687519,
                        "durationTicks": 231,
                        "midi": 47,
                        "name": "B2",
                        "ticks": 49920,
                        "time": 82.45715700000002,
                        "velocity": 0.952755905511811
                    },
                    {
                        "duration": 0.2849502304687519,
                        "durationTicks": 231,
                        "midi": 49,
                        "name": "C#3",
                        "ticks": 49920,
                        "time": 82.45715700000002,
                        "velocity": 0.9291338582677166
                    },
                    {
                        "duration": 0.07771369921874793,
                        "durationTicks": 63,
                        "midi": 35,
                        "name": "B1",
                        "ticks": 50176,
                        "time": 82.77294600000003,
                        "velocity": 0.9606299212598425
                    },
                    {
                        "duration": 0.07771369921874793,
                        "durationTicks": 63,
                        "midi": 47,
                        "name": "B2",
                        "ticks": 50176,
                        "time": 82.77294600000003,
                        "velocity": 0.952755905511811
                    },
                    {
                        "duration": 0.07771369921874793,
                        "durationTicks": 63,
                        "midi": 45,
                        "name": "A2",
                        "ticks": 50304,
                        "time": 82.93084050000003,
                        "velocity": 0.8188976377952756
                    },
                    {
                        "duration": 0.07771369921874793,
                        "durationTicks": 63,
                        "midi": 43,
                        "name": "G2",
                        "ticks": 50432,
                        "time": 83.08873500000003,
                        "velocity": 0.8188976377952756
                    },
                    {
                        "duration": 0.07771369921876214,
                        "durationTicks": 63,
                        "midi": 42,
                        "name": "F#2",
                        "ticks": 50560,
                        "time": 83.24662950000003,
                        "velocity": 0.8188976377952756
                    },
                    {
                        "duration": 0.07771369921874793,
                        "durationTicks": 63,
                        "midi": 35,
                        "name": "B1",
                        "ticks": 50688,
                        "time": 83.40452400000004,
                        "velocity": 1
                    },
                    {
                        "duration": 0.07771369921874793,
                        "durationTicks": 63,
                        "midi": 47,
                        "name": "B2",
                        "ticks": 50688,
                        "time": 83.40452400000004,
                        "velocity": 1
                    },
                    {
                        "duration": 0.07771369921874793,
                        "durationTicks": 63,
                        "midi": 45,
                        "name": "A2",
                        "ticks": 50816,
                        "time": 83.56241850000004,
                        "velocity": 0.8188976377952756
                    },
                    {
                        "duration": 0.07771369921874793,
                        "durationTicks": 63,
                        "midi": 43,
                        "name": "G2",
                        "ticks": 50944,
                        "time": 83.72031300000003,
                        "velocity": 0.84251968503937
                    },
                    {
                        "duration": 0.07771369921874793,
                        "durationTicks": 63,
                        "midi": 42,
                        "name": "F#2",
                        "ticks": 51072,
                        "time": 83.87820750000003,
                        "velocity": 0.8110236220472441
                    },
                    {
                        "duration": 0.07771369921874793,
                        "durationTicks": 63,
                        "midi": 35,
                        "name": "B1",
                        "ticks": 51200,
                        "time": 84.03610200000003,
                        "velocity": 1
                    },
                    {
                        "duration": 0.07771369921874793,
                        "durationTicks": 63,
                        "midi": 47,
                        "name": "B2",
                        "ticks": 51200,
                        "time": 84.03610200000003,
                        "velocity": 1
                    },
                    {
                        "duration": 0.07771369921876214,
                        "durationTicks": 63,
                        "midi": 45,
                        "name": "A2",
                        "ticks": 51328,
                        "time": 84.19399650000003,
                        "velocity": 0.84251968503937
                    },
                    {
                        "duration": 0.07771369921874793,
                        "durationTicks": 63,
                        "midi": 43,
                        "name": "G2",
                        "ticks": 51456,
                        "time": 84.35189100000004,
                        "velocity": 0.84251968503937
                    },
                    {
                        "duration": 0.07771369921874793,
                        "durationTicks": 63,
                        "midi": 42,
                        "name": "F#2",
                        "ticks": 51584,
                        "time": 84.50978550000004,
                        "velocity": 0.8267716535433071
                    },
                    {
                        "duration": 0.07771369921874793,
                        "durationTicks": 63,
                        "midi": 35,
                        "name": "B1",
                        "ticks": 51712,
                        "time": 84.66768000000003,
                        "velocity": 1
                    },
                    {
                        "duration": 0.07771369921874793,
                        "durationTicks": 63,
                        "midi": 47,
                        "name": "B2",
                        "ticks": 51712,
                        "time": 84.66768000000003,
                        "velocity": 1
                    },
                    {
                        "duration": 0.07771369921874793,
                        "durationTicks": 63,
                        "midi": 45,
                        "name": "A2",
                        "ticks": 51840,
                        "time": 84.82557450000003,
                        "velocity": 0.8503937007874016
                    },
                    {
                        "duration": 0.07771369921874793,
                        "durationTicks": 63,
                        "midi": 43,
                        "name": "G2",
                        "ticks": 51968,
                        "time": 84.98346900000003,
                        "velocity": 0.84251968503937
                    },
                    {
                        "duration": 0.07771369921876214,
                        "durationTicks": 63,
                        "midi": 42,
                        "name": "F#2",
                        "ticks": 52096,
                        "time": 85.14136350000003,
                        "velocity": 0.8346456692913385
                    },
                    {
                        "duration": 0.07771369921874793,
                        "durationTicks": 63,
                        "midi": 35,
                        "name": "B1",
                        "ticks": 52224,
                        "time": 85.29925800000004,
                        "velocity": 1
                    },
                    {
                        "duration": 0.07771369921874793,
                        "durationTicks": 63,
                        "midi": 47,
                        "name": "B2",
                        "ticks": 52224,
                        "time": 85.29925800000004,
                        "velocity": 1
                    },
                    {
                        "duration": 0.07771369921874793,
                        "durationTicks": 63,
                        "midi": 45,
                        "name": "A2",
                        "ticks": 52352,
                        "time": 85.45715250000003,
                        "velocity": 0.84251968503937
                    },
                    {
                        "duration": 0.07771369921874793,
                        "durationTicks": 63,
                        "midi": 43,
                        "name": "G2",
                        "ticks": 52480,
                        "time": 85.61504700000003,
                        "velocity": 0.84251968503937
                    },
                    {
                        "duration": 0.07771369921874793,
                        "durationTicks": 63,
                        "midi": 42,
                        "name": "F#2",
                        "ticks": 52608,
                        "time": 85.77294150000003,
                        "velocity": 0.8188976377952756
                    },
                    {
                        "duration": 0.07771369921874793,
                        "durationTicks": 63,
                        "midi": 35,
                        "name": "B1",
                        "ticks": 52736,
                        "time": 85.93083600000003,
                        "velocity": 1
                    },
                    {
                        "duration": 0.07771369921874793,
                        "durationTicks": 63,
                        "midi": 47,
                        "name": "B2",
                        "ticks": 52736,
                        "time": 85.93083600000003,
                        "velocity": 1
                    },
                    {
                        "duration": 0.07771369921876214,
                        "durationTicks": 63,
                        "midi": 45,
                        "name": "A2",
                        "ticks": 52864,
                        "time": 86.08873050000003,
                        "velocity": 0.8346456692913385
                    },
                    {
                        "duration": 0.07771369921874793,
                        "durationTicks": 63,
                        "midi": 43,
                        "name": "G2",
                        "ticks": 52992,
                        "time": 86.24662500000004,
                        "velocity": 0.8346456692913385
                    },
                    {
                        "duration": 0.07771369921874793,
                        "durationTicks": 63,
                        "midi": 42,
                        "name": "F#2",
                        "ticks": 53120,
                        "time": 86.40451950000003,
                        "velocity": 0.8110236220472441
                    },
                    {
                        "duration": 0.07771369921874793,
                        "durationTicks": 63,
                        "midi": 38,
                        "name": "D2",
                        "ticks": 53248,
                        "time": 86.56241400000003,
                        "velocity": 1
                    },
                    {
                        "duration": 0.07771369921874793,
                        "durationTicks": 63,
                        "midi": 50,
                        "name": "D3",
                        "ticks": 53248,
                        "time": 86.56241400000003,
                        "velocity": 1
                    },
                    {
                        "duration": 0.07771369921874793,
                        "durationTicks": 63,
                        "midi": 49,
                        "name": "C#3",
                        "ticks": 53376,
                        "time": 86.72030850000003,
                        "velocity": 0.8661417322834646
                    },
                    {
                        "duration": 0.07771369921874793,
                        "durationTicks": 63,
                        "midi": 47,
                        "name": "B2",
                        "ticks": 53504,
                        "time": 86.87820300000003,
                        "velocity": 0.8346456692913385
                    },
                    {
                        "duration": 0.07771369921874793,
                        "durationTicks": 63,
                        "midi": 45,
                        "name": "A2",
                        "ticks": 53632,
                        "time": 87.03609750000004,
                        "velocity": 0.8031496062992126
                    },
                    {
                        "duration": 0.07771369921874793,
                        "durationTicks": 63,
                        "midi": 38,
                        "name": "D2",
                        "ticks": 53760,
                        "time": 87.19399200000004,
                        "velocity": 1
                    },
                    {
                        "duration": 0.07771369921874793,
                        "durationTicks": 63,
                        "midi": 50,
                        "name": "D3",
                        "ticks": 53760,
                        "time": 87.19399200000004,
                        "velocity": 1
                    },
                    {
                        "duration": 0.07771369921874793,
                        "durationTicks": 63,
                        "midi": 49,
                        "name": "C#3",
                        "ticks": 53888,
                        "time": 87.35188650000003,
                        "velocity": 0.84251968503937
                    },
                    {
                        "duration": 0.07771369921874793,
                        "durationTicks": 63,
                        "midi": 47,
                        "name": "B2",
                        "ticks": 54016,
                        "time": 87.50978100000003,
                        "velocity": 0.8503937007874016
                    },
                    {
                        "duration": 0.07771369921874793,
                        "durationTicks": 63,
                        "midi": 45,
                        "name": "A2",
                        "ticks": 54144,
                        "time": 87.66767550000003,
                        "velocity": 0.8188976377952756
                    },
                    {
                        "duration": 0.07771369921874793,
                        "durationTicks": 63,
                        "midi": 35,
                        "name": "B1",
                        "ticks": 54272,
                        "time": 87.82557000000003,
                        "velocity": 1
                    },
                    {
                        "duration": 0.07771369921874793,
                        "durationTicks": 63,
                        "midi": 47,
                        "name": "B2",
                        "ticks": 54272,
                        "time": 87.82557000000003,
                        "velocity": 1
                    },
                    {
                        "duration": 0.07771369921876214,
                        "durationTicks": 63,
                        "midi": 45,
                        "name": "A2",
                        "ticks": 54400,
                        "time": 87.98346450000003,
                        "velocity": 0.8110236220472441
                    },
                    {
                        "duration": 0.07771369921874793,
                        "durationTicks": 63,
                        "midi": 43,
                        "name": "G2",
                        "ticks": 54528,
                        "time": 88.14135900000004,
                        "velocity": 0.8346456692913385
                    },
                    {
                        "duration": 0.07771369921874793,
                        "durationTicks": 63,
                        "midi": 42,
                        "name": "F#2",
                        "ticks": 54656,
                        "time": 88.29925350000003,
                        "velocity": 0.8110236220472441
                    },
                    {
                        "duration": 0.07771369921874793,
                        "durationTicks": 63,
                        "midi": 35,
                        "name": "B1",
                        "ticks": 54784,
                        "time": 88.45714800000003,
                        "velocity": 1
                    },
                    {
                        "duration": 0.07771369921874793,
                        "durationTicks": 63,
                        "midi": 47,
                        "name": "B2",
                        "ticks": 54784,
                        "time": 88.45714800000003,
                        "velocity": 1
                    },
                    {
                        "duration": 0.07771369921874793,
                        "durationTicks": 63,
                        "midi": 45,
                        "name": "A2",
                        "ticks": 54912,
                        "time": 88.61504250000003,
                        "velocity": 0.84251968503937
                    },
                    {
                        "duration": 0.07771369921874793,
                        "durationTicks": 63,
                        "midi": 43,
                        "name": "G2",
                        "ticks": 55040,
                        "time": 88.77293700000003,
                        "velocity": 0.8346456692913385
                    },
                    {
                        "duration": 0.07771369921874793,
                        "durationTicks": 63,
                        "midi": 42,
                        "name": "F#2",
                        "ticks": 55168,
                        "time": 88.93083150000004,
                        "velocity": 0.8188976377952756
                    },
                    {
                        "duration": 0.07771369921874793,
                        "durationTicks": 63,
                        "midi": 35,
                        "name": "B1",
                        "ticks": 55296,
                        "time": 89.08872600000004,
                        "velocity": 1
                    },
                    {
                        "duration": 0.07771369921874793,
                        "durationTicks": 63,
                        "midi": 47,
                        "name": "B2",
                        "ticks": 55296,
                        "time": 89.08872600000004,
                        "velocity": 1
                    },
                    {
                        "duration": 0.07771369921874793,
                        "durationTicks": 63,
                        "midi": 45,
                        "name": "A2",
                        "ticks": 55424,
                        "time": 89.24662050000003,
                        "velocity": 0.8188976377952756
                    },
                    {
                        "duration": 0.07771369921874793,
                        "durationTicks": 63,
                        "midi": 43,
                        "name": "G2",
                        "ticks": 55552,
                        "time": 89.40451500000003,
                        "velocity": 0.84251968503937
                    },
                    {
                        "duration": 0.07771369921874793,
                        "durationTicks": 63,
                        "midi": 42,
                        "name": "F#2",
                        "ticks": 55680,
                        "time": 89.56240950000003,
                        "velocity": 0.8267716535433071
                    },
                    {
                        "duration": 0.07771369921874793,
                        "durationTicks": 63,
                        "midi": 35,
                        "name": "B1",
                        "ticks": 55808,
                        "time": 89.72030400000003,
                        "velocity": 1
                    },
                    {
                        "duration": 0.07771369921874793,
                        "durationTicks": 63,
                        "midi": 47,
                        "name": "B2",
                        "ticks": 55808,
                        "time": 89.72030400000003,
                        "velocity": 1
                    },
                    {
                        "duration": 0.07771369921876214,
                        "durationTicks": 63,
                        "midi": 45,
                        "name": "A2",
                        "ticks": 55936,
                        "time": 89.87819850000002,
                        "velocity": 0.8503937007874016
                    },
                    {
                        "duration": 0.07771369921874793,
                        "durationTicks": 63,
                        "midi": 43,
                        "name": "G2",
                        "ticks": 56064,
                        "time": 90.03609300000004,
                        "velocity": 0.8267716535433071
                    },
                    {
                        "duration": 0.07771369921874793,
                        "durationTicks": 63,
                        "midi": 42,
                        "name": "F#2",
                        "ticks": 56192,
                        "time": 90.19398750000003,
                        "velocity": 0.8188976377952756
                    },
                    {
                        "duration": 0.07771369921874793,
                        "durationTicks": 63,
                        "midi": 35,
                        "name": "B1",
                        "ticks": 56320,
                        "time": 90.35188200000003,
                        "velocity": 1
                    },
                    {
                        "duration": 0.07771369921874793,
                        "durationTicks": 63,
                        "midi": 47,
                        "name": "B2",
                        "ticks": 56320,
                        "time": 90.35188200000003,
                        "velocity": 1
                    },
                    {
                        "duration": 0.07771369921874793,
                        "durationTicks": 63,
                        "midi": 45,
                        "name": "A2",
                        "ticks": 56448,
                        "time": 90.50977650000003,
                        "velocity": 0.8267716535433071
                    },
                    {
                        "duration": 0.07771369921876214,
                        "durationTicks": 63,
                        "midi": 43,
                        "name": "G2",
                        "ticks": 56576,
                        "time": 90.66767100000003,
                        "velocity": 0.8346456692913385
                    },
                    {
                        "duration": 0.07771369921874793,
                        "durationTicks": 63,
                        "midi": 42,
                        "name": "F#2",
                        "ticks": 56704,
                        "time": 90.82556550000004,
                        "velocity": 0.8031496062992126
                    },
                    {
                        "duration": 0.07771369921874793,
                        "durationTicks": 63,
                        "midi": 35,
                        "name": "B1",
                        "ticks": 56832,
                        "time": 90.98346000000004,
                        "velocity": 1
                    },
                    {
                        "duration": 0.07771369921874793,
                        "durationTicks": 63,
                        "midi": 47,
                        "name": "B2",
                        "ticks": 56832,
                        "time": 90.98346000000004,
                        "velocity": 1
                    },
                    {
                        "duration": 0.07771369921874793,
                        "durationTicks": 63,
                        "midi": 45,
                        "name": "A2",
                        "ticks": 56960,
                        "time": 91.14135450000003,
                        "velocity": 0.8267716535433071
                    },
                    {
                        "duration": 0.07771369921874793,
                        "durationTicks": 63,
                        "midi": 43,
                        "name": "G2",
                        "ticks": 57088,
                        "time": 91.29924900000003,
                        "velocity": 0.8267716535433071
                    },
                    {
                        "duration": 0.07771369921874793,
                        "durationTicks": 63,
                        "midi": 42,
                        "name": "F#2",
                        "ticks": 57216,
                        "time": 91.45714350000003,
                        "velocity": 0.8346456692913385
                    },
                    {
                        "duration": 0.07771369921874793,
                        "durationTicks": 63,
                        "midi": 38,
                        "name": "D2",
                        "ticks": 57344,
                        "time": 91.61503800000003,
                        "velocity": 1
                    },
                    {
                        "duration": 0.07771369921874793,
                        "durationTicks": 63,
                        "midi": 50,
                        "name": "D3",
                        "ticks": 57344,
                        "time": 91.61503800000003,
                        "velocity": 1
                    },
                    {
                        "duration": 0.07771369921876214,
                        "durationTicks": 63,
                        "midi": 49,
                        "name": "C#3",
                        "ticks": 57472,
                        "time": 91.77293250000002,
                        "velocity": 0.8503937007874016
                    },
                    {
                        "duration": 0.07771369921874793,
                        "durationTicks": 63,
                        "midi": 47,
                        "name": "B2",
                        "ticks": 57600,
                        "time": 91.93082700000004,
                        "velocity": 0.84251968503937
                    },
                    {
                        "duration": 0.07771369921874793,
                        "durationTicks": 63,
                        "midi": 45,
                        "name": "A2",
                        "ticks": 57728,
                        "time": 92.08872150000003,
                        "velocity": 0.8031496062992126
                    },
                    {
                        "duration": 0.07771369921874793,
                        "durationTicks": 63,
                        "midi": 38,
                        "name": "D2",
                        "ticks": 57856,
                        "time": 92.24661600000003,
                        "velocity": 1
                    },
                    {
                        "duration": 0.07771369921874793,
                        "durationTicks": 63,
                        "midi": 50,
                        "name": "D3",
                        "ticks": 57856,
                        "time": 92.24661600000003,
                        "velocity": 1
                    },
                    {
                        "duration": 0.07771369921874793,
                        "durationTicks": 63,
                        "midi": 49,
                        "name": "C#3",
                        "ticks": 57984,
                        "time": 92.40451050000003,
                        "velocity": 0.8661417322834646
                    },
                    {
                        "duration": 0.07771369921876214,
                        "durationTicks": 63,
                        "midi": 47,
                        "name": "B2",
                        "ticks": 58112,
                        "time": 92.56240500000003,
                        "velocity": 0.84251968503937
                    },
                    {
                        "duration": 0.07771369921874793,
                        "durationTicks": 63,
                        "midi": 45,
                        "name": "A2",
                        "ticks": 58240,
                        "time": 92.72029950000004,
                        "velocity": 0.8188976377952756
                    },
                    {
                        "duration": 0.07771369921874793,
                        "durationTicks": 63,
                        "midi": 42,
                        "name": "F#2",
                        "ticks": 58368,
                        "time": 92.87819400000004,
                        "velocity": 1
                    },
                    {
                        "duration": 0.07771369921874793,
                        "durationTicks": 63,
                        "midi": 54,
                        "name": "F#3",
                        "ticks": 58368,
                        "time": 92.87819400000004,
                        "velocity": 1
                    },
                    {
                        "duration": 0.07771369921874793,
                        "durationTicks": 63,
                        "midi": 52,
                        "name": "E3",
                        "ticks": 58496,
                        "time": 93.03608850000003,
                        "velocity": 0.84251968503937
                    },
                    {
                        "duration": 0.07771369921874793,
                        "durationTicks": 63,
                        "midi": 50,
                        "name": "D3",
                        "ticks": 58624,
                        "time": 93.19398300000003,
                        "velocity": 0.8503937007874016
                    },
                    {
                        "duration": 0.07771369921874793,
                        "durationTicks": 63,
                        "midi": 49,
                        "name": "C#3",
                        "ticks": 58752,
                        "time": 93.35187750000003,
                        "velocity": 0.8188976377952756
                    },
                    {
                        "duration": 0.07771369921874793,
                        "durationTicks": 63,
                        "midi": 42,
                        "name": "F#2",
                        "ticks": 58880,
                        "time": 93.50977200000003,
                        "velocity": 1
                    },
                    {
                        "duration": 0.07771369921874793,
                        "durationTicks": 63,
                        "midi": 54,
                        "name": "F#3",
                        "ticks": 58880,
                        "time": 93.50977200000003,
                        "velocity": 1
                    },
                    {
                        "duration": 0.07771369921876214,
                        "durationTicks": 63,
                        "midi": 52,
                        "name": "E3",
                        "ticks": 59008,
                        "time": 93.66766650000002,
                        "velocity": 0.8346456692913385
                    },
                    {
                        "duration": 0.07771369921874793,
                        "durationTicks": 63,
                        "midi": 50,
                        "name": "D3",
                        "ticks": 59136,
                        "time": 93.82556100000004,
                        "velocity": 0.8503937007874016
                    },
                    {
                        "duration": 0.07771369921874793,
                        "durationTicks": 63,
                        "midi": 49,
                        "name": "C#3",
                        "ticks": 59264,
                        "time": 93.98345550000003,
                        "velocity": 0.8267716535433071
                    },
                    {
                        "duration": 0.07771369921874793,
                        "durationTicks": 63,
                        "midi": 38,
                        "name": "D2",
                        "ticks": 59392,
                        "time": 94.14135000000003,
                        "velocity": 1
                    },
                    {
                        "duration": 0.07771369921874793,
                        "durationTicks": 63,
                        "midi": 50,
                        "name": "D3",
                        "ticks": 59392,
                        "time": 94.14135000000003,
                        "velocity": 1
                    },
                    {
                        "duration": 0.07771369921874793,
                        "durationTicks": 63,
                        "midi": 49,
                        "name": "C#3",
                        "ticks": 59520,
                        "time": 94.29924450000003,
                        "velocity": 0.8188976377952756
                    },
                    {
                        "duration": 0.07771369921876214,
                        "durationTicks": 63,
                        "midi": 50,
                        "name": "D3",
                        "ticks": 59648,
                        "time": 94.45713900000003,
                        "velocity": 0.9448818897637795
                    },
                    {
                        "duration": 0.07771369921874793,
                        "durationTicks": 63,
                        "midi": 52,
                        "name": "E3",
                        "ticks": 59776,
                        "time": 94.61503350000004,
                        "velocity": 0.937007874015748
                    },
                    {
                        "duration": 0.07771369921874793,
                        "durationTicks": 63,
                        "midi": 42,
                        "name": "F#2",
                        "ticks": 59904,
                        "time": 94.77292800000004,
                        "velocity": 1
                    },
                    {
                        "duration": 0.07771369921874793,
                        "durationTicks": 63,
                        "midi": 54,
                        "name": "F#3",
                        "ticks": 59904,
                        "time": 94.77292800000004,
                        "velocity": 1
                    },
                    {
                        "duration": 0.07771369921874793,
                        "durationTicks": 63,
                        "midi": 52,
                        "name": "E3",
                        "ticks": 60032,
                        "time": 94.93082250000003,
                        "velocity": 0.8110236220472441
                    },
                    {
                        "duration": 0.07771369921874793,
                        "durationTicks": 63,
                        "midi": 50,
                        "name": "D3",
                        "ticks": 60160,
                        "time": 95.08871700000003,
                        "velocity": 0.84251968503937
                    },
                    {
                        "duration": 0.07771369921874793,
                        "durationTicks": 63,
                        "midi": 49,
                        "name": "C#3",
                        "ticks": 60288,
                        "time": 95.24661150000003,
                        "velocity": 0.8188976377952756
                    },
                    {
                        "duration": 0.07771369921874793,
                        "durationTicks": 63,
                        "midi": 42,
                        "name": "F#2",
                        "ticks": 60416,
                        "time": 95.40450600000003,
                        "velocity": 1
                    },
                    {
                        "duration": 0.07771369921874793,
                        "durationTicks": 63,
                        "midi": 54,
                        "name": "F#3",
                        "ticks": 60416,
                        "time": 95.40450600000003,
                        "velocity": 1
                    },
                    {
                        "duration": 0.07771369921876214,
                        "durationTicks": 63,
                        "midi": 52,
                        "name": "E3",
                        "ticks": 60544,
                        "time": 95.56240050000002,
                        "velocity": 0.84251968503937
                    },
                    {
                        "duration": 0.07771369921874793,
                        "durationTicks": 63,
                        "midi": 50,
                        "name": "D3",
                        "ticks": 60672,
                        "time": 95.72029500000004,
                        "velocity": 0.8503937007874016
                    },
                    {
                        "duration": 0.07771369921874793,
                        "durationTicks": 63,
                        "midi": 49,
                        "name": "C#3",
                        "ticks": 60800,
                        "time": 95.87818950000003,
                        "velocity": 0.8267716535433071
                    },
                    {
                        "duration": 0.07771369921874793,
                        "durationTicks": 63,
                        "midi": 42,
                        "name": "F#2",
                        "ticks": 60928,
                        "time": 96.03608400000003,
                        "velocity": 1
                    },
                    {
                        "duration": 0.07771369921874793,
                        "durationTicks": 63,
                        "midi": 54,
                        "name": "F#3",
                        "ticks": 60928,
                        "time": 96.03608400000003,
                        "velocity": 1
                    },
                    {
                        "duration": 0.07771369921874793,
                        "durationTicks": 63,
                        "midi": 52,
                        "name": "E3",
                        "ticks": 61056,
                        "time": 96.19397850000003,
                        "velocity": 0.8346456692913385
                    },
                    {
                        "duration": 0.07771369921876214,
                        "durationTicks": 63,
                        "midi": 50,
                        "name": "D3",
                        "ticks": 61184,
                        "time": 96.35187300000003,
                        "velocity": 0.8503937007874016
                    },
                    {
                        "duration": 0.07771369921874793,
                        "durationTicks": 63,
                        "midi": 49,
                        "name": "C#3",
                        "ticks": 61312,
                        "time": 96.50976750000004,
                        "velocity": 0.8267716535433071
                    },
                    {
                        "duration": 0.07771369921874793,
                        "durationTicks": 63,
                        "midi": 38,
                        "name": "D2",
                        "ticks": 61440,
                        "time": 96.66766200000004,
                        "velocity": 1
                    },
                    {
                        "duration": 0.07771369921874793,
                        "durationTicks": 63,
                        "midi": 50,
                        "name": "D3",
                        "ticks": 61440,
                        "time": 96.66766200000004,
                        "velocity": 1
                    },
                    {
                        "duration": 0.07771369921874793,
                        "durationTicks": 63,
                        "midi": 49,
                        "name": "C#3",
                        "ticks": 61568,
                        "time": 96.82555650000003,
                        "velocity": 0.8267716535433071
                    },
                    {
                        "duration": 0.07771369921874793,
                        "durationTicks": 63,
                        "midi": 50,
                        "name": "D3",
                        "ticks": 61696,
                        "time": 96.98345100000003,
                        "velocity": 0.9133858267716536
                    },
                    {
                        "duration": 0.07771369921874793,
                        "durationTicks": 63,
                        "midi": 52,
                        "name": "E3",
                        "ticks": 61824,
                        "time": 97.14134550000003,
                        "velocity": 0.9133858267716536
                    },
                    {
                        "duration": 0.07771369921874793,
                        "durationTicks": 63,
                        "midi": 42,
                        "name": "F#2",
                        "ticks": 61952,
                        "time": 97.29924000000003,
                        "velocity": 1
                    },
                    {
                        "duration": 0.07771369921874793,
                        "durationTicks": 63,
                        "midi": 54,
                        "name": "F#3",
                        "ticks": 61952,
                        "time": 97.29924000000003,
                        "velocity": 1
                    },
                    {
                        "duration": 0.07771369921876214,
                        "durationTicks": 63,
                        "midi": 52,
                        "name": "E3",
                        "ticks": 62080,
                        "time": 97.45713450000002,
                        "velocity": 0.8267716535433071
                    },
                    {
                        "duration": 0.07771369921874793,
                        "durationTicks": 63,
                        "midi": 50,
                        "name": "D3",
                        "ticks": 62208,
                        "time": 97.61502900000004,
                        "velocity": 0.84251968503937
                    },
                    {
                        "duration": 0.07771369921874793,
                        "durationTicks": 63,
                        "midi": 49,
                        "name": "C#3",
                        "ticks": 62336,
                        "time": 97.77292350000003,
                        "velocity": 0.8110236220472441
                    },
                    {
                        "duration": 0.07771369921874793,
                        "durationTicks": 63,
                        "midi": 42,
                        "name": "F#2",
                        "ticks": 62464,
                        "time": 97.93081800000003,
                        "velocity": 1
                    },
                    {
                        "duration": 0.07771369921874793,
                        "durationTicks": 63,
                        "midi": 54,
                        "name": "F#3",
                        "ticks": 62464,
                        "time": 97.93081800000003,
                        "velocity": 1
                    },
                    {
                        "duration": 0.07771369921874793,
                        "durationTicks": 63,
                        "midi": 53,
                        "name": "F3",
                        "ticks": 62592,
                        "time": 98.08871250000003,
                        "velocity": 0.8582677165354331
                    },
                    {
                        "duration": 0.07771369921876214,
                        "durationTicks": 63,
                        "midi": 51,
                        "name": "D#3",
                        "ticks": 62720,
                        "time": 98.24660700000003,
                        "velocity": 0.8346456692913385
                    },
                    {
                        "duration": 0.07771369921874793,
                        "durationTicks": 63,
                        "midi": 49,
                        "name": "C#3",
                        "ticks": 62848,
                        "time": 98.40450150000004,
                        "velocity": 0.8188976377952756
                    },
                    {
                        "duration": 0.07771369921874793,
                        "durationTicks": 63,
                        "midi": 42,
                        "name": "F#2",
                        "ticks": 62976,
                        "time": 98.56239600000004,
                        "velocity": 1
                    },
                    {
                        "duration": 0.07771369921874793,
                        "durationTicks": 63,
                        "midi": 54,
                        "name": "F#3",
                        "ticks": 62976,
                        "time": 98.56239600000004,
                        "velocity": 1
                    },
                    {
                        "duration": 0.07771369921874793,
                        "durationTicks": 63,
                        "midi": 53,
                        "name": "F3",
                        "ticks": 63104,
                        "time": 98.72029050000003,
                        "velocity": 0.8346456692913385
                    },
                    {
                        "duration": 0.07771369921874793,
                        "durationTicks": 63,
                        "midi": 51,
                        "name": "D#3",
                        "ticks": 63232,
                        "time": 98.87818500000003,
                        "velocity": 0.8582677165354331
                    },
                    {
                        "duration": 0.07771369921874793,
                        "durationTicks": 63,
                        "midi": 49,
                        "name": "C#3",
                        "ticks": 63360,
                        "time": 99.03607950000003,
                        "velocity": 0.8110236220472441
                    },
                    {
                        "duration": 0.07771369921874793,
                        "durationTicks": 63,
                        "midi": 39,
                        "name": "D#2",
                        "ticks": 63488,
                        "time": 99.19397400000003,
                        "velocity": 1
                    },
                    {
                        "duration": 0.07771369921874793,
                        "durationTicks": 63,
                        "midi": 51,
                        "name": "D#3",
                        "ticks": 63488,
                        "time": 99.19397400000003,
                        "velocity": 1
                    },
                    {
                        "duration": 0.07771369921876214,
                        "durationTicks": 63,
                        "midi": 49,
                        "name": "C#3",
                        "ticks": 63616,
                        "time": 99.35186850000002,
                        "velocity": 0.8188976377952756
                    },
                    {
                        "duration": 0.07771369921874793,
                        "durationTicks": 63,
                        "midi": 51,
                        "name": "D#3",
                        "ticks": 63744,
                        "time": 99.50976300000004,
                        "velocity": 0.937007874015748
                    },
                    {
                        "duration": 0.07771369921874793,
                        "durationTicks": 63,
                        "midi": 53,
                        "name": "F3",
                        "ticks": 63872,
                        "time": 99.66765750000003,
                        "velocity": 0.9212598425196851
                    },
                    {
                        "duration": 0.07771369921874793,
                        "durationTicks": 63,
                        "midi": 42,
                        "name": "F#2",
                        "ticks": 64000,
                        "time": 99.82555200000003,
                        "velocity": 1
                    },
                    {
                        "duration": 0.07771369921874793,
                        "durationTicks": 63,
                        "midi": 54,
                        "name": "F#3",
                        "ticks": 64000,
                        "time": 99.82555200000003,
                        "velocity": 1
                    },
                    {
                        "duration": 0.07771369921876214,
                        "durationTicks": 63,
                        "midi": 53,
                        "name": "F3",
                        "ticks": 64128,
                        "time": 99.98344650000003,
                        "velocity": 0.8503937007874016
                    },
                    {
                        "duration": 0.07771369921874793,
                        "durationTicks": 63,
                        "midi": 51,
                        "name": "D#3",
                        "ticks": 64256,
                        "time": 100.14134100000004,
                        "velocity": 0.8267716535433071
                    },
                    {
                        "duration": 0.07771369921874793,
                        "durationTicks": 63,
                        "midi": 49,
                        "name": "C#3",
                        "ticks": 64384,
                        "time": 100.29923550000004,
                        "velocity": 0.7952755905511811
                    },
                    {
                        "duration": 0.07771369921874793,
                        "durationTicks": 63,
                        "midi": 42,
                        "name": "F#2",
                        "ticks": 64512,
                        "time": 100.45713000000003,
                        "velocity": 1
                    },
                    {
                        "duration": 0.07771369921874793,
                        "durationTicks": 63,
                        "midi": 54,
                        "name": "F#3",
                        "ticks": 64512,
                        "time": 100.45713000000003,
                        "velocity": 1
                    },
                    {
                        "duration": 0.07771369921874793,
                        "durationTicks": 63,
                        "midi": 53,
                        "name": "F3",
                        "ticks": 64640,
                        "time": 100.61502450000003,
                        "velocity": 0.8503937007874016
                    },
                    {
                        "duration": 0.07771369921874793,
                        "durationTicks": 63,
                        "midi": 51,
                        "name": "D#3",
                        "ticks": 64768,
                        "time": 100.77291900000003,
                        "velocity": 0.84251968503937
                    },
                    {
                        "duration": 0.07771369921874793,
                        "durationTicks": 63,
                        "midi": 49,
                        "name": "C#3",
                        "ticks": 64896,
                        "time": 100.93081350000003,
                        "velocity": 0.8188976377952756
                    },
                    {
                        "duration": 0.07771369921874793,
                        "durationTicks": 63,
                        "midi": 42,
                        "name": "F#2",
                        "ticks": 65024,
                        "time": 101.08870800000003,
                        "velocity": 1
                    },
                    {
                        "duration": 0.07771369921874793,
                        "durationTicks": 63,
                        "midi": 54,
                        "name": "F#3",
                        "ticks": 65024,
                        "time": 101.08870800000003,
                        "velocity": 1
                    },
                    {
                        "duration": 0.07771369921876214,
                        "durationTicks": 63,
                        "midi": 53,
                        "name": "F3",
                        "ticks": 65152,
                        "time": 101.24660250000002,
                        "velocity": 0.8503937007874016
                    },
                    {
                        "duration": 0.07771369921874793,
                        "durationTicks": 63,
                        "midi": 51,
                        "name": "D#3",
                        "ticks": 65280,
                        "time": 101.40449700000003,
                        "velocity": 0.8582677165354331
                    },
                    {
                        "duration": 0.07771369921874793,
                        "durationTicks": 63,
                        "midi": 49,
                        "name": "C#3",
                        "ticks": 65408,
                        "time": 101.56239150000003,
                        "velocity": 0.8267716535433071
                    },
                    {
                        "duration": 0.07771369921874793,
                        "durationTicks": 63,
                        "midi": 39,
                        "name": "D#2",
                        "ticks": 65536,
                        "time": 101.72028600000003,
                        "velocity": 1
                    },
                    {
                        "duration": 0.07771369921874793,
                        "durationTicks": 63,
                        "midi": 51,
                        "name": "D#3",
                        "ticks": 65536,
                        "time": 101.72028600000003,
                        "velocity": 1
                    },
                    {
                        "duration": 0.07771369921876214,
                        "durationTicks": 63,
                        "midi": 49,
                        "name": "C#3",
                        "ticks": 65664,
                        "time": 101.87818050000003,
                        "velocity": 0.8110236220472441
                    },
                    {
                        "duration": 0.07771369921874793,
                        "durationTicks": 63,
                        "midi": 51,
                        "name": "D#3",
                        "ticks": 65792,
                        "time": 102.03607500000004,
                        "velocity": 0.952755905511811
                    },
                    {
                        "duration": 0.07771369921874793,
                        "durationTicks": 63,
                        "midi": 53,
                        "name": "F3",
                        "ticks": 65920,
                        "time": 102.19396950000004,
                        "velocity": 0.9212598425196851
                    },
                    {
                        "duration": 0.07771369921874793,
                        "durationTicks": 63,
                        "midi": 42,
                        "name": "F#2",
                        "ticks": 66048,
                        "time": 102.35186400000003,
                        "velocity": 1
                    },
                    {
                        "duration": 0.07771369921874793,
                        "durationTicks": 63,
                        "midi": 54,
                        "name": "F#3",
                        "ticks": 66048,
                        "time": 102.35186400000003,
                        "velocity": 1
                    },
                    {
                        "duration": 0.07771369921874793,
                        "durationTicks": 63,
                        "midi": 53,
                        "name": "F3",
                        "ticks": 66176,
                        "time": 102.50975850000003,
                        "velocity": 0.8267716535433071
                    },
                    {
                        "duration": 0.07771369921874793,
                        "durationTicks": 63,
                        "midi": 51,
                        "name": "D#3",
                        "ticks": 66304,
                        "time": 102.66765300000003,
                        "velocity": 0.8503937007874016
                    },
                    {
                        "duration": 0.07771369921874793,
                        "durationTicks": 63,
                        "midi": 49,
                        "name": "C#3",
                        "ticks": 66432,
                        "time": 102.82554750000003,
                        "velocity": 0.7952755905511811
                    },
                    {
                        "duration": 0.07382812500000568,
                        "durationTicks": 63,
                        "midi": 35,
                        "name": "B1",
                        "ticks": 66560,
                        "time": 102.98344200000003,
                        "velocity": 0.937007874015748
                    },
                    {
                        "duration": 0.07382812500000568,
                        "durationTicks": 63,
                        "midi": 47,
                        "name": "B2",
                        "ticks": 66560,
                        "time": 102.98344200000003,
                        "velocity": 0.952755905511811
                    },
                    {
                        "duration": 0.07382812499999147,
                        "durationTicks": 63,
                        "midi": 45,
                        "name": "A2",
                        "ticks": 66688,
                        "time": 103.13344200000003,
                        "velocity": 0.8110236220472441
                    },
                    {
                        "duration": 0.07382812500000568,
                        "durationTicks": 63,
                        "midi": 43,
                        "name": "G2",
                        "ticks": 66816,
                        "time": 103.28344200000002,
                        "velocity": 0.84251968503937
                    },
                    {
                        "duration": 0.07382812499999147,
                        "durationTicks": 63,
                        "midi": 42,
                        "name": "F#2",
                        "ticks": 66944,
                        "time": 103.43344200000003,
                        "velocity": 0.8346456692913385
                    },
                    {
                        "duration": 0.07382812500000568,
                        "durationTicks": 63,
                        "midi": 35,
                        "name": "B1",
                        "ticks": 67072,
                        "time": 103.58344200000002,
                        "velocity": 1
                    },
                    {
                        "duration": 0.07382812500000568,
                        "durationTicks": 63,
                        "midi": 47,
                        "name": "B2",
                        "ticks": 67072,
                        "time": 103.58344200000002,
                        "velocity": 1
                    },
                    {
                        "duration": 0.07382812500000568,
                        "durationTicks": 63,
                        "midi": 45,
                        "name": "A2",
                        "ticks": 67200,
                        "time": 103.73344200000003,
                        "velocity": 0.8346456692913385
                    },
                    {
                        "duration": 0.07382812499999147,
                        "durationTicks": 63,
                        "midi": 43,
                        "name": "G2",
                        "ticks": 67328,
                        "time": 103.88344200000003,
                        "velocity": 0.8582677165354331
                    },
                    {
                        "duration": 0.07382812500000568,
                        "durationTicks": 63,
                        "midi": 42,
                        "name": "F#2",
                        "ticks": 67456,
                        "time": 104.03344200000002,
                        "velocity": 0.8188976377952756
                    },
                    {
                        "duration": 0.07382812499999147,
                        "durationTicks": 63,
                        "midi": 35,
                        "name": "B1",
                        "ticks": 67584,
                        "time": 104.18344200000003,
                        "velocity": 1
                    },
                    {
                        "duration": 0.07382812499999147,
                        "durationTicks": 63,
                        "midi": 47,
                        "name": "B2",
                        "ticks": 67584,
                        "time": 104.18344200000003,
                        "velocity": 1
                    },
                    {
                        "duration": 0.07382812500000568,
                        "durationTicks": 63,
                        "midi": 45,
                        "name": "A2",
                        "ticks": 67712,
                        "time": 104.33344200000002,
                        "velocity": 0.8346456692913385
                    },
                    {
                        "duration": 0.07382812500000568,
                        "durationTicks": 63,
                        "midi": 43,
                        "name": "G2",
                        "ticks": 67840,
                        "time": 104.48344200000003,
                        "velocity": 0.8582677165354331
                    },
                    {
                        "duration": 0.07382812499999147,
                        "durationTicks": 63,
                        "midi": 42,
                        "name": "F#2",
                        "ticks": 67968,
                        "time": 104.63344200000003,
                        "velocity": 0.8267716535433071
                    },
                    {
                        "duration": 0.07382812500000568,
                        "durationTicks": 63,
                        "midi": 35,
                        "name": "B1",
                        "ticks": 68096,
                        "time": 104.78344200000002,
                        "velocity": 1
                    },
                    {
                        "duration": 0.07382812500000568,
                        "durationTicks": 63,
                        "midi": 47,
                        "name": "B2",
                        "ticks": 68096,
                        "time": 104.78344200000002,
                        "velocity": 1
                    },
                    {
                        "duration": 0.07382812499999147,
                        "durationTicks": 63,
                        "midi": 45,
                        "name": "A2",
                        "ticks": 68224,
                        "time": 104.93344200000003,
                        "velocity": 0.8503937007874016
                    },
                    {
                        "duration": 0.07382812500000568,
                        "durationTicks": 63,
                        "midi": 43,
                        "name": "G2",
                        "ticks": 68352,
                        "time": 105.08344200000002,
                        "velocity": 0.8503937007874016
                    },
                    {
                        "duration": 0.07382812500000568,
                        "durationTicks": 63,
                        "midi": 42,
                        "name": "F#2",
                        "ticks": 68480,
                        "time": 105.23344200000003,
                        "velocity": 0.8267716535433071
                    },
                    {
                        "duration": 0.07382812499999147,
                        "durationTicks": 63,
                        "midi": 35,
                        "name": "B1",
                        "ticks": 68608,
                        "time": 105.38344200000003,
                        "velocity": 1
                    },
                    {
                        "duration": 0.07382812499999147,
                        "durationTicks": 63,
                        "midi": 47,
                        "name": "B2",
                        "ticks": 68608,
                        "time": 105.38344200000003,
                        "velocity": 1
                    },
                    {
                        "duration": 0.07382812500000568,
                        "durationTicks": 63,
                        "midi": 45,
                        "name": "A2",
                        "ticks": 68736,
                        "time": 105.53344200000002,
                        "velocity": 0.8267716535433071
                    },
                    {
                        "duration": 0.07382812499999147,
                        "durationTicks": 63,
                        "midi": 43,
                        "name": "G2",
                        "ticks": 68864,
                        "time": 105.68344200000003,
                        "velocity": 0.84251968503937
                    },
                    {
                        "duration": 0.07382812500000568,
                        "durationTicks": 63,
                        "midi": 42,
                        "name": "F#2",
                        "ticks": 68992,
                        "time": 105.83344200000002,
                        "velocity": 0.8031496062992126
                    },
                    {
                        "duration": 0.07382812500000568,
                        "durationTicks": 63,
                        "midi": 35,
                        "name": "B1",
                        "ticks": 69120,
                        "time": 105.98344200000003,
                        "velocity": 1
                    },
                    {
                        "duration": 0.07382812500000568,
                        "durationTicks": 63,
                        "midi": 47,
                        "name": "B2",
                        "ticks": 69120,
                        "time": 105.98344200000003,
                        "velocity": 1
                    },
                    {
                        "duration": 0.07382812499999147,
                        "durationTicks": 63,
                        "midi": 45,
                        "name": "A2",
                        "ticks": 69248,
                        "time": 106.13344200000003,
                        "velocity": 0.8503937007874016
                    },
                    {
                        "duration": 0.07382812500000568,
                        "durationTicks": 63,
                        "midi": 43,
                        "name": "G2",
                        "ticks": 69376,
                        "time": 106.28344200000002,
                        "velocity": 0.84251968503937
                    },
                    {
                        "duration": 0.07382812499999147,
                        "durationTicks": 63,
                        "midi": 42,
                        "name": "F#2",
                        "ticks": 69504,
                        "time": 106.43344200000003,
                        "velocity": 0.8346456692913385
                    },
                    {
                        "duration": 0.07382812500000568,
                        "durationTicks": 63,
                        "midi": 38,
                        "name": "D2",
                        "ticks": 69632,
                        "time": 106.58344200000002,
                        "velocity": 1
                    },
                    {
                        "duration": 0.07382812500000568,
                        "durationTicks": 63,
                        "midi": 50,
                        "name": "D3",
                        "ticks": 69632,
                        "time": 106.58344200000002,
                        "velocity": 1
                    },
                    {
                        "duration": 0.07382812500000568,
                        "durationTicks": 63,
                        "midi": 49,
                        "name": "C#3",
                        "ticks": 69760,
                        "time": 106.73344200000003,
                        "velocity": 0.8582677165354331
                    },
                    {
                        "duration": 0.07382812499999147,
                        "durationTicks": 63,
                        "midi": 47,
                        "name": "B2",
                        "ticks": 69888,
                        "time": 106.88344200000003,
                        "velocity": 0.84251968503937
                    },
                    {
                        "duration": 0.07382812500000568,
                        "durationTicks": 63,
                        "midi": 45,
                        "name": "A2",
                        "ticks": 70016,
                        "time": 107.03344200000002,
                        "velocity": 0.8110236220472441
                    },
                    {
                        "duration": 0.07382812499999147,
                        "durationTicks": 63,
                        "midi": 38,
                        "name": "D2",
                        "ticks": 70144,
                        "time": 107.18344200000003,
                        "velocity": 1
                    },
                    {
                        "duration": 0.07382812499999147,
                        "durationTicks": 63,
                        "midi": 50,
                        "name": "D3",
                        "ticks": 70144,
                        "time": 107.18344200000003,
                        "velocity": 1
                    },
                    {
                        "duration": 0.07382812500000568,
                        "durationTicks": 63,
                        "midi": 49,
                        "name": "C#3",
                        "ticks": 70272,
                        "time": 107.33344200000002,
                        "velocity": 0.8582677165354331
                    },
                    {
                        "duration": 0.07382812500000568,
                        "durationTicks": 63,
                        "midi": 47,
                        "name": "B2",
                        "ticks": 70400,
                        "time": 107.48344200000003,
                        "velocity": 0.8503937007874016
                    },
                    {
                        "duration": 0.07382812499999147,
                        "durationTicks": 63,
                        "midi": 45,
                        "name": "A2",
                        "ticks": 70528,
                        "time": 107.63344200000003,
                        "velocity": 0.8110236220472441
                    },
                    {
                        "duration": 0.07202721093750597,
                        "durationTicks": 63,
                        "midi": 35,
                        "name": "B1",
                        "ticks": 70656,
                        "time": 107.78344200000002,
                        "velocity": 1
                    },
                    {
                        "duration": 0.07202721093750597,
                        "durationTicks": 63,
                        "midi": 47,
                        "name": "B2",
                        "ticks": 70656,
                        "time": 107.78344200000002,
                        "velocity": 1
                    },
                    {
                        "duration": 0.07202721093749176,
                        "durationTicks": 63,
                        "midi": 45,
                        "name": "A2",
                        "ticks": 70784,
                        "time": 107.92978300000003,
                        "velocity": 0.8110236220472441
                    },
                    {
                        "duration": 0.07202721093750597,
                        "durationTicks": 63,
                        "midi": 43,
                        "name": "G2",
                        "ticks": 70912,
                        "time": 108.07612400000002,
                        "velocity": 0.84251968503937
                    },
                    {
                        "duration": 0.07202721093749176,
                        "durationTicks": 63,
                        "midi": 42,
                        "name": "F#2",
                        "ticks": 71040,
                        "time": 108.22246500000003,
                        "velocity": 0.8110236220472441
                    },
                    {
                        "duration": 0.07202721093750597,
                        "durationTicks": 63,
                        "midi": 35,
                        "name": "B1",
                        "ticks": 71168,
                        "time": 108.36880600000002,
                        "velocity": 1
                    },
                    {
                        "duration": 0.07202721093750597,
                        "durationTicks": 63,
                        "midi": 47,
                        "name": "B2",
                        "ticks": 71168,
                        "time": 108.36880600000002,
                        "velocity": 1
                    },
                    {
                        "duration": 0.07202721093749176,
                        "durationTicks": 63,
                        "midi": 45,
                        "name": "A2",
                        "ticks": 71296,
                        "time": 108.51514700000003,
                        "velocity": 0.8188976377952756
                    },
                    {
                        "duration": 0.07202721093750597,
                        "durationTicks": 63,
                        "midi": 43,
                        "name": "G2",
                        "ticks": 71424,
                        "time": 108.66148800000002,
                        "velocity": 0.84251968503937
                    },
                    {
                        "duration": 0.07202721093749176,
                        "durationTicks": 63,
                        "midi": 42,
                        "name": "F#2",
                        "ticks": 71552,
                        "time": 108.80782900000003,
                        "velocity": 0.8188976377952756
                    },
                    {
                        "duration": 0.07202721093750597,
                        "durationTicks": 63,
                        "midi": 35,
                        "name": "B1",
                        "ticks": 71680,
                        "time": 108.95417000000002,
                        "velocity": 1
                    },
                    {
                        "duration": 0.07202721093750597,
                        "durationTicks": 63,
                        "midi": 47,
                        "name": "B2",
                        "ticks": 71680,
                        "time": 108.95417000000002,
                        "velocity": 1
                    },
                    {
                        "duration": 0.07202721093749176,
                        "durationTicks": 63,
                        "midi": 45,
                        "name": "A2",
                        "ticks": 71808,
                        "time": 109.10051100000003,
                        "velocity": 0.8267716535433071
                    },
                    {
                        "duration": 0.07202721093750597,
                        "durationTicks": 63,
                        "midi": 43,
                        "name": "G2",
                        "ticks": 71936,
                        "time": 109.24685200000002,
                        "velocity": 0.8503937007874016
                    },
                    {
                        "duration": 0.07202721093749176,
                        "durationTicks": 63,
                        "midi": 42,
                        "name": "F#2",
                        "ticks": 72064,
                        "time": 109.39319300000002,
                        "velocity": 0.8188976377952756
                    },
                    {
                        "duration": 0.07202721093750597,
                        "durationTicks": 63,
                        "midi": 35,
                        "name": "B1",
                        "ticks": 72192,
                        "time": 109.53953400000002,
                        "velocity": 1
                    },
                    {
                        "duration": 0.07202721093750597,
                        "durationTicks": 63,
                        "midi": 47,
                        "name": "B2",
                        "ticks": 72192,
                        "time": 109.53953400000002,
                        "velocity": 1
                    },
                    {
                        "duration": 0.07202721093749176,
                        "durationTicks": 63,
                        "midi": 45,
                        "name": "A2",
                        "ticks": 72320,
                        "time": 109.68587500000002,
                        "velocity": 0.8346456692913385
                    },
                    {
                        "duration": 0.07202721093750597,
                        "durationTicks": 63,
                        "midi": 43,
                        "name": "G2",
                        "ticks": 72448,
                        "time": 109.83221600000002,
                        "velocity": 0.8503937007874016
                    },
                    {
                        "duration": 0.07202721093750597,
                        "durationTicks": 63,
                        "midi": 42,
                        "name": "F#2",
                        "ticks": 72576,
                        "time": 109.97855700000002,
                        "velocity": 0.8267716535433071
                    },
                    {
                        "duration": 0.07202721093750597,
                        "durationTicks": 63,
                        "midi": 35,
                        "name": "B1",
                        "ticks": 72704,
                        "time": 110.12489800000002,
                        "velocity": 1
                    },
                    {
                        "duration": 0.07202721093750597,
                        "durationTicks": 63,
                        "midi": 47,
                        "name": "B2",
                        "ticks": 72704,
                        "time": 110.12489800000002,
                        "velocity": 1
                    },
                    {
                        "duration": 0.07202721093750597,
                        "durationTicks": 63,
                        "midi": 45,
                        "name": "A2",
                        "ticks": 72832,
                        "time": 110.27123900000002,
                        "velocity": 0.8267716535433071
                    },
                    {
                        "duration": 0.07202721093750597,
                        "durationTicks": 63,
                        "midi": 43,
                        "name": "G2",
                        "ticks": 72960,
                        "time": 110.41758000000002,
                        "velocity": 0.8503937007874016
                    },
                    {
                        "duration": 0.07202721093750597,
                        "durationTicks": 63,
                        "midi": 42,
                        "name": "F#2",
                        "ticks": 73088,
                        "time": 110.56392100000002,
                        "velocity": 0.8346456692913385
                    },
                    {
                        "duration": 0.07031242968750462,
                        "durationTicks": 63,
                        "midi": 35,
                        "name": "B1",
                        "ticks": 73216,
                        "time": 110.71026200000003,
                        "velocity": 1
                    },
                    {
                        "duration": 0.07031242968750462,
                        "durationTicks": 63,
                        "midi": 47,
                        "name": "B2",
                        "ticks": 73216,
                        "time": 110.71026200000003,
                        "velocity": 1
                    },
                    {
                        "duration": 0.07031242968749041,
                        "durationTicks": 63,
                        "midi": 45,
                        "name": "A2",
                        "ticks": 73344,
                        "time": 110.85311900000004,
                        "velocity": 0.84251968503937
                    },
                    {
                        "duration": 0.06867713671874753,
                        "durationTicks": 63,
                        "midi": 43,
                        "name": "G2",
                        "ticks": 73472,
                        "time": 110.99597600000003,
                        "velocity": 0.8346456692913385
                    },
                    {
                        "duration": 0.06867713671874753,
                        "durationTicks": 63,
                        "midi": 42,
                        "name": "F#2",
                        "ticks": 73600,
                        "time": 111.13551050000002,
                        "velocity": 0.8346456692913385
                    },
                    {
                        "duration": 0.06711641015624537,
                        "durationTicks": 63,
                        "midi": 35,
                        "name": "B1",
                        "ticks": 73728,
                        "time": 111.27504500000003,
                        "velocity": 1
                    },
                    {
                        "duration": 0.06711641015624537,
                        "durationTicks": 63,
                        "midi": 47,
                        "name": "B2",
                        "ticks": 73728,
                        "time": 111.27504500000003,
                        "velocity": 1
                    },
                    {
                        "duration": 0.06711641015624537,
                        "durationTicks": 63,
                        "midi": 45,
                        "name": "A2",
                        "ticks": 73856,
                        "time": 111.41140850000004,
                        "velocity": 0.8346456692913385
                    },
                    {
                        "duration": 0.06711641015624537,
                        "durationTicks": 63,
                        "midi": 43,
                        "name": "G2",
                        "ticks": 73984,
                        "time": 111.54777200000004,
                        "velocity": 0.8346456692913385
                    },
                    {
                        "duration": 0.06711641015624537,
                        "durationTicks": 63,
                        "midi": 42,
                        "name": "F#2",
                        "ticks": 74112,
                        "time": 111.68413550000004,
                        "velocity": 0.8267716535433071
                    },
                    {
                        "duration": 0.06711641015624537,
                        "durationTicks": 63,
                        "midi": 35,
                        "name": "B1",
                        "ticks": 74240,
                        "time": 111.82049900000004,
                        "velocity": 1
                    },
                    {
                        "duration": 0.06711641015624537,
                        "durationTicks": 63,
                        "midi": 47,
                        "name": "B2",
                        "ticks": 74240,
                        "time": 111.82049900000004,
                        "velocity": 1
                    },
                    {
                        "duration": 0.06711641015625958,
                        "durationTicks": 63,
                        "midi": 45,
                        "name": "A2",
                        "ticks": 74368,
                        "time": 111.95686250000003,
                        "velocity": 0.8503937007874016
                    },
                    {
                        "duration": 0.06711641015625958,
                        "durationTicks": 63,
                        "midi": 43,
                        "name": "G2",
                        "ticks": 74496,
                        "time": 112.09322600000003,
                        "velocity": 0.8503937007874016
                    },
                    {
                        "duration": 0.06711641015625958,
                        "durationTicks": 63,
                        "midi": 42,
                        "name": "F#2",
                        "ticks": 74624,
                        "time": 112.22958950000003,
                        "velocity": 0.8110236220472441
                    },
                    {
                        "duration": 0.2082329648437451,
                        "durationTicks": 231,
                        "midi": 35,
                        "name": "B1",
                        "ticks": 74752,
                        "time": 112.36595300000003,
                        "velocity": 0.9921259842519685
                    },
                    {
                        "duration": 0.2082329648437451,
                        "durationTicks": 231,
                        "midi": 47,
                        "name": "B2",
                        "ticks": 74752,
                        "time": 112.36595300000003,
                        "velocity": 1
                    },
                    {
                        "duration": 0.11358161718750637,
                        "durationTicks": 126,
                        "midi": 50,
                        "name": "D3",
                        "ticks": 75008,
                        "time": 112.59672200000003,
                        "velocity": 1
                    },
                    {
                        "duration": 0.11358161718750637,
                        "durationTicks": 126,
                        "midi": 53,
                        "name": "F3",
                        "ticks": 75008,
                        "time": 112.59672200000003,
                        "velocity": 1
                    },
                    {
                        "duration": 0.11358161718750637,
                        "durationTicks": 126,
                        "midi": 56,
                        "name": "G#3",
                        "ticks": 75008,
                        "time": 112.59672200000003,
                        "velocity": 0.984251968503937
                    },
                    {
                        "duration": 0.11358161718750637,
                        "durationTicks": 126,
                        "midi": 59,
                        "name": "B3",
                        "ticks": 75008,
                        "time": 112.59672200000003,
                        "velocity": 0.9921259842519685
                    },
                    {
                        "duration": 0.2082329648437593,
                        "durationTicks": 231,
                        "midi": 35,
                        "name": "B1",
                        "ticks": 75776,
                        "time": 113.28902900000003,
                        "velocity": 0.8110236220472441
                    },
                    {
                        "duration": 0.2082329648437593,
                        "durationTicks": 231,
                        "midi": 47,
                        "name": "B2",
                        "ticks": 75776,
                        "time": 113.28902900000003,
                        "velocity": 0.7952755905511811
                    },
                    {
                        "duration": 0.11358161718749216,
                        "durationTicks": 126,
                        "midi": 50,
                        "name": "D3",
                        "ticks": 76032,
                        "time": 113.51979800000004,
                        "velocity": 1
                    },
                    {
                        "duration": 0.11358161718749216,
                        "durationTicks": 126,
                        "midi": 54,
                        "name": "F#3",
                        "ticks": 76032,
                        "time": 113.51979800000004,
                        "velocity": 1
                    },
                    {
                        "duration": 0.11358161718749216,
                        "durationTicks": 126,
                        "midi": 59,
                        "name": "B3",
                        "ticks": 76032,
                        "time": 113.51979800000004,
                        "velocity": 1
                    },
                    {
                        "duration": 0.2082329648437451,
                        "durationTicks": 231,
                        "midi": 43,
                        "name": "G2",
                        "ticks": 76800,
                        "time": 114.21210500000004,
                        "velocity": 0.7637795275590551
                    },
                    {
                        "duration": 0.2082329648437451,
                        "durationTicks": 231,
                        "midi": 55,
                        "name": "G3",
                        "ticks": 76800,
                        "time": 114.21210500000004,
                        "velocity": 0.7637795275590551
                    },
                    {
                        "duration": 0.2082329648437451,
                        "durationTicks": 231,
                        "midi": 50,
                        "name": "D3",
                        "ticks": 77056,
                        "time": 114.44287400000003,
                        "velocity": 0.7322834645669292
                    },
                    {
                        "duration": 0.2082329648437451,
                        "durationTicks": 231,
                        "midi": 55,
                        "name": "G3",
                        "ticks": 77056,
                        "time": 114.44287400000003,
                        "velocity": 0.7244094488188977
                    },
                    {
                        "duration": 0.2082329648437451,
                        "durationTicks": 231,
                        "midi": 59,
                        "name": "B3",
                        "ticks": 77056,
                        "time": 114.44287400000003,
                        "velocity": 0.7322834645669292
                    },
                    {
                        "duration": 0.2082329648437593,
                        "durationTicks": 231,
                        "midi": 42,
                        "name": "F#2",
                        "ticks": 77312,
                        "time": 114.67364300000003,
                        "velocity": 0.7795275590551181
                    },
                    {
                        "duration": 0.2082329648437593,
                        "durationTicks": 231,
                        "midi": 54,
                        "name": "F#3",
                        "ticks": 77312,
                        "time": 114.67364300000003,
                        "velocity": 0.8031496062992126
                    },
                    {
                        "duration": 0.2082329648437451,
                        "durationTicks": 231,
                        "midi": 50,
                        "name": "D3",
                        "ticks": 77568,
                        "time": 114.90441200000004,
                        "velocity": 0.8346456692913385
                    },
                    {
                        "duration": 0.2082329648437451,
                        "durationTicks": 231,
                        "midi": 54,
                        "name": "F#3",
                        "ticks": 77568,
                        "time": 114.90441200000004,
                        "velocity": 0.8346456692913385
                    },
                    {
                        "duration": 0.2082329648437451,
                        "durationTicks": 231,
                        "midi": 59,
                        "name": "B3",
                        "ticks": 77568,
                        "time": 114.90441200000004,
                        "velocity": 0.8503937007874016
                    },
                    {
                        "duration": 0.2082329648437451,
                        "durationTicks": 231,
                        "midi": 30,
                        "name": "F#1",
                        "ticks": 77824,
                        "time": 115.13518100000003,
                        "velocity": 0.7637795275590551
                    },
                    {
                        "duration": 0.2082329648437451,
                        "durationTicks": 231,
                        "midi": 42,
                        "name": "F#2",
                        "ticks": 77824,
                        "time": 115.13518100000003,
                        "velocity": 0.7401574803149606
                    },
                    {
                        "duration": 0.2082329648437593,
                        "durationTicks": 231,
                        "midi": 49,
                        "name": "C#3",
                        "ticks": 78080,
                        "time": 115.36595000000003,
                        "velocity": 0.9921259842519685
                    },
                    {
                        "duration": 0.2082329648437593,
                        "durationTicks": 231,
                        "midi": 54,
                        "name": "F#3",
                        "ticks": 78080,
                        "time": 115.36595000000003,
                        "velocity": 0.9921259842519685
                    },
                    {
                        "duration": 0.2082329648437593,
                        "durationTicks": 231,
                        "midi": 58,
                        "name": "A#3",
                        "ticks": 78080,
                        "time": 115.36595000000003,
                        "velocity": 0.9921259842519685
                    },
                    {
                        "duration": 0.2082329648437451,
                        "durationTicks": 231,
                        "midi": 35,
                        "name": "B1",
                        "ticks": 78336,
                        "time": 115.59671900000004,
                        "velocity": 0.7716535433070866
                    },
                    {
                        "duration": 0.2082329648437451,
                        "durationTicks": 231,
                        "midi": 47,
                        "name": "B2",
                        "ticks": 78336,
                        "time": 115.59671900000004,
                        "velocity": 0.7795275590551181
                    },
                    {
                        "duration": 0.2082329648437451,
                        "durationTicks": 231,
                        "midi": 50,
                        "name": "D3",
                        "ticks": 78592,
                        "time": 115.82748800000003,
                        "velocity": 1
                    },
                    {
                        "duration": 0.2082329648437451,
                        "durationTicks": 231,
                        "midi": 54,
                        "name": "F#3",
                        "ticks": 78592,
                        "time": 115.82748800000003,
                        "velocity": 1
                    },
                    {
                        "duration": 0.2082329648437451,
                        "durationTicks": 231,
                        "midi": 59,
                        "name": "B3",
                        "ticks": 78592,
                        "time": 115.82748800000003,
                        "velocity": 1
                    },
                    {
                        "duration": 0.2082329648437593,
                        "durationTicks": 231,
                        "midi": 35,
                        "name": "B1",
                        "ticks": 78848,
                        "time": 116.05825700000003,
                        "velocity": 0.6771653543307087
                    },
                    {
                        "duration": 0.2082329648437593,
                        "durationTicks": 231,
                        "midi": 47,
                        "name": "B2",
                        "ticks": 78848,
                        "time": 116.05825700000003,
                        "velocity": 0.6692913385826772
                    },
                    {
                        "duration": 0.11358161718749216,
                        "durationTicks": 126,
                        "midi": 50,
                        "name": "D3",
                        "ticks": 79104,
                        "time": 116.28902600000004,
                        "velocity": 0.9921259842519685
                    },
                    {
                        "duration": 0.11358161718749216,
                        "durationTicks": 126,
                        "midi": 53,
                        "name": "F3",
                        "ticks": 79104,
                        "time": 116.28902600000004,
                        "velocity": 0.9921259842519685
                    },
                    {
                        "duration": 0.11358161718749216,
                        "durationTicks": 126,
                        "midi": 56,
                        "name": "G#3",
                        "ticks": 79104,
                        "time": 116.28902600000004,
                        "velocity": 1
                    },
                    {
                        "duration": 0.11358161718749216,
                        "durationTicks": 126,
                        "midi": 59,
                        "name": "B3",
                        "ticks": 79104,
                        "time": 116.28902600000004,
                        "velocity": 0.9921259842519685
                    },
                    {
                        "duration": 0.2082329648437451,
                        "durationTicks": 231,
                        "midi": 35,
                        "name": "B1",
                        "ticks": 79872,
                        "time": 116.98133300000003,
                        "velocity": 0.7874015748031497
                    },
                    {
                        "duration": 0.2082329648437451,
                        "durationTicks": 231,
                        "midi": 47,
                        "name": "B2",
                        "ticks": 79872,
                        "time": 116.98133300000003,
                        "velocity": 0.8188976377952756
                    },
                    {
                        "duration": 0.11358161718750637,
                        "durationTicks": 126,
                        "midi": 50,
                        "name": "D3",
                        "ticks": 80128,
                        "time": 117.21210200000003,
                        "velocity": 0.984251968503937
                    },
                    {
                        "duration": 0.11358161718750637,
                        "durationTicks": 126,
                        "midi": 54,
                        "name": "F#3",
                        "ticks": 80128,
                        "time": 117.21210200000003,
                        "velocity": 1
                    },
                    {
                        "duration": 0.11358161718750637,
                        "durationTicks": 126,
                        "midi": 59,
                        "name": "B3",
                        "ticks": 80128,
                        "time": 117.21210200000003,
                        "velocity": 0.9921259842519685
                    },
                    {
                        "duration": 0.2082329648437593,
                        "durationTicks": 231,
                        "midi": 43,
                        "name": "G2",
                        "ticks": 80896,
                        "time": 117.90440900000003,
                        "velocity": 0.7559055118110236
                    },
                    {
                        "duration": 0.2082329648437593,
                        "durationTicks": 231,
                        "midi": 55,
                        "name": "G3",
                        "ticks": 80896,
                        "time": 117.90440900000003,
                        "velocity": 0.7716535433070866
                    },
                    {
                        "duration": 0.2082329648437451,
                        "durationTicks": 231,
                        "midi": 50,
                        "name": "D3",
                        "ticks": 81152,
                        "time": 118.13517800000004,
                        "velocity": 0.7322834645669292
                    },
                    {
                        "duration": 0.2082329648437451,
                        "durationTicks": 231,
                        "midi": 55,
                        "name": "G3",
                        "ticks": 81152,
                        "time": 118.13517800000004,
                        "velocity": 0.7244094488188977
                    },
                    {
                        "duration": 0.2082329648437451,
                        "durationTicks": 231,
                        "midi": 59,
                        "name": "B3",
                        "ticks": 81152,
                        "time": 118.13517800000004,
                        "velocity": 0.7322834645669292
                    },
                    {
                        "duration": 0.2082329648437451,
                        "durationTicks": 231,
                        "midi": 42,
                        "name": "F#2",
                        "ticks": 81408,
                        "time": 118.36594700000003,
                        "velocity": 0.7952755905511811
                    },
                    {
                        "duration": 0.2082329648437451,
                        "durationTicks": 231,
                        "midi": 54,
                        "name": "F#3",
                        "ticks": 81408,
                        "time": 118.36594700000003,
                        "velocity": 0.7795275590551181
                    },
                    {
                        "duration": 0.2082329648437593,
                        "durationTicks": 231,
                        "midi": 50,
                        "name": "D3",
                        "ticks": 81664,
                        "time": 118.59671600000003,
                        "velocity": 0.8188976377952756
                    },
                    {
                        "duration": 0.2082329648437593,
                        "durationTicks": 231,
                        "midi": 54,
                        "name": "F#3",
                        "ticks": 81664,
                        "time": 118.59671600000003,
                        "velocity": 0.84251968503937
                    },
                    {
                        "duration": 0.2082329648437593,
                        "durationTicks": 231,
                        "midi": 59,
                        "name": "B3",
                        "ticks": 81664,
                        "time": 118.59671600000003,
                        "velocity": 0.8346456692913385
                    },
                    {
                        "duration": 0.2082329648437451,
                        "durationTicks": 231,
                        "midi": 30,
                        "name": "F#1",
                        "ticks": 81920,
                        "time": 118.82748500000004,
                        "velocity": 0.7637795275590551
                    },
                    {
                        "duration": 0.2082329648437451,
                        "durationTicks": 231,
                        "midi": 42,
                        "name": "F#2",
                        "ticks": 81920,
                        "time": 118.82748500000004,
                        "velocity": 0.7480314960629921
                    },
                    {
                        "duration": 0.2082329648437451,
                        "durationTicks": 231,
                        "midi": 49,
                        "name": "C#3",
                        "ticks": 82176,
                        "time": 119.05825400000003,
                        "velocity": 0.9921259842519685
                    },
                    {
                        "duration": 0.2082329648437451,
                        "durationTicks": 231,
                        "midi": 54,
                        "name": "F#3",
                        "ticks": 82176,
                        "time": 119.05825400000003,
                        "velocity": 1
                    },
                    {
                        "duration": 0.2082329648437451,
                        "durationTicks": 231,
                        "midi": 58,
                        "name": "A#3",
                        "ticks": 82176,
                        "time": 119.05825400000003,
                        "velocity": 0.9921259842519685
                    },
                    {
                        "duration": 0.2082329648437593,
                        "durationTicks": 231,
                        "midi": 35,
                        "name": "B1",
                        "ticks": 82432,
                        "time": 119.28902300000003,
                        "velocity": 0.7716535433070866
                    },
                    {
                        "duration": 0.2082329648437593,
                        "durationTicks": 231,
                        "midi": 47,
                        "name": "B2",
                        "ticks": 82432,
                        "time": 119.28902300000003,
                        "velocity": 0.7637795275590551
                    },
                    {
                        "duration": 0.2082329648437451,
                        "durationTicks": 231,
                        "midi": 50,
                        "name": "D3",
                        "ticks": 82688,
                        "time": 119.51979200000004,
                        "velocity": 1
                    },
                    {
                        "duration": 0.2082329648437451,
                        "durationTicks": 231,
                        "midi": 54,
                        "name": "F#3",
                        "ticks": 82688,
                        "time": 119.51979200000004,
                        "velocity": 0.9921259842519685
                    },
                    {
                        "duration": 0.2082329648437451,
                        "durationTicks": 231,
                        "midi": 59,
                        "name": "B3",
                        "ticks": 82688,
                        "time": 119.51979200000004,
                        "velocity": 1
                    },
                    {
                        "duration": 0.2082329648437451,
                        "durationTicks": 231,
                        "midi": 35,
                        "name": "B1",
                        "ticks": 82944,
                        "time": 119.75056100000003,
                        "velocity": 0.6850393700787402
                    },
                    {
                        "duration": 0.2082329648437451,
                        "durationTicks": 231,
                        "midi": 47,
                        "name": "B2",
                        "ticks": 82944,
                        "time": 119.75056100000003,
                        "velocity": 0.6850393700787402
                    },
                    {
                        "duration": 0.2082329648437593,
                        "durationTicks": 231,
                        "midi": 50,
                        "name": "D3",
                        "ticks": 83200,
                        "time": 119.98133000000003,
                        "velocity": 0.9921259842519685
                    },
                    {
                        "duration": 0.2082329648437593,
                        "durationTicks": 231,
                        "midi": 53,
                        "name": "F3",
                        "ticks": 83200,
                        "time": 119.98133000000003,
                        "velocity": 0.9921259842519685
                    },
                    {
                        "duration": 0.2082329648437593,
                        "durationTicks": 231,
                        "midi": 56,
                        "name": "G#3",
                        "ticks": 83200,
                        "time": 119.98133000000003,
                        "velocity": 1
                    },
                    {
                        "duration": 0.2082329648437593,
                        "durationTicks": 231,
                        "midi": 59,
                        "name": "B3",
                        "ticks": 83200,
                        "time": 119.98133000000003,
                        "velocity": 1
                    },
                    {
                        "duration": 0.2082329648437593,
                        "durationTicks": 231,
                        "midi": 35,
                        "name": "B1",
                        "ticks": 83968,
                        "time": 120.67363700000003,
                        "velocity": 0.8031496062992126
                    },
                    {
                        "duration": 0.2082329648437593,
                        "durationTicks": 231,
                        "midi": 47,
                        "name": "B2",
                        "ticks": 83968,
                        "time": 120.67363700000003,
                        "velocity": 0.7952755905511811
                    },
                    {
                        "duration": 0.11358161718749216,
                        "durationTicks": 126,
                        "midi": 50,
                        "name": "D3",
                        "ticks": 84224,
                        "time": 120.90440600000004,
                        "velocity": 0.9921259842519685
                    },
                    {
                        "duration": 0.11358161718749216,
                        "durationTicks": 126,
                        "midi": 53,
                        "name": "F3",
                        "ticks": 84224,
                        "time": 120.90440600000004,
                        "velocity": 0.984251968503937
                    },
                    {
                        "duration": 0.11358161718749216,
                        "durationTicks": 126,
                        "midi": 56,
                        "name": "G#3",
                        "ticks": 84224,
                        "time": 120.90440600000004,
                        "velocity": 0.9921259842519685
                    },
                    {
                        "duration": 0.11358161718749216,
                        "durationTicks": 126,
                        "midi": 59,
                        "name": "B3",
                        "ticks": 84224,
                        "time": 120.90440600000004,
                        "velocity": 0.9921259842519685
                    },
                    {
                        "duration": 0.2082329648437451,
                        "durationTicks": 231,
                        "midi": 35,
                        "name": "B1",
                        "ticks": 84992,
                        "time": 121.59671300000004,
                        "velocity": 0.7952755905511811
                    },
                    {
                        "duration": 0.2082329648437451,
                        "durationTicks": 231,
                        "midi": 47,
                        "name": "B2",
                        "ticks": 84992,
                        "time": 121.59671300000004,
                        "velocity": 0.8031496062992126
                    },
                    {
                        "duration": 0.11358161718750637,
                        "durationTicks": 126,
                        "midi": 50,
                        "name": "D3",
                        "ticks": 85248,
                        "time": 121.82748200000003,
                        "velocity": 0.36220472440944884
                    },
                    {
                        "duration": 0.11358161718750637,
                        "durationTicks": 126,
                        "midi": 53,
                        "name": "F3",
                        "ticks": 85248,
                        "time": 121.82748200000003,
                        "velocity": 0.33858267716535434
                    },
                    {
                        "duration": 0.11358161718750637,
                        "durationTicks": 126,
                        "midi": 56,
                        "name": "G#3",
                        "ticks": 85248,
                        "time": 121.82748200000003,
                        "velocity": 0.36220472440944884
                    },
                    {
                        "duration": 0.11358161718750637,
                        "durationTicks": 126,
                        "midi": 59,
                        "name": "B3",
                        "ticks": 85248,
                        "time": 121.82748200000003,
                        "velocity": 0.33858267716535434
                    },
                    {
                        "duration": 0.11358161718750637,
                        "durationTicks": 126,
                        "midi": 50,
                        "name": "D3",
                        "ticks": 85504,
                        "time": 122.05825100000003,
                        "velocity": 0.28346456692913385
                    },
                    {
                        "duration": 0.11358161718750637,
                        "durationTicks": 126,
                        "midi": 53,
                        "name": "F3",
                        "ticks": 85504,
                        "time": 122.05825100000003,
                        "velocity": 0.29133858267716534
                    },
                    {
                        "duration": 0.11358161718750637,
                        "durationTicks": 126,
                        "midi": 56,
                        "name": "G#3",
                        "ticks": 85504,
                        "time": 122.05825100000003,
                        "velocity": 0.2677165354330709
                    },
                    {
                        "duration": 0.11358161718750637,
                        "durationTicks": 126,
                        "midi": 59,
                        "name": "B3",
                        "ticks": 85504,
                        "time": 122.05825100000003,
                        "velocity": 0.29133858267716534
                    },
                    {
                        "duration": 0.11358161718749216,
                        "durationTicks": 126,
                        "midi": 50,
                        "name": "D3",
                        "ticks": 85760,
                        "time": 122.28902000000004,
                        "velocity": 0.2677165354330709
                    },
                    {
                        "duration": 0.11358161718749216,
                        "durationTicks": 126,
                        "midi": 53,
                        "name": "F3",
                        "ticks": 85760,
                        "time": 122.28902000000004,
                        "velocity": 0.29133858267716534
                    },
                    {
                        "duration": 0.11358161718749216,
                        "durationTicks": 126,
                        "midi": 56,
                        "name": "G#3",
                        "ticks": 85760,
                        "time": 122.28902000000004,
                        "velocity": 0.2677165354330709
                    },
                    {
                        "duration": 0.11358161718749216,
                        "durationTicks": 126,
                        "midi": 59,
                        "name": "B3",
                        "ticks": 85760,
                        "time": 122.28902000000004,
                        "velocity": 0.2755905511811024
                    },
                    {
                        "duration": 0.11358161718750637,
                        "durationTicks": 126,
                        "midi": 50,
                        "name": "D3",
                        "ticks": 86016,
                        "time": 122.51978900000003,
                        "velocity": 0.29133858267716534
                    },
                    {
                        "duration": 0.11358161718750637,
                        "durationTicks": 126,
                        "midi": 53,
                        "name": "F3",
                        "ticks": 86016,
                        "time": 122.51978900000003,
                        "velocity": 0.29133858267716534
                    },
                    {
                        "duration": 0.11358161718750637,
                        "durationTicks": 126,
                        "midi": 56,
                        "name": "G#3",
                        "ticks": 86016,
                        "time": 122.51978900000003,
                        "velocity": 0.29133858267716534
                    },
                    {
                        "duration": 0.11358161718750637,
                        "durationTicks": 126,
                        "midi": 59,
                        "name": "B3",
                        "ticks": 86016,
                        "time": 122.51978900000003,
                        "velocity": 0.2992125984251969
                    },
                    {
                        "duration": 0.11358161718750637,
                        "durationTicks": 126,
                        "midi": 50,
                        "name": "D3",
                        "ticks": 86272,
                        "time": 122.75055800000003,
                        "velocity": 0.5118110236220472
                    },
                    {
                        "duration": 0.11358161718750637,
                        "durationTicks": 126,
                        "midi": 53,
                        "name": "F3",
                        "ticks": 86272,
                        "time": 122.75055800000003,
                        "velocity": 0.4881889763779528
                    },
                    {
                        "duration": 0.11358161718750637,
                        "durationTicks": 126,
                        "midi": 56,
                        "name": "G#3",
                        "ticks": 86272,
                        "time": 122.75055800000003,
                        "velocity": 0.5118110236220472
                    },
                    {
                        "duration": 0.11358161718750637,
                        "durationTicks": 126,
                        "midi": 59,
                        "name": "B3",
                        "ticks": 86272,
                        "time": 122.75055800000003,
                        "velocity": 0.4881889763779528
                    },
                    {
                        "duration": 0.11358161718749216,
                        "durationTicks": 126,
                        "midi": 50,
                        "name": "D3",
                        "ticks": 86528,
                        "time": 122.98132700000004,
                        "velocity": 0.7165354330708661
                    },
                    {
                        "duration": 0.11358161718749216,
                        "durationTicks": 126,
                        "midi": 53,
                        "name": "F3",
                        "ticks": 86528,
                        "time": 122.98132700000004,
                        "velocity": 0.7480314960629921
                    },
                    {
                        "duration": 0.11358161718749216,
                        "durationTicks": 126,
                        "midi": 56,
                        "name": "G#3",
                        "ticks": 86528,
                        "time": 122.98132700000004,
                        "velocity": 0.7322834645669292
                    },
                    {
                        "duration": 0.11358161718749216,
                        "durationTicks": 126,
                        "midi": 59,
                        "name": "B3",
                        "ticks": 86528,
                        "time": 122.98132700000004,
                        "velocity": 0.7322834645669292
                    },
                    {
                        "duration": 0.11358161718750637,
                        "durationTicks": 126,
                        "midi": 50,
                        "name": "D3",
                        "ticks": 86784,
                        "time": 123.21209600000003,
                        "velocity": 0.952755905511811
                    },
                    {
                        "duration": 0.11358161718750637,
                        "durationTicks": 126,
                        "midi": 53,
                        "name": "F3",
                        "ticks": 86784,
                        "time": 123.21209600000003,
                        "velocity": 0.968503937007874
                    },
                    {
                        "duration": 0.11358161718750637,
                        "durationTicks": 126,
                        "midi": 56,
                        "name": "G#3",
                        "ticks": 86784,
                        "time": 123.21209600000003,
                        "velocity": 0.9763779527559056
                    },
                    {
                        "duration": 0.11358161718750637,
                        "durationTicks": 126,
                        "midi": 59,
                        "name": "B3",
                        "ticks": 86784,
                        "time": 123.21209600000003,
                        "velocity": 0.968503937007874
                    },
                    {
                        "duration": 0.05228360156250744,
                        "durationTicks": 58,
                        "midi": 35,
                        "name": "B1",
                        "ticks": 87552,
                        "time": 123.90440300000003,
                        "velocity": 0.5433070866141733
                    },
                    {
                        "duration": 0.05228360156249323,
                        "durationTicks": 58,
                        "midi": 47,
                        "name": "B2",
                        "ticks": 87616,
                        "time": 123.96209525000003,
                        "velocity": 0.4566929133858268
                    },
                    {
                        "duration": 0.05228360156249323,
                        "durationTicks": 58,
                        "midi": 35,
                        "name": "B1",
                        "ticks": 87680,
                        "time": 124.01978750000004,
                        "velocity": 0.29133858267716534
                    },
                    {
                        "duration": 0.05228360156249323,
                        "durationTicks": 58,
                        "midi": 47,
                        "name": "B2",
                        "ticks": 87744,
                        "time": 124.07747975000004,
                        "velocity": 0.4566929133858268
                    },
                    {
                        "duration": 0.05228360156250744,
                        "durationTicks": 58,
                        "midi": 35,
                        "name": "B1",
                        "ticks": 87808,
                        "time": 124.13517200000003,
                        "velocity": 0.2992125984251969
                    },
                    {
                        "duration": 0.05228360156250744,
                        "durationTicks": 58,
                        "midi": 47,
                        "name": "B2",
                        "ticks": 87872,
                        "time": 124.19286425000003,
                        "velocity": 0.4566929133858268
                    },
                    {
                        "duration": 0.05228360156250744,
                        "durationTicks": 58,
                        "midi": 35,
                        "name": "B1",
                        "ticks": 87936,
                        "time": 124.25055650000003,
                        "velocity": 0.29133858267716534
                    },
                    {
                        "duration": 0.05228360156249323,
                        "durationTicks": 58,
                        "midi": 47,
                        "name": "B2",
                        "ticks": 88000,
                        "time": 124.30824875000003,
                        "velocity": 0.4645669291338583
                    },
                    {
                        "duration": 0.05228360156249323,
                        "durationTicks": 58,
                        "midi": 35,
                        "name": "B1",
                        "ticks": 88064,
                        "time": 124.36594100000003,
                        "velocity": 0.30708661417322836
                    },
                    {
                        "duration": 0.05228360156249323,
                        "durationTicks": 58,
                        "midi": 47,
                        "name": "B2",
                        "ticks": 88128,
                        "time": 124.42363325000004,
                        "velocity": 0.5118110236220472
                    },
                    {
                        "duration": 0.05228360156250744,
                        "durationTicks": 58,
                        "midi": 35,
                        "name": "B1",
                        "ticks": 88192,
                        "time": 124.48132550000003,
                        "velocity": 0.33070866141732286
                    },
                    {
                        "duration": 0.05228360156250744,
                        "durationTicks": 58,
                        "midi": 47,
                        "name": "B2",
                        "ticks": 88256,
                        "time": 124.53901775000003,
                        "velocity": 0.6299212598425197
                    },
                    {
                        "duration": 0.05228360156250744,
                        "durationTicks": 58,
                        "midi": 35,
                        "name": "B1",
                        "ticks": 88320,
                        "time": 124.59671000000003,
                        "velocity": 0.44881889763779526
                    },
                    {
                        "duration": 0.05228360156249323,
                        "durationTicks": 58,
                        "midi": 47,
                        "name": "B2",
                        "ticks": 88384,
                        "time": 124.65440225000003,
                        "velocity": 0.7322834645669292
                    },
                    {
                        "duration": 0.05228360156249323,
                        "durationTicks": 58,
                        "midi": 35,
                        "name": "B1",
                        "ticks": 88448,
                        "time": 124.71209450000003,
                        "velocity": 0.4645669291338583
                    },
                    {
                        "duration": 0.05228360156249323,
                        "durationTicks": 58,
                        "midi": 47,
                        "name": "B2",
                        "ticks": 88512,
                        "time": 124.76978675000004,
                        "velocity": 0.8110236220472441
                    },
                    {
                        "duration": 0.05228360156249323,
                        "durationTicks": 58,
                        "midi": 35,
                        "name": "B1",
                        "ticks": 88576,
                        "time": 124.82747900000004,
                        "velocity": 0.5748031496062992
                    },
                    {
                        "duration": 0.05228360156250744,
                        "durationTicks": 58,
                        "midi": 47,
                        "name": "B2",
                        "ticks": 88640,
                        "time": 124.88517125000003,
                        "velocity": 0.9212598425196851
                    },
                    {
                        "duration": 0.05228360156250744,
                        "durationTicks": 58,
                        "midi": 35,
                        "name": "B1",
                        "ticks": 88704,
                        "time": 124.94286350000003,
                        "velocity": 0.6062992125984252
                    },
                    {
                        "duration": 0.05228360156250744,
                        "durationTicks": 58,
                        "midi": 47,
                        "name": "B2",
                        "ticks": 88768,
                        "time": 125.00055575000003,
                        "velocity": 1
                    },
                    {
                        "duration": 0.05228360156249323,
                        "durationTicks": 58,
                        "midi": 35,
                        "name": "B1",
                        "ticks": 88832,
                        "time": 125.05824800000003,
                        "velocity": 0.6692913385826772
                    },
                    {
                        "duration": 0.05228360156249323,
                        "durationTicks": 58,
                        "midi": 47,
                        "name": "B2",
                        "ticks": 88896,
                        "time": 125.11594025000004,
                        "velocity": 1
                    },
                    {
                        "duration": 0.05228360156250744,
                        "durationTicks": 58,
                        "midi": 35,
                        "name": "B1",
                        "ticks": 88960,
                        "time": 125.17363250000002,
                        "velocity": 0.7086614173228346
                    },
                    {
                        "duration": 0.05228360156250744,
                        "durationTicks": 58,
                        "midi": 47,
                        "name": "B2",
                        "ticks": 89024,
                        "time": 125.23132475000003,
                        "velocity": 0.9921259842519685
                    },
                    {
                        "duration": 0.2082329648437451,
                        "durationTicks": 231,
                        "midi": 23,
                        "name": "B0",
                        "ticks": 89088,
                        "time": 125.28901700000003,
                        "velocity": 0.7874015748031497
                    },
                    {
                        "duration": 0.2082329648437451,
                        "durationTicks": 231,
                        "midi": 35,
                        "name": "B1",
                        "ticks": 89088,
                        "time": 125.28901700000003,
                        "velocity": 0.7874015748031497
                    },
                    {
                        "duration": 0.11358161718749216,
                        "durationTicks": 126,
                        "midi": 47,
                        "name": "B2",
                        "ticks": 89344,
                        "time": 125.51978600000004,
                        "velocity": 1
                    },
                    {
                        "duration": 0.11358161718749216,
                        "durationTicks": 126,
                        "midi": 50,
                        "name": "D3",
                        "ticks": 89344,
                        "time": 125.51978600000004,
                        "velocity": 1
                    },
                    {
                        "duration": 0.11358161718749216,
                        "durationTicks": 126,
                        "midi": 54,
                        "name": "F#3",
                        "ticks": 89344,
                        "time": 125.51978600000004,
                        "velocity": 1
                    },
                    {
                        "duration": 0.11358161718749216,
                        "durationTicks": 126,
                        "midi": 59,
                        "name": "B3",
                        "ticks": 89344,
                        "time": 125.51978600000004,
                        "velocity": 1
                    }
                ]
            }
        ]
    },
    {
        "header": {
            "keySignatures": [],
            "meta": [],
            "name": "My Heart",
            "ppq": 96,
            "tempos": [],
            "timeSignatures": [
                {
                    "ticks": 0,
                    "timeSignature": [
                        4,
                        4
                    ],
                    "measures": 0
                }
            ]
        },
        "tracks": [
            {
                "channel": 0,
                "controlChanges": {},
                "pitchBends": [],
                "instrument": {
                    "family": "piano",
                    "name": "acoustic grand piano",
                    "number": 0
                },
                "name": "",
                "notes": []
            },
            {
                "channel": 0,
                "controlChanges": {
                    "6": [
                        {
                            "number": 6,
                            "ticks": 0,
                            "time": 0,
                            "value": 0.09448818897637795
                        },
                        {
                            "number": 6,
                            "ticks": 0,
                            "time": 0,
                            "value": 0.09448818897637795
                        },
                        {
                            "number": 6,
                            "ticks": 0,
                            "time": 0,
                            "value": 0.09448818897637795
                        },
                        {
                            "number": 6,
                            "ticks": 36096,
                            "time": 188,
                            "value": 0.09448818897637795
                        },
                        {
                            "number": 6,
                            "ticks": 36097,
                            "time": 188.00520833333334,
                            "value": 0.09448818897637795
                        },
                        {
                            "number": 6,
                            "ticks": 36097,
                            "time": 188.00520833333334,
                            "value": 0.09448818897637795
                        }
                    ],
                    "7": [
                        {
                            "number": 7,
                            "ticks": 0,
                            "time": 0,
                            "value": 0.7874015748031497
                        },
                        {
                            "number": 7,
                            "ticks": 0,
                            "time": 0,
                            "value": 0.7874015748031497
                        },
                        {
                            "number": 7,
                            "ticks": 0,
                            "time": 0,
                            "value": 0.7874015748031497
                        },
                        {
                            "number": 7,
                            "ticks": 0,
                            "time": 0,
                            "value": 0.7874015748031497
                        },
                        {
                            "number": 7,
                            "ticks": 36096,
                            "time": 188,
                            "value": 0.7874015748031497
                        },
                        {
                            "number": 7,
                            "ticks": 36097,
                            "time": 188.00520833333334,
                            "value": 0.7874015748031497
                        },
                        {
                            "number": 7,
                            "ticks": 36097,
                            "time": 188.00520833333334,
                            "value": 0.7874015748031497
                        }
                    ],
                    "10": [
                        {
                            "number": 10,
                            "ticks": 0,
                            "time": 0,
                            "value": 0.5039370078740157
                        },
                        {
                            "number": 10,
                            "ticks": 0,
                            "time": 0,
                            "value": 0.5039370078740157
                        },
                        {
                            "number": 10,
                            "ticks": 0,
                            "time": 0,
                            "value": 0.5039370078740157
                        },
                        {
                            "number": 10,
                            "ticks": 0,
                            "time": 0,
                            "value": 0.5039370078740157
                        },
                        {
                            "number": 10,
                            "ticks": 36096,
                            "time": 188,
                            "value": 0.5039370078740157
                        },
                        {
                            "number": 10,
                            "ticks": 36097,
                            "time": 188.00520833333334,
                            "value": 0.5039370078740157
                        },
                        {
                            "number": 10,
                            "ticks": 36097,
                            "time": 188.00520833333334,
                            "value": 0.5039370078740157
                        }
                    ],
                    "100": [
                        {
                            "number": 100,
                            "ticks": 0,
                            "time": 0,
                            "value": 0
                        },
                        {
                            "number": 100,
                            "ticks": 0,
                            "time": 0,
                            "value": 0
                        },
                        {
                            "number": 100,
                            "ticks": 0,
                            "time": 0,
                            "value": 0
                        },
                        {
                            "number": 100,
                            "ticks": 36096,
                            "time": 188,
                            "value": 0
                        },
                        {
                            "number": 100,
                            "ticks": 36097,
                            "time": 188.00520833333334,
                            "value": 0
                        },
                        {
                            "number": 100,
                            "ticks": 36097,
                            "time": 188.00520833333334,
                            "value": 0
                        }
                    ],
                    "101": [
                        {
                            "number": 101,
                            "ticks": 0,
                            "time": 0,
                            "value": 0
                        },
                        {
                            "number": 101,
                            "ticks": 0,
                            "time": 0,
                            "value": 0
                        },
                        {
                            "number": 101,
                            "ticks": 0,
                            "time": 0,
                            "value": 0
                        },
                        {
                            "number": 101,
                            "ticks": 36096,
                            "time": 188,
                            "value": 0
                        },
                        {
                            "number": 101,
                            "ticks": 36097,
                            "time": 188.00520833333334,
                            "value": 0
                        },
                        {
                            "number": 101,
                            "ticks": 36097,
                            "time": 188.00520833333334,
                            "value": 0
                        }
                    ]
                },
                "pitchBends": [
                    {
                        "ticks": 0,
                        "time": 0,
                        "value": 0
                    },
                    {
                        "ticks": 0,
                        "time": 0,
                        "value": 0
                    },
                    {
                        "ticks": 0,
                        "time": 0,
                        "value": 0
                    },
                    {
                        "ticks": 0,
                        "time": 0,
                        "value": 0
                    },
                    {
                        "ticks": 36096,
                        "time": 188,
                        "value": 0
                    },
                    {
                        "ticks": 36097,
                        "time": 188.00520833333334,
                        "value": 0
                    },
                    {
                        "ticks": 36097,
                        "time": 188.00520833333334,
                        "value": 0
                    }
                ],
                "instrument": {
                    "family": "piano",
                    "name": "acoustic grand piano",
                    "number": 0
                },
                "name": "reFX Nexus",
                "notes": [
                    {
                        "duration": 0.125,
                        "durationTicks": 24,
                        "midi": 74,
                        "name": "D5",
                        "ticks": 1488,
                        "time": 7.75,
                        "velocity": 0.3937007874015748
                    },
                    {
                        "duration": 0.125,
                        "durationTicks": 24,
                        "midi": 77,
                        "name": "F5",
                        "ticks": 1512,
                        "time": 7.875,
                        "velocity": 0.3937007874015748
                    },
                    {
                        "duration": 0.25,
                        "durationTicks": 48,
                        "midi": 77,
                        "name": "F5",
                        "ticks": 1536,
                        "time": 8,
                        "velocity": 0.4015748031496063
                    },
                    {
                        "duration": 0.25,
                        "durationTicks": 48,
                        "midi": 74,
                        "name": "D5",
                        "ticks": 1584,
                        "time": 8.25,
                        "velocity": 0.4015748031496063
                    },
                    {
                        "duration": 0.25,
                        "durationTicks": 48,
                        "midi": 72,
                        "name": "C5",
                        "ticks": 1632,
                        "time": 8.5,
                        "velocity": 0.4015748031496063
                    },
                    {
                        "duration": 0.125,
                        "durationTicks": 24,
                        "midi": 70,
                        "name": "A#4",
                        "ticks": 1680,
                        "time": 8.75,
                        "velocity": 0.4015748031496063
                    },
                    {
                        "duration": 0.125,
                        "durationTicks": 24,
                        "midi": 72,
                        "name": "C5",
                        "ticks": 1704,
                        "time": 8.875,
                        "velocity": 0.4015748031496063
                    },
                    {
                        "duration": 0.25,
                        "durationTicks": 48,
                        "midi": 70,
                        "name": "A#4",
                        "ticks": 1728,
                        "time": 9,
                        "velocity": 0.4015748031496063
                    },
                    {
                        "duration": 0.125,
                        "durationTicks": 24,
                        "midi": 70,
                        "name": "A#4",
                        "ticks": 1848,
                        "time": 9.625,
                        "velocity": 0.4015748031496063
                    },
                    {
                        "duration": 0.125,
                        "durationTicks": 24,
                        "midi": 74,
                        "name": "D5",
                        "ticks": 1872,
                        "time": 9.75,
                        "velocity": 0.4015748031496063
                    },
                    {
                        "duration": 0.125,
                        "durationTicks": 24,
                        "midi": 77,
                        "name": "F5",
                        "ticks": 1896,
                        "time": 9.875,
                        "velocity": 0.4015748031496063
                    },
                    {
                        "duration": 0.25,
                        "durationTicks": 48,
                        "midi": 77,
                        "name": "F5",
                        "ticks": 1920,
                        "time": 10,
                        "velocity": 0.4015748031496063
                    },
                    {
                        "duration": 0.25,
                        "durationTicks": 48,
                        "midi": 74,
                        "name": "D5",
                        "ticks": 1968,
                        "time": 10.25,
                        "velocity": 0.4015748031496063
                    },
                    {
                        "duration": 0.25,
                        "durationTicks": 48,
                        "midi": 72,
                        "name": "C5",
                        "ticks": 2016,
                        "time": 10.5,
                        "velocity": 0.4015748031496063
                    },
                    {
                        "duration": 0.125,
                        "durationTicks": 24,
                        "midi": 70,
                        "name": "A#4",
                        "ticks": 2064,
                        "time": 10.75,
                        "velocity": 0.4015748031496063
                    },
                    {
                        "duration": 0.125,
                        "durationTicks": 24,
                        "midi": 69,
                        "name": "A4",
                        "ticks": 2088,
                        "time": 10.875,
                        "velocity": 0.4015748031496063
                    },
                    {
                        "duration": 0.5,
                        "durationTicks": 96,
                        "midi": 67,
                        "name": "G4",
                        "ticks": 2112,
                        "time": 11,
                        "velocity": 0.4015748031496063
                    },
                    {
                        "duration": 0.125,
                        "durationTicks": 24,
                        "midi": 74,
                        "name": "D5",
                        "ticks": 2352,
                        "time": 12.25,
                        "velocity": 0.4015748031496063
                    },
                    {
                        "duration": 0.125,
                        "durationTicks": 24,
                        "midi": 77,
                        "name": "F5",
                        "ticks": 2376,
                        "time": 12.375,
                        "velocity": 0.4015748031496063
                    },
                    {
                        "duration": 0.25,
                        "durationTicks": 48,
                        "midi": 77,
                        "name": "F5",
                        "ticks": 2400,
                        "time": 12.5,
                        "velocity": 0.4015748031496063
                    },
                    {
                        "duration": 0.25,
                        "durationTicks": 48,
                        "midi": 74,
                        "name": "D5",
                        "ticks": 2448,
                        "time": 12.75,
                        "velocity": 0.4015748031496063
                    },
                    {
                        "duration": 0.25,
                        "durationTicks": 48,
                        "midi": 72,
                        "name": "C5",
                        "ticks": 2496,
                        "time": 13,
                        "velocity": 0.4015748031496063
                    },
                    {
                        "duration": 0.125,
                        "durationTicks": 24,
                        "midi": 70,
                        "name": "A#4",
                        "ticks": 2544,
                        "time": 13.25,
                        "velocity": 0.4015748031496063
                    },
                    {
                        "duration": 0.125,
                        "durationTicks": 24,
                        "midi": 72,
                        "name": "C5",
                        "ticks": 2568,
                        "time": 13.375,
                        "velocity": 0.4015748031496063
                    },
                    {
                        "duration": 0.5,
                        "durationTicks": 96,
                        "midi": 70,
                        "name": "A#4",
                        "ticks": 2592,
                        "time": 13.5,
                        "velocity": 0.4015748031496063
                    },
                    {
                        "duration": 0.125,
                        "durationTicks": 24,
                        "midi": 74,
                        "name": "D5",
                        "ticks": 2736,
                        "time": 14.25,
                        "velocity": 0.4015748031496063
                    },
                    {
                        "duration": 0.125,
                        "durationTicks": 24,
                        "midi": 77,
                        "name": "F5",
                        "ticks": 2760,
                        "time": 14.375,
                        "velocity": 0.4015748031496063
                    },
                    {
                        "duration": 0.25,
                        "durationTicks": 48,
                        "midi": 77,
                        "name": "F5",
                        "ticks": 2784,
                        "time": 14.5,
                        "velocity": 0.4015748031496063
                    },
                    {
                        "duration": 0.25,
                        "durationTicks": 48,
                        "midi": 74,
                        "name": "D5",
                        "ticks": 2832,
                        "time": 14.75,
                        "velocity": 0.4015748031496063
                    },
                    {
                        "duration": 0.25,
                        "durationTicks": 48,
                        "midi": 72,
                        "name": "C5",
                        "ticks": 2880,
                        "time": 15,
                        "velocity": 0.4015748031496063
                    },
                    {
                        "duration": 0.125,
                        "durationTicks": 24,
                        "midi": 72,
                        "name": "C5",
                        "ticks": 2928,
                        "time": 15.25,
                        "velocity": 0.4015748031496063
                    },
                    {
                        "duration": 0.125,
                        "durationTicks": 24,
                        "midi": 74,
                        "name": "D5",
                        "ticks": 2952,
                        "time": 15.375,
                        "velocity": 0.4015748031496063
                    },
                    {
                        "duration": 0.25,
                        "durationTicks": 48,
                        "midi": 67,
                        "name": "G4",
                        "ticks": 2976,
                        "time": 15.5,
                        "velocity": 0.4015748031496063
                    },
                    {
                        "duration": 0.25,
                        "durationTicks": 48,
                        "midi": 70,
                        "name": "A#4",
                        "ticks": 3024,
                        "time": 15.75,
                        "velocity": 0.4015748031496063
                    },
                    {
                        "duration": 0.125,
                        "durationTicks": 24,
                        "midi": 79,
                        "name": "G5",
                        "ticks": 3072,
                        "time": 16,
                        "velocity": 0.4015748031496063
                    },
                    {
                        "duration": 0.125,
                        "durationTicks": 24,
                        "midi": 67,
                        "name": "G4",
                        "ticks": 3072,
                        "time": 16,
                        "velocity": 0.4015748031496063
                    },
                    {
                        "duration": 0.125,
                        "durationTicks": 24,
                        "midi": 67,
                        "name": "G4",
                        "ticks": 3120,
                        "time": 16.25,
                        "velocity": 0.4015748031496063
                    },
                    {
                        "duration": 0.125,
                        "durationTicks": 24,
                        "midi": 79,
                        "name": "G5",
                        "ticks": 3120,
                        "time": 16.25,
                        "velocity": 0.4015748031496063
                    },
                    {
                        "duration": 0.125,
                        "durationTicks": 24,
                        "midi": 67,
                        "name": "G4",
                        "ticks": 3168,
                        "time": 16.5,
                        "velocity": 0.4015748031496063
                    },
                    {
                        "duration": 0.125,
                        "durationTicks": 24,
                        "midi": 79,
                        "name": "G5",
                        "ticks": 3168,
                        "time": 16.5,
                        "velocity": 0.4015748031496063
                    },
                    {
                        "duration": 0.125,
                        "durationTicks": 24,
                        "midi": 77,
                        "name": "F5",
                        "ticks": 3192,
                        "time": 16.625,
                        "velocity": 0.4015748031496063
                    },
                    {
                        "duration": 0.125,
                        "durationTicks": 24,
                        "midi": 65,
                        "name": "F4",
                        "ticks": 3192,
                        "time": 16.625,
                        "velocity": 0.4015748031496063
                    },
                    {
                        "duration": 0.125,
                        "durationTicks": 24,
                        "midi": 79,
                        "name": "G5",
                        "ticks": 3216,
                        "time": 16.75,
                        "velocity": 0.4015748031496063
                    },
                    {
                        "duration": 0.125,
                        "durationTicks": 24,
                        "midi": 67,
                        "name": "G4",
                        "ticks": 3216,
                        "time": 16.75,
                        "velocity": 0.4015748031496063
                    },
                    {
                        "duration": 0.25,
                        "durationTicks": 48,
                        "midi": 77,
                        "name": "F5",
                        "ticks": 3240,
                        "time": 16.875,
                        "velocity": 0.4015748031496063
                    },
                    {
                        "duration": 0.25,
                        "durationTicks": 48,
                        "midi": 65,
                        "name": "F4",
                        "ticks": 3240,
                        "time": 16.875,
                        "velocity": 0.4015748031496063
                    },
                    {
                        "duration": 0.125,
                        "durationTicks": 24,
                        "midi": 70,
                        "name": "A#4",
                        "ticks": 3288,
                        "time": 17.125,
                        "velocity": 0.4015748031496063
                    },
                    {
                        "duration": 0.125,
                        "durationTicks": 24,
                        "midi": 82,
                        "name": "A#5",
                        "ticks": 3288,
                        "time": 17.125,
                        "velocity": 0.4015748031496063
                    },
                    {
                        "duration": 0.125,
                        "durationTicks": 24,
                        "midi": 70,
                        "name": "A#4",
                        "ticks": 3312,
                        "time": 17.25,
                        "velocity": 0.4015748031496063
                    },
                    {
                        "duration": 0.125,
                        "durationTicks": 24,
                        "midi": 82,
                        "name": "A#5",
                        "ticks": 3312,
                        "time": 17.25,
                        "velocity": 0.4015748031496063
                    },
                    {
                        "duration": 0.125,
                        "durationTicks": 24,
                        "midi": 70,
                        "name": "A#4",
                        "ticks": 3336,
                        "time": 17.375,
                        "velocity": 0.4015748031496063
                    },
                    {
                        "duration": 0.125,
                        "durationTicks": 24,
                        "midi": 82,
                        "name": "A#5",
                        "ticks": 3336,
                        "time": 17.375,
                        "velocity": 0.4015748031496063
                    },
                    {
                        "duration": 0.125,
                        "durationTicks": 24,
                        "midi": 70,
                        "name": "A#4",
                        "ticks": 3360,
                        "time": 17.5,
                        "velocity": 0.4015748031496063
                    },
                    {
                        "duration": 0.125,
                        "durationTicks": 24,
                        "midi": 82,
                        "name": "A#5",
                        "ticks": 3360,
                        "time": 17.5,
                        "velocity": 0.4015748031496063
                    },
                    {
                        "duration": 0.125,
                        "durationTicks": 24,
                        "midi": 82,
                        "name": "A#5",
                        "ticks": 3384,
                        "time": 17.625,
                        "velocity": 0.4015748031496063
                    },
                    {
                        "duration": 0.125,
                        "durationTicks": 24,
                        "midi": 70,
                        "name": "A#4",
                        "ticks": 3384,
                        "time": 17.625,
                        "velocity": 0.4015748031496063
                    },
                    {
                        "duration": 0.125,
                        "durationTicks": 24,
                        "midi": 82,
                        "name": "A#5",
                        "ticks": 3408,
                        "time": 17.75,
                        "velocity": 0.4015748031496063
                    },
                    {
                        "duration": 0.125,
                        "durationTicks": 24,
                        "midi": 70,
                        "name": "A#4",
                        "ticks": 3408,
                        "time": 17.75,
                        "velocity": 0.4015748031496063
                    },
                    {
                        "duration": 0.125,
                        "durationTicks": 24,
                        "midi": 74,
                        "name": "D5",
                        "ticks": 3432,
                        "time": 17.875,
                        "velocity": 0.4015748031496063
                    },
                    {
                        "duration": 0.125,
                        "durationTicks": 24,
                        "midi": 62,
                        "name": "D4",
                        "ticks": 3432,
                        "time": 17.875,
                        "velocity": 0.4015748031496063
                    },
                    {
                        "duration": 0.125,
                        "durationTicks": 24,
                        "midi": 77,
                        "name": "F5",
                        "ticks": 3456,
                        "time": 18,
                        "velocity": 0.4015748031496063
                    },
                    {
                        "duration": 0.125,
                        "durationTicks": 24,
                        "midi": 65,
                        "name": "F4",
                        "ticks": 3456,
                        "time": 18,
                        "velocity": 0.4015748031496063
                    },
                    {
                        "duration": 0.125,
                        "durationTicks": 24,
                        "midi": 65,
                        "name": "F4",
                        "ticks": 3504,
                        "time": 18.25,
                        "velocity": 0.4015748031496063
                    },
                    {
                        "duration": 0.125,
                        "durationTicks": 24,
                        "midi": 77,
                        "name": "F5",
                        "ticks": 3504,
                        "time": 18.25,
                        "velocity": 0.4015748031496063
                    },
                    {
                        "duration": 0.125,
                        "durationTicks": 24,
                        "midi": 65,
                        "name": "F4",
                        "ticks": 3552,
                        "time": 18.5,
                        "velocity": 0.4015748031496063
                    },
                    {
                        "duration": 0.125,
                        "durationTicks": 24,
                        "midi": 77,
                        "name": "F5",
                        "ticks": 3552,
                        "time": 18.5,
                        "velocity": 0.4015748031496063
                    },
                    {
                        "duration": 0.125,
                        "durationTicks": 24,
                        "midi": 74,
                        "name": "D5",
                        "ticks": 3576,
                        "time": 18.625,
                        "velocity": 0.4015748031496063
                    },
                    {
                        "duration": 0.125,
                        "durationTicks": 24,
                        "midi": 62,
                        "name": "D4",
                        "ticks": 3576,
                        "time": 18.625,
                        "velocity": 0.4015748031496063
                    },
                    {
                        "duration": 0.125,
                        "durationTicks": 24,
                        "midi": 81,
                        "name": "A5",
                        "ticks": 3600,
                        "time": 18.75,
                        "velocity": 0.4015748031496063
                    },
                    {
                        "duration": 0.125,
                        "durationTicks": 24,
                        "midi": 69,
                        "name": "A4",
                        "ticks": 3600,
                        "time": 18.75,
                        "velocity": 0.4015748031496063
                    },
                    {
                        "duration": 0.25,
                        "durationTicks": 48,
                        "midi": 82,
                        "name": "A#5",
                        "ticks": 3624,
                        "time": 18.875,
                        "velocity": 0.4015748031496063
                    },
                    {
                        "duration": 0.25,
                        "durationTicks": 48,
                        "midi": 70,
                        "name": "A#4",
                        "ticks": 3624,
                        "time": 18.875,
                        "velocity": 0.4015748031496063
                    },
                    {
                        "duration": 0.125,
                        "durationTicks": 24,
                        "midi": 82,
                        "name": "A#5",
                        "ticks": 3672,
                        "time": 19.125,
                        "velocity": 0.4015748031496063
                    },
                    {
                        "duration": 0.125,
                        "durationTicks": 24,
                        "midi": 70,
                        "name": "A#4",
                        "ticks": 3672,
                        "time": 19.125,
                        "velocity": 0.4015748031496063
                    },
                    {
                        "duration": 0.125,
                        "durationTicks": 24,
                        "midi": 82,
                        "name": "A#5",
                        "ticks": 3696,
                        "time": 19.25,
                        "velocity": 0.4015748031496063
                    },
                    {
                        "duration": 0.125,
                        "durationTicks": 24,
                        "midi": 70,
                        "name": "A#4",
                        "ticks": 3696,
                        "time": 19.25,
                        "velocity": 0.4015748031496063
                    },
                    {
                        "duration": 0.125,
                        "durationTicks": 24,
                        "midi": 69,
                        "name": "A4",
                        "ticks": 3720,
                        "time": 19.375,
                        "velocity": 0.4015748031496063
                    },
                    {
                        "duration": 0.125,
                        "durationTicks": 24,
                        "midi": 81,
                        "name": "A5",
                        "ticks": 3720,
                        "time": 19.375,
                        "velocity": 0.4015748031496063
                    },
                    {
                        "duration": 0.125,
                        "durationTicks": 24,
                        "midi": 70,
                        "name": "A#4",
                        "ticks": 3744,
                        "time": 19.5,
                        "velocity": 0.4015748031496063
                    },
                    {
                        "duration": 0.125,
                        "durationTicks": 24,
                        "midi": 82,
                        "name": "A#5",
                        "ticks": 3744,
                        "time": 19.5,
                        "velocity": 0.4015748031496063
                    },
                    {
                        "duration": 0.125,
                        "durationTicks": 24,
                        "midi": 81,
                        "name": "A5",
                        "ticks": 3768,
                        "time": 19.625,
                        "velocity": 0.4015748031496063
                    },
                    {
                        "duration": 0.125,
                        "durationTicks": 24,
                        "midi": 69,
                        "name": "A4",
                        "ticks": 3768,
                        "time": 19.625,
                        "velocity": 0.4015748031496063
                    },
                    {
                        "duration": 0.125,
                        "durationTicks": 24,
                        "midi": 82,
                        "name": "A#5",
                        "ticks": 3792,
                        "time": 19.75,
                        "velocity": 0.4015748031496063
                    },
                    {
                        "duration": 0.125,
                        "durationTicks": 24,
                        "midi": 70,
                        "name": "A#4",
                        "ticks": 3792,
                        "time": 19.75,
                        "velocity": 0.4015748031496063
                    },
                    {
                        "duration": 0.125,
                        "durationTicks": 24,
                        "midi": 81,
                        "name": "A5",
                        "ticks": 3816,
                        "time": 19.875,
                        "velocity": 0.4015748031496063
                    },
                    {
                        "duration": 0.125,
                        "durationTicks": 24,
                        "midi": 69,
                        "name": "A4",
                        "ticks": 3816,
                        "time": 19.875,
                        "velocity": 0.4015748031496063
                    },
                    {
                        "duration": 0.125,
                        "durationTicks": 24,
                        "midi": 79,
                        "name": "G5",
                        "ticks": 3840,
                        "time": 20,
                        "velocity": 0.4015748031496063
                    },
                    {
                        "duration": 0.125,
                        "durationTicks": 24,
                        "midi": 67,
                        "name": "G4",
                        "ticks": 3840,
                        "time": 20,
                        "velocity": 0.4015748031496063
                    },
                    {
                        "duration": 0.125,
                        "durationTicks": 24,
                        "midi": 67,
                        "name": "G4",
                        "ticks": 3888,
                        "time": 20.25,
                        "velocity": 0.4015748031496063
                    },
                    {
                        "duration": 0.125,
                        "durationTicks": 24,
                        "midi": 79,
                        "name": "G5",
                        "ticks": 3888,
                        "time": 20.25,
                        "velocity": 0.4015748031496063
                    },
                    {
                        "duration": 0.125,
                        "durationTicks": 24,
                        "midi": 79,
                        "name": "G5",
                        "ticks": 3936,
                        "time": 20.5,
                        "velocity": 0.4015748031496063
                    },
                    {
                        "duration": 0.125,
                        "durationTicks": 24,
                        "midi": 67,
                        "name": "G4",
                        "ticks": 3936,
                        "time": 20.5,
                        "velocity": 0.4015748031496063
                    },
                    {
                        "duration": 0.125,
                        "durationTicks": 24,
                        "midi": 77,
                        "name": "F5",
                        "ticks": 3960,
                        "time": 20.625,
                        "velocity": 0.4015748031496063
                    },
                    {
                        "duration": 0.125,
                        "durationTicks": 24,
                        "midi": 65,
                        "name": "F4",
                        "ticks": 3960,
                        "time": 20.625,
                        "velocity": 0.4015748031496063
                    },
                    {
                        "duration": 0.125,
                        "durationTicks": 24,
                        "midi": 79,
                        "name": "G5",
                        "ticks": 3984,
                        "time": 20.75,
                        "velocity": 0.4015748031496063
                    },
                    {
                        "duration": 0.125,
                        "durationTicks": 24,
                        "midi": 67,
                        "name": "G4",
                        "ticks": 3984,
                        "time": 20.75,
                        "velocity": 0.4015748031496063
                    },
                    {
                        "duration": 0.25,
                        "durationTicks": 48,
                        "midi": 65,
                        "name": "F4",
                        "ticks": 4008,
                        "time": 20.875,
                        "velocity": 0.4015748031496063
                    },
                    {
                        "duration": 0.25,
                        "durationTicks": 48,
                        "midi": 77,
                        "name": "F5",
                        "ticks": 4008,
                        "time": 20.875,
                        "velocity": 0.4015748031496063
                    },
                    {
                        "duration": 0.125,
                        "durationTicks": 24,
                        "midi": 70,
                        "name": "A#4",
                        "ticks": 4056,
                        "time": 21.125,
                        "velocity": 0.4015748031496063
                    },
                    {
                        "duration": 0.125,
                        "durationTicks": 24,
                        "midi": 82,
                        "name": "A#5",
                        "ticks": 4056,
                        "time": 21.125,
                        "velocity": 0.4015748031496063
                    },
                    {
                        "duration": 0.125,
                        "durationTicks": 24,
                        "midi": 70,
                        "name": "A#4",
                        "ticks": 4080,
                        "time": 21.25,
                        "velocity": 0.4015748031496063
                    },
                    {
                        "duration": 0.125,
                        "durationTicks": 24,
                        "midi": 82,
                        "name": "A#5",
                        "ticks": 4080,
                        "time": 21.25,
                        "velocity": 0.4015748031496063
                    },
                    {
                        "duration": 0.125,
                        "durationTicks": 24,
                        "midi": 82,
                        "name": "A#5",
                        "ticks": 4104,
                        "time": 21.375,
                        "velocity": 0.4015748031496063
                    },
                    {
                        "duration": 0.125,
                        "durationTicks": 24,
                        "midi": 70,
                        "name": "A#4",
                        "ticks": 4104,
                        "time": 21.375,
                        "velocity": 0.4015748031496063
                    },
                    {
                        "duration": 0.125,
                        "durationTicks": 24,
                        "midi": 82,
                        "name": "A#5",
                        "ticks": 4128,
                        "time": 21.5,
                        "velocity": 0.4015748031496063
                    },
                    {
                        "duration": 0.125,
                        "durationTicks": 24,
                        "midi": 70,
                        "name": "A#4",
                        "ticks": 4128,
                        "time": 21.5,
                        "velocity": 0.4015748031496063
                    },
                    {
                        "duration": 0.125,
                        "durationTicks": 24,
                        "midi": 82,
                        "name": "A#5",
                        "ticks": 4152,
                        "time": 21.625,
                        "velocity": 0.4015748031496063
                    },
                    {
                        "duration": 0.125,
                        "durationTicks": 24,
                        "midi": 70,
                        "name": "A#4",
                        "ticks": 4152,
                        "time": 21.625,
                        "velocity": 0.4015748031496063
                    },
                    {
                        "duration": 0.125,
                        "durationTicks": 24,
                        "midi": 82,
                        "name": "A#5",
                        "ticks": 4176,
                        "time": 21.75,
                        "velocity": 0.4015748031496063
                    },
                    {
                        "duration": 0.125,
                        "durationTicks": 24,
                        "midi": 70,
                        "name": "A#4",
                        "ticks": 4176,
                        "time": 21.75,
                        "velocity": 0.4015748031496063
                    },
                    {
                        "duration": 0.125,
                        "durationTicks": 24,
                        "midi": 62,
                        "name": "D4",
                        "ticks": 4200,
                        "time": 21.875,
                        "velocity": 0.4015748031496063
                    },
                    {
                        "duration": 0.125,
                        "durationTicks": 24,
                        "midi": 74,
                        "name": "D5",
                        "ticks": 4200,
                        "time": 21.875,
                        "velocity": 0.4015748031496063
                    },
                    {
                        "duration": 0.125,
                        "durationTicks": 24,
                        "midi": 65,
                        "name": "F4",
                        "ticks": 4224,
                        "time": 22,
                        "velocity": 0.4015748031496063
                    },
                    {
                        "duration": 0.125,
                        "durationTicks": 24,
                        "midi": 77,
                        "name": "F5",
                        "ticks": 4224,
                        "time": 22,
                        "velocity": 0.4015748031496063
                    },
                    {
                        "duration": 0.125,
                        "durationTicks": 24,
                        "midi": 65,
                        "name": "F4",
                        "ticks": 4272,
                        "time": 22.25,
                        "velocity": 0.4015748031496063
                    },
                    {
                        "duration": 0.125,
                        "durationTicks": 24,
                        "midi": 77,
                        "name": "F5",
                        "ticks": 4272,
                        "time": 22.25,
                        "velocity": 0.4015748031496063
                    },
                    {
                        "duration": 0.125,
                        "durationTicks": 24,
                        "midi": 77,
                        "name": "F5",
                        "ticks": 4320,
                        "time": 22.5,
                        "velocity": 0.4015748031496063
                    },
                    {
                        "duration": 0.125,
                        "durationTicks": 24,
                        "midi": 65,
                        "name": "F4",
                        "ticks": 4320,
                        "time": 22.5,
                        "velocity": 0.4015748031496063
                    },
                    {
                        "duration": 0.125,
                        "durationTicks": 24,
                        "midi": 74,
                        "name": "D5",
                        "ticks": 4344,
                        "time": 22.625,
                        "velocity": 0.4015748031496063
                    },
                    {
                        "duration": 0.125,
                        "durationTicks": 24,
                        "midi": 62,
                        "name": "D4",
                        "ticks": 4344,
                        "time": 22.625,
                        "velocity": 0.4015748031496063
                    },
                    {
                        "duration": 0.125,
                        "durationTicks": 24,
                        "midi": 81,
                        "name": "A5",
                        "ticks": 4368,
                        "time": 22.75,
                        "velocity": 0.4015748031496063
                    },
                    {
                        "duration": 0.125,
                        "durationTicks": 24,
                        "midi": 69,
                        "name": "A4",
                        "ticks": 4368,
                        "time": 22.75,
                        "velocity": 0.4015748031496063
                    },
                    {
                        "duration": 0.375,
                        "durationTicks": 72,
                        "midi": 70,
                        "name": "A#4",
                        "ticks": 4392,
                        "time": 22.875,
                        "velocity": 0.4015748031496063
                    },
                    {
                        "duration": 0.375,
                        "durationTicks": 72,
                        "midi": 82,
                        "name": "A#5",
                        "ticks": 4392,
                        "time": 22.875,
                        "velocity": 0.4015748031496063
                    },
                    {
                        "duration": 0.125,
                        "durationTicks": 24,
                        "midi": 91,
                        "name": "G6",
                        "ticks": 4704,
                        "time": 24.5,
                        "velocity": 0.4015748031496063
                    },
                    {
                        "duration": 0.125,
                        "durationTicks": 24,
                        "midi": 79,
                        "name": "G5",
                        "ticks": 4704,
                        "time": 24.5,
                        "velocity": 0.4015748031496063
                    },
                    {
                        "duration": 0.125,
                        "durationTicks": 24,
                        "midi": 89,
                        "name": "F6",
                        "ticks": 4728,
                        "time": 24.625,
                        "velocity": 0.4015748031496063
                    },
                    {
                        "duration": 0.125,
                        "durationTicks": 24,
                        "midi": 77,
                        "name": "F5",
                        "ticks": 4728,
                        "time": 24.625,
                        "velocity": 0.4015748031496063
                    },
                    {
                        "duration": 0.125,
                        "durationTicks": 24,
                        "midi": 79,
                        "name": "G5",
                        "ticks": 4752,
                        "time": 24.75,
                        "velocity": 0.4015748031496063
                    },
                    {
                        "duration": 0.125,
                        "durationTicks": 24,
                        "midi": 91,
                        "name": "G6",
                        "ticks": 4752,
                        "time": 24.75,
                        "velocity": 0.4015748031496063
                    },
                    {
                        "duration": 0.25,
                        "durationTicks": 48,
                        "midi": 89,
                        "name": "F6",
                        "ticks": 4776,
                        "time": 24.875,
                        "velocity": 0.4015748031496063
                    },
                    {
                        "duration": 0.25,
                        "durationTicks": 48,
                        "midi": 77,
                        "name": "F5",
                        "ticks": 4776,
                        "time": 24.875,
                        "velocity": 0.4015748031496063
                    },
                    {
                        "duration": 0.125,
                        "durationTicks": 24,
                        "midi": 82,
                        "name": "A#5",
                        "ticks": 4824,
                        "time": 25.125,
                        "velocity": 0.4015748031496063
                    },
                    {
                        "duration": 0.125,
                        "durationTicks": 24,
                        "midi": 94,
                        "name": "A#6",
                        "ticks": 4824,
                        "time": 25.125,
                        "velocity": 0.4015748031496063
                    },
                    {
                        "duration": 0.125,
                        "durationTicks": 24,
                        "midi": 82,
                        "name": "A#5",
                        "ticks": 4848,
                        "time": 25.25,
                        "velocity": 0.4015748031496063
                    },
                    {
                        "duration": 0.125,
                        "durationTicks": 24,
                        "midi": 94,
                        "name": "A#6",
                        "ticks": 4848,
                        "time": 25.25,
                        "velocity": 0.4015748031496063
                    },
                    {
                        "duration": 0.125,
                        "durationTicks": 24,
                        "midi": 82,
                        "name": "A#5",
                        "ticks": 4872,
                        "time": 25.375,
                        "velocity": 0.4015748031496063
                    },
                    {
                        "duration": 0.125,
                        "durationTicks": 24,
                        "midi": 94,
                        "name": "A#6",
                        "ticks": 4872,
                        "time": 25.375,
                        "velocity": 0.4015748031496063
                    },
                    {
                        "duration": 0.125,
                        "durationTicks": 24,
                        "midi": 82,
                        "name": "A#5",
                        "ticks": 4896,
                        "time": 25.5,
                        "velocity": 0.4015748031496063
                    },
                    {
                        "duration": 0.125,
                        "durationTicks": 24,
                        "midi": 94,
                        "name": "A#6",
                        "ticks": 4896,
                        "time": 25.5,
                        "velocity": 0.4015748031496063
                    },
                    {
                        "duration": 0.125,
                        "durationTicks": 24,
                        "midi": 82,
                        "name": "A#5",
                        "ticks": 4920,
                        "time": 25.625,
                        "velocity": 0.4015748031496063
                    },
                    {
                        "duration": 0.125,
                        "durationTicks": 24,
                        "midi": 94,
                        "name": "A#6",
                        "ticks": 4920,
                        "time": 25.625,
                        "velocity": 0.4015748031496063
                    },
                    {
                        "duration": 0.125,
                        "durationTicks": 24,
                        "midi": 82,
                        "name": "A#5",
                        "ticks": 4944,
                        "time": 25.75,
                        "velocity": 0.4015748031496063
                    },
                    {
                        "duration": 0.125,
                        "durationTicks": 24,
                        "midi": 94,
                        "name": "A#6",
                        "ticks": 4944,
                        "time": 25.75,
                        "velocity": 0.4015748031496063
                    },
                    {
                        "duration": 0.125,
                        "durationTicks": 24,
                        "midi": 74,
                        "name": "D5",
                        "ticks": 4968,
                        "time": 25.875,
                        "velocity": 0.4015748031496063
                    },
                    {
                        "duration": 0.125,
                        "durationTicks": 24,
                        "midi": 86,
                        "name": "D6",
                        "ticks": 4968,
                        "time": 25.875,
                        "velocity": 0.4015748031496063
                    },
                    {
                        "duration": 0.125,
                        "durationTicks": 24,
                        "midi": 89,
                        "name": "F6",
                        "ticks": 4992,
                        "time": 26,
                        "velocity": 0.4015748031496063
                    },
                    {
                        "duration": 0.125,
                        "durationTicks": 24,
                        "midi": 77,
                        "name": "F5",
                        "ticks": 4992,
                        "time": 26,
                        "velocity": 0.4015748031496063
                    },
                    {
                        "duration": 0.125,
                        "durationTicks": 24,
                        "midi": 89,
                        "name": "F6",
                        "ticks": 5040,
                        "time": 26.25,
                        "velocity": 0.4015748031496063
                    },
                    {
                        "duration": 0.125,
                        "durationTicks": 24,
                        "midi": 77,
                        "name": "F5",
                        "ticks": 5040,
                        "time": 26.25,
                        "velocity": 0.4015748031496063
                    },
                    {
                        "duration": 0.125,
                        "durationTicks": 24,
                        "midi": 77,
                        "name": "F5",
                        "ticks": 5088,
                        "time": 26.5,
                        "velocity": 0.4015748031496063
                    },
                    {
                        "duration": 0.125,
                        "durationTicks": 24,
                        "midi": 89,
                        "name": "F6",
                        "ticks": 5088,
                        "time": 26.5,
                        "velocity": 0.4015748031496063
                    },
                    {
                        "duration": 0.125,
                        "durationTicks": 24,
                        "midi": 74,
                        "name": "D5",
                        "ticks": 5112,
                        "time": 26.625,
                        "velocity": 0.4015748031496063
                    },
                    {
                        "duration": 0.125,
                        "durationTicks": 24,
                        "midi": 86,
                        "name": "D6",
                        "ticks": 5112,
                        "time": 26.625,
                        "velocity": 0.4015748031496063
                    },
                    {
                        "duration": 0.125,
                        "durationTicks": 24,
                        "midi": 81,
                        "name": "A5",
                        "ticks": 5136,
                        "time": 26.75,
                        "velocity": 0.4015748031496063
                    },
                    {
                        "duration": 0.125,
                        "durationTicks": 24,
                        "midi": 93,
                        "name": "A6",
                        "ticks": 5136,
                        "time": 26.75,
                        "velocity": 0.4015748031496063
                    },
                    {
                        "duration": 0.25,
                        "durationTicks": 48,
                        "midi": 94,
                        "name": "A#6",
                        "ticks": 5160,
                        "time": 26.875,
                        "velocity": 0.4015748031496063
                    },
                    {
                        "duration": 0.25,
                        "durationTicks": 48,
                        "midi": 82,
                        "name": "A#5",
                        "ticks": 5160,
                        "time": 26.875,
                        "velocity": 0.4015748031496063
                    },
                    {
                        "duration": 0.125,
                        "durationTicks": 24,
                        "midi": 82,
                        "name": "A#5",
                        "ticks": 5208,
                        "time": 27.125,
                        "velocity": 0.4015748031496063
                    },
                    {
                        "duration": 0.125,
                        "durationTicks": 24,
                        "midi": 94,
                        "name": "A#6",
                        "ticks": 5208,
                        "time": 27.125,
                        "velocity": 0.4015748031496063
                    },
                    {
                        "duration": 0.125,
                        "durationTicks": 24,
                        "midi": 82,
                        "name": "A#5",
                        "ticks": 5232,
                        "time": 27.25,
                        "velocity": 0.4015748031496063
                    },
                    {
                        "duration": 0.125,
                        "durationTicks": 24,
                        "midi": 94,
                        "name": "A#6",
                        "ticks": 5232,
                        "time": 27.25,
                        "velocity": 0.4015748031496063
                    },
                    {
                        "duration": 0.125,
                        "durationTicks": 24,
                        "midi": 82,
                        "name": "A#5",
                        "ticks": 5256,
                        "time": 27.375,
                        "velocity": 0.4015748031496063
                    },
                    {
                        "duration": 0.125,
                        "durationTicks": 24,
                        "midi": 94,
                        "name": "A#6",
                        "ticks": 5256,
                        "time": 27.375,
                        "velocity": 0.4015748031496063
                    },
                    {
                        "duration": 0.125,
                        "durationTicks": 24,
                        "midi": 82,
                        "name": "A#5",
                        "ticks": 5280,
                        "time": 27.5,
                        "velocity": 0.4015748031496063
                    },
                    {
                        "duration": 0.125,
                        "durationTicks": 24,
                        "midi": 94,
                        "name": "A#6",
                        "ticks": 5280,
                        "time": 27.5,
                        "velocity": 0.4015748031496063
                    },
                    {
                        "duration": 0.375,
                        "durationTicks": 72,
                        "midi": 89,
                        "name": "F6",
                        "ticks": 5304,
                        "time": 27.625,
                        "velocity": 0.4015748031496063
                    },
                    {
                        "duration": 0.375,
                        "durationTicks": 72,
                        "midi": 77,
                        "name": "F5",
                        "ticks": 5304,
                        "time": 27.625,
                        "velocity": 0.4015748031496063
                    },
                    {
                        "duration": 0.125,
                        "durationTicks": 24,
                        "midi": 79,
                        "name": "G5",
                        "ticks": 5472,
                        "time": 28.5,
                        "velocity": 0.4015748031496063
                    },
                    {
                        "duration": 0.125,
                        "durationTicks": 24,
                        "midi": 91,
                        "name": "G6",
                        "ticks": 5472,
                        "time": 28.5,
                        "velocity": 0.4015748031496063
                    },
                    {
                        "duration": 0.125,
                        "durationTicks": 24,
                        "midi": 77,
                        "name": "F5",
                        "ticks": 5496,
                        "time": 28.625,
                        "velocity": 0.4015748031496063
                    },
                    {
                        "duration": 0.125,
                        "durationTicks": 24,
                        "midi": 89,
                        "name": "F6",
                        "ticks": 5496,
                        "time": 28.625,
                        "velocity": 0.4015748031496063
                    },
                    {
                        "duration": 0.125,
                        "durationTicks": 24,
                        "midi": 79,
                        "name": "G5",
                        "ticks": 5520,
                        "time": 28.75,
                        "velocity": 0.4015748031496063
                    },
                    {
                        "duration": 0.125,
                        "durationTicks": 24,
                        "midi": 91,
                        "name": "G6",
                        "ticks": 5520,
                        "time": 28.75,
                        "velocity": 0.4015748031496063
                    },
                    {
                        "duration": 0.25,
                        "durationTicks": 48,
                        "midi": 89,
                        "name": "F6",
                        "ticks": 5544,
                        "time": 28.875,
                        "velocity": 0.4015748031496063
                    },
                    {
                        "duration": 0.25,
                        "durationTicks": 48,
                        "midi": 77,
                        "name": "F5",
                        "ticks": 5544,
                        "time": 28.875,
                        "velocity": 0.4015748031496063
                    },
                    {
                        "duration": 0.125,
                        "durationTicks": 24,
                        "midi": 74,
                        "name": "D5",
                        "ticks": 5592,
                        "time": 29.125,
                        "velocity": 0.4015748031496063
                    },
                    {
                        "duration": 0.125,
                        "durationTicks": 24,
                        "midi": 70,
                        "name": "A#4",
                        "ticks": 5592,
                        "time": 29.125,
                        "velocity": 0.4015748031496063
                    },
                    {
                        "duration": 0.125,
                        "durationTicks": 24,
                        "midi": 82,
                        "name": "A#5",
                        "ticks": 5592,
                        "time": 29.125,
                        "velocity": 0.4015748031496063
                    },
                    {
                        "duration": 0.125,
                        "durationTicks": 24,
                        "midi": 74,
                        "name": "D5",
                        "ticks": 5616,
                        "time": 29.25,
                        "velocity": 0.4015748031496063
                    },
                    {
                        "duration": 0.125,
                        "durationTicks": 24,
                        "midi": 70,
                        "name": "A#4",
                        "ticks": 5616,
                        "time": 29.25,
                        "velocity": 0.4015748031496063
                    },
                    {
                        "duration": 0.125,
                        "durationTicks": 24,
                        "midi": 82,
                        "name": "A#5",
                        "ticks": 5616,
                        "time": 29.25,
                        "velocity": 0.4015748031496063
                    },
                    {
                        "duration": 0.125,
                        "durationTicks": 24,
                        "midi": 74,
                        "name": "D5",
                        "ticks": 5640,
                        "time": 29.375,
                        "velocity": 0.4015748031496063
                    },
                    {
                        "duration": 0.125,
                        "durationTicks": 24,
                        "midi": 70,
                        "name": "A#4",
                        "ticks": 5640,
                        "time": 29.375,
                        "velocity": 0.4015748031496063
                    },
                    {
                        "duration": 0.125,
                        "durationTicks": 24,
                        "midi": 82,
                        "name": "A#5",
                        "ticks": 5640,
                        "time": 29.375,
                        "velocity": 0.4015748031496063
                    },
                    {
                        "duration": 0.125,
                        "durationTicks": 24,
                        "midi": 74,
                        "name": "D5",
                        "ticks": 5664,
                        "time": 29.5,
                        "velocity": 0.4015748031496063
                    },
                    {
                        "duration": 0.125,
                        "durationTicks": 24,
                        "midi": 70,
                        "name": "A#4",
                        "ticks": 5664,
                        "time": 29.5,
                        "velocity": 0.4015748031496063
                    },
                    {
                        "duration": 0.125,
                        "durationTicks": 24,
                        "midi": 82,
                        "name": "A#5",
                        "ticks": 5664,
                        "time": 29.5,
                        "velocity": 0.4015748031496063
                    },
                    {
                        "duration": 0.125,
                        "durationTicks": 24,
                        "midi": 74,
                        "name": "D5",
                        "ticks": 5688,
                        "time": 29.625,
                        "velocity": 0.4015748031496063
                    },
                    {
                        "duration": 0.125,
                        "durationTicks": 24,
                        "midi": 70,
                        "name": "A#4",
                        "ticks": 5688,
                        "time": 29.625,
                        "velocity": 0.4015748031496063
                    },
                    {
                        "duration": 0.125,
                        "durationTicks": 24,
                        "midi": 82,
                        "name": "A#5",
                        "ticks": 5688,
                        "time": 29.625,
                        "velocity": 0.4015748031496063
                    },
                    {
                        "duration": 0.125,
                        "durationTicks": 24,
                        "midi": 74,
                        "name": "D5",
                        "ticks": 5712,
                        "time": 29.75,
                        "velocity": 0.4015748031496063
                    },
                    {
                        "duration": 0.125,
                        "durationTicks": 24,
                        "midi": 70,
                        "name": "A#4",
                        "ticks": 5712,
                        "time": 29.75,
                        "velocity": 0.4015748031496063
                    },
                    {
                        "duration": 0.125,
                        "durationTicks": 24,
                        "midi": 82,
                        "name": "A#5",
                        "ticks": 5712,
                        "time": 29.75,
                        "velocity": 0.4015748031496063
                    },
                    {
                        "duration": 0.125,
                        "durationTicks": 24,
                        "midi": 82,
                        "name": "A#5",
                        "ticks": 5736,
                        "time": 29.875,
                        "velocity": 0.4015748031496063
                    },
                    {
                        "duration": 0.125,
                        "durationTicks": 24,
                        "midi": 94,
                        "name": "A#6",
                        "ticks": 5736,
                        "time": 29.875,
                        "velocity": 0.4015748031496063
                    },
                    {
                        "duration": 0.375,
                        "durationTicks": 72,
                        "midi": 89,
                        "name": "F6",
                        "ticks": 5760,
                        "time": 30,
                        "velocity": 0.4015748031496063
                    },
                    {
                        "duration": 0.375,
                        "durationTicks": 72,
                        "midi": 77,
                        "name": "F5",
                        "ticks": 5760,
                        "time": 30,
                        "velocity": 0.4015748031496063
                    },
                    {
                        "duration": 0.125,
                        "durationTicks": 24,
                        "midi": 77,
                        "name": "F5",
                        "ticks": 5832,
                        "time": 30.375,
                        "velocity": 0.4015748031496063
                    },
                    {
                        "duration": 0.125,
                        "durationTicks": 24,
                        "midi": 89,
                        "name": "F6",
                        "ticks": 5832,
                        "time": 30.375,
                        "velocity": 0.4015748031496063
                    },
                    {
                        "duration": 0.125,
                        "durationTicks": 24,
                        "midi": 77,
                        "name": "F5",
                        "ticks": 5856,
                        "time": 30.5,
                        "velocity": 0.4015748031496063
                    },
                    {
                        "duration": 0.125,
                        "durationTicks": 24,
                        "midi": 89,
                        "name": "F6",
                        "ticks": 5856,
                        "time": 30.5,
                        "velocity": 0.4015748031496063
                    },
                    {
                        "duration": 0.125,
                        "durationTicks": 24,
                        "midi": 84,
                        "name": "C6",
                        "ticks": 5880,
                        "time": 30.625,
                        "velocity": 0.4015748031496063
                    },
                    {
                        "duration": 0.125,
                        "durationTicks": 24,
                        "midi": 96,
                        "name": "C7",
                        "ticks": 5880,
                        "time": 30.625,
                        "velocity": 0.4015748031496063
                    },
                    {
                        "duration": 0.125,
                        "durationTicks": 24,
                        "midi": 81,
                        "name": "A5",
                        "ticks": 5904,
                        "time": 30.75,
                        "velocity": 0.4015748031496063
                    },
                    {
                        "duration": 0.125,
                        "durationTicks": 24,
                        "midi": 93,
                        "name": "A6",
                        "ticks": 5904,
                        "time": 30.75,
                        "velocity": 0.4015748031496063
                    },
                    {
                        "duration": 0.125,
                        "durationTicks": 24,
                        "midi": 94,
                        "name": "A#6",
                        "ticks": 5928,
                        "time": 30.875,
                        "velocity": 0.4015748031496063
                    },
                    {
                        "duration": 0.125,
                        "durationTicks": 24,
                        "midi": 82,
                        "name": "A#5",
                        "ticks": 5928,
                        "time": 30.875,
                        "velocity": 0.4015748031496063
                    },
                    {
                        "duration": 0.125,
                        "durationTicks": 24,
                        "midi": 74,
                        "name": "D5",
                        "ticks": 5976,
                        "time": 31.125,
                        "velocity": 0.4015748031496063
                    },
                    {
                        "duration": 0.125,
                        "durationTicks": 24,
                        "midi": 70,
                        "name": "A#4",
                        "ticks": 5976,
                        "time": 31.125,
                        "velocity": 0.4015748031496063
                    },
                    {
                        "duration": 0.125,
                        "durationTicks": 24,
                        "midi": 82,
                        "name": "A#5",
                        "ticks": 5976,
                        "time": 31.125,
                        "velocity": 0.4015748031496063
                    },
                    {
                        "duration": 0.125,
                        "durationTicks": 24,
                        "midi": 74,
                        "name": "D5",
                        "ticks": 6000,
                        "time": 31.25,
                        "velocity": 0.4015748031496063
                    },
                    {
                        "duration": 0.125,
                        "durationTicks": 24,
                        "midi": 70,
                        "name": "A#4",
                        "ticks": 6000,
                        "time": 31.25,
                        "velocity": 0.4015748031496063
                    },
                    {
                        "duration": 0.125,
                        "durationTicks": 24,
                        "midi": 82,
                        "name": "A#5",
                        "ticks": 6000,
                        "time": 31.25,
                        "velocity": 0.4015748031496063
                    },
                    {
                        "duration": 0.125,
                        "durationTicks": 24,
                        "midi": 74,
                        "name": "D5",
                        "ticks": 6024,
                        "time": 31.375,
                        "velocity": 0.4015748031496063
                    },
                    {
                        "duration": 0.125,
                        "durationTicks": 24,
                        "midi": 69,
                        "name": "A4",
                        "ticks": 6024,
                        "time": 31.375,
                        "velocity": 0.4015748031496063
                    },
                    {
                        "duration": 0.125,
                        "durationTicks": 24,
                        "midi": 81,
                        "name": "A5",
                        "ticks": 6024,
                        "time": 31.375,
                        "velocity": 0.4015748031496063
                    },
                    {
                        "duration": 0.25,
                        "durationTicks": 48,
                        "midi": 74,
                        "name": "D5",
                        "ticks": 6048,
                        "time": 31.5,
                        "velocity": 0.4015748031496063
                    },
                    {
                        "duration": 0.25,
                        "durationTicks": 48,
                        "midi": 82,
                        "name": "A#5",
                        "ticks": 6048,
                        "time": 31.5,
                        "velocity": 0.4015748031496063
                    },
                    {
                        "duration": 0.25,
                        "durationTicks": 48,
                        "midi": 70,
                        "name": "A#4",
                        "ticks": 6048,
                        "time": 31.5,
                        "velocity": 0.4015748031496063
                    },
                    {
                        "duration": 0.25,
                        "durationTicks": 48,
                        "midi": 77,
                        "name": "F5",
                        "ticks": 6096,
                        "time": 31.75,
                        "velocity": 0.4015748031496063
                    },
                    {
                        "duration": 0.25,
                        "durationTicks": 48,
                        "midi": 65,
                        "name": "F4",
                        "ticks": 6096,
                        "time": 31.75,
                        "velocity": 0.4015748031496063
                    },
                    {
                        "duration": 0.125,
                        "durationTicks": 24,
                        "midi": 91,
                        "name": "G6",
                        "ticks": 6240,
                        "time": 32.5,
                        "velocity": 0.4015748031496063
                    },
                    {
                        "duration": 0.125,
                        "durationTicks": 24,
                        "midi": 79,
                        "name": "G5",
                        "ticks": 6240,
                        "time": 32.5,
                        "velocity": 0.4015748031496063
                    },
                    {
                        "duration": 0.125,
                        "durationTicks": 24,
                        "midi": 89,
                        "name": "F6",
                        "ticks": 6264,
                        "time": 32.625,
                        "velocity": 0.4015748031496063
                    },
                    {
                        "duration": 0.125,
                        "durationTicks": 24,
                        "midi": 77,
                        "name": "F5",
                        "ticks": 6264,
                        "time": 32.625,
                        "velocity": 0.4015748031496063
                    },
                    {
                        "duration": 0.125,
                        "durationTicks": 24,
                        "midi": 79,
                        "name": "G5",
                        "ticks": 6288,
                        "time": 32.75,
                        "velocity": 0.4015748031496063
                    },
                    {
                        "duration": 0.125,
                        "durationTicks": 24,
                        "midi": 91,
                        "name": "G6",
                        "ticks": 6288,
                        "time": 32.75,
                        "velocity": 0.4015748031496063
                    },
                    {
                        "duration": 0.25,
                        "durationTicks": 48,
                        "midi": 89,
                        "name": "F6",
                        "ticks": 6312,
                        "time": 32.875,
                        "velocity": 0.4015748031496063
                    },
                    {
                        "duration": 0.25,
                        "durationTicks": 48,
                        "midi": 77,
                        "name": "F5",
                        "ticks": 6312,
                        "time": 32.875,
                        "velocity": 0.4015748031496063
                    },
                    {
                        "duration": 0.125,
                        "durationTicks": 24,
                        "midi": 82,
                        "name": "A#5",
                        "ticks": 6360,
                        "time": 33.125,
                        "velocity": 0.4015748031496063
                    },
                    {
                        "duration": 0.125,
                        "durationTicks": 24,
                        "midi": 94,
                        "name": "A#6",
                        "ticks": 6360,
                        "time": 33.125,
                        "velocity": 0.4015748031496063
                    },
                    {
                        "duration": 0.125,
                        "durationTicks": 24,
                        "midi": 82,
                        "name": "A#5",
                        "ticks": 6384,
                        "time": 33.25,
                        "velocity": 0.4015748031496063
                    },
                    {
                        "duration": 0.125,
                        "durationTicks": 24,
                        "midi": 94,
                        "name": "A#6",
                        "ticks": 6384,
                        "time": 33.25,
                        "velocity": 0.4015748031496063
                    },
                    {
                        "duration": 0.125,
                        "durationTicks": 24,
                        "midi": 82,
                        "name": "A#5",
                        "ticks": 6408,
                        "time": 33.375,
                        "velocity": 0.4015748031496063
                    },
                    {
                        "duration": 0.125,
                        "durationTicks": 24,
                        "midi": 94,
                        "name": "A#6",
                        "ticks": 6408,
                        "time": 33.375,
                        "velocity": 0.4015748031496063
                    },
                    {
                        "duration": 0.125,
                        "durationTicks": 24,
                        "midi": 82,
                        "name": "A#5",
                        "ticks": 6432,
                        "time": 33.5,
                        "velocity": 0.4015748031496063
                    },
                    {
                        "duration": 0.125,
                        "durationTicks": 24,
                        "midi": 94,
                        "name": "A#6",
                        "ticks": 6432,
                        "time": 33.5,
                        "velocity": 0.4015748031496063
                    },
                    {
                        "duration": 0.125,
                        "durationTicks": 24,
                        "midi": 82,
                        "name": "A#5",
                        "ticks": 6456,
                        "time": 33.625,
                        "velocity": 0.4015748031496063
                    },
                    {
                        "duration": 0.125,
                        "durationTicks": 24,
                        "midi": 94,
                        "name": "A#6",
                        "ticks": 6456,
                        "time": 33.625,
                        "velocity": 0.4015748031496063
                    },
                    {
                        "duration": 0.125,
                        "durationTicks": 24,
                        "midi": 82,
                        "name": "A#5",
                        "ticks": 6480,
                        "time": 33.75,
                        "velocity": 0.4015748031496063
                    },
                    {
                        "duration": 0.125,
                        "durationTicks": 24,
                        "midi": 94,
                        "name": "A#6",
                        "ticks": 6480,
                        "time": 33.75,
                        "velocity": 0.4015748031496063
                    },
                    {
                        "duration": 0.125,
                        "durationTicks": 24,
                        "midi": 74,
                        "name": "D5",
                        "ticks": 6504,
                        "time": 33.875,
                        "velocity": 0.4015748031496063
                    },
                    {
                        "duration": 0.125,
                        "durationTicks": 24,
                        "midi": 86,
                        "name": "D6",
                        "ticks": 6504,
                        "time": 33.875,
                        "velocity": 0.4015748031496063
                    },
                    {
                        "duration": 0.125,
                        "durationTicks": 24,
                        "midi": 89,
                        "name": "F6",
                        "ticks": 6528,
                        "time": 34,
                        "velocity": 0.4015748031496063
                    },
                    {
                        "duration": 0.125,
                        "durationTicks": 24,
                        "midi": 77,
                        "name": "F5",
                        "ticks": 6528,
                        "time": 34,
                        "velocity": 0.4015748031496063
                    },
                    {
                        "duration": 0.125,
                        "durationTicks": 24,
                        "midi": 89,
                        "name": "F6",
                        "ticks": 6576,
                        "time": 34.25,
                        "velocity": 0.4015748031496063
                    },
                    {
                        "duration": 0.125,
                        "durationTicks": 24,
                        "midi": 77,
                        "name": "F5",
                        "ticks": 6576,
                        "time": 34.25,
                        "velocity": 0.4015748031496063
                    },
                    {
                        "duration": 0.125,
                        "durationTicks": 24,
                        "midi": 77,
                        "name": "F5",
                        "ticks": 6624,
                        "time": 34.5,
                        "velocity": 0.4015748031496063
                    },
                    {
                        "duration": 0.125,
                        "durationTicks": 24,
                        "midi": 89,
                        "name": "F6",
                        "ticks": 6624,
                        "time": 34.5,
                        "velocity": 0.4015748031496063
                    },
                    {
                        "duration": 0.125,
                        "durationTicks": 24,
                        "midi": 74,
                        "name": "D5",
                        "ticks": 6648,
                        "time": 34.625,
                        "velocity": 0.4015748031496063
                    },
                    {
                        "duration": 0.125,
                        "durationTicks": 24,
                        "midi": 86,
                        "name": "D6",
                        "ticks": 6648,
                        "time": 34.625,
                        "velocity": 0.4015748031496063
                    },
                    {
                        "duration": 0.125,
                        "durationTicks": 24,
                        "midi": 81,
                        "name": "A5",
                        "ticks": 6672,
                        "time": 34.75,
                        "velocity": 0.4015748031496063
                    },
                    {
                        "duration": 0.125,
                        "durationTicks": 24,
                        "midi": 93,
                        "name": "A6",
                        "ticks": 6672,
                        "time": 34.75,
                        "velocity": 0.4015748031496063
                    },
                    {
                        "duration": 0.25,
                        "durationTicks": 48,
                        "midi": 94,
                        "name": "A#6",
                        "ticks": 6696,
                        "time": 34.875,
                        "velocity": 0.4015748031496063
                    },
                    {
                        "duration": 0.25,
                        "durationTicks": 48,
                        "midi": 82,
                        "name": "A#5",
                        "ticks": 6696,
                        "time": 34.875,
                        "velocity": 0.4015748031496063
                    },
                    {
                        "duration": 0.125,
                        "durationTicks": 24,
                        "midi": 82,
                        "name": "A#5",
                        "ticks": 6744,
                        "time": 35.125,
                        "velocity": 0.4015748031496063
                    },
                    {
                        "duration": 0.125,
                        "durationTicks": 24,
                        "midi": 94,
                        "name": "A#6",
                        "ticks": 6744,
                        "time": 35.125,
                        "velocity": 0.4015748031496063
                    },
                    {
                        "duration": 0.125,
                        "durationTicks": 24,
                        "midi": 82,
                        "name": "A#5",
                        "ticks": 6768,
                        "time": 35.25,
                        "velocity": 0.4015748031496063
                    },
                    {
                        "duration": 0.125,
                        "durationTicks": 24,
                        "midi": 94,
                        "name": "A#6",
                        "ticks": 6768,
                        "time": 35.25,
                        "velocity": 0.4015748031496063
                    },
                    {
                        "duration": 0.125,
                        "durationTicks": 24,
                        "midi": 82,
                        "name": "A#5",
                        "ticks": 6792,
                        "time": 35.375,
                        "velocity": 0.4015748031496063
                    },
                    {
                        "duration": 0.125,
                        "durationTicks": 24,
                        "midi": 94,
                        "name": "A#6",
                        "ticks": 6792,
                        "time": 35.375,
                        "velocity": 0.4015748031496063
                    },
                    {
                        "duration": 0.125,
                        "durationTicks": 24,
                        "midi": 82,
                        "name": "A#5",
                        "ticks": 6816,
                        "time": 35.5,
                        "velocity": 0.4015748031496063
                    },
                    {
                        "duration": 0.125,
                        "durationTicks": 24,
                        "midi": 94,
                        "name": "A#6",
                        "ticks": 6816,
                        "time": 35.5,
                        "velocity": 0.4015748031496063
                    },
                    {
                        "duration": 0.375,
                        "durationTicks": 72,
                        "midi": 89,
                        "name": "F6",
                        "ticks": 6840,
                        "time": 35.625,
                        "velocity": 0.4015748031496063
                    },
                    {
                        "duration": 0.375,
                        "durationTicks": 72,
                        "midi": 77,
                        "name": "F5",
                        "ticks": 6840,
                        "time": 35.625,
                        "velocity": 0.4015748031496063
                    },
                    {
                        "duration": 0.125,
                        "durationTicks": 24,
                        "midi": 79,
                        "name": "G5",
                        "ticks": 7008,
                        "time": 36.5,
                        "velocity": 0.4015748031496063
                    },
                    {
                        "duration": 0.125,
                        "durationTicks": 24,
                        "midi": 91,
                        "name": "G6",
                        "ticks": 7008,
                        "time": 36.5,
                        "velocity": 0.4015748031496063
                    },
                    {
                        "duration": 0.125,
                        "durationTicks": 24,
                        "midi": 77,
                        "name": "F5",
                        "ticks": 7032,
                        "time": 36.625,
                        "velocity": 0.4015748031496063
                    },
                    {
                        "duration": 0.125,
                        "durationTicks": 24,
                        "midi": 89,
                        "name": "F6",
                        "ticks": 7032,
                        "time": 36.625,
                        "velocity": 0.4015748031496063
                    },
                    {
                        "duration": 0.125,
                        "durationTicks": 24,
                        "midi": 79,
                        "name": "G5",
                        "ticks": 7056,
                        "time": 36.75,
                        "velocity": 0.4015748031496063
                    },
                    {
                        "duration": 0.125,
                        "durationTicks": 24,
                        "midi": 91,
                        "name": "G6",
                        "ticks": 7056,
                        "time": 36.75,
                        "velocity": 0.4015748031496063
                    },
                    {
                        "duration": 0.25,
                        "durationTicks": 48,
                        "midi": 89,
                        "name": "F6",
                        "ticks": 7080,
                        "time": 36.875,
                        "velocity": 0.4015748031496063
                    },
                    {
                        "duration": 0.25,
                        "durationTicks": 48,
                        "midi": 77,
                        "name": "F5",
                        "ticks": 7080,
                        "time": 36.875,
                        "velocity": 0.4015748031496063
                    },
                    {
                        "duration": 0.125,
                        "durationTicks": 24,
                        "midi": 74,
                        "name": "D5",
                        "ticks": 7128,
                        "time": 37.125,
                        "velocity": 0.4015748031496063
                    },
                    {
                        "duration": 0.125,
                        "durationTicks": 24,
                        "midi": 70,
                        "name": "A#4",
                        "ticks": 7128,
                        "time": 37.125,
                        "velocity": 0.4015748031496063
                    },
                    {
                        "duration": 0.125,
                        "durationTicks": 24,
                        "midi": 82,
                        "name": "A#5",
                        "ticks": 7128,
                        "time": 37.125,
                        "velocity": 0.4015748031496063
                    },
                    {
                        "duration": 0.125,
                        "durationTicks": 24,
                        "midi": 74,
                        "name": "D5",
                        "ticks": 7152,
                        "time": 37.25,
                        "velocity": 0.4015748031496063
                    },
                    {
                        "duration": 0.125,
                        "durationTicks": 24,
                        "midi": 70,
                        "name": "A#4",
                        "ticks": 7152,
                        "time": 37.25,
                        "velocity": 0.4015748031496063
                    },
                    {
                        "duration": 0.125,
                        "durationTicks": 24,
                        "midi": 82,
                        "name": "A#5",
                        "ticks": 7152,
                        "time": 37.25,
                        "velocity": 0.4015748031496063
                    },
                    {
                        "duration": 0.125,
                        "durationTicks": 24,
                        "midi": 74,
                        "name": "D5",
                        "ticks": 7176,
                        "time": 37.375,
                        "velocity": 0.4015748031496063
                    },
                    {
                        "duration": 0.125,
                        "durationTicks": 24,
                        "midi": 70,
                        "name": "A#4",
                        "ticks": 7176,
                        "time": 37.375,
                        "velocity": 0.4015748031496063
                    },
                    {
                        "duration": 0.125,
                        "durationTicks": 24,
                        "midi": 82,
                        "name": "A#5",
                        "ticks": 7176,
                        "time": 37.375,
                        "velocity": 0.4015748031496063
                    },
                    {
                        "duration": 0.125,
                        "durationTicks": 24,
                        "midi": 74,
                        "name": "D5",
                        "ticks": 7200,
                        "time": 37.5,
                        "velocity": 0.4015748031496063
                    },
                    {
                        "duration": 0.125,
                        "durationTicks": 24,
                        "midi": 70,
                        "name": "A#4",
                        "ticks": 7200,
                        "time": 37.5,
                        "velocity": 0.4015748031496063
                    },
                    {
                        "duration": 0.125,
                        "durationTicks": 24,
                        "midi": 82,
                        "name": "A#5",
                        "ticks": 7200,
                        "time": 37.5,
                        "velocity": 0.4015748031496063
                    },
                    {
                        "duration": 0.125,
                        "durationTicks": 24,
                        "midi": 74,
                        "name": "D5",
                        "ticks": 7224,
                        "time": 37.625,
                        "velocity": 0.4015748031496063
                    },
                    {
                        "duration": 0.125,
                        "durationTicks": 24,
                        "midi": 70,
                        "name": "A#4",
                        "ticks": 7224,
                        "time": 37.625,
                        "velocity": 0.4015748031496063
                    },
                    {
                        "duration": 0.125,
                        "durationTicks": 24,
                        "midi": 82,
                        "name": "A#5",
                        "ticks": 7224,
                        "time": 37.625,
                        "velocity": 0.4015748031496063
                    },
                    {
                        "duration": 0.125,
                        "durationTicks": 24,
                        "midi": 74,
                        "name": "D5",
                        "ticks": 7248,
                        "time": 37.75,
                        "velocity": 0.4015748031496063
                    },
                    {
                        "duration": 0.125,
                        "durationTicks": 24,
                        "midi": 70,
                        "name": "A#4",
                        "ticks": 7248,
                        "time": 37.75,
                        "velocity": 0.4015748031496063
                    },
                    {
                        "duration": 0.125,
                        "durationTicks": 24,
                        "midi": 82,
                        "name": "A#5",
                        "ticks": 7248,
                        "time": 37.75,
                        "velocity": 0.4015748031496063
                    },
                    {
                        "duration": 0.125,
                        "durationTicks": 24,
                        "midi": 82,
                        "name": "A#5",
                        "ticks": 7272,
                        "time": 37.875,
                        "velocity": 0.4015748031496063
                    },
                    {
                        "duration": 0.125,
                        "durationTicks": 24,
                        "midi": 94,
                        "name": "A#6",
                        "ticks": 7272,
                        "time": 37.875,
                        "velocity": 0.4015748031496063
                    },
                    {
                        "duration": 0.375,
                        "durationTicks": 72,
                        "midi": 89,
                        "name": "F6",
                        "ticks": 7296,
                        "time": 38,
                        "velocity": 0.4015748031496063
                    },
                    {
                        "duration": 0.375,
                        "durationTicks": 72,
                        "midi": 77,
                        "name": "F5",
                        "ticks": 7296,
                        "time": 38,
                        "velocity": 0.4015748031496063
                    },
                    {
                        "duration": 0.125,
                        "durationTicks": 24,
                        "midi": 77,
                        "name": "F5",
                        "ticks": 7368,
                        "time": 38.375,
                        "velocity": 0.4015748031496063
                    },
                    {
                        "duration": 0.125,
                        "durationTicks": 24,
                        "midi": 89,
                        "name": "F6",
                        "ticks": 7368,
                        "time": 38.375,
                        "velocity": 0.4015748031496063
                    },
                    {
                        "duration": 0.125,
                        "durationTicks": 24,
                        "midi": 77,
                        "name": "F5",
                        "ticks": 7392,
                        "time": 38.5,
                        "velocity": 0.4015748031496063
                    },
                    {
                        "duration": 0.125,
                        "durationTicks": 24,
                        "midi": 89,
                        "name": "F6",
                        "ticks": 7392,
                        "time": 38.5,
                        "velocity": 0.4015748031496063
                    },
                    {
                        "duration": 0.125,
                        "durationTicks": 24,
                        "midi": 84,
                        "name": "C6",
                        "ticks": 7416,
                        "time": 38.625,
                        "velocity": 0.4015748031496063
                    },
                    {
                        "duration": 0.125,
                        "durationTicks": 24,
                        "midi": 96,
                        "name": "C7",
                        "ticks": 7416,
                        "time": 38.625,
                        "velocity": 0.4015748031496063
                    },
                    {
                        "duration": 0.125,
                        "durationTicks": 24,
                        "midi": 81,
                        "name": "A5",
                        "ticks": 7440,
                        "time": 38.75,
                        "velocity": 0.4015748031496063
                    },
                    {
                        "duration": 0.125,
                        "durationTicks": 24,
                        "midi": 93,
                        "name": "A6",
                        "ticks": 7440,
                        "time": 38.75,
                        "velocity": 0.4015748031496063
                    },
                    {
                        "duration": 0.125,
                        "durationTicks": 24,
                        "midi": 94,
                        "name": "A#6",
                        "ticks": 7464,
                        "time": 38.875,
                        "velocity": 0.4015748031496063
                    },
                    {
                        "duration": 0.125,
                        "durationTicks": 24,
                        "midi": 82,
                        "name": "A#5",
                        "ticks": 7464,
                        "time": 38.875,
                        "velocity": 0.4015748031496063
                    },
                    {
                        "duration": 0.125,
                        "durationTicks": 24,
                        "midi": 74,
                        "name": "D5",
                        "ticks": 7512,
                        "time": 39.125,
                        "velocity": 0.4015748031496063
                    },
                    {
                        "duration": 0.125,
                        "durationTicks": 24,
                        "midi": 70,
                        "name": "A#4",
                        "ticks": 7512,
                        "time": 39.125,
                        "velocity": 0.4015748031496063
                    },
                    {
                        "duration": 0.125,
                        "durationTicks": 24,
                        "midi": 82,
                        "name": "A#5",
                        "ticks": 7512,
                        "time": 39.125,
                        "velocity": 0.4015748031496063
                    },
                    {
                        "duration": 0.125,
                        "durationTicks": 24,
                        "midi": 74,
                        "name": "D5",
                        "ticks": 7536,
                        "time": 39.25,
                        "velocity": 0.4015748031496063
                    },
                    {
                        "duration": 0.125,
                        "durationTicks": 24,
                        "midi": 70,
                        "name": "A#4",
                        "ticks": 7536,
                        "time": 39.25,
                        "velocity": 0.4015748031496063
                    },
                    {
                        "duration": 0.125,
                        "durationTicks": 24,
                        "midi": 82,
                        "name": "A#5",
                        "ticks": 7536,
                        "time": 39.25,
                        "velocity": 0.4015748031496063
                    },
                    {
                        "duration": 0.125,
                        "durationTicks": 24,
                        "midi": 74,
                        "name": "D5",
                        "ticks": 7560,
                        "time": 39.375,
                        "velocity": 0.4015748031496063
                    },
                    {
                        "duration": 0.125,
                        "durationTicks": 24,
                        "midi": 69,
                        "name": "A4",
                        "ticks": 7560,
                        "time": 39.375,
                        "velocity": 0.4015748031496063
                    },
                    {
                        "duration": 0.125,
                        "durationTicks": 24,
                        "midi": 81,
                        "name": "A5",
                        "ticks": 7560,
                        "time": 39.375,
                        "velocity": 0.4015748031496063
                    },
                    {
                        "duration": 0.25,
                        "durationTicks": 48,
                        "midi": 74,
                        "name": "D5",
                        "ticks": 7584,
                        "time": 39.5,
                        "velocity": 0.4015748031496063
                    },
                    {
                        "duration": 0.25,
                        "durationTicks": 48,
                        "midi": 82,
                        "name": "A#5",
                        "ticks": 7584,
                        "time": 39.5,
                        "velocity": 0.4015748031496063
                    },
                    {
                        "duration": 0.25,
                        "durationTicks": 48,
                        "midi": 70,
                        "name": "A#4",
                        "ticks": 7584,
                        "time": 39.5,
                        "velocity": 0.4015748031496063
                    },
                    {
                        "duration": 0.25,
                        "durationTicks": 48,
                        "midi": 77,
                        "name": "F5",
                        "ticks": 7632,
                        "time": 39.75,
                        "velocity": 0.4015748031496063
                    },
                    {
                        "duration": 0.25,
                        "durationTicks": 48,
                        "midi": 65,
                        "name": "F4",
                        "ticks": 7632,
                        "time": 39.75,
                        "velocity": 0.4015748031496063
                    },
                    {
                        "duration": 0.125,
                        "durationTicks": 24,
                        "midi": 84,
                        "name": "C6",
                        "ticks": 7776,
                        "time": 40.5,
                        "velocity": 0.4015748031496063
                    },
                    {
                        "duration": 0.125,
                        "durationTicks": 24,
                        "midi": 72,
                        "name": "C5",
                        "ticks": 7776,
                        "time": 40.5,
                        "velocity": 0.4015748031496063
                    },
                    {
                        "duration": 0.125,
                        "durationTicks": 24,
                        "midi": 86,
                        "name": "D6",
                        "ticks": 7800,
                        "time": 40.625,
                        "velocity": 0.4015748031496063
                    },
                    {
                        "duration": 0.125,
                        "durationTicks": 24,
                        "midi": 74,
                        "name": "D5",
                        "ticks": 7800,
                        "time": 40.625,
                        "velocity": 0.4015748031496063
                    },
                    {
                        "duration": 0.125,
                        "durationTicks": 24,
                        "midi": 84,
                        "name": "C6",
                        "ticks": 7824,
                        "time": 40.75,
                        "velocity": 0.4015748031496063
                    },
                    {
                        "duration": 0.125,
                        "durationTicks": 24,
                        "midi": 72,
                        "name": "C5",
                        "ticks": 7824,
                        "time": 40.75,
                        "velocity": 0.4015748031496063
                    },
                    {
                        "duration": 0.25,
                        "durationTicks": 48,
                        "midi": 89,
                        "name": "F6",
                        "ticks": 7848,
                        "time": 40.875,
                        "velocity": 0.4015748031496063
                    },
                    {
                        "duration": 0.25,
                        "durationTicks": 48,
                        "midi": 77,
                        "name": "F5",
                        "ticks": 7848,
                        "time": 40.875,
                        "velocity": 0.4015748031496063
                    },
                    {
                        "duration": 0.125,
                        "durationTicks": 24,
                        "midi": 89,
                        "name": "F6",
                        "ticks": 7896,
                        "time": 41.125,
                        "velocity": 0.4015748031496063
                    },
                    {
                        "duration": 0.125,
                        "durationTicks": 24,
                        "midi": 77,
                        "name": "F5",
                        "ticks": 7896,
                        "time": 41.125,
                        "velocity": 0.4015748031496063
                    },
                    {
                        "duration": 0.125,
                        "durationTicks": 24,
                        "midi": 94,
                        "name": "A#6",
                        "ticks": 7920,
                        "time": 41.25,
                        "velocity": 0.4015748031496063
                    },
                    {
                        "duration": 0.125,
                        "durationTicks": 24,
                        "midi": 82,
                        "name": "A#5",
                        "ticks": 7920,
                        "time": 41.25,
                        "velocity": 0.4015748031496063
                    },
                    {
                        "duration": 0.125,
                        "durationTicks": 24,
                        "midi": 89,
                        "name": "F6",
                        "ticks": 7944,
                        "time": 41.375,
                        "velocity": 0.4015748031496063
                    },
                    {
                        "duration": 0.125,
                        "durationTicks": 24,
                        "midi": 77,
                        "name": "F5",
                        "ticks": 7944,
                        "time": 41.375,
                        "velocity": 0.4015748031496063
                    },
                    {
                        "duration": 0.125,
                        "durationTicks": 24,
                        "midi": 86,
                        "name": "D6",
                        "ticks": 7968,
                        "time": 41.5,
                        "velocity": 0.4015748031496063
                    },
                    {
                        "duration": 0.125,
                        "durationTicks": 24,
                        "midi": 74,
                        "name": "D5",
                        "ticks": 7968,
                        "time": 41.5,
                        "velocity": 0.4015748031496063
                    },
                    {
                        "duration": 0.125,
                        "durationTicks": 24,
                        "midi": 89,
                        "name": "F6",
                        "ticks": 7992,
                        "time": 41.625,
                        "velocity": 0.4015748031496063
                    },
                    {
                        "duration": 0.125,
                        "durationTicks": 24,
                        "midi": 77,
                        "name": "F5",
                        "ticks": 7992,
                        "time": 41.625,
                        "velocity": 0.4015748031496063
                    },
                    {
                        "duration": 0.125,
                        "durationTicks": 24,
                        "midi": 89,
                        "name": "F6",
                        "ticks": 8016,
                        "time": 41.75,
                        "velocity": 0.4015748031496063
                    },
                    {
                        "duration": 0.125,
                        "durationTicks": 24,
                        "midi": 77,
                        "name": "F5",
                        "ticks": 8016,
                        "time": 41.75,
                        "velocity": 0.4015748031496063
                    },
                    {
                        "duration": 0.125,
                        "durationTicks": 24,
                        "midi": 86,
                        "name": "D6",
                        "ticks": 8040,
                        "time": 41.875,
                        "velocity": 0.4015748031496063
                    },
                    {
                        "duration": 0.125,
                        "durationTicks": 24,
                        "midi": 74,
                        "name": "D5",
                        "ticks": 8040,
                        "time": 41.875,
                        "velocity": 0.4015748031496063
                    },
                    {
                        "duration": 0.25,
                        "durationTicks": 48,
                        "midi": 77,
                        "name": "F5",
                        "ticks": 8064,
                        "time": 42,
                        "velocity": 0.4015748031496063
                    },
                    {
                        "duration": 0.25,
                        "durationTicks": 48,
                        "midi": 89,
                        "name": "F6",
                        "ticks": 8064,
                        "time": 42,
                        "velocity": 0.4015748031496063
                    },
                    {
                        "duration": 0.125,
                        "durationTicks": 24,
                        "midi": 86,
                        "name": "D6",
                        "ticks": 8136,
                        "time": 42.375,
                        "velocity": 0.4015748031496063
                    },
                    {
                        "duration": 0.125,
                        "durationTicks": 24,
                        "midi": 74,
                        "name": "D5",
                        "ticks": 8136,
                        "time": 42.375,
                        "velocity": 0.4015748031496063
                    },
                    {
                        "duration": 0.125,
                        "durationTicks": 24,
                        "midi": 89,
                        "name": "F6",
                        "ticks": 8160,
                        "time": 42.5,
                        "velocity": 0.4015748031496063
                    },
                    {
                        "duration": 0.125,
                        "durationTicks": 24,
                        "midi": 77,
                        "name": "F5",
                        "ticks": 8160,
                        "time": 42.5,
                        "velocity": 0.4015748031496063
                    },
                    {
                        "duration": 0.125,
                        "durationTicks": 24,
                        "midi": 86,
                        "name": "D6",
                        "ticks": 8184,
                        "time": 42.625,
                        "velocity": 0.4015748031496063
                    },
                    {
                        "duration": 0.125,
                        "durationTicks": 24,
                        "midi": 74,
                        "name": "D5",
                        "ticks": 8184,
                        "time": 42.625,
                        "velocity": 0.4015748031496063
                    },
                    {
                        "duration": 0.125,
                        "durationTicks": 24,
                        "midi": 84,
                        "name": "C6",
                        "ticks": 8208,
                        "time": 42.75,
                        "velocity": 0.4015748031496063
                    },
                    {
                        "duration": 0.125,
                        "durationTicks": 24,
                        "midi": 72,
                        "name": "C5",
                        "ticks": 8208,
                        "time": 42.75,
                        "velocity": 0.4015748031496063
                    },
                    {
                        "duration": 0.125,
                        "durationTicks": 24,
                        "midi": 82,
                        "name": "A#5",
                        "ticks": 8232,
                        "time": 42.875,
                        "velocity": 0.4015748031496063
                    },
                    {
                        "duration": 0.125,
                        "durationTicks": 24,
                        "midi": 70,
                        "name": "A#4",
                        "ticks": 8232,
                        "time": 42.875,
                        "velocity": 0.4015748031496063
                    },
                    {
                        "duration": 0.125,
                        "durationTicks": 24,
                        "midi": 74,
                        "name": "D5",
                        "ticks": 8280,
                        "time": 43.125,
                        "velocity": 0.4015748031496063
                    },
                    {
                        "duration": 0.125,
                        "durationTicks": 24,
                        "midi": 82,
                        "name": "A#5",
                        "ticks": 8280,
                        "time": 43.125,
                        "velocity": 0.4015748031496063
                    },
                    {
                        "duration": 0.125,
                        "durationTicks": 24,
                        "midi": 70,
                        "name": "A#4",
                        "ticks": 8280,
                        "time": 43.125,
                        "velocity": 0.4015748031496063
                    },
                    {
                        "duration": 0.125,
                        "durationTicks": 24,
                        "midi": 74,
                        "name": "D5",
                        "ticks": 8304,
                        "time": 43.25,
                        "velocity": 0.4015748031496063
                    },
                    {
                        "duration": 0.125,
                        "durationTicks": 24,
                        "midi": 82,
                        "name": "A#5",
                        "ticks": 8304,
                        "time": 43.25,
                        "velocity": 0.4015748031496063
                    },
                    {
                        "duration": 0.125,
                        "durationTicks": 24,
                        "midi": 70,
                        "name": "A#4",
                        "ticks": 8304,
                        "time": 43.25,
                        "velocity": 0.4015748031496063
                    },
                    {
                        "duration": 0.125,
                        "durationTicks": 24,
                        "midi": 72,
                        "name": "C5",
                        "ticks": 8328,
                        "time": 43.375,
                        "velocity": 0.4015748031496063
                    },
                    {
                        "duration": 0.125,
                        "durationTicks": 24,
                        "midi": 81,
                        "name": "A5",
                        "ticks": 8328,
                        "time": 43.375,
                        "velocity": 0.4015748031496063
                    },
                    {
                        "duration": 0.125,
                        "durationTicks": 24,
                        "midi": 69,
                        "name": "A4",
                        "ticks": 8328,
                        "time": 43.375,
                        "velocity": 0.4015748031496063
                    },
                    {
                        "duration": 0.125,
                        "durationTicks": 24,
                        "midi": 70,
                        "name": "A#4",
                        "ticks": 8352,
                        "time": 43.5,
                        "velocity": 0.4015748031496063
                    },
                    {
                        "duration": 0.125,
                        "durationTicks": 24,
                        "midi": 79,
                        "name": "G5",
                        "ticks": 8352,
                        "time": 43.5,
                        "velocity": 0.4015748031496063
                    },
                    {
                        "duration": 0.125,
                        "durationTicks": 24,
                        "midi": 67,
                        "name": "G4",
                        "ticks": 8352,
                        "time": 43.5,
                        "velocity": 0.4015748031496063
                    },
                    {
                        "duration": 0.25,
                        "durationTicks": 48,
                        "midi": 93,
                        "name": "A6",
                        "ticks": 8376,
                        "time": 43.625,
                        "velocity": 0.4015748031496063
                    },
                    {
                        "duration": 0.25,
                        "durationTicks": 48,
                        "midi": 81,
                        "name": "A5",
                        "ticks": 8376,
                        "time": 43.625,
                        "velocity": 0.4015748031496063
                    },
                    {
                        "duration": 0.125,
                        "durationTicks": 24,
                        "midi": 91,
                        "name": "G6",
                        "ticks": 8424,
                        "time": 43.875,
                        "velocity": 0.4015748031496063
                    },
                    {
                        "duration": 0.125,
                        "durationTicks": 24,
                        "midi": 79,
                        "name": "G5",
                        "ticks": 8424,
                        "time": 43.875,
                        "velocity": 0.4015748031496063
                    },
                    {
                        "duration": 0.125,
                        "durationTicks": 24,
                        "midi": 91,
                        "name": "G6",
                        "ticks": 8544,
                        "time": 44.5,
                        "velocity": 0.4015748031496063
                    },
                    {
                        "duration": 0.125,
                        "durationTicks": 24,
                        "midi": 79,
                        "name": "G5",
                        "ticks": 8544,
                        "time": 44.5,
                        "velocity": 0.4015748031496063
                    },
                    {
                        "duration": 0.125,
                        "durationTicks": 24,
                        "midi": 89,
                        "name": "F6",
                        "ticks": 8568,
                        "time": 44.625,
                        "velocity": 0.4015748031496063
                    },
                    {
                        "duration": 0.125,
                        "durationTicks": 24,
                        "midi": 77,
                        "name": "F5",
                        "ticks": 8568,
                        "time": 44.625,
                        "velocity": 0.4015748031496063
                    },
                    {
                        "duration": 0.125,
                        "durationTicks": 24,
                        "midi": 91,
                        "name": "G6",
                        "ticks": 8592,
                        "time": 44.75,
                        "velocity": 0.4015748031496063
                    },
                    {
                        "duration": 0.125,
                        "durationTicks": 24,
                        "midi": 79,
                        "name": "G5",
                        "ticks": 8592,
                        "time": 44.75,
                        "velocity": 0.4015748031496063
                    },
                    {
                        "duration": 0.125,
                        "durationTicks": 24,
                        "midi": 89,
                        "name": "F6",
                        "ticks": 8616,
                        "time": 44.875,
                        "velocity": 0.4015748031496063
                    },
                    {
                        "duration": 0.125,
                        "durationTicks": 24,
                        "midi": 77,
                        "name": "F5",
                        "ticks": 8616,
                        "time": 44.875,
                        "velocity": 0.4015748031496063
                    },
                    {
                        "duration": 0.125,
                        "durationTicks": 24,
                        "midi": 74,
                        "name": "D5",
                        "ticks": 8664,
                        "time": 45.125,
                        "velocity": 0.4015748031496063
                    },
                    {
                        "duration": 0.125,
                        "durationTicks": 24,
                        "midi": 82,
                        "name": "A#5",
                        "ticks": 8664,
                        "time": 45.125,
                        "velocity": 0.4015748031496063
                    },
                    {
                        "duration": 0.125,
                        "durationTicks": 24,
                        "midi": 70,
                        "name": "A#4",
                        "ticks": 8664,
                        "time": 45.125,
                        "velocity": 0.4015748031496063
                    },
                    {
                        "duration": 0.125,
                        "durationTicks": 24,
                        "midi": 74,
                        "name": "D5",
                        "ticks": 8688,
                        "time": 45.25,
                        "velocity": 0.4015748031496063
                    },
                    {
                        "duration": 0.125,
                        "durationTicks": 24,
                        "midi": 82,
                        "name": "A#5",
                        "ticks": 8688,
                        "time": 45.25,
                        "velocity": 0.4015748031496063
                    },
                    {
                        "duration": 0.125,
                        "durationTicks": 24,
                        "midi": 70,
                        "name": "A#4",
                        "ticks": 8688,
                        "time": 45.25,
                        "velocity": 0.4015748031496063
                    },
                    {
                        "duration": 0.125,
                        "durationTicks": 24,
                        "midi": 74,
                        "name": "D5",
                        "ticks": 8712,
                        "time": 45.375,
                        "velocity": 0.4015748031496063
                    },
                    {
                        "duration": 0.125,
                        "durationTicks": 24,
                        "midi": 82,
                        "name": "A#5",
                        "ticks": 8712,
                        "time": 45.375,
                        "velocity": 0.4015748031496063
                    },
                    {
                        "duration": 0.125,
                        "durationTicks": 24,
                        "midi": 70,
                        "name": "A#4",
                        "ticks": 8712,
                        "time": 45.375,
                        "velocity": 0.4015748031496063
                    },
                    {
                        "duration": 0.125,
                        "durationTicks": 24,
                        "midi": 74,
                        "name": "D5",
                        "ticks": 8736,
                        "time": 45.5,
                        "velocity": 0.4015748031496063
                    },
                    {
                        "duration": 0.125,
                        "durationTicks": 24,
                        "midi": 82,
                        "name": "A#5",
                        "ticks": 8736,
                        "time": 45.5,
                        "velocity": 0.4015748031496063
                    },
                    {
                        "duration": 0.125,
                        "durationTicks": 24,
                        "midi": 70,
                        "name": "A#4",
                        "ticks": 8736,
                        "time": 45.5,
                        "velocity": 0.4015748031496063
                    },
                    {
                        "duration": 0.125,
                        "durationTicks": 24,
                        "midi": 74,
                        "name": "D5",
                        "ticks": 8760,
                        "time": 45.625,
                        "velocity": 0.4015748031496063
                    },
                    {
                        "duration": 0.125,
                        "durationTicks": 24,
                        "midi": 82,
                        "name": "A#5",
                        "ticks": 8760,
                        "time": 45.625,
                        "velocity": 0.4015748031496063
                    },
                    {
                        "duration": 0.125,
                        "durationTicks": 24,
                        "midi": 70,
                        "name": "A#4",
                        "ticks": 8760,
                        "time": 45.625,
                        "velocity": 0.4015748031496063
                    },
                    {
                        "duration": 0.125,
                        "durationTicks": 24,
                        "midi": 74,
                        "name": "D5",
                        "ticks": 8784,
                        "time": 45.75,
                        "velocity": 0.4015748031496063
                    },
                    {
                        "duration": 0.125,
                        "durationTicks": 24,
                        "midi": 82,
                        "name": "A#5",
                        "ticks": 8784,
                        "time": 45.75,
                        "velocity": 0.4015748031496063
                    },
                    {
                        "duration": 0.125,
                        "durationTicks": 24,
                        "midi": 70,
                        "name": "A#4",
                        "ticks": 8784,
                        "time": 45.75,
                        "velocity": 0.4015748031496063
                    },
                    {
                        "duration": 0.125,
                        "durationTicks": 24,
                        "midi": 94,
                        "name": "A#6",
                        "ticks": 8808,
                        "time": 45.875,
                        "velocity": 0.4015748031496063
                    },
                    {
                        "duration": 0.125,
                        "durationTicks": 24,
                        "midi": 82,
                        "name": "A#5",
                        "ticks": 8808,
                        "time": 45.875,
                        "velocity": 0.4015748031496063
                    },
                    {
                        "duration": 0.375,
                        "durationTicks": 72,
                        "midi": 77,
                        "name": "F5",
                        "ticks": 8832,
                        "time": 46,
                        "velocity": 0.4015748031496063
                    },
                    {
                        "duration": 0.375,
                        "durationTicks": 72,
                        "midi": 89,
                        "name": "F6",
                        "ticks": 8832,
                        "time": 46,
                        "velocity": 0.4015748031496063
                    },
                    {
                        "duration": 0.125,
                        "durationTicks": 24,
                        "midi": 89,
                        "name": "F6",
                        "ticks": 8904,
                        "time": 46.375,
                        "velocity": 0.4015748031496063
                    },
                    {
                        "duration": 0.125,
                        "durationTicks": 24,
                        "midi": 77,
                        "name": "F5",
                        "ticks": 8904,
                        "time": 46.375,
                        "velocity": 0.4015748031496063
                    },
                    {
                        "duration": 0.125,
                        "durationTicks": 24,
                        "midi": 89,
                        "name": "F6",
                        "ticks": 8928,
                        "time": 46.5,
                        "velocity": 0.4015748031496063
                    },
                    {
                        "duration": 0.125,
                        "durationTicks": 24,
                        "midi": 77,
                        "name": "F5",
                        "ticks": 8928,
                        "time": 46.5,
                        "velocity": 0.4015748031496063
                    },
                    {
                        "duration": 0.125,
                        "durationTicks": 24,
                        "midi": 96,
                        "name": "C7",
                        "ticks": 8952,
                        "time": 46.625,
                        "velocity": 0.4015748031496063
                    },
                    {
                        "duration": 0.125,
                        "durationTicks": 24,
                        "midi": 84,
                        "name": "C6",
                        "ticks": 8952,
                        "time": 46.625,
                        "velocity": 0.4015748031496063
                    },
                    {
                        "duration": 0.125,
                        "durationTicks": 24,
                        "midi": 93,
                        "name": "A6",
                        "ticks": 8976,
                        "time": 46.75,
                        "velocity": 0.4015748031496063
                    },
                    {
                        "duration": 0.125,
                        "durationTicks": 24,
                        "midi": 81,
                        "name": "A5",
                        "ticks": 8976,
                        "time": 46.75,
                        "velocity": 0.4015748031496063
                    },
                    {
                        "duration": 0.125,
                        "durationTicks": 24,
                        "midi": 94,
                        "name": "A#6",
                        "ticks": 9000,
                        "time": 46.875,
                        "velocity": 0.4015748031496063
                    },
                    {
                        "duration": 0.125,
                        "durationTicks": 24,
                        "midi": 82,
                        "name": "A#5",
                        "ticks": 9000,
                        "time": 46.875,
                        "velocity": 0.4015748031496063
                    },
                    {
                        "duration": 0.125,
                        "durationTicks": 24,
                        "midi": 74,
                        "name": "D5",
                        "ticks": 9048,
                        "time": 47.125,
                        "velocity": 0.4015748031496063
                    },
                    {
                        "duration": 0.125,
                        "durationTicks": 24,
                        "midi": 70,
                        "name": "A#4",
                        "ticks": 9048,
                        "time": 47.125,
                        "velocity": 0.4015748031496063
                    },
                    {
                        "duration": 0.125,
                        "durationTicks": 24,
                        "midi": 82,
                        "name": "A#5",
                        "ticks": 9048,
                        "time": 47.125,
                        "velocity": 0.4015748031496063
                    },
                    {
                        "duration": 0.125,
                        "durationTicks": 24,
                        "midi": 74,
                        "name": "D5",
                        "ticks": 9072,
                        "time": 47.25,
                        "velocity": 0.4015748031496063
                    },
                    {
                        "duration": 0.125,
                        "durationTicks": 24,
                        "midi": 82,
                        "name": "A#5",
                        "ticks": 9072,
                        "time": 47.25,
                        "velocity": 0.4015748031496063
                    },
                    {
                        "duration": 0.125,
                        "durationTicks": 24,
                        "midi": 70,
                        "name": "A#4",
                        "ticks": 9072,
                        "time": 47.25,
                        "velocity": 0.4015748031496063
                    },
                    {
                        "duration": 0.125,
                        "durationTicks": 24,
                        "midi": 72,
                        "name": "C5",
                        "ticks": 9096,
                        "time": 47.375,
                        "velocity": 0.4015748031496063
                    },
                    {
                        "duration": 0.125,
                        "durationTicks": 24,
                        "midi": 81,
                        "name": "A5",
                        "ticks": 9096,
                        "time": 47.375,
                        "velocity": 0.4015748031496063
                    },
                    {
                        "duration": 0.125,
                        "durationTicks": 24,
                        "midi": 69,
                        "name": "A4",
                        "ticks": 9096,
                        "time": 47.375,
                        "velocity": 0.4015748031496063
                    },
                    {
                        "duration": 0.25,
                        "durationTicks": 48,
                        "midi": 74,
                        "name": "D5",
                        "ticks": 9120,
                        "time": 47.5,
                        "velocity": 0.4015748031496063
                    },
                    {
                        "duration": 0.25,
                        "durationTicks": 48,
                        "midi": 82,
                        "name": "A#5",
                        "ticks": 9120,
                        "time": 47.5,
                        "velocity": 0.4015748031496063
                    },
                    {
                        "duration": 0.25,
                        "durationTicks": 48,
                        "midi": 70,
                        "name": "A#4",
                        "ticks": 9120,
                        "time": 47.5,
                        "velocity": 0.4015748031496063
                    },
                    {
                        "duration": 0.25,
                        "durationTicks": 48,
                        "midi": 72,
                        "name": "C5",
                        "ticks": 9168,
                        "time": 47.75,
                        "velocity": 0.4015748031496063
                    },
                    {
                        "duration": 0.25,
                        "durationTicks": 48,
                        "midi": 69,
                        "name": "A4",
                        "ticks": 9168,
                        "time": 47.75,
                        "velocity": 0.4015748031496063
                    },
                    {
                        "duration": 0.25,
                        "durationTicks": 48,
                        "midi": 81,
                        "name": "A5",
                        "ticks": 9168,
                        "time": 47.75,
                        "velocity": 0.4015748031496063
                    },
                    {
                        "duration": 0.125,
                        "durationTicks": 24,
                        "midi": 84,
                        "name": "C6",
                        "ticks": 9312,
                        "time": 48.5,
                        "velocity": 0.4015748031496063
                    },
                    {
                        "duration": 0.125,
                        "durationTicks": 24,
                        "midi": 72,
                        "name": "C5",
                        "ticks": 9312,
                        "time": 48.5,
                        "velocity": 0.4015748031496063
                    },
                    {
                        "duration": 0.125,
                        "durationTicks": 24,
                        "midi": 86,
                        "name": "D6",
                        "ticks": 9336,
                        "time": 48.625,
                        "velocity": 0.4015748031496063
                    },
                    {
                        "duration": 0.125,
                        "durationTicks": 24,
                        "midi": 74,
                        "name": "D5",
                        "ticks": 9336,
                        "time": 48.625,
                        "velocity": 0.4015748031496063
                    },
                    {
                        "duration": 0.125,
                        "durationTicks": 24,
                        "midi": 84,
                        "name": "C6",
                        "ticks": 9360,
                        "time": 48.75,
                        "velocity": 0.4015748031496063
                    },
                    {
                        "duration": 0.125,
                        "durationTicks": 24,
                        "midi": 72,
                        "name": "C5",
                        "ticks": 9360,
                        "time": 48.75,
                        "velocity": 0.4015748031496063
                    },
                    {
                        "duration": 0.25,
                        "durationTicks": 48,
                        "midi": 89,
                        "name": "F6",
                        "ticks": 9384,
                        "time": 48.875,
                        "velocity": 0.4015748031496063
                    },
                    {
                        "duration": 0.25,
                        "durationTicks": 48,
                        "midi": 77,
                        "name": "F5",
                        "ticks": 9384,
                        "time": 48.875,
                        "velocity": 0.4015748031496063
                    },
                    {
                        "duration": 0.125,
                        "durationTicks": 24,
                        "midi": 89,
                        "name": "F6",
                        "ticks": 9432,
                        "time": 49.125,
                        "velocity": 0.4015748031496063
                    },
                    {
                        "duration": 0.125,
                        "durationTicks": 24,
                        "midi": 77,
                        "name": "F5",
                        "ticks": 9432,
                        "time": 49.125,
                        "velocity": 0.4015748031496063
                    },
                    {
                        "duration": 0.125,
                        "durationTicks": 24,
                        "midi": 94,
                        "name": "A#6",
                        "ticks": 9456,
                        "time": 49.25,
                        "velocity": 0.4015748031496063
                    },
                    {
                        "duration": 0.125,
                        "durationTicks": 24,
                        "midi": 82,
                        "name": "A#5",
                        "ticks": 9456,
                        "time": 49.25,
                        "velocity": 0.4015748031496063
                    },
                    {
                        "duration": 0.125,
                        "durationTicks": 24,
                        "midi": 89,
                        "name": "F6",
                        "ticks": 9480,
                        "time": 49.375,
                        "velocity": 0.4015748031496063
                    },
                    {
                        "duration": 0.125,
                        "durationTicks": 24,
                        "midi": 77,
                        "name": "F5",
                        "ticks": 9480,
                        "time": 49.375,
                        "velocity": 0.4015748031496063
                    },
                    {
                        "duration": 0.125,
                        "durationTicks": 24,
                        "midi": 86,
                        "name": "D6",
                        "ticks": 9504,
                        "time": 49.5,
                        "velocity": 0.4015748031496063
                    },
                    {
                        "duration": 0.125,
                        "durationTicks": 24,
                        "midi": 74,
                        "name": "D5",
                        "ticks": 9504,
                        "time": 49.5,
                        "velocity": 0.4015748031496063
                    },
                    {
                        "duration": 0.125,
                        "durationTicks": 24,
                        "midi": 89,
                        "name": "F6",
                        "ticks": 9528,
                        "time": 49.625,
                        "velocity": 0.4015748031496063
                    },
                    {
                        "duration": 0.125,
                        "durationTicks": 24,
                        "midi": 77,
                        "name": "F5",
                        "ticks": 9528,
                        "time": 49.625,
                        "velocity": 0.4015748031496063
                    },
                    {
                        "duration": 0.125,
                        "durationTicks": 24,
                        "midi": 89,
                        "name": "F6",
                        "ticks": 9552,
                        "time": 49.75,
                        "velocity": 0.4015748031496063
                    },
                    {
                        "duration": 0.125,
                        "durationTicks": 24,
                        "midi": 77,
                        "name": "F5",
                        "ticks": 9552,
                        "time": 49.75,
                        "velocity": 0.4015748031496063
                    },
                    {
                        "duration": 0.125,
                        "durationTicks": 24,
                        "midi": 86,
                        "name": "D6",
                        "ticks": 9576,
                        "time": 49.875,
                        "velocity": 0.4015748031496063
                    },
                    {
                        "duration": 0.125,
                        "durationTicks": 24,
                        "midi": 74,
                        "name": "D5",
                        "ticks": 9576,
                        "time": 49.875,
                        "velocity": 0.4015748031496063
                    },
                    {
                        "duration": 0.125,
                        "durationTicks": 24,
                        "midi": 77,
                        "name": "F5",
                        "ticks": 9600,
                        "time": 50,
                        "velocity": 0.4015748031496063
                    },
                    {
                        "duration": 0.125,
                        "durationTicks": 24,
                        "midi": 89,
                        "name": "F6",
                        "ticks": 9600,
                        "time": 50,
                        "velocity": 0.4015748031496063
                    },
                    {
                        "duration": 0.125,
                        "durationTicks": 24,
                        "midi": 86,
                        "name": "D6",
                        "ticks": 9672,
                        "time": 50.375,
                        "velocity": 0.4015748031496063
                    },
                    {
                        "duration": 0.125,
                        "durationTicks": 24,
                        "midi": 74,
                        "name": "D5",
                        "ticks": 9672,
                        "time": 50.375,
                        "velocity": 0.4015748031496063
                    },
                    {
                        "duration": 0.125,
                        "durationTicks": 24,
                        "midi": 89,
                        "name": "F6",
                        "ticks": 9696,
                        "time": 50.5,
                        "velocity": 0.4015748031496063
                    },
                    {
                        "duration": 0.125,
                        "durationTicks": 24,
                        "midi": 77,
                        "name": "F5",
                        "ticks": 9696,
                        "time": 50.5,
                        "velocity": 0.4015748031496063
                    },
                    {
                        "duration": 0.125,
                        "durationTicks": 24,
                        "midi": 86,
                        "name": "D6",
                        "ticks": 9720,
                        "time": 50.625,
                        "velocity": 0.4015748031496063
                    },
                    {
                        "duration": 0.125,
                        "durationTicks": 24,
                        "midi": 74,
                        "name": "D5",
                        "ticks": 9720,
                        "time": 50.625,
                        "velocity": 0.4015748031496063
                    },
                    {
                        "duration": 0.125,
                        "durationTicks": 24,
                        "midi": 84,
                        "name": "C6",
                        "ticks": 9744,
                        "time": 50.75,
                        "velocity": 0.4015748031496063
                    },
                    {
                        "duration": 0.125,
                        "durationTicks": 24,
                        "midi": 72,
                        "name": "C5",
                        "ticks": 9744,
                        "time": 50.75,
                        "velocity": 0.4015748031496063
                    },
                    {
                        "duration": 0.125,
                        "durationTicks": 24,
                        "midi": 82,
                        "name": "A#5",
                        "ticks": 9768,
                        "time": 50.875,
                        "velocity": 0.4015748031496063
                    },
                    {
                        "duration": 0.125,
                        "durationTicks": 24,
                        "midi": 70,
                        "name": "A#4",
                        "ticks": 9768,
                        "time": 50.875,
                        "velocity": 0.4015748031496063
                    },
                    {
                        "duration": 0.125,
                        "durationTicks": 24,
                        "midi": 74,
                        "name": "D5",
                        "ticks": 9816,
                        "time": 51.125,
                        "velocity": 0.4015748031496063
                    },
                    {
                        "duration": 0.125,
                        "durationTicks": 24,
                        "midi": 82,
                        "name": "A#5",
                        "ticks": 9816,
                        "time": 51.125,
                        "velocity": 0.4015748031496063
                    },
                    {
                        "duration": 0.125,
                        "durationTicks": 24,
                        "midi": 70,
                        "name": "A#4",
                        "ticks": 9816,
                        "time": 51.125,
                        "velocity": 0.4015748031496063
                    },
                    {
                        "duration": 0.125,
                        "durationTicks": 24,
                        "midi": 74,
                        "name": "D5",
                        "ticks": 9840,
                        "time": 51.25,
                        "velocity": 0.4015748031496063
                    },
                    {
                        "duration": 0.125,
                        "durationTicks": 24,
                        "midi": 82,
                        "name": "A#5",
                        "ticks": 9840,
                        "time": 51.25,
                        "velocity": 0.4015748031496063
                    },
                    {
                        "duration": 0.125,
                        "durationTicks": 24,
                        "midi": 70,
                        "name": "A#4",
                        "ticks": 9840,
                        "time": 51.25,
                        "velocity": 0.4015748031496063
                    },
                    {
                        "duration": 0.125,
                        "durationTicks": 24,
                        "midi": 72,
                        "name": "C5",
                        "ticks": 9864,
                        "time": 51.375,
                        "velocity": 0.4015748031496063
                    },
                    {
                        "duration": 0.125,
                        "durationTicks": 24,
                        "midi": 81,
                        "name": "A5",
                        "ticks": 9864,
                        "time": 51.375,
                        "velocity": 0.4015748031496063
                    },
                    {
                        "duration": 0.125,
                        "durationTicks": 24,
                        "midi": 69,
                        "name": "A4",
                        "ticks": 9864,
                        "time": 51.375,
                        "velocity": 0.4015748031496063
                    },
                    {
                        "duration": 0.125,
                        "durationTicks": 24,
                        "midi": 74,
                        "name": "D5",
                        "ticks": 9888,
                        "time": 51.5,
                        "velocity": 0.4015748031496063
                    },
                    {
                        "duration": 0.125,
                        "durationTicks": 24,
                        "midi": 82,
                        "name": "A#5",
                        "ticks": 9888,
                        "time": 51.5,
                        "velocity": 0.4015748031496063
                    },
                    {
                        "duration": 0.125,
                        "durationTicks": 24,
                        "midi": 70,
                        "name": "A#4",
                        "ticks": 9888,
                        "time": 51.5,
                        "velocity": 0.4015748031496063
                    },
                    {
                        "duration": 0.25,
                        "durationTicks": 48,
                        "midi": 93,
                        "name": "A6",
                        "ticks": 9912,
                        "time": 51.625,
                        "velocity": 0.4015748031496063
                    },
                    {
                        "duration": 0.25,
                        "durationTicks": 48,
                        "midi": 81,
                        "name": "A5",
                        "ticks": 9912,
                        "time": 51.625,
                        "velocity": 0.4015748031496063
                    },
                    {
                        "duration": 0.125,
                        "durationTicks": 24,
                        "midi": 91,
                        "name": "G6",
                        "ticks": 9960,
                        "time": 51.875,
                        "velocity": 0.4015748031496063
                    },
                    {
                        "duration": 0.125,
                        "durationTicks": 24,
                        "midi": 79,
                        "name": "G5",
                        "ticks": 9960,
                        "time": 51.875,
                        "velocity": 0.4015748031496063
                    },
                    {
                        "duration": 0.125,
                        "durationTicks": 24,
                        "midi": 91,
                        "name": "G6",
                        "ticks": 10080,
                        "time": 52.5,
                        "velocity": 0.4015748031496063
                    },
                    {
                        "duration": 0.125,
                        "durationTicks": 24,
                        "midi": 79,
                        "name": "G5",
                        "ticks": 10080,
                        "time": 52.5,
                        "velocity": 0.4015748031496063
                    },
                    {
                        "duration": 0.125,
                        "durationTicks": 24,
                        "midi": 89,
                        "name": "F6",
                        "ticks": 10104,
                        "time": 52.625,
                        "velocity": 0.4015748031496063
                    },
                    {
                        "duration": 0.125,
                        "durationTicks": 24,
                        "midi": 77,
                        "name": "F5",
                        "ticks": 10104,
                        "time": 52.625,
                        "velocity": 0.4015748031496063
                    },
                    {
                        "duration": 0.020833333333335702,
                        "durationTicks": 4,
                        "midi": 87,
                        "name": "D#6",
                        "ticks": 10128,
                        "time": 52.75,
                        "velocity": 0.4015748031496063
                    },
                    {
                        "duration": 0.2291666666666643,
                        "durationTicks": 44,
                        "midi": 77,
                        "name": "F5",
                        "ticks": 10132,
                        "time": 52.770833333333336,
                        "velocity": 0.4015748031496063
                    },
                    {
                        "duration": 0.2291666666666643,
                        "durationTicks": 44,
                        "midi": 89,
                        "name": "F6",
                        "ticks": 10132,
                        "time": 52.770833333333336,
                        "velocity": 0.4015748031496063
                    },
                    {
                        "duration": 0.125,
                        "durationTicks": 24,
                        "midi": 89,
                        "name": "F6",
                        "ticks": 10248,
                        "time": 53.375,
                        "velocity": 0.4015748031496063
                    },
                    {
                        "duration": 0.125,
                        "durationTicks": 24,
                        "midi": 77,
                        "name": "F5",
                        "ticks": 10248,
                        "time": 53.375,
                        "velocity": 0.4015748031496063
                    },
                    {
                        "duration": 0.25,
                        "durationTicks": 48,
                        "midi": 79,
                        "name": "G5",
                        "ticks": 10272,
                        "time": 53.5,
                        "velocity": 0.4015748031496063
                    },
                    {
                        "duration": 0.25,
                        "durationTicks": 48,
                        "midi": 91,
                        "name": "G6",
                        "ticks": 10272,
                        "time": 53.5,
                        "velocity": 0.4015748031496063
                    },
                    {
                        "duration": 0.125,
                        "durationTicks": 24,
                        "midi": 94,
                        "name": "A#6",
                        "ticks": 10320,
                        "time": 53.75,
                        "velocity": 0.4015748031496063
                    },
                    {
                        "duration": 0.125,
                        "durationTicks": 24,
                        "midi": 82,
                        "name": "A#5",
                        "ticks": 10320,
                        "time": 53.75,
                        "velocity": 0.4015748031496063
                    },
                    {
                        "duration": 0.125,
                        "durationTicks": 24,
                        "midi": 93,
                        "name": "A6",
                        "ticks": 10344,
                        "time": 53.875,
                        "velocity": 0.4015748031496063
                    },
                    {
                        "duration": 0.125,
                        "durationTicks": 24,
                        "midi": 81,
                        "name": "A5",
                        "ticks": 10344,
                        "time": 53.875,
                        "velocity": 0.4015748031496063
                    },
                    {
                        "duration": 0.25,
                        "durationTicks": 48,
                        "midi": 81,
                        "name": "A5",
                        "ticks": 10368,
                        "time": 54,
                        "velocity": 0.4015748031496063
                    },
                    {
                        "duration": 0.25,
                        "durationTicks": 48,
                        "midi": 93,
                        "name": "A6",
                        "ticks": 10368,
                        "time": 54,
                        "velocity": 0.4015748031496063
                    },
                    {
                        "duration": 0.125,
                        "durationTicks": 24,
                        "midi": 93,
                        "name": "A6",
                        "ticks": 10440,
                        "time": 54.375,
                        "velocity": 0.4015748031496063
                    },
                    {
                        "duration": 0.125,
                        "durationTicks": 24,
                        "midi": 81,
                        "name": "A5",
                        "ticks": 10440,
                        "time": 54.375,
                        "velocity": 0.4015748031496063
                    },
                    {
                        "duration": 0.125,
                        "durationTicks": 24,
                        "midi": 96,
                        "name": "C7",
                        "ticks": 10464,
                        "time": 54.5,
                        "velocity": 0.4015748031496063
                    },
                    {
                        "duration": 0.125,
                        "durationTicks": 24,
                        "midi": 84,
                        "name": "C6",
                        "ticks": 10464,
                        "time": 54.5,
                        "velocity": 0.4015748031496063
                    },
                    {
                        "duration": 0.125,
                        "durationTicks": 24,
                        "midi": 98,
                        "name": "D7",
                        "ticks": 10488,
                        "time": 54.625,
                        "velocity": 0.4015748031496063
                    },
                    {
                        "duration": 0.125,
                        "durationTicks": 24,
                        "midi": 86,
                        "name": "D6",
                        "ticks": 10488,
                        "time": 54.625,
                        "velocity": 0.4015748031496063
                    },
                    {
                        "duration": 0.125,
                        "durationTicks": 24,
                        "midi": 101,
                        "name": "F7",
                        "ticks": 10512,
                        "time": 54.75,
                        "velocity": 0.4015748031496063
                    },
                    {
                        "duration": 0.125,
                        "durationTicks": 24,
                        "midi": 89,
                        "name": "F6",
                        "ticks": 10512,
                        "time": 54.75,
                        "velocity": 0.4015748031496063
                    },
                    {
                        "duration": 0.125,
                        "durationTicks": 24,
                        "midi": 79,
                        "name": "G5",
                        "ticks": 10536,
                        "time": 54.875,
                        "velocity": 0.4015748031496063
                    },
                    {
                        "duration": 0.125,
                        "durationTicks": 24,
                        "midi": 91,
                        "name": "G6",
                        "ticks": 10536,
                        "time": 54.875,
                        "velocity": 0.4015748031496063
                    },
                    {
                        "duration": 0.125,
                        "durationTicks": 24,
                        "midi": 79,
                        "name": "G5",
                        "ticks": 10608,
                        "time": 55.25,
                        "velocity": 0.4015748031496063
                    },
                    {
                        "duration": 0.125,
                        "durationTicks": 24,
                        "midi": 91,
                        "name": "G6",
                        "ticks": 10608,
                        "time": 55.25,
                        "velocity": 0.4015748031496063
                    },
                    {
                        "duration": 0.125,
                        "durationTicks": 24,
                        "midi": 91,
                        "name": "G6",
                        "ticks": 10680,
                        "time": 55.625,
                        "velocity": 0.4015748031496063
                    },
                    {
                        "duration": 0.125,
                        "durationTicks": 24,
                        "midi": 79,
                        "name": "G5",
                        "ticks": 10680,
                        "time": 55.625,
                        "velocity": 0.4015748031496063
                    },
                    {
                        "duration": 0.125,
                        "durationTicks": 24,
                        "midi": 79,
                        "name": "G5",
                        "ticks": 10800,
                        "time": 56.25,
                        "velocity": 0.44881889763779526
                    },
                    {
                        "duration": 0.125,
                        "durationTicks": 24,
                        "midi": 91,
                        "name": "G6",
                        "ticks": 10800,
                        "time": 56.25,
                        "velocity": 0.44881889763779526
                    },
                    {
                        "duration": 0.125,
                        "durationTicks": 24,
                        "midi": 91,
                        "name": "G6",
                        "ticks": 10872,
                        "time": 56.625,
                        "velocity": 0.44881889763779526
                    },
                    {
                        "duration": 0.125,
                        "durationTicks": 24,
                        "midi": 79,
                        "name": "G5",
                        "ticks": 10872,
                        "time": 56.625,
                        "velocity": 0.44881889763779526
                    },
                    {
                        "duration": 0.125,
                        "durationTicks": 24,
                        "midi": 79,
                        "name": "G5",
                        "ticks": 10920,
                        "time": 56.875,
                        "velocity": 0.44881889763779526
                    },
                    {
                        "duration": 0.125,
                        "durationTicks": 24,
                        "midi": 91,
                        "name": "G6",
                        "ticks": 10920,
                        "time": 56.875,
                        "velocity": 0.44881889763779526
                    },
                    {
                        "duration": 0.125,
                        "durationTicks": 24,
                        "midi": 82,
                        "name": "A#5",
                        "ticks": 10992,
                        "time": 57.25,
                        "velocity": 0.44881889763779526
                    },
                    {
                        "duration": 0.125,
                        "durationTicks": 24,
                        "midi": 94,
                        "name": "A#6",
                        "ticks": 10992,
                        "time": 57.25,
                        "velocity": 0.44881889763779526
                    },
                    {
                        "duration": 0.125,
                        "durationTicks": 24,
                        "midi": 91,
                        "name": "G6",
                        "ticks": 11064,
                        "time": 57.625,
                        "velocity": 0.44881889763779526
                    },
                    {
                        "duration": 0.125,
                        "durationTicks": 24,
                        "midi": 79,
                        "name": "G5",
                        "ticks": 11064,
                        "time": 57.625,
                        "velocity": 0.44881889763779526
                    },
                    {
                        "duration": 0.125,
                        "durationTicks": 24,
                        "midi": 91,
                        "name": "G6",
                        "ticks": 11184,
                        "time": 58.25,
                        "velocity": 0.44881889763779526
                    },
                    {
                        "duration": 0.125,
                        "durationTicks": 24,
                        "midi": 79,
                        "name": "G5",
                        "ticks": 11184,
                        "time": 58.25,
                        "velocity": 0.44881889763779526
                    },
                    {
                        "duration": 0.125,
                        "durationTicks": 24,
                        "midi": 91,
                        "name": "G6",
                        "ticks": 11256,
                        "time": 58.625,
                        "velocity": 0.44881889763779526
                    },
                    {
                        "duration": 0.125,
                        "durationTicks": 24,
                        "midi": 79,
                        "name": "G5",
                        "ticks": 11256,
                        "time": 58.625,
                        "velocity": 0.44881889763779526
                    },
                    {
                        "duration": 0.125,
                        "durationTicks": 24,
                        "midi": 79,
                        "name": "G5",
                        "ticks": 11304,
                        "time": 58.875,
                        "velocity": 0.44881889763779526
                    },
                    {
                        "duration": 0.125,
                        "durationTicks": 24,
                        "midi": 91,
                        "name": "G6",
                        "ticks": 11304,
                        "time": 58.875,
                        "velocity": 0.44881889763779526
                    },
                    {
                        "duration": 0.125,
                        "durationTicks": 24,
                        "midi": 79,
                        "name": "G5",
                        "ticks": 11376,
                        "time": 59.25,
                        "velocity": 0.44881889763779526
                    },
                    {
                        "duration": 0.125,
                        "durationTicks": 24,
                        "midi": 91,
                        "name": "G6",
                        "ticks": 11376,
                        "time": 59.25,
                        "velocity": 0.44881889763779526
                    },
                    {
                        "duration": 0.125,
                        "durationTicks": 24,
                        "midi": 69,
                        "name": "A4",
                        "ticks": 11400,
                        "time": 59.375,
                        "velocity": 0.44881889763779526
                    },
                    {
                        "duration": 0.125,
                        "durationTicks": 24,
                        "midi": 81,
                        "name": "A5",
                        "ticks": 11400,
                        "time": 59.375,
                        "velocity": 0.44881889763779526
                    },
                    {
                        "duration": 0.125,
                        "durationTicks": 24,
                        "midi": 79,
                        "name": "G5",
                        "ticks": 11448,
                        "time": 59.625,
                        "velocity": 0.44881889763779526
                    },
                    {
                        "duration": 0.125,
                        "durationTicks": 24,
                        "midi": 67,
                        "name": "G4",
                        "ticks": 11448,
                        "time": 59.625,
                        "velocity": 0.44881889763779526
                    },
                    {
                        "duration": 0.125,
                        "durationTicks": 24,
                        "midi": 91,
                        "name": "G6",
                        "ticks": 11568,
                        "time": 60.25,
                        "velocity": 0.44881889763779526
                    },
                    {
                        "duration": 0.125,
                        "durationTicks": 24,
                        "midi": 79,
                        "name": "G5",
                        "ticks": 11568,
                        "time": 60.25,
                        "velocity": 0.44881889763779526
                    },
                    {
                        "duration": 0.125,
                        "durationTicks": 24,
                        "midi": 79,
                        "name": "G5",
                        "ticks": 11640,
                        "time": 60.625,
                        "velocity": 0.44881889763779526
                    },
                    {
                        "duration": 0.125,
                        "durationTicks": 24,
                        "midi": 91,
                        "name": "G6",
                        "ticks": 11640,
                        "time": 60.625,
                        "velocity": 0.44881889763779526
                    },
                    {
                        "duration": 0.125,
                        "durationTicks": 24,
                        "midi": 79,
                        "name": "G5",
                        "ticks": 11688,
                        "time": 60.875,
                        "velocity": 0.44881889763779526
                    },
                    {
                        "duration": 0.125,
                        "durationTicks": 24,
                        "midi": 91,
                        "name": "G6",
                        "ticks": 11688,
                        "time": 60.875,
                        "velocity": 0.44881889763779526
                    },
                    {
                        "duration": 0.125,
                        "durationTicks": 24,
                        "midi": 82,
                        "name": "A#5",
                        "ticks": 11760,
                        "time": 61.25,
                        "velocity": 0.44881889763779526
                    },
                    {
                        "duration": 0.125,
                        "durationTicks": 24,
                        "midi": 94,
                        "name": "A#6",
                        "ticks": 11760,
                        "time": 61.25,
                        "velocity": 0.44881889763779526
                    },
                    {
                        "duration": 0.125,
                        "durationTicks": 24,
                        "midi": 91,
                        "name": "G6",
                        "ticks": 11832,
                        "time": 61.625,
                        "velocity": 0.44881889763779526
                    },
                    {
                        "duration": 0.125,
                        "durationTicks": 24,
                        "midi": 79,
                        "name": "G5",
                        "ticks": 11832,
                        "time": 61.625,
                        "velocity": 0.44881889763779526
                    },
                    {
                        "duration": 0.125,
                        "durationTicks": 24,
                        "midi": 70,
                        "name": "A#4",
                        "ticks": 11952,
                        "time": 62.25,
                        "velocity": 0.44881889763779526
                    },
                    {
                        "duration": 0.125,
                        "durationTicks": 24,
                        "midi": 82,
                        "name": "A#5",
                        "ticks": 11952,
                        "time": 62.25,
                        "velocity": 0.44881889763779526
                    },
                    {
                        "duration": 0.125,
                        "durationTicks": 24,
                        "midi": 81,
                        "name": "A5",
                        "ticks": 12024,
                        "time": 62.625,
                        "velocity": 0.44881889763779526
                    },
                    {
                        "duration": 0.125,
                        "durationTicks": 24,
                        "midi": 69,
                        "name": "A4",
                        "ticks": 12024,
                        "time": 62.625,
                        "velocity": 0.44881889763779526
                    },
                    {
                        "duration": 0.125,
                        "durationTicks": 24,
                        "midi": 67,
                        "name": "G4",
                        "ticks": 12072,
                        "time": 62.875,
                        "velocity": 0.44881889763779526
                    },
                    {
                        "duration": 0.125,
                        "durationTicks": 24,
                        "midi": 79,
                        "name": "G5",
                        "ticks": 12072,
                        "time": 62.875,
                        "velocity": 0.44881889763779526
                    },
                    {
                        "duration": 0.125,
                        "durationTicks": 24,
                        "midi": 79,
                        "name": "G5",
                        "ticks": 12144,
                        "time": 63.25,
                        "velocity": 0.44881889763779526
                    },
                    {
                        "duration": 0.125,
                        "durationTicks": 24,
                        "midi": 67,
                        "name": "G4",
                        "ticks": 12144,
                        "time": 63.25,
                        "velocity": 0.44881889763779526
                    },
                    {
                        "duration": 0.125,
                        "durationTicks": 24,
                        "midi": 81,
                        "name": "A5",
                        "ticks": 12168,
                        "time": 63.375,
                        "velocity": 0.44881889763779526
                    },
                    {
                        "duration": 0.125,
                        "durationTicks": 24,
                        "midi": 69,
                        "name": "A4",
                        "ticks": 12168,
                        "time": 63.375,
                        "velocity": 0.44881889763779526
                    },
                    {
                        "duration": 0.125,
                        "durationTicks": 24,
                        "midi": 79,
                        "name": "G5",
                        "ticks": 12216,
                        "time": 63.625,
                        "velocity": 0.44881889763779526
                    },
                    {
                        "duration": 0.125,
                        "durationTicks": 24,
                        "midi": 67,
                        "name": "G4",
                        "ticks": 12216,
                        "time": 63.625,
                        "velocity": 0.44881889763779526
                    },
                    {
                        "duration": 0.125,
                        "durationTicks": 24,
                        "midi": 79,
                        "name": "G5",
                        "ticks": 12336,
                        "time": 64.25,
                        "velocity": 0.48031496062992124
                    },
                    {
                        "duration": 0.125,
                        "durationTicks": 24,
                        "midi": 91,
                        "name": "G6",
                        "ticks": 12336,
                        "time": 64.25,
                        "velocity": 0.48031496062992124
                    },
                    {
                        "duration": 0.125,
                        "durationTicks": 24,
                        "midi": 94,
                        "name": "A#6",
                        "ticks": 12360,
                        "time": 64.375,
                        "velocity": 0.48031496062992124
                    },
                    {
                        "duration": 0.125,
                        "durationTicks": 24,
                        "midi": 82,
                        "name": "A#5",
                        "ticks": 12360,
                        "time": 64.375,
                        "velocity": 0.48031496062992124
                    },
                    {
                        "duration": 0.125,
                        "durationTicks": 24,
                        "midi": 96,
                        "name": "C7",
                        "ticks": 12408,
                        "time": 64.625,
                        "velocity": 0.48031496062992124
                    },
                    {
                        "duration": 0.125,
                        "durationTicks": 24,
                        "midi": 84,
                        "name": "C6",
                        "ticks": 12408,
                        "time": 64.625,
                        "velocity": 0.48031496062992124
                    },
                    {
                        "duration": 0.125,
                        "durationTicks": 24,
                        "midi": 79,
                        "name": "G5",
                        "ticks": 12432,
                        "time": 64.75,
                        "velocity": 0.48031496062992124
                    },
                    {
                        "duration": 0.125,
                        "durationTicks": 24,
                        "midi": 91,
                        "name": "G6",
                        "ticks": 12432,
                        "time": 64.75,
                        "velocity": 0.48031496062992124
                    },
                    {
                        "duration": 0.125,
                        "durationTicks": 24,
                        "midi": 79,
                        "name": "G5",
                        "ticks": 12528,
                        "time": 65.25,
                        "velocity": 0.48031496062992124
                    },
                    {
                        "duration": 0.125,
                        "durationTicks": 24,
                        "midi": 91,
                        "name": "G6",
                        "ticks": 12528,
                        "time": 65.25,
                        "velocity": 0.48031496062992124
                    },
                    {
                        "duration": 0.125,
                        "durationTicks": 24,
                        "midi": 89,
                        "name": "F6",
                        "ticks": 12552,
                        "time": 65.375,
                        "velocity": 0.48031496062992124
                    },
                    {
                        "duration": 0.125,
                        "durationTicks": 24,
                        "midi": 77,
                        "name": "F5",
                        "ticks": 12552,
                        "time": 65.375,
                        "velocity": 0.48031496062992124
                    },
                    {
                        "duration": 0.125,
                        "durationTicks": 24,
                        "midi": 79,
                        "name": "G5",
                        "ticks": 12600,
                        "time": 65.625,
                        "velocity": 0.48031496062992124
                    },
                    {
                        "duration": 0.125,
                        "durationTicks": 24,
                        "midi": 91,
                        "name": "G6",
                        "ticks": 12600,
                        "time": 65.625,
                        "velocity": 0.48031496062992124
                    },
                    {
                        "duration": 0.125,
                        "durationTicks": 24,
                        "midi": 79,
                        "name": "G5",
                        "ticks": 12720,
                        "time": 66.25,
                        "velocity": 0.48031496062992124
                    },
                    {
                        "duration": 0.125,
                        "durationTicks": 24,
                        "midi": 91,
                        "name": "G6",
                        "ticks": 12720,
                        "time": 66.25,
                        "velocity": 0.48031496062992124
                    },
                    {
                        "duration": 0.125,
                        "durationTicks": 24,
                        "midi": 94,
                        "name": "A#6",
                        "ticks": 12744,
                        "time": 66.375,
                        "velocity": 0.48031496062992124
                    },
                    {
                        "duration": 0.125,
                        "durationTicks": 24,
                        "midi": 82,
                        "name": "A#5",
                        "ticks": 12744,
                        "time": 66.375,
                        "velocity": 0.48031496062992124
                    },
                    {
                        "duration": 0.125,
                        "durationTicks": 24,
                        "midi": 96,
                        "name": "C7",
                        "ticks": 12792,
                        "time": 66.625,
                        "velocity": 0.48031496062992124
                    },
                    {
                        "duration": 0.125,
                        "durationTicks": 24,
                        "midi": 84,
                        "name": "C6",
                        "ticks": 12792,
                        "time": 66.625,
                        "velocity": 0.48031496062992124
                    },
                    {
                        "duration": 0.125,
                        "durationTicks": 24,
                        "midi": 79,
                        "name": "G5",
                        "ticks": 12816,
                        "time": 66.75,
                        "velocity": 0.48031496062992124
                    },
                    {
                        "duration": 0.125,
                        "durationTicks": 24,
                        "midi": 91,
                        "name": "G6",
                        "ticks": 12816,
                        "time": 66.75,
                        "velocity": 0.48031496062992124
                    },
                    {
                        "duration": 0.125,
                        "durationTicks": 24,
                        "midi": 79,
                        "name": "G5",
                        "ticks": 12912,
                        "time": 67.25,
                        "velocity": 0.48031496062992124
                    },
                    {
                        "duration": 0.125,
                        "durationTicks": 24,
                        "midi": 91,
                        "name": "G6",
                        "ticks": 12912,
                        "time": 67.25,
                        "velocity": 0.48031496062992124
                    },
                    {
                        "duration": 0.125,
                        "durationTicks": 24,
                        "midi": 89,
                        "name": "F6",
                        "ticks": 12936,
                        "time": 67.375,
                        "velocity": 0.48031496062992124
                    },
                    {
                        "duration": 0.125,
                        "durationTicks": 24,
                        "midi": 77,
                        "name": "F5",
                        "ticks": 12936,
                        "time": 67.375,
                        "velocity": 0.48031496062992124
                    },
                    {
                        "duration": 0.125,
                        "durationTicks": 24,
                        "midi": 74,
                        "name": "D5",
                        "ticks": 12984,
                        "time": 67.625,
                        "velocity": 0.48031496062992124
                    },
                    {
                        "duration": 0.125,
                        "durationTicks": 24,
                        "midi": 86,
                        "name": "D6",
                        "ticks": 12984,
                        "time": 67.625,
                        "velocity": 0.48031496062992124
                    },
                    {
                        "duration": 0.125,
                        "durationTicks": 24,
                        "midi": 79,
                        "name": "G5",
                        "ticks": 13104,
                        "time": 68.25,
                        "velocity": 0.48031496062992124
                    },
                    {
                        "duration": 0.125,
                        "durationTicks": 24,
                        "midi": 91,
                        "name": "G6",
                        "ticks": 13104,
                        "time": 68.25,
                        "velocity": 0.48031496062992124
                    },
                    {
                        "duration": 0.125,
                        "durationTicks": 24,
                        "midi": 94,
                        "name": "A#6",
                        "ticks": 13128,
                        "time": 68.375,
                        "velocity": 0.48031496062992124
                    },
                    {
                        "duration": 0.125,
                        "durationTicks": 24,
                        "midi": 82,
                        "name": "A#5",
                        "ticks": 13128,
                        "time": 68.375,
                        "velocity": 0.48031496062992124
                    },
                    {
                        "duration": 0.125,
                        "durationTicks": 24,
                        "midi": 96,
                        "name": "C7",
                        "ticks": 13176,
                        "time": 68.625,
                        "velocity": 0.48031496062992124
                    },
                    {
                        "duration": 0.125,
                        "durationTicks": 24,
                        "midi": 84,
                        "name": "C6",
                        "ticks": 13176,
                        "time": 68.625,
                        "velocity": 0.48031496062992124
                    },
                    {
                        "duration": 0.125,
                        "durationTicks": 24,
                        "midi": 79,
                        "name": "G5",
                        "ticks": 13200,
                        "time": 68.75,
                        "velocity": 0.48031496062992124
                    },
                    {
                        "duration": 0.125,
                        "durationTicks": 24,
                        "midi": 91,
                        "name": "G6",
                        "ticks": 13200,
                        "time": 68.75,
                        "velocity": 0.48031496062992124
                    },
                    {
                        "duration": 0.125,
                        "durationTicks": 24,
                        "midi": 79,
                        "name": "G5",
                        "ticks": 13296,
                        "time": 69.25,
                        "velocity": 0.48031496062992124
                    },
                    {
                        "duration": 0.125,
                        "durationTicks": 24,
                        "midi": 91,
                        "name": "G6",
                        "ticks": 13296,
                        "time": 69.25,
                        "velocity": 0.48031496062992124
                    },
                    {
                        "duration": 0.125,
                        "durationTicks": 24,
                        "midi": 89,
                        "name": "F6",
                        "ticks": 13320,
                        "time": 69.375,
                        "velocity": 0.48031496062992124
                    },
                    {
                        "duration": 0.125,
                        "durationTicks": 24,
                        "midi": 77,
                        "name": "F5",
                        "ticks": 13320,
                        "time": 69.375,
                        "velocity": 0.48031496062992124
                    },
                    {
                        "duration": 0.125,
                        "durationTicks": 24,
                        "midi": 79,
                        "name": "G5",
                        "ticks": 13368,
                        "time": 69.625,
                        "velocity": 0.48031496062992124
                    },
                    {
                        "duration": 0.125,
                        "durationTicks": 24,
                        "midi": 91,
                        "name": "G6",
                        "ticks": 13368,
                        "time": 69.625,
                        "velocity": 0.48031496062992124
                    },
                    {
                        "duration": 0.125,
                        "durationTicks": 24,
                        "midi": 82,
                        "name": "A#5",
                        "ticks": 13488,
                        "time": 70.25,
                        "velocity": 0.48031496062992124
                    },
                    {
                        "duration": 0.125,
                        "durationTicks": 24,
                        "midi": 94,
                        "name": "A#6",
                        "ticks": 13488,
                        "time": 70.25,
                        "velocity": 0.48031496062992124
                    },
                    {
                        "duration": 0.125,
                        "durationTicks": 24,
                        "midi": 94,
                        "name": "A#6",
                        "ticks": 13512,
                        "time": 70.375,
                        "velocity": 0.48031496062992124
                    },
                    {
                        "duration": 0.125,
                        "durationTicks": 24,
                        "midi": 82,
                        "name": "A#5",
                        "ticks": 13512,
                        "time": 70.375,
                        "velocity": 0.48031496062992124
                    },
                    {
                        "duration": 0.125,
                        "durationTicks": 24,
                        "midi": 93,
                        "name": "A6",
                        "ticks": 13560,
                        "time": 70.625,
                        "velocity": 0.48031496062992124
                    },
                    {
                        "duration": 0.125,
                        "durationTicks": 24,
                        "midi": 81,
                        "name": "A5",
                        "ticks": 13560,
                        "time": 70.625,
                        "velocity": 0.48031496062992124
                    },
                    {
                        "duration": 0.125,
                        "durationTicks": 24,
                        "midi": 79,
                        "name": "G5",
                        "ticks": 13584,
                        "time": 70.75,
                        "velocity": 0.48031496062992124
                    },
                    {
                        "duration": 0.125,
                        "durationTicks": 24,
                        "midi": 91,
                        "name": "G6",
                        "ticks": 13584,
                        "time": 70.75,
                        "velocity": 0.48031496062992124
                    },
                    {
                        "duration": 0.125,
                        "durationTicks": 24,
                        "midi": 82,
                        "name": "A#5",
                        "ticks": 13656,
                        "time": 71.125,
                        "velocity": 0.48031496062992124
                    },
                    {
                        "duration": 0.125,
                        "durationTicks": 24,
                        "midi": 82,
                        "name": "A#5",
                        "ticks": 13680,
                        "time": 71.25,
                        "velocity": 0.48031496062992124
                    },
                    {
                        "duration": 0.125,
                        "durationTicks": 24,
                        "midi": 81,
                        "name": "A5",
                        "ticks": 13704,
                        "time": 71.375,
                        "velocity": 0.48031496062992124
                    },
                    {
                        "duration": 0.125,
                        "durationTicks": 24,
                        "midi": 82,
                        "name": "A#5",
                        "ticks": 13728,
                        "time": 71.5,
                        "velocity": 0.48031496062992124
                    },
                    {
                        "duration": 0.125,
                        "durationTicks": 24,
                        "midi": 74,
                        "name": "D5",
                        "ticks": 13752,
                        "time": 71.625,
                        "velocity": 0.48031496062992124
                    },
                    {
                        "duration": 0.125,
                        "durationTicks": 24,
                        "midi": 77,
                        "name": "F5",
                        "ticks": 13776,
                        "time": 71.75,
                        "velocity": 0.48031496062992124
                    },
                    {
                        "duration": 0.125,
                        "durationTicks": 24,
                        "midi": 81,
                        "name": "A5",
                        "ticks": 13800,
                        "time": 71.875,
                        "velocity": 0.48031496062992124
                    },
                    {
                        "duration": 0.125,
                        "durationTicks": 24,
                        "midi": 79,
                        "name": "G5",
                        "ticks": 13824,
                        "time": 72,
                        "velocity": 0.4015748031496063
                    },
                    {
                        "duration": 0.125,
                        "durationTicks": 24,
                        "midi": 67,
                        "name": "G4",
                        "ticks": 13824,
                        "time": 72,
                        "velocity": 0.4015748031496063
                    },
                    {
                        "duration": 0.125,
                        "durationTicks": 24,
                        "midi": 70,
                        "name": "A#4",
                        "ticks": 13824,
                        "time": 72,
                        "velocity": 0.4015748031496063
                    },
                    {
                        "duration": 0.125,
                        "durationTicks": 24,
                        "midi": 79,
                        "name": "G5",
                        "ticks": 13872,
                        "time": 72.25,
                        "velocity": 0.4015748031496063
                    },
                    {
                        "duration": 0.125,
                        "durationTicks": 24,
                        "midi": 67,
                        "name": "G4",
                        "ticks": 13872,
                        "time": 72.25,
                        "velocity": 0.4015748031496063
                    },
                    {
                        "duration": 0.125,
                        "durationTicks": 24,
                        "midi": 70,
                        "name": "A#4",
                        "ticks": 13872,
                        "time": 72.25,
                        "velocity": 0.4015748031496063
                    },
                    {
                        "duration": 0.125,
                        "durationTicks": 24,
                        "midi": 67,
                        "name": "G4",
                        "ticks": 13920,
                        "time": 72.5,
                        "velocity": 0.4015748031496063
                    },
                    {
                        "duration": 0.125,
                        "durationTicks": 24,
                        "midi": 79,
                        "name": "G5",
                        "ticks": 13920,
                        "time": 72.5,
                        "velocity": 0.4015748031496063
                    },
                    {
                        "duration": 0.125,
                        "durationTicks": 24,
                        "midi": 70,
                        "name": "A#4",
                        "ticks": 13920,
                        "time": 72.5,
                        "velocity": 0.4015748031496063
                    },
                    {
                        "duration": 0.125,
                        "durationTicks": 24,
                        "midi": 70,
                        "name": "A#4",
                        "ticks": 13944,
                        "time": 72.625,
                        "velocity": 0.4015748031496063
                    },
                    {
                        "duration": 0.125,
                        "durationTicks": 24,
                        "midi": 65,
                        "name": "F4",
                        "ticks": 13944,
                        "time": 72.625,
                        "velocity": 0.4015748031496063
                    },
                    {
                        "duration": 0.125,
                        "durationTicks": 24,
                        "midi": 77,
                        "name": "F5",
                        "ticks": 13944,
                        "time": 72.625,
                        "velocity": 0.4015748031496063
                    },
                    {
                        "duration": 0.125,
                        "durationTicks": 24,
                        "midi": 70,
                        "name": "A#4",
                        "ticks": 13968,
                        "time": 72.75,
                        "velocity": 0.4015748031496063
                    },
                    {
                        "duration": 0.125,
                        "durationTicks": 24,
                        "midi": 79,
                        "name": "G5",
                        "ticks": 13968,
                        "time": 72.75,
                        "velocity": 0.4015748031496063
                    },
                    {
                        "duration": 0.125,
                        "durationTicks": 24,
                        "midi": 67,
                        "name": "G4",
                        "ticks": 13968,
                        "time": 72.75,
                        "velocity": 0.4015748031496063
                    },
                    {
                        "duration": 0.25,
                        "durationTicks": 48,
                        "midi": 77,
                        "name": "F5",
                        "ticks": 13992,
                        "time": 72.875,
                        "velocity": 0.4015748031496063
                    },
                    {
                        "duration": 0.25,
                        "durationTicks": 48,
                        "midi": 65,
                        "name": "F4",
                        "ticks": 13992,
                        "time": 72.875,
                        "velocity": 0.4015748031496063
                    },
                    {
                        "duration": 0.125,
                        "durationTicks": 24,
                        "midi": 74,
                        "name": "D5",
                        "ticks": 14040,
                        "time": 73.125,
                        "velocity": 0.4015748031496063
                    },
                    {
                        "duration": 0.125,
                        "durationTicks": 24,
                        "midi": 82,
                        "name": "A#5",
                        "ticks": 14040,
                        "time": 73.125,
                        "velocity": 0.4015748031496063
                    },
                    {
                        "duration": 0.125,
                        "durationTicks": 24,
                        "midi": 70,
                        "name": "A#4",
                        "ticks": 14040,
                        "time": 73.125,
                        "velocity": 0.4015748031496063
                    },
                    {
                        "duration": 0.125,
                        "durationTicks": 24,
                        "midi": 70,
                        "name": "A#4",
                        "ticks": 14064,
                        "time": 73.25,
                        "velocity": 0.4015748031496063
                    },
                    {
                        "duration": 0.125,
                        "durationTicks": 24,
                        "midi": 82,
                        "name": "A#5",
                        "ticks": 14064,
                        "time": 73.25,
                        "velocity": 0.4015748031496063
                    },
                    {
                        "duration": 0.125,
                        "durationTicks": 24,
                        "midi": 74,
                        "name": "D5",
                        "ticks": 14064,
                        "time": 73.25,
                        "velocity": 0.4015748031496063
                    },
                    {
                        "duration": 0.125,
                        "durationTicks": 24,
                        "midi": 70,
                        "name": "A#4",
                        "ticks": 14088,
                        "time": 73.375,
                        "velocity": 0.4015748031496063
                    },
                    {
                        "duration": 0.125,
                        "durationTicks": 24,
                        "midi": 82,
                        "name": "A#5",
                        "ticks": 14088,
                        "time": 73.375,
                        "velocity": 0.4015748031496063
                    },
                    {
                        "duration": 0.125,
                        "durationTicks": 24,
                        "midi": 74,
                        "name": "D5",
                        "ticks": 14088,
                        "time": 73.375,
                        "velocity": 0.4015748031496063
                    },
                    {
                        "duration": 0.125,
                        "durationTicks": 24,
                        "midi": 74,
                        "name": "D5",
                        "ticks": 14112,
                        "time": 73.5,
                        "velocity": 0.4015748031496063
                    },
                    {
                        "duration": 0.125,
                        "durationTicks": 24,
                        "midi": 82,
                        "name": "A#5",
                        "ticks": 14112,
                        "time": 73.5,
                        "velocity": 0.4015748031496063
                    },
                    {
                        "duration": 0.125,
                        "durationTicks": 24,
                        "midi": 70,
                        "name": "A#4",
                        "ticks": 14112,
                        "time": 73.5,
                        "velocity": 0.4015748031496063
                    },
                    {
                        "duration": 0.125,
                        "durationTicks": 24,
                        "midi": 70,
                        "name": "A#4",
                        "ticks": 14136,
                        "time": 73.625,
                        "velocity": 0.4015748031496063
                    },
                    {
                        "duration": 0.125,
                        "durationTicks": 24,
                        "midi": 82,
                        "name": "A#5",
                        "ticks": 14136,
                        "time": 73.625,
                        "velocity": 0.4015748031496063
                    },
                    {
                        "duration": 0.125,
                        "durationTicks": 24,
                        "midi": 74,
                        "name": "D5",
                        "ticks": 14136,
                        "time": 73.625,
                        "velocity": 0.4015748031496063
                    },
                    {
                        "duration": 0.125,
                        "durationTicks": 24,
                        "midi": 70,
                        "name": "A#4",
                        "ticks": 14160,
                        "time": 73.75,
                        "velocity": 0.4015748031496063
                    },
                    {
                        "duration": 0.125,
                        "durationTicks": 24,
                        "midi": 82,
                        "name": "A#5",
                        "ticks": 14160,
                        "time": 73.75,
                        "velocity": 0.4015748031496063
                    },
                    {
                        "duration": 0.125,
                        "durationTicks": 24,
                        "midi": 74,
                        "name": "D5",
                        "ticks": 14160,
                        "time": 73.75,
                        "velocity": 0.4015748031496063
                    },
                    {
                        "duration": 0.125,
                        "durationTicks": 24,
                        "midi": 62,
                        "name": "D4",
                        "ticks": 14184,
                        "time": 73.875,
                        "velocity": 0.4015748031496063
                    },
                    {
                        "duration": 0.125,
                        "durationTicks": 24,
                        "midi": 74,
                        "name": "D5",
                        "ticks": 14184,
                        "time": 73.875,
                        "velocity": 0.4015748031496063
                    },
                    {
                        "duration": 0.125,
                        "durationTicks": 24,
                        "midi": 77,
                        "name": "F5",
                        "ticks": 14208,
                        "time": 74,
                        "velocity": 0.4015748031496063
                    },
                    {
                        "duration": 0.125,
                        "durationTicks": 24,
                        "midi": 65,
                        "name": "F4",
                        "ticks": 14208,
                        "time": 74,
                        "velocity": 0.4015748031496063
                    },
                    {
                        "duration": 0.125,
                        "durationTicks": 24,
                        "midi": 69,
                        "name": "A4",
                        "ticks": 14208,
                        "time": 74,
                        "velocity": 0.4015748031496063
                    },
                    {
                        "duration": 0.125,
                        "durationTicks": 24,
                        "midi": 69,
                        "name": "A4",
                        "ticks": 14256,
                        "time": 74.25,
                        "velocity": 0.4015748031496063
                    },
                    {
                        "duration": 0.125,
                        "durationTicks": 24,
                        "midi": 65,
                        "name": "F4",
                        "ticks": 14256,
                        "time": 74.25,
                        "velocity": 0.4015748031496063
                    },
                    {
                        "duration": 0.125,
                        "durationTicks": 24,
                        "midi": 77,
                        "name": "F5",
                        "ticks": 14256,
                        "time": 74.25,
                        "velocity": 0.4015748031496063
                    },
                    {
                        "duration": 0.125,
                        "durationTicks": 24,
                        "midi": 65,
                        "name": "F4",
                        "ticks": 14304,
                        "time": 74.5,
                        "velocity": 0.4015748031496063
                    },
                    {
                        "duration": 0.125,
                        "durationTicks": 24,
                        "midi": 77,
                        "name": "F5",
                        "ticks": 14304,
                        "time": 74.5,
                        "velocity": 0.4015748031496063
                    },
                    {
                        "duration": 0.125,
                        "durationTicks": 24,
                        "midi": 69,
                        "name": "A4",
                        "ticks": 14304,
                        "time": 74.5,
                        "velocity": 0.4015748031496063
                    },
                    {
                        "duration": 0.125,
                        "durationTicks": 24,
                        "midi": 69,
                        "name": "A4",
                        "ticks": 14328,
                        "time": 74.625,
                        "velocity": 0.4015748031496063
                    },
                    {
                        "duration": 0.125,
                        "durationTicks": 24,
                        "midi": 62,
                        "name": "D4",
                        "ticks": 14328,
                        "time": 74.625,
                        "velocity": 0.4015748031496063
                    },
                    {
                        "duration": 0.125,
                        "durationTicks": 24,
                        "midi": 74,
                        "name": "D5",
                        "ticks": 14328,
                        "time": 74.625,
                        "velocity": 0.4015748031496063
                    },
                    {
                        "duration": 0.125,
                        "durationTicks": 24,
                        "midi": 69,
                        "name": "A4",
                        "ticks": 14352,
                        "time": 74.75,
                        "velocity": 0.4015748031496063
                    },
                    {
                        "duration": 0.125,
                        "durationTicks": 24,
                        "midi": 81,
                        "name": "A5",
                        "ticks": 14352,
                        "time": 74.75,
                        "velocity": 0.4015748031496063
                    },
                    {
                        "duration": 0.25,
                        "durationTicks": 48,
                        "midi": 74,
                        "name": "D5",
                        "ticks": 14376,
                        "time": 74.875,
                        "velocity": 0.4015748031496063
                    },
                    {
                        "duration": 0.25,
                        "durationTicks": 48,
                        "midi": 82,
                        "name": "A#5",
                        "ticks": 14376,
                        "time": 74.875,
                        "velocity": 0.4015748031496063
                    },
                    {
                        "duration": 0.25,
                        "durationTicks": 48,
                        "midi": 70,
                        "name": "A#4",
                        "ticks": 14376,
                        "time": 74.875,
                        "velocity": 0.4015748031496063
                    },
                    {
                        "duration": 0.125,
                        "durationTicks": 24,
                        "midi": 74,
                        "name": "D5",
                        "ticks": 14424,
                        "time": 75.125,
                        "velocity": 0.4015748031496063
                    },
                    {
                        "duration": 0.125,
                        "durationTicks": 24,
                        "midi": 82,
                        "name": "A#5",
                        "ticks": 14424,
                        "time": 75.125,
                        "velocity": 0.4015748031496063
                    },
                    {
                        "duration": 0.125,
                        "durationTicks": 24,
                        "midi": 70,
                        "name": "A#4",
                        "ticks": 14424,
                        "time": 75.125,
                        "velocity": 0.4015748031496063
                    },
                    {
                        "duration": 0.125,
                        "durationTicks": 24,
                        "midi": 70,
                        "name": "A#4",
                        "ticks": 14448,
                        "time": 75.25,
                        "velocity": 0.4015748031496063
                    },
                    {
                        "duration": 0.125,
                        "durationTicks": 24,
                        "midi": 82,
                        "name": "A#5",
                        "ticks": 14448,
                        "time": 75.25,
                        "velocity": 0.4015748031496063
                    },
                    {
                        "duration": 0.125,
                        "durationTicks": 24,
                        "midi": 74,
                        "name": "D5",
                        "ticks": 14448,
                        "time": 75.25,
                        "velocity": 0.4015748031496063
                    },
                    {
                        "duration": 0.125,
                        "durationTicks": 24,
                        "midi": 74,
                        "name": "D5",
                        "ticks": 14472,
                        "time": 75.375,
                        "velocity": 0.4015748031496063
                    },
                    {
                        "duration": 0.125,
                        "durationTicks": 24,
                        "midi": 69,
                        "name": "A4",
                        "ticks": 14472,
                        "time": 75.375,
                        "velocity": 0.4015748031496063
                    },
                    {
                        "duration": 0.125,
                        "durationTicks": 24,
                        "midi": 81,
                        "name": "A5",
                        "ticks": 14472,
                        "time": 75.375,
                        "velocity": 0.4015748031496063
                    },
                    {
                        "duration": 0.125,
                        "durationTicks": 24,
                        "midi": 70,
                        "name": "A#4",
                        "ticks": 14496,
                        "time": 75.5,
                        "velocity": 0.4015748031496063
                    },
                    {
                        "duration": 0.125,
                        "durationTicks": 24,
                        "midi": 82,
                        "name": "A#5",
                        "ticks": 14496,
                        "time": 75.5,
                        "velocity": 0.4015748031496063
                    },
                    {
                        "duration": 0.125,
                        "durationTicks": 24,
                        "midi": 74,
                        "name": "D5",
                        "ticks": 14496,
                        "time": 75.5,
                        "velocity": 0.4015748031496063
                    },
                    {
                        "duration": 0.125,
                        "durationTicks": 24,
                        "midi": 81,
                        "name": "A5",
                        "ticks": 14520,
                        "time": 75.625,
                        "velocity": 0.4015748031496063
                    },
                    {
                        "duration": 0.125,
                        "durationTicks": 24,
                        "midi": 69,
                        "name": "A4",
                        "ticks": 14520,
                        "time": 75.625,
                        "velocity": 0.4015748031496063
                    },
                    {
                        "duration": 0.125,
                        "durationTicks": 24,
                        "midi": 74,
                        "name": "D5",
                        "ticks": 14520,
                        "time": 75.625,
                        "velocity": 0.4015748031496063
                    },
                    {
                        "duration": 0.125,
                        "durationTicks": 24,
                        "midi": 82,
                        "name": "A#5",
                        "ticks": 14544,
                        "time": 75.75,
                        "velocity": 0.4015748031496063
                    },
                    {
                        "duration": 0.125,
                        "durationTicks": 24,
                        "midi": 70,
                        "name": "A#4",
                        "ticks": 14544,
                        "time": 75.75,
                        "velocity": 0.4015748031496063
                    },
                    {
                        "duration": 0.125,
                        "durationTicks": 24,
                        "midi": 74,
                        "name": "D5",
                        "ticks": 14544,
                        "time": 75.75,
                        "velocity": 0.4015748031496063
                    },
                    {
                        "duration": 0.125,
                        "durationTicks": 24,
                        "midi": 74,
                        "name": "D5",
                        "ticks": 14568,
                        "time": 75.875,
                        "velocity": 0.4015748031496063
                    },
                    {
                        "duration": 0.125,
                        "durationTicks": 24,
                        "midi": 69,
                        "name": "A4",
                        "ticks": 14568,
                        "time": 75.875,
                        "velocity": 0.4015748031496063
                    },
                    {
                        "duration": 0.125,
                        "durationTicks": 24,
                        "midi": 81,
                        "name": "A5",
                        "ticks": 14568,
                        "time": 75.875,
                        "velocity": 0.4015748031496063
                    },
                    {
                        "duration": 0.125,
                        "durationTicks": 24,
                        "midi": 67,
                        "name": "G4",
                        "ticks": 14592,
                        "time": 76,
                        "velocity": 0.4015748031496063
                    },
                    {
                        "duration": 0.125,
                        "durationTicks": 24,
                        "midi": 79,
                        "name": "G5",
                        "ticks": 14592,
                        "time": 76,
                        "velocity": 0.4015748031496063
                    },
                    {
                        "duration": 0.125,
                        "durationTicks": 24,
                        "midi": 70,
                        "name": "A#4",
                        "ticks": 14592,
                        "time": 76,
                        "velocity": 0.4015748031496063
                    },
                    {
                        "duration": 0.125,
                        "durationTicks": 24,
                        "midi": 70,
                        "name": "A#4",
                        "ticks": 14640,
                        "time": 76.25,
                        "velocity": 0.4015748031496063
                    },
                    {
                        "duration": 0.125,
                        "durationTicks": 24,
                        "midi": 79,
                        "name": "G5",
                        "ticks": 14640,
                        "time": 76.25,
                        "velocity": 0.4015748031496063
                    },
                    {
                        "duration": 0.125,
                        "durationTicks": 24,
                        "midi": 67,
                        "name": "G4",
                        "ticks": 14640,
                        "time": 76.25,
                        "velocity": 0.4015748031496063
                    },
                    {
                        "duration": 0.125,
                        "durationTicks": 24,
                        "midi": 79,
                        "name": "G5",
                        "ticks": 14688,
                        "time": 76.5,
                        "velocity": 0.4015748031496063
                    },
                    {
                        "duration": 0.125,
                        "durationTicks": 24,
                        "midi": 67,
                        "name": "G4",
                        "ticks": 14688,
                        "time": 76.5,
                        "velocity": 0.4015748031496063
                    },
                    {
                        "duration": 0.125,
                        "durationTicks": 24,
                        "midi": 70,
                        "name": "A#4",
                        "ticks": 14688,
                        "time": 76.5,
                        "velocity": 0.4015748031496063
                    },
                    {
                        "duration": 0.125,
                        "durationTicks": 24,
                        "midi": 70,
                        "name": "A#4",
                        "ticks": 14712,
                        "time": 76.625,
                        "velocity": 0.4015748031496063
                    },
                    {
                        "duration": 0.125,
                        "durationTicks": 24,
                        "midi": 77,
                        "name": "F5",
                        "ticks": 14712,
                        "time": 76.625,
                        "velocity": 0.4015748031496063
                    },
                    {
                        "duration": 0.125,
                        "durationTicks": 24,
                        "midi": 65,
                        "name": "F4",
                        "ticks": 14712,
                        "time": 76.625,
                        "velocity": 0.4015748031496063
                    },
                    {
                        "duration": 0.125,
                        "durationTicks": 24,
                        "midi": 67,
                        "name": "G4",
                        "ticks": 14736,
                        "time": 76.75,
                        "velocity": 0.4015748031496063
                    },
                    {
                        "duration": 0.125,
                        "durationTicks": 24,
                        "midi": 79,
                        "name": "G5",
                        "ticks": 14736,
                        "time": 76.75,
                        "velocity": 0.4015748031496063
                    },
                    {
                        "duration": 0.125,
                        "durationTicks": 24,
                        "midi": 70,
                        "name": "A#4",
                        "ticks": 14736,
                        "time": 76.75,
                        "velocity": 0.4015748031496063
                    },
                    {
                        "duration": 0.25,
                        "durationTicks": 48,
                        "midi": 65,
                        "name": "F4",
                        "ticks": 14760,
                        "time": 76.875,
                        "velocity": 0.4015748031496063
                    },
                    {
                        "duration": 0.25,
                        "durationTicks": 48,
                        "midi": 77,
                        "name": "F5",
                        "ticks": 14760,
                        "time": 76.875,
                        "velocity": 0.4015748031496063
                    },
                    {
                        "duration": 0.125,
                        "durationTicks": 24,
                        "midi": 74,
                        "name": "D5",
                        "ticks": 14808,
                        "time": 77.125,
                        "velocity": 0.4015748031496063
                    },
                    {
                        "duration": 0.125,
                        "durationTicks": 24,
                        "midi": 82,
                        "name": "A#5",
                        "ticks": 14808,
                        "time": 77.125,
                        "velocity": 0.4015748031496063
                    },
                    {
                        "duration": 0.125,
                        "durationTicks": 24,
                        "midi": 70,
                        "name": "A#4",
                        "ticks": 14808,
                        "time": 77.125,
                        "velocity": 0.4015748031496063
                    },
                    {
                        "duration": 0.125,
                        "durationTicks": 24,
                        "midi": 82,
                        "name": "A#5",
                        "ticks": 14832,
                        "time": 77.25,
                        "velocity": 0.4015748031496063
                    },
                    {
                        "duration": 0.125,
                        "durationTicks": 24,
                        "midi": 70,
                        "name": "A#4",
                        "ticks": 14832,
                        "time": 77.25,
                        "velocity": 0.4015748031496063
                    },
                    {
                        "duration": 0.125,
                        "durationTicks": 24,
                        "midi": 74,
                        "name": "D5",
                        "ticks": 14832,
                        "time": 77.25,
                        "velocity": 0.4015748031496063
                    },
                    {
                        "duration": 0.125,
                        "durationTicks": 24,
                        "midi": 82,
                        "name": "A#5",
                        "ticks": 14856,
                        "time": 77.375,
                        "velocity": 0.4015748031496063
                    },
                    {
                        "duration": 0.125,
                        "durationTicks": 24,
                        "midi": 70,
                        "name": "A#4",
                        "ticks": 14856,
                        "time": 77.375,
                        "velocity": 0.4015748031496063
                    },
                    {
                        "duration": 0.125,
                        "durationTicks": 24,
                        "midi": 74,
                        "name": "D5",
                        "ticks": 14856,
                        "time": 77.375,
                        "velocity": 0.4015748031496063
                    },
                    {
                        "duration": 0.125,
                        "durationTicks": 24,
                        "midi": 82,
                        "name": "A#5",
                        "ticks": 14880,
                        "time": 77.5,
                        "velocity": 0.4015748031496063
                    },
                    {
                        "duration": 0.125,
                        "durationTicks": 24,
                        "midi": 70,
                        "name": "A#4",
                        "ticks": 14880,
                        "time": 77.5,
                        "velocity": 0.4015748031496063
                    },
                    {
                        "duration": 0.125,
                        "durationTicks": 24,
                        "midi": 74,
                        "name": "D5",
                        "ticks": 14880,
                        "time": 77.5,
                        "velocity": 0.4015748031496063
                    },
                    {
                        "duration": 0.125,
                        "durationTicks": 24,
                        "midi": 74,
                        "name": "D5",
                        "ticks": 14904,
                        "time": 77.625,
                        "velocity": 0.4015748031496063
                    },
                    {
                        "duration": 0.125,
                        "durationTicks": 24,
                        "midi": 70,
                        "name": "A#4",
                        "ticks": 14904,
                        "time": 77.625,
                        "velocity": 0.4015748031496063
                    },
                    {
                        "duration": 0.125,
                        "durationTicks": 24,
                        "midi": 82,
                        "name": "A#5",
                        "ticks": 14904,
                        "time": 77.625,
                        "velocity": 0.4015748031496063
                    },
                    {
                        "duration": 0.125,
                        "durationTicks": 24,
                        "midi": 82,
                        "name": "A#5",
                        "ticks": 14928,
                        "time": 77.75,
                        "velocity": 0.4015748031496063
                    },
                    {
                        "duration": 0.125,
                        "durationTicks": 24,
                        "midi": 70,
                        "name": "A#4",
                        "ticks": 14928,
                        "time": 77.75,
                        "velocity": 0.4015748031496063
                    },
                    {
                        "duration": 0.125,
                        "durationTicks": 24,
                        "midi": 74,
                        "name": "D5",
                        "ticks": 14928,
                        "time": 77.75,
                        "velocity": 0.4015748031496063
                    },
                    {
                        "duration": 0.125,
                        "durationTicks": 24,
                        "midi": 74,
                        "name": "D5",
                        "ticks": 14952,
                        "time": 77.875,
                        "velocity": 0.4015748031496063
                    },
                    {
                        "duration": 0.125,
                        "durationTicks": 24,
                        "midi": 62,
                        "name": "D4",
                        "ticks": 14952,
                        "time": 77.875,
                        "velocity": 0.4015748031496063
                    },
                    {
                        "duration": 0.125,
                        "durationTicks": 24,
                        "midi": 74,
                        "name": "D5",
                        "ticks": 14952,
                        "time": 77.875,
                        "velocity": 0.4015748031496063
                    },
                    {
                        "duration": 0.125,
                        "durationTicks": 24,
                        "midi": 65,
                        "name": "F4",
                        "ticks": 14976,
                        "time": 78,
                        "velocity": 0.4015748031496063
                    },
                    {
                        "duration": 0.125,
                        "durationTicks": 24,
                        "midi": 77,
                        "name": "F5",
                        "ticks": 14976,
                        "time": 78,
                        "velocity": 0.4015748031496063
                    },
                    {
                        "duration": 0.125,
                        "durationTicks": 24,
                        "midi": 69,
                        "name": "A4",
                        "ticks": 14976,
                        "time": 78,
                        "velocity": 0.4015748031496063
                    },
                    {
                        "duration": 0.125,
                        "durationTicks": 24,
                        "midi": 65,
                        "name": "F4",
                        "ticks": 15024,
                        "time": 78.25,
                        "velocity": 0.4015748031496063
                    },
                    {
                        "duration": 0.125,
                        "durationTicks": 24,
                        "midi": 77,
                        "name": "F5",
                        "ticks": 15024,
                        "time": 78.25,
                        "velocity": 0.4015748031496063
                    },
                    {
                        "duration": 0.125,
                        "durationTicks": 24,
                        "midi": 69,
                        "name": "A4",
                        "ticks": 15024,
                        "time": 78.25,
                        "velocity": 0.4015748031496063
                    },
                    {
                        "duration": 0.125,
                        "durationTicks": 24,
                        "midi": 69,
                        "name": "A4",
                        "ticks": 15072,
                        "time": 78.5,
                        "velocity": 0.4015748031496063
                    },
                    {
                        "duration": 0.125,
                        "durationTicks": 24,
                        "midi": 65,
                        "name": "F4",
                        "ticks": 15072,
                        "time": 78.5,
                        "velocity": 0.4015748031496063
                    },
                    {
                        "duration": 0.125,
                        "durationTicks": 24,
                        "midi": 77,
                        "name": "F5",
                        "ticks": 15072,
                        "time": 78.5,
                        "velocity": 0.4015748031496063
                    },
                    {
                        "duration": 0.125,
                        "durationTicks": 24,
                        "midi": 69,
                        "name": "A4",
                        "ticks": 15096,
                        "time": 78.625,
                        "velocity": 0.4015748031496063
                    },
                    {
                        "duration": 0.125,
                        "durationTicks": 24,
                        "midi": 62,
                        "name": "D4",
                        "ticks": 15096,
                        "time": 78.625,
                        "velocity": 0.4015748031496063
                    },
                    {
                        "duration": 0.125,
                        "durationTicks": 24,
                        "midi": 74,
                        "name": "D5",
                        "ticks": 15096,
                        "time": 78.625,
                        "velocity": 0.4015748031496063
                    },
                    {
                        "duration": 0.125,
                        "durationTicks": 24,
                        "midi": 74,
                        "name": "D5",
                        "ticks": 15120,
                        "time": 78.75,
                        "velocity": 0.4015748031496063
                    },
                    {
                        "duration": 0.125,
                        "durationTicks": 24,
                        "midi": 69,
                        "name": "A4",
                        "ticks": 15120,
                        "time": 78.75,
                        "velocity": 0.4015748031496063
                    },
                    {
                        "duration": 0.125,
                        "durationTicks": 24,
                        "midi": 81,
                        "name": "A5",
                        "ticks": 15120,
                        "time": 78.75,
                        "velocity": 0.4015748031496063
                    },
                    {
                        "duration": 0.25,
                        "durationTicks": 48,
                        "midi": 82,
                        "name": "A#5",
                        "ticks": 15144,
                        "time": 78.875,
                        "velocity": 0.4015748031496063
                    },
                    {
                        "duration": 0.25,
                        "durationTicks": 48,
                        "midi": 74,
                        "name": "D5",
                        "ticks": 15144,
                        "time": 78.875,
                        "velocity": 0.4015748031496063
                    },
                    {
                        "duration": 0.25,
                        "durationTicks": 48,
                        "midi": 70,
                        "name": "A#4",
                        "ticks": 15144,
                        "time": 78.875,
                        "velocity": 0.4015748031496063
                    },
                    {
                        "duration": 0.125,
                        "durationTicks": 24,
                        "midi": 82,
                        "name": "A#5",
                        "ticks": 15192,
                        "time": 79.125,
                        "velocity": 0.48031496062992124
                    },
                    {
                        "duration": 0.125,
                        "durationTicks": 24,
                        "midi": 70,
                        "name": "A#4",
                        "ticks": 15192,
                        "time": 79.125,
                        "velocity": 0.48031496062992124
                    },
                    {
                        "duration": 0.125,
                        "durationTicks": 24,
                        "midi": 74,
                        "name": "D5",
                        "ticks": 15192,
                        "time": 79.125,
                        "velocity": 0.48031496062992124
                    },
                    {
                        "duration": 0.125,
                        "durationTicks": 24,
                        "midi": 82,
                        "name": "A#5",
                        "ticks": 15216,
                        "time": 79.25,
                        "velocity": 0.48031496062992124
                    },
                    {
                        "duration": 0.125,
                        "durationTicks": 24,
                        "midi": 74,
                        "name": "D5",
                        "ticks": 15216,
                        "time": 79.25,
                        "velocity": 0.48031496062992124
                    },
                    {
                        "duration": 0.125,
                        "durationTicks": 24,
                        "midi": 70,
                        "name": "A#4",
                        "ticks": 15216,
                        "time": 79.25,
                        "velocity": 0.48031496062992124
                    },
                    {
                        "duration": 0.125,
                        "durationTicks": 24,
                        "midi": 69,
                        "name": "A4",
                        "ticks": 15240,
                        "time": 79.375,
                        "velocity": 0.48031496062992124
                    },
                    {
                        "duration": 0.125,
                        "durationTicks": 24,
                        "midi": 81,
                        "name": "A5",
                        "ticks": 15240,
                        "time": 79.375,
                        "velocity": 0.48031496062992124
                    },
                    {
                        "duration": 0.125,
                        "durationTicks": 24,
                        "midi": 74,
                        "name": "D5",
                        "ticks": 15240,
                        "time": 79.375,
                        "velocity": 0.48031496062992124
                    },
                    {
                        "duration": 0.125,
                        "durationTicks": 24,
                        "midi": 82,
                        "name": "A#5",
                        "ticks": 15264,
                        "time": 79.5,
                        "velocity": 0.48031496062992124
                    },
                    {
                        "duration": 0.125,
                        "durationTicks": 24,
                        "midi": 74,
                        "name": "D5",
                        "ticks": 15264,
                        "time": 79.5,
                        "velocity": 0.48031496062992124
                    },
                    {
                        "duration": 0.125,
                        "durationTicks": 24,
                        "midi": 70,
                        "name": "A#4",
                        "ticks": 15264,
                        "time": 79.5,
                        "velocity": 0.48031496062992124
                    },
                    {
                        "duration": 0.125,
                        "durationTicks": 24,
                        "midi": 74,
                        "name": "D5",
                        "ticks": 15288,
                        "time": 79.625,
                        "velocity": 0.48031496062992124
                    },
                    {
                        "duration": 0.125,
                        "durationTicks": 24,
                        "midi": 62,
                        "name": "D4",
                        "ticks": 15288,
                        "time": 79.625,
                        "velocity": 0.48031496062992124
                    },
                    {
                        "duration": 0.125,
                        "durationTicks": 24,
                        "midi": 65,
                        "name": "F4",
                        "ticks": 15312,
                        "time": 79.75,
                        "velocity": 0.48031496062992124
                    },
                    {
                        "duration": 0.125,
                        "durationTicks": 24,
                        "midi": 77,
                        "name": "F5",
                        "ticks": 15312,
                        "time": 79.75,
                        "velocity": 0.48031496062992124
                    },
                    {
                        "duration": 0.125,
                        "durationTicks": 24,
                        "midi": 69,
                        "name": "A4",
                        "ticks": 15336,
                        "time": 79.875,
                        "velocity": 0.48031496062992124
                    },
                    {
                        "duration": 0.125,
                        "durationTicks": 24,
                        "midi": 81,
                        "name": "A5",
                        "ticks": 15336,
                        "time": 79.875,
                        "velocity": 0.48031496062992124
                    },
                    {
                        "duration": 0.125,
                        "durationTicks": 24,
                        "midi": 67,
                        "name": "G4",
                        "ticks": 15360,
                        "time": 80,
                        "velocity": 0.4015748031496063
                    },
                    {
                        "duration": 0.125,
                        "durationTicks": 24,
                        "midi": 79,
                        "name": "G5",
                        "ticks": 15360,
                        "time": 80,
                        "velocity": 0.4015748031496063
                    },
                    {
                        "duration": 0.125,
                        "durationTicks": 24,
                        "midi": 70,
                        "name": "A#4",
                        "ticks": 15360,
                        "time": 80,
                        "velocity": 0.4015748031496063
                    },
                    {
                        "duration": 0.125,
                        "durationTicks": 24,
                        "midi": 70,
                        "name": "A#4",
                        "ticks": 15408,
                        "time": 80.25,
                        "velocity": 0.4015748031496063
                    },
                    {
                        "duration": 0.125,
                        "durationTicks": 24,
                        "midi": 79,
                        "name": "G5",
                        "ticks": 15408,
                        "time": 80.25,
                        "velocity": 0.4015748031496063
                    },
                    {
                        "duration": 0.125,
                        "durationTicks": 24,
                        "midi": 67,
                        "name": "G4",
                        "ticks": 15408,
                        "time": 80.25,
                        "velocity": 0.4015748031496063
                    },
                    {
                        "duration": 0.125,
                        "durationTicks": 24,
                        "midi": 67,
                        "name": "G4",
                        "ticks": 15456,
                        "time": 80.5,
                        "velocity": 0.4015748031496063
                    },
                    {
                        "duration": 0.125,
                        "durationTicks": 24,
                        "midi": 79,
                        "name": "G5",
                        "ticks": 15456,
                        "time": 80.5,
                        "velocity": 0.4015748031496063
                    },
                    {
                        "duration": 0.125,
                        "durationTicks": 24,
                        "midi": 70,
                        "name": "A#4",
                        "ticks": 15456,
                        "time": 80.5,
                        "velocity": 0.4015748031496063
                    },
                    {
                        "duration": 0.125,
                        "durationTicks": 24,
                        "midi": 70,
                        "name": "A#4",
                        "ticks": 15480,
                        "time": 80.625,
                        "velocity": 0.4015748031496063
                    },
                    {
                        "duration": 0.125,
                        "durationTicks": 24,
                        "midi": 77,
                        "name": "F5",
                        "ticks": 15480,
                        "time": 80.625,
                        "velocity": 0.4015748031496063
                    },
                    {
                        "duration": 0.125,
                        "durationTicks": 24,
                        "midi": 65,
                        "name": "F4",
                        "ticks": 15480,
                        "time": 80.625,
                        "velocity": 0.4015748031496063
                    },
                    {
                        "duration": 0.125,
                        "durationTicks": 24,
                        "midi": 67,
                        "name": "G4",
                        "ticks": 15504,
                        "time": 80.75,
                        "velocity": 0.4015748031496063
                    },
                    {
                        "duration": 0.125,
                        "durationTicks": 24,
                        "midi": 79,
                        "name": "G5",
                        "ticks": 15504,
                        "time": 80.75,
                        "velocity": 0.4015748031496063
                    },
                    {
                        "duration": 0.125,
                        "durationTicks": 24,
                        "midi": 70,
                        "name": "A#4",
                        "ticks": 15504,
                        "time": 80.75,
                        "velocity": 0.4015748031496063
                    },
                    {
                        "duration": 0.25,
                        "durationTicks": 48,
                        "midi": 65,
                        "name": "F4",
                        "ticks": 15528,
                        "time": 80.875,
                        "velocity": 0.4015748031496063
                    },
                    {
                        "duration": 0.25,
                        "durationTicks": 48,
                        "midi": 77,
                        "name": "F5",
                        "ticks": 15528,
                        "time": 80.875,
                        "velocity": 0.4015748031496063
                    },
                    {
                        "duration": 0.125,
                        "durationTicks": 24,
                        "midi": 70,
                        "name": "A#4",
                        "ticks": 15576,
                        "time": 81.125,
                        "velocity": 0.4015748031496063
                    },
                    {
                        "duration": 0.125,
                        "durationTicks": 24,
                        "midi": 82,
                        "name": "A#5",
                        "ticks": 15576,
                        "time": 81.125,
                        "velocity": 0.4015748031496063
                    },
                    {
                        "duration": 0.125,
                        "durationTicks": 24,
                        "midi": 74,
                        "name": "D5",
                        "ticks": 15576,
                        "time": 81.125,
                        "velocity": 0.4015748031496063
                    },
                    {
                        "duration": 0.125,
                        "durationTicks": 24,
                        "midi": 74,
                        "name": "D5",
                        "ticks": 15600,
                        "time": 81.25,
                        "velocity": 0.4015748031496063
                    },
                    {
                        "duration": 0.125,
                        "durationTicks": 24,
                        "midi": 82,
                        "name": "A#5",
                        "ticks": 15600,
                        "time": 81.25,
                        "velocity": 0.4015748031496063
                    },
                    {
                        "duration": 0.125,
                        "durationTicks": 24,
                        "midi": 70,
                        "name": "A#4",
                        "ticks": 15600,
                        "time": 81.25,
                        "velocity": 0.4015748031496063
                    },
                    {
                        "duration": 0.125,
                        "durationTicks": 24,
                        "midi": 74,
                        "name": "D5",
                        "ticks": 15624,
                        "time": 81.375,
                        "velocity": 0.4015748031496063
                    },
                    {
                        "duration": 0.125,
                        "durationTicks": 24,
                        "midi": 82,
                        "name": "A#5",
                        "ticks": 15624,
                        "time": 81.375,
                        "velocity": 0.4015748031496063
                    },
                    {
                        "duration": 0.125,
                        "durationTicks": 24,
                        "midi": 70,
                        "name": "A#4",
                        "ticks": 15624,
                        "time": 81.375,
                        "velocity": 0.4015748031496063
                    },
                    {
                        "duration": 0.125,
                        "durationTicks": 24,
                        "midi": 74,
                        "name": "D5",
                        "ticks": 15648,
                        "time": 81.5,
                        "velocity": 0.4015748031496063
                    },
                    {
                        "duration": 0.125,
                        "durationTicks": 24,
                        "midi": 70,
                        "name": "A#4",
                        "ticks": 15648,
                        "time": 81.5,
                        "velocity": 0.4015748031496063
                    },
                    {
                        "duration": 0.125,
                        "durationTicks": 24,
                        "midi": 82,
                        "name": "A#5",
                        "ticks": 15648,
                        "time": 81.5,
                        "velocity": 0.4015748031496063
                    },
                    {
                        "duration": 0.125,
                        "durationTicks": 24,
                        "midi": 74,
                        "name": "D5",
                        "ticks": 15672,
                        "time": 81.625,
                        "velocity": 0.4015748031496063
                    },
                    {
                        "duration": 0.125,
                        "durationTicks": 24,
                        "midi": 82,
                        "name": "A#5",
                        "ticks": 15672,
                        "time": 81.625,
                        "velocity": 0.4015748031496063
                    },
                    {
                        "duration": 0.125,
                        "durationTicks": 24,
                        "midi": 70,
                        "name": "A#4",
                        "ticks": 15672,
                        "time": 81.625,
                        "velocity": 0.4015748031496063
                    },
                    {
                        "duration": 0.125,
                        "durationTicks": 24,
                        "midi": 70,
                        "name": "A#4",
                        "ticks": 15696,
                        "time": 81.75,
                        "velocity": 0.4015748031496063
                    },
                    {
                        "duration": 0.125,
                        "durationTicks": 24,
                        "midi": 82,
                        "name": "A#5",
                        "ticks": 15696,
                        "time": 81.75,
                        "velocity": 0.4015748031496063
                    },
                    {
                        "duration": 0.125,
                        "durationTicks": 24,
                        "midi": 74,
                        "name": "D5",
                        "ticks": 15696,
                        "time": 81.75,
                        "velocity": 0.4015748031496063
                    },
                    {
                        "duration": 0.125,
                        "durationTicks": 24,
                        "midi": 62,
                        "name": "D4",
                        "ticks": 15720,
                        "time": 81.875,
                        "velocity": 0.4015748031496063
                    },
                    {
                        "duration": 0.125,
                        "durationTicks": 24,
                        "midi": 74,
                        "name": "D5",
                        "ticks": 15720,
                        "time": 81.875,
                        "velocity": 0.4015748031496063
                    },
                    {
                        "duration": 0.125,
                        "durationTicks": 24,
                        "midi": 77,
                        "name": "F5",
                        "ticks": 15744,
                        "time": 82,
                        "velocity": 0.4015748031496063
                    },
                    {
                        "duration": 0.125,
                        "durationTicks": 24,
                        "midi": 65,
                        "name": "F4",
                        "ticks": 15744,
                        "time": 82,
                        "velocity": 0.4015748031496063
                    },
                    {
                        "duration": 0.125,
                        "durationTicks": 24,
                        "midi": 69,
                        "name": "A4",
                        "ticks": 15744,
                        "time": 82,
                        "velocity": 0.4015748031496063
                    },
                    {
                        "duration": 0.125,
                        "durationTicks": 24,
                        "midi": 69,
                        "name": "A4",
                        "ticks": 15792,
                        "time": 82.25,
                        "velocity": 0.4015748031496063
                    },
                    {
                        "duration": 0.125,
                        "durationTicks": 24,
                        "midi": 65,
                        "name": "F4",
                        "ticks": 15792,
                        "time": 82.25,
                        "velocity": 0.4015748031496063
                    },
                    {
                        "duration": 0.125,
                        "durationTicks": 24,
                        "midi": 77,
                        "name": "F5",
                        "ticks": 15792,
                        "time": 82.25,
                        "velocity": 0.4015748031496063
                    },
                    {
                        "duration": 0.125,
                        "durationTicks": 24,
                        "midi": 65,
                        "name": "F4",
                        "ticks": 15840,
                        "time": 82.5,
                        "velocity": 0.4015748031496063
                    },
                    {
                        "duration": 0.125,
                        "durationTicks": 24,
                        "midi": 77,
                        "name": "F5",
                        "ticks": 15840,
                        "time": 82.5,
                        "velocity": 0.4015748031496063
                    },
                    {
                        "duration": 0.125,
                        "durationTicks": 24,
                        "midi": 69,
                        "name": "A4",
                        "ticks": 15840,
                        "time": 82.5,
                        "velocity": 0.4015748031496063
                    },
                    {
                        "duration": 0.125,
                        "durationTicks": 24,
                        "midi": 62,
                        "name": "D4",
                        "ticks": 15864,
                        "time": 82.625,
                        "velocity": 0.4015748031496063
                    },
                    {
                        "duration": 0.125,
                        "durationTicks": 24,
                        "midi": 74,
                        "name": "D5",
                        "ticks": 15864,
                        "time": 82.625,
                        "velocity": 0.4015748031496063
                    },
                    {
                        "duration": 0.125,
                        "durationTicks": 24,
                        "midi": 69,
                        "name": "A4",
                        "ticks": 15864,
                        "time": 82.625,
                        "velocity": 0.4015748031496063
                    },
                    {
                        "duration": 0.125,
                        "durationTicks": 24,
                        "midi": 81,
                        "name": "A5",
                        "ticks": 15888,
                        "time": 82.75,
                        "velocity": 0.4015748031496063
                    },
                    {
                        "duration": 0.125,
                        "durationTicks": 24,
                        "midi": 69,
                        "name": "A4",
                        "ticks": 15888,
                        "time": 82.75,
                        "velocity": 0.4015748031496063
                    },
                    {
                        "duration": 0.25,
                        "durationTicks": 48,
                        "midi": 74,
                        "name": "D5",
                        "ticks": 15912,
                        "time": 82.875,
                        "velocity": 0.4015748031496063
                    },
                    {
                        "duration": 0.25,
                        "durationTicks": 48,
                        "midi": 82,
                        "name": "A#5",
                        "ticks": 15912,
                        "time": 82.875,
                        "velocity": 0.4015748031496063
                    },
                    {
                        "duration": 0.25,
                        "durationTicks": 48,
                        "midi": 70,
                        "name": "A#4",
                        "ticks": 15912,
                        "time": 82.875,
                        "velocity": 0.4015748031496063
                    },
                    {
                        "duration": 0.125,
                        "durationTicks": 24,
                        "midi": 70,
                        "name": "A#4",
                        "ticks": 15960,
                        "time": 83.125,
                        "velocity": 0.4015748031496063
                    },
                    {
                        "duration": 0.125,
                        "durationTicks": 24,
                        "midi": 82,
                        "name": "A#5",
                        "ticks": 15960,
                        "time": 83.125,
                        "velocity": 0.4015748031496063
                    },
                    {
                        "duration": 0.125,
                        "durationTicks": 24,
                        "midi": 74,
                        "name": "D5",
                        "ticks": 15960,
                        "time": 83.125,
                        "velocity": 0.4015748031496063
                    },
                    {
                        "duration": 0.125,
                        "durationTicks": 24,
                        "midi": 74,
                        "name": "D5",
                        "ticks": 15984,
                        "time": 83.25,
                        "velocity": 0.4015748031496063
                    },
                    {
                        "duration": 0.125,
                        "durationTicks": 24,
                        "midi": 82,
                        "name": "A#5",
                        "ticks": 15984,
                        "time": 83.25,
                        "velocity": 0.4015748031496063
                    },
                    {
                        "duration": 0.125,
                        "durationTicks": 24,
                        "midi": 70,
                        "name": "A#4",
                        "ticks": 15984,
                        "time": 83.25,
                        "velocity": 0.4015748031496063
                    },
                    {
                        "duration": 0.125,
                        "durationTicks": 24,
                        "midi": 74,
                        "name": "D5",
                        "ticks": 16008,
                        "time": 83.375,
                        "velocity": 0.4015748031496063
                    },
                    {
                        "duration": 0.125,
                        "durationTicks": 24,
                        "midi": 69,
                        "name": "A4",
                        "ticks": 16008,
                        "time": 83.375,
                        "velocity": 0.4015748031496063
                    },
                    {
                        "duration": 0.125,
                        "durationTicks": 24,
                        "midi": 81,
                        "name": "A5",
                        "ticks": 16008,
                        "time": 83.375,
                        "velocity": 0.4015748031496063
                    },
                    {
                        "duration": 0.125,
                        "durationTicks": 24,
                        "midi": 74,
                        "name": "D5",
                        "ticks": 16032,
                        "time": 83.5,
                        "velocity": 0.4015748031496063
                    },
                    {
                        "duration": 0.125,
                        "durationTicks": 24,
                        "midi": 70,
                        "name": "A#4",
                        "ticks": 16032,
                        "time": 83.5,
                        "velocity": 0.4015748031496063
                    },
                    {
                        "duration": 0.125,
                        "durationTicks": 24,
                        "midi": 82,
                        "name": "A#5",
                        "ticks": 16032,
                        "time": 83.5,
                        "velocity": 0.4015748031496063
                    },
                    {
                        "duration": 0.125,
                        "durationTicks": 24,
                        "midi": 81,
                        "name": "A5",
                        "ticks": 16056,
                        "time": 83.625,
                        "velocity": 0.4015748031496063
                    },
                    {
                        "duration": 0.125,
                        "durationTicks": 24,
                        "midi": 69,
                        "name": "A4",
                        "ticks": 16056,
                        "time": 83.625,
                        "velocity": 0.4015748031496063
                    },
                    {
                        "duration": 0.125,
                        "durationTicks": 24,
                        "midi": 74,
                        "name": "D5",
                        "ticks": 16056,
                        "time": 83.625,
                        "velocity": 0.4015748031496063
                    },
                    {
                        "duration": 0.125,
                        "durationTicks": 24,
                        "midi": 74,
                        "name": "D5",
                        "ticks": 16080,
                        "time": 83.75,
                        "velocity": 0.4015748031496063
                    },
                    {
                        "duration": 0.125,
                        "durationTicks": 24,
                        "midi": 70,
                        "name": "A#4",
                        "ticks": 16080,
                        "time": 83.75,
                        "velocity": 0.4015748031496063
                    },
                    {
                        "duration": 0.125,
                        "durationTicks": 24,
                        "midi": 82,
                        "name": "A#5",
                        "ticks": 16080,
                        "time": 83.75,
                        "velocity": 0.4015748031496063
                    },
                    {
                        "duration": 0.125,
                        "durationTicks": 24,
                        "midi": 74,
                        "name": "D5",
                        "ticks": 16104,
                        "time": 83.875,
                        "velocity": 0.4015748031496063
                    },
                    {
                        "duration": 0.125,
                        "durationTicks": 24,
                        "midi": 69,
                        "name": "A4",
                        "ticks": 16104,
                        "time": 83.875,
                        "velocity": 0.4015748031496063
                    },
                    {
                        "duration": 0.125,
                        "durationTicks": 24,
                        "midi": 81,
                        "name": "A5",
                        "ticks": 16104,
                        "time": 83.875,
                        "velocity": 0.4015748031496063
                    },
                    {
                        "duration": 0.125,
                        "durationTicks": 24,
                        "midi": 67,
                        "name": "G4",
                        "ticks": 16128,
                        "time": 84,
                        "velocity": 0.4015748031496063
                    },
                    {
                        "duration": 0.125,
                        "durationTicks": 24,
                        "midi": 79,
                        "name": "G5",
                        "ticks": 16128,
                        "time": 84,
                        "velocity": 0.4015748031496063
                    },
                    {
                        "duration": 0.125,
                        "durationTicks": 24,
                        "midi": 70,
                        "name": "A#4",
                        "ticks": 16128,
                        "time": 84,
                        "velocity": 0.4015748031496063
                    },
                    {
                        "duration": 0.125,
                        "durationTicks": 24,
                        "midi": 79,
                        "name": "G5",
                        "ticks": 16176,
                        "time": 84.25,
                        "velocity": 0.4015748031496063
                    },
                    {
                        "duration": 0.125,
                        "durationTicks": 24,
                        "midi": 67,
                        "name": "G4",
                        "ticks": 16176,
                        "time": 84.25,
                        "velocity": 0.4015748031496063
                    },
                    {
                        "duration": 0.125,
                        "durationTicks": 24,
                        "midi": 70,
                        "name": "A#4",
                        "ticks": 16176,
                        "time": 84.25,
                        "velocity": 0.4015748031496063
                    },
                    {
                        "duration": 0.125,
                        "durationTicks": 24,
                        "midi": 79,
                        "name": "G5",
                        "ticks": 16224,
                        "time": 84.5,
                        "velocity": 0.4015748031496063
                    },
                    {
                        "duration": 0.125,
                        "durationTicks": 24,
                        "midi": 67,
                        "name": "G4",
                        "ticks": 16224,
                        "time": 84.5,
                        "velocity": 0.4015748031496063
                    },
                    {
                        "duration": 0.125,
                        "durationTicks": 24,
                        "midi": 70,
                        "name": "A#4",
                        "ticks": 16224,
                        "time": 84.5,
                        "velocity": 0.4015748031496063
                    },
                    {
                        "duration": 0.125,
                        "durationTicks": 24,
                        "midi": 77,
                        "name": "F5",
                        "ticks": 16248,
                        "time": 84.625,
                        "velocity": 0.4015748031496063
                    },
                    {
                        "duration": 0.125,
                        "durationTicks": 24,
                        "midi": 65,
                        "name": "F4",
                        "ticks": 16248,
                        "time": 84.625,
                        "velocity": 0.4015748031496063
                    },
                    {
                        "duration": 0.125,
                        "durationTicks": 24,
                        "midi": 70,
                        "name": "A#4",
                        "ticks": 16248,
                        "time": 84.625,
                        "velocity": 0.4015748031496063
                    },
                    {
                        "duration": 0.125,
                        "durationTicks": 24,
                        "midi": 70,
                        "name": "A#4",
                        "ticks": 16272,
                        "time": 84.75,
                        "velocity": 0.4015748031496063
                    },
                    {
                        "duration": 0.125,
                        "durationTicks": 24,
                        "midi": 67,
                        "name": "G4",
                        "ticks": 16272,
                        "time": 84.75,
                        "velocity": 0.4015748031496063
                    },
                    {
                        "duration": 0.125,
                        "durationTicks": 24,
                        "midi": 79,
                        "name": "G5",
                        "ticks": 16272,
                        "time": 84.75,
                        "velocity": 0.4015748031496063
                    },
                    {
                        "duration": 0.25,
                        "durationTicks": 48,
                        "midi": 77,
                        "name": "F5",
                        "ticks": 16296,
                        "time": 84.875,
                        "velocity": 0.4015748031496063
                    },
                    {
                        "duration": 0.25,
                        "durationTicks": 48,
                        "midi": 65,
                        "name": "F4",
                        "ticks": 16296,
                        "time": 84.875,
                        "velocity": 0.4015748031496063
                    },
                    {
                        "duration": 0.125,
                        "durationTicks": 24,
                        "midi": 74,
                        "name": "D5",
                        "ticks": 16344,
                        "time": 85.125,
                        "velocity": 0.4015748031496063
                    },
                    {
                        "duration": 0.125,
                        "durationTicks": 24,
                        "midi": 82,
                        "name": "A#5",
                        "ticks": 16344,
                        "time": 85.125,
                        "velocity": 0.4015748031496063
                    },
                    {
                        "duration": 0.125,
                        "durationTicks": 24,
                        "midi": 70,
                        "name": "A#4",
                        "ticks": 16344,
                        "time": 85.125,
                        "velocity": 0.4015748031496063
                    },
                    {
                        "duration": 0.125,
                        "durationTicks": 24,
                        "midi": 74,
                        "name": "D5",
                        "ticks": 16368,
                        "time": 85.25,
                        "velocity": 0.4015748031496063
                    },
                    {
                        "duration": 0.125,
                        "durationTicks": 24,
                        "midi": 82,
                        "name": "A#5",
                        "ticks": 16368,
                        "time": 85.25,
                        "velocity": 0.4015748031496063
                    },
                    {
                        "duration": 0.125,
                        "durationTicks": 24,
                        "midi": 70,
                        "name": "A#4",
                        "ticks": 16368,
                        "time": 85.25,
                        "velocity": 0.4015748031496063
                    },
                    {
                        "duration": 0.125,
                        "durationTicks": 24,
                        "midi": 74,
                        "name": "D5",
                        "ticks": 16392,
                        "time": 85.375,
                        "velocity": 0.4015748031496063
                    },
                    {
                        "duration": 0.125,
                        "durationTicks": 24,
                        "midi": 70,
                        "name": "A#4",
                        "ticks": 16392,
                        "time": 85.375,
                        "velocity": 0.4015748031496063
                    },
                    {
                        "duration": 0.125,
                        "durationTicks": 24,
                        "midi": 82,
                        "name": "A#5",
                        "ticks": 16392,
                        "time": 85.375,
                        "velocity": 0.4015748031496063
                    },
                    {
                        "duration": 0.125,
                        "durationTicks": 24,
                        "midi": 74,
                        "name": "D5",
                        "ticks": 16416,
                        "time": 85.5,
                        "velocity": 0.4015748031496063
                    },
                    {
                        "duration": 0.125,
                        "durationTicks": 24,
                        "midi": 70,
                        "name": "A#4",
                        "ticks": 16416,
                        "time": 85.5,
                        "velocity": 0.4015748031496063
                    },
                    {
                        "duration": 0.125,
                        "durationTicks": 24,
                        "midi": 82,
                        "name": "A#5",
                        "ticks": 16416,
                        "time": 85.5,
                        "velocity": 0.4015748031496063
                    },
                    {
                        "duration": 0.125,
                        "durationTicks": 24,
                        "midi": 74,
                        "name": "D5",
                        "ticks": 16440,
                        "time": 85.625,
                        "velocity": 0.4015748031496063
                    },
                    {
                        "duration": 0.125,
                        "durationTicks": 24,
                        "midi": 70,
                        "name": "A#4",
                        "ticks": 16440,
                        "time": 85.625,
                        "velocity": 0.4015748031496063
                    },
                    {
                        "duration": 0.125,
                        "durationTicks": 24,
                        "midi": 82,
                        "name": "A#5",
                        "ticks": 16440,
                        "time": 85.625,
                        "velocity": 0.4015748031496063
                    },
                    {
                        "duration": 0.125,
                        "durationTicks": 24,
                        "midi": 74,
                        "name": "D5",
                        "ticks": 16464,
                        "time": 85.75,
                        "velocity": 0.4015748031496063
                    },
                    {
                        "duration": 0.125,
                        "durationTicks": 24,
                        "midi": 70,
                        "name": "A#4",
                        "ticks": 16464,
                        "time": 85.75,
                        "velocity": 0.4015748031496063
                    },
                    {
                        "duration": 0.125,
                        "durationTicks": 24,
                        "midi": 82,
                        "name": "A#5",
                        "ticks": 16464,
                        "time": 85.75,
                        "velocity": 0.4015748031496063
                    },
                    {
                        "duration": 0.125,
                        "durationTicks": 24,
                        "midi": 74,
                        "name": "D5",
                        "ticks": 16488,
                        "time": 85.875,
                        "velocity": 0.4015748031496063
                    },
                    {
                        "duration": 0.125,
                        "durationTicks": 24,
                        "midi": 62,
                        "name": "D4",
                        "ticks": 16488,
                        "time": 85.875,
                        "velocity": 0.4015748031496063
                    },
                    {
                        "duration": 0.125,
                        "durationTicks": 24,
                        "midi": 69,
                        "name": "A4",
                        "ticks": 16512,
                        "time": 86,
                        "velocity": 0.4015748031496063
                    },
                    {
                        "duration": 0.125,
                        "durationTicks": 24,
                        "midi": 65,
                        "name": "F4",
                        "ticks": 16512,
                        "time": 86,
                        "velocity": 0.4015748031496063
                    },
                    {
                        "duration": 0.125,
                        "durationTicks": 24,
                        "midi": 77,
                        "name": "F5",
                        "ticks": 16512,
                        "time": 86,
                        "velocity": 0.4015748031496063
                    },
                    {
                        "duration": 0.125,
                        "durationTicks": 24,
                        "midi": 69,
                        "name": "A4",
                        "ticks": 16560,
                        "time": 86.25,
                        "velocity": 0.4015748031496063
                    },
                    {
                        "duration": 0.125,
                        "durationTicks": 24,
                        "midi": 77,
                        "name": "F5",
                        "ticks": 16560,
                        "time": 86.25,
                        "velocity": 0.4015748031496063
                    },
                    {
                        "duration": 0.125,
                        "durationTicks": 24,
                        "midi": 65,
                        "name": "F4",
                        "ticks": 16560,
                        "time": 86.25,
                        "velocity": 0.4015748031496063
                    },
                    {
                        "duration": 0.125,
                        "durationTicks": 24,
                        "midi": 69,
                        "name": "A4",
                        "ticks": 16608,
                        "time": 86.5,
                        "velocity": 0.4015748031496063
                    },
                    {
                        "duration": 0.125,
                        "durationTicks": 24,
                        "midi": 65,
                        "name": "F4",
                        "ticks": 16608,
                        "time": 86.5,
                        "velocity": 0.4015748031496063
                    },
                    {
                        "duration": 0.125,
                        "durationTicks": 24,
                        "midi": 77,
                        "name": "F5",
                        "ticks": 16608,
                        "time": 86.5,
                        "velocity": 0.4015748031496063
                    },
                    {
                        "duration": 0.125,
                        "durationTicks": 24,
                        "midi": 69,
                        "name": "A4",
                        "ticks": 16632,
                        "time": 86.625,
                        "velocity": 0.4015748031496063
                    },
                    {
                        "duration": 0.125,
                        "durationTicks": 24,
                        "midi": 62,
                        "name": "D4",
                        "ticks": 16632,
                        "time": 86.625,
                        "velocity": 0.4015748031496063
                    },
                    {
                        "duration": 0.125,
                        "durationTicks": 24,
                        "midi": 74,
                        "name": "D5",
                        "ticks": 16632,
                        "time": 86.625,
                        "velocity": 0.4015748031496063
                    },
                    {
                        "duration": 0.125,
                        "durationTicks": 24,
                        "midi": 74,
                        "name": "D5",
                        "ticks": 16656,
                        "time": 86.75,
                        "velocity": 0.4015748031496063
                    },
                    {
                        "duration": 0.125,
                        "durationTicks": 24,
                        "midi": 69,
                        "name": "A4",
                        "ticks": 16656,
                        "time": 86.75,
                        "velocity": 0.4015748031496063
                    },
                    {
                        "duration": 0.125,
                        "durationTicks": 24,
                        "midi": 81,
                        "name": "A5",
                        "ticks": 16656,
                        "time": 86.75,
                        "velocity": 0.4015748031496063
                    },
                    {
                        "duration": 0.25,
                        "durationTicks": 48,
                        "midi": 82,
                        "name": "A#5",
                        "ticks": 16680,
                        "time": 86.875,
                        "velocity": 0.4015748031496063
                    },
                    {
                        "duration": 0.25,
                        "durationTicks": 48,
                        "midi": 74,
                        "name": "D5",
                        "ticks": 16680,
                        "time": 86.875,
                        "velocity": 0.4015748031496063
                    },
                    {
                        "duration": 0.25,
                        "durationTicks": 48,
                        "midi": 70,
                        "name": "A#4",
                        "ticks": 16680,
                        "time": 86.875,
                        "velocity": 0.4015748031496063
                    },
                    {
                        "duration": 0.125,
                        "durationTicks": 24,
                        "midi": 82,
                        "name": "A#5",
                        "ticks": 16728,
                        "time": 87.125,
                        "velocity": 0.48031496062992124
                    },
                    {
                        "duration": 0.125,
                        "durationTicks": 24,
                        "midi": 74,
                        "name": "D5",
                        "ticks": 16728,
                        "time": 87.125,
                        "velocity": 0.4015748031496063
                    },
                    {
                        "duration": 0.125,
                        "durationTicks": 24,
                        "midi": 70,
                        "name": "A#4",
                        "ticks": 16728,
                        "time": 87.125,
                        "velocity": 0.48031496062992124
                    },
                    {
                        "duration": 0.125,
                        "durationTicks": 24,
                        "midi": 82,
                        "name": "A#5",
                        "ticks": 16752,
                        "time": 87.25,
                        "velocity": 0.48031496062992124
                    },
                    {
                        "duration": 0.125,
                        "durationTicks": 24,
                        "midi": 74,
                        "name": "D5",
                        "ticks": 16752,
                        "time": 87.25,
                        "velocity": 0.4015748031496063
                    },
                    {
                        "duration": 0.125,
                        "durationTicks": 24,
                        "midi": 70,
                        "name": "A#4",
                        "ticks": 16752,
                        "time": 87.25,
                        "velocity": 0.48031496062992124
                    },
                    {
                        "duration": 0.125,
                        "durationTicks": 24,
                        "midi": 69,
                        "name": "A4",
                        "ticks": 16776,
                        "time": 87.375,
                        "velocity": 0.48031496062992124
                    },
                    {
                        "duration": 0.125,
                        "durationTicks": 24,
                        "midi": 81,
                        "name": "A5",
                        "ticks": 16776,
                        "time": 87.375,
                        "velocity": 0.48031496062992124
                    },
                    {
                        "duration": 0.125,
                        "durationTicks": 24,
                        "midi": 74,
                        "name": "D5",
                        "ticks": 16776,
                        "time": 87.375,
                        "velocity": 0.4015748031496063
                    },
                    {
                        "duration": 0.125,
                        "durationTicks": 24,
                        "midi": 70,
                        "name": "A#4",
                        "ticks": 16800,
                        "time": 87.5,
                        "velocity": 0.48031496062992124
                    },
                    {
                        "duration": 0.125,
                        "durationTicks": 24,
                        "midi": 74,
                        "name": "D5",
                        "ticks": 16800,
                        "time": 87.5,
                        "velocity": 0.4015748031496063
                    },
                    {
                        "duration": 0.125,
                        "durationTicks": 24,
                        "midi": 82,
                        "name": "A#5",
                        "ticks": 16800,
                        "time": 87.5,
                        "velocity": 0.48031496062992124
                    },
                    {
                        "duration": 0.125,
                        "durationTicks": 24,
                        "midi": 74,
                        "name": "D5",
                        "ticks": 16824,
                        "time": 87.625,
                        "velocity": 0.48031496062992124
                    },
                    {
                        "duration": 0.125,
                        "durationTicks": 24,
                        "midi": 62,
                        "name": "D4",
                        "ticks": 16824,
                        "time": 87.625,
                        "velocity": 0.48031496062992124
                    },
                    {
                        "duration": 0.125,
                        "durationTicks": 24,
                        "midi": 77,
                        "name": "F5",
                        "ticks": 16848,
                        "time": 87.75,
                        "velocity": 0.48031496062992124
                    },
                    {
                        "duration": 0.125,
                        "durationTicks": 24,
                        "midi": 65,
                        "name": "F4",
                        "ticks": 16848,
                        "time": 87.75,
                        "velocity": 0.48031496062992124
                    },
                    {
                        "duration": 0.125,
                        "durationTicks": 24,
                        "midi": 81,
                        "name": "A5",
                        "ticks": 16872,
                        "time": 87.875,
                        "velocity": 0.48031496062992124
                    },
                    {
                        "duration": 0.125,
                        "durationTicks": 24,
                        "midi": 69,
                        "name": "A4",
                        "ticks": 16872,
                        "time": 87.875,
                        "velocity": 0.48031496062992124
                    },
                    {
                        "duration": 0.125,
                        "durationTicks": 24,
                        "midi": 70,
                        "name": "A#4",
                        "ticks": 16920,
                        "time": 88.125,
                        "velocity": 0.3937007874015748
                    },
                    {
                        "duration": 0.125,
                        "durationTicks": 24,
                        "midi": 70,
                        "name": "A#4",
                        "ticks": 16968,
                        "time": 88.375,
                        "velocity": 0.3937007874015748
                    },
                    {
                        "duration": 0.125,
                        "durationTicks": 24,
                        "midi": 70,
                        "name": "A#4",
                        "ticks": 17016,
                        "time": 88.625,
                        "velocity": 0.3937007874015748
                    },
                    {
                        "duration": 0.125,
                        "durationTicks": 24,
                        "midi": 65,
                        "name": "F4",
                        "ticks": 17064,
                        "time": 88.875,
                        "velocity": 0.3937007874015748
                    },
                    {
                        "duration": 0.125,
                        "durationTicks": 24,
                        "midi": 65,
                        "name": "F4",
                        "ticks": 17112,
                        "time": 89.125,
                        "velocity": 0.3937007874015748
                    },
                    {
                        "duration": 0.125,
                        "durationTicks": 24,
                        "midi": 65,
                        "name": "F4",
                        "ticks": 17160,
                        "time": 89.375,
                        "velocity": 0.3937007874015748
                    },
                    {
                        "duration": 0.125,
                        "durationTicks": 24,
                        "midi": 65,
                        "name": "F4",
                        "ticks": 17208,
                        "time": 89.625,
                        "velocity": 0.3937007874015748
                    },
                    {
                        "duration": 0.125,
                        "durationTicks": 24,
                        "midi": 60,
                        "name": "C4",
                        "ticks": 17256,
                        "time": 89.875,
                        "velocity": 0.3937007874015748
                    },
                    {
                        "duration": 0.125,
                        "durationTicks": 24,
                        "midi": 69,
                        "name": "A4",
                        "ticks": 17304,
                        "time": 90.125,
                        "velocity": 0.3937007874015748
                    },
                    {
                        "duration": 0.125,
                        "durationTicks": 24,
                        "midi": 69,
                        "name": "A4",
                        "ticks": 17352,
                        "time": 90.375,
                        "velocity": 0.3937007874015748
                    },
                    {
                        "duration": 0.125,
                        "durationTicks": 24,
                        "midi": 74,
                        "name": "D5",
                        "ticks": 17448,
                        "time": 90.875,
                        "velocity": 0.3937007874015748
                    },
                    {
                        "duration": 0.125,
                        "durationTicks": 24,
                        "midi": 74,
                        "name": "D5",
                        "ticks": 17496,
                        "time": 91.125,
                        "velocity": 0.3937007874015748
                    },
                    {
                        "duration": 0.125,
                        "durationTicks": 24,
                        "midi": 74,
                        "name": "D5",
                        "ticks": 17544,
                        "time": 91.375,
                        "velocity": 0.3937007874015748
                    },
                    {
                        "duration": 0.125,
                        "durationTicks": 24,
                        "midi": 74,
                        "name": "D5",
                        "ticks": 17592,
                        "time": 91.625,
                        "velocity": 0.3937007874015748
                    },
                    {
                        "duration": 0.125,
                        "durationTicks": 24,
                        "midi": 74,
                        "name": "D5",
                        "ticks": 17640,
                        "time": 91.875,
                        "velocity": 0.3937007874015748
                    },
                    {
                        "duration": 0.125,
                        "durationTicks": 24,
                        "midi": 70,
                        "name": "A#4",
                        "ticks": 17688,
                        "time": 92.125,
                        "velocity": 0.3937007874015748
                    },
                    {
                        "duration": 0.125,
                        "durationTicks": 24,
                        "midi": 70,
                        "name": "A#4",
                        "ticks": 17736,
                        "time": 92.375,
                        "velocity": 0.3937007874015748
                    },
                    {
                        "duration": 0.125,
                        "durationTicks": 24,
                        "midi": 70,
                        "name": "A#4",
                        "ticks": 17784,
                        "time": 92.625,
                        "velocity": 0.3937007874015748
                    },
                    {
                        "duration": 0.125,
                        "durationTicks": 24,
                        "midi": 65,
                        "name": "F4",
                        "ticks": 17832,
                        "time": 92.875,
                        "velocity": 0.3937007874015748
                    },
                    {
                        "duration": 0.125,
                        "durationTicks": 24,
                        "midi": 65,
                        "name": "F4",
                        "ticks": 17880,
                        "time": 93.125,
                        "velocity": 0.3937007874015748
                    },
                    {
                        "duration": 0.125,
                        "durationTicks": 24,
                        "midi": 65,
                        "name": "F4",
                        "ticks": 17928,
                        "time": 93.375,
                        "velocity": 0.3937007874015748
                    },
                    {
                        "duration": 0.125,
                        "durationTicks": 24,
                        "midi": 65,
                        "name": "F4",
                        "ticks": 17976,
                        "time": 93.625,
                        "velocity": 0.3937007874015748
                    },
                    {
                        "duration": 0.125,
                        "durationTicks": 24,
                        "midi": 60,
                        "name": "C4",
                        "ticks": 18024,
                        "time": 93.875,
                        "velocity": 0.3937007874015748
                    },
                    {
                        "duration": 0.125,
                        "durationTicks": 24,
                        "midi": 69,
                        "name": "A4",
                        "ticks": 18072,
                        "time": 94.125,
                        "velocity": 0.3937007874015748
                    },
                    {
                        "duration": 0.125,
                        "durationTicks": 24,
                        "midi": 69,
                        "name": "A4",
                        "ticks": 18120,
                        "time": 94.375,
                        "velocity": 0.3937007874015748
                    },
                    {
                        "duration": 0.125,
                        "durationTicks": 24,
                        "midi": 74,
                        "name": "D5",
                        "ticks": 18216,
                        "time": 94.875,
                        "velocity": 0.3937007874015748
                    },
                    {
                        "duration": 0.125,
                        "durationTicks": 24,
                        "midi": 74,
                        "name": "D5",
                        "ticks": 18264,
                        "time": 95.125,
                        "velocity": 0.3937007874015748
                    },
                    {
                        "duration": 0.125,
                        "durationTicks": 24,
                        "midi": 74,
                        "name": "D5",
                        "ticks": 18312,
                        "time": 95.375,
                        "velocity": 0.3937007874015748
                    },
                    {
                        "duration": 0.125,
                        "durationTicks": 24,
                        "midi": 74,
                        "name": "D5",
                        "ticks": 18360,
                        "time": 95.625,
                        "velocity": 0.3937007874015748
                    },
                    {
                        "duration": 0.125,
                        "durationTicks": 24,
                        "midi": 74,
                        "name": "D5",
                        "ticks": 18384,
                        "time": 95.75,
                        "velocity": 0.3937007874015748
                    },
                    {
                        "duration": 0.125,
                        "durationTicks": 24,
                        "midi": 77,
                        "name": "F5",
                        "ticks": 18408,
                        "time": 95.875,
                        "velocity": 0.3937007874015748
                    },
                    {
                        "duration": 0.25,
                        "durationTicks": 48,
                        "midi": 77,
                        "name": "F5",
                        "ticks": 18432,
                        "time": 96,
                        "velocity": 0.4015748031496063
                    },
                    {
                        "duration": 0.25,
                        "durationTicks": 48,
                        "midi": 74,
                        "name": "D5",
                        "ticks": 18480,
                        "time": 96.25,
                        "velocity": 0.4015748031496063
                    },
                    {
                        "duration": 0.25,
                        "durationTicks": 48,
                        "midi": 72,
                        "name": "C5",
                        "ticks": 18528,
                        "time": 96.5,
                        "velocity": 0.4015748031496063
                    },
                    {
                        "duration": 0.125,
                        "durationTicks": 24,
                        "midi": 70,
                        "name": "A#4",
                        "ticks": 18576,
                        "time": 96.75,
                        "velocity": 0.4015748031496063
                    },
                    {
                        "duration": 0.125,
                        "durationTicks": 24,
                        "midi": 72,
                        "name": "C5",
                        "ticks": 18600,
                        "time": 96.875,
                        "velocity": 0.4015748031496063
                    },
                    {
                        "duration": 0.25,
                        "durationTicks": 48,
                        "midi": 70,
                        "name": "A#4",
                        "ticks": 18624,
                        "time": 97,
                        "velocity": 0.4015748031496063
                    },
                    {
                        "duration": 0.125,
                        "durationTicks": 24,
                        "midi": 70,
                        "name": "A#4",
                        "ticks": 18744,
                        "time": 97.625,
                        "velocity": 0.4015748031496063
                    },
                    {
                        "duration": 0.125,
                        "durationTicks": 24,
                        "midi": 74,
                        "name": "D5",
                        "ticks": 18768,
                        "time": 97.75,
                        "velocity": 0.4015748031496063
                    },
                    {
                        "duration": 0.125,
                        "durationTicks": 24,
                        "midi": 77,
                        "name": "F5",
                        "ticks": 18792,
                        "time": 97.875,
                        "velocity": 0.4015748031496063
                    },
                    {
                        "duration": 0.25,
                        "durationTicks": 48,
                        "midi": 77,
                        "name": "F5",
                        "ticks": 18816,
                        "time": 98,
                        "velocity": 0.4015748031496063
                    },
                    {
                        "duration": 0.25,
                        "durationTicks": 48,
                        "midi": 74,
                        "name": "D5",
                        "ticks": 18864,
                        "time": 98.25,
                        "velocity": 0.4015748031496063
                    },
                    {
                        "duration": 0.25,
                        "durationTicks": 48,
                        "midi": 72,
                        "name": "C5",
                        "ticks": 18912,
                        "time": 98.5,
                        "velocity": 0.4015748031496063
                    },
                    {
                        "duration": 0.125,
                        "durationTicks": 24,
                        "midi": 70,
                        "name": "A#4",
                        "ticks": 18960,
                        "time": 98.75,
                        "velocity": 0.4015748031496063
                    },
                    {
                        "duration": 0.125,
                        "durationTicks": 24,
                        "midi": 69,
                        "name": "A4",
                        "ticks": 18984,
                        "time": 98.875,
                        "velocity": 0.4015748031496063
                    },
                    {
                        "duration": 0.5,
                        "durationTicks": 96,
                        "midi": 67,
                        "name": "G4",
                        "ticks": 19008,
                        "time": 99,
                        "velocity": 0.4015748031496063
                    },
                    {
                        "duration": 0.125,
                        "durationTicks": 24,
                        "midi": 74,
                        "name": "D5",
                        "ticks": 19248,
                        "time": 100.25,
                        "velocity": 0.4015748031496063
                    },
                    {
                        "duration": 0.125,
                        "durationTicks": 24,
                        "midi": 77,
                        "name": "F5",
                        "ticks": 19272,
                        "time": 100.375,
                        "velocity": 0.4015748031496063
                    },
                    {
                        "duration": 0.25,
                        "durationTicks": 48,
                        "midi": 77,
                        "name": "F5",
                        "ticks": 19296,
                        "time": 100.5,
                        "velocity": 0.4015748031496063
                    },
                    {
                        "duration": 0.25,
                        "durationTicks": 48,
                        "midi": 74,
                        "name": "D5",
                        "ticks": 19344,
                        "time": 100.75,
                        "velocity": 0.4015748031496063
                    },
                    {
                        "duration": 0.25,
                        "durationTicks": 48,
                        "midi": 72,
                        "name": "C5",
                        "ticks": 19392,
                        "time": 101,
                        "velocity": 0.4015748031496063
                    },
                    {
                        "duration": 0.125,
                        "durationTicks": 24,
                        "midi": 70,
                        "name": "A#4",
                        "ticks": 19440,
                        "time": 101.25,
                        "velocity": 0.4015748031496063
                    },
                    {
                        "duration": 0.125,
                        "durationTicks": 24,
                        "midi": 72,
                        "name": "C5",
                        "ticks": 19464,
                        "time": 101.375,
                        "velocity": 0.4015748031496063
                    },
                    {
                        "duration": 0.5,
                        "durationTicks": 96,
                        "midi": 70,
                        "name": "A#4",
                        "ticks": 19488,
                        "time": 101.5,
                        "velocity": 0.4015748031496063
                    },
                    {
                        "duration": 0.125,
                        "durationTicks": 24,
                        "midi": 74,
                        "name": "D5",
                        "ticks": 19632,
                        "time": 102.25,
                        "velocity": 0.4015748031496063
                    },
                    {
                        "duration": 0.125,
                        "durationTicks": 24,
                        "midi": 77,
                        "name": "F5",
                        "ticks": 19656,
                        "time": 102.375,
                        "velocity": 0.4015748031496063
                    },
                    {
                        "duration": 0.25,
                        "durationTicks": 48,
                        "midi": 77,
                        "name": "F5",
                        "ticks": 19680,
                        "time": 102.5,
                        "velocity": 0.4015748031496063
                    },
                    {
                        "duration": 0.25,
                        "durationTicks": 48,
                        "midi": 74,
                        "name": "D5",
                        "ticks": 19728,
                        "time": 102.75,
                        "velocity": 0.4015748031496063
                    },
                    {
                        "duration": 0.25,
                        "durationTicks": 48,
                        "midi": 72,
                        "name": "C5",
                        "ticks": 19776,
                        "time": 103,
                        "velocity": 0.4015748031496063
                    },
                    {
                        "duration": 0.125,
                        "durationTicks": 24,
                        "midi": 72,
                        "name": "C5",
                        "ticks": 19824,
                        "time": 103.25,
                        "velocity": 0.4015748031496063
                    },
                    {
                        "duration": 0.125,
                        "durationTicks": 24,
                        "midi": 74,
                        "name": "D5",
                        "ticks": 19848,
                        "time": 103.375,
                        "velocity": 0.4015748031496063
                    },
                    {
                        "duration": 0.25,
                        "durationTicks": 48,
                        "midi": 67,
                        "name": "G4",
                        "ticks": 19872,
                        "time": 103.5,
                        "velocity": 0.4015748031496063
                    },
                    {
                        "duration": 0.25,
                        "durationTicks": 48,
                        "midi": 70,
                        "name": "A#4",
                        "ticks": 19920,
                        "time": 103.75,
                        "velocity": 0.4015748031496063
                    },
                    {
                        "duration": 0.125,
                        "durationTicks": 24,
                        "midi": 79,
                        "name": "G5",
                        "ticks": 19968,
                        "time": 104,
                        "velocity": 0.4015748031496063
                    },
                    {
                        "duration": 0.125,
                        "durationTicks": 24,
                        "midi": 67,
                        "name": "G4",
                        "ticks": 19968,
                        "time": 104,
                        "velocity": 0.4015748031496063
                    },
                    {
                        "duration": 0.125,
                        "durationTicks": 24,
                        "midi": 67,
                        "name": "G4",
                        "ticks": 20016,
                        "time": 104.25,
                        "velocity": 0.4015748031496063
                    },
                    {
                        "duration": 0.125,
                        "durationTicks": 24,
                        "midi": 79,
                        "name": "G5",
                        "ticks": 20016,
                        "time": 104.25,
                        "velocity": 0.4015748031496063
                    },
                    {
                        "duration": 0.125,
                        "durationTicks": 24,
                        "midi": 67,
                        "name": "G4",
                        "ticks": 20064,
                        "time": 104.5,
                        "velocity": 0.4015748031496063
                    },
                    {
                        "duration": 0.125,
                        "durationTicks": 24,
                        "midi": 79,
                        "name": "G5",
                        "ticks": 20064,
                        "time": 104.5,
                        "velocity": 0.4015748031496063
                    },
                    {
                        "duration": 0.125,
                        "durationTicks": 24,
                        "midi": 77,
                        "name": "F5",
                        "ticks": 20088,
                        "time": 104.625,
                        "velocity": 0.4015748031496063
                    },
                    {
                        "duration": 0.125,
                        "durationTicks": 24,
                        "midi": 65,
                        "name": "F4",
                        "ticks": 20088,
                        "time": 104.625,
                        "velocity": 0.4015748031496063
                    },
                    {
                        "duration": 0.125,
                        "durationTicks": 24,
                        "midi": 79,
                        "name": "G5",
                        "ticks": 20112,
                        "time": 104.75,
                        "velocity": 0.4015748031496063
                    },
                    {
                        "duration": 0.125,
                        "durationTicks": 24,
                        "midi": 67,
                        "name": "G4",
                        "ticks": 20112,
                        "time": 104.75,
                        "velocity": 0.4015748031496063
                    },
                    {
                        "duration": 0.125,
                        "durationTicks": 24,
                        "midi": 77,
                        "name": "F5",
                        "ticks": 20136,
                        "time": 104.875,
                        "velocity": 0.4015748031496063
                    },
                    {
                        "duration": 0.125,
                        "durationTicks": 24,
                        "midi": 65,
                        "name": "F4",
                        "ticks": 20136,
                        "time": 104.875,
                        "velocity": 0.4015748031496063
                    },
                    {
                        "duration": 0.125,
                        "durationTicks": 24,
                        "midi": 70,
                        "name": "A#4",
                        "ticks": 20184,
                        "time": 105.125,
                        "velocity": 0.4015748031496063
                    },
                    {
                        "duration": 0.125,
                        "durationTicks": 24,
                        "midi": 82,
                        "name": "A#5",
                        "ticks": 20184,
                        "time": 105.125,
                        "velocity": 0.4015748031496063
                    },
                    {
                        "duration": 0.125,
                        "durationTicks": 24,
                        "midi": 70,
                        "name": "A#4",
                        "ticks": 20208,
                        "time": 105.25,
                        "velocity": 0.4015748031496063
                    },
                    {
                        "duration": 0.125,
                        "durationTicks": 24,
                        "midi": 82,
                        "name": "A#5",
                        "ticks": 20208,
                        "time": 105.25,
                        "velocity": 0.4015748031496063
                    },
                    {
                        "duration": 0.125,
                        "durationTicks": 24,
                        "midi": 70,
                        "name": "A#4",
                        "ticks": 20232,
                        "time": 105.375,
                        "velocity": 0.4015748031496063
                    },
                    {
                        "duration": 0.125,
                        "durationTicks": 24,
                        "midi": 82,
                        "name": "A#5",
                        "ticks": 20232,
                        "time": 105.375,
                        "velocity": 0.4015748031496063
                    },
                    {
                        "duration": 0.125,
                        "durationTicks": 24,
                        "midi": 70,
                        "name": "A#4",
                        "ticks": 20256,
                        "time": 105.5,
                        "velocity": 0.4015748031496063
                    },
                    {
                        "duration": 0.125,
                        "durationTicks": 24,
                        "midi": 82,
                        "name": "A#5",
                        "ticks": 20256,
                        "time": 105.5,
                        "velocity": 0.4015748031496063
                    },
                    {
                        "duration": 0.125,
                        "durationTicks": 24,
                        "midi": 82,
                        "name": "A#5",
                        "ticks": 20280,
                        "time": 105.625,
                        "velocity": 0.4015748031496063
                    },
                    {
                        "duration": 0.125,
                        "durationTicks": 24,
                        "midi": 70,
                        "name": "A#4",
                        "ticks": 20280,
                        "time": 105.625,
                        "velocity": 0.4015748031496063
                    },
                    {
                        "duration": 0.125,
                        "durationTicks": 24,
                        "midi": 82,
                        "name": "A#5",
                        "ticks": 20304,
                        "time": 105.75,
                        "velocity": 0.4015748031496063
                    },
                    {
                        "duration": 0.125,
                        "durationTicks": 24,
                        "midi": 70,
                        "name": "A#4",
                        "ticks": 20304,
                        "time": 105.75,
                        "velocity": 0.4015748031496063
                    },
                    {
                        "duration": 0.125,
                        "durationTicks": 24,
                        "midi": 74,
                        "name": "D5",
                        "ticks": 20328,
                        "time": 105.875,
                        "velocity": 0.4015748031496063
                    },
                    {
                        "duration": 0.125,
                        "durationTicks": 24,
                        "midi": 62,
                        "name": "D4",
                        "ticks": 20328,
                        "time": 105.875,
                        "velocity": 0.4015748031496063
                    },
                    {
                        "duration": 0.125,
                        "durationTicks": 24,
                        "midi": 77,
                        "name": "F5",
                        "ticks": 20352,
                        "time": 106,
                        "velocity": 0.4015748031496063
                    },
                    {
                        "duration": 0.125,
                        "durationTicks": 24,
                        "midi": 65,
                        "name": "F4",
                        "ticks": 20352,
                        "time": 106,
                        "velocity": 0.4015748031496063
                    },
                    {
                        "duration": 0.125,
                        "durationTicks": 24,
                        "midi": 65,
                        "name": "F4",
                        "ticks": 20400,
                        "time": 106.25,
                        "velocity": 0.4015748031496063
                    },
                    {
                        "duration": 0.125,
                        "durationTicks": 24,
                        "midi": 77,
                        "name": "F5",
                        "ticks": 20400,
                        "time": 106.25,
                        "velocity": 0.4015748031496063
                    },
                    {
                        "duration": 0.125,
                        "durationTicks": 24,
                        "midi": 65,
                        "name": "F4",
                        "ticks": 20448,
                        "time": 106.5,
                        "velocity": 0.4015748031496063
                    },
                    {
                        "duration": 0.125,
                        "durationTicks": 24,
                        "midi": 77,
                        "name": "F5",
                        "ticks": 20448,
                        "time": 106.5,
                        "velocity": 0.4015748031496063
                    },
                    {
                        "duration": 0.125,
                        "durationTicks": 24,
                        "midi": 74,
                        "name": "D5",
                        "ticks": 20472,
                        "time": 106.625,
                        "velocity": 0.4015748031496063
                    },
                    {
                        "duration": 0.125,
                        "durationTicks": 24,
                        "midi": 62,
                        "name": "D4",
                        "ticks": 20472,
                        "time": 106.625,
                        "velocity": 0.4015748031496063
                    },
                    {
                        "duration": 0.125,
                        "durationTicks": 24,
                        "midi": 81,
                        "name": "A5",
                        "ticks": 20496,
                        "time": 106.75,
                        "velocity": 0.4015748031496063
                    },
                    {
                        "duration": 0.125,
                        "durationTicks": 24,
                        "midi": 69,
                        "name": "A4",
                        "ticks": 20496,
                        "time": 106.75,
                        "velocity": 0.4015748031496063
                    },
                    {
                        "duration": 0.25,
                        "durationTicks": 48,
                        "midi": 82,
                        "name": "A#5",
                        "ticks": 20520,
                        "time": 106.875,
                        "velocity": 0.4015748031496063
                    },
                    {
                        "duration": 0.25,
                        "durationTicks": 48,
                        "midi": 70,
                        "name": "A#4",
                        "ticks": 20520,
                        "time": 106.875,
                        "velocity": 0.4015748031496063
                    },
                    {
                        "duration": 0.125,
                        "durationTicks": 24,
                        "midi": 82,
                        "name": "A#5",
                        "ticks": 20568,
                        "time": 107.125,
                        "velocity": 0.4015748031496063
                    },
                    {
                        "duration": 0.125,
                        "durationTicks": 24,
                        "midi": 70,
                        "name": "A#4",
                        "ticks": 20568,
                        "time": 107.125,
                        "velocity": 0.4015748031496063
                    },
                    {
                        "duration": 0.125,
                        "durationTicks": 24,
                        "midi": 82,
                        "name": "A#5",
                        "ticks": 20592,
                        "time": 107.25,
                        "velocity": 0.4015748031496063
                    },
                    {
                        "duration": 0.125,
                        "durationTicks": 24,
                        "midi": 70,
                        "name": "A#4",
                        "ticks": 20592,
                        "time": 107.25,
                        "velocity": 0.4015748031496063
                    },
                    {
                        "duration": 0.125,
                        "durationTicks": 24,
                        "midi": 69,
                        "name": "A4",
                        "ticks": 20616,
                        "time": 107.375,
                        "velocity": 0.4015748031496063
                    },
                    {
                        "duration": 0.125,
                        "durationTicks": 24,
                        "midi": 81,
                        "name": "A5",
                        "ticks": 20616,
                        "time": 107.375,
                        "velocity": 0.4015748031496063
                    },
                    {
                        "duration": 0.125,
                        "durationTicks": 24,
                        "midi": 70,
                        "name": "A#4",
                        "ticks": 20640,
                        "time": 107.5,
                        "velocity": 0.4015748031496063
                    },
                    {
                        "duration": 0.125,
                        "durationTicks": 24,
                        "midi": 82,
                        "name": "A#5",
                        "ticks": 20640,
                        "time": 107.5,
                        "velocity": 0.4015748031496063
                    },
                    {
                        "duration": 0.125,
                        "durationTicks": 24,
                        "midi": 81,
                        "name": "A5",
                        "ticks": 20664,
                        "time": 107.625,
                        "velocity": 0.4015748031496063
                    },
                    {
                        "duration": 0.125,
                        "durationTicks": 24,
                        "midi": 69,
                        "name": "A4",
                        "ticks": 20664,
                        "time": 107.625,
                        "velocity": 0.4015748031496063
                    },
                    {
                        "duration": 0.125,
                        "durationTicks": 24,
                        "midi": 82,
                        "name": "A#5",
                        "ticks": 20688,
                        "time": 107.75,
                        "velocity": 0.4015748031496063
                    },
                    {
                        "duration": 0.125,
                        "durationTicks": 24,
                        "midi": 70,
                        "name": "A#4",
                        "ticks": 20688,
                        "time": 107.75,
                        "velocity": 0.4015748031496063
                    },
                    {
                        "duration": 0.125,
                        "durationTicks": 24,
                        "midi": 69,
                        "name": "A4",
                        "ticks": 20712,
                        "time": 107.875,
                        "velocity": 0.4015748031496063
                    },
                    {
                        "duration": 0.125,
                        "durationTicks": 24,
                        "midi": 81,
                        "name": "A5",
                        "ticks": 20712,
                        "time": 107.875,
                        "velocity": 0.4015748031496063
                    },
                    {
                        "duration": 0.125,
                        "durationTicks": 24,
                        "midi": 79,
                        "name": "G5",
                        "ticks": 20736,
                        "time": 108,
                        "velocity": 0.4015748031496063
                    },
                    {
                        "duration": 0.125,
                        "durationTicks": 24,
                        "midi": 67,
                        "name": "G4",
                        "ticks": 20736,
                        "time": 108,
                        "velocity": 0.4015748031496063
                    },
                    {
                        "duration": 0.125,
                        "durationTicks": 24,
                        "midi": 79,
                        "name": "G5",
                        "ticks": 20784,
                        "time": 108.25,
                        "velocity": 0.4015748031496063
                    },
                    {
                        "duration": 0.125,
                        "durationTicks": 24,
                        "midi": 67,
                        "name": "G4",
                        "ticks": 20784,
                        "time": 108.25,
                        "velocity": 0.4015748031496063
                    },
                    {
                        "duration": 0.125,
                        "durationTicks": 24,
                        "midi": 79,
                        "name": "G5",
                        "ticks": 20832,
                        "time": 108.5,
                        "velocity": 0.4015748031496063
                    },
                    {
                        "duration": 0.125,
                        "durationTicks": 24,
                        "midi": 67,
                        "name": "G4",
                        "ticks": 20832,
                        "time": 108.5,
                        "velocity": 0.4015748031496063
                    },
                    {
                        "duration": 0.125,
                        "durationTicks": 24,
                        "midi": 77,
                        "name": "F5",
                        "ticks": 20856,
                        "time": 108.625,
                        "velocity": 0.4015748031496063
                    },
                    {
                        "duration": 0.125,
                        "durationTicks": 24,
                        "midi": 65,
                        "name": "F4",
                        "ticks": 20856,
                        "time": 108.625,
                        "velocity": 0.4015748031496063
                    },
                    {
                        "duration": 0.125,
                        "durationTicks": 24,
                        "midi": 79,
                        "name": "G5",
                        "ticks": 20880,
                        "time": 108.75,
                        "velocity": 0.4015748031496063
                    },
                    {
                        "duration": 0.125,
                        "durationTicks": 24,
                        "midi": 67,
                        "name": "G4",
                        "ticks": 20880,
                        "time": 108.75,
                        "velocity": 0.4015748031496063
                    },
                    {
                        "duration": 0.125,
                        "durationTicks": 24,
                        "midi": 65,
                        "name": "F4",
                        "ticks": 20904,
                        "time": 108.875,
                        "velocity": 0.4015748031496063
                    },
                    {
                        "duration": 0.125,
                        "durationTicks": 24,
                        "midi": 77,
                        "name": "F5",
                        "ticks": 20904,
                        "time": 108.875,
                        "velocity": 0.4015748031496063
                    },
                    {
                        "duration": 0.125,
                        "durationTicks": 24,
                        "midi": 79,
                        "name": "G5",
                        "ticks": 20928,
                        "time": 109,
                        "velocity": 0.4015748031496063
                    },
                    {
                        "duration": 0.125,
                        "durationTicks": 24,
                        "midi": 67,
                        "name": "G4",
                        "ticks": 20928,
                        "time": 109,
                        "velocity": 0.4015748031496063
                    },
                    {
                        "duration": 0.125,
                        "durationTicks": 24,
                        "midi": 79,
                        "name": "G5",
                        "ticks": 20976,
                        "time": 109.25,
                        "velocity": 0.4015748031496063
                    },
                    {
                        "duration": 0.125,
                        "durationTicks": 24,
                        "midi": 67,
                        "name": "G4",
                        "ticks": 20976,
                        "time": 109.25,
                        "velocity": 0.4015748031496063
                    },
                    {
                        "duration": 0.125,
                        "durationTicks": 24,
                        "midi": 79,
                        "name": "G5",
                        "ticks": 21024,
                        "time": 109.5,
                        "velocity": 0.4015748031496063
                    },
                    {
                        "duration": 0.125,
                        "durationTicks": 24,
                        "midi": 67,
                        "name": "G4",
                        "ticks": 21024,
                        "time": 109.5,
                        "velocity": 0.4015748031496063
                    },
                    {
                        "duration": 0.125,
                        "durationTicks": 24,
                        "midi": 77,
                        "name": "F5",
                        "ticks": 21048,
                        "time": 109.625,
                        "velocity": 0.4015748031496063
                    },
                    {
                        "duration": 0.125,
                        "durationTicks": 24,
                        "midi": 65,
                        "name": "F4",
                        "ticks": 21048,
                        "time": 109.625,
                        "velocity": 0.4015748031496063
                    },
                    {
                        "duration": 0.125,
                        "durationTicks": 24,
                        "midi": 67,
                        "name": "G4",
                        "ticks": 21072,
                        "time": 109.75,
                        "velocity": 0.4015748031496063
                    },
                    {
                        "duration": 0.125,
                        "durationTicks": 24,
                        "midi": 79,
                        "name": "G5",
                        "ticks": 21072,
                        "time": 109.75,
                        "velocity": 0.4015748031496063
                    },
                    {
                        "duration": 0.125,
                        "durationTicks": 24,
                        "midi": 65,
                        "name": "F4",
                        "ticks": 21096,
                        "time": 109.875,
                        "velocity": 0.4015748031496063
                    },
                    {
                        "duration": 0.125,
                        "durationTicks": 24,
                        "midi": 77,
                        "name": "F5",
                        "ticks": 21096,
                        "time": 109.875,
                        "velocity": 0.4015748031496063
                    },
                    {
                        "duration": 0.125,
                        "durationTicks": 24,
                        "midi": 79,
                        "name": "G5",
                        "ticks": 21120,
                        "time": 110,
                        "velocity": 0.4015748031496063
                    },
                    {
                        "duration": 0.125,
                        "durationTicks": 24,
                        "midi": 67,
                        "name": "G4",
                        "ticks": 21120,
                        "time": 110,
                        "velocity": 0.4015748031496063
                    },
                    {
                        "duration": 0.125,
                        "durationTicks": 24,
                        "midi": 79,
                        "name": "G5",
                        "ticks": 21168,
                        "time": 110.25,
                        "velocity": 0.4015748031496063
                    },
                    {
                        "duration": 0.125,
                        "durationTicks": 24,
                        "midi": 67,
                        "name": "G4",
                        "ticks": 21168,
                        "time": 110.25,
                        "velocity": 0.4015748031496063
                    },
                    {
                        "duration": 0.125,
                        "durationTicks": 24,
                        "midi": 79,
                        "name": "G5",
                        "ticks": 21216,
                        "time": 110.5,
                        "velocity": 0.4015748031496063
                    },
                    {
                        "duration": 0.125,
                        "durationTicks": 24,
                        "midi": 67,
                        "name": "G4",
                        "ticks": 21216,
                        "time": 110.5,
                        "velocity": 0.4015748031496063
                    },
                    {
                        "duration": 0.125,
                        "durationTicks": 24,
                        "midi": 79,
                        "name": "G5",
                        "ticks": 21264,
                        "time": 110.75,
                        "velocity": 0.4015748031496063
                    },
                    {
                        "duration": 0.125,
                        "durationTicks": 24,
                        "midi": 67,
                        "name": "G4",
                        "ticks": 21264,
                        "time": 110.75,
                        "velocity": 0.4015748031496063
                    },
                    {
                        "duration": 0.125,
                        "durationTicks": 24,
                        "midi": 67,
                        "name": "G4",
                        "ticks": 21312,
                        "time": 111,
                        "velocity": 0.4015748031496063
                    },
                    {
                        "duration": 0.125,
                        "durationTicks": 24,
                        "midi": 79,
                        "name": "G5",
                        "ticks": 21312,
                        "time": 111,
                        "velocity": 0.4015748031496063
                    },
                    {
                        "duration": 0.125,
                        "durationTicks": 24,
                        "midi": 91,
                        "name": "G6",
                        "ticks": 21600,
                        "time": 112.5,
                        "velocity": 0.4015748031496063
                    },
                    {
                        "duration": 0.125,
                        "durationTicks": 24,
                        "midi": 79,
                        "name": "G5",
                        "ticks": 21600,
                        "time": 112.5,
                        "velocity": 0.4015748031496063
                    },
                    {
                        "duration": 0.125,
                        "durationTicks": 24,
                        "midi": 89,
                        "name": "F6",
                        "ticks": 21624,
                        "time": 112.625,
                        "velocity": 0.4015748031496063
                    },
                    {
                        "duration": 0.125,
                        "durationTicks": 24,
                        "midi": 77,
                        "name": "F5",
                        "ticks": 21624,
                        "time": 112.625,
                        "velocity": 0.4015748031496063
                    },
                    {
                        "duration": 0.125,
                        "durationTicks": 24,
                        "midi": 79,
                        "name": "G5",
                        "ticks": 21648,
                        "time": 112.75,
                        "velocity": 0.4015748031496063
                    },
                    {
                        "duration": 0.125,
                        "durationTicks": 24,
                        "midi": 91,
                        "name": "G6",
                        "ticks": 21648,
                        "time": 112.75,
                        "velocity": 0.4015748031496063
                    },
                    {
                        "duration": 0.25,
                        "durationTicks": 48,
                        "midi": 89,
                        "name": "F6",
                        "ticks": 21672,
                        "time": 112.875,
                        "velocity": 0.4015748031496063
                    },
                    {
                        "duration": 0.25,
                        "durationTicks": 48,
                        "midi": 77,
                        "name": "F5",
                        "ticks": 21672,
                        "time": 112.875,
                        "velocity": 0.4015748031496063
                    },
                    {
                        "duration": 0.125,
                        "durationTicks": 24,
                        "midi": 82,
                        "name": "A#5",
                        "ticks": 21720,
                        "time": 113.125,
                        "velocity": 0.4015748031496063
                    },
                    {
                        "duration": 0.125,
                        "durationTicks": 24,
                        "midi": 94,
                        "name": "A#6",
                        "ticks": 21720,
                        "time": 113.125,
                        "velocity": 0.4015748031496063
                    },
                    {
                        "duration": 0.125,
                        "durationTicks": 24,
                        "midi": 82,
                        "name": "A#5",
                        "ticks": 21744,
                        "time": 113.25,
                        "velocity": 0.4015748031496063
                    },
                    {
                        "duration": 0.125,
                        "durationTicks": 24,
                        "midi": 94,
                        "name": "A#6",
                        "ticks": 21744,
                        "time": 113.25,
                        "velocity": 0.4015748031496063
                    },
                    {
                        "duration": 0.125,
                        "durationTicks": 24,
                        "midi": 82,
                        "name": "A#5",
                        "ticks": 21768,
                        "time": 113.375,
                        "velocity": 0.4015748031496063
                    },
                    {
                        "duration": 0.125,
                        "durationTicks": 24,
                        "midi": 94,
                        "name": "A#6",
                        "ticks": 21768,
                        "time": 113.375,
                        "velocity": 0.4015748031496063
                    },
                    {
                        "duration": 0.125,
                        "durationTicks": 24,
                        "midi": 82,
                        "name": "A#5",
                        "ticks": 21792,
                        "time": 113.5,
                        "velocity": 0.4015748031496063
                    },
                    {
                        "duration": 0.125,
                        "durationTicks": 24,
                        "midi": 94,
                        "name": "A#6",
                        "ticks": 21792,
                        "time": 113.5,
                        "velocity": 0.4015748031496063
                    },
                    {
                        "duration": 0.125,
                        "durationTicks": 24,
                        "midi": 82,
                        "name": "A#5",
                        "ticks": 21816,
                        "time": 113.625,
                        "velocity": 0.4015748031496063
                    },
                    {
                        "duration": 0.125,
                        "durationTicks": 24,
                        "midi": 94,
                        "name": "A#6",
                        "ticks": 21816,
                        "time": 113.625,
                        "velocity": 0.4015748031496063
                    },
                    {
                        "duration": 0.125,
                        "durationTicks": 24,
                        "midi": 82,
                        "name": "A#5",
                        "ticks": 21840,
                        "time": 113.75,
                        "velocity": 0.4015748031496063
                    },
                    {
                        "duration": 0.125,
                        "durationTicks": 24,
                        "midi": 94,
                        "name": "A#6",
                        "ticks": 21840,
                        "time": 113.75,
                        "velocity": 0.4015748031496063
                    },
                    {
                        "duration": 0.125,
                        "durationTicks": 24,
                        "midi": 74,
                        "name": "D5",
                        "ticks": 21864,
                        "time": 113.875,
                        "velocity": 0.4015748031496063
                    },
                    {
                        "duration": 0.125,
                        "durationTicks": 24,
                        "midi": 86,
                        "name": "D6",
                        "ticks": 21864,
                        "time": 113.875,
                        "velocity": 0.4015748031496063
                    },
                    {
                        "duration": 0.125,
                        "durationTicks": 24,
                        "midi": 89,
                        "name": "F6",
                        "ticks": 21888,
                        "time": 114,
                        "velocity": 0.4015748031496063
                    },
                    {
                        "duration": 0.125,
                        "durationTicks": 24,
                        "midi": 77,
                        "name": "F5",
                        "ticks": 21888,
                        "time": 114,
                        "velocity": 0.4015748031496063
                    },
                    {
                        "duration": 0.125,
                        "durationTicks": 24,
                        "midi": 89,
                        "name": "F6",
                        "ticks": 21936,
                        "time": 114.25,
                        "velocity": 0.4015748031496063
                    },
                    {
                        "duration": 0.125,
                        "durationTicks": 24,
                        "midi": 77,
                        "name": "F5",
                        "ticks": 21936,
                        "time": 114.25,
                        "velocity": 0.4015748031496063
                    },
                    {
                        "duration": 0.125,
                        "durationTicks": 24,
                        "midi": 77,
                        "name": "F5",
                        "ticks": 21984,
                        "time": 114.5,
                        "velocity": 0.4015748031496063
                    },
                    {
                        "duration": 0.125,
                        "durationTicks": 24,
                        "midi": 89,
                        "name": "F6",
                        "ticks": 21984,
                        "time": 114.5,
                        "velocity": 0.4015748031496063
                    },
                    {
                        "duration": 0.125,
                        "durationTicks": 24,
                        "midi": 74,
                        "name": "D5",
                        "ticks": 22008,
                        "time": 114.625,
                        "velocity": 0.4015748031496063
                    },
                    {
                        "duration": 0.125,
                        "durationTicks": 24,
                        "midi": 86,
                        "name": "D6",
                        "ticks": 22008,
                        "time": 114.625,
                        "velocity": 0.4015748031496063
                    },
                    {
                        "duration": 0.125,
                        "durationTicks": 24,
                        "midi": 81,
                        "name": "A5",
                        "ticks": 22032,
                        "time": 114.75,
                        "velocity": 0.4015748031496063
                    },
                    {
                        "duration": 0.125,
                        "durationTicks": 24,
                        "midi": 93,
                        "name": "A6",
                        "ticks": 22032,
                        "time": 114.75,
                        "velocity": 0.4015748031496063
                    },
                    {
                        "duration": 0.25,
                        "durationTicks": 48,
                        "midi": 94,
                        "name": "A#6",
                        "ticks": 22056,
                        "time": 114.875,
                        "velocity": 0.4015748031496063
                    },
                    {
                        "duration": 0.25,
                        "durationTicks": 48,
                        "midi": 82,
                        "name": "A#5",
                        "ticks": 22056,
                        "time": 114.875,
                        "velocity": 0.4015748031496063
                    },
                    {
                        "duration": 0.125,
                        "durationTicks": 24,
                        "midi": 82,
                        "name": "A#5",
                        "ticks": 22104,
                        "time": 115.125,
                        "velocity": 0.4015748031496063
                    },
                    {
                        "duration": 0.125,
                        "durationTicks": 24,
                        "midi": 94,
                        "name": "A#6",
                        "ticks": 22104,
                        "time": 115.125,
                        "velocity": 0.4015748031496063
                    },
                    {
                        "duration": 0.125,
                        "durationTicks": 24,
                        "midi": 82,
                        "name": "A#5",
                        "ticks": 22128,
                        "time": 115.25,
                        "velocity": 0.4015748031496063
                    },
                    {
                        "duration": 0.125,
                        "durationTicks": 24,
                        "midi": 94,
                        "name": "A#6",
                        "ticks": 22128,
                        "time": 115.25,
                        "velocity": 0.4015748031496063
                    },
                    {
                        "duration": 0.125,
                        "durationTicks": 24,
                        "midi": 82,
                        "name": "A#5",
                        "ticks": 22152,
                        "time": 115.375,
                        "velocity": 0.4015748031496063
                    },
                    {
                        "duration": 0.125,
                        "durationTicks": 24,
                        "midi": 94,
                        "name": "A#6",
                        "ticks": 22152,
                        "time": 115.375,
                        "velocity": 0.4015748031496063
                    },
                    {
                        "duration": 0.125,
                        "durationTicks": 24,
                        "midi": 82,
                        "name": "A#5",
                        "ticks": 22176,
                        "time": 115.5,
                        "velocity": 0.4015748031496063
                    },
                    {
                        "duration": 0.125,
                        "durationTicks": 24,
                        "midi": 94,
                        "name": "A#6",
                        "ticks": 22176,
                        "time": 115.5,
                        "velocity": 0.4015748031496063
                    },
                    {
                        "duration": 0.375,
                        "durationTicks": 72,
                        "midi": 89,
                        "name": "F6",
                        "ticks": 22200,
                        "time": 115.625,
                        "velocity": 0.4015748031496063
                    },
                    {
                        "duration": 0.375,
                        "durationTicks": 72,
                        "midi": 77,
                        "name": "F5",
                        "ticks": 22200,
                        "time": 115.625,
                        "velocity": 0.4015748031496063
                    },
                    {
                        "duration": 0.125,
                        "durationTicks": 24,
                        "midi": 79,
                        "name": "G5",
                        "ticks": 22368,
                        "time": 116.5,
                        "velocity": 0.4015748031496063
                    },
                    {
                        "duration": 0.125,
                        "durationTicks": 24,
                        "midi": 91,
                        "name": "G6",
                        "ticks": 22368,
                        "time": 116.5,
                        "velocity": 0.4015748031496063
                    },
                    {
                        "duration": 0.125,
                        "durationTicks": 24,
                        "midi": 77,
                        "name": "F5",
                        "ticks": 22392,
                        "time": 116.625,
                        "velocity": 0.4015748031496063
                    },
                    {
                        "duration": 0.125,
                        "durationTicks": 24,
                        "midi": 89,
                        "name": "F6",
                        "ticks": 22392,
                        "time": 116.625,
                        "velocity": 0.4015748031496063
                    },
                    {
                        "duration": 0.125,
                        "durationTicks": 24,
                        "midi": 79,
                        "name": "G5",
                        "ticks": 22416,
                        "time": 116.75,
                        "velocity": 0.4015748031496063
                    },
                    {
                        "duration": 0.125,
                        "durationTicks": 24,
                        "midi": 91,
                        "name": "G6",
                        "ticks": 22416,
                        "time": 116.75,
                        "velocity": 0.4015748031496063
                    },
                    {
                        "duration": 0.25,
                        "durationTicks": 48,
                        "midi": 89,
                        "name": "F6",
                        "ticks": 22440,
                        "time": 116.875,
                        "velocity": 0.4015748031496063
                    },
                    {
                        "duration": 0.25,
                        "durationTicks": 48,
                        "midi": 77,
                        "name": "F5",
                        "ticks": 22440,
                        "time": 116.875,
                        "velocity": 0.4015748031496063
                    },
                    {
                        "duration": 0.125,
                        "durationTicks": 24,
                        "midi": 74,
                        "name": "D5",
                        "ticks": 22488,
                        "time": 117.125,
                        "velocity": 0.4015748031496063
                    },
                    {
                        "duration": 0.125,
                        "durationTicks": 24,
                        "midi": 70,
                        "name": "A#4",
                        "ticks": 22488,
                        "time": 117.125,
                        "velocity": 0.4015748031496063
                    },
                    {
                        "duration": 0.125,
                        "durationTicks": 24,
                        "midi": 82,
                        "name": "A#5",
                        "ticks": 22488,
                        "time": 117.125,
                        "velocity": 0.4015748031496063
                    },
                    {
                        "duration": 0.125,
                        "durationTicks": 24,
                        "midi": 74,
                        "name": "D5",
                        "ticks": 22512,
                        "time": 117.25,
                        "velocity": 0.4015748031496063
                    },
                    {
                        "duration": 0.125,
                        "durationTicks": 24,
                        "midi": 70,
                        "name": "A#4",
                        "ticks": 22512,
                        "time": 117.25,
                        "velocity": 0.4015748031496063
                    },
                    {
                        "duration": 0.125,
                        "durationTicks": 24,
                        "midi": 82,
                        "name": "A#5",
                        "ticks": 22512,
                        "time": 117.25,
                        "velocity": 0.4015748031496063
                    },
                    {
                        "duration": 0.125,
                        "durationTicks": 24,
                        "midi": 74,
                        "name": "D5",
                        "ticks": 22536,
                        "time": 117.375,
                        "velocity": 0.4015748031496063
                    },
                    {
                        "duration": 0.125,
                        "durationTicks": 24,
                        "midi": 70,
                        "name": "A#4",
                        "ticks": 22536,
                        "time": 117.375,
                        "velocity": 0.4015748031496063
                    },
                    {
                        "duration": 0.125,
                        "durationTicks": 24,
                        "midi": 82,
                        "name": "A#5",
                        "ticks": 22536,
                        "time": 117.375,
                        "velocity": 0.4015748031496063
                    },
                    {
                        "duration": 0.125,
                        "durationTicks": 24,
                        "midi": 74,
                        "name": "D5",
                        "ticks": 22560,
                        "time": 117.5,
                        "velocity": 0.4015748031496063
                    },
                    {
                        "duration": 0.125,
                        "durationTicks": 24,
                        "midi": 70,
                        "name": "A#4",
                        "ticks": 22560,
                        "time": 117.5,
                        "velocity": 0.4015748031496063
                    },
                    {
                        "duration": 0.125,
                        "durationTicks": 24,
                        "midi": 82,
                        "name": "A#5",
                        "ticks": 22560,
                        "time": 117.5,
                        "velocity": 0.4015748031496063
                    },
                    {
                        "duration": 0.125,
                        "durationTicks": 24,
                        "midi": 74,
                        "name": "D5",
                        "ticks": 22584,
                        "time": 117.625,
                        "velocity": 0.4015748031496063
                    },
                    {
                        "duration": 0.125,
                        "durationTicks": 24,
                        "midi": 70,
                        "name": "A#4",
                        "ticks": 22584,
                        "time": 117.625,
                        "velocity": 0.4015748031496063
                    },
                    {
                        "duration": 0.125,
                        "durationTicks": 24,
                        "midi": 82,
                        "name": "A#5",
                        "ticks": 22584,
                        "time": 117.625,
                        "velocity": 0.4015748031496063
                    },
                    {
                        "duration": 0.125,
                        "durationTicks": 24,
                        "midi": 74,
                        "name": "D5",
                        "ticks": 22608,
                        "time": 117.75,
                        "velocity": 0.4015748031496063
                    },
                    {
                        "duration": 0.125,
                        "durationTicks": 24,
                        "midi": 70,
                        "name": "A#4",
                        "ticks": 22608,
                        "time": 117.75,
                        "velocity": 0.4015748031496063
                    },
                    {
                        "duration": 0.125,
                        "durationTicks": 24,
                        "midi": 82,
                        "name": "A#5",
                        "ticks": 22608,
                        "time": 117.75,
                        "velocity": 0.4015748031496063
                    },
                    {
                        "duration": 0.125,
                        "durationTicks": 24,
                        "midi": 82,
                        "name": "A#5",
                        "ticks": 22632,
                        "time": 117.875,
                        "velocity": 0.4015748031496063
                    },
                    {
                        "duration": 0.125,
                        "durationTicks": 24,
                        "midi": 94,
                        "name": "A#6",
                        "ticks": 22632,
                        "time": 117.875,
                        "velocity": 0.4015748031496063
                    },
                    {
                        "duration": 0.375,
                        "durationTicks": 72,
                        "midi": 89,
                        "name": "F6",
                        "ticks": 22656,
                        "time": 118,
                        "velocity": 0.4015748031496063
                    },
                    {
                        "duration": 0.375,
                        "durationTicks": 72,
                        "midi": 77,
                        "name": "F5",
                        "ticks": 22656,
                        "time": 118,
                        "velocity": 0.4015748031496063
                    },
                    {
                        "duration": 0.125,
                        "durationTicks": 24,
                        "midi": 77,
                        "name": "F5",
                        "ticks": 22728,
                        "time": 118.375,
                        "velocity": 0.4015748031496063
                    },
                    {
                        "duration": 0.125,
                        "durationTicks": 24,
                        "midi": 89,
                        "name": "F6",
                        "ticks": 22728,
                        "time": 118.375,
                        "velocity": 0.4015748031496063
                    },
                    {
                        "duration": 0.125,
                        "durationTicks": 24,
                        "midi": 77,
                        "name": "F5",
                        "ticks": 22752,
                        "time": 118.5,
                        "velocity": 0.4015748031496063
                    },
                    {
                        "duration": 0.125,
                        "durationTicks": 24,
                        "midi": 89,
                        "name": "F6",
                        "ticks": 22752,
                        "time": 118.5,
                        "velocity": 0.4015748031496063
                    },
                    {
                        "duration": 0.125,
                        "durationTicks": 24,
                        "midi": 84,
                        "name": "C6",
                        "ticks": 22776,
                        "time": 118.625,
                        "velocity": 0.4015748031496063
                    },
                    {
                        "duration": 0.125,
                        "durationTicks": 24,
                        "midi": 96,
                        "name": "C7",
                        "ticks": 22776,
                        "time": 118.625,
                        "velocity": 0.4015748031496063
                    },
                    {
                        "duration": 0.125,
                        "durationTicks": 24,
                        "midi": 81,
                        "name": "A5",
                        "ticks": 22800,
                        "time": 118.75,
                        "velocity": 0.4015748031496063
                    },
                    {
                        "duration": 0.125,
                        "durationTicks": 24,
                        "midi": 93,
                        "name": "A6",
                        "ticks": 22800,
                        "time": 118.75,
                        "velocity": 0.4015748031496063
                    },
                    {
                        "duration": 0.125,
                        "durationTicks": 24,
                        "midi": 94,
                        "name": "A#6",
                        "ticks": 22824,
                        "time": 118.875,
                        "velocity": 0.4015748031496063
                    },
                    {
                        "duration": 0.125,
                        "durationTicks": 24,
                        "midi": 82,
                        "name": "A#5",
                        "ticks": 22824,
                        "time": 118.875,
                        "velocity": 0.4015748031496063
                    },
                    {
                        "duration": 0.125,
                        "durationTicks": 24,
                        "midi": 74,
                        "name": "D5",
                        "ticks": 22872,
                        "time": 119.125,
                        "velocity": 0.4015748031496063
                    },
                    {
                        "duration": 0.125,
                        "durationTicks": 24,
                        "midi": 70,
                        "name": "A#4",
                        "ticks": 22872,
                        "time": 119.125,
                        "velocity": 0.4015748031496063
                    },
                    {
                        "duration": 0.125,
                        "durationTicks": 24,
                        "midi": 82,
                        "name": "A#5",
                        "ticks": 22872,
                        "time": 119.125,
                        "velocity": 0.4015748031496063
                    },
                    {
                        "duration": 0.125,
                        "durationTicks": 24,
                        "midi": 74,
                        "name": "D5",
                        "ticks": 22896,
                        "time": 119.25,
                        "velocity": 0.4015748031496063
                    },
                    {
                        "duration": 0.125,
                        "durationTicks": 24,
                        "midi": 70,
                        "name": "A#4",
                        "ticks": 22896,
                        "time": 119.25,
                        "velocity": 0.4015748031496063
                    },
                    {
                        "duration": 0.125,
                        "durationTicks": 24,
                        "midi": 82,
                        "name": "A#5",
                        "ticks": 22896,
                        "time": 119.25,
                        "velocity": 0.4015748031496063
                    },
                    {
                        "duration": 0.125,
                        "durationTicks": 24,
                        "midi": 74,
                        "name": "D5",
                        "ticks": 22920,
                        "time": 119.375,
                        "velocity": 0.4015748031496063
                    },
                    {
                        "duration": 0.125,
                        "durationTicks": 24,
                        "midi": 69,
                        "name": "A4",
                        "ticks": 22920,
                        "time": 119.375,
                        "velocity": 0.4015748031496063
                    },
                    {
                        "duration": 0.125,
                        "durationTicks": 24,
                        "midi": 81,
                        "name": "A5",
                        "ticks": 22920,
                        "time": 119.375,
                        "velocity": 0.4015748031496063
                    },
                    {
                        "duration": 0.25,
                        "durationTicks": 48,
                        "midi": 74,
                        "name": "D5",
                        "ticks": 22944,
                        "time": 119.5,
                        "velocity": 0.4015748031496063
                    },
                    {
                        "duration": 0.25,
                        "durationTicks": 48,
                        "midi": 82,
                        "name": "A#5",
                        "ticks": 22944,
                        "time": 119.5,
                        "velocity": 0.4015748031496063
                    },
                    {
                        "duration": 0.25,
                        "durationTicks": 48,
                        "midi": 70,
                        "name": "A#4",
                        "ticks": 22944,
                        "time": 119.5,
                        "velocity": 0.4015748031496063
                    },
                    {
                        "duration": 0.25,
                        "durationTicks": 48,
                        "midi": 77,
                        "name": "F5",
                        "ticks": 22992,
                        "time": 119.75,
                        "velocity": 0.4015748031496063
                    },
                    {
                        "duration": 0.25,
                        "durationTicks": 48,
                        "midi": 65,
                        "name": "F4",
                        "ticks": 22992,
                        "time": 119.75,
                        "velocity": 0.4015748031496063
                    },
                    {
                        "duration": 0.125,
                        "durationTicks": 24,
                        "midi": 91,
                        "name": "G6",
                        "ticks": 23136,
                        "time": 120.5,
                        "velocity": 0.4015748031496063
                    },
                    {
                        "duration": 0.125,
                        "durationTicks": 24,
                        "midi": 79,
                        "name": "G5",
                        "ticks": 23136,
                        "time": 120.5,
                        "velocity": 0.4015748031496063
                    },
                    {
                        "duration": 0.125,
                        "durationTicks": 24,
                        "midi": 89,
                        "name": "F6",
                        "ticks": 23160,
                        "time": 120.625,
                        "velocity": 0.4015748031496063
                    },
                    {
                        "duration": 0.125,
                        "durationTicks": 24,
                        "midi": 77,
                        "name": "F5",
                        "ticks": 23160,
                        "time": 120.625,
                        "velocity": 0.4015748031496063
                    },
                    {
                        "duration": 0.125,
                        "durationTicks": 24,
                        "midi": 79,
                        "name": "G5",
                        "ticks": 23184,
                        "time": 120.75,
                        "velocity": 0.4015748031496063
                    },
                    {
                        "duration": 0.125,
                        "durationTicks": 24,
                        "midi": 91,
                        "name": "G6",
                        "ticks": 23184,
                        "time": 120.75,
                        "velocity": 0.4015748031496063
                    },
                    {
                        "duration": 0.25,
                        "durationTicks": 48,
                        "midi": 89,
                        "name": "F6",
                        "ticks": 23208,
                        "time": 120.875,
                        "velocity": 0.4015748031496063
                    },
                    {
                        "duration": 0.25,
                        "durationTicks": 48,
                        "midi": 77,
                        "name": "F5",
                        "ticks": 23208,
                        "time": 120.875,
                        "velocity": 0.4015748031496063
                    },
                    {
                        "duration": 0.125,
                        "durationTicks": 24,
                        "midi": 82,
                        "name": "A#5",
                        "ticks": 23256,
                        "time": 121.125,
                        "velocity": 0.4015748031496063
                    },
                    {
                        "duration": 0.125,
                        "durationTicks": 24,
                        "midi": 94,
                        "name": "A#6",
                        "ticks": 23256,
                        "time": 121.125,
                        "velocity": 0.4015748031496063
                    },
                    {
                        "duration": 0.125,
                        "durationTicks": 24,
                        "midi": 82,
                        "name": "A#5",
                        "ticks": 23280,
                        "time": 121.25,
                        "velocity": 0.4015748031496063
                    },
                    {
                        "duration": 0.125,
                        "durationTicks": 24,
                        "midi": 94,
                        "name": "A#6",
                        "ticks": 23280,
                        "time": 121.25,
                        "velocity": 0.4015748031496063
                    },
                    {
                        "duration": 0.125,
                        "durationTicks": 24,
                        "midi": 82,
                        "name": "A#5",
                        "ticks": 23304,
                        "time": 121.375,
                        "velocity": 0.4015748031496063
                    },
                    {
                        "duration": 0.125,
                        "durationTicks": 24,
                        "midi": 94,
                        "name": "A#6",
                        "ticks": 23304,
                        "time": 121.375,
                        "velocity": 0.4015748031496063
                    },
                    {
                        "duration": 0.125,
                        "durationTicks": 24,
                        "midi": 82,
                        "name": "A#5",
                        "ticks": 23328,
                        "time": 121.5,
                        "velocity": 0.4015748031496063
                    },
                    {
                        "duration": 0.125,
                        "durationTicks": 24,
                        "midi": 94,
                        "name": "A#6",
                        "ticks": 23328,
                        "time": 121.5,
                        "velocity": 0.4015748031496063
                    },
                    {
                        "duration": 0.125,
                        "durationTicks": 24,
                        "midi": 82,
                        "name": "A#5",
                        "ticks": 23352,
                        "time": 121.625,
                        "velocity": 0.4015748031496063
                    },
                    {
                        "duration": 0.125,
                        "durationTicks": 24,
                        "midi": 94,
                        "name": "A#6",
                        "ticks": 23352,
                        "time": 121.625,
                        "velocity": 0.4015748031496063
                    },
                    {
                        "duration": 0.125,
                        "durationTicks": 24,
                        "midi": 82,
                        "name": "A#5",
                        "ticks": 23376,
                        "time": 121.75,
                        "velocity": 0.4015748031496063
                    },
                    {
                        "duration": 0.125,
                        "durationTicks": 24,
                        "midi": 94,
                        "name": "A#6",
                        "ticks": 23376,
                        "time": 121.75,
                        "velocity": 0.4015748031496063
                    },
                    {
                        "duration": 0.125,
                        "durationTicks": 24,
                        "midi": 74,
                        "name": "D5",
                        "ticks": 23400,
                        "time": 121.875,
                        "velocity": 0.4015748031496063
                    },
                    {
                        "duration": 0.125,
                        "durationTicks": 24,
                        "midi": 86,
                        "name": "D6",
                        "ticks": 23400,
                        "time": 121.875,
                        "velocity": 0.4015748031496063
                    },
                    {
                        "duration": 0.125,
                        "durationTicks": 24,
                        "midi": 89,
                        "name": "F6",
                        "ticks": 23424,
                        "time": 122,
                        "velocity": 0.4015748031496063
                    },
                    {
                        "duration": 0.125,
                        "durationTicks": 24,
                        "midi": 77,
                        "name": "F5",
                        "ticks": 23424,
                        "time": 122,
                        "velocity": 0.4015748031496063
                    },
                    {
                        "duration": 0.125,
                        "durationTicks": 24,
                        "midi": 89,
                        "name": "F6",
                        "ticks": 23472,
                        "time": 122.25,
                        "velocity": 0.4015748031496063
                    },
                    {
                        "duration": 0.125,
                        "durationTicks": 24,
                        "midi": 77,
                        "name": "F5",
                        "ticks": 23472,
                        "time": 122.25,
                        "velocity": 0.4015748031496063
                    },
                    {
                        "duration": 0.125,
                        "durationTicks": 24,
                        "midi": 77,
                        "name": "F5",
                        "ticks": 23520,
                        "time": 122.5,
                        "velocity": 0.4015748031496063
                    },
                    {
                        "duration": 0.125,
                        "durationTicks": 24,
                        "midi": 89,
                        "name": "F6",
                        "ticks": 23520,
                        "time": 122.5,
                        "velocity": 0.4015748031496063
                    },
                    {
                        "duration": 0.125,
                        "durationTicks": 24,
                        "midi": 74,
                        "name": "D5",
                        "ticks": 23544,
                        "time": 122.625,
                        "velocity": 0.4015748031496063
                    },
                    {
                        "duration": 0.125,
                        "durationTicks": 24,
                        "midi": 86,
                        "name": "D6",
                        "ticks": 23544,
                        "time": 122.625,
                        "velocity": 0.4015748031496063
                    },
                    {
                        "duration": 0.125,
                        "durationTicks": 24,
                        "midi": 81,
                        "name": "A5",
                        "ticks": 23568,
                        "time": 122.75,
                        "velocity": 0.4015748031496063
                    },
                    {
                        "duration": 0.125,
                        "durationTicks": 24,
                        "midi": 93,
                        "name": "A6",
                        "ticks": 23568,
                        "time": 122.75,
                        "velocity": 0.4015748031496063
                    },
                    {
                        "duration": 0.25,
                        "durationTicks": 48,
                        "midi": 94,
                        "name": "A#6",
                        "ticks": 23592,
                        "time": 122.875,
                        "velocity": 0.4015748031496063
                    },
                    {
                        "duration": 0.25,
                        "durationTicks": 48,
                        "midi": 82,
                        "name": "A#5",
                        "ticks": 23592,
                        "time": 122.875,
                        "velocity": 0.4015748031496063
                    },
                    {
                        "duration": 0.125,
                        "durationTicks": 24,
                        "midi": 82,
                        "name": "A#5",
                        "ticks": 23640,
                        "time": 123.125,
                        "velocity": 0.4015748031496063
                    },
                    {
                        "duration": 0.125,
                        "durationTicks": 24,
                        "midi": 94,
                        "name": "A#6",
                        "ticks": 23640,
                        "time": 123.125,
                        "velocity": 0.4015748031496063
                    },
                    {
                        "duration": 0.125,
                        "durationTicks": 24,
                        "midi": 82,
                        "name": "A#5",
                        "ticks": 23664,
                        "time": 123.25,
                        "velocity": 0.4015748031496063
                    },
                    {
                        "duration": 0.125,
                        "durationTicks": 24,
                        "midi": 94,
                        "name": "A#6",
                        "ticks": 23664,
                        "time": 123.25,
                        "velocity": 0.4015748031496063
                    },
                    {
                        "duration": 0.125,
                        "durationTicks": 24,
                        "midi": 82,
                        "name": "A#5",
                        "ticks": 23688,
                        "time": 123.375,
                        "velocity": 0.4015748031496063
                    },
                    {
                        "duration": 0.125,
                        "durationTicks": 24,
                        "midi": 94,
                        "name": "A#6",
                        "ticks": 23688,
                        "time": 123.375,
                        "velocity": 0.4015748031496063
                    },
                    {
                        "duration": 0.125,
                        "durationTicks": 24,
                        "midi": 82,
                        "name": "A#5",
                        "ticks": 23712,
                        "time": 123.5,
                        "velocity": 0.4015748031496063
                    },
                    {
                        "duration": 0.125,
                        "durationTicks": 24,
                        "midi": 94,
                        "name": "A#6",
                        "ticks": 23712,
                        "time": 123.5,
                        "velocity": 0.4015748031496063
                    },
                    {
                        "duration": 0.375,
                        "durationTicks": 72,
                        "midi": 89,
                        "name": "F6",
                        "ticks": 23736,
                        "time": 123.625,
                        "velocity": 0.4015748031496063
                    },
                    {
                        "duration": 0.375,
                        "durationTicks": 72,
                        "midi": 77,
                        "name": "F5",
                        "ticks": 23736,
                        "time": 123.625,
                        "velocity": 0.4015748031496063
                    },
                    {
                        "duration": 0.125,
                        "durationTicks": 24,
                        "midi": 79,
                        "name": "G5",
                        "ticks": 23904,
                        "time": 124.5,
                        "velocity": 0.4015748031496063
                    },
                    {
                        "duration": 0.125,
                        "durationTicks": 24,
                        "midi": 91,
                        "name": "G6",
                        "ticks": 23904,
                        "time": 124.5,
                        "velocity": 0.4015748031496063
                    },
                    {
                        "duration": 0.125,
                        "durationTicks": 24,
                        "midi": 77,
                        "name": "F5",
                        "ticks": 23928,
                        "time": 124.625,
                        "velocity": 0.4015748031496063
                    },
                    {
                        "duration": 0.125,
                        "durationTicks": 24,
                        "midi": 89,
                        "name": "F6",
                        "ticks": 23928,
                        "time": 124.625,
                        "velocity": 0.4015748031496063
                    },
                    {
                        "duration": 0.125,
                        "durationTicks": 24,
                        "midi": 79,
                        "name": "G5",
                        "ticks": 23952,
                        "time": 124.75,
                        "velocity": 0.4015748031496063
                    },
                    {
                        "duration": 0.125,
                        "durationTicks": 24,
                        "midi": 91,
                        "name": "G6",
                        "ticks": 23952,
                        "time": 124.75,
                        "velocity": 0.4015748031496063
                    },
                    {
                        "duration": 0.25,
                        "durationTicks": 48,
                        "midi": 89,
                        "name": "F6",
                        "ticks": 23976,
                        "time": 124.875,
                        "velocity": 0.4015748031496063
                    },
                    {
                        "duration": 0.25,
                        "durationTicks": 48,
                        "midi": 77,
                        "name": "F5",
                        "ticks": 23976,
                        "time": 124.875,
                        "velocity": 0.4015748031496063
                    },
                    {
                        "duration": 0.125,
                        "durationTicks": 24,
                        "midi": 74,
                        "name": "D5",
                        "ticks": 24024,
                        "time": 125.125,
                        "velocity": 0.4015748031496063
                    },
                    {
                        "duration": 0.125,
                        "durationTicks": 24,
                        "midi": 70,
                        "name": "A#4",
                        "ticks": 24024,
                        "time": 125.125,
                        "velocity": 0.4015748031496063
                    },
                    {
                        "duration": 0.125,
                        "durationTicks": 24,
                        "midi": 82,
                        "name": "A#5",
                        "ticks": 24024,
                        "time": 125.125,
                        "velocity": 0.4015748031496063
                    },
                    {
                        "duration": 0.125,
                        "durationTicks": 24,
                        "midi": 74,
                        "name": "D5",
                        "ticks": 24048,
                        "time": 125.25,
                        "velocity": 0.4015748031496063
                    },
                    {
                        "duration": 0.125,
                        "durationTicks": 24,
                        "midi": 70,
                        "name": "A#4",
                        "ticks": 24048,
                        "time": 125.25,
                        "velocity": 0.4015748031496063
                    },
                    {
                        "duration": 0.125,
                        "durationTicks": 24,
                        "midi": 82,
                        "name": "A#5",
                        "ticks": 24048,
                        "time": 125.25,
                        "velocity": 0.4015748031496063
                    },
                    {
                        "duration": 0.125,
                        "durationTicks": 24,
                        "midi": 74,
                        "name": "D5",
                        "ticks": 24072,
                        "time": 125.375,
                        "velocity": 0.4015748031496063
                    },
                    {
                        "duration": 0.125,
                        "durationTicks": 24,
                        "midi": 70,
                        "name": "A#4",
                        "ticks": 24072,
                        "time": 125.375,
                        "velocity": 0.4015748031496063
                    },
                    {
                        "duration": 0.125,
                        "durationTicks": 24,
                        "midi": 82,
                        "name": "A#5",
                        "ticks": 24072,
                        "time": 125.375,
                        "velocity": 0.4015748031496063
                    },
                    {
                        "duration": 0.125,
                        "durationTicks": 24,
                        "midi": 74,
                        "name": "D5",
                        "ticks": 24096,
                        "time": 125.5,
                        "velocity": 0.4015748031496063
                    },
                    {
                        "duration": 0.125,
                        "durationTicks": 24,
                        "midi": 70,
                        "name": "A#4",
                        "ticks": 24096,
                        "time": 125.5,
                        "velocity": 0.4015748031496063
                    },
                    {
                        "duration": 0.125,
                        "durationTicks": 24,
                        "midi": 82,
                        "name": "A#5",
                        "ticks": 24096,
                        "time": 125.5,
                        "velocity": 0.4015748031496063
                    },
                    {
                        "duration": 0.125,
                        "durationTicks": 24,
                        "midi": 74,
                        "name": "D5",
                        "ticks": 24120,
                        "time": 125.625,
                        "velocity": 0.4015748031496063
                    },
                    {
                        "duration": 0.125,
                        "durationTicks": 24,
                        "midi": 70,
                        "name": "A#4",
                        "ticks": 24120,
                        "time": 125.625,
                        "velocity": 0.4015748031496063
                    },
                    {
                        "duration": 0.125,
                        "durationTicks": 24,
                        "midi": 82,
                        "name": "A#5",
                        "ticks": 24120,
                        "time": 125.625,
                        "velocity": 0.4015748031496063
                    },
                    {
                        "duration": 0.125,
                        "durationTicks": 24,
                        "midi": 74,
                        "name": "D5",
                        "ticks": 24144,
                        "time": 125.75,
                        "velocity": 0.4015748031496063
                    },
                    {
                        "duration": 0.125,
                        "durationTicks": 24,
                        "midi": 70,
                        "name": "A#4",
                        "ticks": 24144,
                        "time": 125.75,
                        "velocity": 0.4015748031496063
                    },
                    {
                        "duration": 0.125,
                        "durationTicks": 24,
                        "midi": 82,
                        "name": "A#5",
                        "ticks": 24144,
                        "time": 125.75,
                        "velocity": 0.4015748031496063
                    },
                    {
                        "duration": 0.125,
                        "durationTicks": 24,
                        "midi": 82,
                        "name": "A#5",
                        "ticks": 24168,
                        "time": 125.875,
                        "velocity": 0.4015748031496063
                    },
                    {
                        "duration": 0.125,
                        "durationTicks": 24,
                        "midi": 94,
                        "name": "A#6",
                        "ticks": 24168,
                        "time": 125.875,
                        "velocity": 0.4015748031496063
                    },
                    {
                        "duration": 0.375,
                        "durationTicks": 72,
                        "midi": 89,
                        "name": "F6",
                        "ticks": 24192,
                        "time": 126,
                        "velocity": 0.4015748031496063
                    },
                    {
                        "duration": 0.375,
                        "durationTicks": 72,
                        "midi": 77,
                        "name": "F5",
                        "ticks": 24192,
                        "time": 126,
                        "velocity": 0.4015748031496063
                    },
                    {
                        "duration": 0.125,
                        "durationTicks": 24,
                        "midi": 77,
                        "name": "F5",
                        "ticks": 24264,
                        "time": 126.375,
                        "velocity": 0.4015748031496063
                    },
                    {
                        "duration": 0.125,
                        "durationTicks": 24,
                        "midi": 89,
                        "name": "F6",
                        "ticks": 24264,
                        "time": 126.375,
                        "velocity": 0.4015748031496063
                    },
                    {
                        "duration": 0.125,
                        "durationTicks": 24,
                        "midi": 77,
                        "name": "F5",
                        "ticks": 24288,
                        "time": 126.5,
                        "velocity": 0.4015748031496063
                    },
                    {
                        "duration": 0.125,
                        "durationTicks": 24,
                        "midi": 89,
                        "name": "F6",
                        "ticks": 24288,
                        "time": 126.5,
                        "velocity": 0.4015748031496063
                    },
                    {
                        "duration": 0.125,
                        "durationTicks": 24,
                        "midi": 84,
                        "name": "C6",
                        "ticks": 24312,
                        "time": 126.625,
                        "velocity": 0.4015748031496063
                    },
                    {
                        "duration": 0.125,
                        "durationTicks": 24,
                        "midi": 96,
                        "name": "C7",
                        "ticks": 24312,
                        "time": 126.625,
                        "velocity": 0.4015748031496063
                    },
                    {
                        "duration": 0.125,
                        "durationTicks": 24,
                        "midi": 81,
                        "name": "A5",
                        "ticks": 24336,
                        "time": 126.75,
                        "velocity": 0.4015748031496063
                    },
                    {
                        "duration": 0.125,
                        "durationTicks": 24,
                        "midi": 93,
                        "name": "A6",
                        "ticks": 24336,
                        "time": 126.75,
                        "velocity": 0.4015748031496063
                    },
                    {
                        "duration": 0.125,
                        "durationTicks": 24,
                        "midi": 94,
                        "name": "A#6",
                        "ticks": 24360,
                        "time": 126.875,
                        "velocity": 0.4015748031496063
                    },
                    {
                        "duration": 0.125,
                        "durationTicks": 24,
                        "midi": 82,
                        "name": "A#5",
                        "ticks": 24360,
                        "time": 126.875,
                        "velocity": 0.4015748031496063
                    },
                    {
                        "duration": 0.125,
                        "durationTicks": 24,
                        "midi": 74,
                        "name": "D5",
                        "ticks": 24408,
                        "time": 127.125,
                        "velocity": 0.4015748031496063
                    },
                    {
                        "duration": 0.125,
                        "durationTicks": 24,
                        "midi": 70,
                        "name": "A#4",
                        "ticks": 24408,
                        "time": 127.125,
                        "velocity": 0.4015748031496063
                    },
                    {
                        "duration": 0.125,
                        "durationTicks": 24,
                        "midi": 82,
                        "name": "A#5",
                        "ticks": 24408,
                        "time": 127.125,
                        "velocity": 0.4015748031496063
                    },
                    {
                        "duration": 0.125,
                        "durationTicks": 24,
                        "midi": 74,
                        "name": "D5",
                        "ticks": 24432,
                        "time": 127.25,
                        "velocity": 0.4015748031496063
                    },
                    {
                        "duration": 0.125,
                        "durationTicks": 24,
                        "midi": 70,
                        "name": "A#4",
                        "ticks": 24432,
                        "time": 127.25,
                        "velocity": 0.4015748031496063
                    },
                    {
                        "duration": 0.125,
                        "durationTicks": 24,
                        "midi": 82,
                        "name": "A#5",
                        "ticks": 24432,
                        "time": 127.25,
                        "velocity": 0.4015748031496063
                    },
                    {
                        "duration": 0.125,
                        "durationTicks": 24,
                        "midi": 74,
                        "name": "D5",
                        "ticks": 24456,
                        "time": 127.375,
                        "velocity": 0.4015748031496063
                    },
                    {
                        "duration": 0.125,
                        "durationTicks": 24,
                        "midi": 69,
                        "name": "A4",
                        "ticks": 24456,
                        "time": 127.375,
                        "velocity": 0.4015748031496063
                    },
                    {
                        "duration": 0.125,
                        "durationTicks": 24,
                        "midi": 81,
                        "name": "A5",
                        "ticks": 24456,
                        "time": 127.375,
                        "velocity": 0.4015748031496063
                    },
                    {
                        "duration": 0.25,
                        "durationTicks": 48,
                        "midi": 74,
                        "name": "D5",
                        "ticks": 24480,
                        "time": 127.5,
                        "velocity": 0.4015748031496063
                    },
                    {
                        "duration": 0.25,
                        "durationTicks": 48,
                        "midi": 82,
                        "name": "A#5",
                        "ticks": 24480,
                        "time": 127.5,
                        "velocity": 0.4015748031496063
                    },
                    {
                        "duration": 0.25,
                        "durationTicks": 48,
                        "midi": 70,
                        "name": "A#4",
                        "ticks": 24480,
                        "time": 127.5,
                        "velocity": 0.4015748031496063
                    },
                    {
                        "duration": 0.25,
                        "durationTicks": 48,
                        "midi": 77,
                        "name": "F5",
                        "ticks": 24528,
                        "time": 127.75,
                        "velocity": 0.4015748031496063
                    },
                    {
                        "duration": 0.25,
                        "durationTicks": 48,
                        "midi": 65,
                        "name": "F4",
                        "ticks": 24528,
                        "time": 127.75,
                        "velocity": 0.4015748031496063
                    },
                    {
                        "duration": 0.125,
                        "durationTicks": 24,
                        "midi": 84,
                        "name": "C6",
                        "ticks": 24672,
                        "time": 128.5,
                        "velocity": 0.4015748031496063
                    },
                    {
                        "duration": 0.125,
                        "durationTicks": 24,
                        "midi": 72,
                        "name": "C5",
                        "ticks": 24672,
                        "time": 128.5,
                        "velocity": 0.4015748031496063
                    },
                    {
                        "duration": 0.125,
                        "durationTicks": 24,
                        "midi": 86,
                        "name": "D6",
                        "ticks": 24696,
                        "time": 128.625,
                        "velocity": 0.4015748031496063
                    },
                    {
                        "duration": 0.125,
                        "durationTicks": 24,
                        "midi": 74,
                        "name": "D5",
                        "ticks": 24696,
                        "time": 128.625,
                        "velocity": 0.4015748031496063
                    },
                    {
                        "duration": 0.125,
                        "durationTicks": 24,
                        "midi": 84,
                        "name": "C6",
                        "ticks": 24720,
                        "time": 128.75,
                        "velocity": 0.4015748031496063
                    },
                    {
                        "duration": 0.125,
                        "durationTicks": 24,
                        "midi": 72,
                        "name": "C5",
                        "ticks": 24720,
                        "time": 128.75,
                        "velocity": 0.4015748031496063
                    },
                    {
                        "duration": 0.25,
                        "durationTicks": 48,
                        "midi": 89,
                        "name": "F6",
                        "ticks": 24744,
                        "time": 128.875,
                        "velocity": 0.4015748031496063
                    },
                    {
                        "duration": 0.25,
                        "durationTicks": 48,
                        "midi": 77,
                        "name": "F5",
                        "ticks": 24744,
                        "time": 128.875,
                        "velocity": 0.4015748031496063
                    },
                    {
                        "duration": 0.125,
                        "durationTicks": 24,
                        "midi": 89,
                        "name": "F6",
                        "ticks": 24792,
                        "time": 129.125,
                        "velocity": 0.4015748031496063
                    },
                    {
                        "duration": 0.125,
                        "durationTicks": 24,
                        "midi": 77,
                        "name": "F5",
                        "ticks": 24792,
                        "time": 129.125,
                        "velocity": 0.4015748031496063
                    },
                    {
                        "duration": 0.125,
                        "durationTicks": 24,
                        "midi": 94,
                        "name": "A#6",
                        "ticks": 24816,
                        "time": 129.25,
                        "velocity": 0.4015748031496063
                    },
                    {
                        "duration": 0.125,
                        "durationTicks": 24,
                        "midi": 82,
                        "name": "A#5",
                        "ticks": 24816,
                        "time": 129.25,
                        "velocity": 0.4015748031496063
                    },
                    {
                        "duration": 0.125,
                        "durationTicks": 24,
                        "midi": 89,
                        "name": "F6",
                        "ticks": 24840,
                        "time": 129.375,
                        "velocity": 0.4015748031496063
                    },
                    {
                        "duration": 0.125,
                        "durationTicks": 24,
                        "midi": 77,
                        "name": "F5",
                        "ticks": 24840,
                        "time": 129.375,
                        "velocity": 0.4015748031496063
                    },
                    {
                        "duration": 0.125,
                        "durationTicks": 24,
                        "midi": 86,
                        "name": "D6",
                        "ticks": 24864,
                        "time": 129.5,
                        "velocity": 0.4015748031496063
                    },
                    {
                        "duration": 0.125,
                        "durationTicks": 24,
                        "midi": 74,
                        "name": "D5",
                        "ticks": 24864,
                        "time": 129.5,
                        "velocity": 0.4015748031496063
                    },
                    {
                        "duration": 0.125,
                        "durationTicks": 24,
                        "midi": 89,
                        "name": "F6",
                        "ticks": 24888,
                        "time": 129.625,
                        "velocity": 0.4015748031496063
                    },
                    {
                        "duration": 0.125,
                        "durationTicks": 24,
                        "midi": 77,
                        "name": "F5",
                        "ticks": 24888,
                        "time": 129.625,
                        "velocity": 0.4015748031496063
                    },
                    {
                        "duration": 0.125,
                        "durationTicks": 24,
                        "midi": 89,
                        "name": "F6",
                        "ticks": 24912,
                        "time": 129.75,
                        "velocity": 0.4015748031496063
                    },
                    {
                        "duration": 0.125,
                        "durationTicks": 24,
                        "midi": 77,
                        "name": "F5",
                        "ticks": 24912,
                        "time": 129.75,
                        "velocity": 0.4015748031496063
                    },
                    {
                        "duration": 0.125,
                        "durationTicks": 24,
                        "midi": 86,
                        "name": "D6",
                        "ticks": 24936,
                        "time": 129.875,
                        "velocity": 0.4015748031496063
                    },
                    {
                        "duration": 0.125,
                        "durationTicks": 24,
                        "midi": 74,
                        "name": "D5",
                        "ticks": 24936,
                        "time": 129.875,
                        "velocity": 0.4015748031496063
                    },
                    {
                        "duration": 0.25,
                        "durationTicks": 48,
                        "midi": 77,
                        "name": "F5",
                        "ticks": 24960,
                        "time": 130,
                        "velocity": 0.4015748031496063
                    },
                    {
                        "duration": 0.25,
                        "durationTicks": 48,
                        "midi": 89,
                        "name": "F6",
                        "ticks": 24960,
                        "time": 130,
                        "velocity": 0.4015748031496063
                    },
                    {
                        "duration": 0.125,
                        "durationTicks": 24,
                        "midi": 86,
                        "name": "D6",
                        "ticks": 25032,
                        "time": 130.375,
                        "velocity": 0.4015748031496063
                    },
                    {
                        "duration": 0.125,
                        "durationTicks": 24,
                        "midi": 74,
                        "name": "D5",
                        "ticks": 25032,
                        "time": 130.375,
                        "velocity": 0.4015748031496063
                    },
                    {
                        "duration": 0.125,
                        "durationTicks": 24,
                        "midi": 89,
                        "name": "F6",
                        "ticks": 25056,
                        "time": 130.5,
                        "velocity": 0.4015748031496063
                    },
                    {
                        "duration": 0.125,
                        "durationTicks": 24,
                        "midi": 77,
                        "name": "F5",
                        "ticks": 25056,
                        "time": 130.5,
                        "velocity": 0.4015748031496063
                    },
                    {
                        "duration": 0.125,
                        "durationTicks": 24,
                        "midi": 86,
                        "name": "D6",
                        "ticks": 25080,
                        "time": 130.625,
                        "velocity": 0.4015748031496063
                    },
                    {
                        "duration": 0.125,
                        "durationTicks": 24,
                        "midi": 74,
                        "name": "D5",
                        "ticks": 25080,
                        "time": 130.625,
                        "velocity": 0.4015748031496063
                    },
                    {
                        "duration": 0.125,
                        "durationTicks": 24,
                        "midi": 84,
                        "name": "C6",
                        "ticks": 25104,
                        "time": 130.75,
                        "velocity": 0.4015748031496063
                    },
                    {
                        "duration": 0.125,
                        "durationTicks": 24,
                        "midi": 72,
                        "name": "C5",
                        "ticks": 25104,
                        "time": 130.75,
                        "velocity": 0.4015748031496063
                    },
                    {
                        "duration": 0.125,
                        "durationTicks": 24,
                        "midi": 82,
                        "name": "A#5",
                        "ticks": 25128,
                        "time": 130.875,
                        "velocity": 0.4015748031496063
                    },
                    {
                        "duration": 0.125,
                        "durationTicks": 24,
                        "midi": 70,
                        "name": "A#4",
                        "ticks": 25128,
                        "time": 130.875,
                        "velocity": 0.4015748031496063
                    },
                    {
                        "duration": 0.125,
                        "durationTicks": 24,
                        "midi": 74,
                        "name": "D5",
                        "ticks": 25176,
                        "time": 131.125,
                        "velocity": 0.4015748031496063
                    },
                    {
                        "duration": 0.125,
                        "durationTicks": 24,
                        "midi": 82,
                        "name": "A#5",
                        "ticks": 25176,
                        "time": 131.125,
                        "velocity": 0.4015748031496063
                    },
                    {
                        "duration": 0.125,
                        "durationTicks": 24,
                        "midi": 70,
                        "name": "A#4",
                        "ticks": 25176,
                        "time": 131.125,
                        "velocity": 0.4015748031496063
                    },
                    {
                        "duration": 0.125,
                        "durationTicks": 24,
                        "midi": 74,
                        "name": "D5",
                        "ticks": 25200,
                        "time": 131.25,
                        "velocity": 0.4015748031496063
                    },
                    {
                        "duration": 0.125,
                        "durationTicks": 24,
                        "midi": 82,
                        "name": "A#5",
                        "ticks": 25200,
                        "time": 131.25,
                        "velocity": 0.4015748031496063
                    },
                    {
                        "duration": 0.125,
                        "durationTicks": 24,
                        "midi": 70,
                        "name": "A#4",
                        "ticks": 25200,
                        "time": 131.25,
                        "velocity": 0.4015748031496063
                    },
                    {
                        "duration": 0.125,
                        "durationTicks": 24,
                        "midi": 72,
                        "name": "C5",
                        "ticks": 25224,
                        "time": 131.375,
                        "velocity": 0.4015748031496063
                    },
                    {
                        "duration": 0.125,
                        "durationTicks": 24,
                        "midi": 81,
                        "name": "A5",
                        "ticks": 25224,
                        "time": 131.375,
                        "velocity": 0.4015748031496063
                    },
                    {
                        "duration": 0.125,
                        "durationTicks": 24,
                        "midi": 69,
                        "name": "A4",
                        "ticks": 25224,
                        "time": 131.375,
                        "velocity": 0.4015748031496063
                    },
                    {
                        "duration": 0.125,
                        "durationTicks": 24,
                        "midi": 70,
                        "name": "A#4",
                        "ticks": 25248,
                        "time": 131.5,
                        "velocity": 0.4015748031496063
                    },
                    {
                        "duration": 0.125,
                        "durationTicks": 24,
                        "midi": 79,
                        "name": "G5",
                        "ticks": 25248,
                        "time": 131.5,
                        "velocity": 0.4015748031496063
                    },
                    {
                        "duration": 0.125,
                        "durationTicks": 24,
                        "midi": 67,
                        "name": "G4",
                        "ticks": 25248,
                        "time": 131.5,
                        "velocity": 0.4015748031496063
                    },
                    {
                        "duration": 0.25,
                        "durationTicks": 48,
                        "midi": 93,
                        "name": "A6",
                        "ticks": 25272,
                        "time": 131.625,
                        "velocity": 0.4015748031496063
                    },
                    {
                        "duration": 0.25,
                        "durationTicks": 48,
                        "midi": 81,
                        "name": "A5",
                        "ticks": 25272,
                        "time": 131.625,
                        "velocity": 0.4015748031496063
                    },
                    {
                        "duration": 0.125,
                        "durationTicks": 24,
                        "midi": 91,
                        "name": "G6",
                        "ticks": 25320,
                        "time": 131.875,
                        "velocity": 0.4015748031496063
                    },
                    {
                        "duration": 0.125,
                        "durationTicks": 24,
                        "midi": 79,
                        "name": "G5",
                        "ticks": 25320,
                        "time": 131.875,
                        "velocity": 0.4015748031496063
                    },
                    {
                        "duration": 0.125,
                        "durationTicks": 24,
                        "midi": 91,
                        "name": "G6",
                        "ticks": 25440,
                        "time": 132.5,
                        "velocity": 0.4015748031496063
                    },
                    {
                        "duration": 0.125,
                        "durationTicks": 24,
                        "midi": 79,
                        "name": "G5",
                        "ticks": 25440,
                        "time": 132.5,
                        "velocity": 0.4015748031496063
                    },
                    {
                        "duration": 0.125,
                        "durationTicks": 24,
                        "midi": 89,
                        "name": "F6",
                        "ticks": 25464,
                        "time": 132.625,
                        "velocity": 0.4015748031496063
                    },
                    {
                        "duration": 0.125,
                        "durationTicks": 24,
                        "midi": 77,
                        "name": "F5",
                        "ticks": 25464,
                        "time": 132.625,
                        "velocity": 0.4015748031496063
                    },
                    {
                        "duration": 0.125,
                        "durationTicks": 24,
                        "midi": 91,
                        "name": "G6",
                        "ticks": 25488,
                        "time": 132.75,
                        "velocity": 0.4015748031496063
                    },
                    {
                        "duration": 0.125,
                        "durationTicks": 24,
                        "midi": 79,
                        "name": "G5",
                        "ticks": 25488,
                        "time": 132.75,
                        "velocity": 0.4015748031496063
                    },
                    {
                        "duration": 0.125,
                        "durationTicks": 24,
                        "midi": 89,
                        "name": "F6",
                        "ticks": 25512,
                        "time": 132.875,
                        "velocity": 0.4015748031496063
                    },
                    {
                        "duration": 0.125,
                        "durationTicks": 24,
                        "midi": 77,
                        "name": "F5",
                        "ticks": 25512,
                        "time": 132.875,
                        "velocity": 0.4015748031496063
                    },
                    {
                        "duration": 0.125,
                        "durationTicks": 24,
                        "midi": 74,
                        "name": "D5",
                        "ticks": 25560,
                        "time": 133.125,
                        "velocity": 0.4015748031496063
                    },
                    {
                        "duration": 0.125,
                        "durationTicks": 24,
                        "midi": 82,
                        "name": "A#5",
                        "ticks": 25560,
                        "time": 133.125,
                        "velocity": 0.4015748031496063
                    },
                    {
                        "duration": 0.125,
                        "durationTicks": 24,
                        "midi": 70,
                        "name": "A#4",
                        "ticks": 25560,
                        "time": 133.125,
                        "velocity": 0.4015748031496063
                    },
                    {
                        "duration": 0.125,
                        "durationTicks": 24,
                        "midi": 74,
                        "name": "D5",
                        "ticks": 25584,
                        "time": 133.25,
                        "velocity": 0.4015748031496063
                    },
                    {
                        "duration": 0.125,
                        "durationTicks": 24,
                        "midi": 82,
                        "name": "A#5",
                        "ticks": 25584,
                        "time": 133.25,
                        "velocity": 0.4015748031496063
                    },
                    {
                        "duration": 0.125,
                        "durationTicks": 24,
                        "midi": 70,
                        "name": "A#4",
                        "ticks": 25584,
                        "time": 133.25,
                        "velocity": 0.4015748031496063
                    },
                    {
                        "duration": 0.125,
                        "durationTicks": 24,
                        "midi": 74,
                        "name": "D5",
                        "ticks": 25608,
                        "time": 133.375,
                        "velocity": 0.4015748031496063
                    },
                    {
                        "duration": 0.125,
                        "durationTicks": 24,
                        "midi": 82,
                        "name": "A#5",
                        "ticks": 25608,
                        "time": 133.375,
                        "velocity": 0.4015748031496063
                    },
                    {
                        "duration": 0.125,
                        "durationTicks": 24,
                        "midi": 70,
                        "name": "A#4",
                        "ticks": 25608,
                        "time": 133.375,
                        "velocity": 0.4015748031496063
                    },
                    {
                        "duration": 0.125,
                        "durationTicks": 24,
                        "midi": 74,
                        "name": "D5",
                        "ticks": 25632,
                        "time": 133.5,
                        "velocity": 0.4015748031496063
                    },
                    {
                        "duration": 0.125,
                        "durationTicks": 24,
                        "midi": 82,
                        "name": "A#5",
                        "ticks": 25632,
                        "time": 133.5,
                        "velocity": 0.4015748031496063
                    },
                    {
                        "duration": 0.125,
                        "durationTicks": 24,
                        "midi": 70,
                        "name": "A#4",
                        "ticks": 25632,
                        "time": 133.5,
                        "velocity": 0.4015748031496063
                    },
                    {
                        "duration": 0.125,
                        "durationTicks": 24,
                        "midi": 74,
                        "name": "D5",
                        "ticks": 25656,
                        "time": 133.625,
                        "velocity": 0.4015748031496063
                    },
                    {
                        "duration": 0.125,
                        "durationTicks": 24,
                        "midi": 82,
                        "name": "A#5",
                        "ticks": 25656,
                        "time": 133.625,
                        "velocity": 0.4015748031496063
                    },
                    {
                        "duration": 0.125,
                        "durationTicks": 24,
                        "midi": 70,
                        "name": "A#4",
                        "ticks": 25656,
                        "time": 133.625,
                        "velocity": 0.4015748031496063
                    },
                    {
                        "duration": 0.125,
                        "durationTicks": 24,
                        "midi": 74,
                        "name": "D5",
                        "ticks": 25680,
                        "time": 133.75,
                        "velocity": 0.4015748031496063
                    },
                    {
                        "duration": 0.125,
                        "durationTicks": 24,
                        "midi": 82,
                        "name": "A#5",
                        "ticks": 25680,
                        "time": 133.75,
                        "velocity": 0.4015748031496063
                    },
                    {
                        "duration": 0.125,
                        "durationTicks": 24,
                        "midi": 70,
                        "name": "A#4",
                        "ticks": 25680,
                        "time": 133.75,
                        "velocity": 0.4015748031496063
                    },
                    {
                        "duration": 0.125,
                        "durationTicks": 24,
                        "midi": 94,
                        "name": "A#6",
                        "ticks": 25704,
                        "time": 133.875,
                        "velocity": 0.4015748031496063
                    },
                    {
                        "duration": 0.125,
                        "durationTicks": 24,
                        "midi": 82,
                        "name": "A#5",
                        "ticks": 25704,
                        "time": 133.875,
                        "velocity": 0.4015748031496063
                    },
                    {
                        "duration": 0.375,
                        "durationTicks": 72,
                        "midi": 77,
                        "name": "F5",
                        "ticks": 25728,
                        "time": 134,
                        "velocity": 0.4015748031496063
                    },
                    {
                        "duration": 0.375,
                        "durationTicks": 72,
                        "midi": 89,
                        "name": "F6",
                        "ticks": 25728,
                        "time": 134,
                        "velocity": 0.4015748031496063
                    },
                    {
                        "duration": 0.125,
                        "durationTicks": 24,
                        "midi": 89,
                        "name": "F6",
                        "ticks": 25800,
                        "time": 134.375,
                        "velocity": 0.4015748031496063
                    },
                    {
                        "duration": 0.125,
                        "durationTicks": 24,
                        "midi": 77,
                        "name": "F5",
                        "ticks": 25800,
                        "time": 134.375,
                        "velocity": 0.4015748031496063
                    },
                    {
                        "duration": 0.125,
                        "durationTicks": 24,
                        "midi": 89,
                        "name": "F6",
                        "ticks": 25824,
                        "time": 134.5,
                        "velocity": 0.4015748031496063
                    },
                    {
                        "duration": 0.125,
                        "durationTicks": 24,
                        "midi": 77,
                        "name": "F5",
                        "ticks": 25824,
                        "time": 134.5,
                        "velocity": 0.4015748031496063
                    },
                    {
                        "duration": 0.125,
                        "durationTicks": 24,
                        "midi": 96,
                        "name": "C7",
                        "ticks": 25848,
                        "time": 134.625,
                        "velocity": 0.4015748031496063
                    },
                    {
                        "duration": 0.125,
                        "durationTicks": 24,
                        "midi": 84,
                        "name": "C6",
                        "ticks": 25848,
                        "time": 134.625,
                        "velocity": 0.4015748031496063
                    },
                    {
                        "duration": 0.125,
                        "durationTicks": 24,
                        "midi": 93,
                        "name": "A6",
                        "ticks": 25872,
                        "time": 134.75,
                        "velocity": 0.4015748031496063
                    },
                    {
                        "duration": 0.125,
                        "durationTicks": 24,
                        "midi": 81,
                        "name": "A5",
                        "ticks": 25872,
                        "time": 134.75,
                        "velocity": 0.4015748031496063
                    },
                    {
                        "duration": 0.125,
                        "durationTicks": 24,
                        "midi": 94,
                        "name": "A#6",
                        "ticks": 25896,
                        "time": 134.875,
                        "velocity": 0.4015748031496063
                    },
                    {
                        "duration": 0.125,
                        "durationTicks": 24,
                        "midi": 82,
                        "name": "A#5",
                        "ticks": 25896,
                        "time": 134.875,
                        "velocity": 0.4015748031496063
                    },
                    {
                        "duration": 0.125,
                        "durationTicks": 24,
                        "midi": 74,
                        "name": "D5",
                        "ticks": 25944,
                        "time": 135.125,
                        "velocity": 0.4015748031496063
                    },
                    {
                        "duration": 0.125,
                        "durationTicks": 24,
                        "midi": 70,
                        "name": "A#4",
                        "ticks": 25944,
                        "time": 135.125,
                        "velocity": 0.4015748031496063
                    },
                    {
                        "duration": 0.125,
                        "durationTicks": 24,
                        "midi": 82,
                        "name": "A#5",
                        "ticks": 25944,
                        "time": 135.125,
                        "velocity": 0.4015748031496063
                    },
                    {
                        "duration": 0.125,
                        "durationTicks": 24,
                        "midi": 74,
                        "name": "D5",
                        "ticks": 25968,
                        "time": 135.25,
                        "velocity": 0.4015748031496063
                    },
                    {
                        "duration": 0.125,
                        "durationTicks": 24,
                        "midi": 82,
                        "name": "A#5",
                        "ticks": 25968,
                        "time": 135.25,
                        "velocity": 0.4015748031496063
                    },
                    {
                        "duration": 0.125,
                        "durationTicks": 24,
                        "midi": 70,
                        "name": "A#4",
                        "ticks": 25968,
                        "time": 135.25,
                        "velocity": 0.4015748031496063
                    },
                    {
                        "duration": 0.125,
                        "durationTicks": 24,
                        "midi": 72,
                        "name": "C5",
                        "ticks": 25992,
                        "time": 135.375,
                        "velocity": 0.4015748031496063
                    },
                    {
                        "duration": 0.125,
                        "durationTicks": 24,
                        "midi": 81,
                        "name": "A5",
                        "ticks": 25992,
                        "time": 135.375,
                        "velocity": 0.4015748031496063
                    },
                    {
                        "duration": 0.125,
                        "durationTicks": 24,
                        "midi": 69,
                        "name": "A4",
                        "ticks": 25992,
                        "time": 135.375,
                        "velocity": 0.4015748031496063
                    },
                    {
                        "duration": 0.25,
                        "durationTicks": 48,
                        "midi": 74,
                        "name": "D5",
                        "ticks": 26016,
                        "time": 135.5,
                        "velocity": 0.4015748031496063
                    },
                    {
                        "duration": 0.25,
                        "durationTicks": 48,
                        "midi": 82,
                        "name": "A#5",
                        "ticks": 26016,
                        "time": 135.5,
                        "velocity": 0.4015748031496063
                    },
                    {
                        "duration": 0.25,
                        "durationTicks": 48,
                        "midi": 70,
                        "name": "A#4",
                        "ticks": 26016,
                        "time": 135.5,
                        "velocity": 0.4015748031496063
                    },
                    {
                        "duration": 0.25,
                        "durationTicks": 48,
                        "midi": 72,
                        "name": "C5",
                        "ticks": 26064,
                        "time": 135.75,
                        "velocity": 0.4015748031496063
                    },
                    {
                        "duration": 0.25,
                        "durationTicks": 48,
                        "midi": 69,
                        "name": "A4",
                        "ticks": 26064,
                        "time": 135.75,
                        "velocity": 0.4015748031496063
                    },
                    {
                        "duration": 0.25,
                        "durationTicks": 48,
                        "midi": 81,
                        "name": "A5",
                        "ticks": 26064,
                        "time": 135.75,
                        "velocity": 0.4015748031496063
                    },
                    {
                        "duration": 0.125,
                        "durationTicks": 24,
                        "midi": 84,
                        "name": "C6",
                        "ticks": 26208,
                        "time": 136.5,
                        "velocity": 0.4015748031496063
                    },
                    {
                        "duration": 0.125,
                        "durationTicks": 24,
                        "midi": 72,
                        "name": "C5",
                        "ticks": 26208,
                        "time": 136.5,
                        "velocity": 0.4015748031496063
                    },
                    {
                        "duration": 0.125,
                        "durationTicks": 24,
                        "midi": 86,
                        "name": "D6",
                        "ticks": 26232,
                        "time": 136.625,
                        "velocity": 0.4015748031496063
                    },
                    {
                        "duration": 0.125,
                        "durationTicks": 24,
                        "midi": 74,
                        "name": "D5",
                        "ticks": 26232,
                        "time": 136.625,
                        "velocity": 0.4015748031496063
                    },
                    {
                        "duration": 0.125,
                        "durationTicks": 24,
                        "midi": 84,
                        "name": "C6",
                        "ticks": 26256,
                        "time": 136.75,
                        "velocity": 0.4015748031496063
                    },
                    {
                        "duration": 0.125,
                        "durationTicks": 24,
                        "midi": 72,
                        "name": "C5",
                        "ticks": 26256,
                        "time": 136.75,
                        "velocity": 0.4015748031496063
                    },
                    {
                        "duration": 0.25,
                        "durationTicks": 48,
                        "midi": 89,
                        "name": "F6",
                        "ticks": 26280,
                        "time": 136.875,
                        "velocity": 0.4015748031496063
                    },
                    {
                        "duration": 0.25,
                        "durationTicks": 48,
                        "midi": 77,
                        "name": "F5",
                        "ticks": 26280,
                        "time": 136.875,
                        "velocity": 0.4015748031496063
                    },
                    {
                        "duration": 0.125,
                        "durationTicks": 24,
                        "midi": 89,
                        "name": "F6",
                        "ticks": 26328,
                        "time": 137.125,
                        "velocity": 0.4015748031496063
                    },
                    {
                        "duration": 0.125,
                        "durationTicks": 24,
                        "midi": 77,
                        "name": "F5",
                        "ticks": 26328,
                        "time": 137.125,
                        "velocity": 0.4015748031496063
                    },
                    {
                        "duration": 0.125,
                        "durationTicks": 24,
                        "midi": 94,
                        "name": "A#6",
                        "ticks": 26352,
                        "time": 137.25,
                        "velocity": 0.4015748031496063
                    },
                    {
                        "duration": 0.125,
                        "durationTicks": 24,
                        "midi": 82,
                        "name": "A#5",
                        "ticks": 26352,
                        "time": 137.25,
                        "velocity": 0.4015748031496063
                    },
                    {
                        "duration": 0.125,
                        "durationTicks": 24,
                        "midi": 89,
                        "name": "F6",
                        "ticks": 26376,
                        "time": 137.375,
                        "velocity": 0.4015748031496063
                    },
                    {
                        "duration": 0.125,
                        "durationTicks": 24,
                        "midi": 77,
                        "name": "F5",
                        "ticks": 26376,
                        "time": 137.375,
                        "velocity": 0.4015748031496063
                    },
                    {
                        "duration": 0.125,
                        "durationTicks": 24,
                        "midi": 86,
                        "name": "D6",
                        "ticks": 26400,
                        "time": 137.5,
                        "velocity": 0.4015748031496063
                    },
                    {
                        "duration": 0.125,
                        "durationTicks": 24,
                        "midi": 74,
                        "name": "D5",
                        "ticks": 26400,
                        "time": 137.5,
                        "velocity": 0.4015748031496063
                    },
                    {
                        "duration": 0.125,
                        "durationTicks": 24,
                        "midi": 89,
                        "name": "F6",
                        "ticks": 26424,
                        "time": 137.625,
                        "velocity": 0.4015748031496063
                    },
                    {
                        "duration": 0.125,
                        "durationTicks": 24,
                        "midi": 77,
                        "name": "F5",
                        "ticks": 26424,
                        "time": 137.625,
                        "velocity": 0.4015748031496063
                    },
                    {
                        "duration": 0.125,
                        "durationTicks": 24,
                        "midi": 89,
                        "name": "F6",
                        "ticks": 26448,
                        "time": 137.75,
                        "velocity": 0.4015748031496063
                    },
                    {
                        "duration": 0.125,
                        "durationTicks": 24,
                        "midi": 77,
                        "name": "F5",
                        "ticks": 26448,
                        "time": 137.75,
                        "velocity": 0.4015748031496063
                    },
                    {
                        "duration": 0.125,
                        "durationTicks": 24,
                        "midi": 86,
                        "name": "D6",
                        "ticks": 26472,
                        "time": 137.875,
                        "velocity": 0.4015748031496063
                    },
                    {
                        "duration": 0.125,
                        "durationTicks": 24,
                        "midi": 74,
                        "name": "D5",
                        "ticks": 26472,
                        "time": 137.875,
                        "velocity": 0.4015748031496063
                    },
                    {
                        "duration": 0.125,
                        "durationTicks": 24,
                        "midi": 77,
                        "name": "F5",
                        "ticks": 26496,
                        "time": 138,
                        "velocity": 0.4015748031496063
                    },
                    {
                        "duration": 0.125,
                        "durationTicks": 24,
                        "midi": 89,
                        "name": "F6",
                        "ticks": 26496,
                        "time": 138,
                        "velocity": 0.4015748031496063
                    },
                    {
                        "duration": 0.125,
                        "durationTicks": 24,
                        "midi": 86,
                        "name": "D6",
                        "ticks": 26568,
                        "time": 138.375,
                        "velocity": 0.4015748031496063
                    },
                    {
                        "duration": 0.125,
                        "durationTicks": 24,
                        "midi": 74,
                        "name": "D5",
                        "ticks": 26568,
                        "time": 138.375,
                        "velocity": 0.4015748031496063
                    },
                    {
                        "duration": 0.125,
                        "durationTicks": 24,
                        "midi": 89,
                        "name": "F6",
                        "ticks": 26592,
                        "time": 138.5,
                        "velocity": 0.4015748031496063
                    },
                    {
                        "duration": 0.125,
                        "durationTicks": 24,
                        "midi": 77,
                        "name": "F5",
                        "ticks": 26592,
                        "time": 138.5,
                        "velocity": 0.4015748031496063
                    },
                    {
                        "duration": 0.125,
                        "durationTicks": 24,
                        "midi": 86,
                        "name": "D6",
                        "ticks": 26616,
                        "time": 138.625,
                        "velocity": 0.4015748031496063
                    },
                    {
                        "duration": 0.125,
                        "durationTicks": 24,
                        "midi": 74,
                        "name": "D5",
                        "ticks": 26616,
                        "time": 138.625,
                        "velocity": 0.4015748031496063
                    },
                    {
                        "duration": 0.125,
                        "durationTicks": 24,
                        "midi": 84,
                        "name": "C6",
                        "ticks": 26640,
                        "time": 138.75,
                        "velocity": 0.4015748031496063
                    },
                    {
                        "duration": 0.125,
                        "durationTicks": 24,
                        "midi": 72,
                        "name": "C5",
                        "ticks": 26640,
                        "time": 138.75,
                        "velocity": 0.4015748031496063
                    },
                    {
                        "duration": 0.125,
                        "durationTicks": 24,
                        "midi": 82,
                        "name": "A#5",
                        "ticks": 26664,
                        "time": 138.875,
                        "velocity": 0.4015748031496063
                    },
                    {
                        "duration": 0.125,
                        "durationTicks": 24,
                        "midi": 70,
                        "name": "A#4",
                        "ticks": 26664,
                        "time": 138.875,
                        "velocity": 0.4015748031496063
                    },
                    {
                        "duration": 0.125,
                        "durationTicks": 24,
                        "midi": 74,
                        "name": "D5",
                        "ticks": 26712,
                        "time": 139.125,
                        "velocity": 0.4015748031496063
                    },
                    {
                        "duration": 0.125,
                        "durationTicks": 24,
                        "midi": 82,
                        "name": "A#5",
                        "ticks": 26712,
                        "time": 139.125,
                        "velocity": 0.4015748031496063
                    },
                    {
                        "duration": 0.125,
                        "durationTicks": 24,
                        "midi": 70,
                        "name": "A#4",
                        "ticks": 26712,
                        "time": 139.125,
                        "velocity": 0.4015748031496063
                    },
                    {
                        "duration": 0.125,
                        "durationTicks": 24,
                        "midi": 74,
                        "name": "D5",
                        "ticks": 26736,
                        "time": 139.25,
                        "velocity": 0.4015748031496063
                    },
                    {
                        "duration": 0.125,
                        "durationTicks": 24,
                        "midi": 82,
                        "name": "A#5",
                        "ticks": 26736,
                        "time": 139.25,
                        "velocity": 0.4015748031496063
                    },
                    {
                        "duration": 0.125,
                        "durationTicks": 24,
                        "midi": 70,
                        "name": "A#4",
                        "ticks": 26736,
                        "time": 139.25,
                        "velocity": 0.4015748031496063
                    },
                    {
                        "duration": 0.125,
                        "durationTicks": 24,
                        "midi": 72,
                        "name": "C5",
                        "ticks": 26760,
                        "time": 139.375,
                        "velocity": 0.4015748031496063
                    },
                    {
                        "duration": 0.125,
                        "durationTicks": 24,
                        "midi": 81,
                        "name": "A5",
                        "ticks": 26760,
                        "time": 139.375,
                        "velocity": 0.4015748031496063
                    },
                    {
                        "duration": 0.125,
                        "durationTicks": 24,
                        "midi": 69,
                        "name": "A4",
                        "ticks": 26760,
                        "time": 139.375,
                        "velocity": 0.4015748031496063
                    },
                    {
                        "duration": 0.125,
                        "durationTicks": 24,
                        "midi": 74,
                        "name": "D5",
                        "ticks": 26784,
                        "time": 139.5,
                        "velocity": 0.4015748031496063
                    },
                    {
                        "duration": 0.125,
                        "durationTicks": 24,
                        "midi": 82,
                        "name": "A#5",
                        "ticks": 26784,
                        "time": 139.5,
                        "velocity": 0.4015748031496063
                    },
                    {
                        "duration": 0.125,
                        "durationTicks": 24,
                        "midi": 70,
                        "name": "A#4",
                        "ticks": 26784,
                        "time": 139.5,
                        "velocity": 0.4015748031496063
                    },
                    {
                        "duration": 0.25,
                        "durationTicks": 48,
                        "midi": 93,
                        "name": "A6",
                        "ticks": 26808,
                        "time": 139.625,
                        "velocity": 0.4015748031496063
                    },
                    {
                        "duration": 0.25,
                        "durationTicks": 48,
                        "midi": 81,
                        "name": "A5",
                        "ticks": 26808,
                        "time": 139.625,
                        "velocity": 0.4015748031496063
                    },
                    {
                        "duration": 0.125,
                        "durationTicks": 24,
                        "midi": 91,
                        "name": "G6",
                        "ticks": 26856,
                        "time": 139.875,
                        "velocity": 0.4015748031496063
                    },
                    {
                        "duration": 0.125,
                        "durationTicks": 24,
                        "midi": 79,
                        "name": "G5",
                        "ticks": 26856,
                        "time": 139.875,
                        "velocity": 0.4015748031496063
                    },
                    {
                        "duration": 0.125,
                        "durationTicks": 24,
                        "midi": 91,
                        "name": "G6",
                        "ticks": 26976,
                        "time": 140.5,
                        "velocity": 0.4015748031496063
                    },
                    {
                        "duration": 0.125,
                        "durationTicks": 24,
                        "midi": 79,
                        "name": "G5",
                        "ticks": 26976,
                        "time": 140.5,
                        "velocity": 0.4015748031496063
                    },
                    {
                        "duration": 0.125,
                        "durationTicks": 24,
                        "midi": 89,
                        "name": "F6",
                        "ticks": 27000,
                        "time": 140.625,
                        "velocity": 0.4015748031496063
                    },
                    {
                        "duration": 0.125,
                        "durationTicks": 24,
                        "midi": 77,
                        "name": "F5",
                        "ticks": 27000,
                        "time": 140.625,
                        "velocity": 0.4015748031496063
                    },
                    {
                        "duration": 0.020833333333342807,
                        "durationTicks": 4,
                        "midi": 87,
                        "name": "D#6",
                        "ticks": 27024,
                        "time": 140.75,
                        "velocity": 0.4015748031496063
                    },
                    {
                        "duration": 0.2291666666666572,
                        "durationTicks": 44,
                        "midi": 77,
                        "name": "F5",
                        "ticks": 27028,
                        "time": 140.77083333333334,
                        "velocity": 0.4015748031496063
                    },
                    {
                        "duration": 0.2291666666666572,
                        "durationTicks": 44,
                        "midi": 89,
                        "name": "F6",
                        "ticks": 27028,
                        "time": 140.77083333333334,
                        "velocity": 0.4015748031496063
                    },
                    {
                        "duration": 0.125,
                        "durationTicks": 24,
                        "midi": 89,
                        "name": "F6",
                        "ticks": 27144,
                        "time": 141.375,
                        "velocity": 0.4015748031496063
                    },
                    {
                        "duration": 0.125,
                        "durationTicks": 24,
                        "midi": 77,
                        "name": "F5",
                        "ticks": 27144,
                        "time": 141.375,
                        "velocity": 0.4015748031496063
                    },
                    {
                        "duration": 0.25,
                        "durationTicks": 48,
                        "midi": 79,
                        "name": "G5",
                        "ticks": 27168,
                        "time": 141.5,
                        "velocity": 0.4015748031496063
                    },
                    {
                        "duration": 0.25,
                        "durationTicks": 48,
                        "midi": 91,
                        "name": "G6",
                        "ticks": 27168,
                        "time": 141.5,
                        "velocity": 0.4015748031496063
                    },
                    {
                        "duration": 0.125,
                        "durationTicks": 24,
                        "midi": 94,
                        "name": "A#6",
                        "ticks": 27216,
                        "time": 141.75,
                        "velocity": 0.4015748031496063
                    },
                    {
                        "duration": 0.125,
                        "durationTicks": 24,
                        "midi": 82,
                        "name": "A#5",
                        "ticks": 27216,
                        "time": 141.75,
                        "velocity": 0.4015748031496063
                    },
                    {
                        "duration": 0.125,
                        "durationTicks": 24,
                        "midi": 93,
                        "name": "A6",
                        "ticks": 27240,
                        "time": 141.875,
                        "velocity": 0.4015748031496063
                    },
                    {
                        "duration": 0.125,
                        "durationTicks": 24,
                        "midi": 81,
                        "name": "A5",
                        "ticks": 27240,
                        "time": 141.875,
                        "velocity": 0.4015748031496063
                    },
                    {
                        "duration": 0.25,
                        "durationTicks": 48,
                        "midi": 81,
                        "name": "A5",
                        "ticks": 27264,
                        "time": 142,
                        "velocity": 0.4015748031496063
                    },
                    {
                        "duration": 0.25,
                        "durationTicks": 48,
                        "midi": 93,
                        "name": "A6",
                        "ticks": 27264,
                        "time": 142,
                        "velocity": 0.4015748031496063
                    },
                    {
                        "duration": 0.125,
                        "durationTicks": 24,
                        "midi": 93,
                        "name": "A6",
                        "ticks": 27336,
                        "time": 142.375,
                        "velocity": 0.4015748031496063
                    },
                    {
                        "duration": 0.125,
                        "durationTicks": 24,
                        "midi": 81,
                        "name": "A5",
                        "ticks": 27336,
                        "time": 142.375,
                        "velocity": 0.4015748031496063
                    },
                    {
                        "duration": 0.125,
                        "durationTicks": 24,
                        "midi": 96,
                        "name": "C7",
                        "ticks": 27360,
                        "time": 142.5,
                        "velocity": 0.4015748031496063
                    },
                    {
                        "duration": 0.125,
                        "durationTicks": 24,
                        "midi": 84,
                        "name": "C6",
                        "ticks": 27360,
                        "time": 142.5,
                        "velocity": 0.4015748031496063
                    },
                    {
                        "duration": 0.125,
                        "durationTicks": 24,
                        "midi": 98,
                        "name": "D7",
                        "ticks": 27384,
                        "time": 142.625,
                        "velocity": 0.4015748031496063
                    },
                    {
                        "duration": 0.125,
                        "durationTicks": 24,
                        "midi": 86,
                        "name": "D6",
                        "ticks": 27384,
                        "time": 142.625,
                        "velocity": 0.4015748031496063
                    },
                    {
                        "duration": 0.125,
                        "durationTicks": 24,
                        "midi": 101,
                        "name": "F7",
                        "ticks": 27408,
                        "time": 142.75,
                        "velocity": 0.4015748031496063
                    },
                    {
                        "duration": 0.125,
                        "durationTicks": 24,
                        "midi": 89,
                        "name": "F6",
                        "ticks": 27408,
                        "time": 142.75,
                        "velocity": 0.4015748031496063
                    },
                    {
                        "duration": 0.125,
                        "durationTicks": 24,
                        "midi": 79,
                        "name": "G5",
                        "ticks": 27432,
                        "time": 142.875,
                        "velocity": 0.4015748031496063
                    },
                    {
                        "duration": 0.125,
                        "durationTicks": 24,
                        "midi": 91,
                        "name": "G6",
                        "ticks": 27432,
                        "time": 142.875,
                        "velocity": 0.4015748031496063
                    },
                    {
                        "duration": 0.125,
                        "durationTicks": 24,
                        "midi": 79,
                        "name": "G5",
                        "ticks": 27504,
                        "time": 143.25,
                        "velocity": 0.4015748031496063
                    },
                    {
                        "duration": 0.125,
                        "durationTicks": 24,
                        "midi": 91,
                        "name": "G6",
                        "ticks": 27504,
                        "time": 143.25,
                        "velocity": 0.4015748031496063
                    },
                    {
                        "duration": 0.125,
                        "durationTicks": 24,
                        "midi": 91,
                        "name": "G6",
                        "ticks": 27576,
                        "time": 143.625,
                        "velocity": 0.4015748031496063
                    },
                    {
                        "duration": 0.125,
                        "durationTicks": 24,
                        "midi": 79,
                        "name": "G5",
                        "ticks": 27576,
                        "time": 143.625,
                        "velocity": 0.4015748031496063
                    },
                    {
                        "duration": 0.125,
                        "durationTicks": 24,
                        "midi": 79,
                        "name": "G5",
                        "ticks": 27696,
                        "time": 144.25,
                        "velocity": 0.44881889763779526
                    },
                    {
                        "duration": 0.125,
                        "durationTicks": 24,
                        "midi": 91,
                        "name": "G6",
                        "ticks": 27696,
                        "time": 144.25,
                        "velocity": 0.44881889763779526
                    },
                    {
                        "duration": 0.125,
                        "durationTicks": 24,
                        "midi": 91,
                        "name": "G6",
                        "ticks": 27768,
                        "time": 144.625,
                        "velocity": 0.44881889763779526
                    },
                    {
                        "duration": 0.125,
                        "durationTicks": 24,
                        "midi": 79,
                        "name": "G5",
                        "ticks": 27768,
                        "time": 144.625,
                        "velocity": 0.44881889763779526
                    },
                    {
                        "duration": 0.125,
                        "durationTicks": 24,
                        "midi": 79,
                        "name": "G5",
                        "ticks": 27816,
                        "time": 144.875,
                        "velocity": 0.44881889763779526
                    },
                    {
                        "duration": 0.125,
                        "durationTicks": 24,
                        "midi": 91,
                        "name": "G6",
                        "ticks": 27816,
                        "time": 144.875,
                        "velocity": 0.44881889763779526
                    },
                    {
                        "duration": 0.125,
                        "durationTicks": 24,
                        "midi": 82,
                        "name": "A#5",
                        "ticks": 27888,
                        "time": 145.25,
                        "velocity": 0.44881889763779526
                    },
                    {
                        "duration": 0.125,
                        "durationTicks": 24,
                        "midi": 94,
                        "name": "A#6",
                        "ticks": 27888,
                        "time": 145.25,
                        "velocity": 0.44881889763779526
                    },
                    {
                        "duration": 0.125,
                        "durationTicks": 24,
                        "midi": 91,
                        "name": "G6",
                        "ticks": 27960,
                        "time": 145.625,
                        "velocity": 0.44881889763779526
                    },
                    {
                        "duration": 0.125,
                        "durationTicks": 24,
                        "midi": 79,
                        "name": "G5",
                        "ticks": 27960,
                        "time": 145.625,
                        "velocity": 0.44881889763779526
                    },
                    {
                        "duration": 0.125,
                        "durationTicks": 24,
                        "midi": 91,
                        "name": "G6",
                        "ticks": 28080,
                        "time": 146.25,
                        "velocity": 0.44881889763779526
                    },
                    {
                        "duration": 0.125,
                        "durationTicks": 24,
                        "midi": 79,
                        "name": "G5",
                        "ticks": 28080,
                        "time": 146.25,
                        "velocity": 0.44881889763779526
                    },
                    {
                        "duration": 0.125,
                        "durationTicks": 24,
                        "midi": 91,
                        "name": "G6",
                        "ticks": 28152,
                        "time": 146.625,
                        "velocity": 0.44881889763779526
                    },
                    {
                        "duration": 0.125,
                        "durationTicks": 24,
                        "midi": 79,
                        "name": "G5",
                        "ticks": 28152,
                        "time": 146.625,
                        "velocity": 0.44881889763779526
                    },
                    {
                        "duration": 0.125,
                        "durationTicks": 24,
                        "midi": 79,
                        "name": "G5",
                        "ticks": 28200,
                        "time": 146.875,
                        "velocity": 0.44881889763779526
                    },
                    {
                        "duration": 0.125,
                        "durationTicks": 24,
                        "midi": 91,
                        "name": "G6",
                        "ticks": 28200,
                        "time": 146.875,
                        "velocity": 0.44881889763779526
                    },
                    {
                        "duration": 0.125,
                        "durationTicks": 24,
                        "midi": 79,
                        "name": "G5",
                        "ticks": 28272,
                        "time": 147.25,
                        "velocity": 0.44881889763779526
                    },
                    {
                        "duration": 0.125,
                        "durationTicks": 24,
                        "midi": 91,
                        "name": "G6",
                        "ticks": 28272,
                        "time": 147.25,
                        "velocity": 0.44881889763779526
                    },
                    {
                        "duration": 0.125,
                        "durationTicks": 24,
                        "midi": 69,
                        "name": "A4",
                        "ticks": 28296,
                        "time": 147.375,
                        "velocity": 0.44881889763779526
                    },
                    {
                        "duration": 0.125,
                        "durationTicks": 24,
                        "midi": 81,
                        "name": "A5",
                        "ticks": 28296,
                        "time": 147.375,
                        "velocity": 0.44881889763779526
                    },
                    {
                        "duration": 0.125,
                        "durationTicks": 24,
                        "midi": 79,
                        "name": "G5",
                        "ticks": 28344,
                        "time": 147.625,
                        "velocity": 0.44881889763779526
                    },
                    {
                        "duration": 0.125,
                        "durationTicks": 24,
                        "midi": 67,
                        "name": "G4",
                        "ticks": 28344,
                        "time": 147.625,
                        "velocity": 0.44881889763779526
                    },
                    {
                        "duration": 0.125,
                        "durationTicks": 24,
                        "midi": 91,
                        "name": "G6",
                        "ticks": 28464,
                        "time": 148.25,
                        "velocity": 0.44881889763779526
                    },
                    {
                        "duration": 0.125,
                        "durationTicks": 24,
                        "midi": 79,
                        "name": "G5",
                        "ticks": 28464,
                        "time": 148.25,
                        "velocity": 0.44881889763779526
                    },
                    {
                        "duration": 0.125,
                        "durationTicks": 24,
                        "midi": 79,
                        "name": "G5",
                        "ticks": 28536,
                        "time": 148.625,
                        "velocity": 0.44881889763779526
                    },
                    {
                        "duration": 0.125,
                        "durationTicks": 24,
                        "midi": 91,
                        "name": "G6",
                        "ticks": 28536,
                        "time": 148.625,
                        "velocity": 0.44881889763779526
                    },
                    {
                        "duration": 0.125,
                        "durationTicks": 24,
                        "midi": 79,
                        "name": "G5",
                        "ticks": 28584,
                        "time": 148.875,
                        "velocity": 0.44881889763779526
                    },
                    {
                        "duration": 0.125,
                        "durationTicks": 24,
                        "midi": 91,
                        "name": "G6",
                        "ticks": 28584,
                        "time": 148.875,
                        "velocity": 0.44881889763779526
                    },
                    {
                        "duration": 0.125,
                        "durationTicks": 24,
                        "midi": 82,
                        "name": "A#5",
                        "ticks": 28656,
                        "time": 149.25,
                        "velocity": 0.44881889763779526
                    },
                    {
                        "duration": 0.125,
                        "durationTicks": 24,
                        "midi": 94,
                        "name": "A#6",
                        "ticks": 28656,
                        "time": 149.25,
                        "velocity": 0.44881889763779526
                    },
                    {
                        "duration": 0.125,
                        "durationTicks": 24,
                        "midi": 91,
                        "name": "G6",
                        "ticks": 28728,
                        "time": 149.625,
                        "velocity": 0.44881889763779526
                    },
                    {
                        "duration": 0.125,
                        "durationTicks": 24,
                        "midi": 79,
                        "name": "G5",
                        "ticks": 28728,
                        "time": 149.625,
                        "velocity": 0.44881889763779526
                    },
                    {
                        "duration": 0.125,
                        "durationTicks": 24,
                        "midi": 70,
                        "name": "A#4",
                        "ticks": 28848,
                        "time": 150.25,
                        "velocity": 0.44881889763779526
                    },
                    {
                        "duration": 0.125,
                        "durationTicks": 24,
                        "midi": 82,
                        "name": "A#5",
                        "ticks": 28848,
                        "time": 150.25,
                        "velocity": 0.44881889763779526
                    },
                    {
                        "duration": 0.125,
                        "durationTicks": 24,
                        "midi": 81,
                        "name": "A5",
                        "ticks": 28920,
                        "time": 150.625,
                        "velocity": 0.44881889763779526
                    },
                    {
                        "duration": 0.125,
                        "durationTicks": 24,
                        "midi": 69,
                        "name": "A4",
                        "ticks": 28920,
                        "time": 150.625,
                        "velocity": 0.44881889763779526
                    },
                    {
                        "duration": 0.125,
                        "durationTicks": 24,
                        "midi": 67,
                        "name": "G4",
                        "ticks": 28968,
                        "time": 150.875,
                        "velocity": 0.44881889763779526
                    },
                    {
                        "duration": 0.125,
                        "durationTicks": 24,
                        "midi": 79,
                        "name": "G5",
                        "ticks": 28968,
                        "time": 150.875,
                        "velocity": 0.44881889763779526
                    },
                    {
                        "duration": 0.125,
                        "durationTicks": 24,
                        "midi": 79,
                        "name": "G5",
                        "ticks": 29040,
                        "time": 151.25,
                        "velocity": 0.44881889763779526
                    },
                    {
                        "duration": 0.125,
                        "durationTicks": 24,
                        "midi": 67,
                        "name": "G4",
                        "ticks": 29040,
                        "time": 151.25,
                        "velocity": 0.44881889763779526
                    },
                    {
                        "duration": 0.125,
                        "durationTicks": 24,
                        "midi": 81,
                        "name": "A5",
                        "ticks": 29064,
                        "time": 151.375,
                        "velocity": 0.44881889763779526
                    },
                    {
                        "duration": 0.125,
                        "durationTicks": 24,
                        "midi": 69,
                        "name": "A4",
                        "ticks": 29064,
                        "time": 151.375,
                        "velocity": 0.44881889763779526
                    },
                    {
                        "duration": 0.125,
                        "durationTicks": 24,
                        "midi": 79,
                        "name": "G5",
                        "ticks": 29112,
                        "time": 151.625,
                        "velocity": 0.44881889763779526
                    },
                    {
                        "duration": 0.125,
                        "durationTicks": 24,
                        "midi": 67,
                        "name": "G4",
                        "ticks": 29112,
                        "time": 151.625,
                        "velocity": 0.44881889763779526
                    },
                    {
                        "duration": 0.125,
                        "durationTicks": 24,
                        "midi": 79,
                        "name": "G5",
                        "ticks": 29232,
                        "time": 152.25,
                        "velocity": 0.48031496062992124
                    },
                    {
                        "duration": 0.125,
                        "durationTicks": 24,
                        "midi": 91,
                        "name": "G6",
                        "ticks": 29232,
                        "time": 152.25,
                        "velocity": 0.48031496062992124
                    },
                    {
                        "duration": 0.125,
                        "durationTicks": 24,
                        "midi": 94,
                        "name": "A#6",
                        "ticks": 29256,
                        "time": 152.375,
                        "velocity": 0.48031496062992124
                    },
                    {
                        "duration": 0.125,
                        "durationTicks": 24,
                        "midi": 82,
                        "name": "A#5",
                        "ticks": 29256,
                        "time": 152.375,
                        "velocity": 0.48031496062992124
                    },
                    {
                        "duration": 0.125,
                        "durationTicks": 24,
                        "midi": 96,
                        "name": "C7",
                        "ticks": 29304,
                        "time": 152.625,
                        "velocity": 0.48031496062992124
                    },
                    {
                        "duration": 0.125,
                        "durationTicks": 24,
                        "midi": 84,
                        "name": "C6",
                        "ticks": 29304,
                        "time": 152.625,
                        "velocity": 0.48031496062992124
                    },
                    {
                        "duration": 0.125,
                        "durationTicks": 24,
                        "midi": 79,
                        "name": "G5",
                        "ticks": 29328,
                        "time": 152.75,
                        "velocity": 0.48031496062992124
                    },
                    {
                        "duration": 0.125,
                        "durationTicks": 24,
                        "midi": 91,
                        "name": "G6",
                        "ticks": 29328,
                        "time": 152.75,
                        "velocity": 0.48031496062992124
                    },
                    {
                        "duration": 0.125,
                        "durationTicks": 24,
                        "midi": 79,
                        "name": "G5",
                        "ticks": 29424,
                        "time": 153.25,
                        "velocity": 0.48031496062992124
                    },
                    {
                        "duration": 0.125,
                        "durationTicks": 24,
                        "midi": 91,
                        "name": "G6",
                        "ticks": 29424,
                        "time": 153.25,
                        "velocity": 0.48031496062992124
                    },
                    {
                        "duration": 0.125,
                        "durationTicks": 24,
                        "midi": 89,
                        "name": "F6",
                        "ticks": 29448,
                        "time": 153.375,
                        "velocity": 0.48031496062992124
                    },
                    {
                        "duration": 0.125,
                        "durationTicks": 24,
                        "midi": 77,
                        "name": "F5",
                        "ticks": 29448,
                        "time": 153.375,
                        "velocity": 0.48031496062992124
                    },
                    {
                        "duration": 0.125,
                        "durationTicks": 24,
                        "midi": 79,
                        "name": "G5",
                        "ticks": 29496,
                        "time": 153.625,
                        "velocity": 0.48031496062992124
                    },
                    {
                        "duration": 0.125,
                        "durationTicks": 24,
                        "midi": 91,
                        "name": "G6",
                        "ticks": 29496,
                        "time": 153.625,
                        "velocity": 0.48031496062992124
                    },
                    {
                        "duration": 0.125,
                        "durationTicks": 24,
                        "midi": 79,
                        "name": "G5",
                        "ticks": 29616,
                        "time": 154.25,
                        "velocity": 0.48031496062992124
                    },
                    {
                        "duration": 0.125,
                        "durationTicks": 24,
                        "midi": 91,
                        "name": "G6",
                        "ticks": 29616,
                        "time": 154.25,
                        "velocity": 0.48031496062992124
                    },
                    {
                        "duration": 0.125,
                        "durationTicks": 24,
                        "midi": 94,
                        "name": "A#6",
                        "ticks": 29640,
                        "time": 154.375,
                        "velocity": 0.48031496062992124
                    },
                    {
                        "duration": 0.125,
                        "durationTicks": 24,
                        "midi": 82,
                        "name": "A#5",
                        "ticks": 29640,
                        "time": 154.375,
                        "velocity": 0.48031496062992124
                    },
                    {
                        "duration": 0.125,
                        "durationTicks": 24,
                        "midi": 96,
                        "name": "C7",
                        "ticks": 29688,
                        "time": 154.625,
                        "velocity": 0.48031496062992124
                    },
                    {
                        "duration": 0.125,
                        "durationTicks": 24,
                        "midi": 84,
                        "name": "C6",
                        "ticks": 29688,
                        "time": 154.625,
                        "velocity": 0.48031496062992124
                    },
                    {
                        "duration": 0.125,
                        "durationTicks": 24,
                        "midi": 79,
                        "name": "G5",
                        "ticks": 29712,
                        "time": 154.75,
                        "velocity": 0.48031496062992124
                    },
                    {
                        "duration": 0.125,
                        "durationTicks": 24,
                        "midi": 91,
                        "name": "G6",
                        "ticks": 29712,
                        "time": 154.75,
                        "velocity": 0.48031496062992124
                    },
                    {
                        "duration": 0.125,
                        "durationTicks": 24,
                        "midi": 79,
                        "name": "G5",
                        "ticks": 29808,
                        "time": 155.25,
                        "velocity": 0.48031496062992124
                    },
                    {
                        "duration": 0.125,
                        "durationTicks": 24,
                        "midi": 91,
                        "name": "G6",
                        "ticks": 29808,
                        "time": 155.25,
                        "velocity": 0.48031496062992124
                    },
                    {
                        "duration": 0.125,
                        "durationTicks": 24,
                        "midi": 89,
                        "name": "F6",
                        "ticks": 29832,
                        "time": 155.375,
                        "velocity": 0.48031496062992124
                    },
                    {
                        "duration": 0.125,
                        "durationTicks": 24,
                        "midi": 77,
                        "name": "F5",
                        "ticks": 29832,
                        "time": 155.375,
                        "velocity": 0.48031496062992124
                    },
                    {
                        "duration": 0.125,
                        "durationTicks": 24,
                        "midi": 74,
                        "name": "D5",
                        "ticks": 29880,
                        "time": 155.625,
                        "velocity": 0.48031496062992124
                    },
                    {
                        "duration": 0.125,
                        "durationTicks": 24,
                        "midi": 86,
                        "name": "D6",
                        "ticks": 29880,
                        "time": 155.625,
                        "velocity": 0.48031496062992124
                    },
                    {
                        "duration": 0.125,
                        "durationTicks": 24,
                        "midi": 79,
                        "name": "G5",
                        "ticks": 30000,
                        "time": 156.25,
                        "velocity": 0.48031496062992124
                    },
                    {
                        "duration": 0.125,
                        "durationTicks": 24,
                        "midi": 91,
                        "name": "G6",
                        "ticks": 30000,
                        "time": 156.25,
                        "velocity": 0.48031496062992124
                    },
                    {
                        "duration": 0.125,
                        "durationTicks": 24,
                        "midi": 94,
                        "name": "A#6",
                        "ticks": 30024,
                        "time": 156.375,
                        "velocity": 0.48031496062992124
                    },
                    {
                        "duration": 0.125,
                        "durationTicks": 24,
                        "midi": 82,
                        "name": "A#5",
                        "ticks": 30024,
                        "time": 156.375,
                        "velocity": 0.48031496062992124
                    },
                    {
                        "duration": 0.125,
                        "durationTicks": 24,
                        "midi": 96,
                        "name": "C7",
                        "ticks": 30072,
                        "time": 156.625,
                        "velocity": 0.48031496062992124
                    },
                    {
                        "duration": 0.125,
                        "durationTicks": 24,
                        "midi": 84,
                        "name": "C6",
                        "ticks": 30072,
                        "time": 156.625,
                        "velocity": 0.48031496062992124
                    },
                    {
                        "duration": 0.125,
                        "durationTicks": 24,
                        "midi": 79,
                        "name": "G5",
                        "ticks": 30096,
                        "time": 156.75,
                        "velocity": 0.48031496062992124
                    },
                    {
                        "duration": 0.125,
                        "durationTicks": 24,
                        "midi": 91,
                        "name": "G6",
                        "ticks": 30096,
                        "time": 156.75,
                        "velocity": 0.48031496062992124
                    },
                    {
                        "duration": 0.125,
                        "durationTicks": 24,
                        "midi": 79,
                        "name": "G5",
                        "ticks": 30192,
                        "time": 157.25,
                        "velocity": 0.48031496062992124
                    },
                    {
                        "duration": 0.125,
                        "durationTicks": 24,
                        "midi": 91,
                        "name": "G6",
                        "ticks": 30192,
                        "time": 157.25,
                        "velocity": 0.48031496062992124
                    },
                    {
                        "duration": 0.125,
                        "durationTicks": 24,
                        "midi": 89,
                        "name": "F6",
                        "ticks": 30216,
                        "time": 157.375,
                        "velocity": 0.48031496062992124
                    },
                    {
                        "duration": 0.125,
                        "durationTicks": 24,
                        "midi": 77,
                        "name": "F5",
                        "ticks": 30216,
                        "time": 157.375,
                        "velocity": 0.48031496062992124
                    },
                    {
                        "duration": 0.125,
                        "durationTicks": 24,
                        "midi": 79,
                        "name": "G5",
                        "ticks": 30264,
                        "time": 157.625,
                        "velocity": 0.48031496062992124
                    },
                    {
                        "duration": 0.125,
                        "durationTicks": 24,
                        "midi": 91,
                        "name": "G6",
                        "ticks": 30264,
                        "time": 157.625,
                        "velocity": 0.48031496062992124
                    },
                    {
                        "duration": 0.125,
                        "durationTicks": 24,
                        "midi": 82,
                        "name": "A#5",
                        "ticks": 30384,
                        "time": 158.25,
                        "velocity": 0.48031496062992124
                    },
                    {
                        "duration": 0.125,
                        "durationTicks": 24,
                        "midi": 94,
                        "name": "A#6",
                        "ticks": 30384,
                        "time": 158.25,
                        "velocity": 0.48031496062992124
                    },
                    {
                        "duration": 0.125,
                        "durationTicks": 24,
                        "midi": 94,
                        "name": "A#6",
                        "ticks": 30408,
                        "time": 158.375,
                        "velocity": 0.48031496062992124
                    },
                    {
                        "duration": 0.125,
                        "durationTicks": 24,
                        "midi": 82,
                        "name": "A#5",
                        "ticks": 30408,
                        "time": 158.375,
                        "velocity": 0.48031496062992124
                    },
                    {
                        "duration": 0.125,
                        "durationTicks": 24,
                        "midi": 93,
                        "name": "A6",
                        "ticks": 30456,
                        "time": 158.625,
                        "velocity": 0.48031496062992124
                    },
                    {
                        "duration": 0.125,
                        "durationTicks": 24,
                        "midi": 81,
                        "name": "A5",
                        "ticks": 30456,
                        "time": 158.625,
                        "velocity": 0.48031496062992124
                    },
                    {
                        "duration": 0.125,
                        "durationTicks": 24,
                        "midi": 79,
                        "name": "G5",
                        "ticks": 30480,
                        "time": 158.75,
                        "velocity": 0.48031496062992124
                    },
                    {
                        "duration": 0.125,
                        "durationTicks": 24,
                        "midi": 91,
                        "name": "G6",
                        "ticks": 30480,
                        "time": 158.75,
                        "velocity": 0.48031496062992124
                    },
                    {
                        "duration": 0.125,
                        "durationTicks": 24,
                        "midi": 82,
                        "name": "A#5",
                        "ticks": 30552,
                        "time": 159.125,
                        "velocity": 0.48031496062992124
                    },
                    {
                        "duration": 0.125,
                        "durationTicks": 24,
                        "midi": 82,
                        "name": "A#5",
                        "ticks": 30576,
                        "time": 159.25,
                        "velocity": 0.48031496062992124
                    },
                    {
                        "duration": 0.125,
                        "durationTicks": 24,
                        "midi": 81,
                        "name": "A5",
                        "ticks": 30600,
                        "time": 159.375,
                        "velocity": 0.48031496062992124
                    },
                    {
                        "duration": 0.125,
                        "durationTicks": 24,
                        "midi": 82,
                        "name": "A#5",
                        "ticks": 30624,
                        "time": 159.5,
                        "velocity": 0.48031496062992124
                    },
                    {
                        "duration": 0.125,
                        "durationTicks": 24,
                        "midi": 74,
                        "name": "D5",
                        "ticks": 30648,
                        "time": 159.625,
                        "velocity": 0.48031496062992124
                    },
                    {
                        "duration": 0.125,
                        "durationTicks": 24,
                        "midi": 77,
                        "name": "F5",
                        "ticks": 30672,
                        "time": 159.75,
                        "velocity": 0.48031496062992124
                    },
                    {
                        "duration": 0.125,
                        "durationTicks": 24,
                        "midi": 81,
                        "name": "A5",
                        "ticks": 30696,
                        "time": 159.875,
                        "velocity": 0.48031496062992124
                    },
                    {
                        "duration": 0.125,
                        "durationTicks": 24,
                        "midi": 79,
                        "name": "G5",
                        "ticks": 30720,
                        "time": 160,
                        "velocity": 0.4015748031496063
                    },
                    {
                        "duration": 0.125,
                        "durationTicks": 24,
                        "midi": 67,
                        "name": "G4",
                        "ticks": 30720,
                        "time": 160,
                        "velocity": 0.4015748031496063
                    },
                    {
                        "duration": 0.125,
                        "durationTicks": 24,
                        "midi": 70,
                        "name": "A#4",
                        "ticks": 30720,
                        "time": 160,
                        "velocity": 0.4015748031496063
                    },
                    {
                        "duration": 0.125,
                        "durationTicks": 24,
                        "midi": 79,
                        "name": "G5",
                        "ticks": 30768,
                        "time": 160.25,
                        "velocity": 0.4015748031496063
                    },
                    {
                        "duration": 0.125,
                        "durationTicks": 24,
                        "midi": 67,
                        "name": "G4",
                        "ticks": 30768,
                        "time": 160.25,
                        "velocity": 0.4015748031496063
                    },
                    {
                        "duration": 0.125,
                        "durationTicks": 24,
                        "midi": 70,
                        "name": "A#4",
                        "ticks": 30768,
                        "time": 160.25,
                        "velocity": 0.4015748031496063
                    },
                    {
                        "duration": 0.125,
                        "durationTicks": 24,
                        "midi": 67,
                        "name": "G4",
                        "ticks": 30816,
                        "time": 160.5,
                        "velocity": 0.4015748031496063
                    },
                    {
                        "duration": 0.125,
                        "durationTicks": 24,
                        "midi": 79,
                        "name": "G5",
                        "ticks": 30816,
                        "time": 160.5,
                        "velocity": 0.4015748031496063
                    },
                    {
                        "duration": 0.125,
                        "durationTicks": 24,
                        "midi": 70,
                        "name": "A#4",
                        "ticks": 30816,
                        "time": 160.5,
                        "velocity": 0.4015748031496063
                    },
                    {
                        "duration": 0.125,
                        "durationTicks": 24,
                        "midi": 70,
                        "name": "A#4",
                        "ticks": 30840,
                        "time": 160.625,
                        "velocity": 0.4015748031496063
                    },
                    {
                        "duration": 0.125,
                        "durationTicks": 24,
                        "midi": 65,
                        "name": "F4",
                        "ticks": 30840,
                        "time": 160.625,
                        "velocity": 0.4015748031496063
                    },
                    {
                        "duration": 0.125,
                        "durationTicks": 24,
                        "midi": 77,
                        "name": "F5",
                        "ticks": 30840,
                        "time": 160.625,
                        "velocity": 0.4015748031496063
                    },
                    {
                        "duration": 0.125,
                        "durationTicks": 24,
                        "midi": 70,
                        "name": "A#4",
                        "ticks": 30864,
                        "time": 160.75,
                        "velocity": 0.4015748031496063
                    },
                    {
                        "duration": 0.125,
                        "durationTicks": 24,
                        "midi": 79,
                        "name": "G5",
                        "ticks": 30864,
                        "time": 160.75,
                        "velocity": 0.4015748031496063
                    },
                    {
                        "duration": 0.125,
                        "durationTicks": 24,
                        "midi": 67,
                        "name": "G4",
                        "ticks": 30864,
                        "time": 160.75,
                        "velocity": 0.4015748031496063
                    },
                    {
                        "duration": 0.25,
                        "durationTicks": 48,
                        "midi": 77,
                        "name": "F5",
                        "ticks": 30888,
                        "time": 160.875,
                        "velocity": 0.4015748031496063
                    },
                    {
                        "duration": 0.25,
                        "durationTicks": 48,
                        "midi": 65,
                        "name": "F4",
                        "ticks": 30888,
                        "time": 160.875,
                        "velocity": 0.4015748031496063
                    },
                    {
                        "duration": 0.125,
                        "durationTicks": 24,
                        "midi": 74,
                        "name": "D5",
                        "ticks": 30936,
                        "time": 161.125,
                        "velocity": 0.4015748031496063
                    },
                    {
                        "duration": 0.125,
                        "durationTicks": 24,
                        "midi": 82,
                        "name": "A#5",
                        "ticks": 30936,
                        "time": 161.125,
                        "velocity": 0.4015748031496063
                    },
                    {
                        "duration": 0.125,
                        "durationTicks": 24,
                        "midi": 70,
                        "name": "A#4",
                        "ticks": 30936,
                        "time": 161.125,
                        "velocity": 0.4015748031496063
                    },
                    {
                        "duration": 0.125,
                        "durationTicks": 24,
                        "midi": 70,
                        "name": "A#4",
                        "ticks": 30960,
                        "time": 161.25,
                        "velocity": 0.4015748031496063
                    },
                    {
                        "duration": 0.125,
                        "durationTicks": 24,
                        "midi": 82,
                        "name": "A#5",
                        "ticks": 30960,
                        "time": 161.25,
                        "velocity": 0.4015748031496063
                    },
                    {
                        "duration": 0.125,
                        "durationTicks": 24,
                        "midi": 74,
                        "name": "D5",
                        "ticks": 30960,
                        "time": 161.25,
                        "velocity": 0.4015748031496063
                    },
                    {
                        "duration": 0.125,
                        "durationTicks": 24,
                        "midi": 70,
                        "name": "A#4",
                        "ticks": 30984,
                        "time": 161.375,
                        "velocity": 0.4015748031496063
                    },
                    {
                        "duration": 0.125,
                        "durationTicks": 24,
                        "midi": 82,
                        "name": "A#5",
                        "ticks": 30984,
                        "time": 161.375,
                        "velocity": 0.4015748031496063
                    },
                    {
                        "duration": 0.125,
                        "durationTicks": 24,
                        "midi": 74,
                        "name": "D5",
                        "ticks": 30984,
                        "time": 161.375,
                        "velocity": 0.4015748031496063
                    },
                    {
                        "duration": 0.125,
                        "durationTicks": 24,
                        "midi": 74,
                        "name": "D5",
                        "ticks": 31008,
                        "time": 161.5,
                        "velocity": 0.4015748031496063
                    },
                    {
                        "duration": 0.125,
                        "durationTicks": 24,
                        "midi": 82,
                        "name": "A#5",
                        "ticks": 31008,
                        "time": 161.5,
                        "velocity": 0.4015748031496063
                    },
                    {
                        "duration": 0.125,
                        "durationTicks": 24,
                        "midi": 70,
                        "name": "A#4",
                        "ticks": 31008,
                        "time": 161.5,
                        "velocity": 0.4015748031496063
                    },
                    {
                        "duration": 0.125,
                        "durationTicks": 24,
                        "midi": 70,
                        "name": "A#4",
                        "ticks": 31032,
                        "time": 161.625,
                        "velocity": 0.4015748031496063
                    },
                    {
                        "duration": 0.125,
                        "durationTicks": 24,
                        "midi": 82,
                        "name": "A#5",
                        "ticks": 31032,
                        "time": 161.625,
                        "velocity": 0.4015748031496063
                    },
                    {
                        "duration": 0.125,
                        "durationTicks": 24,
                        "midi": 74,
                        "name": "D5",
                        "ticks": 31032,
                        "time": 161.625,
                        "velocity": 0.4015748031496063
                    },
                    {
                        "duration": 0.125,
                        "durationTicks": 24,
                        "midi": 70,
                        "name": "A#4",
                        "ticks": 31056,
                        "time": 161.75,
                        "velocity": 0.4015748031496063
                    },
                    {
                        "duration": 0.125,
                        "durationTicks": 24,
                        "midi": 82,
                        "name": "A#5",
                        "ticks": 31056,
                        "time": 161.75,
                        "velocity": 0.4015748031496063
                    },
                    {
                        "duration": 0.125,
                        "durationTicks": 24,
                        "midi": 74,
                        "name": "D5",
                        "ticks": 31056,
                        "time": 161.75,
                        "velocity": 0.4015748031496063
                    },
                    {
                        "duration": 0.125,
                        "durationTicks": 24,
                        "midi": 62,
                        "name": "D4",
                        "ticks": 31080,
                        "time": 161.875,
                        "velocity": 0.4015748031496063
                    },
                    {
                        "duration": 0.125,
                        "durationTicks": 24,
                        "midi": 74,
                        "name": "D5",
                        "ticks": 31080,
                        "time": 161.875,
                        "velocity": 0.4015748031496063
                    },
                    {
                        "duration": 0.125,
                        "durationTicks": 24,
                        "midi": 77,
                        "name": "F5",
                        "ticks": 31104,
                        "time": 162,
                        "velocity": 0.4015748031496063
                    },
                    {
                        "duration": 0.125,
                        "durationTicks": 24,
                        "midi": 65,
                        "name": "F4",
                        "ticks": 31104,
                        "time": 162,
                        "velocity": 0.4015748031496063
                    },
                    {
                        "duration": 0.125,
                        "durationTicks": 24,
                        "midi": 69,
                        "name": "A4",
                        "ticks": 31104,
                        "time": 162,
                        "velocity": 0.4015748031496063
                    },
                    {
                        "duration": 0.125,
                        "durationTicks": 24,
                        "midi": 69,
                        "name": "A4",
                        "ticks": 31152,
                        "time": 162.25,
                        "velocity": 0.4015748031496063
                    },
                    {
                        "duration": 0.125,
                        "durationTicks": 24,
                        "midi": 65,
                        "name": "F4",
                        "ticks": 31152,
                        "time": 162.25,
                        "velocity": 0.4015748031496063
                    },
                    {
                        "duration": 0.125,
                        "durationTicks": 24,
                        "midi": 77,
                        "name": "F5",
                        "ticks": 31152,
                        "time": 162.25,
                        "velocity": 0.4015748031496063
                    },
                    {
                        "duration": 0.125,
                        "durationTicks": 24,
                        "midi": 65,
                        "name": "F4",
                        "ticks": 31200,
                        "time": 162.5,
                        "velocity": 0.4015748031496063
                    },
                    {
                        "duration": 0.125,
                        "durationTicks": 24,
                        "midi": 77,
                        "name": "F5",
                        "ticks": 31200,
                        "time": 162.5,
                        "velocity": 0.4015748031496063
                    },
                    {
                        "duration": 0.125,
                        "durationTicks": 24,
                        "midi": 69,
                        "name": "A4",
                        "ticks": 31200,
                        "time": 162.5,
                        "velocity": 0.4015748031496063
                    },
                    {
                        "duration": 0.125,
                        "durationTicks": 24,
                        "midi": 69,
                        "name": "A4",
                        "ticks": 31224,
                        "time": 162.625,
                        "velocity": 0.4015748031496063
                    },
                    {
                        "duration": 0.125,
                        "durationTicks": 24,
                        "midi": 62,
                        "name": "D4",
                        "ticks": 31224,
                        "time": 162.625,
                        "velocity": 0.4015748031496063
                    },
                    {
                        "duration": 0.125,
                        "durationTicks": 24,
                        "midi": 74,
                        "name": "D5",
                        "ticks": 31224,
                        "time": 162.625,
                        "velocity": 0.4015748031496063
                    },
                    {
                        "duration": 0.125,
                        "durationTicks": 24,
                        "midi": 69,
                        "name": "A4",
                        "ticks": 31248,
                        "time": 162.75,
                        "velocity": 0.4015748031496063
                    },
                    {
                        "duration": 0.125,
                        "durationTicks": 24,
                        "midi": 81,
                        "name": "A5",
                        "ticks": 31248,
                        "time": 162.75,
                        "velocity": 0.4015748031496063
                    },
                    {
                        "duration": 0.25,
                        "durationTicks": 48,
                        "midi": 74,
                        "name": "D5",
                        "ticks": 31272,
                        "time": 162.875,
                        "velocity": 0.4015748031496063
                    },
                    {
                        "duration": 0.25,
                        "durationTicks": 48,
                        "midi": 82,
                        "name": "A#5",
                        "ticks": 31272,
                        "time": 162.875,
                        "velocity": 0.4015748031496063
                    },
                    {
                        "duration": 0.25,
                        "durationTicks": 48,
                        "midi": 70,
                        "name": "A#4",
                        "ticks": 31272,
                        "time": 162.875,
                        "velocity": 0.4015748031496063
                    },
                    {
                        "duration": 0.125,
                        "durationTicks": 24,
                        "midi": 74,
                        "name": "D5",
                        "ticks": 31320,
                        "time": 163.125,
                        "velocity": 0.4015748031496063
                    },
                    {
                        "duration": 0.125,
                        "durationTicks": 24,
                        "midi": 82,
                        "name": "A#5",
                        "ticks": 31320,
                        "time": 163.125,
                        "velocity": 0.4015748031496063
                    },
                    {
                        "duration": 0.125,
                        "durationTicks": 24,
                        "midi": 70,
                        "name": "A#4",
                        "ticks": 31320,
                        "time": 163.125,
                        "velocity": 0.4015748031496063
                    },
                    {
                        "duration": 0.125,
                        "durationTicks": 24,
                        "midi": 70,
                        "name": "A#4",
                        "ticks": 31344,
                        "time": 163.25,
                        "velocity": 0.4015748031496063
                    },
                    {
                        "duration": 0.125,
                        "durationTicks": 24,
                        "midi": 82,
                        "name": "A#5",
                        "ticks": 31344,
                        "time": 163.25,
                        "velocity": 0.4015748031496063
                    },
                    {
                        "duration": 0.125,
                        "durationTicks": 24,
                        "midi": 74,
                        "name": "D5",
                        "ticks": 31344,
                        "time": 163.25,
                        "velocity": 0.4015748031496063
                    },
                    {
                        "duration": 0.125,
                        "durationTicks": 24,
                        "midi": 74,
                        "name": "D5",
                        "ticks": 31368,
                        "time": 163.375,
                        "velocity": 0.4015748031496063
                    },
                    {
                        "duration": 0.125,
                        "durationTicks": 24,
                        "midi": 69,
                        "name": "A4",
                        "ticks": 31368,
                        "time": 163.375,
                        "velocity": 0.4015748031496063
                    },
                    {
                        "duration": 0.125,
                        "durationTicks": 24,
                        "midi": 81,
                        "name": "A5",
                        "ticks": 31368,
                        "time": 163.375,
                        "velocity": 0.4015748031496063
                    },
                    {
                        "duration": 0.125,
                        "durationTicks": 24,
                        "midi": 70,
                        "name": "A#4",
                        "ticks": 31392,
                        "time": 163.5,
                        "velocity": 0.4015748031496063
                    },
                    {
                        "duration": 0.125,
                        "durationTicks": 24,
                        "midi": 82,
                        "name": "A#5",
                        "ticks": 31392,
                        "time": 163.5,
                        "velocity": 0.4015748031496063
                    },
                    {
                        "duration": 0.125,
                        "durationTicks": 24,
                        "midi": 74,
                        "name": "D5",
                        "ticks": 31392,
                        "time": 163.5,
                        "velocity": 0.4015748031496063
                    },
                    {
                        "duration": 0.125,
                        "durationTicks": 24,
                        "midi": 81,
                        "name": "A5",
                        "ticks": 31416,
                        "time": 163.625,
                        "velocity": 0.4015748031496063
                    },
                    {
                        "duration": 0.125,
                        "durationTicks": 24,
                        "midi": 69,
                        "name": "A4",
                        "ticks": 31416,
                        "time": 163.625,
                        "velocity": 0.4015748031496063
                    },
                    {
                        "duration": 0.125,
                        "durationTicks": 24,
                        "midi": 74,
                        "name": "D5",
                        "ticks": 31416,
                        "time": 163.625,
                        "velocity": 0.4015748031496063
                    },
                    {
                        "duration": 0.125,
                        "durationTicks": 24,
                        "midi": 82,
                        "name": "A#5",
                        "ticks": 31440,
                        "time": 163.75,
                        "velocity": 0.4015748031496063
                    },
                    {
                        "duration": 0.125,
                        "durationTicks": 24,
                        "midi": 70,
                        "name": "A#4",
                        "ticks": 31440,
                        "time": 163.75,
                        "velocity": 0.4015748031496063
                    },
                    {
                        "duration": 0.125,
                        "durationTicks": 24,
                        "midi": 74,
                        "name": "D5",
                        "ticks": 31440,
                        "time": 163.75,
                        "velocity": 0.4015748031496063
                    },
                    {
                        "duration": 0.125,
                        "durationTicks": 24,
                        "midi": 74,
                        "name": "D5",
                        "ticks": 31464,
                        "time": 163.875,
                        "velocity": 0.4015748031496063
                    },
                    {
                        "duration": 0.125,
                        "durationTicks": 24,
                        "midi": 69,
                        "name": "A4",
                        "ticks": 31464,
                        "time": 163.875,
                        "velocity": 0.4015748031496063
                    },
                    {
                        "duration": 0.125,
                        "durationTicks": 24,
                        "midi": 81,
                        "name": "A5",
                        "ticks": 31464,
                        "time": 163.875,
                        "velocity": 0.4015748031496063
                    },
                    {
                        "duration": 0.125,
                        "durationTicks": 24,
                        "midi": 67,
                        "name": "G4",
                        "ticks": 31488,
                        "time": 164,
                        "velocity": 0.4015748031496063
                    },
                    {
                        "duration": 0.125,
                        "durationTicks": 24,
                        "midi": 79,
                        "name": "G5",
                        "ticks": 31488,
                        "time": 164,
                        "velocity": 0.4015748031496063
                    },
                    {
                        "duration": 0.125,
                        "durationTicks": 24,
                        "midi": 70,
                        "name": "A#4",
                        "ticks": 31488,
                        "time": 164,
                        "velocity": 0.4015748031496063
                    },
                    {
                        "duration": 0.125,
                        "durationTicks": 24,
                        "midi": 70,
                        "name": "A#4",
                        "ticks": 31536,
                        "time": 164.25,
                        "velocity": 0.4015748031496063
                    },
                    {
                        "duration": 0.125,
                        "durationTicks": 24,
                        "midi": 79,
                        "name": "G5",
                        "ticks": 31536,
                        "time": 164.25,
                        "velocity": 0.4015748031496063
                    },
                    {
                        "duration": 0.125,
                        "durationTicks": 24,
                        "midi": 67,
                        "name": "G4",
                        "ticks": 31536,
                        "time": 164.25,
                        "velocity": 0.4015748031496063
                    },
                    {
                        "duration": 0.125,
                        "durationTicks": 24,
                        "midi": 79,
                        "name": "G5",
                        "ticks": 31584,
                        "time": 164.5,
                        "velocity": 0.4015748031496063
                    },
                    {
                        "duration": 0.125,
                        "durationTicks": 24,
                        "midi": 67,
                        "name": "G4",
                        "ticks": 31584,
                        "time": 164.5,
                        "velocity": 0.4015748031496063
                    },
                    {
                        "duration": 0.125,
                        "durationTicks": 24,
                        "midi": 70,
                        "name": "A#4",
                        "ticks": 31584,
                        "time": 164.5,
                        "velocity": 0.4015748031496063
                    },
                    {
                        "duration": 0.125,
                        "durationTicks": 24,
                        "midi": 70,
                        "name": "A#4",
                        "ticks": 31608,
                        "time": 164.625,
                        "velocity": 0.4015748031496063
                    },
                    {
                        "duration": 0.125,
                        "durationTicks": 24,
                        "midi": 77,
                        "name": "F5",
                        "ticks": 31608,
                        "time": 164.625,
                        "velocity": 0.4015748031496063
                    },
                    {
                        "duration": 0.125,
                        "durationTicks": 24,
                        "midi": 65,
                        "name": "F4",
                        "ticks": 31608,
                        "time": 164.625,
                        "velocity": 0.4015748031496063
                    },
                    {
                        "duration": 0.125,
                        "durationTicks": 24,
                        "midi": 67,
                        "name": "G4",
                        "ticks": 31632,
                        "time": 164.75,
                        "velocity": 0.4015748031496063
                    },
                    {
                        "duration": 0.125,
                        "durationTicks": 24,
                        "midi": 79,
                        "name": "G5",
                        "ticks": 31632,
                        "time": 164.75,
                        "velocity": 0.4015748031496063
                    },
                    {
                        "duration": 0.125,
                        "durationTicks": 24,
                        "midi": 70,
                        "name": "A#4",
                        "ticks": 31632,
                        "time": 164.75,
                        "velocity": 0.4015748031496063
                    },
                    {
                        "duration": 0.25,
                        "durationTicks": 48,
                        "midi": 65,
                        "name": "F4",
                        "ticks": 31656,
                        "time": 164.875,
                        "velocity": 0.4015748031496063
                    },
                    {
                        "duration": 0.25,
                        "durationTicks": 48,
                        "midi": 77,
                        "name": "F5",
                        "ticks": 31656,
                        "time": 164.875,
                        "velocity": 0.4015748031496063
                    },
                    {
                        "duration": 0.125,
                        "durationTicks": 24,
                        "midi": 74,
                        "name": "D5",
                        "ticks": 31704,
                        "time": 165.125,
                        "velocity": 0.4015748031496063
                    },
                    {
                        "duration": 0.125,
                        "durationTicks": 24,
                        "midi": 82,
                        "name": "A#5",
                        "ticks": 31704,
                        "time": 165.125,
                        "velocity": 0.4015748031496063
                    },
                    {
                        "duration": 0.125,
                        "durationTicks": 24,
                        "midi": 70,
                        "name": "A#4",
                        "ticks": 31704,
                        "time": 165.125,
                        "velocity": 0.4015748031496063
                    },
                    {
                        "duration": 0.125,
                        "durationTicks": 24,
                        "midi": 82,
                        "name": "A#5",
                        "ticks": 31728,
                        "time": 165.25,
                        "velocity": 0.4015748031496063
                    },
                    {
                        "duration": 0.125,
                        "durationTicks": 24,
                        "midi": 70,
                        "name": "A#4",
                        "ticks": 31728,
                        "time": 165.25,
                        "velocity": 0.4015748031496063
                    },
                    {
                        "duration": 0.125,
                        "durationTicks": 24,
                        "midi": 74,
                        "name": "D5",
                        "ticks": 31728,
                        "time": 165.25,
                        "velocity": 0.4015748031496063
                    },
                    {
                        "duration": 0.125,
                        "durationTicks": 24,
                        "midi": 82,
                        "name": "A#5",
                        "ticks": 31752,
                        "time": 165.375,
                        "velocity": 0.4015748031496063
                    },
                    {
                        "duration": 0.125,
                        "durationTicks": 24,
                        "midi": 70,
                        "name": "A#4",
                        "ticks": 31752,
                        "time": 165.375,
                        "velocity": 0.4015748031496063
                    },
                    {
                        "duration": 0.125,
                        "durationTicks": 24,
                        "midi": 74,
                        "name": "D5",
                        "ticks": 31752,
                        "time": 165.375,
                        "velocity": 0.4015748031496063
                    },
                    {
                        "duration": 0.125,
                        "durationTicks": 24,
                        "midi": 82,
                        "name": "A#5",
                        "ticks": 31776,
                        "time": 165.5,
                        "velocity": 0.4015748031496063
                    },
                    {
                        "duration": 0.125,
                        "durationTicks": 24,
                        "midi": 70,
                        "name": "A#4",
                        "ticks": 31776,
                        "time": 165.5,
                        "velocity": 0.4015748031496063
                    },
                    {
                        "duration": 0.125,
                        "durationTicks": 24,
                        "midi": 74,
                        "name": "D5",
                        "ticks": 31776,
                        "time": 165.5,
                        "velocity": 0.4015748031496063
                    },
                    {
                        "duration": 0.125,
                        "durationTicks": 24,
                        "midi": 74,
                        "name": "D5",
                        "ticks": 31800,
                        "time": 165.625,
                        "velocity": 0.4015748031496063
                    },
                    {
                        "duration": 0.125,
                        "durationTicks": 24,
                        "midi": 70,
                        "name": "A#4",
                        "ticks": 31800,
                        "time": 165.625,
                        "velocity": 0.4015748031496063
                    },
                    {
                        "duration": 0.125,
                        "durationTicks": 24,
                        "midi": 82,
                        "name": "A#5",
                        "ticks": 31800,
                        "time": 165.625,
                        "velocity": 0.4015748031496063
                    },
                    {
                        "duration": 0.125,
                        "durationTicks": 24,
                        "midi": 82,
                        "name": "A#5",
                        "ticks": 31824,
                        "time": 165.75,
                        "velocity": 0.4015748031496063
                    },
                    {
                        "duration": 0.125,
                        "durationTicks": 24,
                        "midi": 70,
                        "name": "A#4",
                        "ticks": 31824,
                        "time": 165.75,
                        "velocity": 0.4015748031496063
                    },
                    {
                        "duration": 0.125,
                        "durationTicks": 24,
                        "midi": 74,
                        "name": "D5",
                        "ticks": 31824,
                        "time": 165.75,
                        "velocity": 0.4015748031496063
                    },
                    {
                        "duration": 0.125,
                        "durationTicks": 24,
                        "midi": 74,
                        "name": "D5",
                        "ticks": 31848,
                        "time": 165.875,
                        "velocity": 0.4015748031496063
                    },
                    {
                        "duration": 0.125,
                        "durationTicks": 24,
                        "midi": 62,
                        "name": "D4",
                        "ticks": 31848,
                        "time": 165.875,
                        "velocity": 0.4015748031496063
                    },
                    {
                        "duration": 0.125,
                        "durationTicks": 24,
                        "midi": 74,
                        "name": "D5",
                        "ticks": 31848,
                        "time": 165.875,
                        "velocity": 0.4015748031496063
                    },
                    {
                        "duration": 0.125,
                        "durationTicks": 24,
                        "midi": 65,
                        "name": "F4",
                        "ticks": 31872,
                        "time": 166,
                        "velocity": 0.4015748031496063
                    },
                    {
                        "duration": 0.125,
                        "durationTicks": 24,
                        "midi": 77,
                        "name": "F5",
                        "ticks": 31872,
                        "time": 166,
                        "velocity": 0.4015748031496063
                    },
                    {
                        "duration": 0.125,
                        "durationTicks": 24,
                        "midi": 69,
                        "name": "A4",
                        "ticks": 31872,
                        "time": 166,
                        "velocity": 0.4015748031496063
                    },
                    {
                        "duration": 0.125,
                        "durationTicks": 24,
                        "midi": 65,
                        "name": "F4",
                        "ticks": 31920,
                        "time": 166.25,
                        "velocity": 0.4015748031496063
                    },
                    {
                        "duration": 0.125,
                        "durationTicks": 24,
                        "midi": 77,
                        "name": "F5",
                        "ticks": 31920,
                        "time": 166.25,
                        "velocity": 0.4015748031496063
                    },
                    {
                        "duration": 0.125,
                        "durationTicks": 24,
                        "midi": 69,
                        "name": "A4",
                        "ticks": 31920,
                        "time": 166.25,
                        "velocity": 0.4015748031496063
                    },
                    {
                        "duration": 0.125,
                        "durationTicks": 24,
                        "midi": 69,
                        "name": "A4",
                        "ticks": 31968,
                        "time": 166.5,
                        "velocity": 0.4015748031496063
                    },
                    {
                        "duration": 0.125,
                        "durationTicks": 24,
                        "midi": 65,
                        "name": "F4",
                        "ticks": 31968,
                        "time": 166.5,
                        "velocity": 0.4015748031496063
                    },
                    {
                        "duration": 0.125,
                        "durationTicks": 24,
                        "midi": 77,
                        "name": "F5",
                        "ticks": 31968,
                        "time": 166.5,
                        "velocity": 0.4015748031496063
                    },
                    {
                        "duration": 0.125,
                        "durationTicks": 24,
                        "midi": 69,
                        "name": "A4",
                        "ticks": 31992,
                        "time": 166.625,
                        "velocity": 0.4015748031496063
                    },
                    {
                        "duration": 0.125,
                        "durationTicks": 24,
                        "midi": 62,
                        "name": "D4",
                        "ticks": 31992,
                        "time": 166.625,
                        "velocity": 0.4015748031496063
                    },
                    {
                        "duration": 0.125,
                        "durationTicks": 24,
                        "midi": 74,
                        "name": "D5",
                        "ticks": 31992,
                        "time": 166.625,
                        "velocity": 0.4015748031496063
                    },
                    {
                        "duration": 0.125,
                        "durationTicks": 24,
                        "midi": 74,
                        "name": "D5",
                        "ticks": 32016,
                        "time": 166.75,
                        "velocity": 0.4015748031496063
                    },
                    {
                        "duration": 0.125,
                        "durationTicks": 24,
                        "midi": 69,
                        "name": "A4",
                        "ticks": 32016,
                        "time": 166.75,
                        "velocity": 0.4015748031496063
                    },
                    {
                        "duration": 0.125,
                        "durationTicks": 24,
                        "midi": 81,
                        "name": "A5",
                        "ticks": 32016,
                        "time": 166.75,
                        "velocity": 0.4015748031496063
                    },
                    {
                        "duration": 0.25,
                        "durationTicks": 48,
                        "midi": 82,
                        "name": "A#5",
                        "ticks": 32040,
                        "time": 166.875,
                        "velocity": 0.4015748031496063
                    },
                    {
                        "duration": 0.25,
                        "durationTicks": 48,
                        "midi": 74,
                        "name": "D5",
                        "ticks": 32040,
                        "time": 166.875,
                        "velocity": 0.4015748031496063
                    },
                    {
                        "duration": 0.25,
                        "durationTicks": 48,
                        "midi": 70,
                        "name": "A#4",
                        "ticks": 32040,
                        "time": 166.875,
                        "velocity": 0.4015748031496063
                    },
                    {
                        "duration": 0.125,
                        "durationTicks": 24,
                        "midi": 82,
                        "name": "A#5",
                        "ticks": 32088,
                        "time": 167.125,
                        "velocity": 0.48031496062992124
                    },
                    {
                        "duration": 0.125,
                        "durationTicks": 24,
                        "midi": 70,
                        "name": "A#4",
                        "ticks": 32088,
                        "time": 167.125,
                        "velocity": 0.48031496062992124
                    },
                    {
                        "duration": 0.125,
                        "durationTicks": 24,
                        "midi": 74,
                        "name": "D5",
                        "ticks": 32088,
                        "time": 167.125,
                        "velocity": 0.48031496062992124
                    },
                    {
                        "duration": 0.125,
                        "durationTicks": 24,
                        "midi": 82,
                        "name": "A#5",
                        "ticks": 32112,
                        "time": 167.25,
                        "velocity": 0.48031496062992124
                    },
                    {
                        "duration": 0.125,
                        "durationTicks": 24,
                        "midi": 74,
                        "name": "D5",
                        "ticks": 32112,
                        "time": 167.25,
                        "velocity": 0.48031496062992124
                    },
                    {
                        "duration": 0.125,
                        "durationTicks": 24,
                        "midi": 70,
                        "name": "A#4",
                        "ticks": 32112,
                        "time": 167.25,
                        "velocity": 0.48031496062992124
                    },
                    {
                        "duration": 0.125,
                        "durationTicks": 24,
                        "midi": 69,
                        "name": "A4",
                        "ticks": 32136,
                        "time": 167.375,
                        "velocity": 0.48031496062992124
                    },
                    {
                        "duration": 0.125,
                        "durationTicks": 24,
                        "midi": 81,
                        "name": "A5",
                        "ticks": 32136,
                        "time": 167.375,
                        "velocity": 0.48031496062992124
                    },
                    {
                        "duration": 0.125,
                        "durationTicks": 24,
                        "midi": 74,
                        "name": "D5",
                        "ticks": 32136,
                        "time": 167.375,
                        "velocity": 0.48031496062992124
                    },
                    {
                        "duration": 0.125,
                        "durationTicks": 24,
                        "midi": 82,
                        "name": "A#5",
                        "ticks": 32160,
                        "time": 167.5,
                        "velocity": 0.48031496062992124
                    },
                    {
                        "duration": 0.125,
                        "durationTicks": 24,
                        "midi": 74,
                        "name": "D5",
                        "ticks": 32160,
                        "time": 167.5,
                        "velocity": 0.48031496062992124
                    },
                    {
                        "duration": 0.125,
                        "durationTicks": 24,
                        "midi": 70,
                        "name": "A#4",
                        "ticks": 32160,
                        "time": 167.5,
                        "velocity": 0.48031496062992124
                    },
                    {
                        "duration": 0.125,
                        "durationTicks": 24,
                        "midi": 74,
                        "name": "D5",
                        "ticks": 32184,
                        "time": 167.625,
                        "velocity": 0.48031496062992124
                    },
                    {
                        "duration": 0.125,
                        "durationTicks": 24,
                        "midi": 62,
                        "name": "D4",
                        "ticks": 32184,
                        "time": 167.625,
                        "velocity": 0.48031496062992124
                    },
                    {
                        "duration": 0.125,
                        "durationTicks": 24,
                        "midi": 65,
                        "name": "F4",
                        "ticks": 32208,
                        "time": 167.75,
                        "velocity": 0.48031496062992124
                    },
                    {
                        "duration": 0.125,
                        "durationTicks": 24,
                        "midi": 77,
                        "name": "F5",
                        "ticks": 32208,
                        "time": 167.75,
                        "velocity": 0.48031496062992124
                    },
                    {
                        "duration": 0.125,
                        "durationTicks": 24,
                        "midi": 69,
                        "name": "A4",
                        "ticks": 32232,
                        "time": 167.875,
                        "velocity": 0.48031496062992124
                    },
                    {
                        "duration": 0.125,
                        "durationTicks": 24,
                        "midi": 81,
                        "name": "A5",
                        "ticks": 32232,
                        "time": 167.875,
                        "velocity": 0.48031496062992124
                    },
                    {
                        "duration": 0.125,
                        "durationTicks": 24,
                        "midi": 67,
                        "name": "G4",
                        "ticks": 32256,
                        "time": 168,
                        "velocity": 0.4015748031496063
                    },
                    {
                        "duration": 0.125,
                        "durationTicks": 24,
                        "midi": 79,
                        "name": "G5",
                        "ticks": 32256,
                        "time": 168,
                        "velocity": 0.4015748031496063
                    },
                    {
                        "duration": 0.125,
                        "durationTicks": 24,
                        "midi": 70,
                        "name": "A#4",
                        "ticks": 32256,
                        "time": 168,
                        "velocity": 0.4015748031496063
                    },
                    {
                        "duration": 0.125,
                        "durationTicks": 24,
                        "midi": 70,
                        "name": "A#4",
                        "ticks": 32304,
                        "time": 168.25,
                        "velocity": 0.4015748031496063
                    },
                    {
                        "duration": 0.125,
                        "durationTicks": 24,
                        "midi": 79,
                        "name": "G5",
                        "ticks": 32304,
                        "time": 168.25,
                        "velocity": 0.4015748031496063
                    },
                    {
                        "duration": 0.125,
                        "durationTicks": 24,
                        "midi": 67,
                        "name": "G4",
                        "ticks": 32304,
                        "time": 168.25,
                        "velocity": 0.4015748031496063
                    },
                    {
                        "duration": 0.125,
                        "durationTicks": 24,
                        "midi": 67,
                        "name": "G4",
                        "ticks": 32352,
                        "time": 168.5,
                        "velocity": 0.4015748031496063
                    },
                    {
                        "duration": 0.125,
                        "durationTicks": 24,
                        "midi": 79,
                        "name": "G5",
                        "ticks": 32352,
                        "time": 168.5,
                        "velocity": 0.4015748031496063
                    },
                    {
                        "duration": 0.125,
                        "durationTicks": 24,
                        "midi": 70,
                        "name": "A#4",
                        "ticks": 32352,
                        "time": 168.5,
                        "velocity": 0.4015748031496063
                    },
                    {
                        "duration": 0.125,
                        "durationTicks": 24,
                        "midi": 70,
                        "name": "A#4",
                        "ticks": 32376,
                        "time": 168.625,
                        "velocity": 0.4015748031496063
                    },
                    {
                        "duration": 0.125,
                        "durationTicks": 24,
                        "midi": 77,
                        "name": "F5",
                        "ticks": 32376,
                        "time": 168.625,
                        "velocity": 0.4015748031496063
                    },
                    {
                        "duration": 0.125,
                        "durationTicks": 24,
                        "midi": 65,
                        "name": "F4",
                        "ticks": 32376,
                        "time": 168.625,
                        "velocity": 0.4015748031496063
                    },
                    {
                        "duration": 0.125,
                        "durationTicks": 24,
                        "midi": 67,
                        "name": "G4",
                        "ticks": 32400,
                        "time": 168.75,
                        "velocity": 0.4015748031496063
                    },
                    {
                        "duration": 0.125,
                        "durationTicks": 24,
                        "midi": 79,
                        "name": "G5",
                        "ticks": 32400,
                        "time": 168.75,
                        "velocity": 0.4015748031496063
                    },
                    {
                        "duration": 0.125,
                        "durationTicks": 24,
                        "midi": 70,
                        "name": "A#4",
                        "ticks": 32400,
                        "time": 168.75,
                        "velocity": 0.4015748031496063
                    },
                    {
                        "duration": 0.25,
                        "durationTicks": 48,
                        "midi": 65,
                        "name": "F4",
                        "ticks": 32424,
                        "time": 168.875,
                        "velocity": 0.4015748031496063
                    },
                    {
                        "duration": 0.25,
                        "durationTicks": 48,
                        "midi": 77,
                        "name": "F5",
                        "ticks": 32424,
                        "time": 168.875,
                        "velocity": 0.4015748031496063
                    },
                    {
                        "duration": 0.125,
                        "durationTicks": 24,
                        "midi": 70,
                        "name": "A#4",
                        "ticks": 32472,
                        "time": 169.125,
                        "velocity": 0.4015748031496063
                    },
                    {
                        "duration": 0.125,
                        "durationTicks": 24,
                        "midi": 82,
                        "name": "A#5",
                        "ticks": 32472,
                        "time": 169.125,
                        "velocity": 0.4015748031496063
                    },
                    {
                        "duration": 0.125,
                        "durationTicks": 24,
                        "midi": 74,
                        "name": "D5",
                        "ticks": 32472,
                        "time": 169.125,
                        "velocity": 0.4015748031496063
                    },
                    {
                        "duration": 0.125,
                        "durationTicks": 24,
                        "midi": 74,
                        "name": "D5",
                        "ticks": 32496,
                        "time": 169.25,
                        "velocity": 0.4015748031496063
                    },
                    {
                        "duration": 0.125,
                        "durationTicks": 24,
                        "midi": 82,
                        "name": "A#5",
                        "ticks": 32496,
                        "time": 169.25,
                        "velocity": 0.4015748031496063
                    },
                    {
                        "duration": 0.125,
                        "durationTicks": 24,
                        "midi": 70,
                        "name": "A#4",
                        "ticks": 32496,
                        "time": 169.25,
                        "velocity": 0.4015748031496063
                    },
                    {
                        "duration": 0.125,
                        "durationTicks": 24,
                        "midi": 74,
                        "name": "D5",
                        "ticks": 32520,
                        "time": 169.375,
                        "velocity": 0.4015748031496063
                    },
                    {
                        "duration": 0.125,
                        "durationTicks": 24,
                        "midi": 82,
                        "name": "A#5",
                        "ticks": 32520,
                        "time": 169.375,
                        "velocity": 0.4015748031496063
                    },
                    {
                        "duration": 0.125,
                        "durationTicks": 24,
                        "midi": 70,
                        "name": "A#4",
                        "ticks": 32520,
                        "time": 169.375,
                        "velocity": 0.4015748031496063
                    },
                    {
                        "duration": 0.125,
                        "durationTicks": 24,
                        "midi": 74,
                        "name": "D5",
                        "ticks": 32544,
                        "time": 169.5,
                        "velocity": 0.4015748031496063
                    },
                    {
                        "duration": 0.125,
                        "durationTicks": 24,
                        "midi": 70,
                        "name": "A#4",
                        "ticks": 32544,
                        "time": 169.5,
                        "velocity": 0.4015748031496063
                    },
                    {
                        "duration": 0.125,
                        "durationTicks": 24,
                        "midi": 82,
                        "name": "A#5",
                        "ticks": 32544,
                        "time": 169.5,
                        "velocity": 0.4015748031496063
                    },
                    {
                        "duration": 0.125,
                        "durationTicks": 24,
                        "midi": 74,
                        "name": "D5",
                        "ticks": 32568,
                        "time": 169.625,
                        "velocity": 0.4015748031496063
                    },
                    {
                        "duration": 0.125,
                        "durationTicks": 24,
                        "midi": 82,
                        "name": "A#5",
                        "ticks": 32568,
                        "time": 169.625,
                        "velocity": 0.4015748031496063
                    },
                    {
                        "duration": 0.125,
                        "durationTicks": 24,
                        "midi": 70,
                        "name": "A#4",
                        "ticks": 32568,
                        "time": 169.625,
                        "velocity": 0.4015748031496063
                    },
                    {
                        "duration": 0.125,
                        "durationTicks": 24,
                        "midi": 70,
                        "name": "A#4",
                        "ticks": 32592,
                        "time": 169.75,
                        "velocity": 0.4015748031496063
                    },
                    {
                        "duration": 0.125,
                        "durationTicks": 24,
                        "midi": 82,
                        "name": "A#5",
                        "ticks": 32592,
                        "time": 169.75,
                        "velocity": 0.4015748031496063
                    },
                    {
                        "duration": 0.125,
                        "durationTicks": 24,
                        "midi": 74,
                        "name": "D5",
                        "ticks": 32592,
                        "time": 169.75,
                        "velocity": 0.4015748031496063
                    },
                    {
                        "duration": 0.125,
                        "durationTicks": 24,
                        "midi": 62,
                        "name": "D4",
                        "ticks": 32616,
                        "time": 169.875,
                        "velocity": 0.4015748031496063
                    },
                    {
                        "duration": 0.125,
                        "durationTicks": 24,
                        "midi": 74,
                        "name": "D5",
                        "ticks": 32616,
                        "time": 169.875,
                        "velocity": 0.4015748031496063
                    },
                    {
                        "duration": 0.125,
                        "durationTicks": 24,
                        "midi": 77,
                        "name": "F5",
                        "ticks": 32640,
                        "time": 170,
                        "velocity": 0.4015748031496063
                    },
                    {
                        "duration": 0.125,
                        "durationTicks": 24,
                        "midi": 65,
                        "name": "F4",
                        "ticks": 32640,
                        "time": 170,
                        "velocity": 0.4015748031496063
                    },
                    {
                        "duration": 0.125,
                        "durationTicks": 24,
                        "midi": 69,
                        "name": "A4",
                        "ticks": 32640,
                        "time": 170,
                        "velocity": 0.4015748031496063
                    },
                    {
                        "duration": 0.125,
                        "durationTicks": 24,
                        "midi": 69,
                        "name": "A4",
                        "ticks": 32688,
                        "time": 170.25,
                        "velocity": 0.4015748031496063
                    },
                    {
                        "duration": 0.125,
                        "durationTicks": 24,
                        "midi": 65,
                        "name": "F4",
                        "ticks": 32688,
                        "time": 170.25,
                        "velocity": 0.4015748031496063
                    },
                    {
                        "duration": 0.125,
                        "durationTicks": 24,
                        "midi": 77,
                        "name": "F5",
                        "ticks": 32688,
                        "time": 170.25,
                        "velocity": 0.4015748031496063
                    },
                    {
                        "duration": 0.125,
                        "durationTicks": 24,
                        "midi": 65,
                        "name": "F4",
                        "ticks": 32736,
                        "time": 170.5,
                        "velocity": 0.4015748031496063
                    },
                    {
                        "duration": 0.125,
                        "durationTicks": 24,
                        "midi": 77,
                        "name": "F5",
                        "ticks": 32736,
                        "time": 170.5,
                        "velocity": 0.4015748031496063
                    },
                    {
                        "duration": 0.125,
                        "durationTicks": 24,
                        "midi": 69,
                        "name": "A4",
                        "ticks": 32736,
                        "time": 170.5,
                        "velocity": 0.4015748031496063
                    },
                    {
                        "duration": 0.125,
                        "durationTicks": 24,
                        "midi": 62,
                        "name": "D4",
                        "ticks": 32760,
                        "time": 170.625,
                        "velocity": 0.4015748031496063
                    },
                    {
                        "duration": 0.125,
                        "durationTicks": 24,
                        "midi": 74,
                        "name": "D5",
                        "ticks": 32760,
                        "time": 170.625,
                        "velocity": 0.4015748031496063
                    },
                    {
                        "duration": 0.125,
                        "durationTicks": 24,
                        "midi": 69,
                        "name": "A4",
                        "ticks": 32760,
                        "time": 170.625,
                        "velocity": 0.4015748031496063
                    },
                    {
                        "duration": 0.125,
                        "durationTicks": 24,
                        "midi": 81,
                        "name": "A5",
                        "ticks": 32784,
                        "time": 170.75,
                        "velocity": 0.4015748031496063
                    },
                    {
                        "duration": 0.125,
                        "durationTicks": 24,
                        "midi": 69,
                        "name": "A4",
                        "ticks": 32784,
                        "time": 170.75,
                        "velocity": 0.4015748031496063
                    },
                    {
                        "duration": 0.25,
                        "durationTicks": 48,
                        "midi": 74,
                        "name": "D5",
                        "ticks": 32808,
                        "time": 170.875,
                        "velocity": 0.4015748031496063
                    },
                    {
                        "duration": 0.25,
                        "durationTicks": 48,
                        "midi": 82,
                        "name": "A#5",
                        "ticks": 32808,
                        "time": 170.875,
                        "velocity": 0.4015748031496063
                    },
                    {
                        "duration": 0.25,
                        "durationTicks": 48,
                        "midi": 70,
                        "name": "A#4",
                        "ticks": 32808,
                        "time": 170.875,
                        "velocity": 0.4015748031496063
                    },
                    {
                        "duration": 0.125,
                        "durationTicks": 24,
                        "midi": 70,
                        "name": "A#4",
                        "ticks": 32856,
                        "time": 171.125,
                        "velocity": 0.4015748031496063
                    },
                    {
                        "duration": 0.125,
                        "durationTicks": 24,
                        "midi": 82,
                        "name": "A#5",
                        "ticks": 32856,
                        "time": 171.125,
                        "velocity": 0.4015748031496063
                    },
                    {
                        "duration": 0.125,
                        "durationTicks": 24,
                        "midi": 74,
                        "name": "D5",
                        "ticks": 32856,
                        "time": 171.125,
                        "velocity": 0.4015748031496063
                    },
                    {
                        "duration": 0.125,
                        "durationTicks": 24,
                        "midi": 74,
                        "name": "D5",
                        "ticks": 32880,
                        "time": 171.25,
                        "velocity": 0.4015748031496063
                    },
                    {
                        "duration": 0.125,
                        "durationTicks": 24,
                        "midi": 82,
                        "name": "A#5",
                        "ticks": 32880,
                        "time": 171.25,
                        "velocity": 0.4015748031496063
                    },
                    {
                        "duration": 0.125,
                        "durationTicks": 24,
                        "midi": 70,
                        "name": "A#4",
                        "ticks": 32880,
                        "time": 171.25,
                        "velocity": 0.4015748031496063
                    },
                    {
                        "duration": 0.125,
                        "durationTicks": 24,
                        "midi": 74,
                        "name": "D5",
                        "ticks": 32904,
                        "time": 171.375,
                        "velocity": 0.4015748031496063
                    },
                    {
                        "duration": 0.125,
                        "durationTicks": 24,
                        "midi": 69,
                        "name": "A4",
                        "ticks": 32904,
                        "time": 171.375,
                        "velocity": 0.4015748031496063
                    },
                    {
                        "duration": 0.125,
                        "durationTicks": 24,
                        "midi": 81,
                        "name": "A5",
                        "ticks": 32904,
                        "time": 171.375,
                        "velocity": 0.4015748031496063
                    },
                    {
                        "duration": 0.125,
                        "durationTicks": 24,
                        "midi": 74,
                        "name": "D5",
                        "ticks": 32928,
                        "time": 171.5,
                        "velocity": 0.4015748031496063
                    },
                    {
                        "duration": 0.125,
                        "durationTicks": 24,
                        "midi": 70,
                        "name": "A#4",
                        "ticks": 32928,
                        "time": 171.5,
                        "velocity": 0.4015748031496063
                    },
                    {
                        "duration": 0.125,
                        "durationTicks": 24,
                        "midi": 82,
                        "name": "A#5",
                        "ticks": 32928,
                        "time": 171.5,
                        "velocity": 0.4015748031496063
                    },
                    {
                        "duration": 0.125,
                        "durationTicks": 24,
                        "midi": 81,
                        "name": "A5",
                        "ticks": 32952,
                        "time": 171.625,
                        "velocity": 0.4015748031496063
                    },
                    {
                        "duration": 0.125,
                        "durationTicks": 24,
                        "midi": 69,
                        "name": "A4",
                        "ticks": 32952,
                        "time": 171.625,
                        "velocity": 0.4015748031496063
                    },
                    {
                        "duration": 0.125,
                        "durationTicks": 24,
                        "midi": 74,
                        "name": "D5",
                        "ticks": 32952,
                        "time": 171.625,
                        "velocity": 0.4015748031496063
                    },
                    {
                        "duration": 0.125,
                        "durationTicks": 24,
                        "midi": 74,
                        "name": "D5",
                        "ticks": 32976,
                        "time": 171.75,
                        "velocity": 0.4015748031496063
                    },
                    {
                        "duration": 0.125,
                        "durationTicks": 24,
                        "midi": 70,
                        "name": "A#4",
                        "ticks": 32976,
                        "time": 171.75,
                        "velocity": 0.4015748031496063
                    },
                    {
                        "duration": 0.125,
                        "durationTicks": 24,
                        "midi": 82,
                        "name": "A#5",
                        "ticks": 32976,
                        "time": 171.75,
                        "velocity": 0.4015748031496063
                    },
                    {
                        "duration": 0.125,
                        "durationTicks": 24,
                        "midi": 74,
                        "name": "D5",
                        "ticks": 33000,
                        "time": 171.875,
                        "velocity": 0.4015748031496063
                    },
                    {
                        "duration": 0.125,
                        "durationTicks": 24,
                        "midi": 69,
                        "name": "A4",
                        "ticks": 33000,
                        "time": 171.875,
                        "velocity": 0.4015748031496063
                    },
                    {
                        "duration": 0.125,
                        "durationTicks": 24,
                        "midi": 81,
                        "name": "A5",
                        "ticks": 33000,
                        "time": 171.875,
                        "velocity": 0.4015748031496063
                    },
                    {
                        "duration": 0.125,
                        "durationTicks": 24,
                        "midi": 67,
                        "name": "G4",
                        "ticks": 33024,
                        "time": 172,
                        "velocity": 0.4015748031496063
                    },
                    {
                        "duration": 0.125,
                        "durationTicks": 24,
                        "midi": 79,
                        "name": "G5",
                        "ticks": 33024,
                        "time": 172,
                        "velocity": 0.4015748031496063
                    },
                    {
                        "duration": 0.125,
                        "durationTicks": 24,
                        "midi": 70,
                        "name": "A#4",
                        "ticks": 33024,
                        "time": 172,
                        "velocity": 0.4015748031496063
                    },
                    {
                        "duration": 0.125,
                        "durationTicks": 24,
                        "midi": 79,
                        "name": "G5",
                        "ticks": 33072,
                        "time": 172.25,
                        "velocity": 0.4015748031496063
                    },
                    {
                        "duration": 0.125,
                        "durationTicks": 24,
                        "midi": 67,
                        "name": "G4",
                        "ticks": 33072,
                        "time": 172.25,
                        "velocity": 0.4015748031496063
                    },
                    {
                        "duration": 0.125,
                        "durationTicks": 24,
                        "midi": 70,
                        "name": "A#4",
                        "ticks": 33072,
                        "time": 172.25,
                        "velocity": 0.4015748031496063
                    },
                    {
                        "duration": 0.125,
                        "durationTicks": 24,
                        "midi": 79,
                        "name": "G5",
                        "ticks": 33120,
                        "time": 172.5,
                        "velocity": 0.4015748031496063
                    },
                    {
                        "duration": 0.125,
                        "durationTicks": 24,
                        "midi": 67,
                        "name": "G4",
                        "ticks": 33120,
                        "time": 172.5,
                        "velocity": 0.4015748031496063
                    },
                    {
                        "duration": 0.125,
                        "durationTicks": 24,
                        "midi": 70,
                        "name": "A#4",
                        "ticks": 33120,
                        "time": 172.5,
                        "velocity": 0.4015748031496063
                    },
                    {
                        "duration": 0.125,
                        "durationTicks": 24,
                        "midi": 77,
                        "name": "F5",
                        "ticks": 33144,
                        "time": 172.625,
                        "velocity": 0.4015748031496063
                    },
                    {
                        "duration": 0.125,
                        "durationTicks": 24,
                        "midi": 65,
                        "name": "F4",
                        "ticks": 33144,
                        "time": 172.625,
                        "velocity": 0.4015748031496063
                    },
                    {
                        "duration": 0.125,
                        "durationTicks": 24,
                        "midi": 70,
                        "name": "A#4",
                        "ticks": 33144,
                        "time": 172.625,
                        "velocity": 0.4015748031496063
                    },
                    {
                        "duration": 0.125,
                        "durationTicks": 24,
                        "midi": 70,
                        "name": "A#4",
                        "ticks": 33168,
                        "time": 172.75,
                        "velocity": 0.4015748031496063
                    },
                    {
                        "duration": 0.125,
                        "durationTicks": 24,
                        "midi": 67,
                        "name": "G4",
                        "ticks": 33168,
                        "time": 172.75,
                        "velocity": 0.4015748031496063
                    },
                    {
                        "duration": 0.125,
                        "durationTicks": 24,
                        "midi": 79,
                        "name": "G5",
                        "ticks": 33168,
                        "time": 172.75,
                        "velocity": 0.4015748031496063
                    },
                    {
                        "duration": 0.25,
                        "durationTicks": 48,
                        "midi": 77,
                        "name": "F5",
                        "ticks": 33192,
                        "time": 172.875,
                        "velocity": 0.4015748031496063
                    },
                    {
                        "duration": 0.25,
                        "durationTicks": 48,
                        "midi": 65,
                        "name": "F4",
                        "ticks": 33192,
                        "time": 172.875,
                        "velocity": 0.4015748031496063
                    },
                    {
                        "duration": 0.125,
                        "durationTicks": 24,
                        "midi": 74,
                        "name": "D5",
                        "ticks": 33240,
                        "time": 173.125,
                        "velocity": 0.4015748031496063
                    },
                    {
                        "duration": 0.125,
                        "durationTicks": 24,
                        "midi": 82,
                        "name": "A#5",
                        "ticks": 33240,
                        "time": 173.125,
                        "velocity": 0.4015748031496063
                    },
                    {
                        "duration": 0.125,
                        "durationTicks": 24,
                        "midi": 70,
                        "name": "A#4",
                        "ticks": 33240,
                        "time": 173.125,
                        "velocity": 0.4015748031496063
                    },
                    {
                        "duration": 0.125,
                        "durationTicks": 24,
                        "midi": 74,
                        "name": "D5",
                        "ticks": 33264,
                        "time": 173.25,
                        "velocity": 0.4015748031496063
                    },
                    {
                        "duration": 0.125,
                        "durationTicks": 24,
                        "midi": 82,
                        "name": "A#5",
                        "ticks": 33264,
                        "time": 173.25,
                        "velocity": 0.4015748031496063
                    },
                    {
                        "duration": 0.125,
                        "durationTicks": 24,
                        "midi": 70,
                        "name": "A#4",
                        "ticks": 33264,
                        "time": 173.25,
                        "velocity": 0.4015748031496063
                    },
                    {
                        "duration": 0.125,
                        "durationTicks": 24,
                        "midi": 74,
                        "name": "D5",
                        "ticks": 33288,
                        "time": 173.375,
                        "velocity": 0.4015748031496063
                    },
                    {
                        "duration": 0.125,
                        "durationTicks": 24,
                        "midi": 70,
                        "name": "A#4",
                        "ticks": 33288,
                        "time": 173.375,
                        "velocity": 0.4015748031496063
                    },
                    {
                        "duration": 0.125,
                        "durationTicks": 24,
                        "midi": 82,
                        "name": "A#5",
                        "ticks": 33288,
                        "time": 173.375,
                        "velocity": 0.4015748031496063
                    },
                    {
                        "duration": 0.125,
                        "durationTicks": 24,
                        "midi": 74,
                        "name": "D5",
                        "ticks": 33312,
                        "time": 173.5,
                        "velocity": 0.4015748031496063
                    },
                    {
                        "duration": 0.125,
                        "durationTicks": 24,
                        "midi": 70,
                        "name": "A#4",
                        "ticks": 33312,
                        "time": 173.5,
                        "velocity": 0.4015748031496063
                    },
                    {
                        "duration": 0.125,
                        "durationTicks": 24,
                        "midi": 82,
                        "name": "A#5",
                        "ticks": 33312,
                        "time": 173.5,
                        "velocity": 0.4015748031496063
                    },
                    {
                        "duration": 0.125,
                        "durationTicks": 24,
                        "midi": 74,
                        "name": "D5",
                        "ticks": 33336,
                        "time": 173.625,
                        "velocity": 0.4015748031496063
                    },
                    {
                        "duration": 0.125,
                        "durationTicks": 24,
                        "midi": 70,
                        "name": "A#4",
                        "ticks": 33336,
                        "time": 173.625,
                        "velocity": 0.4015748031496063
                    },
                    {
                        "duration": 0.125,
                        "durationTicks": 24,
                        "midi": 82,
                        "name": "A#5",
                        "ticks": 33336,
                        "time": 173.625,
                        "velocity": 0.4015748031496063
                    },
                    {
                        "duration": 0.125,
                        "durationTicks": 24,
                        "midi": 74,
                        "name": "D5",
                        "ticks": 33360,
                        "time": 173.75,
                        "velocity": 0.4015748031496063
                    },
                    {
                        "duration": 0.125,
                        "durationTicks": 24,
                        "midi": 70,
                        "name": "A#4",
                        "ticks": 33360,
                        "time": 173.75,
                        "velocity": 0.4015748031496063
                    },
                    {
                        "duration": 0.125,
                        "durationTicks": 24,
                        "midi": 82,
                        "name": "A#5",
                        "ticks": 33360,
                        "time": 173.75,
                        "velocity": 0.4015748031496063
                    },
                    {
                        "duration": 0.125,
                        "durationTicks": 24,
                        "midi": 74,
                        "name": "D5",
                        "ticks": 33384,
                        "time": 173.875,
                        "velocity": 0.4015748031496063
                    },
                    {
                        "duration": 0.125,
                        "durationTicks": 24,
                        "midi": 62,
                        "name": "D4",
                        "ticks": 33384,
                        "time": 173.875,
                        "velocity": 0.4015748031496063
                    },
                    {
                        "duration": 0.125,
                        "durationTicks": 24,
                        "midi": 69,
                        "name": "A4",
                        "ticks": 33408,
                        "time": 174,
                        "velocity": 0.4015748031496063
                    },
                    {
                        "duration": 0.125,
                        "durationTicks": 24,
                        "midi": 65,
                        "name": "F4",
                        "ticks": 33408,
                        "time": 174,
                        "velocity": 0.4015748031496063
                    },
                    {
                        "duration": 0.125,
                        "durationTicks": 24,
                        "midi": 77,
                        "name": "F5",
                        "ticks": 33408,
                        "time": 174,
                        "velocity": 0.4015748031496063
                    },
                    {
                        "duration": 0.125,
                        "durationTicks": 24,
                        "midi": 69,
                        "name": "A4",
                        "ticks": 33456,
                        "time": 174.25,
                        "velocity": 0.4015748031496063
                    },
                    {
                        "duration": 0.125,
                        "durationTicks": 24,
                        "midi": 77,
                        "name": "F5",
                        "ticks": 33456,
                        "time": 174.25,
                        "velocity": 0.4015748031496063
                    },
                    {
                        "duration": 0.125,
                        "durationTicks": 24,
                        "midi": 65,
                        "name": "F4",
                        "ticks": 33456,
                        "time": 174.25,
                        "velocity": 0.4015748031496063
                    },
                    {
                        "duration": 0.125,
                        "durationTicks": 24,
                        "midi": 69,
                        "name": "A4",
                        "ticks": 33504,
                        "time": 174.5,
                        "velocity": 0.4015748031496063
                    },
                    {
                        "duration": 0.125,
                        "durationTicks": 24,
                        "midi": 65,
                        "name": "F4",
                        "ticks": 33504,
                        "time": 174.5,
                        "velocity": 0.4015748031496063
                    },
                    {
                        "duration": 0.125,
                        "durationTicks": 24,
                        "midi": 77,
                        "name": "F5",
                        "ticks": 33504,
                        "time": 174.5,
                        "velocity": 0.4015748031496063
                    },
                    {
                        "duration": 0.125,
                        "durationTicks": 24,
                        "midi": 69,
                        "name": "A4",
                        "ticks": 33528,
                        "time": 174.625,
                        "velocity": 0.4015748031496063
                    },
                    {
                        "duration": 0.125,
                        "durationTicks": 24,
                        "midi": 62,
                        "name": "D4",
                        "ticks": 33528,
                        "time": 174.625,
                        "velocity": 0.4015748031496063
                    },
                    {
                        "duration": 0.125,
                        "durationTicks": 24,
                        "midi": 74,
                        "name": "D5",
                        "ticks": 33528,
                        "time": 174.625,
                        "velocity": 0.4015748031496063
                    },
                    {
                        "duration": 0.125,
                        "durationTicks": 24,
                        "midi": 74,
                        "name": "D5",
                        "ticks": 33552,
                        "time": 174.75,
                        "velocity": 0.4015748031496063
                    },
                    {
                        "duration": 0.125,
                        "durationTicks": 24,
                        "midi": 69,
                        "name": "A4",
                        "ticks": 33552,
                        "time": 174.75,
                        "velocity": 0.4015748031496063
                    },
                    {
                        "duration": 0.125,
                        "durationTicks": 24,
                        "midi": 81,
                        "name": "A5",
                        "ticks": 33552,
                        "time": 174.75,
                        "velocity": 0.4015748031496063
                    },
                    {
                        "duration": 0.25,
                        "durationTicks": 48,
                        "midi": 82,
                        "name": "A#5",
                        "ticks": 33576,
                        "time": 174.875,
                        "velocity": 0.4015748031496063
                    },
                    {
                        "duration": 0.25,
                        "durationTicks": 48,
                        "midi": 74,
                        "name": "D5",
                        "ticks": 33576,
                        "time": 174.875,
                        "velocity": 0.4015748031496063
                    },
                    {
                        "duration": 0.25,
                        "durationTicks": 48,
                        "midi": 70,
                        "name": "A#4",
                        "ticks": 33576,
                        "time": 174.875,
                        "velocity": 0.4015748031496063
                    },
                    {
                        "duration": 0.125,
                        "durationTicks": 24,
                        "midi": 82,
                        "name": "A#5",
                        "ticks": 33624,
                        "time": 175.125,
                        "velocity": 0.48031496062992124
                    },
                    {
                        "duration": 0.125,
                        "durationTicks": 24,
                        "midi": 74,
                        "name": "D5",
                        "ticks": 33624,
                        "time": 175.125,
                        "velocity": 0.4015748031496063
                    },
                    {
                        "duration": 0.125,
                        "durationTicks": 24,
                        "midi": 70,
                        "name": "A#4",
                        "ticks": 33624,
                        "time": 175.125,
                        "velocity": 0.48031496062992124
                    },
                    {
                        "duration": 0.125,
                        "durationTicks": 24,
                        "midi": 82,
                        "name": "A#5",
                        "ticks": 33648,
                        "time": 175.25,
                        "velocity": 0.48031496062992124
                    },
                    {
                        "duration": 0.125,
                        "durationTicks": 24,
                        "midi": 74,
                        "name": "D5",
                        "ticks": 33648,
                        "time": 175.25,
                        "velocity": 0.4015748031496063
                    },
                    {
                        "duration": 0.125,
                        "durationTicks": 24,
                        "midi": 70,
                        "name": "A#4",
                        "ticks": 33648,
                        "time": 175.25,
                        "velocity": 0.48031496062992124
                    },
                    {
                        "duration": 0.125,
                        "durationTicks": 24,
                        "midi": 69,
                        "name": "A4",
                        "ticks": 33672,
                        "time": 175.375,
                        "velocity": 0.48031496062992124
                    },
                    {
                        "duration": 0.125,
                        "durationTicks": 24,
                        "midi": 81,
                        "name": "A5",
                        "ticks": 33672,
                        "time": 175.375,
                        "velocity": 0.48031496062992124
                    },
                    {
                        "duration": 0.125,
                        "durationTicks": 24,
                        "midi": 74,
                        "name": "D5",
                        "ticks": 33672,
                        "time": 175.375,
                        "velocity": 0.4015748031496063
                    },
                    {
                        "duration": 0.125,
                        "durationTicks": 24,
                        "midi": 70,
                        "name": "A#4",
                        "ticks": 33696,
                        "time": 175.5,
                        "velocity": 0.48031496062992124
                    },
                    {
                        "duration": 0.125,
                        "durationTicks": 24,
                        "midi": 74,
                        "name": "D5",
                        "ticks": 33696,
                        "time": 175.5,
                        "velocity": 0.4015748031496063
                    },
                    {
                        "duration": 0.125,
                        "durationTicks": 24,
                        "midi": 82,
                        "name": "A#5",
                        "ticks": 33696,
                        "time": 175.5,
                        "velocity": 0.48031496062992124
                    },
                    {
                        "duration": 0.125,
                        "durationTicks": 24,
                        "midi": 74,
                        "name": "D5",
                        "ticks": 33720,
                        "time": 175.625,
                        "velocity": 0.48031496062992124
                    },
                    {
                        "duration": 0.125,
                        "durationTicks": 24,
                        "midi": 62,
                        "name": "D4",
                        "ticks": 33720,
                        "time": 175.625,
                        "velocity": 0.48031496062992124
                    },
                    {
                        "duration": 0.125,
                        "durationTicks": 24,
                        "midi": 77,
                        "name": "F5",
                        "ticks": 33744,
                        "time": 175.75,
                        "velocity": 0.48031496062992124
                    },
                    {
                        "duration": 0.125,
                        "durationTicks": 24,
                        "midi": 65,
                        "name": "F4",
                        "ticks": 33744,
                        "time": 175.75,
                        "velocity": 0.48031496062992124
                    },
                    {
                        "duration": 0.125,
                        "durationTicks": 24,
                        "midi": 81,
                        "name": "A5",
                        "ticks": 33768,
                        "time": 175.875,
                        "velocity": 0.48031496062992124
                    },
                    {
                        "duration": 0.125,
                        "durationTicks": 24,
                        "midi": 69,
                        "name": "A4",
                        "ticks": 33768,
                        "time": 175.875,
                        "velocity": 0.48031496062992124
                    },
                    {
                        "duration": 0.125,
                        "durationTicks": 24,
                        "midi": 75,
                        "name": "D#5",
                        "ticks": 33792,
                        "time": 176,
                        "velocity": 0.4015748031496063
                    },
                    {
                        "duration": 0.125,
                        "durationTicks": 24,
                        "midi": 70,
                        "name": "A#4",
                        "ticks": 33792,
                        "time": 176,
                        "velocity": 0.4015748031496063
                    },
                    {
                        "duration": 0.125,
                        "durationTicks": 24,
                        "midi": 79,
                        "name": "G5",
                        "ticks": 33792,
                        "time": 176,
                        "velocity": 0.4015748031496063
                    },
                    {
                        "duration": 0.125,
                        "durationTicks": 24,
                        "midi": 79,
                        "name": "G5",
                        "ticks": 33840,
                        "time": 176.25,
                        "velocity": 0.4015748031496063
                    },
                    {
                        "duration": 0.125,
                        "durationTicks": 24,
                        "midi": 70,
                        "name": "A#4",
                        "ticks": 33840,
                        "time": 176.25,
                        "velocity": 0.4015748031496063
                    },
                    {
                        "duration": 0.125,
                        "durationTicks": 24,
                        "midi": 75,
                        "name": "D#5",
                        "ticks": 33840,
                        "time": 176.25,
                        "velocity": 0.4015748031496063
                    },
                    {
                        "duration": 0.125,
                        "durationTicks": 24,
                        "midi": 79,
                        "name": "G5",
                        "ticks": 33888,
                        "time": 176.5,
                        "velocity": 0.4015748031496063
                    },
                    {
                        "duration": 0.125,
                        "durationTicks": 24,
                        "midi": 70,
                        "name": "A#4",
                        "ticks": 33888,
                        "time": 176.5,
                        "velocity": 0.4015748031496063
                    },
                    {
                        "duration": 0.125,
                        "durationTicks": 24,
                        "midi": 75,
                        "name": "D#5",
                        "ticks": 33888,
                        "time": 176.5,
                        "velocity": 0.4015748031496063
                    },
                    {
                        "duration": 0.125,
                        "durationTicks": 24,
                        "midi": 77,
                        "name": "F5",
                        "ticks": 33912,
                        "time": 176.625,
                        "velocity": 0.4015748031496063
                    },
                    {
                        "duration": 0.125,
                        "durationTicks": 24,
                        "midi": 70,
                        "name": "A#4",
                        "ticks": 33912,
                        "time": 176.625,
                        "velocity": 0.4015748031496063
                    },
                    {
                        "duration": 0.125,
                        "durationTicks": 24,
                        "midi": 75,
                        "name": "D#5",
                        "ticks": 33912,
                        "time": 176.625,
                        "velocity": 0.4015748031496063
                    },
                    {
                        "duration": 0.125,
                        "durationTicks": 24,
                        "midi": 75,
                        "name": "D#5",
                        "ticks": 33936,
                        "time": 176.75,
                        "velocity": 0.4015748031496063
                    },
                    {
                        "duration": 0.125,
                        "durationTicks": 24,
                        "midi": 70,
                        "name": "A#4",
                        "ticks": 33936,
                        "time": 176.75,
                        "velocity": 0.4015748031496063
                    },
                    {
                        "duration": 0.125,
                        "durationTicks": 24,
                        "midi": 79,
                        "name": "G5",
                        "ticks": 33936,
                        "time": 176.75,
                        "velocity": 0.4015748031496063
                    },
                    {
                        "duration": 0.25,
                        "durationTicks": 48,
                        "midi": 74,
                        "name": "D5",
                        "ticks": 33960,
                        "time": 176.875,
                        "velocity": 0.4015748031496063
                    },
                    {
                        "duration": 0.25,
                        "durationTicks": 48,
                        "midi": 70,
                        "name": "A#4",
                        "ticks": 33960,
                        "time": 176.875,
                        "velocity": 0.4015748031496063
                    },
                    {
                        "duration": 0.25,
                        "durationTicks": 48,
                        "midi": 77,
                        "name": "F5",
                        "ticks": 33960,
                        "time": 176.875,
                        "velocity": 0.4015748031496063
                    },
                    {
                        "duration": 0.125,
                        "durationTicks": 24,
                        "midi": 77,
                        "name": "F5",
                        "ticks": 34176,
                        "time": 178,
                        "velocity": 0.4015748031496063
                    },
                    {
                        "duration": 0.125,
                        "durationTicks": 24,
                        "midi": 72,
                        "name": "C5",
                        "ticks": 34176,
                        "time": 178,
                        "velocity": 0.4015748031496063
                    },
                    {
                        "duration": 0.125,
                        "durationTicks": 24,
                        "midi": 69,
                        "name": "A4",
                        "ticks": 34176,
                        "time": 178,
                        "velocity": 0.4015748031496063
                    },
                    {
                        "duration": 0.125,
                        "durationTicks": 24,
                        "midi": 77,
                        "name": "F5",
                        "ticks": 34224,
                        "time": 178.25,
                        "velocity": 0.4015748031496063
                    },
                    {
                        "duration": 0.125,
                        "durationTicks": 24,
                        "midi": 72,
                        "name": "C5",
                        "ticks": 34224,
                        "time": 178.25,
                        "velocity": 0.4015748031496063
                    },
                    {
                        "duration": 0.125,
                        "durationTicks": 24,
                        "midi": 69,
                        "name": "A4",
                        "ticks": 34272,
                        "time": 178.5,
                        "velocity": 0.4015748031496063
                    },
                    {
                        "duration": 0.125,
                        "durationTicks": 24,
                        "midi": 72,
                        "name": "C5",
                        "ticks": 34272,
                        "time": 178.5,
                        "velocity": 0.4015748031496063
                    },
                    {
                        "duration": 0.125,
                        "durationTicks": 24,
                        "midi": 77,
                        "name": "F5",
                        "ticks": 34272,
                        "time": 178.5,
                        "velocity": 0.4015748031496063
                    },
                    {
                        "duration": 0.125,
                        "durationTicks": 24,
                        "midi": 72,
                        "name": "C5",
                        "ticks": 34296,
                        "time": 178.625,
                        "velocity": 0.4015748031496063
                    },
                    {
                        "duration": 0.125,
                        "durationTicks": 24,
                        "midi": 74,
                        "name": "D5",
                        "ticks": 34296,
                        "time": 178.625,
                        "velocity": 0.4015748031496063
                    },
                    {
                        "duration": 0.125,
                        "durationTicks": 24,
                        "midi": 81,
                        "name": "A5",
                        "ticks": 34320,
                        "time": 178.75,
                        "velocity": 0.4015748031496063
                    },
                    {
                        "duration": 0.125,
                        "durationTicks": 24,
                        "midi": 72,
                        "name": "C5",
                        "ticks": 34320,
                        "time": 178.75,
                        "velocity": 0.4015748031496063
                    },
                    {
                        "duration": 0.125,
                        "durationTicks": 24,
                        "midi": 77,
                        "name": "F5",
                        "ticks": 34320,
                        "time": 178.75,
                        "velocity": 0.4015748031496063
                    },
                    {
                        "duration": 0.25,
                        "durationTicks": 48,
                        "midi": 82,
                        "name": "A#5",
                        "ticks": 34344,
                        "time": 178.875,
                        "velocity": 0.4015748031496063
                    },
                    {
                        "duration": 0.25,
                        "durationTicks": 48,
                        "midi": 79,
                        "name": "G5",
                        "ticks": 34344,
                        "time": 178.875,
                        "velocity": 0.4015748031496063
                    },
                    {
                        "duration": 0.25,
                        "durationTicks": 48,
                        "midi": 74,
                        "name": "D5",
                        "ticks": 34344,
                        "time": 178.875,
                        "velocity": 0.4015748031496063
                    },
                    {
                        "duration": 0.125,
                        "durationTicks": 24,
                        "midi": 75,
                        "name": "D#5",
                        "ticks": 34560,
                        "time": 180,
                        "velocity": 0.4015748031496063
                    },
                    {
                        "duration": 0.125,
                        "durationTicks": 24,
                        "midi": 70,
                        "name": "A#4",
                        "ticks": 34560,
                        "time": 180,
                        "velocity": 0.4015748031496063
                    },
                    {
                        "duration": 0.125,
                        "durationTicks": 24,
                        "midi": 79,
                        "name": "G5",
                        "ticks": 34560,
                        "time": 180,
                        "velocity": 0.4015748031496063
                    },
                    {
                        "duration": 0.125,
                        "durationTicks": 24,
                        "midi": 75,
                        "name": "D#5",
                        "ticks": 34608,
                        "time": 180.25,
                        "velocity": 0.4015748031496063
                    },
                    {
                        "duration": 0.125,
                        "durationTicks": 24,
                        "midi": 70,
                        "name": "A#4",
                        "ticks": 34608,
                        "time": 180.25,
                        "velocity": 0.4015748031496063
                    },
                    {
                        "duration": 0.125,
                        "durationTicks": 24,
                        "midi": 79,
                        "name": "G5",
                        "ticks": 34608,
                        "time": 180.25,
                        "velocity": 0.4015748031496063
                    },
                    {
                        "duration": 0.125,
                        "durationTicks": 24,
                        "midi": 75,
                        "name": "D#5",
                        "ticks": 34656,
                        "time": 180.5,
                        "velocity": 0.4015748031496063
                    },
                    {
                        "duration": 0.125,
                        "durationTicks": 24,
                        "midi": 70,
                        "name": "A#4",
                        "ticks": 34656,
                        "time": 180.5,
                        "velocity": 0.4015748031496063
                    },
                    {
                        "duration": 0.125,
                        "durationTicks": 24,
                        "midi": 79,
                        "name": "G5",
                        "ticks": 34656,
                        "time": 180.5,
                        "velocity": 0.4015748031496063
                    },
                    {
                        "duration": 0.125,
                        "durationTicks": 24,
                        "midi": 75,
                        "name": "D#5",
                        "ticks": 34680,
                        "time": 180.625,
                        "velocity": 0.4015748031496063
                    },
                    {
                        "duration": 0.125,
                        "durationTicks": 24,
                        "midi": 70,
                        "name": "A#4",
                        "ticks": 34680,
                        "time": 180.625,
                        "velocity": 0.4015748031496063
                    },
                    {
                        "duration": 0.125,
                        "durationTicks": 24,
                        "midi": 77,
                        "name": "F5",
                        "ticks": 34680,
                        "time": 180.625,
                        "velocity": 0.4015748031496063
                    },
                    {
                        "duration": 0.125,
                        "durationTicks": 24,
                        "midi": 75,
                        "name": "D#5",
                        "ticks": 34704,
                        "time": 180.75,
                        "velocity": 0.4015748031496063
                    },
                    {
                        "duration": 0.125,
                        "durationTicks": 24,
                        "midi": 70,
                        "name": "A#4",
                        "ticks": 34704,
                        "time": 180.75,
                        "velocity": 0.4015748031496063
                    },
                    {
                        "duration": 0.125,
                        "durationTicks": 24,
                        "midi": 79,
                        "name": "G5",
                        "ticks": 34704,
                        "time": 180.75,
                        "velocity": 0.4015748031496063
                    },
                    {
                        "duration": 0.25,
                        "durationTicks": 48,
                        "midi": 74,
                        "name": "D5",
                        "ticks": 34728,
                        "time": 180.875,
                        "velocity": 0.4015748031496063
                    },
                    {
                        "duration": 0.25,
                        "durationTicks": 48,
                        "midi": 70,
                        "name": "A#4",
                        "ticks": 34728,
                        "time": 180.875,
                        "velocity": 0.4015748031496063
                    },
                    {
                        "duration": 0.25,
                        "durationTicks": 48,
                        "midi": 77,
                        "name": "F5",
                        "ticks": 34728,
                        "time": 180.875,
                        "velocity": 0.4015748031496063
                    },
                    {
                        "duration": 0.125,
                        "durationTicks": 24,
                        "midi": 69,
                        "name": "A4",
                        "ticks": 34944,
                        "time": 182,
                        "velocity": 0.4015748031496063
                    },
                    {
                        "duration": 0.125,
                        "durationTicks": 24,
                        "midi": 72,
                        "name": "C5",
                        "ticks": 34944,
                        "time": 182,
                        "velocity": 0.4015748031496063
                    },
                    {
                        "duration": 0.125,
                        "durationTicks": 24,
                        "midi": 77,
                        "name": "F5",
                        "ticks": 34944,
                        "time": 182,
                        "velocity": 0.4015748031496063
                    },
                    {
                        "duration": 0.125,
                        "durationTicks": 24,
                        "midi": 72,
                        "name": "C5",
                        "ticks": 34992,
                        "time": 182.25,
                        "velocity": 0.4015748031496063
                    },
                    {
                        "duration": 0.125,
                        "durationTicks": 24,
                        "midi": 77,
                        "name": "F5",
                        "ticks": 34992,
                        "time": 182.25,
                        "velocity": 0.4015748031496063
                    },
                    {
                        "duration": 0.125,
                        "durationTicks": 24,
                        "midi": 69,
                        "name": "A4",
                        "ticks": 35040,
                        "time": 182.5,
                        "velocity": 0.4015748031496063
                    },
                    {
                        "duration": 0.125,
                        "durationTicks": 24,
                        "midi": 72,
                        "name": "C5",
                        "ticks": 35040,
                        "time": 182.5,
                        "velocity": 0.4015748031496063
                    },
                    {
                        "duration": 0.125,
                        "durationTicks": 24,
                        "midi": 77,
                        "name": "F5",
                        "ticks": 35040,
                        "time": 182.5,
                        "velocity": 0.4015748031496063
                    },
                    {
                        "duration": 0.125,
                        "durationTicks": 24,
                        "midi": 72,
                        "name": "C5",
                        "ticks": 35064,
                        "time": 182.625,
                        "velocity": 0.4015748031496063
                    },
                    {
                        "duration": 0.125,
                        "durationTicks": 24,
                        "midi": 74,
                        "name": "D5",
                        "ticks": 35064,
                        "time": 182.625,
                        "velocity": 0.4015748031496063
                    },
                    {
                        "duration": 0.125,
                        "durationTicks": 24,
                        "midi": 77,
                        "name": "F5",
                        "ticks": 35088,
                        "time": 182.75,
                        "velocity": 0.4015748031496063
                    },
                    {
                        "duration": 0.125,
                        "durationTicks": 24,
                        "midi": 72,
                        "name": "C5",
                        "ticks": 35088,
                        "time": 182.75,
                        "velocity": 0.4015748031496063
                    },
                    {
                        "duration": 0.125,
                        "durationTicks": 24,
                        "midi": 81,
                        "name": "A5",
                        "ticks": 35088,
                        "time": 182.75,
                        "velocity": 0.4015748031496063
                    },
                    {
                        "duration": 0.25,
                        "durationTicks": 48,
                        "midi": 74,
                        "name": "D5",
                        "ticks": 35112,
                        "time": 182.875,
                        "velocity": 0.4015748031496063
                    },
                    {
                        "duration": 0.25,
                        "durationTicks": 48,
                        "midi": 79,
                        "name": "G5",
                        "ticks": 35112,
                        "time": 182.875,
                        "velocity": 0.4015748031496063
                    },
                    {
                        "duration": 0.25,
                        "durationTicks": 48,
                        "midi": 82,
                        "name": "A#5",
                        "ticks": 35112,
                        "time": 182.875,
                        "velocity": 0.4015748031496063
                    }
                ]
            },
            {
                "channel": 1,
                "controlChanges": {
                    "6": [
                        {
                            "number": 6,
                            "ticks": 0,
                            "time": 0,
                            "value": 0.09448818897637795
                        },
                        {
                            "number": 6,
                            "ticks": 0,
                            "time": 0,
                            "value": 0.09448818897637795
                        },
                        {
                            "number": 6,
                            "ticks": 0,
                            "time": 0,
                            "value": 0.09448818897637795
                        },
                        {
                            "number": 6,
                            "ticks": 36096,
                            "time": 188,
                            "value": 0.09448818897637795
                        },
                        {
                            "number": 6,
                            "ticks": 36097,
                            "time": 188.00520833333334,
                            "value": 0.09448818897637795
                        },
                        {
                            "number": 6,
                            "ticks": 36097,
                            "time": 188.00520833333334,
                            "value": 0.09448818897637795
                        }
                    ],
                    "7": [
                        {
                            "number": 7,
                            "ticks": 0,
                            "time": 0,
                            "value": 0.7874015748031497
                        },
                        {
                            "number": 7,
                            "ticks": 0,
                            "time": 0,
                            "value": 0.7874015748031497
                        },
                        {
                            "number": 7,
                            "ticks": 0,
                            "time": 0,
                            "value": 0.7874015748031497
                        },
                        {
                            "number": 7,
                            "ticks": 0,
                            "time": 0,
                            "value": 0.7874015748031497
                        },
                        {
                            "number": 7,
                            "ticks": 36096,
                            "time": 188,
                            "value": 0.7874015748031497
                        },
                        {
                            "number": 7,
                            "ticks": 36097,
                            "time": 188.00520833333334,
                            "value": 0.7874015748031497
                        },
                        {
                            "number": 7,
                            "ticks": 36097,
                            "time": 188.00520833333334,
                            "value": 0.7874015748031497
                        }
                    ],
                    "10": [
                        {
                            "number": 10,
                            "ticks": 0,
                            "time": 0,
                            "value": 0.5039370078740157
                        },
                        {
                            "number": 10,
                            "ticks": 0,
                            "time": 0,
                            "value": 0.5039370078740157
                        },
                        {
                            "number": 10,
                            "ticks": 0,
                            "time": 0,
                            "value": 0.5039370078740157
                        },
                        {
                            "number": 10,
                            "ticks": 0,
                            "time": 0,
                            "value": 0.5039370078740157
                        },
                        {
                            "number": 10,
                            "ticks": 36096,
                            "time": 188,
                            "value": 0.5039370078740157
                        },
                        {
                            "number": 10,
                            "ticks": 36097,
                            "time": 188.00520833333334,
                            "value": 0.5039370078740157
                        },
                        {
                            "number": 10,
                            "ticks": 36097,
                            "time": 188.00520833333334,
                            "value": 0.5039370078740157
                        }
                    ],
                    "100": [
                        {
                            "number": 100,
                            "ticks": 0,
                            "time": 0,
                            "value": 0
                        },
                        {
                            "number": 100,
                            "ticks": 0,
                            "time": 0,
                            "value": 0
                        },
                        {
                            "number": 100,
                            "ticks": 0,
                            "time": 0,
                            "value": 0
                        },
                        {
                            "number": 100,
                            "ticks": 36096,
                            "time": 188,
                            "value": 0
                        },
                        {
                            "number": 100,
                            "ticks": 36097,
                            "time": 188.00520833333334,
                            "value": 0
                        },
                        {
                            "number": 100,
                            "ticks": 36097,
                            "time": 188.00520833333334,
                            "value": 0
                        }
                    ],
                    "101": [
                        {
                            "number": 101,
                            "ticks": 0,
                            "time": 0,
                            "value": 0
                        },
                        {
                            "number": 101,
                            "ticks": 0,
                            "time": 0,
                            "value": 0
                        },
                        {
                            "number": 101,
                            "ticks": 0,
                            "time": 0,
                            "value": 0
                        },
                        {
                            "number": 101,
                            "ticks": 36096,
                            "time": 188,
                            "value": 0
                        },
                        {
                            "number": 101,
                            "ticks": 36097,
                            "time": 188.00520833333334,
                            "value": 0
                        },
                        {
                            "number": 101,
                            "ticks": 36097,
                            "time": 188.00520833333334,
                            "value": 0
                        }
                    ]
                },
                "pitchBends": [
                    {
                        "ticks": 0,
                        "time": 0,
                        "value": 0
                    },
                    {
                        "ticks": 0,
                        "time": 0,
                        "value": 0
                    },
                    {
                        "ticks": 0,
                        "time": 0,
                        "value": 0
                    },
                    {
                        "ticks": 0,
                        "time": 0,
                        "value": 0
                    },
                    {
                        "ticks": 36096,
                        "time": 188,
                        "value": 0
                    },
                    {
                        "ticks": 36097,
                        "time": 188.00520833333334,
                        "value": 0
                    },
                    {
                        "ticks": 36097,
                        "time": 188.00520833333334,
                        "value": 0
                    }
                ],
                "instrument": {
                    "family": "piano",
                    "name": "acoustic grand piano",
                    "number": 0
                },
                "name": "reFX Nexus #2",
                "notes": [
                    {
                        "duration": 0.125,
                        "durationTicks": 24,
                        "midi": 51,
                        "name": "D#3",
                        "ticks": 0,
                        "time": 0,
                        "velocity": 0.4015748031496063
                    },
                    {
                        "duration": 0.125,
                        "durationTicks": 24,
                        "midi": 58,
                        "name": "A#3",
                        "ticks": 24,
                        "time": 0.125,
                        "velocity": 0.4015748031496063
                    },
                    {
                        "duration": 0.125,
                        "durationTicks": 24,
                        "midi": 67,
                        "name": "G4",
                        "ticks": 48,
                        "time": 0.25,
                        "velocity": 0.4015748031496063
                    },
                    {
                        "duration": 0.125,
                        "durationTicks": 24,
                        "midi": 51,
                        "name": "D#3",
                        "ticks": 72,
                        "time": 0.375,
                        "velocity": 0.4015748031496063
                    },
                    {
                        "duration": 0.125,
                        "durationTicks": 24,
                        "midi": 58,
                        "name": "A#3",
                        "ticks": 96,
                        "time": 0.5,
                        "velocity": 0.4015748031496063
                    },
                    {
                        "duration": 0.125,
                        "durationTicks": 24,
                        "midi": 67,
                        "name": "G4",
                        "ticks": 120,
                        "time": 0.625,
                        "velocity": 0.4015748031496063
                    },
                    {
                        "duration": 0.125,
                        "durationTicks": 24,
                        "midi": 51,
                        "name": "D#3",
                        "ticks": 144,
                        "time": 0.75,
                        "velocity": 0.4015748031496063
                    },
                    {
                        "duration": 0.125,
                        "durationTicks": 24,
                        "midi": 58,
                        "name": "A#3",
                        "ticks": 168,
                        "time": 0.875,
                        "velocity": 0.4015748031496063
                    },
                    {
                        "duration": 0.125,
                        "durationTicks": 24,
                        "midi": 46,
                        "name": "A#2",
                        "ticks": 192,
                        "time": 1,
                        "velocity": 0.4015748031496063
                    },
                    {
                        "duration": 0.125,
                        "durationTicks": 24,
                        "midi": 53,
                        "name": "F3",
                        "ticks": 216,
                        "time": 1.125,
                        "velocity": 0.4015748031496063
                    },
                    {
                        "duration": 0.125,
                        "durationTicks": 24,
                        "midi": 62,
                        "name": "D4",
                        "ticks": 240,
                        "time": 1.25,
                        "velocity": 0.4015748031496063
                    },
                    {
                        "duration": 0.125,
                        "durationTicks": 24,
                        "midi": 46,
                        "name": "A#2",
                        "ticks": 264,
                        "time": 1.375,
                        "velocity": 0.4015748031496063
                    },
                    {
                        "duration": 0.125,
                        "durationTicks": 24,
                        "midi": 53,
                        "name": "F3",
                        "ticks": 288,
                        "time": 1.5,
                        "velocity": 0.4015748031496063
                    },
                    {
                        "duration": 0.125,
                        "durationTicks": 24,
                        "midi": 62,
                        "name": "D4",
                        "ticks": 312,
                        "time": 1.625,
                        "velocity": 0.4015748031496063
                    },
                    {
                        "duration": 0.125,
                        "durationTicks": 24,
                        "midi": 46,
                        "name": "A#2",
                        "ticks": 336,
                        "time": 1.75,
                        "velocity": 0.4015748031496063
                    },
                    {
                        "duration": 0.125,
                        "durationTicks": 24,
                        "midi": 53,
                        "name": "F3",
                        "ticks": 360,
                        "time": 1.875,
                        "velocity": 0.4015748031496063
                    },
                    {
                        "duration": 0.125,
                        "durationTicks": 24,
                        "midi": 53,
                        "name": "F3",
                        "ticks": 384,
                        "time": 2,
                        "velocity": 0.4015748031496063
                    },
                    {
                        "duration": 0.125,
                        "durationTicks": 24,
                        "midi": 60,
                        "name": "C4",
                        "ticks": 408,
                        "time": 2.125,
                        "velocity": 0.4015748031496063
                    },
                    {
                        "duration": 0.125,
                        "durationTicks": 24,
                        "midi": 69,
                        "name": "A4",
                        "ticks": 432,
                        "time": 2.25,
                        "velocity": 0.4015748031496063
                    },
                    {
                        "duration": 0.125,
                        "durationTicks": 24,
                        "midi": 53,
                        "name": "F3",
                        "ticks": 456,
                        "time": 2.375,
                        "velocity": 0.4015748031496063
                    },
                    {
                        "duration": 0.125,
                        "durationTicks": 24,
                        "midi": 60,
                        "name": "C4",
                        "ticks": 480,
                        "time": 2.5,
                        "velocity": 0.4015748031496063
                    },
                    {
                        "duration": 0.125,
                        "durationTicks": 24,
                        "midi": 69,
                        "name": "A4",
                        "ticks": 504,
                        "time": 2.625,
                        "velocity": 0.4015748031496063
                    },
                    {
                        "duration": 0.125,
                        "durationTicks": 24,
                        "midi": 53,
                        "name": "F3",
                        "ticks": 528,
                        "time": 2.75,
                        "velocity": 0.4015748031496063
                    },
                    {
                        "duration": 0.125,
                        "durationTicks": 24,
                        "midi": 58,
                        "name": "A#3",
                        "ticks": 552,
                        "time": 2.875,
                        "velocity": 0.4015748031496063
                    },
                    {
                        "duration": 0.125,
                        "durationTicks": 24,
                        "midi": 55,
                        "name": "G3",
                        "ticks": 576,
                        "time": 3,
                        "velocity": 0.4015748031496063
                    },
                    {
                        "duration": 0.125,
                        "durationTicks": 24,
                        "midi": 62,
                        "name": "D4",
                        "ticks": 600,
                        "time": 3.125,
                        "velocity": 0.4015748031496063
                    },
                    {
                        "duration": 0.125,
                        "durationTicks": 24,
                        "midi": 70,
                        "name": "A#4",
                        "ticks": 624,
                        "time": 3.25,
                        "velocity": 0.4015748031496063
                    },
                    {
                        "duration": 0.125,
                        "durationTicks": 24,
                        "midi": 55,
                        "name": "G3",
                        "ticks": 648,
                        "time": 3.375,
                        "velocity": 0.4015748031496063
                    },
                    {
                        "duration": 0.125,
                        "durationTicks": 24,
                        "midi": 62,
                        "name": "D4",
                        "ticks": 672,
                        "time": 3.5,
                        "velocity": 0.4015748031496063
                    },
                    {
                        "duration": 0.125,
                        "durationTicks": 24,
                        "midi": 70,
                        "name": "A#4",
                        "ticks": 696,
                        "time": 3.625,
                        "velocity": 0.4015748031496063
                    },
                    {
                        "duration": 0.125,
                        "durationTicks": 24,
                        "midi": 55,
                        "name": "G3",
                        "ticks": 720,
                        "time": 3.75,
                        "velocity": 0.4015748031496063
                    },
                    {
                        "duration": 0.125,
                        "durationTicks": 24,
                        "midi": 62,
                        "name": "D4",
                        "ticks": 744,
                        "time": 3.875,
                        "velocity": 0.4015748031496063
                    },
                    {
                        "duration": 0.125,
                        "durationTicks": 24,
                        "midi": 51,
                        "name": "D#3",
                        "ticks": 768,
                        "time": 4,
                        "velocity": 0.4015748031496063
                    },
                    {
                        "duration": 0.125,
                        "durationTicks": 24,
                        "midi": 58,
                        "name": "A#3",
                        "ticks": 792,
                        "time": 4.125,
                        "velocity": 0.4015748031496063
                    },
                    {
                        "duration": 0.125,
                        "durationTicks": 24,
                        "midi": 67,
                        "name": "G4",
                        "ticks": 816,
                        "time": 4.25,
                        "velocity": 0.4015748031496063
                    },
                    {
                        "duration": 0.125,
                        "durationTicks": 24,
                        "midi": 51,
                        "name": "D#3",
                        "ticks": 840,
                        "time": 4.375,
                        "velocity": 0.4015748031496063
                    },
                    {
                        "duration": 0.125,
                        "durationTicks": 24,
                        "midi": 58,
                        "name": "A#3",
                        "ticks": 864,
                        "time": 4.5,
                        "velocity": 0.4015748031496063
                    },
                    {
                        "duration": 0.125,
                        "durationTicks": 24,
                        "midi": 67,
                        "name": "G4",
                        "ticks": 888,
                        "time": 4.625,
                        "velocity": 0.4015748031496063
                    },
                    {
                        "duration": 0.125,
                        "durationTicks": 24,
                        "midi": 51,
                        "name": "D#3",
                        "ticks": 912,
                        "time": 4.75,
                        "velocity": 0.4015748031496063
                    },
                    {
                        "duration": 0.125,
                        "durationTicks": 24,
                        "midi": 58,
                        "name": "A#3",
                        "ticks": 936,
                        "time": 4.875,
                        "velocity": 0.4015748031496063
                    },
                    {
                        "duration": 0.125,
                        "durationTicks": 24,
                        "midi": 46,
                        "name": "A#2",
                        "ticks": 960,
                        "time": 5,
                        "velocity": 0.4015748031496063
                    },
                    {
                        "duration": 0.125,
                        "durationTicks": 24,
                        "midi": 53,
                        "name": "F3",
                        "ticks": 984,
                        "time": 5.125,
                        "velocity": 0.4015748031496063
                    },
                    {
                        "duration": 0.125,
                        "durationTicks": 24,
                        "midi": 62,
                        "name": "D4",
                        "ticks": 1008,
                        "time": 5.25,
                        "velocity": 0.4015748031496063
                    },
                    {
                        "duration": 0.125,
                        "durationTicks": 24,
                        "midi": 46,
                        "name": "A#2",
                        "ticks": 1032,
                        "time": 5.375,
                        "velocity": 0.4015748031496063
                    },
                    {
                        "duration": 0.125,
                        "durationTicks": 24,
                        "midi": 53,
                        "name": "F3",
                        "ticks": 1056,
                        "time": 5.5,
                        "velocity": 0.4015748031496063
                    },
                    {
                        "duration": 0.125,
                        "durationTicks": 24,
                        "midi": 62,
                        "name": "D4",
                        "ticks": 1080,
                        "time": 5.625,
                        "velocity": 0.4015748031496063
                    },
                    {
                        "duration": 0.125,
                        "durationTicks": 24,
                        "midi": 46,
                        "name": "A#2",
                        "ticks": 1104,
                        "time": 5.75,
                        "velocity": 0.4015748031496063
                    },
                    {
                        "duration": 0.125,
                        "durationTicks": 24,
                        "midi": 53,
                        "name": "F3",
                        "ticks": 1128,
                        "time": 5.875,
                        "velocity": 0.4015748031496063
                    },
                    {
                        "duration": 0.125,
                        "durationTicks": 24,
                        "midi": 53,
                        "name": "F3",
                        "ticks": 1152,
                        "time": 6,
                        "velocity": 0.4015748031496063
                    },
                    {
                        "duration": 0.125,
                        "durationTicks": 24,
                        "midi": 60,
                        "name": "C4",
                        "ticks": 1176,
                        "time": 6.125,
                        "velocity": 0.4015748031496063
                    },
                    {
                        "duration": 0.125,
                        "durationTicks": 24,
                        "midi": 69,
                        "name": "A4",
                        "ticks": 1200,
                        "time": 6.25,
                        "velocity": 0.4015748031496063
                    },
                    {
                        "duration": 0.125,
                        "durationTicks": 24,
                        "midi": 53,
                        "name": "F3",
                        "ticks": 1224,
                        "time": 6.375,
                        "velocity": 0.4015748031496063
                    },
                    {
                        "duration": 0.125,
                        "durationTicks": 24,
                        "midi": 60,
                        "name": "C4",
                        "ticks": 1248,
                        "time": 6.5,
                        "velocity": 0.4015748031496063
                    },
                    {
                        "duration": 0.125,
                        "durationTicks": 24,
                        "midi": 69,
                        "name": "A4",
                        "ticks": 1272,
                        "time": 6.625,
                        "velocity": 0.4015748031496063
                    },
                    {
                        "duration": 0.125,
                        "durationTicks": 24,
                        "midi": 53,
                        "name": "F3",
                        "ticks": 1296,
                        "time": 6.75,
                        "velocity": 0.4015748031496063
                    },
                    {
                        "duration": 0.125,
                        "durationTicks": 24,
                        "midi": 74,
                        "name": "D5",
                        "ticks": 1320,
                        "time": 6.875,
                        "velocity": 0.41732283464566927
                    },
                    {
                        "duration": 0.125,
                        "durationTicks": 24,
                        "midi": 58,
                        "name": "A#3",
                        "ticks": 1320,
                        "time": 6.875,
                        "velocity": 0.41732283464566927
                    },
                    {
                        "duration": 0.125,
                        "durationTicks": 24,
                        "midi": 55,
                        "name": "G3",
                        "ticks": 1344,
                        "time": 7,
                        "velocity": 0.4015748031496063
                    },
                    {
                        "duration": 0.125,
                        "durationTicks": 24,
                        "midi": 74,
                        "name": "D5",
                        "ticks": 1368,
                        "time": 7.125,
                        "velocity": 0.4015748031496063
                    },
                    {
                        "duration": 0.125,
                        "durationTicks": 24,
                        "midi": 62,
                        "name": "D4",
                        "ticks": 1368,
                        "time": 7.125,
                        "velocity": 0.4015748031496063
                    },
                    {
                        "duration": 0.125,
                        "durationTicks": 24,
                        "midi": 70,
                        "name": "A#4",
                        "ticks": 1392,
                        "time": 7.25,
                        "velocity": 0.4015748031496063
                    },
                    {
                        "duration": 0.125,
                        "durationTicks": 24,
                        "midi": 74,
                        "name": "D5",
                        "ticks": 1416,
                        "time": 7.375,
                        "velocity": 0.4015748031496063
                    },
                    {
                        "duration": 0.125,
                        "durationTicks": 24,
                        "midi": 55,
                        "name": "G3",
                        "ticks": 1416,
                        "time": 7.375,
                        "velocity": 0.4015748031496063
                    },
                    {
                        "duration": 0.125,
                        "durationTicks": 24,
                        "midi": 62,
                        "name": "D4",
                        "ticks": 1440,
                        "time": 7.5,
                        "velocity": 0.4015748031496063
                    },
                    {
                        "duration": 0.125,
                        "durationTicks": 24,
                        "midi": 74,
                        "name": "D5",
                        "ticks": 1464,
                        "time": 7.625,
                        "velocity": 0.4015748031496063
                    },
                    {
                        "duration": 0.125,
                        "durationTicks": 24,
                        "midi": 70,
                        "name": "A#4",
                        "ticks": 1464,
                        "time": 7.625,
                        "velocity": 0.4015748031496063
                    },
                    {
                        "duration": 0.125,
                        "durationTicks": 24,
                        "midi": 55,
                        "name": "G3",
                        "ticks": 1488,
                        "time": 7.75,
                        "velocity": 0.4015748031496063
                    },
                    {
                        "duration": 0.125,
                        "durationTicks": 24,
                        "midi": 62,
                        "name": "D4",
                        "ticks": 1512,
                        "time": 7.875,
                        "velocity": 0.4015748031496063
                    },
                    {
                        "duration": 0.125,
                        "durationTicks": 24,
                        "midi": 51,
                        "name": "D#3",
                        "ticks": 1536,
                        "time": 8,
                        "velocity": 0.4015748031496063
                    },
                    {
                        "duration": 0.125,
                        "durationTicks": 24,
                        "midi": 58,
                        "name": "A#3",
                        "ticks": 1560,
                        "time": 8.125,
                        "velocity": 0.4015748031496063
                    },
                    {
                        "duration": 0.125,
                        "durationTicks": 24,
                        "midi": 67,
                        "name": "G4",
                        "ticks": 1584,
                        "time": 8.25,
                        "velocity": 0.4015748031496063
                    },
                    {
                        "duration": 0.125,
                        "durationTicks": 24,
                        "midi": 51,
                        "name": "D#3",
                        "ticks": 1608,
                        "time": 8.375,
                        "velocity": 0.4015748031496063
                    },
                    {
                        "duration": 0.125,
                        "durationTicks": 24,
                        "midi": 58,
                        "name": "A#3",
                        "ticks": 1632,
                        "time": 8.5,
                        "velocity": 0.4015748031496063
                    },
                    {
                        "duration": 0.125,
                        "durationTicks": 24,
                        "midi": 67,
                        "name": "G4",
                        "ticks": 1656,
                        "time": 8.625,
                        "velocity": 0.4015748031496063
                    },
                    {
                        "duration": 0.125,
                        "durationTicks": 24,
                        "midi": 51,
                        "name": "D#3",
                        "ticks": 1680,
                        "time": 8.75,
                        "velocity": 0.4015748031496063
                    },
                    {
                        "duration": 0.125,
                        "durationTicks": 24,
                        "midi": 58,
                        "name": "A#3",
                        "ticks": 1704,
                        "time": 8.875,
                        "velocity": 0.4015748031496063
                    },
                    {
                        "duration": 0.125,
                        "durationTicks": 24,
                        "midi": 46,
                        "name": "A#2",
                        "ticks": 1728,
                        "time": 9,
                        "velocity": 0.4015748031496063
                    },
                    {
                        "duration": 0.125,
                        "durationTicks": 24,
                        "midi": 53,
                        "name": "F3",
                        "ticks": 1752,
                        "time": 9.125,
                        "velocity": 0.4015748031496063
                    },
                    {
                        "duration": 0.125,
                        "durationTicks": 24,
                        "midi": 62,
                        "name": "D4",
                        "ticks": 1776,
                        "time": 9.25,
                        "velocity": 0.4015748031496063
                    },
                    {
                        "duration": 0.125,
                        "durationTicks": 24,
                        "midi": 46,
                        "name": "A#2",
                        "ticks": 1800,
                        "time": 9.375,
                        "velocity": 0.4015748031496063
                    },
                    {
                        "duration": 0.125,
                        "durationTicks": 24,
                        "midi": 53,
                        "name": "F3",
                        "ticks": 1824,
                        "time": 9.5,
                        "velocity": 0.4015748031496063
                    },
                    {
                        "duration": 0.125,
                        "durationTicks": 24,
                        "midi": 62,
                        "name": "D4",
                        "ticks": 1848,
                        "time": 9.625,
                        "velocity": 0.4015748031496063
                    },
                    {
                        "duration": 0.125,
                        "durationTicks": 24,
                        "midi": 46,
                        "name": "A#2",
                        "ticks": 1872,
                        "time": 9.75,
                        "velocity": 0.4015748031496063
                    },
                    {
                        "duration": 0.125,
                        "durationTicks": 24,
                        "midi": 53,
                        "name": "F3",
                        "ticks": 1896,
                        "time": 9.875,
                        "velocity": 0.4015748031496063
                    },
                    {
                        "duration": 0.125,
                        "durationTicks": 24,
                        "midi": 53,
                        "name": "F3",
                        "ticks": 1920,
                        "time": 10,
                        "velocity": 0.4015748031496063
                    },
                    {
                        "duration": 0.125,
                        "durationTicks": 24,
                        "midi": 60,
                        "name": "C4",
                        "ticks": 1944,
                        "time": 10.125,
                        "velocity": 0.4015748031496063
                    },
                    {
                        "duration": 0.125,
                        "durationTicks": 24,
                        "midi": 69,
                        "name": "A4",
                        "ticks": 1968,
                        "time": 10.25,
                        "velocity": 0.4015748031496063
                    },
                    {
                        "duration": 0.125,
                        "durationTicks": 24,
                        "midi": 53,
                        "name": "F3",
                        "ticks": 1992,
                        "time": 10.375,
                        "velocity": 0.4015748031496063
                    },
                    {
                        "duration": 0.125,
                        "durationTicks": 24,
                        "midi": 60,
                        "name": "C4",
                        "ticks": 2016,
                        "time": 10.5,
                        "velocity": 0.4015748031496063
                    },
                    {
                        "duration": 0.125,
                        "durationTicks": 24,
                        "midi": 69,
                        "name": "A4",
                        "ticks": 2040,
                        "time": 10.625,
                        "velocity": 0.4015748031496063
                    },
                    {
                        "duration": 0.125,
                        "durationTicks": 24,
                        "midi": 53,
                        "name": "F3",
                        "ticks": 2064,
                        "time": 10.75,
                        "velocity": 0.4015748031496063
                    },
                    {
                        "duration": 0.125,
                        "durationTicks": 24,
                        "midi": 58,
                        "name": "A#3",
                        "ticks": 2088,
                        "time": 10.875,
                        "velocity": 0.4015748031496063
                    },
                    {
                        "duration": 0.125,
                        "durationTicks": 24,
                        "midi": 55,
                        "name": "G3",
                        "ticks": 2112,
                        "time": 11,
                        "velocity": 0.4015748031496063
                    },
                    {
                        "duration": 0.125,
                        "durationTicks": 24,
                        "midi": 62,
                        "name": "D4",
                        "ticks": 2136,
                        "time": 11.125,
                        "velocity": 0.4015748031496063
                    },
                    {
                        "duration": 0.125,
                        "durationTicks": 24,
                        "midi": 70,
                        "name": "A#4",
                        "ticks": 2160,
                        "time": 11.25,
                        "velocity": 0.4015748031496063
                    },
                    {
                        "duration": 0.125,
                        "durationTicks": 24,
                        "midi": 55,
                        "name": "G3",
                        "ticks": 2184,
                        "time": 11.375,
                        "velocity": 0.4015748031496063
                    },
                    {
                        "duration": 0.125,
                        "durationTicks": 24,
                        "midi": 62,
                        "name": "D4",
                        "ticks": 2208,
                        "time": 11.5,
                        "velocity": 0.4015748031496063
                    },
                    {
                        "duration": 0.125,
                        "durationTicks": 24,
                        "midi": 70,
                        "name": "A#4",
                        "ticks": 2232,
                        "time": 11.625,
                        "velocity": 0.4015748031496063
                    },
                    {
                        "duration": 0.125,
                        "durationTicks": 24,
                        "midi": 55,
                        "name": "G3",
                        "ticks": 2256,
                        "time": 11.75,
                        "velocity": 0.4015748031496063
                    },
                    {
                        "duration": 0.125,
                        "durationTicks": 24,
                        "midi": 62,
                        "name": "D4",
                        "ticks": 2280,
                        "time": 11.875,
                        "velocity": 0.4015748031496063
                    },
                    {
                        "duration": 0.125,
                        "durationTicks": 24,
                        "midi": 51,
                        "name": "D#3",
                        "ticks": 2304,
                        "time": 12,
                        "velocity": 0.4015748031496063
                    },
                    {
                        "duration": 0.125,
                        "durationTicks": 24,
                        "midi": 58,
                        "name": "A#3",
                        "ticks": 2328,
                        "time": 12.125,
                        "velocity": 0.4015748031496063
                    },
                    {
                        "duration": 0.125,
                        "durationTicks": 24,
                        "midi": 67,
                        "name": "G4",
                        "ticks": 2352,
                        "time": 12.25,
                        "velocity": 0.4015748031496063
                    },
                    {
                        "duration": 0.125,
                        "durationTicks": 24,
                        "midi": 51,
                        "name": "D#3",
                        "ticks": 2376,
                        "time": 12.375,
                        "velocity": 0.4015748031496063
                    },
                    {
                        "duration": 0.125,
                        "durationTicks": 24,
                        "midi": 58,
                        "name": "A#3",
                        "ticks": 2400,
                        "time": 12.5,
                        "velocity": 0.4015748031496063
                    },
                    {
                        "duration": 0.125,
                        "durationTicks": 24,
                        "midi": 67,
                        "name": "G4",
                        "ticks": 2424,
                        "time": 12.625,
                        "velocity": 0.4015748031496063
                    },
                    {
                        "duration": 0.125,
                        "durationTicks": 24,
                        "midi": 51,
                        "name": "D#3",
                        "ticks": 2448,
                        "time": 12.75,
                        "velocity": 0.4015748031496063
                    },
                    {
                        "duration": 0.125,
                        "durationTicks": 24,
                        "midi": 58,
                        "name": "A#3",
                        "ticks": 2472,
                        "time": 12.875,
                        "velocity": 0.4015748031496063
                    },
                    {
                        "duration": 0.125,
                        "durationTicks": 24,
                        "midi": 46,
                        "name": "A#2",
                        "ticks": 2496,
                        "time": 13,
                        "velocity": 0.4015748031496063
                    },
                    {
                        "duration": 0.125,
                        "durationTicks": 24,
                        "midi": 53,
                        "name": "F3",
                        "ticks": 2520,
                        "time": 13.125,
                        "velocity": 0.4015748031496063
                    },
                    {
                        "duration": 0.125,
                        "durationTicks": 24,
                        "midi": 62,
                        "name": "D4",
                        "ticks": 2544,
                        "time": 13.25,
                        "velocity": 0.4015748031496063
                    },
                    {
                        "duration": 0.125,
                        "durationTicks": 24,
                        "midi": 46,
                        "name": "A#2",
                        "ticks": 2568,
                        "time": 13.375,
                        "velocity": 0.4015748031496063
                    },
                    {
                        "duration": 0.125,
                        "durationTicks": 24,
                        "midi": 53,
                        "name": "F3",
                        "ticks": 2592,
                        "time": 13.5,
                        "velocity": 0.4015748031496063
                    },
                    {
                        "duration": 0.125,
                        "durationTicks": 24,
                        "midi": 62,
                        "name": "D4",
                        "ticks": 2616,
                        "time": 13.625,
                        "velocity": 0.4015748031496063
                    },
                    {
                        "duration": 0.125,
                        "durationTicks": 24,
                        "midi": 46,
                        "name": "A#2",
                        "ticks": 2640,
                        "time": 13.75,
                        "velocity": 0.4015748031496063
                    },
                    {
                        "duration": 0.125,
                        "durationTicks": 24,
                        "midi": 53,
                        "name": "F3",
                        "ticks": 2664,
                        "time": 13.875,
                        "velocity": 0.4015748031496063
                    },
                    {
                        "duration": 0.125,
                        "durationTicks": 24,
                        "midi": 53,
                        "name": "F3",
                        "ticks": 2688,
                        "time": 14,
                        "velocity": 0.4015748031496063
                    },
                    {
                        "duration": 0.125,
                        "durationTicks": 24,
                        "midi": 60,
                        "name": "C4",
                        "ticks": 2712,
                        "time": 14.125,
                        "velocity": 0.4015748031496063
                    },
                    {
                        "duration": 0.125,
                        "durationTicks": 24,
                        "midi": 69,
                        "name": "A4",
                        "ticks": 2736,
                        "time": 14.25,
                        "velocity": 0.4015748031496063
                    },
                    {
                        "duration": 0.125,
                        "durationTicks": 24,
                        "midi": 53,
                        "name": "F3",
                        "ticks": 2760,
                        "time": 14.375,
                        "velocity": 0.4015748031496063
                    },
                    {
                        "duration": 0.125,
                        "durationTicks": 24,
                        "midi": 60,
                        "name": "C4",
                        "ticks": 2784,
                        "time": 14.5,
                        "velocity": 0.4015748031496063
                    },
                    {
                        "duration": 0.125,
                        "durationTicks": 24,
                        "midi": 69,
                        "name": "A4",
                        "ticks": 2808,
                        "time": 14.625,
                        "velocity": 0.4015748031496063
                    },
                    {
                        "duration": 0.125,
                        "durationTicks": 24,
                        "midi": 53,
                        "name": "F3",
                        "ticks": 2832,
                        "time": 14.75,
                        "velocity": 0.4015748031496063
                    },
                    {
                        "duration": 0.125,
                        "durationTicks": 24,
                        "midi": 58,
                        "name": "A#3",
                        "ticks": 2856,
                        "time": 14.875,
                        "velocity": 0.4015748031496063
                    },
                    {
                        "duration": 0.125,
                        "durationTicks": 24,
                        "midi": 51,
                        "name": "D#3",
                        "ticks": 3072,
                        "time": 16,
                        "velocity": 0.4015748031496063
                    },
                    {
                        "duration": 0.125,
                        "durationTicks": 24,
                        "midi": 63,
                        "name": "D#4",
                        "ticks": 3072,
                        "time": 16,
                        "velocity": 0.4015748031496063
                    },
                    {
                        "duration": 0.125,
                        "durationTicks": 24,
                        "midi": 58,
                        "name": "A#3",
                        "ticks": 3072,
                        "time": 16,
                        "velocity": 0.4015748031496063
                    },
                    {
                        "duration": 0.125,
                        "durationTicks": 24,
                        "midi": 51,
                        "name": "D#3",
                        "ticks": 3120,
                        "time": 16.25,
                        "velocity": 0.4015748031496063
                    },
                    {
                        "duration": 0.125,
                        "durationTicks": 24,
                        "midi": 63,
                        "name": "D#4",
                        "ticks": 3120,
                        "time": 16.25,
                        "velocity": 0.4015748031496063
                    },
                    {
                        "duration": 0.125,
                        "durationTicks": 24,
                        "midi": 58,
                        "name": "A#3",
                        "ticks": 3120,
                        "time": 16.25,
                        "velocity": 0.4015748031496063
                    },
                    {
                        "duration": 0.125,
                        "durationTicks": 24,
                        "midi": 58,
                        "name": "A#3",
                        "ticks": 3168,
                        "time": 16.5,
                        "velocity": 0.4015748031496063
                    },
                    {
                        "duration": 0.125,
                        "durationTicks": 24,
                        "midi": 63,
                        "name": "D#4",
                        "ticks": 3168,
                        "time": 16.5,
                        "velocity": 0.4015748031496063
                    },
                    {
                        "duration": 0.125,
                        "durationTicks": 24,
                        "midi": 51,
                        "name": "D#3",
                        "ticks": 3168,
                        "time": 16.5,
                        "velocity": 0.4015748031496063
                    },
                    {
                        "duration": 0.125,
                        "durationTicks": 24,
                        "midi": 51,
                        "name": "D#3",
                        "ticks": 3192,
                        "time": 16.625,
                        "velocity": 0.4015748031496063
                    },
                    {
                        "duration": 0.125,
                        "durationTicks": 24,
                        "midi": 63,
                        "name": "D#4",
                        "ticks": 3192,
                        "time": 16.625,
                        "velocity": 0.4015748031496063
                    },
                    {
                        "duration": 0.125,
                        "durationTicks": 24,
                        "midi": 58,
                        "name": "A#3",
                        "ticks": 3192,
                        "time": 16.625,
                        "velocity": 0.4015748031496063
                    },
                    {
                        "duration": 0.125,
                        "durationTicks": 24,
                        "midi": 58,
                        "name": "A#3",
                        "ticks": 3216,
                        "time": 16.75,
                        "velocity": 0.4015748031496063
                    },
                    {
                        "duration": 0.125,
                        "durationTicks": 24,
                        "midi": 63,
                        "name": "D#4",
                        "ticks": 3216,
                        "time": 16.75,
                        "velocity": 0.4015748031496063
                    },
                    {
                        "duration": 0.125,
                        "durationTicks": 24,
                        "midi": 51,
                        "name": "D#3",
                        "ticks": 3216,
                        "time": 16.75,
                        "velocity": 0.4015748031496063
                    },
                    {
                        "duration": 0.25,
                        "durationTicks": 48,
                        "midi": 53,
                        "name": "F3",
                        "ticks": 3240,
                        "time": 16.875,
                        "velocity": 0.4015748031496063
                    },
                    {
                        "duration": 0.25,
                        "durationTicks": 48,
                        "midi": 58,
                        "name": "A#3",
                        "ticks": 3240,
                        "time": 16.875,
                        "velocity": 0.4015748031496063
                    },
                    {
                        "duration": 0.25,
                        "durationTicks": 48,
                        "midi": 46,
                        "name": "A#2",
                        "ticks": 3240,
                        "time": 16.875,
                        "velocity": 0.4015748031496063
                    },
                    {
                        "duration": 0.125,
                        "durationTicks": 24,
                        "midi": 46,
                        "name": "A#2",
                        "ticks": 3288,
                        "time": 17.125,
                        "velocity": 0.4015748031496063
                    },
                    {
                        "duration": 0.125,
                        "durationTicks": 24,
                        "midi": 58,
                        "name": "A#3",
                        "ticks": 3288,
                        "time": 17.125,
                        "velocity": 0.4015748031496063
                    },
                    {
                        "duration": 0.125,
                        "durationTicks": 24,
                        "midi": 53,
                        "name": "F3",
                        "ticks": 3288,
                        "time": 17.125,
                        "velocity": 0.4015748031496063
                    },
                    {
                        "duration": 0.125,
                        "durationTicks": 24,
                        "midi": 53,
                        "name": "F3",
                        "ticks": 3312,
                        "time": 17.25,
                        "velocity": 0.4015748031496063
                    },
                    {
                        "duration": 0.125,
                        "durationTicks": 24,
                        "midi": 58,
                        "name": "A#3",
                        "ticks": 3312,
                        "time": 17.25,
                        "velocity": 0.4015748031496063
                    },
                    {
                        "duration": 0.125,
                        "durationTicks": 24,
                        "midi": 46,
                        "name": "A#2",
                        "ticks": 3312,
                        "time": 17.25,
                        "velocity": 0.4015748031496063
                    },
                    {
                        "duration": 0.125,
                        "durationTicks": 24,
                        "midi": 46,
                        "name": "A#2",
                        "ticks": 3336,
                        "time": 17.375,
                        "velocity": 0.4015748031496063
                    },
                    {
                        "duration": 0.125,
                        "durationTicks": 24,
                        "midi": 58,
                        "name": "A#3",
                        "ticks": 3336,
                        "time": 17.375,
                        "velocity": 0.4015748031496063
                    },
                    {
                        "duration": 0.125,
                        "durationTicks": 24,
                        "midi": 53,
                        "name": "F3",
                        "ticks": 3336,
                        "time": 17.375,
                        "velocity": 0.4015748031496063
                    },
                    {
                        "duration": 0.125,
                        "durationTicks": 24,
                        "midi": 46,
                        "name": "A#2",
                        "ticks": 3360,
                        "time": 17.5,
                        "velocity": 0.4015748031496063
                    },
                    {
                        "duration": 0.125,
                        "durationTicks": 24,
                        "midi": 58,
                        "name": "A#3",
                        "ticks": 3360,
                        "time": 17.5,
                        "velocity": 0.4015748031496063
                    },
                    {
                        "duration": 0.125,
                        "durationTicks": 24,
                        "midi": 53,
                        "name": "F3",
                        "ticks": 3360,
                        "time": 17.5,
                        "velocity": 0.4015748031496063
                    },
                    {
                        "duration": 0.125,
                        "durationTicks": 24,
                        "midi": 53,
                        "name": "F3",
                        "ticks": 3384,
                        "time": 17.625,
                        "velocity": 0.4015748031496063
                    },
                    {
                        "duration": 0.125,
                        "durationTicks": 24,
                        "midi": 58,
                        "name": "A#3",
                        "ticks": 3384,
                        "time": 17.625,
                        "velocity": 0.4015748031496063
                    },
                    {
                        "duration": 0.125,
                        "durationTicks": 24,
                        "midi": 46,
                        "name": "A#2",
                        "ticks": 3384,
                        "time": 17.625,
                        "velocity": 0.4015748031496063
                    },
                    {
                        "duration": 0.125,
                        "durationTicks": 24,
                        "midi": 53,
                        "name": "F3",
                        "ticks": 3408,
                        "time": 17.75,
                        "velocity": 0.4015748031496063
                    },
                    {
                        "duration": 0.125,
                        "durationTicks": 24,
                        "midi": 58,
                        "name": "A#3",
                        "ticks": 3408,
                        "time": 17.75,
                        "velocity": 0.4015748031496063
                    },
                    {
                        "duration": 0.125,
                        "durationTicks": 24,
                        "midi": 46,
                        "name": "A#2",
                        "ticks": 3408,
                        "time": 17.75,
                        "velocity": 0.4015748031496063
                    },
                    {
                        "duration": 0.125,
                        "durationTicks": 24,
                        "midi": 53,
                        "name": "F3",
                        "ticks": 3432,
                        "time": 17.875,
                        "velocity": 0.4015748031496063
                    },
                    {
                        "duration": 0.125,
                        "durationTicks": 24,
                        "midi": 58,
                        "name": "A#3",
                        "ticks": 3432,
                        "time": 17.875,
                        "velocity": 0.4015748031496063
                    },
                    {
                        "duration": 0.125,
                        "durationTicks": 24,
                        "midi": 46,
                        "name": "A#2",
                        "ticks": 3432,
                        "time": 17.875,
                        "velocity": 0.4015748031496063
                    },
                    {
                        "duration": 0.125,
                        "durationTicks": 24,
                        "midi": 60,
                        "name": "C4",
                        "ticks": 3456,
                        "time": 18,
                        "velocity": 0.4015748031496063
                    },
                    {
                        "duration": 0.125,
                        "durationTicks": 24,
                        "midi": 65,
                        "name": "F4",
                        "ticks": 3456,
                        "time": 18,
                        "velocity": 0.4015748031496063
                    },
                    {
                        "duration": 0.125,
                        "durationTicks": 24,
                        "midi": 53,
                        "name": "F3",
                        "ticks": 3456,
                        "time": 18,
                        "velocity": 0.4015748031496063
                    },
                    {
                        "duration": 0.125,
                        "durationTicks": 24,
                        "midi": 53,
                        "name": "F3",
                        "ticks": 3504,
                        "time": 18.25,
                        "velocity": 0.4015748031496063
                    },
                    {
                        "duration": 0.125,
                        "durationTicks": 24,
                        "midi": 65,
                        "name": "F4",
                        "ticks": 3504,
                        "time": 18.25,
                        "velocity": 0.4015748031496063
                    },
                    {
                        "duration": 0.125,
                        "durationTicks": 24,
                        "midi": 60,
                        "name": "C4",
                        "ticks": 3504,
                        "time": 18.25,
                        "velocity": 0.4015748031496063
                    },
                    {
                        "duration": 0.125,
                        "durationTicks": 24,
                        "midi": 60,
                        "name": "C4",
                        "ticks": 3552,
                        "time": 18.5,
                        "velocity": 0.4015748031496063
                    },
                    {
                        "duration": 0.125,
                        "durationTicks": 24,
                        "midi": 65,
                        "name": "F4",
                        "ticks": 3552,
                        "time": 18.5,
                        "velocity": 0.4015748031496063
                    },
                    {
                        "duration": 0.125,
                        "durationTicks": 24,
                        "midi": 53,
                        "name": "F3",
                        "ticks": 3552,
                        "time": 18.5,
                        "velocity": 0.4015748031496063
                    },
                    {
                        "duration": 0.125,
                        "durationTicks": 24,
                        "midi": 60,
                        "name": "C4",
                        "ticks": 3576,
                        "time": 18.625,
                        "velocity": 0.4015748031496063
                    },
                    {
                        "duration": 0.125,
                        "durationTicks": 24,
                        "midi": 65,
                        "name": "F4",
                        "ticks": 3576,
                        "time": 18.625,
                        "velocity": 0.4015748031496063
                    },
                    {
                        "duration": 0.125,
                        "durationTicks": 24,
                        "midi": 53,
                        "name": "F3",
                        "ticks": 3576,
                        "time": 18.625,
                        "velocity": 0.4015748031496063
                    },
                    {
                        "duration": 0.125,
                        "durationTicks": 24,
                        "midi": 60,
                        "name": "C4",
                        "ticks": 3600,
                        "time": 18.75,
                        "velocity": 0.4015748031496063
                    },
                    {
                        "duration": 0.125,
                        "durationTicks": 24,
                        "midi": 65,
                        "name": "F4",
                        "ticks": 3600,
                        "time": 18.75,
                        "velocity": 0.4015748031496063
                    },
                    {
                        "duration": 0.125,
                        "durationTicks": 24,
                        "midi": 53,
                        "name": "F3",
                        "ticks": 3600,
                        "time": 18.75,
                        "velocity": 0.4015748031496063
                    },
                    {
                        "duration": 0.375,
                        "durationTicks": 72,
                        "midi": 62,
                        "name": "D4",
                        "ticks": 3624,
                        "time": 18.875,
                        "velocity": 0.4015748031496063
                    },
                    {
                        "duration": 0.375,
                        "durationTicks": 72,
                        "midi": 67,
                        "name": "G4",
                        "ticks": 3624,
                        "time": 18.875,
                        "velocity": 0.4015748031496063
                    },
                    {
                        "duration": 0.375,
                        "durationTicks": 72,
                        "midi": 55,
                        "name": "G3",
                        "ticks": 3624,
                        "time": 18.875,
                        "velocity": 0.4015748031496063
                    },
                    {
                        "duration": 0.125,
                        "durationTicks": 24,
                        "midi": 62,
                        "name": "D4",
                        "ticks": 3696,
                        "time": 19.25,
                        "velocity": 0.4015748031496063
                    },
                    {
                        "duration": 0.125,
                        "durationTicks": 24,
                        "midi": 67,
                        "name": "G4",
                        "ticks": 3696,
                        "time": 19.25,
                        "velocity": 0.4015748031496063
                    },
                    {
                        "duration": 0.125,
                        "durationTicks": 24,
                        "midi": 55,
                        "name": "G3",
                        "ticks": 3696,
                        "time": 19.25,
                        "velocity": 0.4015748031496063
                    },
                    {
                        "duration": 0.125,
                        "durationTicks": 24,
                        "midi": 62,
                        "name": "D4",
                        "ticks": 3720,
                        "time": 19.375,
                        "velocity": 0.4015748031496063
                    },
                    {
                        "duration": 0.125,
                        "durationTicks": 24,
                        "midi": 67,
                        "name": "G4",
                        "ticks": 3720,
                        "time": 19.375,
                        "velocity": 0.4015748031496063
                    },
                    {
                        "duration": 0.125,
                        "durationTicks": 24,
                        "midi": 55,
                        "name": "G3",
                        "ticks": 3720,
                        "time": 19.375,
                        "velocity": 0.4015748031496063
                    },
                    {
                        "duration": 0.125,
                        "durationTicks": 24,
                        "midi": 55,
                        "name": "G3",
                        "ticks": 3744,
                        "time": 19.5,
                        "velocity": 0.4015748031496063
                    },
                    {
                        "duration": 0.125,
                        "durationTicks": 24,
                        "midi": 67,
                        "name": "G4",
                        "ticks": 3744,
                        "time": 19.5,
                        "velocity": 0.4015748031496063
                    },
                    {
                        "duration": 0.125,
                        "durationTicks": 24,
                        "midi": 62,
                        "name": "D4",
                        "ticks": 3744,
                        "time": 19.5,
                        "velocity": 0.4015748031496063
                    },
                    {
                        "duration": 0.125,
                        "durationTicks": 24,
                        "midi": 62,
                        "name": "D4",
                        "ticks": 3768,
                        "time": 19.625,
                        "velocity": 0.4015748031496063
                    },
                    {
                        "duration": 0.125,
                        "durationTicks": 24,
                        "midi": 67,
                        "name": "G4",
                        "ticks": 3768,
                        "time": 19.625,
                        "velocity": 0.4015748031496063
                    },
                    {
                        "duration": 0.125,
                        "durationTicks": 24,
                        "midi": 55,
                        "name": "G3",
                        "ticks": 3768,
                        "time": 19.625,
                        "velocity": 0.4015748031496063
                    },
                    {
                        "duration": 0.125,
                        "durationTicks": 24,
                        "midi": 55,
                        "name": "G3",
                        "ticks": 3792,
                        "time": 19.75,
                        "velocity": 0.4015748031496063
                    },
                    {
                        "duration": 0.125,
                        "durationTicks": 24,
                        "midi": 67,
                        "name": "G4",
                        "ticks": 3792,
                        "time": 19.75,
                        "velocity": 0.4015748031496063
                    },
                    {
                        "duration": 0.125,
                        "durationTicks": 24,
                        "midi": 62,
                        "name": "D4",
                        "ticks": 3792,
                        "time": 19.75,
                        "velocity": 0.4015748031496063
                    },
                    {
                        "duration": 0.125,
                        "durationTicks": 24,
                        "midi": 62,
                        "name": "D4",
                        "ticks": 3816,
                        "time": 19.875,
                        "velocity": 0.4015748031496063
                    },
                    {
                        "duration": 0.125,
                        "durationTicks": 24,
                        "midi": 67,
                        "name": "G4",
                        "ticks": 3816,
                        "time": 19.875,
                        "velocity": 0.4015748031496063
                    },
                    {
                        "duration": 0.125,
                        "durationTicks": 24,
                        "midi": 55,
                        "name": "G3",
                        "ticks": 3816,
                        "time": 19.875,
                        "velocity": 0.4015748031496063
                    },
                    {
                        "duration": 0.125,
                        "durationTicks": 24,
                        "midi": 58,
                        "name": "A#3",
                        "ticks": 3840,
                        "time": 20,
                        "velocity": 0.4015748031496063
                    },
                    {
                        "duration": 0.125,
                        "durationTicks": 24,
                        "midi": 63,
                        "name": "D#4",
                        "ticks": 3840,
                        "time": 20,
                        "velocity": 0.4015748031496063
                    },
                    {
                        "duration": 0.125,
                        "durationTicks": 24,
                        "midi": 51,
                        "name": "D#3",
                        "ticks": 3840,
                        "time": 20,
                        "velocity": 0.4015748031496063
                    },
                    {
                        "duration": 0.125,
                        "durationTicks": 24,
                        "midi": 51,
                        "name": "D#3",
                        "ticks": 3888,
                        "time": 20.25,
                        "velocity": 0.4015748031496063
                    },
                    {
                        "duration": 0.125,
                        "durationTicks": 24,
                        "midi": 63,
                        "name": "D#4",
                        "ticks": 3888,
                        "time": 20.25,
                        "velocity": 0.4015748031496063
                    },
                    {
                        "duration": 0.125,
                        "durationTicks": 24,
                        "midi": 58,
                        "name": "A#3",
                        "ticks": 3888,
                        "time": 20.25,
                        "velocity": 0.4015748031496063
                    },
                    {
                        "duration": 0.125,
                        "durationTicks": 24,
                        "midi": 58,
                        "name": "A#3",
                        "ticks": 3936,
                        "time": 20.5,
                        "velocity": 0.4015748031496063
                    },
                    {
                        "duration": 0.125,
                        "durationTicks": 24,
                        "midi": 63,
                        "name": "D#4",
                        "ticks": 3936,
                        "time": 20.5,
                        "velocity": 0.4015748031496063
                    },
                    {
                        "duration": 0.125,
                        "durationTicks": 24,
                        "midi": 51,
                        "name": "D#3",
                        "ticks": 3936,
                        "time": 20.5,
                        "velocity": 0.4015748031496063
                    },
                    {
                        "duration": 0.125,
                        "durationTicks": 24,
                        "midi": 58,
                        "name": "A#3",
                        "ticks": 3960,
                        "time": 20.625,
                        "velocity": 0.4015748031496063
                    },
                    {
                        "duration": 0.125,
                        "durationTicks": 24,
                        "midi": 63,
                        "name": "D#4",
                        "ticks": 3960,
                        "time": 20.625,
                        "velocity": 0.4015748031496063
                    },
                    {
                        "duration": 0.125,
                        "durationTicks": 24,
                        "midi": 51,
                        "name": "D#3",
                        "ticks": 3960,
                        "time": 20.625,
                        "velocity": 0.4015748031496063
                    },
                    {
                        "duration": 0.125,
                        "durationTicks": 24,
                        "midi": 51,
                        "name": "D#3",
                        "ticks": 3984,
                        "time": 20.75,
                        "velocity": 0.4015748031496063
                    },
                    {
                        "duration": 0.125,
                        "durationTicks": 24,
                        "midi": 63,
                        "name": "D#4",
                        "ticks": 3984,
                        "time": 20.75,
                        "velocity": 0.4015748031496063
                    },
                    {
                        "duration": 0.125,
                        "durationTicks": 24,
                        "midi": 58,
                        "name": "A#3",
                        "ticks": 3984,
                        "time": 20.75,
                        "velocity": 0.4015748031496063
                    },
                    {
                        "duration": 0.25,
                        "durationTicks": 48,
                        "midi": 46,
                        "name": "A#2",
                        "ticks": 4008,
                        "time": 20.875,
                        "velocity": 0.4015748031496063
                    },
                    {
                        "duration": 0.25,
                        "durationTicks": 48,
                        "midi": 58,
                        "name": "A#3",
                        "ticks": 4008,
                        "time": 20.875,
                        "velocity": 0.4015748031496063
                    },
                    {
                        "duration": 0.25,
                        "durationTicks": 48,
                        "midi": 53,
                        "name": "F3",
                        "ticks": 4008,
                        "time": 20.875,
                        "velocity": 0.4015748031496063
                    },
                    {
                        "duration": 0.125,
                        "durationTicks": 24,
                        "midi": 46,
                        "name": "A#2",
                        "ticks": 4056,
                        "time": 21.125,
                        "velocity": 0.4015748031496063
                    },
                    {
                        "duration": 0.125,
                        "durationTicks": 24,
                        "midi": 58,
                        "name": "A#3",
                        "ticks": 4056,
                        "time": 21.125,
                        "velocity": 0.4015748031496063
                    },
                    {
                        "duration": 0.125,
                        "durationTicks": 24,
                        "midi": 53,
                        "name": "F3",
                        "ticks": 4056,
                        "time": 21.125,
                        "velocity": 0.4015748031496063
                    },
                    {
                        "duration": 0.125,
                        "durationTicks": 24,
                        "midi": 53,
                        "name": "F3",
                        "ticks": 4080,
                        "time": 21.25,
                        "velocity": 0.4015748031496063
                    },
                    {
                        "duration": 0.125,
                        "durationTicks": 24,
                        "midi": 58,
                        "name": "A#3",
                        "ticks": 4080,
                        "time": 21.25,
                        "velocity": 0.4015748031496063
                    },
                    {
                        "duration": 0.125,
                        "durationTicks": 24,
                        "midi": 46,
                        "name": "A#2",
                        "ticks": 4080,
                        "time": 21.25,
                        "velocity": 0.4015748031496063
                    },
                    {
                        "duration": 0.125,
                        "durationTicks": 24,
                        "midi": 46,
                        "name": "A#2",
                        "ticks": 4104,
                        "time": 21.375,
                        "velocity": 0.4015748031496063
                    },
                    {
                        "duration": 0.125,
                        "durationTicks": 24,
                        "midi": 58,
                        "name": "A#3",
                        "ticks": 4104,
                        "time": 21.375,
                        "velocity": 0.4015748031496063
                    },
                    {
                        "duration": 0.125,
                        "durationTicks": 24,
                        "midi": 53,
                        "name": "F3",
                        "ticks": 4104,
                        "time": 21.375,
                        "velocity": 0.4015748031496063
                    },
                    {
                        "duration": 0.125,
                        "durationTicks": 24,
                        "midi": 46,
                        "name": "A#2",
                        "ticks": 4128,
                        "time": 21.5,
                        "velocity": 0.4015748031496063
                    },
                    {
                        "duration": 0.125,
                        "durationTicks": 24,
                        "midi": 58,
                        "name": "A#3",
                        "ticks": 4128,
                        "time": 21.5,
                        "velocity": 0.4015748031496063
                    },
                    {
                        "duration": 0.125,
                        "durationTicks": 24,
                        "midi": 53,
                        "name": "F3",
                        "ticks": 4128,
                        "time": 21.5,
                        "velocity": 0.4015748031496063
                    },
                    {
                        "duration": 0.125,
                        "durationTicks": 24,
                        "midi": 46,
                        "name": "A#2",
                        "ticks": 4152,
                        "time": 21.625,
                        "velocity": 0.4015748031496063
                    },
                    {
                        "duration": 0.125,
                        "durationTicks": 24,
                        "midi": 58,
                        "name": "A#3",
                        "ticks": 4152,
                        "time": 21.625,
                        "velocity": 0.4015748031496063
                    },
                    {
                        "duration": 0.125,
                        "durationTicks": 24,
                        "midi": 53,
                        "name": "F3",
                        "ticks": 4152,
                        "time": 21.625,
                        "velocity": 0.4015748031496063
                    },
                    {
                        "duration": 0.125,
                        "durationTicks": 24,
                        "midi": 46,
                        "name": "A#2",
                        "ticks": 4176,
                        "time": 21.75,
                        "velocity": 0.4015748031496063
                    },
                    {
                        "duration": 0.125,
                        "durationTicks": 24,
                        "midi": 58,
                        "name": "A#3",
                        "ticks": 4176,
                        "time": 21.75,
                        "velocity": 0.4015748031496063
                    },
                    {
                        "duration": 0.125,
                        "durationTicks": 24,
                        "midi": 53,
                        "name": "F3",
                        "ticks": 4176,
                        "time": 21.75,
                        "velocity": 0.4015748031496063
                    },
                    {
                        "duration": 0.125,
                        "durationTicks": 24,
                        "midi": 46,
                        "name": "A#2",
                        "ticks": 4200,
                        "time": 21.875,
                        "velocity": 0.4015748031496063
                    },
                    {
                        "duration": 0.125,
                        "durationTicks": 24,
                        "midi": 58,
                        "name": "A#3",
                        "ticks": 4200,
                        "time": 21.875,
                        "velocity": 0.4015748031496063
                    },
                    {
                        "duration": 0.125,
                        "durationTicks": 24,
                        "midi": 53,
                        "name": "F3",
                        "ticks": 4200,
                        "time": 21.875,
                        "velocity": 0.4015748031496063
                    },
                    {
                        "duration": 0.125,
                        "durationTicks": 24,
                        "midi": 53,
                        "name": "F3",
                        "ticks": 4224,
                        "time": 22,
                        "velocity": 0.4015748031496063
                    },
                    {
                        "duration": 0.125,
                        "durationTicks": 24,
                        "midi": 65,
                        "name": "F4",
                        "ticks": 4224,
                        "time": 22,
                        "velocity": 0.4015748031496063
                    },
                    {
                        "duration": 0.125,
                        "durationTicks": 24,
                        "midi": 60,
                        "name": "C4",
                        "ticks": 4224,
                        "time": 22,
                        "velocity": 0.4015748031496063
                    },
                    {
                        "duration": 0.125,
                        "durationTicks": 24,
                        "midi": 53,
                        "name": "F3",
                        "ticks": 4272,
                        "time": 22.25,
                        "velocity": 0.4015748031496063
                    },
                    {
                        "duration": 0.125,
                        "durationTicks": 24,
                        "midi": 65,
                        "name": "F4",
                        "ticks": 4272,
                        "time": 22.25,
                        "velocity": 0.4015748031496063
                    },
                    {
                        "duration": 0.125,
                        "durationTicks": 24,
                        "midi": 60,
                        "name": "C4",
                        "ticks": 4272,
                        "time": 22.25,
                        "velocity": 0.4015748031496063
                    },
                    {
                        "duration": 0.125,
                        "durationTicks": 24,
                        "midi": 60,
                        "name": "C4",
                        "ticks": 4320,
                        "time": 22.5,
                        "velocity": 0.4015748031496063
                    },
                    {
                        "duration": 0.125,
                        "durationTicks": 24,
                        "midi": 65,
                        "name": "F4",
                        "ticks": 4320,
                        "time": 22.5,
                        "velocity": 0.4015748031496063
                    },
                    {
                        "duration": 0.125,
                        "durationTicks": 24,
                        "midi": 53,
                        "name": "F3",
                        "ticks": 4320,
                        "time": 22.5,
                        "velocity": 0.4015748031496063
                    },
                    {
                        "duration": 0.125,
                        "durationTicks": 24,
                        "midi": 53,
                        "name": "F3",
                        "ticks": 4344,
                        "time": 22.625,
                        "velocity": 0.4015748031496063
                    },
                    {
                        "duration": 0.125,
                        "durationTicks": 24,
                        "midi": 65,
                        "name": "F4",
                        "ticks": 4344,
                        "time": 22.625,
                        "velocity": 0.4015748031496063
                    },
                    {
                        "duration": 0.125,
                        "durationTicks": 24,
                        "midi": 60,
                        "name": "C4",
                        "ticks": 4344,
                        "time": 22.625,
                        "velocity": 0.4015748031496063
                    },
                    {
                        "duration": 0.125,
                        "durationTicks": 24,
                        "midi": 53,
                        "name": "F3",
                        "ticks": 4368,
                        "time": 22.75,
                        "velocity": 0.4015748031496063
                    },
                    {
                        "duration": 0.125,
                        "durationTicks": 24,
                        "midi": 65,
                        "name": "F4",
                        "ticks": 4368,
                        "time": 22.75,
                        "velocity": 0.4015748031496063
                    },
                    {
                        "duration": 0.125,
                        "durationTicks": 24,
                        "midi": 60,
                        "name": "C4",
                        "ticks": 4368,
                        "time": 22.75,
                        "velocity": 0.4015748031496063
                    },
                    {
                        "duration": 0.375,
                        "durationTicks": 72,
                        "midi": 62,
                        "name": "D4",
                        "ticks": 4392,
                        "time": 22.875,
                        "velocity": 0.4015748031496063
                    },
                    {
                        "duration": 0.375,
                        "durationTicks": 72,
                        "midi": 67,
                        "name": "G4",
                        "ticks": 4392,
                        "time": 22.875,
                        "velocity": 0.4015748031496063
                    },
                    {
                        "duration": 0.375,
                        "durationTicks": 72,
                        "midi": 55,
                        "name": "G3",
                        "ticks": 4392,
                        "time": 22.875,
                        "velocity": 0.4015748031496063
                    },
                    {
                        "duration": 0.25,
                        "durationTicks": 48,
                        "midi": 39,
                        "name": "D#2",
                        "ticks": 4608,
                        "time": 24,
                        "velocity": 0.4015748031496063
                    },
                    {
                        "duration": 0.125,
                        "durationTicks": 24,
                        "midi": 63,
                        "name": "D#4",
                        "ticks": 4656,
                        "time": 24.25,
                        "velocity": 0.4015748031496063
                    },
                    {
                        "duration": 0.125,
                        "durationTicks": 24,
                        "midi": 58,
                        "name": "A#3",
                        "ticks": 4656,
                        "time": 24.25,
                        "velocity": 0.4015748031496063
                    },
                    {
                        "duration": 0.125,
                        "durationTicks": 24,
                        "midi": 55,
                        "name": "G3",
                        "ticks": 4656,
                        "time": 24.25,
                        "velocity": 0.4015748031496063
                    },
                    {
                        "duration": 0.25,
                        "durationTicks": 48,
                        "midi": 46,
                        "name": "A#2",
                        "ticks": 4704,
                        "time": 24.5,
                        "velocity": 0.4015748031496063
                    },
                    {
                        "duration": 0.125,
                        "durationTicks": 24,
                        "midi": 55,
                        "name": "G3",
                        "ticks": 4752,
                        "time": 24.75,
                        "velocity": 0.4015748031496063
                    },
                    {
                        "duration": 0.125,
                        "durationTicks": 24,
                        "midi": 58,
                        "name": "A#3",
                        "ticks": 4752,
                        "time": 24.75,
                        "velocity": 0.4015748031496063
                    },
                    {
                        "duration": 0.125,
                        "durationTicks": 24,
                        "midi": 63,
                        "name": "D#4",
                        "ticks": 4752,
                        "time": 24.75,
                        "velocity": 0.4015748031496063
                    },
                    {
                        "duration": 0.25,
                        "durationTicks": 48,
                        "midi": 34,
                        "name": "A#1",
                        "ticks": 4800,
                        "time": 25,
                        "velocity": 0.4015748031496063
                    },
                    {
                        "duration": 0.125,
                        "durationTicks": 24,
                        "midi": 58,
                        "name": "A#3",
                        "ticks": 4848,
                        "time": 25.25,
                        "velocity": 0.4015748031496063
                    },
                    {
                        "duration": 0.125,
                        "durationTicks": 24,
                        "midi": 53,
                        "name": "F3",
                        "ticks": 4848,
                        "time": 25.25,
                        "velocity": 0.4015748031496063
                    },
                    {
                        "duration": 0.125,
                        "durationTicks": 24,
                        "midi": 62,
                        "name": "D4",
                        "ticks": 4848,
                        "time": 25.25,
                        "velocity": 0.4015748031496063
                    },
                    {
                        "duration": 0.25,
                        "durationTicks": 48,
                        "midi": 41,
                        "name": "F2",
                        "ticks": 4896,
                        "time": 25.5,
                        "velocity": 0.4015748031496063
                    },
                    {
                        "duration": 0.125,
                        "durationTicks": 24,
                        "midi": 62,
                        "name": "D4",
                        "ticks": 4944,
                        "time": 25.75,
                        "velocity": 0.4015748031496063
                    },
                    {
                        "duration": 0.125,
                        "durationTicks": 24,
                        "midi": 53,
                        "name": "F3",
                        "ticks": 4944,
                        "time": 25.75,
                        "velocity": 0.4015748031496063
                    },
                    {
                        "duration": 0.125,
                        "durationTicks": 24,
                        "midi": 58,
                        "name": "A#3",
                        "ticks": 4944,
                        "time": 25.75,
                        "velocity": 0.4015748031496063
                    },
                    {
                        "duration": 0.25,
                        "durationTicks": 48,
                        "midi": 41,
                        "name": "F2",
                        "ticks": 4992,
                        "time": 26,
                        "velocity": 0.4015748031496063
                    },
                    {
                        "duration": 0.125,
                        "durationTicks": 24,
                        "midi": 57,
                        "name": "A3",
                        "ticks": 5040,
                        "time": 26.25,
                        "velocity": 0.4015748031496063
                    },
                    {
                        "duration": 0.125,
                        "durationTicks": 24,
                        "midi": 60,
                        "name": "C4",
                        "ticks": 5040,
                        "time": 26.25,
                        "velocity": 0.4015748031496063
                    },
                    {
                        "duration": 0.125,
                        "durationTicks": 24,
                        "midi": 65,
                        "name": "F4",
                        "ticks": 5040,
                        "time": 26.25,
                        "velocity": 0.4015748031496063
                    },
                    {
                        "duration": 0.25,
                        "durationTicks": 48,
                        "midi": 48,
                        "name": "C3",
                        "ticks": 5088,
                        "time": 26.5,
                        "velocity": 0.4015748031496063
                    },
                    {
                        "duration": 0.125,
                        "durationTicks": 24,
                        "midi": 57,
                        "name": "A3",
                        "ticks": 5136,
                        "time": 26.75,
                        "velocity": 0.4015748031496063
                    },
                    {
                        "duration": 0.125,
                        "durationTicks": 24,
                        "midi": 60,
                        "name": "C4",
                        "ticks": 5136,
                        "time": 26.75,
                        "velocity": 0.4015748031496063
                    },
                    {
                        "duration": 0.125,
                        "durationTicks": 24,
                        "midi": 65,
                        "name": "F4",
                        "ticks": 5136,
                        "time": 26.75,
                        "velocity": 0.4015748031496063
                    },
                    {
                        "duration": 0.25,
                        "durationTicks": 48,
                        "midi": 43,
                        "name": "G2",
                        "ticks": 5184,
                        "time": 27,
                        "velocity": 0.4015748031496063
                    },
                    {
                        "duration": 0.125,
                        "durationTicks": 24,
                        "midi": 67,
                        "name": "G4",
                        "ticks": 5232,
                        "time": 27.25,
                        "velocity": 0.4015748031496063
                    },
                    {
                        "duration": 0.125,
                        "durationTicks": 24,
                        "midi": 62,
                        "name": "D4",
                        "ticks": 5232,
                        "time": 27.25,
                        "velocity": 0.4015748031496063
                    },
                    {
                        "duration": 0.125,
                        "durationTicks": 24,
                        "midi": 58,
                        "name": "A#3",
                        "ticks": 5232,
                        "time": 27.25,
                        "velocity": 0.4015748031496063
                    },
                    {
                        "duration": 0.25,
                        "durationTicks": 48,
                        "midi": 50,
                        "name": "D3",
                        "ticks": 5280,
                        "time": 27.5,
                        "velocity": 0.4015748031496063
                    },
                    {
                        "duration": 0.125,
                        "durationTicks": 24,
                        "midi": 58,
                        "name": "A#3",
                        "ticks": 5328,
                        "time": 27.75,
                        "velocity": 0.4015748031496063
                    },
                    {
                        "duration": 0.125,
                        "durationTicks": 24,
                        "midi": 67,
                        "name": "G4",
                        "ticks": 5328,
                        "time": 27.75,
                        "velocity": 0.4015748031496063
                    },
                    {
                        "duration": 0.125,
                        "durationTicks": 24,
                        "midi": 62,
                        "name": "D4",
                        "ticks": 5328,
                        "time": 27.75,
                        "velocity": 0.4015748031496063
                    },
                    {
                        "duration": 0.25,
                        "durationTicks": 48,
                        "midi": 39,
                        "name": "D#2",
                        "ticks": 5376,
                        "time": 28,
                        "velocity": 0.4015748031496063
                    },
                    {
                        "duration": 0.125,
                        "durationTicks": 24,
                        "midi": 55,
                        "name": "G3",
                        "ticks": 5424,
                        "time": 28.25,
                        "velocity": 0.4015748031496063
                    },
                    {
                        "duration": 0.125,
                        "durationTicks": 24,
                        "midi": 58,
                        "name": "A#3",
                        "ticks": 5424,
                        "time": 28.25,
                        "velocity": 0.4015748031496063
                    },
                    {
                        "duration": 0.125,
                        "durationTicks": 24,
                        "midi": 63,
                        "name": "D#4",
                        "ticks": 5424,
                        "time": 28.25,
                        "velocity": 0.4015748031496063
                    },
                    {
                        "duration": 0.25,
                        "durationTicks": 48,
                        "midi": 46,
                        "name": "A#2",
                        "ticks": 5472,
                        "time": 28.5,
                        "velocity": 0.4015748031496063
                    },
                    {
                        "duration": 0.125,
                        "durationTicks": 24,
                        "midi": 55,
                        "name": "G3",
                        "ticks": 5520,
                        "time": 28.75,
                        "velocity": 0.4015748031496063
                    },
                    {
                        "duration": 0.125,
                        "durationTicks": 24,
                        "midi": 58,
                        "name": "A#3",
                        "ticks": 5520,
                        "time": 28.75,
                        "velocity": 0.4015748031496063
                    },
                    {
                        "duration": 0.125,
                        "durationTicks": 24,
                        "midi": 63,
                        "name": "D#4",
                        "ticks": 5520,
                        "time": 28.75,
                        "velocity": 0.4015748031496063
                    },
                    {
                        "duration": 0.25,
                        "durationTicks": 48,
                        "midi": 34,
                        "name": "A#1",
                        "ticks": 5568,
                        "time": 29,
                        "velocity": 0.4015748031496063
                    },
                    {
                        "duration": 0.125,
                        "durationTicks": 24,
                        "midi": 62,
                        "name": "D4",
                        "ticks": 5616,
                        "time": 29.25,
                        "velocity": 0.4015748031496063
                    },
                    {
                        "duration": 0.125,
                        "durationTicks": 24,
                        "midi": 53,
                        "name": "F3",
                        "ticks": 5616,
                        "time": 29.25,
                        "velocity": 0.4015748031496063
                    },
                    {
                        "duration": 0.125,
                        "durationTicks": 24,
                        "midi": 58,
                        "name": "A#3",
                        "ticks": 5616,
                        "time": 29.25,
                        "velocity": 0.4015748031496063
                    },
                    {
                        "duration": 0.25,
                        "durationTicks": 48,
                        "midi": 41,
                        "name": "F2",
                        "ticks": 5664,
                        "time": 29.5,
                        "velocity": 0.4015748031496063
                    },
                    {
                        "duration": 0.125,
                        "durationTicks": 24,
                        "midi": 62,
                        "name": "D4",
                        "ticks": 5712,
                        "time": 29.75,
                        "velocity": 0.4015748031496063
                    },
                    {
                        "duration": 0.125,
                        "durationTicks": 24,
                        "midi": 53,
                        "name": "F3",
                        "ticks": 5712,
                        "time": 29.75,
                        "velocity": 0.4015748031496063
                    },
                    {
                        "duration": 0.125,
                        "durationTicks": 24,
                        "midi": 58,
                        "name": "A#3",
                        "ticks": 5712,
                        "time": 29.75,
                        "velocity": 0.4015748031496063
                    },
                    {
                        "duration": 0.25,
                        "durationTicks": 48,
                        "midi": 41,
                        "name": "F2",
                        "ticks": 5760,
                        "time": 30,
                        "velocity": 0.4015748031496063
                    },
                    {
                        "duration": 0.125,
                        "durationTicks": 24,
                        "midi": 57,
                        "name": "A3",
                        "ticks": 5808,
                        "time": 30.25,
                        "velocity": 0.4015748031496063
                    },
                    {
                        "duration": 0.125,
                        "durationTicks": 24,
                        "midi": 60,
                        "name": "C4",
                        "ticks": 5808,
                        "time": 30.25,
                        "velocity": 0.4015748031496063
                    },
                    {
                        "duration": 0.125,
                        "durationTicks": 24,
                        "midi": 65,
                        "name": "F4",
                        "ticks": 5808,
                        "time": 30.25,
                        "velocity": 0.4015748031496063
                    },
                    {
                        "duration": 0.25,
                        "durationTicks": 48,
                        "midi": 48,
                        "name": "C3",
                        "ticks": 5856,
                        "time": 30.5,
                        "velocity": 0.4015748031496063
                    },
                    {
                        "duration": 0.125,
                        "durationTicks": 24,
                        "midi": 57,
                        "name": "A3",
                        "ticks": 5904,
                        "time": 30.75,
                        "velocity": 0.4015748031496063
                    },
                    {
                        "duration": 0.125,
                        "durationTicks": 24,
                        "midi": 60,
                        "name": "C4",
                        "ticks": 5904,
                        "time": 30.75,
                        "velocity": 0.4015748031496063
                    },
                    {
                        "duration": 0.125,
                        "durationTicks": 24,
                        "midi": 65,
                        "name": "F4",
                        "ticks": 5904,
                        "time": 30.75,
                        "velocity": 0.4015748031496063
                    },
                    {
                        "duration": 0.25,
                        "durationTicks": 48,
                        "midi": 43,
                        "name": "G2",
                        "ticks": 5952,
                        "time": 31,
                        "velocity": 0.4015748031496063
                    },
                    {
                        "duration": 0.125,
                        "durationTicks": 24,
                        "midi": 58,
                        "name": "A#3",
                        "ticks": 6000,
                        "time": 31.25,
                        "velocity": 0.4015748031496063
                    },
                    {
                        "duration": 0.125,
                        "durationTicks": 24,
                        "midi": 62,
                        "name": "D4",
                        "ticks": 6000,
                        "time": 31.25,
                        "velocity": 0.4015748031496063
                    },
                    {
                        "duration": 0.125,
                        "durationTicks": 24,
                        "midi": 67,
                        "name": "G4",
                        "ticks": 6000,
                        "time": 31.25,
                        "velocity": 0.4015748031496063
                    },
                    {
                        "duration": 0.25,
                        "durationTicks": 48,
                        "midi": 50,
                        "name": "D3",
                        "ticks": 6048,
                        "time": 31.5,
                        "velocity": 0.4015748031496063
                    },
                    {
                        "duration": 0.125,
                        "durationTicks": 24,
                        "midi": 58,
                        "name": "A#3",
                        "ticks": 6096,
                        "time": 31.75,
                        "velocity": 0.4015748031496063
                    },
                    {
                        "duration": 0.125,
                        "durationTicks": 24,
                        "midi": 67,
                        "name": "G4",
                        "ticks": 6096,
                        "time": 31.75,
                        "velocity": 0.4015748031496063
                    },
                    {
                        "duration": 0.125,
                        "durationTicks": 24,
                        "midi": 62,
                        "name": "D4",
                        "ticks": 6096,
                        "time": 31.75,
                        "velocity": 0.4015748031496063
                    },
                    {
                        "duration": 0.25,
                        "durationTicks": 48,
                        "midi": 39,
                        "name": "D#2",
                        "ticks": 6144,
                        "time": 32,
                        "velocity": 0.4015748031496063
                    },
                    {
                        "duration": 0.125,
                        "durationTicks": 24,
                        "midi": 63,
                        "name": "D#4",
                        "ticks": 6192,
                        "time": 32.25,
                        "velocity": 0.4015748031496063
                    },
                    {
                        "duration": 0.125,
                        "durationTicks": 24,
                        "midi": 58,
                        "name": "A#3",
                        "ticks": 6192,
                        "time": 32.25,
                        "velocity": 0.4015748031496063
                    },
                    {
                        "duration": 0.125,
                        "durationTicks": 24,
                        "midi": 55,
                        "name": "G3",
                        "ticks": 6192,
                        "time": 32.25,
                        "velocity": 0.4015748031496063
                    },
                    {
                        "duration": 0.25,
                        "durationTicks": 48,
                        "midi": 46,
                        "name": "A#2",
                        "ticks": 6240,
                        "time": 32.5,
                        "velocity": 0.4015748031496063
                    },
                    {
                        "duration": 0.125,
                        "durationTicks": 24,
                        "midi": 55,
                        "name": "G3",
                        "ticks": 6288,
                        "time": 32.75,
                        "velocity": 0.4015748031496063
                    },
                    {
                        "duration": 0.125,
                        "durationTicks": 24,
                        "midi": 58,
                        "name": "A#3",
                        "ticks": 6288,
                        "time": 32.75,
                        "velocity": 0.4015748031496063
                    },
                    {
                        "duration": 0.125,
                        "durationTicks": 24,
                        "midi": 63,
                        "name": "D#4",
                        "ticks": 6288,
                        "time": 32.75,
                        "velocity": 0.4015748031496063
                    },
                    {
                        "duration": 0.25,
                        "durationTicks": 48,
                        "midi": 34,
                        "name": "A#1",
                        "ticks": 6336,
                        "time": 33,
                        "velocity": 0.4015748031496063
                    },
                    {
                        "duration": 0.125,
                        "durationTicks": 24,
                        "midi": 58,
                        "name": "A#3",
                        "ticks": 6384,
                        "time": 33.25,
                        "velocity": 0.4015748031496063
                    },
                    {
                        "duration": 0.125,
                        "durationTicks": 24,
                        "midi": 53,
                        "name": "F3",
                        "ticks": 6384,
                        "time": 33.25,
                        "velocity": 0.4015748031496063
                    },
                    {
                        "duration": 0.125,
                        "durationTicks": 24,
                        "midi": 62,
                        "name": "D4",
                        "ticks": 6384,
                        "time": 33.25,
                        "velocity": 0.4015748031496063
                    },
                    {
                        "duration": 0.25,
                        "durationTicks": 48,
                        "midi": 41,
                        "name": "F2",
                        "ticks": 6432,
                        "time": 33.5,
                        "velocity": 0.4015748031496063
                    },
                    {
                        "duration": 0.125,
                        "durationTicks": 24,
                        "midi": 62,
                        "name": "D4",
                        "ticks": 6480,
                        "time": 33.75,
                        "velocity": 0.4015748031496063
                    },
                    {
                        "duration": 0.125,
                        "durationTicks": 24,
                        "midi": 53,
                        "name": "F3",
                        "ticks": 6480,
                        "time": 33.75,
                        "velocity": 0.4015748031496063
                    },
                    {
                        "duration": 0.125,
                        "durationTicks": 24,
                        "midi": 58,
                        "name": "A#3",
                        "ticks": 6480,
                        "time": 33.75,
                        "velocity": 0.4015748031496063
                    },
                    {
                        "duration": 0.25,
                        "durationTicks": 48,
                        "midi": 41,
                        "name": "F2",
                        "ticks": 6528,
                        "time": 34,
                        "velocity": 0.4015748031496063
                    },
                    {
                        "duration": 0.125,
                        "durationTicks": 24,
                        "midi": 57,
                        "name": "A3",
                        "ticks": 6576,
                        "time": 34.25,
                        "velocity": 0.4015748031496063
                    },
                    {
                        "duration": 0.125,
                        "durationTicks": 24,
                        "midi": 60,
                        "name": "C4",
                        "ticks": 6576,
                        "time": 34.25,
                        "velocity": 0.4015748031496063
                    },
                    {
                        "duration": 0.125,
                        "durationTicks": 24,
                        "midi": 65,
                        "name": "F4",
                        "ticks": 6576,
                        "time": 34.25,
                        "velocity": 0.4015748031496063
                    },
                    {
                        "duration": 0.25,
                        "durationTicks": 48,
                        "midi": 48,
                        "name": "C3",
                        "ticks": 6624,
                        "time": 34.5,
                        "velocity": 0.4015748031496063
                    },
                    {
                        "duration": 0.125,
                        "durationTicks": 24,
                        "midi": 57,
                        "name": "A3",
                        "ticks": 6672,
                        "time": 34.75,
                        "velocity": 0.4015748031496063
                    },
                    {
                        "duration": 0.125,
                        "durationTicks": 24,
                        "midi": 60,
                        "name": "C4",
                        "ticks": 6672,
                        "time": 34.75,
                        "velocity": 0.4015748031496063
                    },
                    {
                        "duration": 0.125,
                        "durationTicks": 24,
                        "midi": 65,
                        "name": "F4",
                        "ticks": 6672,
                        "time": 34.75,
                        "velocity": 0.4015748031496063
                    },
                    {
                        "duration": 0.25,
                        "durationTicks": 48,
                        "midi": 43,
                        "name": "G2",
                        "ticks": 6720,
                        "time": 35,
                        "velocity": 0.4015748031496063
                    },
                    {
                        "duration": 0.125,
                        "durationTicks": 24,
                        "midi": 67,
                        "name": "G4",
                        "ticks": 6768,
                        "time": 35.25,
                        "velocity": 0.4015748031496063
                    },
                    {
                        "duration": 0.125,
                        "durationTicks": 24,
                        "midi": 62,
                        "name": "D4",
                        "ticks": 6768,
                        "time": 35.25,
                        "velocity": 0.4015748031496063
                    },
                    {
                        "duration": 0.125,
                        "durationTicks": 24,
                        "midi": 58,
                        "name": "A#3",
                        "ticks": 6768,
                        "time": 35.25,
                        "velocity": 0.4015748031496063
                    },
                    {
                        "duration": 0.25,
                        "durationTicks": 48,
                        "midi": 50,
                        "name": "D3",
                        "ticks": 6816,
                        "time": 35.5,
                        "velocity": 0.4015748031496063
                    },
                    {
                        "duration": 0.125,
                        "durationTicks": 24,
                        "midi": 58,
                        "name": "A#3",
                        "ticks": 6864,
                        "time": 35.75,
                        "velocity": 0.4015748031496063
                    },
                    {
                        "duration": 0.125,
                        "durationTicks": 24,
                        "midi": 67,
                        "name": "G4",
                        "ticks": 6864,
                        "time": 35.75,
                        "velocity": 0.4015748031496063
                    },
                    {
                        "duration": 0.125,
                        "durationTicks": 24,
                        "midi": 62,
                        "name": "D4",
                        "ticks": 6864,
                        "time": 35.75,
                        "velocity": 0.4015748031496063
                    },
                    {
                        "duration": 0.25,
                        "durationTicks": 48,
                        "midi": 39,
                        "name": "D#2",
                        "ticks": 6912,
                        "time": 36,
                        "velocity": 0.4015748031496063
                    },
                    {
                        "duration": 0.125,
                        "durationTicks": 24,
                        "midi": 55,
                        "name": "G3",
                        "ticks": 6960,
                        "time": 36.25,
                        "velocity": 0.4015748031496063
                    },
                    {
                        "duration": 0.125,
                        "durationTicks": 24,
                        "midi": 58,
                        "name": "A#3",
                        "ticks": 6960,
                        "time": 36.25,
                        "velocity": 0.4015748031496063
                    },
                    {
                        "duration": 0.125,
                        "durationTicks": 24,
                        "midi": 63,
                        "name": "D#4",
                        "ticks": 6960,
                        "time": 36.25,
                        "velocity": 0.4015748031496063
                    },
                    {
                        "duration": 0.25,
                        "durationTicks": 48,
                        "midi": 46,
                        "name": "A#2",
                        "ticks": 7008,
                        "time": 36.5,
                        "velocity": 0.4015748031496063
                    },
                    {
                        "duration": 0.125,
                        "durationTicks": 24,
                        "midi": 55,
                        "name": "G3",
                        "ticks": 7056,
                        "time": 36.75,
                        "velocity": 0.4015748031496063
                    },
                    {
                        "duration": 0.125,
                        "durationTicks": 24,
                        "midi": 58,
                        "name": "A#3",
                        "ticks": 7056,
                        "time": 36.75,
                        "velocity": 0.4015748031496063
                    },
                    {
                        "duration": 0.125,
                        "durationTicks": 24,
                        "midi": 63,
                        "name": "D#4",
                        "ticks": 7056,
                        "time": 36.75,
                        "velocity": 0.4015748031496063
                    },
                    {
                        "duration": 0.25,
                        "durationTicks": 48,
                        "midi": 34,
                        "name": "A#1",
                        "ticks": 7104,
                        "time": 37,
                        "velocity": 0.4015748031496063
                    },
                    {
                        "duration": 0.125,
                        "durationTicks": 24,
                        "midi": 62,
                        "name": "D4",
                        "ticks": 7152,
                        "time": 37.25,
                        "velocity": 0.4015748031496063
                    },
                    {
                        "duration": 0.125,
                        "durationTicks": 24,
                        "midi": 53,
                        "name": "F3",
                        "ticks": 7152,
                        "time": 37.25,
                        "velocity": 0.4015748031496063
                    },
                    {
                        "duration": 0.125,
                        "durationTicks": 24,
                        "midi": 58,
                        "name": "A#3",
                        "ticks": 7152,
                        "time": 37.25,
                        "velocity": 0.4015748031496063
                    },
                    {
                        "duration": 0.25,
                        "durationTicks": 48,
                        "midi": 41,
                        "name": "F2",
                        "ticks": 7200,
                        "time": 37.5,
                        "velocity": 0.4015748031496063
                    },
                    {
                        "duration": 0.125,
                        "durationTicks": 24,
                        "midi": 62,
                        "name": "D4",
                        "ticks": 7248,
                        "time": 37.75,
                        "velocity": 0.4015748031496063
                    },
                    {
                        "duration": 0.125,
                        "durationTicks": 24,
                        "midi": 53,
                        "name": "F3",
                        "ticks": 7248,
                        "time": 37.75,
                        "velocity": 0.4015748031496063
                    },
                    {
                        "duration": 0.125,
                        "durationTicks": 24,
                        "midi": 58,
                        "name": "A#3",
                        "ticks": 7248,
                        "time": 37.75,
                        "velocity": 0.4015748031496063
                    },
                    {
                        "duration": 0.25,
                        "durationTicks": 48,
                        "midi": 41,
                        "name": "F2",
                        "ticks": 7296,
                        "time": 38,
                        "velocity": 0.4015748031496063
                    },
                    {
                        "duration": 0.125,
                        "durationTicks": 24,
                        "midi": 57,
                        "name": "A3",
                        "ticks": 7344,
                        "time": 38.25,
                        "velocity": 0.4015748031496063
                    },
                    {
                        "duration": 0.125,
                        "durationTicks": 24,
                        "midi": 60,
                        "name": "C4",
                        "ticks": 7344,
                        "time": 38.25,
                        "velocity": 0.4015748031496063
                    },
                    {
                        "duration": 0.125,
                        "durationTicks": 24,
                        "midi": 65,
                        "name": "F4",
                        "ticks": 7344,
                        "time": 38.25,
                        "velocity": 0.4015748031496063
                    },
                    {
                        "duration": 0.25,
                        "durationTicks": 48,
                        "midi": 48,
                        "name": "C3",
                        "ticks": 7392,
                        "time": 38.5,
                        "velocity": 0.4015748031496063
                    },
                    {
                        "duration": 0.125,
                        "durationTicks": 24,
                        "midi": 57,
                        "name": "A3",
                        "ticks": 7440,
                        "time": 38.75,
                        "velocity": 0.4015748031496063
                    },
                    {
                        "duration": 0.125,
                        "durationTicks": 24,
                        "midi": 60,
                        "name": "C4",
                        "ticks": 7440,
                        "time": 38.75,
                        "velocity": 0.4015748031496063
                    },
                    {
                        "duration": 0.125,
                        "durationTicks": 24,
                        "midi": 65,
                        "name": "F4",
                        "ticks": 7440,
                        "time": 38.75,
                        "velocity": 0.4015748031496063
                    },
                    {
                        "duration": 0.25,
                        "durationTicks": 48,
                        "midi": 43,
                        "name": "G2",
                        "ticks": 7488,
                        "time": 39,
                        "velocity": 0.4015748031496063
                    },
                    {
                        "duration": 0.125,
                        "durationTicks": 24,
                        "midi": 58,
                        "name": "A#3",
                        "ticks": 7536,
                        "time": 39.25,
                        "velocity": 0.4015748031496063
                    },
                    {
                        "duration": 0.125,
                        "durationTicks": 24,
                        "midi": 62,
                        "name": "D4",
                        "ticks": 7536,
                        "time": 39.25,
                        "velocity": 0.4015748031496063
                    },
                    {
                        "duration": 0.125,
                        "durationTicks": 24,
                        "midi": 67,
                        "name": "G4",
                        "ticks": 7536,
                        "time": 39.25,
                        "velocity": 0.4015748031496063
                    },
                    {
                        "duration": 0.25,
                        "durationTicks": 48,
                        "midi": 50,
                        "name": "D3",
                        "ticks": 7584,
                        "time": 39.5,
                        "velocity": 0.4015748031496063
                    },
                    {
                        "duration": 0.125,
                        "durationTicks": 24,
                        "midi": 58,
                        "name": "A#3",
                        "ticks": 7632,
                        "time": 39.75,
                        "velocity": 0.4015748031496063
                    },
                    {
                        "duration": 0.125,
                        "durationTicks": 24,
                        "midi": 67,
                        "name": "G4",
                        "ticks": 7632,
                        "time": 39.75,
                        "velocity": 0.4015748031496063
                    },
                    {
                        "duration": 0.125,
                        "durationTicks": 24,
                        "midi": 62,
                        "name": "D4",
                        "ticks": 7632,
                        "time": 39.75,
                        "velocity": 0.4015748031496063
                    },
                    {
                        "duration": 0.25,
                        "durationTicks": 48,
                        "midi": 39,
                        "name": "D#2",
                        "ticks": 7680,
                        "time": 40,
                        "velocity": 0.4015748031496063
                    },
                    {
                        "duration": 0.125,
                        "durationTicks": 24,
                        "midi": 63,
                        "name": "D#4",
                        "ticks": 7728,
                        "time": 40.25,
                        "velocity": 0.4015748031496063
                    },
                    {
                        "duration": 0.125,
                        "durationTicks": 24,
                        "midi": 58,
                        "name": "A#3",
                        "ticks": 7728,
                        "time": 40.25,
                        "velocity": 0.4015748031496063
                    },
                    {
                        "duration": 0.125,
                        "durationTicks": 24,
                        "midi": 55,
                        "name": "G3",
                        "ticks": 7728,
                        "time": 40.25,
                        "velocity": 0.4015748031496063
                    },
                    {
                        "duration": 0.25,
                        "durationTicks": 48,
                        "midi": 46,
                        "name": "A#2",
                        "ticks": 7776,
                        "time": 40.5,
                        "velocity": 0.4015748031496063
                    },
                    {
                        "duration": 0.125,
                        "durationTicks": 24,
                        "midi": 63,
                        "name": "D#4",
                        "ticks": 7824,
                        "time": 40.75,
                        "velocity": 0.4015748031496063
                    },
                    {
                        "duration": 0.125,
                        "durationTicks": 24,
                        "midi": 58,
                        "name": "A#3",
                        "ticks": 7824,
                        "time": 40.75,
                        "velocity": 0.4015748031496063
                    },
                    {
                        "duration": 0.125,
                        "durationTicks": 24,
                        "midi": 55,
                        "name": "G3",
                        "ticks": 7824,
                        "time": 40.75,
                        "velocity": 0.4015748031496063
                    },
                    {
                        "duration": 0.25,
                        "durationTicks": 48,
                        "midi": 34,
                        "name": "A#1",
                        "ticks": 7872,
                        "time": 41,
                        "velocity": 0.4015748031496063
                    },
                    {
                        "duration": 0.125,
                        "durationTicks": 24,
                        "midi": 62,
                        "name": "D4",
                        "ticks": 7920,
                        "time": 41.25,
                        "velocity": 0.4015748031496063
                    },
                    {
                        "duration": 0.125,
                        "durationTicks": 24,
                        "midi": 53,
                        "name": "F3",
                        "ticks": 7920,
                        "time": 41.25,
                        "velocity": 0.4015748031496063
                    },
                    {
                        "duration": 0.125,
                        "durationTicks": 24,
                        "midi": 58,
                        "name": "A#3",
                        "ticks": 7920,
                        "time": 41.25,
                        "velocity": 0.4015748031496063
                    },
                    {
                        "duration": 0.25,
                        "durationTicks": 48,
                        "midi": 41,
                        "name": "F2",
                        "ticks": 7968,
                        "time": 41.5,
                        "velocity": 0.4015748031496063
                    },
                    {
                        "duration": 0.125,
                        "durationTicks": 24,
                        "midi": 58,
                        "name": "A#3",
                        "ticks": 8016,
                        "time": 41.75,
                        "velocity": 0.4015748031496063
                    },
                    {
                        "duration": 0.125,
                        "durationTicks": 24,
                        "midi": 53,
                        "name": "F3",
                        "ticks": 8016,
                        "time": 41.75,
                        "velocity": 0.4015748031496063
                    },
                    {
                        "duration": 0.125,
                        "durationTicks": 24,
                        "midi": 62,
                        "name": "D4",
                        "ticks": 8016,
                        "time": 41.75,
                        "velocity": 0.4015748031496063
                    },
                    {
                        "duration": 0.25,
                        "durationTicks": 48,
                        "midi": 41,
                        "name": "F2",
                        "ticks": 8064,
                        "time": 42,
                        "velocity": 0.4015748031496063
                    },
                    {
                        "duration": 0.125,
                        "durationTicks": 24,
                        "midi": 57,
                        "name": "A3",
                        "ticks": 8112,
                        "time": 42.25,
                        "velocity": 0.4015748031496063
                    },
                    {
                        "duration": 0.125,
                        "durationTicks": 24,
                        "midi": 60,
                        "name": "C4",
                        "ticks": 8112,
                        "time": 42.25,
                        "velocity": 0.4015748031496063
                    },
                    {
                        "duration": 0.125,
                        "durationTicks": 24,
                        "midi": 65,
                        "name": "F4",
                        "ticks": 8112,
                        "time": 42.25,
                        "velocity": 0.4015748031496063
                    },
                    {
                        "duration": 0.25,
                        "durationTicks": 48,
                        "midi": 48,
                        "name": "C3",
                        "ticks": 8160,
                        "time": 42.5,
                        "velocity": 0.4015748031496063
                    },
                    {
                        "duration": 0.125,
                        "durationTicks": 24,
                        "midi": 57,
                        "name": "A3",
                        "ticks": 8208,
                        "time": 42.75,
                        "velocity": 0.4015748031496063
                    },
                    {
                        "duration": 0.125,
                        "durationTicks": 24,
                        "midi": 60,
                        "name": "C4",
                        "ticks": 8208,
                        "time": 42.75,
                        "velocity": 0.4015748031496063
                    },
                    {
                        "duration": 0.125,
                        "durationTicks": 24,
                        "midi": 65,
                        "name": "F4",
                        "ticks": 8208,
                        "time": 42.75,
                        "velocity": 0.4015748031496063
                    },
                    {
                        "duration": 0.25,
                        "durationTicks": 48,
                        "midi": 43,
                        "name": "G2",
                        "ticks": 8256,
                        "time": 43,
                        "velocity": 0.4015748031496063
                    },
                    {
                        "duration": 0.125,
                        "durationTicks": 24,
                        "midi": 58,
                        "name": "A#3",
                        "ticks": 8304,
                        "time": 43.25,
                        "velocity": 0.4015748031496063
                    },
                    {
                        "duration": 0.125,
                        "durationTicks": 24,
                        "midi": 62,
                        "name": "D4",
                        "ticks": 8304,
                        "time": 43.25,
                        "velocity": 0.4015748031496063
                    },
                    {
                        "duration": 0.125,
                        "durationTicks": 24,
                        "midi": 67,
                        "name": "G4",
                        "ticks": 8304,
                        "time": 43.25,
                        "velocity": 0.4015748031496063
                    },
                    {
                        "duration": 0.25,
                        "durationTicks": 48,
                        "midi": 50,
                        "name": "D3",
                        "ticks": 8352,
                        "time": 43.5,
                        "velocity": 0.4015748031496063
                    },
                    {
                        "duration": 0.125,
                        "durationTicks": 24,
                        "midi": 58,
                        "name": "A#3",
                        "ticks": 8400,
                        "time": 43.75,
                        "velocity": 0.4015748031496063
                    },
                    {
                        "duration": 0.125,
                        "durationTicks": 24,
                        "midi": 67,
                        "name": "G4",
                        "ticks": 8400,
                        "time": 43.75,
                        "velocity": 0.4015748031496063
                    },
                    {
                        "duration": 0.125,
                        "durationTicks": 24,
                        "midi": 62,
                        "name": "D4",
                        "ticks": 8400,
                        "time": 43.75,
                        "velocity": 0.4015748031496063
                    },
                    {
                        "duration": 0.25,
                        "durationTicks": 48,
                        "midi": 39,
                        "name": "D#2",
                        "ticks": 8448,
                        "time": 44,
                        "velocity": 0.4015748031496063
                    },
                    {
                        "duration": 0.125,
                        "durationTicks": 24,
                        "midi": 55,
                        "name": "G3",
                        "ticks": 8496,
                        "time": 44.25,
                        "velocity": 0.4015748031496063
                    },
                    {
                        "duration": 0.125,
                        "durationTicks": 24,
                        "midi": 58,
                        "name": "A#3",
                        "ticks": 8496,
                        "time": 44.25,
                        "velocity": 0.4015748031496063
                    },
                    {
                        "duration": 0.125,
                        "durationTicks": 24,
                        "midi": 63,
                        "name": "D#4",
                        "ticks": 8496,
                        "time": 44.25,
                        "velocity": 0.4015748031496063
                    },
                    {
                        "duration": 0.25,
                        "durationTicks": 48,
                        "midi": 46,
                        "name": "A#2",
                        "ticks": 8544,
                        "time": 44.5,
                        "velocity": 0.4015748031496063
                    },
                    {
                        "duration": 0.125,
                        "durationTicks": 24,
                        "midi": 55,
                        "name": "G3",
                        "ticks": 8592,
                        "time": 44.75,
                        "velocity": 0.4015748031496063
                    },
                    {
                        "duration": 0.125,
                        "durationTicks": 24,
                        "midi": 58,
                        "name": "A#3",
                        "ticks": 8592,
                        "time": 44.75,
                        "velocity": 0.4015748031496063
                    },
                    {
                        "duration": 0.125,
                        "durationTicks": 24,
                        "midi": 63,
                        "name": "D#4",
                        "ticks": 8592,
                        "time": 44.75,
                        "velocity": 0.4015748031496063
                    },
                    {
                        "duration": 0.25,
                        "durationTicks": 48,
                        "midi": 34,
                        "name": "A#1",
                        "ticks": 8640,
                        "time": 45,
                        "velocity": 0.4015748031496063
                    },
                    {
                        "duration": 0.125,
                        "durationTicks": 24,
                        "midi": 58,
                        "name": "A#3",
                        "ticks": 8688,
                        "time": 45.25,
                        "velocity": 0.4015748031496063
                    },
                    {
                        "duration": 0.125,
                        "durationTicks": 24,
                        "midi": 53,
                        "name": "F3",
                        "ticks": 8688,
                        "time": 45.25,
                        "velocity": 0.4015748031496063
                    },
                    {
                        "duration": 0.125,
                        "durationTicks": 24,
                        "midi": 62,
                        "name": "D4",
                        "ticks": 8688,
                        "time": 45.25,
                        "velocity": 0.4015748031496063
                    },
                    {
                        "duration": 0.25,
                        "durationTicks": 48,
                        "midi": 41,
                        "name": "F2",
                        "ticks": 8736,
                        "time": 45.5,
                        "velocity": 0.4015748031496063
                    },
                    {
                        "duration": 0.125,
                        "durationTicks": 24,
                        "midi": 62,
                        "name": "D4",
                        "ticks": 8784,
                        "time": 45.75,
                        "velocity": 0.4015748031496063
                    },
                    {
                        "duration": 0.125,
                        "durationTicks": 24,
                        "midi": 53,
                        "name": "F3",
                        "ticks": 8784,
                        "time": 45.75,
                        "velocity": 0.4015748031496063
                    },
                    {
                        "duration": 0.125,
                        "durationTicks": 24,
                        "midi": 58,
                        "name": "A#3",
                        "ticks": 8784,
                        "time": 45.75,
                        "velocity": 0.4015748031496063
                    },
                    {
                        "duration": 0.25,
                        "durationTicks": 48,
                        "midi": 41,
                        "name": "F2",
                        "ticks": 8832,
                        "time": 46,
                        "velocity": 0.4015748031496063
                    },
                    {
                        "duration": 0.125,
                        "durationTicks": 24,
                        "midi": 57,
                        "name": "A3",
                        "ticks": 8880,
                        "time": 46.25,
                        "velocity": 0.4015748031496063
                    },
                    {
                        "duration": 0.125,
                        "durationTicks": 24,
                        "midi": 60,
                        "name": "C4",
                        "ticks": 8880,
                        "time": 46.25,
                        "velocity": 0.4015748031496063
                    },
                    {
                        "duration": 0.125,
                        "durationTicks": 24,
                        "midi": 65,
                        "name": "F4",
                        "ticks": 8880,
                        "time": 46.25,
                        "velocity": 0.4015748031496063
                    },
                    {
                        "duration": 0.25,
                        "durationTicks": 48,
                        "midi": 48,
                        "name": "C3",
                        "ticks": 8928,
                        "time": 46.5,
                        "velocity": 0.4015748031496063
                    },
                    {
                        "duration": 0.125,
                        "durationTicks": 24,
                        "midi": 57,
                        "name": "A3",
                        "ticks": 8976,
                        "time": 46.75,
                        "velocity": 0.4015748031496063
                    },
                    {
                        "duration": 0.125,
                        "durationTicks": 24,
                        "midi": 60,
                        "name": "C4",
                        "ticks": 8976,
                        "time": 46.75,
                        "velocity": 0.4015748031496063
                    },
                    {
                        "duration": 0.125,
                        "durationTicks": 24,
                        "midi": 65,
                        "name": "F4",
                        "ticks": 8976,
                        "time": 46.75,
                        "velocity": 0.4015748031496063
                    },
                    {
                        "duration": 0.25,
                        "durationTicks": 48,
                        "midi": 43,
                        "name": "G2",
                        "ticks": 9024,
                        "time": 47,
                        "velocity": 0.4015748031496063
                    },
                    {
                        "duration": 0.125,
                        "durationTicks": 24,
                        "midi": 67,
                        "name": "G4",
                        "ticks": 9072,
                        "time": 47.25,
                        "velocity": 0.4015748031496063
                    },
                    {
                        "duration": 0.125,
                        "durationTicks": 24,
                        "midi": 62,
                        "name": "D4",
                        "ticks": 9072,
                        "time": 47.25,
                        "velocity": 0.4015748031496063
                    },
                    {
                        "duration": 0.125,
                        "durationTicks": 24,
                        "midi": 58,
                        "name": "A#3",
                        "ticks": 9072,
                        "time": 47.25,
                        "velocity": 0.4015748031496063
                    },
                    {
                        "duration": 0.25,
                        "durationTicks": 48,
                        "midi": 50,
                        "name": "D3",
                        "ticks": 9120,
                        "time": 47.5,
                        "velocity": 0.4015748031496063
                    },
                    {
                        "duration": 0.125,
                        "durationTicks": 24,
                        "midi": 62,
                        "name": "D4",
                        "ticks": 9168,
                        "time": 47.75,
                        "velocity": 0.4015748031496063
                    },
                    {
                        "duration": 0.125,
                        "durationTicks": 24,
                        "midi": 67,
                        "name": "G4",
                        "ticks": 9168,
                        "time": 47.75,
                        "velocity": 0.4015748031496063
                    },
                    {
                        "duration": 0.125,
                        "durationTicks": 24,
                        "midi": 58,
                        "name": "A#3",
                        "ticks": 9168,
                        "time": 47.75,
                        "velocity": 0.4015748031496063
                    },
                    {
                        "duration": 0.25,
                        "durationTicks": 48,
                        "midi": 39,
                        "name": "D#2",
                        "ticks": 9216,
                        "time": 48,
                        "velocity": 0.4015748031496063
                    },
                    {
                        "duration": 0.125,
                        "durationTicks": 24,
                        "midi": 63,
                        "name": "D#4",
                        "ticks": 9264,
                        "time": 48.25,
                        "velocity": 0.4015748031496063
                    },
                    {
                        "duration": 0.125,
                        "durationTicks": 24,
                        "midi": 58,
                        "name": "A#3",
                        "ticks": 9264,
                        "time": 48.25,
                        "velocity": 0.4015748031496063
                    },
                    {
                        "duration": 0.125,
                        "durationTicks": 24,
                        "midi": 55,
                        "name": "G3",
                        "ticks": 9264,
                        "time": 48.25,
                        "velocity": 0.4015748031496063
                    },
                    {
                        "duration": 0.25,
                        "durationTicks": 48,
                        "midi": 46,
                        "name": "A#2",
                        "ticks": 9312,
                        "time": 48.5,
                        "velocity": 0.4015748031496063
                    },
                    {
                        "duration": 0.125,
                        "durationTicks": 24,
                        "midi": 55,
                        "name": "G3",
                        "ticks": 9360,
                        "time": 48.75,
                        "velocity": 0.4015748031496063
                    },
                    {
                        "duration": 0.125,
                        "durationTicks": 24,
                        "midi": 58,
                        "name": "A#3",
                        "ticks": 9360,
                        "time": 48.75,
                        "velocity": 0.4015748031496063
                    },
                    {
                        "duration": 0.125,
                        "durationTicks": 24,
                        "midi": 63,
                        "name": "D#4",
                        "ticks": 9360,
                        "time": 48.75,
                        "velocity": 0.4015748031496063
                    },
                    {
                        "duration": 0.25,
                        "durationTicks": 48,
                        "midi": 34,
                        "name": "A#1",
                        "ticks": 9408,
                        "time": 49,
                        "velocity": 0.4015748031496063
                    },
                    {
                        "duration": 0.125,
                        "durationTicks": 24,
                        "midi": 58,
                        "name": "A#3",
                        "ticks": 9456,
                        "time": 49.25,
                        "velocity": 0.4015748031496063
                    },
                    {
                        "duration": 0.125,
                        "durationTicks": 24,
                        "midi": 53,
                        "name": "F3",
                        "ticks": 9456,
                        "time": 49.25,
                        "velocity": 0.4015748031496063
                    },
                    {
                        "duration": 0.125,
                        "durationTicks": 24,
                        "midi": 62,
                        "name": "D4",
                        "ticks": 9456,
                        "time": 49.25,
                        "velocity": 0.4015748031496063
                    },
                    {
                        "duration": 0.25,
                        "durationTicks": 48,
                        "midi": 41,
                        "name": "F2",
                        "ticks": 9504,
                        "time": 49.5,
                        "velocity": 0.4015748031496063
                    },
                    {
                        "duration": 0.125,
                        "durationTicks": 24,
                        "midi": 62,
                        "name": "D4",
                        "ticks": 9552,
                        "time": 49.75,
                        "velocity": 0.4015748031496063
                    },
                    {
                        "duration": 0.125,
                        "durationTicks": 24,
                        "midi": 53,
                        "name": "F3",
                        "ticks": 9552,
                        "time": 49.75,
                        "velocity": 0.4015748031496063
                    },
                    {
                        "duration": 0.125,
                        "durationTicks": 24,
                        "midi": 58,
                        "name": "A#3",
                        "ticks": 9552,
                        "time": 49.75,
                        "velocity": 0.4015748031496063
                    },
                    {
                        "duration": 0.25,
                        "durationTicks": 48,
                        "midi": 41,
                        "name": "F2",
                        "ticks": 9600,
                        "time": 50,
                        "velocity": 0.4015748031496063
                    },
                    {
                        "duration": 0.125,
                        "durationTicks": 24,
                        "midi": 65,
                        "name": "F4",
                        "ticks": 9648,
                        "time": 50.25,
                        "velocity": 0.4015748031496063
                    },
                    {
                        "duration": 0.125,
                        "durationTicks": 24,
                        "midi": 60,
                        "name": "C4",
                        "ticks": 9648,
                        "time": 50.25,
                        "velocity": 0.4015748031496063
                    },
                    {
                        "duration": 0.125,
                        "durationTicks": 24,
                        "midi": 57,
                        "name": "A3",
                        "ticks": 9648,
                        "time": 50.25,
                        "velocity": 0.4015748031496063
                    },
                    {
                        "duration": 0.25,
                        "durationTicks": 48,
                        "midi": 48,
                        "name": "C3",
                        "ticks": 9696,
                        "time": 50.5,
                        "velocity": 0.4015748031496063
                    },
                    {
                        "duration": 0.125,
                        "durationTicks": 24,
                        "midi": 57,
                        "name": "A3",
                        "ticks": 9744,
                        "time": 50.75,
                        "velocity": 0.4015748031496063
                    },
                    {
                        "duration": 0.125,
                        "durationTicks": 24,
                        "midi": 60,
                        "name": "C4",
                        "ticks": 9744,
                        "time": 50.75,
                        "velocity": 0.4015748031496063
                    },
                    {
                        "duration": 0.125,
                        "durationTicks": 24,
                        "midi": 65,
                        "name": "F4",
                        "ticks": 9744,
                        "time": 50.75,
                        "velocity": 0.4015748031496063
                    },
                    {
                        "duration": 0.25,
                        "durationTicks": 48,
                        "midi": 43,
                        "name": "G2",
                        "ticks": 9792,
                        "time": 51,
                        "velocity": 0.4015748031496063
                    },
                    {
                        "duration": 0.125,
                        "durationTicks": 24,
                        "midi": 67,
                        "name": "G4",
                        "ticks": 9840,
                        "time": 51.25,
                        "velocity": 0.4015748031496063
                    },
                    {
                        "duration": 0.125,
                        "durationTicks": 24,
                        "midi": 62,
                        "name": "D4",
                        "ticks": 9840,
                        "time": 51.25,
                        "velocity": 0.4015748031496063
                    },
                    {
                        "duration": 0.125,
                        "durationTicks": 24,
                        "midi": 58,
                        "name": "A#3",
                        "ticks": 9840,
                        "time": 51.25,
                        "velocity": 0.4015748031496063
                    },
                    {
                        "duration": 0.25,
                        "durationTicks": 48,
                        "midi": 50,
                        "name": "D3",
                        "ticks": 9888,
                        "time": 51.5,
                        "velocity": 0.4015748031496063
                    },
                    {
                        "duration": 0.125,
                        "durationTicks": 24,
                        "midi": 58,
                        "name": "A#3",
                        "ticks": 9936,
                        "time": 51.75,
                        "velocity": 0.4015748031496063
                    },
                    {
                        "duration": 0.125,
                        "durationTicks": 24,
                        "midi": 67,
                        "name": "G4",
                        "ticks": 9936,
                        "time": 51.75,
                        "velocity": 0.4015748031496063
                    },
                    {
                        "duration": 0.125,
                        "durationTicks": 24,
                        "midi": 62,
                        "name": "D4",
                        "ticks": 9936,
                        "time": 51.75,
                        "velocity": 0.4015748031496063
                    },
                    {
                        "duration": 0.25,
                        "durationTicks": 48,
                        "midi": 39,
                        "name": "D#2",
                        "ticks": 9984,
                        "time": 52,
                        "velocity": 0.4015748031496063
                    },
                    {
                        "duration": 0.125,
                        "durationTicks": 24,
                        "midi": 63,
                        "name": "D#4",
                        "ticks": 10032,
                        "time": 52.25,
                        "velocity": 0.4015748031496063
                    },
                    {
                        "duration": 0.125,
                        "durationTicks": 24,
                        "midi": 58,
                        "name": "A#3",
                        "ticks": 10032,
                        "time": 52.25,
                        "velocity": 0.4015748031496063
                    },
                    {
                        "duration": 0.125,
                        "durationTicks": 24,
                        "midi": 55,
                        "name": "G3",
                        "ticks": 10032,
                        "time": 52.25,
                        "velocity": 0.4015748031496063
                    },
                    {
                        "duration": 0.25,
                        "durationTicks": 48,
                        "midi": 46,
                        "name": "A#2",
                        "ticks": 10080,
                        "time": 52.5,
                        "velocity": 0.4015748031496063
                    },
                    {
                        "duration": 0.125,
                        "durationTicks": 24,
                        "midi": 55,
                        "name": "G3",
                        "ticks": 10128,
                        "time": 52.75,
                        "velocity": 0.4015748031496063
                    },
                    {
                        "duration": 0.125,
                        "durationTicks": 24,
                        "midi": 58,
                        "name": "A#3",
                        "ticks": 10128,
                        "time": 52.75,
                        "velocity": 0.4015748031496063
                    },
                    {
                        "duration": 0.125,
                        "durationTicks": 24,
                        "midi": 63,
                        "name": "D#4",
                        "ticks": 10128,
                        "time": 52.75,
                        "velocity": 0.4015748031496063
                    },
                    {
                        "duration": 0.25,
                        "durationTicks": 48,
                        "midi": 34,
                        "name": "A#1",
                        "ticks": 10176,
                        "time": 53,
                        "velocity": 0.4015748031496063
                    },
                    {
                        "duration": 0.125,
                        "durationTicks": 24,
                        "midi": 58,
                        "name": "A#3",
                        "ticks": 10224,
                        "time": 53.25,
                        "velocity": 0.4015748031496063
                    },
                    {
                        "duration": 0.125,
                        "durationTicks": 24,
                        "midi": 53,
                        "name": "F3",
                        "ticks": 10224,
                        "time": 53.25,
                        "velocity": 0.4015748031496063
                    },
                    {
                        "duration": 0.125,
                        "durationTicks": 24,
                        "midi": 62,
                        "name": "D4",
                        "ticks": 10224,
                        "time": 53.25,
                        "velocity": 0.4015748031496063
                    },
                    {
                        "duration": 0.25,
                        "durationTicks": 48,
                        "midi": 41,
                        "name": "F2",
                        "ticks": 10272,
                        "time": 53.5,
                        "velocity": 0.4015748031496063
                    },
                    {
                        "duration": 0.125,
                        "durationTicks": 24,
                        "midi": 58,
                        "name": "A#3",
                        "ticks": 10320,
                        "time": 53.75,
                        "velocity": 0.4015748031496063
                    },
                    {
                        "duration": 0.125,
                        "durationTicks": 24,
                        "midi": 53,
                        "name": "F3",
                        "ticks": 10320,
                        "time": 53.75,
                        "velocity": 0.4015748031496063
                    },
                    {
                        "duration": 0.125,
                        "durationTicks": 24,
                        "midi": 62,
                        "name": "D4",
                        "ticks": 10320,
                        "time": 53.75,
                        "velocity": 0.4015748031496063
                    },
                    {
                        "duration": 0.25,
                        "durationTicks": 48,
                        "midi": 41,
                        "name": "F2",
                        "ticks": 10368,
                        "time": 54,
                        "velocity": 0.4015748031496063
                    },
                    {
                        "duration": 0.125,
                        "durationTicks": 24,
                        "midi": 65,
                        "name": "F4",
                        "ticks": 10416,
                        "time": 54.25,
                        "velocity": 0.4015748031496063
                    },
                    {
                        "duration": 0.125,
                        "durationTicks": 24,
                        "midi": 60,
                        "name": "C4",
                        "ticks": 10416,
                        "time": 54.25,
                        "velocity": 0.4015748031496063
                    },
                    {
                        "duration": 0.125,
                        "durationTicks": 24,
                        "midi": 57,
                        "name": "A3",
                        "ticks": 10416,
                        "time": 54.25,
                        "velocity": 0.4015748031496063
                    },
                    {
                        "duration": 0.25,
                        "durationTicks": 48,
                        "midi": 48,
                        "name": "C3",
                        "ticks": 10464,
                        "time": 54.5,
                        "velocity": 0.4015748031496063
                    },
                    {
                        "duration": 0.125,
                        "durationTicks": 24,
                        "midi": 57,
                        "name": "A3",
                        "ticks": 10512,
                        "time": 54.75,
                        "velocity": 0.4015748031496063
                    },
                    {
                        "duration": 0.125,
                        "durationTicks": 24,
                        "midi": 60,
                        "name": "C4",
                        "ticks": 10512,
                        "time": 54.75,
                        "velocity": 0.4015748031496063
                    },
                    {
                        "duration": 0.125,
                        "durationTicks": 24,
                        "midi": 65,
                        "name": "F4",
                        "ticks": 10512,
                        "time": 54.75,
                        "velocity": 0.4015748031496063
                    },
                    {
                        "duration": 0.25,
                        "durationTicks": 48,
                        "midi": 31,
                        "name": "G1",
                        "ticks": 10560,
                        "time": 55,
                        "velocity": 0.4015748031496063
                    },
                    {
                        "duration": 0.25,
                        "durationTicks": 48,
                        "midi": 43,
                        "name": "G2",
                        "ticks": 10560,
                        "time": 55,
                        "velocity": 0.4015748031496063
                    },
                    {
                        "duration": 0.125,
                        "durationTicks": 24,
                        "midi": 58,
                        "name": "A#3",
                        "ticks": 10608,
                        "time": 55.25,
                        "velocity": 0.4015748031496063
                    },
                    {
                        "duration": 0.125,
                        "durationTicks": 24,
                        "midi": 62,
                        "name": "D4",
                        "ticks": 10608,
                        "time": 55.25,
                        "velocity": 0.4015748031496063
                    },
                    {
                        "duration": 0.125,
                        "durationTicks": 24,
                        "midi": 67,
                        "name": "G4",
                        "ticks": 10608,
                        "time": 55.25,
                        "velocity": 0.4015748031496063
                    },
                    {
                        "duration": 0.25,
                        "durationTicks": 48,
                        "midi": 31,
                        "name": "G1",
                        "ticks": 10752,
                        "time": 56,
                        "velocity": 0.48031496062992124
                    },
                    {
                        "duration": 0.25,
                        "durationTicks": 48,
                        "midi": 43,
                        "name": "G2",
                        "ticks": 10752,
                        "time": 56,
                        "velocity": 0.48031496062992124
                    },
                    {
                        "duration": 0.25,
                        "durationTicks": 48,
                        "midi": 58,
                        "name": "A#3",
                        "ticks": 10848,
                        "time": 56.5,
                        "velocity": 0.48031496062992124
                    },
                    {
                        "duration": 0.25,
                        "durationTicks": 48,
                        "midi": 62,
                        "name": "D4",
                        "ticks": 10848,
                        "time": 56.5,
                        "velocity": 0.48031496062992124
                    },
                    {
                        "duration": 0.25,
                        "durationTicks": 48,
                        "midi": 67,
                        "name": "G4",
                        "ticks": 10848,
                        "time": 56.5,
                        "velocity": 0.48031496062992124
                    },
                    {
                        "duration": 0.25,
                        "durationTicks": 48,
                        "midi": 43,
                        "name": "G2",
                        "ticks": 10944,
                        "time": 57,
                        "velocity": 0.48031496062992124
                    },
                    {
                        "duration": 0.25,
                        "durationTicks": 48,
                        "midi": 31,
                        "name": "G1",
                        "ticks": 10944,
                        "time": 57,
                        "velocity": 0.48031496062992124
                    },
                    {
                        "duration": 0.25,
                        "durationTicks": 48,
                        "midi": 67,
                        "name": "G4",
                        "ticks": 11040,
                        "time": 57.5,
                        "velocity": 0.48031496062992124
                    },
                    {
                        "duration": 0.25,
                        "durationTicks": 48,
                        "midi": 62,
                        "name": "D4",
                        "ticks": 11040,
                        "time": 57.5,
                        "velocity": 0.48031496062992124
                    },
                    {
                        "duration": 0.25,
                        "durationTicks": 48,
                        "midi": 58,
                        "name": "A#3",
                        "ticks": 11040,
                        "time": 57.5,
                        "velocity": 0.48031496062992124
                    },
                    {
                        "duration": 0.25,
                        "durationTicks": 48,
                        "midi": 43,
                        "name": "G2",
                        "ticks": 11136,
                        "time": 58,
                        "velocity": 0.48031496062992124
                    },
                    {
                        "duration": 0.25,
                        "durationTicks": 48,
                        "midi": 31,
                        "name": "G1",
                        "ticks": 11136,
                        "time": 58,
                        "velocity": 0.48031496062992124
                    },
                    {
                        "duration": 0.25,
                        "durationTicks": 48,
                        "midi": 67,
                        "name": "G4",
                        "ticks": 11232,
                        "time": 58.5,
                        "velocity": 0.48031496062992124
                    },
                    {
                        "duration": 0.25,
                        "durationTicks": 48,
                        "midi": 62,
                        "name": "D4",
                        "ticks": 11232,
                        "time": 58.5,
                        "velocity": 0.48031496062992124
                    },
                    {
                        "duration": 0.25,
                        "durationTicks": 48,
                        "midi": 58,
                        "name": "A#3",
                        "ticks": 11232,
                        "time": 58.5,
                        "velocity": 0.48031496062992124
                    },
                    {
                        "duration": 0.25,
                        "durationTicks": 48,
                        "midi": 43,
                        "name": "G2",
                        "ticks": 11328,
                        "time": 59,
                        "velocity": 0.48031496062992124
                    },
                    {
                        "duration": 0.25,
                        "durationTicks": 48,
                        "midi": 31,
                        "name": "G1",
                        "ticks": 11328,
                        "time": 59,
                        "velocity": 0.48031496062992124
                    },
                    {
                        "duration": 0.25,
                        "durationTicks": 48,
                        "midi": 58,
                        "name": "A#3",
                        "ticks": 11424,
                        "time": 59.5,
                        "velocity": 0.48031496062992124
                    },
                    {
                        "duration": 0.25,
                        "durationTicks": 48,
                        "midi": 62,
                        "name": "D4",
                        "ticks": 11424,
                        "time": 59.5,
                        "velocity": 0.48031496062992124
                    },
                    {
                        "duration": 0.125,
                        "durationTicks": 24,
                        "midi": 67,
                        "name": "G4",
                        "ticks": 11424,
                        "time": 59.5,
                        "velocity": 0.48031496062992124
                    },
                    {
                        "duration": 0.25,
                        "durationTicks": 48,
                        "midi": 31,
                        "name": "G1",
                        "ticks": 11520,
                        "time": 60,
                        "velocity": 0.48031496062992124
                    },
                    {
                        "duration": 0.25,
                        "durationTicks": 48,
                        "midi": 43,
                        "name": "G2",
                        "ticks": 11520,
                        "time": 60,
                        "velocity": 0.48031496062992124
                    },
                    {
                        "duration": 0.25,
                        "durationTicks": 48,
                        "midi": 67,
                        "name": "G4",
                        "ticks": 11616,
                        "time": 60.5,
                        "velocity": 0.48031496062992124
                    },
                    {
                        "duration": 0.25,
                        "durationTicks": 48,
                        "midi": 62,
                        "name": "D4",
                        "ticks": 11616,
                        "time": 60.5,
                        "velocity": 0.48031496062992124
                    },
                    {
                        "duration": 0.25,
                        "durationTicks": 48,
                        "midi": 58,
                        "name": "A#3",
                        "ticks": 11616,
                        "time": 60.5,
                        "velocity": 0.48031496062992124
                    },
                    {
                        "duration": 0.25,
                        "durationTicks": 48,
                        "midi": 31,
                        "name": "G1",
                        "ticks": 11712,
                        "time": 61,
                        "velocity": 0.48031496062992124
                    },
                    {
                        "duration": 0.25,
                        "durationTicks": 48,
                        "midi": 43,
                        "name": "G2",
                        "ticks": 11712,
                        "time": 61,
                        "velocity": 0.48031496062992124
                    },
                    {
                        "duration": 0.25,
                        "durationTicks": 48,
                        "midi": 58,
                        "name": "A#3",
                        "ticks": 11808,
                        "time": 61.5,
                        "velocity": 0.48031496062992124
                    },
                    {
                        "duration": 0.25,
                        "durationTicks": 48,
                        "midi": 62,
                        "name": "D4",
                        "ticks": 11808,
                        "time": 61.5,
                        "velocity": 0.48031496062992124
                    },
                    {
                        "duration": 0.25,
                        "durationTicks": 48,
                        "midi": 67,
                        "name": "G4",
                        "ticks": 11808,
                        "time": 61.5,
                        "velocity": 0.48031496062992124
                    },
                    {
                        "duration": 0.25,
                        "durationTicks": 48,
                        "midi": 43,
                        "name": "G2",
                        "ticks": 11904,
                        "time": 62,
                        "velocity": 0.48031496062992124
                    },
                    {
                        "duration": 0.25,
                        "durationTicks": 48,
                        "midi": 31,
                        "name": "G1",
                        "ticks": 11904,
                        "time": 62,
                        "velocity": 0.48031496062992124
                    },
                    {
                        "duration": 0.25,
                        "durationTicks": 48,
                        "midi": 67,
                        "name": "G4",
                        "ticks": 12000,
                        "time": 62.5,
                        "velocity": 0.48031496062992124
                    },
                    {
                        "duration": 0.25,
                        "durationTicks": 48,
                        "midi": 62,
                        "name": "D4",
                        "ticks": 12000,
                        "time": 62.5,
                        "velocity": 0.48031496062992124
                    },
                    {
                        "duration": 0.25,
                        "durationTicks": 48,
                        "midi": 58,
                        "name": "A#3",
                        "ticks": 12000,
                        "time": 62.5,
                        "velocity": 0.48031496062992124
                    },
                    {
                        "duration": 0.25,
                        "durationTicks": 48,
                        "midi": 43,
                        "name": "G2",
                        "ticks": 12096,
                        "time": 63,
                        "velocity": 0.48031496062992124
                    },
                    {
                        "duration": 0.25,
                        "durationTicks": 48,
                        "midi": 31,
                        "name": "G1",
                        "ticks": 12096,
                        "time": 63,
                        "velocity": 0.48031496062992124
                    },
                    {
                        "duration": 0.125,
                        "durationTicks": 24,
                        "midi": 67,
                        "name": "G4",
                        "ticks": 12192,
                        "time": 63.5,
                        "velocity": 0.48031496062992124
                    },
                    {
                        "duration": 0.25,
                        "durationTicks": 48,
                        "midi": 62,
                        "name": "D4",
                        "ticks": 12192,
                        "time": 63.5,
                        "velocity": 0.48031496062992124
                    },
                    {
                        "duration": 0.25,
                        "durationTicks": 48,
                        "midi": 58,
                        "name": "A#3",
                        "ticks": 12192,
                        "time": 63.5,
                        "velocity": 0.48031496062992124
                    },
                    {
                        "duration": 0.25,
                        "durationTicks": 48,
                        "midi": 67,
                        "name": "G4",
                        "ticks": 12240,
                        "time": 63.75,
                        "velocity": 0.48031496062992124
                    },
                    {
                        "duration": 0.25,
                        "durationTicks": 48,
                        "midi": 62,
                        "name": "D4",
                        "ticks": 12240,
                        "time": 63.75,
                        "velocity": 0.48031496062992124
                    },
                    {
                        "duration": 0.25,
                        "durationTicks": 48,
                        "midi": 58,
                        "name": "A#3",
                        "ticks": 12240,
                        "time": 63.75,
                        "velocity": 0.48031496062992124
                    },
                    {
                        "duration": 0.25,
                        "durationTicks": 48,
                        "midi": 31,
                        "name": "G1",
                        "ticks": 12288,
                        "time": 64,
                        "velocity": 0.48031496062992124
                    },
                    {
                        "duration": 0.25,
                        "durationTicks": 48,
                        "midi": 43,
                        "name": "G2",
                        "ticks": 12288,
                        "time": 64,
                        "velocity": 0.48031496062992124
                    },
                    {
                        "duration": 0.25,
                        "durationTicks": 48,
                        "midi": 58,
                        "name": "A#3",
                        "ticks": 12384,
                        "time": 64.5,
                        "velocity": 0.48031496062992124
                    },
                    {
                        "duration": 0.25,
                        "durationTicks": 48,
                        "midi": 62,
                        "name": "D4",
                        "ticks": 12384,
                        "time": 64.5,
                        "velocity": 0.48031496062992124
                    },
                    {
                        "duration": 0.25,
                        "durationTicks": 48,
                        "midi": 67,
                        "name": "G4",
                        "ticks": 12384,
                        "time": 64.5,
                        "velocity": 0.48031496062992124
                    },
                    {
                        "duration": 0.25,
                        "durationTicks": 48,
                        "midi": 31,
                        "name": "G1",
                        "ticks": 12480,
                        "time": 65,
                        "velocity": 0.48031496062992124
                    },
                    {
                        "duration": 0.25,
                        "durationTicks": 48,
                        "midi": 43,
                        "name": "G2",
                        "ticks": 12480,
                        "time": 65,
                        "velocity": 0.48031496062992124
                    },
                    {
                        "duration": 0.25,
                        "durationTicks": 48,
                        "midi": 67,
                        "name": "G4",
                        "ticks": 12576,
                        "time": 65.5,
                        "velocity": 0.48031496062992124
                    },
                    {
                        "duration": 0.25,
                        "durationTicks": 48,
                        "midi": 62,
                        "name": "D4",
                        "ticks": 12576,
                        "time": 65.5,
                        "velocity": 0.48031496062992124
                    },
                    {
                        "duration": 0.25,
                        "durationTicks": 48,
                        "midi": 58,
                        "name": "A#3",
                        "ticks": 12576,
                        "time": 65.5,
                        "velocity": 0.48031496062992124
                    },
                    {
                        "duration": 0.25,
                        "durationTicks": 48,
                        "midi": 43,
                        "name": "G2",
                        "ticks": 12672,
                        "time": 66,
                        "velocity": 0.48031496062992124
                    },
                    {
                        "duration": 0.25,
                        "durationTicks": 48,
                        "midi": 31,
                        "name": "G1",
                        "ticks": 12672,
                        "time": 66,
                        "velocity": 0.48031496062992124
                    },
                    {
                        "duration": 0.25,
                        "durationTicks": 48,
                        "midi": 58,
                        "name": "A#3",
                        "ticks": 12768,
                        "time": 66.5,
                        "velocity": 0.48031496062992124
                    },
                    {
                        "duration": 0.25,
                        "durationTicks": 48,
                        "midi": 62,
                        "name": "D4",
                        "ticks": 12768,
                        "time": 66.5,
                        "velocity": 0.48031496062992124
                    },
                    {
                        "duration": 0.25,
                        "durationTicks": 48,
                        "midi": 67,
                        "name": "G4",
                        "ticks": 12768,
                        "time": 66.5,
                        "velocity": 0.48031496062992124
                    },
                    {
                        "duration": 0.25,
                        "durationTicks": 48,
                        "midi": 43,
                        "name": "G2",
                        "ticks": 12864,
                        "time": 67,
                        "velocity": 0.48031496062992124
                    },
                    {
                        "duration": 0.25,
                        "durationTicks": 48,
                        "midi": 31,
                        "name": "G1",
                        "ticks": 12864,
                        "time": 67,
                        "velocity": 0.48031496062992124
                    },
                    {
                        "duration": 0.125,
                        "durationTicks": 24,
                        "midi": 67,
                        "name": "G4",
                        "ticks": 12960,
                        "time": 67.5,
                        "velocity": 0.48031496062992124
                    },
                    {
                        "duration": 0.25,
                        "durationTicks": 48,
                        "midi": 62,
                        "name": "D4",
                        "ticks": 12960,
                        "time": 67.5,
                        "velocity": 0.48031496062992124
                    },
                    {
                        "duration": 0.25,
                        "durationTicks": 48,
                        "midi": 58,
                        "name": "A#3",
                        "ticks": 12960,
                        "time": 67.5,
                        "velocity": 0.48031496062992124
                    },
                    {
                        "duration": 0.25,
                        "durationTicks": 48,
                        "midi": 43,
                        "name": "G2",
                        "ticks": 13056,
                        "time": 68,
                        "velocity": 0.48031496062992124
                    },
                    {
                        "duration": 0.25,
                        "durationTicks": 48,
                        "midi": 31,
                        "name": "G1",
                        "ticks": 13056,
                        "time": 68,
                        "velocity": 0.48031496062992124
                    },
                    {
                        "duration": 0.25,
                        "durationTicks": 48,
                        "midi": 67,
                        "name": "G4",
                        "ticks": 13152,
                        "time": 68.5,
                        "velocity": 0.48031496062992124
                    },
                    {
                        "duration": 0.25,
                        "durationTicks": 48,
                        "midi": 62,
                        "name": "D4",
                        "ticks": 13152,
                        "time": 68.5,
                        "velocity": 0.48031496062992124
                    },
                    {
                        "duration": 0.25,
                        "durationTicks": 48,
                        "midi": 58,
                        "name": "A#3",
                        "ticks": 13152,
                        "time": 68.5,
                        "velocity": 0.48031496062992124
                    },
                    {
                        "duration": 0.25,
                        "durationTicks": 48,
                        "midi": 31,
                        "name": "G1",
                        "ticks": 13248,
                        "time": 69,
                        "velocity": 0.48031496062992124
                    },
                    {
                        "duration": 0.25,
                        "durationTicks": 48,
                        "midi": 43,
                        "name": "G2",
                        "ticks": 13248,
                        "time": 69,
                        "velocity": 0.48031496062992124
                    },
                    {
                        "duration": 0.25,
                        "durationTicks": 48,
                        "midi": 58,
                        "name": "A#3",
                        "ticks": 13344,
                        "time": 69.5,
                        "velocity": 0.48031496062992124
                    },
                    {
                        "duration": 0.25,
                        "durationTicks": 48,
                        "midi": 62,
                        "name": "D4",
                        "ticks": 13344,
                        "time": 69.5,
                        "velocity": 0.48031496062992124
                    },
                    {
                        "duration": 0.25,
                        "durationTicks": 48,
                        "midi": 67,
                        "name": "G4",
                        "ticks": 13344,
                        "time": 69.5,
                        "velocity": 0.48031496062992124
                    },
                    {
                        "duration": 0.25,
                        "durationTicks": 48,
                        "midi": 43,
                        "name": "G2",
                        "ticks": 13440,
                        "time": 70,
                        "velocity": 0.48031496062992124
                    },
                    {
                        "duration": 0.25,
                        "durationTicks": 48,
                        "midi": 31,
                        "name": "G1",
                        "ticks": 13440,
                        "time": 70,
                        "velocity": 0.48031496062992124
                    },
                    {
                        "duration": 0.25,
                        "durationTicks": 48,
                        "midi": 67,
                        "name": "G4",
                        "ticks": 13536,
                        "time": 70.5,
                        "velocity": 0.48031496062992124
                    },
                    {
                        "duration": 0.25,
                        "durationTicks": 48,
                        "midi": 62,
                        "name": "D4",
                        "ticks": 13536,
                        "time": 70.5,
                        "velocity": 0.48031496062992124
                    },
                    {
                        "duration": 0.25,
                        "durationTicks": 48,
                        "midi": 58,
                        "name": "A#3",
                        "ticks": 13536,
                        "time": 70.5,
                        "velocity": 0.48031496062992124
                    },
                    {
                        "duration": 0.25,
                        "durationTicks": 48,
                        "midi": 43,
                        "name": "G2",
                        "ticks": 13632,
                        "time": 71,
                        "velocity": 0.48031496062992124
                    },
                    {
                        "duration": 0.25,
                        "durationTicks": 48,
                        "midi": 31,
                        "name": "G1",
                        "ticks": 13632,
                        "time": 71,
                        "velocity": 0.48031496062992124
                    },
                    {
                        "duration": 0.25,
                        "durationTicks": 48,
                        "midi": 58,
                        "name": "A#3",
                        "ticks": 13728,
                        "time": 71.5,
                        "velocity": 0.48031496062992124
                    },
                    {
                        "duration": 0.25,
                        "durationTicks": 48,
                        "midi": 62,
                        "name": "D4",
                        "ticks": 13728,
                        "time": 71.5,
                        "velocity": 0.48031496062992124
                    },
                    {
                        "duration": 0.125,
                        "durationTicks": 24,
                        "midi": 67,
                        "name": "G4",
                        "ticks": 13728,
                        "time": 71.5,
                        "velocity": 0.48031496062992124
                    },
                    {
                        "duration": 0.5,
                        "durationTicks": 96,
                        "midi": 39,
                        "name": "D#2",
                        "ticks": 13824,
                        "time": 72,
                        "velocity": 0.48031496062992124
                    },
                    {
                        "duration": 0.25,
                        "durationTicks": 48,
                        "midi": 63,
                        "name": "D#4",
                        "ticks": 13920,
                        "time": 72.5,
                        "velocity": 0.4015748031496063
                    },
                    {
                        "duration": 0.25,
                        "durationTicks": 48,
                        "midi": 58,
                        "name": "A#3",
                        "ticks": 13920,
                        "time": 72.5,
                        "velocity": 0.4015748031496063
                    },
                    {
                        "duration": 0.25,
                        "durationTicks": 48,
                        "midi": 55,
                        "name": "G3",
                        "ticks": 13920,
                        "time": 72.5,
                        "velocity": 0.4015748031496063
                    },
                    {
                        "duration": 0.5,
                        "durationTicks": 96,
                        "midi": 34,
                        "name": "A#1",
                        "ticks": 14016,
                        "time": 73,
                        "velocity": 0.48031496062992124
                    },
                    {
                        "duration": 0.25,
                        "durationTicks": 48,
                        "midi": 58,
                        "name": "A#3",
                        "ticks": 14112,
                        "time": 73.5,
                        "velocity": 0.4015748031496063
                    },
                    {
                        "duration": 0.25,
                        "durationTicks": 48,
                        "midi": 53,
                        "name": "F3",
                        "ticks": 14112,
                        "time": 73.5,
                        "velocity": 0.4015748031496063
                    },
                    {
                        "duration": 0.25,
                        "durationTicks": 48,
                        "midi": 62,
                        "name": "D4",
                        "ticks": 14112,
                        "time": 73.5,
                        "velocity": 0.4015748031496063
                    },
                    {
                        "duration": 0.5,
                        "durationTicks": 96,
                        "midi": 41,
                        "name": "F2",
                        "ticks": 14208,
                        "time": 74,
                        "velocity": 0.48031496062992124
                    },
                    {
                        "duration": 0.25,
                        "durationTicks": 48,
                        "midi": 53,
                        "name": "F3",
                        "ticks": 14304,
                        "time": 74.5,
                        "velocity": 0.48031496062992124
                    },
                    {
                        "duration": 0.25,
                        "durationTicks": 48,
                        "midi": 57,
                        "name": "A3",
                        "ticks": 14304,
                        "time": 74.5,
                        "velocity": 0.48031496062992124
                    },
                    {
                        "duration": 0.25,
                        "durationTicks": 48,
                        "midi": 60,
                        "name": "C4",
                        "ticks": 14304,
                        "time": 74.5,
                        "velocity": 0.48031496062992124
                    },
                    {
                        "duration": 0.5,
                        "durationTicks": 96,
                        "midi": 43,
                        "name": "G2",
                        "ticks": 14400,
                        "time": 75,
                        "velocity": 0.48031496062992124
                    },
                    {
                        "duration": 0.25,
                        "durationTicks": 48,
                        "midi": 58,
                        "name": "A#3",
                        "ticks": 14496,
                        "time": 75.5,
                        "velocity": 0.48031496062992124
                    },
                    {
                        "duration": 0.25,
                        "durationTicks": 48,
                        "midi": 62,
                        "name": "D4",
                        "ticks": 14496,
                        "time": 75.5,
                        "velocity": 0.48031496062992124
                    },
                    {
                        "duration": 0.25,
                        "durationTicks": 48,
                        "midi": 55,
                        "name": "G3",
                        "ticks": 14496,
                        "time": 75.5,
                        "velocity": 0.48031496062992124
                    },
                    {
                        "duration": 0.5,
                        "durationTicks": 96,
                        "midi": 39,
                        "name": "D#2",
                        "ticks": 14592,
                        "time": 76,
                        "velocity": 0.48031496062992124
                    },
                    {
                        "duration": 0.25,
                        "durationTicks": 48,
                        "midi": 55,
                        "name": "G3",
                        "ticks": 14688,
                        "time": 76.5,
                        "velocity": 0.4015748031496063
                    },
                    {
                        "duration": 0.25,
                        "durationTicks": 48,
                        "midi": 58,
                        "name": "A#3",
                        "ticks": 14688,
                        "time": 76.5,
                        "velocity": 0.4015748031496063
                    },
                    {
                        "duration": 0.25,
                        "durationTicks": 48,
                        "midi": 63,
                        "name": "D#4",
                        "ticks": 14688,
                        "time": 76.5,
                        "velocity": 0.4015748031496063
                    },
                    {
                        "duration": 0.5,
                        "durationTicks": 96,
                        "midi": 34,
                        "name": "A#1",
                        "ticks": 14784,
                        "time": 77,
                        "velocity": 0.48031496062992124
                    },
                    {
                        "duration": 0.25,
                        "durationTicks": 48,
                        "midi": 62,
                        "name": "D4",
                        "ticks": 14880,
                        "time": 77.5,
                        "velocity": 0.4015748031496063
                    },
                    {
                        "duration": 0.25,
                        "durationTicks": 48,
                        "midi": 53,
                        "name": "F3",
                        "ticks": 14880,
                        "time": 77.5,
                        "velocity": 0.4015748031496063
                    },
                    {
                        "duration": 0.25,
                        "durationTicks": 48,
                        "midi": 58,
                        "name": "A#3",
                        "ticks": 14880,
                        "time": 77.5,
                        "velocity": 0.4015748031496063
                    },
                    {
                        "duration": 0.5,
                        "durationTicks": 96,
                        "midi": 41,
                        "name": "F2",
                        "ticks": 14976,
                        "time": 78,
                        "velocity": 0.48031496062992124
                    },
                    {
                        "duration": 0.25,
                        "durationTicks": 48,
                        "midi": 53,
                        "name": "F3",
                        "ticks": 15072,
                        "time": 78.5,
                        "velocity": 0.48031496062992124
                    },
                    {
                        "duration": 0.25,
                        "durationTicks": 48,
                        "midi": 57,
                        "name": "A3",
                        "ticks": 15072,
                        "time": 78.5,
                        "velocity": 0.48031496062992124
                    },
                    {
                        "duration": 0.25,
                        "durationTicks": 48,
                        "midi": 60,
                        "name": "C4",
                        "ticks": 15072,
                        "time": 78.5,
                        "velocity": 0.48031496062992124
                    },
                    {
                        "duration": 0.5,
                        "durationTicks": 96,
                        "midi": 43,
                        "name": "G2",
                        "ticks": 15168,
                        "time": 79,
                        "velocity": 0.48031496062992124
                    },
                    {
                        "duration": 0.25,
                        "durationTicks": 48,
                        "midi": 55,
                        "name": "G3",
                        "ticks": 15264,
                        "time": 79.5,
                        "velocity": 0.48031496062992124
                    },
                    {
                        "duration": 0.25,
                        "durationTicks": 48,
                        "midi": 62,
                        "name": "D4",
                        "ticks": 15264,
                        "time": 79.5,
                        "velocity": 0.48031496062992124
                    },
                    {
                        "duration": 0.25,
                        "durationTicks": 48,
                        "midi": 58,
                        "name": "A#3",
                        "ticks": 15264,
                        "time": 79.5,
                        "velocity": 0.48031496062992124
                    },
                    {
                        "duration": 0.5,
                        "durationTicks": 96,
                        "midi": 39,
                        "name": "D#2",
                        "ticks": 15360,
                        "time": 80,
                        "velocity": 0.48031496062992124
                    },
                    {
                        "duration": 0.25,
                        "durationTicks": 48,
                        "midi": 55,
                        "name": "G3",
                        "ticks": 15456,
                        "time": 80.5,
                        "velocity": 0.4015748031496063
                    },
                    {
                        "duration": 0.25,
                        "durationTicks": 48,
                        "midi": 58,
                        "name": "A#3",
                        "ticks": 15456,
                        "time": 80.5,
                        "velocity": 0.4015748031496063
                    },
                    {
                        "duration": 0.25,
                        "durationTicks": 48,
                        "midi": 63,
                        "name": "D#4",
                        "ticks": 15456,
                        "time": 80.5,
                        "velocity": 0.4015748031496063
                    },
                    {
                        "duration": 0.5,
                        "durationTicks": 96,
                        "midi": 34,
                        "name": "A#1",
                        "ticks": 15552,
                        "time": 81,
                        "velocity": 0.48031496062992124
                    },
                    {
                        "duration": 0.25,
                        "durationTicks": 48,
                        "midi": 58,
                        "name": "A#3",
                        "ticks": 15648,
                        "time": 81.5,
                        "velocity": 0.4015748031496063
                    },
                    {
                        "duration": 0.25,
                        "durationTicks": 48,
                        "midi": 53,
                        "name": "F3",
                        "ticks": 15648,
                        "time": 81.5,
                        "velocity": 0.4015748031496063
                    },
                    {
                        "duration": 0.25,
                        "durationTicks": 48,
                        "midi": 62,
                        "name": "D4",
                        "ticks": 15648,
                        "time": 81.5,
                        "velocity": 0.4015748031496063
                    },
                    {
                        "duration": 0.5,
                        "durationTicks": 96,
                        "midi": 41,
                        "name": "F2",
                        "ticks": 15744,
                        "time": 82,
                        "velocity": 0.48031496062992124
                    },
                    {
                        "duration": 0.25,
                        "durationTicks": 48,
                        "midi": 60,
                        "name": "C4",
                        "ticks": 15840,
                        "time": 82.5,
                        "velocity": 0.48031496062992124
                    },
                    {
                        "duration": 0.25,
                        "durationTicks": 48,
                        "midi": 57,
                        "name": "A3",
                        "ticks": 15840,
                        "time": 82.5,
                        "velocity": 0.48031496062992124
                    },
                    {
                        "duration": 0.25,
                        "durationTicks": 48,
                        "midi": 53,
                        "name": "F3",
                        "ticks": 15840,
                        "time": 82.5,
                        "velocity": 0.48031496062992124
                    },
                    {
                        "duration": 0.5,
                        "durationTicks": 96,
                        "midi": 43,
                        "name": "G2",
                        "ticks": 15936,
                        "time": 83,
                        "velocity": 0.48031496062992124
                    },
                    {
                        "duration": 0.25,
                        "durationTicks": 48,
                        "midi": 55,
                        "name": "G3",
                        "ticks": 16032,
                        "time": 83.5,
                        "velocity": 0.48031496062992124
                    },
                    {
                        "duration": 0.25,
                        "durationTicks": 48,
                        "midi": 62,
                        "name": "D4",
                        "ticks": 16032,
                        "time": 83.5,
                        "velocity": 0.48031496062992124
                    },
                    {
                        "duration": 0.25,
                        "durationTicks": 48,
                        "midi": 58,
                        "name": "A#3",
                        "ticks": 16032,
                        "time": 83.5,
                        "velocity": 0.48031496062992124
                    },
                    {
                        "duration": 0.5,
                        "durationTicks": 96,
                        "midi": 39,
                        "name": "D#2",
                        "ticks": 16128,
                        "time": 84,
                        "velocity": 0.48031496062992124
                    },
                    {
                        "duration": 0.25,
                        "durationTicks": 48,
                        "midi": 55,
                        "name": "G3",
                        "ticks": 16224,
                        "time": 84.5,
                        "velocity": 0.4015748031496063
                    },
                    {
                        "duration": 0.25,
                        "durationTicks": 48,
                        "midi": 58,
                        "name": "A#3",
                        "ticks": 16224,
                        "time": 84.5,
                        "velocity": 0.4015748031496063
                    },
                    {
                        "duration": 0.25,
                        "durationTicks": 48,
                        "midi": 63,
                        "name": "D#4",
                        "ticks": 16224,
                        "time": 84.5,
                        "velocity": 0.4015748031496063
                    },
                    {
                        "duration": 0.5,
                        "durationTicks": 96,
                        "midi": 34,
                        "name": "A#1",
                        "ticks": 16320,
                        "time": 85,
                        "velocity": 0.48031496062992124
                    },
                    {
                        "duration": 0.25,
                        "durationTicks": 48,
                        "midi": 58,
                        "name": "A#3",
                        "ticks": 16416,
                        "time": 85.5,
                        "velocity": 0.4015748031496063
                    },
                    {
                        "duration": 0.25,
                        "durationTicks": 48,
                        "midi": 53,
                        "name": "F3",
                        "ticks": 16416,
                        "time": 85.5,
                        "velocity": 0.4015748031496063
                    },
                    {
                        "duration": 0.25,
                        "durationTicks": 48,
                        "midi": 62,
                        "name": "D4",
                        "ticks": 16416,
                        "time": 85.5,
                        "velocity": 0.4015748031496063
                    },
                    {
                        "duration": 0.5,
                        "durationTicks": 96,
                        "midi": 41,
                        "name": "F2",
                        "ticks": 16512,
                        "time": 86,
                        "velocity": 0.48031496062992124
                    },
                    {
                        "duration": 0.25,
                        "durationTicks": 48,
                        "midi": 53,
                        "name": "F3",
                        "ticks": 16608,
                        "time": 86.5,
                        "velocity": 0.48031496062992124
                    },
                    {
                        "duration": 0.25,
                        "durationTicks": 48,
                        "midi": 57,
                        "name": "A3",
                        "ticks": 16608,
                        "time": 86.5,
                        "velocity": 0.48031496062992124
                    },
                    {
                        "duration": 0.25,
                        "durationTicks": 48,
                        "midi": 60,
                        "name": "C4",
                        "ticks": 16608,
                        "time": 86.5,
                        "velocity": 0.48031496062992124
                    },
                    {
                        "duration": 0.5,
                        "durationTicks": 96,
                        "midi": 43,
                        "name": "G2",
                        "ticks": 16704,
                        "time": 87,
                        "velocity": 0.48031496062992124
                    },
                    {
                        "duration": 0.25,
                        "durationTicks": 48,
                        "midi": 58,
                        "name": "A#3",
                        "ticks": 16800,
                        "time": 87.5,
                        "velocity": 0.48031496062992124
                    },
                    {
                        "duration": 0.25,
                        "durationTicks": 48,
                        "midi": 62,
                        "name": "D4",
                        "ticks": 16800,
                        "time": 87.5,
                        "velocity": 0.48031496062992124
                    },
                    {
                        "duration": 0.25,
                        "durationTicks": 48,
                        "midi": 55,
                        "name": "G3",
                        "ticks": 16800,
                        "time": 87.5,
                        "velocity": 0.48031496062992124
                    },
                    {
                        "duration": 0.125,
                        "durationTicks": 24,
                        "midi": 51,
                        "name": "D#3",
                        "ticks": 16896,
                        "time": 88,
                        "velocity": 0.4015748031496063
                    },
                    {
                        "duration": 0.125,
                        "durationTicks": 24,
                        "midi": 58,
                        "name": "A#3",
                        "ticks": 16920,
                        "time": 88.125,
                        "velocity": 0.4015748031496063
                    },
                    {
                        "duration": 0.125,
                        "durationTicks": 24,
                        "midi": 67,
                        "name": "G4",
                        "ticks": 16944,
                        "time": 88.25,
                        "velocity": 0.4015748031496063
                    },
                    {
                        "duration": 0.125,
                        "durationTicks": 24,
                        "midi": 51,
                        "name": "D#3",
                        "ticks": 16968,
                        "time": 88.375,
                        "velocity": 0.4015748031496063
                    },
                    {
                        "duration": 0.125,
                        "durationTicks": 24,
                        "midi": 58,
                        "name": "A#3",
                        "ticks": 16992,
                        "time": 88.5,
                        "velocity": 0.4015748031496063
                    },
                    {
                        "duration": 0.125,
                        "durationTicks": 24,
                        "midi": 67,
                        "name": "G4",
                        "ticks": 17016,
                        "time": 88.625,
                        "velocity": 0.4015748031496063
                    },
                    {
                        "duration": 0.125,
                        "durationTicks": 24,
                        "midi": 51,
                        "name": "D#3",
                        "ticks": 17040,
                        "time": 88.75,
                        "velocity": 0.4015748031496063
                    },
                    {
                        "duration": 0.125,
                        "durationTicks": 24,
                        "midi": 58,
                        "name": "A#3",
                        "ticks": 17064,
                        "time": 88.875,
                        "velocity": 0.4015748031496063
                    },
                    {
                        "duration": 0.125,
                        "durationTicks": 24,
                        "midi": 46,
                        "name": "A#2",
                        "ticks": 17088,
                        "time": 89,
                        "velocity": 0.4015748031496063
                    },
                    {
                        "duration": 0.125,
                        "durationTicks": 24,
                        "midi": 53,
                        "name": "F3",
                        "ticks": 17112,
                        "time": 89.125,
                        "velocity": 0.4015748031496063
                    },
                    {
                        "duration": 0.125,
                        "durationTicks": 24,
                        "midi": 62,
                        "name": "D4",
                        "ticks": 17136,
                        "time": 89.25,
                        "velocity": 0.4015748031496063
                    },
                    {
                        "duration": 0.125,
                        "durationTicks": 24,
                        "midi": 46,
                        "name": "A#2",
                        "ticks": 17160,
                        "time": 89.375,
                        "velocity": 0.4015748031496063
                    },
                    {
                        "duration": 0.125,
                        "durationTicks": 24,
                        "midi": 53,
                        "name": "F3",
                        "ticks": 17184,
                        "time": 89.5,
                        "velocity": 0.4015748031496063
                    },
                    {
                        "duration": 0.125,
                        "durationTicks": 24,
                        "midi": 62,
                        "name": "D4",
                        "ticks": 17208,
                        "time": 89.625,
                        "velocity": 0.4015748031496063
                    },
                    {
                        "duration": 0.125,
                        "durationTicks": 24,
                        "midi": 46,
                        "name": "A#2",
                        "ticks": 17232,
                        "time": 89.75,
                        "velocity": 0.4015748031496063
                    },
                    {
                        "duration": 0.125,
                        "durationTicks": 24,
                        "midi": 53,
                        "name": "F3",
                        "ticks": 17256,
                        "time": 89.875,
                        "velocity": 0.4015748031496063
                    },
                    {
                        "duration": 0.125,
                        "durationTicks": 24,
                        "midi": 53,
                        "name": "F3",
                        "ticks": 17280,
                        "time": 90,
                        "velocity": 0.4015748031496063
                    },
                    {
                        "duration": 0.125,
                        "durationTicks": 24,
                        "midi": 60,
                        "name": "C4",
                        "ticks": 17304,
                        "time": 90.125,
                        "velocity": 0.4015748031496063
                    },
                    {
                        "duration": 0.125,
                        "durationTicks": 24,
                        "midi": 69,
                        "name": "A4",
                        "ticks": 17328,
                        "time": 90.25,
                        "velocity": 0.4015748031496063
                    },
                    {
                        "duration": 0.125,
                        "durationTicks": 24,
                        "midi": 53,
                        "name": "F3",
                        "ticks": 17352,
                        "time": 90.375,
                        "velocity": 0.4015748031496063
                    },
                    {
                        "duration": 0.125,
                        "durationTicks": 24,
                        "midi": 60,
                        "name": "C4",
                        "ticks": 17376,
                        "time": 90.5,
                        "velocity": 0.4015748031496063
                    },
                    {
                        "duration": 0.125,
                        "durationTicks": 24,
                        "midi": 69,
                        "name": "A4",
                        "ticks": 17400,
                        "time": 90.625,
                        "velocity": 0.4015748031496063
                    },
                    {
                        "duration": 0.125,
                        "durationTicks": 24,
                        "midi": 53,
                        "name": "F3",
                        "ticks": 17424,
                        "time": 90.75,
                        "velocity": 0.4015748031496063
                    },
                    {
                        "duration": 0.125,
                        "durationTicks": 24,
                        "midi": 58,
                        "name": "A#3",
                        "ticks": 17448,
                        "time": 90.875,
                        "velocity": 0.4015748031496063
                    },
                    {
                        "duration": 0.125,
                        "durationTicks": 24,
                        "midi": 55,
                        "name": "G3",
                        "ticks": 17472,
                        "time": 91,
                        "velocity": 0.4015748031496063
                    },
                    {
                        "duration": 0.125,
                        "durationTicks": 24,
                        "midi": 62,
                        "name": "D4",
                        "ticks": 17496,
                        "time": 91.125,
                        "velocity": 0.4015748031496063
                    },
                    {
                        "duration": 0.125,
                        "durationTicks": 24,
                        "midi": 70,
                        "name": "A#4",
                        "ticks": 17520,
                        "time": 91.25,
                        "velocity": 0.4015748031496063
                    },
                    {
                        "duration": 0.125,
                        "durationTicks": 24,
                        "midi": 55,
                        "name": "G3",
                        "ticks": 17544,
                        "time": 91.375,
                        "velocity": 0.4015748031496063
                    },
                    {
                        "duration": 0.125,
                        "durationTicks": 24,
                        "midi": 62,
                        "name": "D4",
                        "ticks": 17568,
                        "time": 91.5,
                        "velocity": 0.4015748031496063
                    },
                    {
                        "duration": 0.125,
                        "durationTicks": 24,
                        "midi": 70,
                        "name": "A#4",
                        "ticks": 17592,
                        "time": 91.625,
                        "velocity": 0.4015748031496063
                    },
                    {
                        "duration": 0.125,
                        "durationTicks": 24,
                        "midi": 55,
                        "name": "G3",
                        "ticks": 17616,
                        "time": 91.75,
                        "velocity": 0.4015748031496063
                    },
                    {
                        "duration": 0.125,
                        "durationTicks": 24,
                        "midi": 62,
                        "name": "D4",
                        "ticks": 17640,
                        "time": 91.875,
                        "velocity": 0.4015748031496063
                    },
                    {
                        "duration": 0.125,
                        "durationTicks": 24,
                        "midi": 51,
                        "name": "D#3",
                        "ticks": 17664,
                        "time": 92,
                        "velocity": 0.4015748031496063
                    },
                    {
                        "duration": 0.125,
                        "durationTicks": 24,
                        "midi": 58,
                        "name": "A#3",
                        "ticks": 17688,
                        "time": 92.125,
                        "velocity": 0.4015748031496063
                    },
                    {
                        "duration": 0.125,
                        "durationTicks": 24,
                        "midi": 67,
                        "name": "G4",
                        "ticks": 17712,
                        "time": 92.25,
                        "velocity": 0.4015748031496063
                    },
                    {
                        "duration": 0.125,
                        "durationTicks": 24,
                        "midi": 51,
                        "name": "D#3",
                        "ticks": 17736,
                        "time": 92.375,
                        "velocity": 0.4015748031496063
                    },
                    {
                        "duration": 0.125,
                        "durationTicks": 24,
                        "midi": 58,
                        "name": "A#3",
                        "ticks": 17760,
                        "time": 92.5,
                        "velocity": 0.4015748031496063
                    },
                    {
                        "duration": 0.125,
                        "durationTicks": 24,
                        "midi": 67,
                        "name": "G4",
                        "ticks": 17784,
                        "time": 92.625,
                        "velocity": 0.4015748031496063
                    },
                    {
                        "duration": 0.125,
                        "durationTicks": 24,
                        "midi": 51,
                        "name": "D#3",
                        "ticks": 17808,
                        "time": 92.75,
                        "velocity": 0.4015748031496063
                    },
                    {
                        "duration": 0.125,
                        "durationTicks": 24,
                        "midi": 58,
                        "name": "A#3",
                        "ticks": 17832,
                        "time": 92.875,
                        "velocity": 0.4015748031496063
                    },
                    {
                        "duration": 0.125,
                        "durationTicks": 24,
                        "midi": 46,
                        "name": "A#2",
                        "ticks": 17856,
                        "time": 93,
                        "velocity": 0.4015748031496063
                    },
                    {
                        "duration": 0.125,
                        "durationTicks": 24,
                        "midi": 53,
                        "name": "F3",
                        "ticks": 17880,
                        "time": 93.125,
                        "velocity": 0.4015748031496063
                    },
                    {
                        "duration": 0.125,
                        "durationTicks": 24,
                        "midi": 62,
                        "name": "D4",
                        "ticks": 17904,
                        "time": 93.25,
                        "velocity": 0.4015748031496063
                    },
                    {
                        "duration": 0.125,
                        "durationTicks": 24,
                        "midi": 46,
                        "name": "A#2",
                        "ticks": 17928,
                        "time": 93.375,
                        "velocity": 0.4015748031496063
                    },
                    {
                        "duration": 0.125,
                        "durationTicks": 24,
                        "midi": 53,
                        "name": "F3",
                        "ticks": 17952,
                        "time": 93.5,
                        "velocity": 0.4015748031496063
                    },
                    {
                        "duration": 0.125,
                        "durationTicks": 24,
                        "midi": 62,
                        "name": "D4",
                        "ticks": 17976,
                        "time": 93.625,
                        "velocity": 0.4015748031496063
                    },
                    {
                        "duration": 0.125,
                        "durationTicks": 24,
                        "midi": 46,
                        "name": "A#2",
                        "ticks": 18000,
                        "time": 93.75,
                        "velocity": 0.4015748031496063
                    },
                    {
                        "duration": 0.125,
                        "durationTicks": 24,
                        "midi": 53,
                        "name": "F3",
                        "ticks": 18024,
                        "time": 93.875,
                        "velocity": 0.4015748031496063
                    },
                    {
                        "duration": 0.125,
                        "durationTicks": 24,
                        "midi": 53,
                        "name": "F3",
                        "ticks": 18048,
                        "time": 94,
                        "velocity": 0.4015748031496063
                    },
                    {
                        "duration": 0.125,
                        "durationTicks": 24,
                        "midi": 60,
                        "name": "C4",
                        "ticks": 18072,
                        "time": 94.125,
                        "velocity": 0.4015748031496063
                    },
                    {
                        "duration": 0.125,
                        "durationTicks": 24,
                        "midi": 69,
                        "name": "A4",
                        "ticks": 18096,
                        "time": 94.25,
                        "velocity": 0.4015748031496063
                    },
                    {
                        "duration": 0.125,
                        "durationTicks": 24,
                        "midi": 53,
                        "name": "F3",
                        "ticks": 18120,
                        "time": 94.375,
                        "velocity": 0.4015748031496063
                    },
                    {
                        "duration": 0.125,
                        "durationTicks": 24,
                        "midi": 60,
                        "name": "C4",
                        "ticks": 18144,
                        "time": 94.5,
                        "velocity": 0.4015748031496063
                    },
                    {
                        "duration": 0.125,
                        "durationTicks": 24,
                        "midi": 69,
                        "name": "A4",
                        "ticks": 18168,
                        "time": 94.625,
                        "velocity": 0.4015748031496063
                    },
                    {
                        "duration": 0.125,
                        "durationTicks": 24,
                        "midi": 53,
                        "name": "F3",
                        "ticks": 18192,
                        "time": 94.75,
                        "velocity": 0.4015748031496063
                    },
                    {
                        "duration": 0.125,
                        "durationTicks": 24,
                        "midi": 58,
                        "name": "A#3",
                        "ticks": 18216,
                        "time": 94.875,
                        "velocity": 0.41732283464566927
                    },
                    {
                        "duration": 0.125,
                        "durationTicks": 24,
                        "midi": 55,
                        "name": "G3",
                        "ticks": 18240,
                        "time": 95,
                        "velocity": 0.4015748031496063
                    },
                    {
                        "duration": 0.125,
                        "durationTicks": 24,
                        "midi": 62,
                        "name": "D4",
                        "ticks": 18264,
                        "time": 95.125,
                        "velocity": 0.4015748031496063
                    },
                    {
                        "duration": 0.125,
                        "durationTicks": 24,
                        "midi": 70,
                        "name": "A#4",
                        "ticks": 18288,
                        "time": 95.25,
                        "velocity": 0.4015748031496063
                    },
                    {
                        "duration": 0.125,
                        "durationTicks": 24,
                        "midi": 55,
                        "name": "G3",
                        "ticks": 18312,
                        "time": 95.375,
                        "velocity": 0.4015748031496063
                    },
                    {
                        "duration": 0.125,
                        "durationTicks": 24,
                        "midi": 62,
                        "name": "D4",
                        "ticks": 18336,
                        "time": 95.5,
                        "velocity": 0.4015748031496063
                    },
                    {
                        "duration": 0.125,
                        "durationTicks": 24,
                        "midi": 70,
                        "name": "A#4",
                        "ticks": 18360,
                        "time": 95.625,
                        "velocity": 0.4015748031496063
                    },
                    {
                        "duration": 0.125,
                        "durationTicks": 24,
                        "midi": 55,
                        "name": "G3",
                        "ticks": 18384,
                        "time": 95.75,
                        "velocity": 0.4015748031496063
                    },
                    {
                        "duration": 0.125,
                        "durationTicks": 24,
                        "midi": 62,
                        "name": "D4",
                        "ticks": 18408,
                        "time": 95.875,
                        "velocity": 0.4015748031496063
                    },
                    {
                        "duration": 0.125,
                        "durationTicks": 24,
                        "midi": 51,
                        "name": "D#3",
                        "ticks": 18432,
                        "time": 96,
                        "velocity": 0.4015748031496063
                    },
                    {
                        "duration": 0.125,
                        "durationTicks": 24,
                        "midi": 58,
                        "name": "A#3",
                        "ticks": 18456,
                        "time": 96.125,
                        "velocity": 0.4015748031496063
                    },
                    {
                        "duration": 0.125,
                        "durationTicks": 24,
                        "midi": 67,
                        "name": "G4",
                        "ticks": 18480,
                        "time": 96.25,
                        "velocity": 0.4015748031496063
                    },
                    {
                        "duration": 0.125,
                        "durationTicks": 24,
                        "midi": 51,
                        "name": "D#3",
                        "ticks": 18504,
                        "time": 96.375,
                        "velocity": 0.4015748031496063
                    },
                    {
                        "duration": 0.125,
                        "durationTicks": 24,
                        "midi": 58,
                        "name": "A#3",
                        "ticks": 18528,
                        "time": 96.5,
                        "velocity": 0.4015748031496063
                    },
                    {
                        "duration": 0.125,
                        "durationTicks": 24,
                        "midi": 67,
                        "name": "G4",
                        "ticks": 18552,
                        "time": 96.625,
                        "velocity": 0.4015748031496063
                    },
                    {
                        "duration": 0.125,
                        "durationTicks": 24,
                        "midi": 51,
                        "name": "D#3",
                        "ticks": 18576,
                        "time": 96.75,
                        "velocity": 0.4015748031496063
                    },
                    {
                        "duration": 0.125,
                        "durationTicks": 24,
                        "midi": 58,
                        "name": "A#3",
                        "ticks": 18600,
                        "time": 96.875,
                        "velocity": 0.4015748031496063
                    },
                    {
                        "duration": 0.125,
                        "durationTicks": 24,
                        "midi": 46,
                        "name": "A#2",
                        "ticks": 18624,
                        "time": 97,
                        "velocity": 0.4015748031496063
                    },
                    {
                        "duration": 0.125,
                        "durationTicks": 24,
                        "midi": 53,
                        "name": "F3",
                        "ticks": 18648,
                        "time": 97.125,
                        "velocity": 0.4015748031496063
                    },
                    {
                        "duration": 0.125,
                        "durationTicks": 24,
                        "midi": 62,
                        "name": "D4",
                        "ticks": 18672,
                        "time": 97.25,
                        "velocity": 0.4015748031496063
                    },
                    {
                        "duration": 0.125,
                        "durationTicks": 24,
                        "midi": 46,
                        "name": "A#2",
                        "ticks": 18696,
                        "time": 97.375,
                        "velocity": 0.4015748031496063
                    },
                    {
                        "duration": 0.125,
                        "durationTicks": 24,
                        "midi": 53,
                        "name": "F3",
                        "ticks": 18720,
                        "time": 97.5,
                        "velocity": 0.4015748031496063
                    },
                    {
                        "duration": 0.125,
                        "durationTicks": 24,
                        "midi": 62,
                        "name": "D4",
                        "ticks": 18744,
                        "time": 97.625,
                        "velocity": 0.4015748031496063
                    },
                    {
                        "duration": 0.125,
                        "durationTicks": 24,
                        "midi": 46,
                        "name": "A#2",
                        "ticks": 18768,
                        "time": 97.75,
                        "velocity": 0.4015748031496063
                    },
                    {
                        "duration": 0.125,
                        "durationTicks": 24,
                        "midi": 53,
                        "name": "F3",
                        "ticks": 18792,
                        "time": 97.875,
                        "velocity": 0.4015748031496063
                    },
                    {
                        "duration": 0.125,
                        "durationTicks": 24,
                        "midi": 53,
                        "name": "F3",
                        "ticks": 18816,
                        "time": 98,
                        "velocity": 0.4015748031496063
                    },
                    {
                        "duration": 0.125,
                        "durationTicks": 24,
                        "midi": 60,
                        "name": "C4",
                        "ticks": 18840,
                        "time": 98.125,
                        "velocity": 0.4015748031496063
                    },
                    {
                        "duration": 0.125,
                        "durationTicks": 24,
                        "midi": 69,
                        "name": "A4",
                        "ticks": 18864,
                        "time": 98.25,
                        "velocity": 0.4015748031496063
                    },
                    {
                        "duration": 0.125,
                        "durationTicks": 24,
                        "midi": 53,
                        "name": "F3",
                        "ticks": 18888,
                        "time": 98.375,
                        "velocity": 0.4015748031496063
                    },
                    {
                        "duration": 0.125,
                        "durationTicks": 24,
                        "midi": 60,
                        "name": "C4",
                        "ticks": 18912,
                        "time": 98.5,
                        "velocity": 0.4015748031496063
                    },
                    {
                        "duration": 0.125,
                        "durationTicks": 24,
                        "midi": 69,
                        "name": "A4",
                        "ticks": 18936,
                        "time": 98.625,
                        "velocity": 0.4015748031496063
                    },
                    {
                        "duration": 0.125,
                        "durationTicks": 24,
                        "midi": 53,
                        "name": "F3",
                        "ticks": 18960,
                        "time": 98.75,
                        "velocity": 0.4015748031496063
                    },
                    {
                        "duration": 0.125,
                        "durationTicks": 24,
                        "midi": 58,
                        "name": "A#3",
                        "ticks": 18984,
                        "time": 98.875,
                        "velocity": 0.4015748031496063
                    },
                    {
                        "duration": 0.125,
                        "durationTicks": 24,
                        "midi": 55,
                        "name": "G3",
                        "ticks": 19008,
                        "time": 99,
                        "velocity": 0.4015748031496063
                    },
                    {
                        "duration": 0.125,
                        "durationTicks": 24,
                        "midi": 62,
                        "name": "D4",
                        "ticks": 19032,
                        "time": 99.125,
                        "velocity": 0.4015748031496063
                    },
                    {
                        "duration": 0.125,
                        "durationTicks": 24,
                        "midi": 70,
                        "name": "A#4",
                        "ticks": 19056,
                        "time": 99.25,
                        "velocity": 0.4015748031496063
                    },
                    {
                        "duration": 0.125,
                        "durationTicks": 24,
                        "midi": 55,
                        "name": "G3",
                        "ticks": 19080,
                        "time": 99.375,
                        "velocity": 0.4015748031496063
                    },
                    {
                        "duration": 0.125,
                        "durationTicks": 24,
                        "midi": 62,
                        "name": "D4",
                        "ticks": 19104,
                        "time": 99.5,
                        "velocity": 0.4015748031496063
                    },
                    {
                        "duration": 0.125,
                        "durationTicks": 24,
                        "midi": 70,
                        "name": "A#4",
                        "ticks": 19128,
                        "time": 99.625,
                        "velocity": 0.4015748031496063
                    },
                    {
                        "duration": 0.125,
                        "durationTicks": 24,
                        "midi": 55,
                        "name": "G3",
                        "ticks": 19152,
                        "time": 99.75,
                        "velocity": 0.4015748031496063
                    },
                    {
                        "duration": 0.125,
                        "durationTicks": 24,
                        "midi": 62,
                        "name": "D4",
                        "ticks": 19176,
                        "time": 99.875,
                        "velocity": 0.4015748031496063
                    },
                    {
                        "duration": 0.125,
                        "durationTicks": 24,
                        "midi": 51,
                        "name": "D#3",
                        "ticks": 19200,
                        "time": 100,
                        "velocity": 0.4015748031496063
                    },
                    {
                        "duration": 0.125,
                        "durationTicks": 24,
                        "midi": 58,
                        "name": "A#3",
                        "ticks": 19224,
                        "time": 100.125,
                        "velocity": 0.4015748031496063
                    },
                    {
                        "duration": 0.125,
                        "durationTicks": 24,
                        "midi": 67,
                        "name": "G4",
                        "ticks": 19248,
                        "time": 100.25,
                        "velocity": 0.4015748031496063
                    },
                    {
                        "duration": 0.125,
                        "durationTicks": 24,
                        "midi": 51,
                        "name": "D#3",
                        "ticks": 19272,
                        "time": 100.375,
                        "velocity": 0.4015748031496063
                    },
                    {
                        "duration": 0.125,
                        "durationTicks": 24,
                        "midi": 58,
                        "name": "A#3",
                        "ticks": 19296,
                        "time": 100.5,
                        "velocity": 0.4015748031496063
                    },
                    {
                        "duration": 0.125,
                        "durationTicks": 24,
                        "midi": 67,
                        "name": "G4",
                        "ticks": 19320,
                        "time": 100.625,
                        "velocity": 0.4015748031496063
                    },
                    {
                        "duration": 0.125,
                        "durationTicks": 24,
                        "midi": 51,
                        "name": "D#3",
                        "ticks": 19344,
                        "time": 100.75,
                        "velocity": 0.4015748031496063
                    },
                    {
                        "duration": 0.125,
                        "durationTicks": 24,
                        "midi": 58,
                        "name": "A#3",
                        "ticks": 19368,
                        "time": 100.875,
                        "velocity": 0.4015748031496063
                    },
                    {
                        "duration": 0.125,
                        "durationTicks": 24,
                        "midi": 46,
                        "name": "A#2",
                        "ticks": 19392,
                        "time": 101,
                        "velocity": 0.4015748031496063
                    },
                    {
                        "duration": 0.125,
                        "durationTicks": 24,
                        "midi": 53,
                        "name": "F3",
                        "ticks": 19416,
                        "time": 101.125,
                        "velocity": 0.4015748031496063
                    },
                    {
                        "duration": 0.125,
                        "durationTicks": 24,
                        "midi": 62,
                        "name": "D4",
                        "ticks": 19440,
                        "time": 101.25,
                        "velocity": 0.4015748031496063
                    },
                    {
                        "duration": 0.125,
                        "durationTicks": 24,
                        "midi": 46,
                        "name": "A#2",
                        "ticks": 19464,
                        "time": 101.375,
                        "velocity": 0.4015748031496063
                    },
                    {
                        "duration": 0.125,
                        "durationTicks": 24,
                        "midi": 53,
                        "name": "F3",
                        "ticks": 19488,
                        "time": 101.5,
                        "velocity": 0.4015748031496063
                    },
                    {
                        "duration": 0.125,
                        "durationTicks": 24,
                        "midi": 62,
                        "name": "D4",
                        "ticks": 19512,
                        "time": 101.625,
                        "velocity": 0.4015748031496063
                    },
                    {
                        "duration": 0.125,
                        "durationTicks": 24,
                        "midi": 46,
                        "name": "A#2",
                        "ticks": 19536,
                        "time": 101.75,
                        "velocity": 0.4015748031496063
                    },
                    {
                        "duration": 0.125,
                        "durationTicks": 24,
                        "midi": 53,
                        "name": "F3",
                        "ticks": 19560,
                        "time": 101.875,
                        "velocity": 0.4015748031496063
                    },
                    {
                        "duration": 0.125,
                        "durationTicks": 24,
                        "midi": 53,
                        "name": "F3",
                        "ticks": 19584,
                        "time": 102,
                        "velocity": 0.4015748031496063
                    },
                    {
                        "duration": 0.125,
                        "durationTicks": 24,
                        "midi": 60,
                        "name": "C4",
                        "ticks": 19608,
                        "time": 102.125,
                        "velocity": 0.4015748031496063
                    },
                    {
                        "duration": 0.125,
                        "durationTicks": 24,
                        "midi": 69,
                        "name": "A4",
                        "ticks": 19632,
                        "time": 102.25,
                        "velocity": 0.4015748031496063
                    },
                    {
                        "duration": 0.125,
                        "durationTicks": 24,
                        "midi": 53,
                        "name": "F3",
                        "ticks": 19656,
                        "time": 102.375,
                        "velocity": 0.4015748031496063
                    },
                    {
                        "duration": 0.125,
                        "durationTicks": 24,
                        "midi": 60,
                        "name": "C4",
                        "ticks": 19680,
                        "time": 102.5,
                        "velocity": 0.4015748031496063
                    },
                    {
                        "duration": 0.125,
                        "durationTicks": 24,
                        "midi": 69,
                        "name": "A4",
                        "ticks": 19704,
                        "time": 102.625,
                        "velocity": 0.4015748031496063
                    },
                    {
                        "duration": 0.125,
                        "durationTicks": 24,
                        "midi": 53,
                        "name": "F3",
                        "ticks": 19728,
                        "time": 102.75,
                        "velocity": 0.4015748031496063
                    },
                    {
                        "duration": 0.125,
                        "durationTicks": 24,
                        "midi": 58,
                        "name": "A#3",
                        "ticks": 19752,
                        "time": 102.875,
                        "velocity": 0.4015748031496063
                    },
                    {
                        "duration": 0.125,
                        "durationTicks": 24,
                        "midi": 51,
                        "name": "D#3",
                        "ticks": 19968,
                        "time": 104,
                        "velocity": 0.4015748031496063
                    },
                    {
                        "duration": 0.125,
                        "durationTicks": 24,
                        "midi": 63,
                        "name": "D#4",
                        "ticks": 19968,
                        "time": 104,
                        "velocity": 0.4015748031496063
                    },
                    {
                        "duration": 0.125,
                        "durationTicks": 24,
                        "midi": 58,
                        "name": "A#3",
                        "ticks": 19968,
                        "time": 104,
                        "velocity": 0.4015748031496063
                    },
                    {
                        "duration": 0.125,
                        "durationTicks": 24,
                        "midi": 51,
                        "name": "D#3",
                        "ticks": 20016,
                        "time": 104.25,
                        "velocity": 0.4015748031496063
                    },
                    {
                        "duration": 0.125,
                        "durationTicks": 24,
                        "midi": 63,
                        "name": "D#4",
                        "ticks": 20016,
                        "time": 104.25,
                        "velocity": 0.4015748031496063
                    },
                    {
                        "duration": 0.125,
                        "durationTicks": 24,
                        "midi": 58,
                        "name": "A#3",
                        "ticks": 20016,
                        "time": 104.25,
                        "velocity": 0.4015748031496063
                    },
                    {
                        "duration": 0.125,
                        "durationTicks": 24,
                        "midi": 58,
                        "name": "A#3",
                        "ticks": 20064,
                        "time": 104.5,
                        "velocity": 0.4015748031496063
                    },
                    {
                        "duration": 0.125,
                        "durationTicks": 24,
                        "midi": 63,
                        "name": "D#4",
                        "ticks": 20064,
                        "time": 104.5,
                        "velocity": 0.4015748031496063
                    },
                    {
                        "duration": 0.125,
                        "durationTicks": 24,
                        "midi": 51,
                        "name": "D#3",
                        "ticks": 20064,
                        "time": 104.5,
                        "velocity": 0.4015748031496063
                    },
                    {
                        "duration": 0.125,
                        "durationTicks": 24,
                        "midi": 51,
                        "name": "D#3",
                        "ticks": 20088,
                        "time": 104.625,
                        "velocity": 0.4015748031496063
                    },
                    {
                        "duration": 0.125,
                        "durationTicks": 24,
                        "midi": 63,
                        "name": "D#4",
                        "ticks": 20088,
                        "time": 104.625,
                        "velocity": 0.4015748031496063
                    },
                    {
                        "duration": 0.125,
                        "durationTicks": 24,
                        "midi": 58,
                        "name": "A#3",
                        "ticks": 20088,
                        "time": 104.625,
                        "velocity": 0.4015748031496063
                    },
                    {
                        "duration": 0.125,
                        "durationTicks": 24,
                        "midi": 58,
                        "name": "A#3",
                        "ticks": 20112,
                        "time": 104.75,
                        "velocity": 0.4015748031496063
                    },
                    {
                        "duration": 0.125,
                        "durationTicks": 24,
                        "midi": 63,
                        "name": "D#4",
                        "ticks": 20112,
                        "time": 104.75,
                        "velocity": 0.4015748031496063
                    },
                    {
                        "duration": 0.125,
                        "durationTicks": 24,
                        "midi": 51,
                        "name": "D#3",
                        "ticks": 20112,
                        "time": 104.75,
                        "velocity": 0.4015748031496063
                    },
                    {
                        "duration": 0.25,
                        "durationTicks": 48,
                        "midi": 53,
                        "name": "F3",
                        "ticks": 20136,
                        "time": 104.875,
                        "velocity": 0.4015748031496063
                    },
                    {
                        "duration": 0.25,
                        "durationTicks": 48,
                        "midi": 58,
                        "name": "A#3",
                        "ticks": 20136,
                        "time": 104.875,
                        "velocity": 0.4015748031496063
                    },
                    {
                        "duration": 0.25,
                        "durationTicks": 48,
                        "midi": 46,
                        "name": "A#2",
                        "ticks": 20136,
                        "time": 104.875,
                        "velocity": 0.4015748031496063
                    },
                    {
                        "duration": 0.125,
                        "durationTicks": 24,
                        "midi": 46,
                        "name": "A#2",
                        "ticks": 20184,
                        "time": 105.125,
                        "velocity": 0.4015748031496063
                    },
                    {
                        "duration": 0.125,
                        "durationTicks": 24,
                        "midi": 58,
                        "name": "A#3",
                        "ticks": 20184,
                        "time": 105.125,
                        "velocity": 0.4015748031496063
                    },
                    {
                        "duration": 0.125,
                        "durationTicks": 24,
                        "midi": 53,
                        "name": "F3",
                        "ticks": 20184,
                        "time": 105.125,
                        "velocity": 0.4015748031496063
                    },
                    {
                        "duration": 0.125,
                        "durationTicks": 24,
                        "midi": 53,
                        "name": "F3",
                        "ticks": 20208,
                        "time": 105.25,
                        "velocity": 0.4015748031496063
                    },
                    {
                        "duration": 0.125,
                        "durationTicks": 24,
                        "midi": 58,
                        "name": "A#3",
                        "ticks": 20208,
                        "time": 105.25,
                        "velocity": 0.4015748031496063
                    },
                    {
                        "duration": 0.125,
                        "durationTicks": 24,
                        "midi": 46,
                        "name": "A#2",
                        "ticks": 20208,
                        "time": 105.25,
                        "velocity": 0.4015748031496063
                    },
                    {
                        "duration": 0.125,
                        "durationTicks": 24,
                        "midi": 46,
                        "name": "A#2",
                        "ticks": 20232,
                        "time": 105.375,
                        "velocity": 0.4015748031496063
                    },
                    {
                        "duration": 0.125,
                        "durationTicks": 24,
                        "midi": 58,
                        "name": "A#3",
                        "ticks": 20232,
                        "time": 105.375,
                        "velocity": 0.4015748031496063
                    },
                    {
                        "duration": 0.125,
                        "durationTicks": 24,
                        "midi": 53,
                        "name": "F3",
                        "ticks": 20232,
                        "time": 105.375,
                        "velocity": 0.4015748031496063
                    },
                    {
                        "duration": 0.125,
                        "durationTicks": 24,
                        "midi": 46,
                        "name": "A#2",
                        "ticks": 20256,
                        "time": 105.5,
                        "velocity": 0.4015748031496063
                    },
                    {
                        "duration": 0.125,
                        "durationTicks": 24,
                        "midi": 58,
                        "name": "A#3",
                        "ticks": 20256,
                        "time": 105.5,
                        "velocity": 0.4015748031496063
                    },
                    {
                        "duration": 0.125,
                        "durationTicks": 24,
                        "midi": 53,
                        "name": "F3",
                        "ticks": 20256,
                        "time": 105.5,
                        "velocity": 0.4015748031496063
                    },
                    {
                        "duration": 0.125,
                        "durationTicks": 24,
                        "midi": 53,
                        "name": "F3",
                        "ticks": 20280,
                        "time": 105.625,
                        "velocity": 0.4015748031496063
                    },
                    {
                        "duration": 0.125,
                        "durationTicks": 24,
                        "midi": 58,
                        "name": "A#3",
                        "ticks": 20280,
                        "time": 105.625,
                        "velocity": 0.4015748031496063
                    },
                    {
                        "duration": 0.125,
                        "durationTicks": 24,
                        "midi": 46,
                        "name": "A#2",
                        "ticks": 20280,
                        "time": 105.625,
                        "velocity": 0.4015748031496063
                    },
                    {
                        "duration": 0.125,
                        "durationTicks": 24,
                        "midi": 53,
                        "name": "F3",
                        "ticks": 20304,
                        "time": 105.75,
                        "velocity": 0.4015748031496063
                    },
                    {
                        "duration": 0.125,
                        "durationTicks": 24,
                        "midi": 58,
                        "name": "A#3",
                        "ticks": 20304,
                        "time": 105.75,
                        "velocity": 0.4015748031496063
                    },
                    {
                        "duration": 0.125,
                        "durationTicks": 24,
                        "midi": 46,
                        "name": "A#2",
                        "ticks": 20304,
                        "time": 105.75,
                        "velocity": 0.4015748031496063
                    },
                    {
                        "duration": 0.125,
                        "durationTicks": 24,
                        "midi": 53,
                        "name": "F3",
                        "ticks": 20328,
                        "time": 105.875,
                        "velocity": 0.4015748031496063
                    },
                    {
                        "duration": 0.125,
                        "durationTicks": 24,
                        "midi": 58,
                        "name": "A#3",
                        "ticks": 20328,
                        "time": 105.875,
                        "velocity": 0.4015748031496063
                    },
                    {
                        "duration": 0.125,
                        "durationTicks": 24,
                        "midi": 46,
                        "name": "A#2",
                        "ticks": 20328,
                        "time": 105.875,
                        "velocity": 0.4015748031496063
                    },
                    {
                        "duration": 0.125,
                        "durationTicks": 24,
                        "midi": 60,
                        "name": "C4",
                        "ticks": 20352,
                        "time": 106,
                        "velocity": 0.4015748031496063
                    },
                    {
                        "duration": 0.125,
                        "durationTicks": 24,
                        "midi": 65,
                        "name": "F4",
                        "ticks": 20352,
                        "time": 106,
                        "velocity": 0.4015748031496063
                    },
                    {
                        "duration": 0.125,
                        "durationTicks": 24,
                        "midi": 53,
                        "name": "F3",
                        "ticks": 20352,
                        "time": 106,
                        "velocity": 0.4015748031496063
                    },
                    {
                        "duration": 0.125,
                        "durationTicks": 24,
                        "midi": 53,
                        "name": "F3",
                        "ticks": 20400,
                        "time": 106.25,
                        "velocity": 0.4015748031496063
                    },
                    {
                        "duration": 0.125,
                        "durationTicks": 24,
                        "midi": 65,
                        "name": "F4",
                        "ticks": 20400,
                        "time": 106.25,
                        "velocity": 0.4015748031496063
                    },
                    {
                        "duration": 0.125,
                        "durationTicks": 24,
                        "midi": 60,
                        "name": "C4",
                        "ticks": 20400,
                        "time": 106.25,
                        "velocity": 0.4015748031496063
                    },
                    {
                        "duration": 0.125,
                        "durationTicks": 24,
                        "midi": 60,
                        "name": "C4",
                        "ticks": 20448,
                        "time": 106.5,
                        "velocity": 0.4015748031496063
                    },
                    {
                        "duration": 0.125,
                        "durationTicks": 24,
                        "midi": 65,
                        "name": "F4",
                        "ticks": 20448,
                        "time": 106.5,
                        "velocity": 0.4015748031496063
                    },
                    {
                        "duration": 0.125,
                        "durationTicks": 24,
                        "midi": 53,
                        "name": "F3",
                        "ticks": 20448,
                        "time": 106.5,
                        "velocity": 0.4015748031496063
                    },
                    {
                        "duration": 0.125,
                        "durationTicks": 24,
                        "midi": 60,
                        "name": "C4",
                        "ticks": 20472,
                        "time": 106.625,
                        "velocity": 0.4015748031496063
                    },
                    {
                        "duration": 0.125,
                        "durationTicks": 24,
                        "midi": 65,
                        "name": "F4",
                        "ticks": 20472,
                        "time": 106.625,
                        "velocity": 0.4015748031496063
                    },
                    {
                        "duration": 0.125,
                        "durationTicks": 24,
                        "midi": 53,
                        "name": "F3",
                        "ticks": 20472,
                        "time": 106.625,
                        "velocity": 0.4015748031496063
                    },
                    {
                        "duration": 0.125,
                        "durationTicks": 24,
                        "midi": 60,
                        "name": "C4",
                        "ticks": 20496,
                        "time": 106.75,
                        "velocity": 0.4015748031496063
                    },
                    {
                        "duration": 0.125,
                        "durationTicks": 24,
                        "midi": 65,
                        "name": "F4",
                        "ticks": 20496,
                        "time": 106.75,
                        "velocity": 0.4015748031496063
                    },
                    {
                        "duration": 0.125,
                        "durationTicks": 24,
                        "midi": 53,
                        "name": "F3",
                        "ticks": 20496,
                        "time": 106.75,
                        "velocity": 0.4015748031496063
                    },
                    {
                        "duration": 0.375,
                        "durationTicks": 72,
                        "midi": 62,
                        "name": "D4",
                        "ticks": 20520,
                        "time": 106.875,
                        "velocity": 0.4015748031496063
                    },
                    {
                        "duration": 0.375,
                        "durationTicks": 72,
                        "midi": 67,
                        "name": "G4",
                        "ticks": 20520,
                        "time": 106.875,
                        "velocity": 0.4015748031496063
                    },
                    {
                        "duration": 0.375,
                        "durationTicks": 72,
                        "midi": 55,
                        "name": "G3",
                        "ticks": 20520,
                        "time": 106.875,
                        "velocity": 0.4015748031496063
                    },
                    {
                        "duration": 0.125,
                        "durationTicks": 24,
                        "midi": 62,
                        "name": "D4",
                        "ticks": 20592,
                        "time": 107.25,
                        "velocity": 0.4015748031496063
                    },
                    {
                        "duration": 0.125,
                        "durationTicks": 24,
                        "midi": 67,
                        "name": "G4",
                        "ticks": 20592,
                        "time": 107.25,
                        "velocity": 0.4015748031496063
                    },
                    {
                        "duration": 0.125,
                        "durationTicks": 24,
                        "midi": 55,
                        "name": "G3",
                        "ticks": 20592,
                        "time": 107.25,
                        "velocity": 0.4015748031496063
                    },
                    {
                        "duration": 0.125,
                        "durationTicks": 24,
                        "midi": 62,
                        "name": "D4",
                        "ticks": 20616,
                        "time": 107.375,
                        "velocity": 0.4015748031496063
                    },
                    {
                        "duration": 0.125,
                        "durationTicks": 24,
                        "midi": 67,
                        "name": "G4",
                        "ticks": 20616,
                        "time": 107.375,
                        "velocity": 0.4015748031496063
                    },
                    {
                        "duration": 0.125,
                        "durationTicks": 24,
                        "midi": 55,
                        "name": "G3",
                        "ticks": 20616,
                        "time": 107.375,
                        "velocity": 0.4015748031496063
                    },
                    {
                        "duration": 0.125,
                        "durationTicks": 24,
                        "midi": 55,
                        "name": "G3",
                        "ticks": 20640,
                        "time": 107.5,
                        "velocity": 0.4015748031496063
                    },
                    {
                        "duration": 0.125,
                        "durationTicks": 24,
                        "midi": 67,
                        "name": "G4",
                        "ticks": 20640,
                        "time": 107.5,
                        "velocity": 0.4015748031496063
                    },
                    {
                        "duration": 0.125,
                        "durationTicks": 24,
                        "midi": 62,
                        "name": "D4",
                        "ticks": 20640,
                        "time": 107.5,
                        "velocity": 0.4015748031496063
                    },
                    {
                        "duration": 0.125,
                        "durationTicks": 24,
                        "midi": 62,
                        "name": "D4",
                        "ticks": 20664,
                        "time": 107.625,
                        "velocity": 0.4015748031496063
                    },
                    {
                        "duration": 0.125,
                        "durationTicks": 24,
                        "midi": 67,
                        "name": "G4",
                        "ticks": 20664,
                        "time": 107.625,
                        "velocity": 0.4015748031496063
                    },
                    {
                        "duration": 0.125,
                        "durationTicks": 24,
                        "midi": 55,
                        "name": "G3",
                        "ticks": 20664,
                        "time": 107.625,
                        "velocity": 0.4015748031496063
                    },
                    {
                        "duration": 0.125,
                        "durationTicks": 24,
                        "midi": 55,
                        "name": "G3",
                        "ticks": 20688,
                        "time": 107.75,
                        "velocity": 0.4015748031496063
                    },
                    {
                        "duration": 0.125,
                        "durationTicks": 24,
                        "midi": 67,
                        "name": "G4",
                        "ticks": 20688,
                        "time": 107.75,
                        "velocity": 0.4015748031496063
                    },
                    {
                        "duration": 0.125,
                        "durationTicks": 24,
                        "midi": 62,
                        "name": "D4",
                        "ticks": 20688,
                        "time": 107.75,
                        "velocity": 0.4015748031496063
                    },
                    {
                        "duration": 0.125,
                        "durationTicks": 24,
                        "midi": 55,
                        "name": "G3",
                        "ticks": 20712,
                        "time": 107.875,
                        "velocity": 0.4015748031496063
                    },
                    {
                        "duration": 0.125,
                        "durationTicks": 24,
                        "midi": 67,
                        "name": "G4",
                        "ticks": 20712,
                        "time": 107.875,
                        "velocity": 0.4015748031496063
                    },
                    {
                        "duration": 0.125,
                        "durationTicks": 24,
                        "midi": 62,
                        "name": "D4",
                        "ticks": 20712,
                        "time": 107.875,
                        "velocity": 0.4015748031496063
                    },
                    {
                        "duration": 0.125,
                        "durationTicks": 24,
                        "midi": 51,
                        "name": "D#3",
                        "ticks": 20736,
                        "time": 108,
                        "velocity": 0.4015748031496063
                    },
                    {
                        "duration": 0.125,
                        "durationTicks": 24,
                        "midi": 63,
                        "name": "D#4",
                        "ticks": 20736,
                        "time": 108,
                        "velocity": 0.4015748031496063
                    },
                    {
                        "duration": 0.125,
                        "durationTicks": 24,
                        "midi": 58,
                        "name": "A#3",
                        "ticks": 20736,
                        "time": 108,
                        "velocity": 0.4015748031496063
                    },
                    {
                        "duration": 0.125,
                        "durationTicks": 24,
                        "midi": 51,
                        "name": "D#3",
                        "ticks": 20784,
                        "time": 108.25,
                        "velocity": 0.4015748031496063
                    },
                    {
                        "duration": 0.125,
                        "durationTicks": 24,
                        "midi": 63,
                        "name": "D#4",
                        "ticks": 20784,
                        "time": 108.25,
                        "velocity": 0.4015748031496063
                    },
                    {
                        "duration": 0.125,
                        "durationTicks": 24,
                        "midi": 58,
                        "name": "A#3",
                        "ticks": 20784,
                        "time": 108.25,
                        "velocity": 0.4015748031496063
                    },
                    {
                        "duration": 0.125,
                        "durationTicks": 24,
                        "midi": 58,
                        "name": "A#3",
                        "ticks": 20832,
                        "time": 108.5,
                        "velocity": 0.4015748031496063
                    },
                    {
                        "duration": 0.125,
                        "durationTicks": 24,
                        "midi": 63,
                        "name": "D#4",
                        "ticks": 20832,
                        "time": 108.5,
                        "velocity": 0.4015748031496063
                    },
                    {
                        "duration": 0.125,
                        "durationTicks": 24,
                        "midi": 51,
                        "name": "D#3",
                        "ticks": 20832,
                        "time": 108.5,
                        "velocity": 0.4015748031496063
                    },
                    {
                        "duration": 0.125,
                        "durationTicks": 24,
                        "midi": 58,
                        "name": "A#3",
                        "ticks": 20856,
                        "time": 108.625,
                        "velocity": 0.4015748031496063
                    },
                    {
                        "duration": 0.125,
                        "durationTicks": 24,
                        "midi": 63,
                        "name": "D#4",
                        "ticks": 20856,
                        "time": 108.625,
                        "velocity": 0.4015748031496063
                    },
                    {
                        "duration": 0.125,
                        "durationTicks": 24,
                        "midi": 51,
                        "name": "D#3",
                        "ticks": 20856,
                        "time": 108.625,
                        "velocity": 0.4015748031496063
                    },
                    {
                        "duration": 0.125,
                        "durationTicks": 24,
                        "midi": 51,
                        "name": "D#3",
                        "ticks": 20880,
                        "time": 108.75,
                        "velocity": 0.4015748031496063
                    },
                    {
                        "duration": 0.125,
                        "durationTicks": 24,
                        "midi": 63,
                        "name": "D#4",
                        "ticks": 20880,
                        "time": 108.75,
                        "velocity": 0.4015748031496063
                    },
                    {
                        "duration": 0.125,
                        "durationTicks": 24,
                        "midi": 58,
                        "name": "A#3",
                        "ticks": 20880,
                        "time": 108.75,
                        "velocity": 0.4015748031496063
                    },
                    {
                        "duration": 0.125,
                        "durationTicks": 24,
                        "midi": 46,
                        "name": "A#2",
                        "ticks": 20904,
                        "time": 108.875,
                        "velocity": 0.4015748031496063
                    },
                    {
                        "duration": 0.125,
                        "durationTicks": 24,
                        "midi": 58,
                        "name": "A#3",
                        "ticks": 20904,
                        "time": 108.875,
                        "velocity": 0.4015748031496063
                    },
                    {
                        "duration": 0.125,
                        "durationTicks": 24,
                        "midi": 53,
                        "name": "F3",
                        "ticks": 20904,
                        "time": 108.875,
                        "velocity": 0.4015748031496063
                    },
                    {
                        "duration": 0.125,
                        "durationTicks": 24,
                        "midi": 51,
                        "name": "D#3",
                        "ticks": 20928,
                        "time": 109,
                        "velocity": 0.4015748031496063
                    },
                    {
                        "duration": 0.125,
                        "durationTicks": 24,
                        "midi": 63,
                        "name": "D#4",
                        "ticks": 20928,
                        "time": 109,
                        "velocity": 0.4015748031496063
                    },
                    {
                        "duration": 0.125,
                        "durationTicks": 24,
                        "midi": 58,
                        "name": "A#3",
                        "ticks": 20928,
                        "time": 109,
                        "velocity": 0.4015748031496063
                    },
                    {
                        "duration": 0.125,
                        "durationTicks": 24,
                        "midi": 51,
                        "name": "D#3",
                        "ticks": 20976,
                        "time": 109.25,
                        "velocity": 0.4015748031496063
                    },
                    {
                        "duration": 0.125,
                        "durationTicks": 24,
                        "midi": 63,
                        "name": "D#4",
                        "ticks": 20976,
                        "time": 109.25,
                        "velocity": 0.4015748031496063
                    },
                    {
                        "duration": 0.125,
                        "durationTicks": 24,
                        "midi": 58,
                        "name": "A#3",
                        "ticks": 20976,
                        "time": 109.25,
                        "velocity": 0.4015748031496063
                    },
                    {
                        "duration": 0.125,
                        "durationTicks": 24,
                        "midi": 51,
                        "name": "D#3",
                        "ticks": 21024,
                        "time": 109.5,
                        "velocity": 0.4015748031496063
                    },
                    {
                        "duration": 0.125,
                        "durationTicks": 24,
                        "midi": 63,
                        "name": "D#4",
                        "ticks": 21024,
                        "time": 109.5,
                        "velocity": 0.4015748031496063
                    },
                    {
                        "duration": 0.125,
                        "durationTicks": 24,
                        "midi": 58,
                        "name": "A#3",
                        "ticks": 21024,
                        "time": 109.5,
                        "velocity": 0.4015748031496063
                    },
                    {
                        "duration": 0.125,
                        "durationTicks": 24,
                        "midi": 58,
                        "name": "A#3",
                        "ticks": 21048,
                        "time": 109.625,
                        "velocity": 0.4015748031496063
                    },
                    {
                        "duration": 0.125,
                        "durationTicks": 24,
                        "midi": 63,
                        "name": "D#4",
                        "ticks": 21048,
                        "time": 109.625,
                        "velocity": 0.4015748031496063
                    },
                    {
                        "duration": 0.125,
                        "durationTicks": 24,
                        "midi": 51,
                        "name": "D#3",
                        "ticks": 21048,
                        "time": 109.625,
                        "velocity": 0.4015748031496063
                    },
                    {
                        "duration": 0.125,
                        "durationTicks": 24,
                        "midi": 58,
                        "name": "A#3",
                        "ticks": 21072,
                        "time": 109.75,
                        "velocity": 0.4015748031496063
                    },
                    {
                        "duration": 0.125,
                        "durationTicks": 24,
                        "midi": 63,
                        "name": "D#4",
                        "ticks": 21072,
                        "time": 109.75,
                        "velocity": 0.4015748031496063
                    },
                    {
                        "duration": 0.125,
                        "durationTicks": 24,
                        "midi": 51,
                        "name": "D#3",
                        "ticks": 21072,
                        "time": 109.75,
                        "velocity": 0.4015748031496063
                    },
                    {
                        "duration": 0.125,
                        "durationTicks": 24,
                        "midi": 53,
                        "name": "F3",
                        "ticks": 21096,
                        "time": 109.875,
                        "velocity": 0.4015748031496063
                    },
                    {
                        "duration": 0.125,
                        "durationTicks": 24,
                        "midi": 58,
                        "name": "A#3",
                        "ticks": 21096,
                        "time": 109.875,
                        "velocity": 0.4015748031496063
                    },
                    {
                        "duration": 0.125,
                        "durationTicks": 24,
                        "midi": 46,
                        "name": "A#2",
                        "ticks": 21096,
                        "time": 109.875,
                        "velocity": 0.4015748031496063
                    },
                    {
                        "duration": 0.125,
                        "durationTicks": 24,
                        "midi": 58,
                        "name": "A#3",
                        "ticks": 21120,
                        "time": 110,
                        "velocity": 0.4015748031496063
                    },
                    {
                        "duration": 0.125,
                        "durationTicks": 24,
                        "midi": 63,
                        "name": "D#4",
                        "ticks": 21120,
                        "time": 110,
                        "velocity": 0.4015748031496063
                    },
                    {
                        "duration": 0.125,
                        "durationTicks": 24,
                        "midi": 51,
                        "name": "D#3",
                        "ticks": 21120,
                        "time": 110,
                        "velocity": 0.4015748031496063
                    },
                    {
                        "duration": 0.125,
                        "durationTicks": 24,
                        "midi": 51,
                        "name": "D#3",
                        "ticks": 21168,
                        "time": 110.25,
                        "velocity": 0.4015748031496063
                    },
                    {
                        "duration": 0.125,
                        "durationTicks": 24,
                        "midi": 63,
                        "name": "D#4",
                        "ticks": 21168,
                        "time": 110.25,
                        "velocity": 0.4015748031496063
                    },
                    {
                        "duration": 0.125,
                        "durationTicks": 24,
                        "midi": 58,
                        "name": "A#3",
                        "ticks": 21168,
                        "time": 110.25,
                        "velocity": 0.4015748031496063
                    },
                    {
                        "duration": 0.125,
                        "durationTicks": 24,
                        "midi": 51,
                        "name": "D#3",
                        "ticks": 21216,
                        "time": 110.5,
                        "velocity": 0.4015748031496063
                    },
                    {
                        "duration": 0.125,
                        "durationTicks": 24,
                        "midi": 63,
                        "name": "D#4",
                        "ticks": 21216,
                        "time": 110.5,
                        "velocity": 0.4015748031496063
                    },
                    {
                        "duration": 0.125,
                        "durationTicks": 24,
                        "midi": 58,
                        "name": "A#3",
                        "ticks": 21216,
                        "time": 110.5,
                        "velocity": 0.4015748031496063
                    },
                    {
                        "duration": 0.125,
                        "durationTicks": 24,
                        "midi": 58,
                        "name": "A#3",
                        "ticks": 21264,
                        "time": 110.75,
                        "velocity": 0.4015748031496063
                    },
                    {
                        "duration": 0.125,
                        "durationTicks": 24,
                        "midi": 63,
                        "name": "D#4",
                        "ticks": 21264,
                        "time": 110.75,
                        "velocity": 0.4015748031496063
                    },
                    {
                        "duration": 0.125,
                        "durationTicks": 24,
                        "midi": 51,
                        "name": "D#3",
                        "ticks": 21264,
                        "time": 110.75,
                        "velocity": 0.4015748031496063
                    },
                    {
                        "duration": 0.125,
                        "durationTicks": 24,
                        "midi": 51,
                        "name": "D#3",
                        "ticks": 21312,
                        "time": 111,
                        "velocity": 0.4015748031496063
                    },
                    {
                        "duration": 0.125,
                        "durationTicks": 24,
                        "midi": 58,
                        "name": "A#3",
                        "ticks": 21312,
                        "time": 111,
                        "velocity": 0.4015748031496063
                    },
                    {
                        "duration": 0.125,
                        "durationTicks": 24,
                        "midi": 63,
                        "name": "D#4",
                        "ticks": 21312,
                        "time": 111,
                        "velocity": 0.4015748031496063
                    },
                    {
                        "duration": 0.25,
                        "durationTicks": 48,
                        "midi": 39,
                        "name": "D#2",
                        "ticks": 21504,
                        "time": 112,
                        "velocity": 0.4015748031496063
                    },
                    {
                        "duration": 0.125,
                        "durationTicks": 24,
                        "midi": 63,
                        "name": "D#4",
                        "ticks": 21552,
                        "time": 112.25,
                        "velocity": 0.4015748031496063
                    },
                    {
                        "duration": 0.125,
                        "durationTicks": 24,
                        "midi": 58,
                        "name": "A#3",
                        "ticks": 21552,
                        "time": 112.25,
                        "velocity": 0.4015748031496063
                    },
                    {
                        "duration": 0.125,
                        "durationTicks": 24,
                        "midi": 55,
                        "name": "G3",
                        "ticks": 21552,
                        "time": 112.25,
                        "velocity": 0.4015748031496063
                    },
                    {
                        "duration": 0.25,
                        "durationTicks": 48,
                        "midi": 46,
                        "name": "A#2",
                        "ticks": 21600,
                        "time": 112.5,
                        "velocity": 0.4015748031496063
                    },
                    {
                        "duration": 0.125,
                        "durationTicks": 24,
                        "midi": 55,
                        "name": "G3",
                        "ticks": 21648,
                        "time": 112.75,
                        "velocity": 0.4015748031496063
                    },
                    {
                        "duration": 0.125,
                        "durationTicks": 24,
                        "midi": 58,
                        "name": "A#3",
                        "ticks": 21648,
                        "time": 112.75,
                        "velocity": 0.4015748031496063
                    },
                    {
                        "duration": 0.125,
                        "durationTicks": 24,
                        "midi": 63,
                        "name": "D#4",
                        "ticks": 21648,
                        "time": 112.75,
                        "velocity": 0.4015748031496063
                    },
                    {
                        "duration": 0.25,
                        "durationTicks": 48,
                        "midi": 34,
                        "name": "A#1",
                        "ticks": 21696,
                        "time": 113,
                        "velocity": 0.4015748031496063
                    },
                    {
                        "duration": 0.125,
                        "durationTicks": 24,
                        "midi": 58,
                        "name": "A#3",
                        "ticks": 21744,
                        "time": 113.25,
                        "velocity": 0.4015748031496063
                    },
                    {
                        "duration": 0.125,
                        "durationTicks": 24,
                        "midi": 53,
                        "name": "F3",
                        "ticks": 21744,
                        "time": 113.25,
                        "velocity": 0.4015748031496063
                    },
                    {
                        "duration": 0.125,
                        "durationTicks": 24,
                        "midi": 62,
                        "name": "D4",
                        "ticks": 21744,
                        "time": 113.25,
                        "velocity": 0.4015748031496063
                    },
                    {
                        "duration": 0.25,
                        "durationTicks": 48,
                        "midi": 41,
                        "name": "F2",
                        "ticks": 21792,
                        "time": 113.5,
                        "velocity": 0.4015748031496063
                    },
                    {
                        "duration": 0.125,
                        "durationTicks": 24,
                        "midi": 62,
                        "name": "D4",
                        "ticks": 21840,
                        "time": 113.75,
                        "velocity": 0.4015748031496063
                    },
                    {
                        "duration": 0.125,
                        "durationTicks": 24,
                        "midi": 53,
                        "name": "F3",
                        "ticks": 21840,
                        "time": 113.75,
                        "velocity": 0.4015748031496063
                    },
                    {
                        "duration": 0.125,
                        "durationTicks": 24,
                        "midi": 58,
                        "name": "A#3",
                        "ticks": 21840,
                        "time": 113.75,
                        "velocity": 0.4015748031496063
                    },
                    {
                        "duration": 0.25,
                        "durationTicks": 48,
                        "midi": 41,
                        "name": "F2",
                        "ticks": 21888,
                        "time": 114,
                        "velocity": 0.4015748031496063
                    },
                    {
                        "duration": 0.125,
                        "durationTicks": 24,
                        "midi": 57,
                        "name": "A3",
                        "ticks": 21936,
                        "time": 114.25,
                        "velocity": 0.4015748031496063
                    },
                    {
                        "duration": 0.125,
                        "durationTicks": 24,
                        "midi": 60,
                        "name": "C4",
                        "ticks": 21936,
                        "time": 114.25,
                        "velocity": 0.4015748031496063
                    },
                    {
                        "duration": 0.125,
                        "durationTicks": 24,
                        "midi": 65,
                        "name": "F4",
                        "ticks": 21936,
                        "time": 114.25,
                        "velocity": 0.4015748031496063
                    },
                    {
                        "duration": 0.25,
                        "durationTicks": 48,
                        "midi": 48,
                        "name": "C3",
                        "ticks": 21984,
                        "time": 114.5,
                        "velocity": 0.4015748031496063
                    },
                    {
                        "duration": 0.125,
                        "durationTicks": 24,
                        "midi": 57,
                        "name": "A3",
                        "ticks": 22032,
                        "time": 114.75,
                        "velocity": 0.4015748031496063
                    },
                    {
                        "duration": 0.125,
                        "durationTicks": 24,
                        "midi": 60,
                        "name": "C4",
                        "ticks": 22032,
                        "time": 114.75,
                        "velocity": 0.4015748031496063
                    },
                    {
                        "duration": 0.125,
                        "durationTicks": 24,
                        "midi": 65,
                        "name": "F4",
                        "ticks": 22032,
                        "time": 114.75,
                        "velocity": 0.4015748031496063
                    },
                    {
                        "duration": 0.25,
                        "durationTicks": 48,
                        "midi": 43,
                        "name": "G2",
                        "ticks": 22080,
                        "time": 115,
                        "velocity": 0.4015748031496063
                    },
                    {
                        "duration": 0.125,
                        "durationTicks": 24,
                        "midi": 67,
                        "name": "G4",
                        "ticks": 22128,
                        "time": 115.25,
                        "velocity": 0.4015748031496063
                    },
                    {
                        "duration": 0.125,
                        "durationTicks": 24,
                        "midi": 62,
                        "name": "D4",
                        "ticks": 22128,
                        "time": 115.25,
                        "velocity": 0.4015748031496063
                    },
                    {
                        "duration": 0.125,
                        "durationTicks": 24,
                        "midi": 58,
                        "name": "A#3",
                        "ticks": 22128,
                        "time": 115.25,
                        "velocity": 0.4015748031496063
                    },
                    {
                        "duration": 0.25,
                        "durationTicks": 48,
                        "midi": 50,
                        "name": "D3",
                        "ticks": 22176,
                        "time": 115.5,
                        "velocity": 0.4015748031496063
                    },
                    {
                        "duration": 0.125,
                        "durationTicks": 24,
                        "midi": 58,
                        "name": "A#3",
                        "ticks": 22224,
                        "time": 115.75,
                        "velocity": 0.4015748031496063
                    },
                    {
                        "duration": 0.125,
                        "durationTicks": 24,
                        "midi": 67,
                        "name": "G4",
                        "ticks": 22224,
                        "time": 115.75,
                        "velocity": 0.4015748031496063
                    },
                    {
                        "duration": 0.125,
                        "durationTicks": 24,
                        "midi": 62,
                        "name": "D4",
                        "ticks": 22224,
                        "time": 115.75,
                        "velocity": 0.4015748031496063
                    },
                    {
                        "duration": 0.25,
                        "durationTicks": 48,
                        "midi": 39,
                        "name": "D#2",
                        "ticks": 22272,
                        "time": 116,
                        "velocity": 0.4015748031496063
                    },
                    {
                        "duration": 0.125,
                        "durationTicks": 24,
                        "midi": 55,
                        "name": "G3",
                        "ticks": 22320,
                        "time": 116.25,
                        "velocity": 0.4015748031496063
                    },
                    {
                        "duration": 0.125,
                        "durationTicks": 24,
                        "midi": 58,
                        "name": "A#3",
                        "ticks": 22320,
                        "time": 116.25,
                        "velocity": 0.4015748031496063
                    },
                    {
                        "duration": 0.125,
                        "durationTicks": 24,
                        "midi": 63,
                        "name": "D#4",
                        "ticks": 22320,
                        "time": 116.25,
                        "velocity": 0.4015748031496063
                    },
                    {
                        "duration": 0.25,
                        "durationTicks": 48,
                        "midi": 46,
                        "name": "A#2",
                        "ticks": 22368,
                        "time": 116.5,
                        "velocity": 0.4015748031496063
                    },
                    {
                        "duration": 0.125,
                        "durationTicks": 24,
                        "midi": 55,
                        "name": "G3",
                        "ticks": 22416,
                        "time": 116.75,
                        "velocity": 0.4015748031496063
                    },
                    {
                        "duration": 0.125,
                        "durationTicks": 24,
                        "midi": 58,
                        "name": "A#3",
                        "ticks": 22416,
                        "time": 116.75,
                        "velocity": 0.4015748031496063
                    },
                    {
                        "duration": 0.125,
                        "durationTicks": 24,
                        "midi": 63,
                        "name": "D#4",
                        "ticks": 22416,
                        "time": 116.75,
                        "velocity": 0.4015748031496063
                    },
                    {
                        "duration": 0.25,
                        "durationTicks": 48,
                        "midi": 34,
                        "name": "A#1",
                        "ticks": 22464,
                        "time": 117,
                        "velocity": 0.4015748031496063
                    },
                    {
                        "duration": 0.125,
                        "durationTicks": 24,
                        "midi": 62,
                        "name": "D4",
                        "ticks": 22512,
                        "time": 117.25,
                        "velocity": 0.4015748031496063
                    },
                    {
                        "duration": 0.125,
                        "durationTicks": 24,
                        "midi": 53,
                        "name": "F3",
                        "ticks": 22512,
                        "time": 117.25,
                        "velocity": 0.4015748031496063
                    },
                    {
                        "duration": 0.125,
                        "durationTicks": 24,
                        "midi": 58,
                        "name": "A#3",
                        "ticks": 22512,
                        "time": 117.25,
                        "velocity": 0.4015748031496063
                    },
                    {
                        "duration": 0.25,
                        "durationTicks": 48,
                        "midi": 41,
                        "name": "F2",
                        "ticks": 22560,
                        "time": 117.5,
                        "velocity": 0.4015748031496063
                    },
                    {
                        "duration": 0.125,
                        "durationTicks": 24,
                        "midi": 62,
                        "name": "D4",
                        "ticks": 22608,
                        "time": 117.75,
                        "velocity": 0.4015748031496063
                    },
                    {
                        "duration": 0.125,
                        "durationTicks": 24,
                        "midi": 53,
                        "name": "F3",
                        "ticks": 22608,
                        "time": 117.75,
                        "velocity": 0.4015748031496063
                    },
                    {
                        "duration": 0.125,
                        "durationTicks": 24,
                        "midi": 58,
                        "name": "A#3",
                        "ticks": 22608,
                        "time": 117.75,
                        "velocity": 0.4015748031496063
                    },
                    {
                        "duration": 0.25,
                        "durationTicks": 48,
                        "midi": 41,
                        "name": "F2",
                        "ticks": 22656,
                        "time": 118,
                        "velocity": 0.4015748031496063
                    },
                    {
                        "duration": 0.125,
                        "durationTicks": 24,
                        "midi": 57,
                        "name": "A3",
                        "ticks": 22704,
                        "time": 118.25,
                        "velocity": 0.4015748031496063
                    },
                    {
                        "duration": 0.125,
                        "durationTicks": 24,
                        "midi": 60,
                        "name": "C4",
                        "ticks": 22704,
                        "time": 118.25,
                        "velocity": 0.4015748031496063
                    },
                    {
                        "duration": 0.125,
                        "durationTicks": 24,
                        "midi": 65,
                        "name": "F4",
                        "ticks": 22704,
                        "time": 118.25,
                        "velocity": 0.4015748031496063
                    },
                    {
                        "duration": 0.25,
                        "durationTicks": 48,
                        "midi": 48,
                        "name": "C3",
                        "ticks": 22752,
                        "time": 118.5,
                        "velocity": 0.4015748031496063
                    },
                    {
                        "duration": 0.125,
                        "durationTicks": 24,
                        "midi": 57,
                        "name": "A3",
                        "ticks": 22800,
                        "time": 118.75,
                        "velocity": 0.4015748031496063
                    },
                    {
                        "duration": 0.125,
                        "durationTicks": 24,
                        "midi": 60,
                        "name": "C4",
                        "ticks": 22800,
                        "time": 118.75,
                        "velocity": 0.4015748031496063
                    },
                    {
                        "duration": 0.125,
                        "durationTicks": 24,
                        "midi": 65,
                        "name": "F4",
                        "ticks": 22800,
                        "time": 118.75,
                        "velocity": 0.4015748031496063
                    },
                    {
                        "duration": 0.25,
                        "durationTicks": 48,
                        "midi": 43,
                        "name": "G2",
                        "ticks": 22848,
                        "time": 119,
                        "velocity": 0.4015748031496063
                    },
                    {
                        "duration": 0.125,
                        "durationTicks": 24,
                        "midi": 58,
                        "name": "A#3",
                        "ticks": 22896,
                        "time": 119.25,
                        "velocity": 0.4015748031496063
                    },
                    {
                        "duration": 0.125,
                        "durationTicks": 24,
                        "midi": 62,
                        "name": "D4",
                        "ticks": 22896,
                        "time": 119.25,
                        "velocity": 0.4015748031496063
                    },
                    {
                        "duration": 0.125,
                        "durationTicks": 24,
                        "midi": 67,
                        "name": "G4",
                        "ticks": 22896,
                        "time": 119.25,
                        "velocity": 0.4015748031496063
                    },
                    {
                        "duration": 0.25,
                        "durationTicks": 48,
                        "midi": 50,
                        "name": "D3",
                        "ticks": 22944,
                        "time": 119.5,
                        "velocity": 0.4015748031496063
                    },
                    {
                        "duration": 0.125,
                        "durationTicks": 24,
                        "midi": 58,
                        "name": "A#3",
                        "ticks": 22992,
                        "time": 119.75,
                        "velocity": 0.4015748031496063
                    },
                    {
                        "duration": 0.125,
                        "durationTicks": 24,
                        "midi": 67,
                        "name": "G4",
                        "ticks": 22992,
                        "time": 119.75,
                        "velocity": 0.4015748031496063
                    },
                    {
                        "duration": 0.125,
                        "durationTicks": 24,
                        "midi": 62,
                        "name": "D4",
                        "ticks": 22992,
                        "time": 119.75,
                        "velocity": 0.4015748031496063
                    },
                    {
                        "duration": 0.25,
                        "durationTicks": 48,
                        "midi": 39,
                        "name": "D#2",
                        "ticks": 23040,
                        "time": 120,
                        "velocity": 0.4015748031496063
                    },
                    {
                        "duration": 0.125,
                        "durationTicks": 24,
                        "midi": 63,
                        "name": "D#4",
                        "ticks": 23088,
                        "time": 120.25,
                        "velocity": 0.4015748031496063
                    },
                    {
                        "duration": 0.125,
                        "durationTicks": 24,
                        "midi": 58,
                        "name": "A#3",
                        "ticks": 23088,
                        "time": 120.25,
                        "velocity": 0.4015748031496063
                    },
                    {
                        "duration": 0.125,
                        "durationTicks": 24,
                        "midi": 55,
                        "name": "G3",
                        "ticks": 23088,
                        "time": 120.25,
                        "velocity": 0.4015748031496063
                    },
                    {
                        "duration": 0.25,
                        "durationTicks": 48,
                        "midi": 46,
                        "name": "A#2",
                        "ticks": 23136,
                        "time": 120.5,
                        "velocity": 0.4015748031496063
                    },
                    {
                        "duration": 0.125,
                        "durationTicks": 24,
                        "midi": 55,
                        "name": "G3",
                        "ticks": 23184,
                        "time": 120.75,
                        "velocity": 0.4015748031496063
                    },
                    {
                        "duration": 0.125,
                        "durationTicks": 24,
                        "midi": 58,
                        "name": "A#3",
                        "ticks": 23184,
                        "time": 120.75,
                        "velocity": 0.4015748031496063
                    },
                    {
                        "duration": 0.125,
                        "durationTicks": 24,
                        "midi": 63,
                        "name": "D#4",
                        "ticks": 23184,
                        "time": 120.75,
                        "velocity": 0.4015748031496063
                    },
                    {
                        "duration": 0.25,
                        "durationTicks": 48,
                        "midi": 34,
                        "name": "A#1",
                        "ticks": 23232,
                        "time": 121,
                        "velocity": 0.4015748031496063
                    },
                    {
                        "duration": 0.125,
                        "durationTicks": 24,
                        "midi": 58,
                        "name": "A#3",
                        "ticks": 23280,
                        "time": 121.25,
                        "velocity": 0.4015748031496063
                    },
                    {
                        "duration": 0.125,
                        "durationTicks": 24,
                        "midi": 53,
                        "name": "F3",
                        "ticks": 23280,
                        "time": 121.25,
                        "velocity": 0.4015748031496063
                    },
                    {
                        "duration": 0.125,
                        "durationTicks": 24,
                        "midi": 62,
                        "name": "D4",
                        "ticks": 23280,
                        "time": 121.25,
                        "velocity": 0.4015748031496063
                    },
                    {
                        "duration": 0.25,
                        "durationTicks": 48,
                        "midi": 41,
                        "name": "F2",
                        "ticks": 23328,
                        "time": 121.5,
                        "velocity": 0.4015748031496063
                    },
                    {
                        "duration": 0.125,
                        "durationTicks": 24,
                        "midi": 62,
                        "name": "D4",
                        "ticks": 23376,
                        "time": 121.75,
                        "velocity": 0.4015748031496063
                    },
                    {
                        "duration": 0.125,
                        "durationTicks": 24,
                        "midi": 53,
                        "name": "F3",
                        "ticks": 23376,
                        "time": 121.75,
                        "velocity": 0.4015748031496063
                    },
                    {
                        "duration": 0.125,
                        "durationTicks": 24,
                        "midi": 58,
                        "name": "A#3",
                        "ticks": 23376,
                        "time": 121.75,
                        "velocity": 0.4015748031496063
                    },
                    {
                        "duration": 0.25,
                        "durationTicks": 48,
                        "midi": 41,
                        "name": "F2",
                        "ticks": 23424,
                        "time": 122,
                        "velocity": 0.4015748031496063
                    },
                    {
                        "duration": 0.125,
                        "durationTicks": 24,
                        "midi": 57,
                        "name": "A3",
                        "ticks": 23472,
                        "time": 122.25,
                        "velocity": 0.4015748031496063
                    },
                    {
                        "duration": 0.125,
                        "durationTicks": 24,
                        "midi": 60,
                        "name": "C4",
                        "ticks": 23472,
                        "time": 122.25,
                        "velocity": 0.4015748031496063
                    },
                    {
                        "duration": 0.125,
                        "durationTicks": 24,
                        "midi": 65,
                        "name": "F4",
                        "ticks": 23472,
                        "time": 122.25,
                        "velocity": 0.4015748031496063
                    },
                    {
                        "duration": 0.25,
                        "durationTicks": 48,
                        "midi": 48,
                        "name": "C3",
                        "ticks": 23520,
                        "time": 122.5,
                        "velocity": 0.4015748031496063
                    },
                    {
                        "duration": 0.125,
                        "durationTicks": 24,
                        "midi": 57,
                        "name": "A3",
                        "ticks": 23568,
                        "time": 122.75,
                        "velocity": 0.4015748031496063
                    },
                    {
                        "duration": 0.125,
                        "durationTicks": 24,
                        "midi": 60,
                        "name": "C4",
                        "ticks": 23568,
                        "time": 122.75,
                        "velocity": 0.4015748031496063
                    },
                    {
                        "duration": 0.125,
                        "durationTicks": 24,
                        "midi": 65,
                        "name": "F4",
                        "ticks": 23568,
                        "time": 122.75,
                        "velocity": 0.4015748031496063
                    },
                    {
                        "duration": 0.25,
                        "durationTicks": 48,
                        "midi": 43,
                        "name": "G2",
                        "ticks": 23616,
                        "time": 123,
                        "velocity": 0.4015748031496063
                    },
                    {
                        "duration": 0.125,
                        "durationTicks": 24,
                        "midi": 67,
                        "name": "G4",
                        "ticks": 23664,
                        "time": 123.25,
                        "velocity": 0.4015748031496063
                    },
                    {
                        "duration": 0.125,
                        "durationTicks": 24,
                        "midi": 62,
                        "name": "D4",
                        "ticks": 23664,
                        "time": 123.25,
                        "velocity": 0.4015748031496063
                    },
                    {
                        "duration": 0.125,
                        "durationTicks": 24,
                        "midi": 58,
                        "name": "A#3",
                        "ticks": 23664,
                        "time": 123.25,
                        "velocity": 0.4015748031496063
                    },
                    {
                        "duration": 0.25,
                        "durationTicks": 48,
                        "midi": 50,
                        "name": "D3",
                        "ticks": 23712,
                        "time": 123.5,
                        "velocity": 0.4015748031496063
                    },
                    {
                        "duration": 0.125,
                        "durationTicks": 24,
                        "midi": 58,
                        "name": "A#3",
                        "ticks": 23760,
                        "time": 123.75,
                        "velocity": 0.4015748031496063
                    },
                    {
                        "duration": 0.125,
                        "durationTicks": 24,
                        "midi": 67,
                        "name": "G4",
                        "ticks": 23760,
                        "time": 123.75,
                        "velocity": 0.4015748031496063
                    },
                    {
                        "duration": 0.125,
                        "durationTicks": 24,
                        "midi": 62,
                        "name": "D4",
                        "ticks": 23760,
                        "time": 123.75,
                        "velocity": 0.4015748031496063
                    },
                    {
                        "duration": 0.25,
                        "durationTicks": 48,
                        "midi": 39,
                        "name": "D#2",
                        "ticks": 23808,
                        "time": 124,
                        "velocity": 0.4015748031496063
                    },
                    {
                        "duration": 0.125,
                        "durationTicks": 24,
                        "midi": 55,
                        "name": "G3",
                        "ticks": 23856,
                        "time": 124.25,
                        "velocity": 0.4015748031496063
                    },
                    {
                        "duration": 0.125,
                        "durationTicks": 24,
                        "midi": 58,
                        "name": "A#3",
                        "ticks": 23856,
                        "time": 124.25,
                        "velocity": 0.4015748031496063
                    },
                    {
                        "duration": 0.125,
                        "durationTicks": 24,
                        "midi": 63,
                        "name": "D#4",
                        "ticks": 23856,
                        "time": 124.25,
                        "velocity": 0.4015748031496063
                    },
                    {
                        "duration": 0.25,
                        "durationTicks": 48,
                        "midi": 46,
                        "name": "A#2",
                        "ticks": 23904,
                        "time": 124.5,
                        "velocity": 0.4015748031496063
                    },
                    {
                        "duration": 0.125,
                        "durationTicks": 24,
                        "midi": 55,
                        "name": "G3",
                        "ticks": 23952,
                        "time": 124.75,
                        "velocity": 0.4015748031496063
                    },
                    {
                        "duration": 0.125,
                        "durationTicks": 24,
                        "midi": 58,
                        "name": "A#3",
                        "ticks": 23952,
                        "time": 124.75,
                        "velocity": 0.4015748031496063
                    },
                    {
                        "duration": 0.125,
                        "durationTicks": 24,
                        "midi": 63,
                        "name": "D#4",
                        "ticks": 23952,
                        "time": 124.75,
                        "velocity": 0.4015748031496063
                    },
                    {
                        "duration": 0.25,
                        "durationTicks": 48,
                        "midi": 34,
                        "name": "A#1",
                        "ticks": 24000,
                        "time": 125,
                        "velocity": 0.4015748031496063
                    },
                    {
                        "duration": 0.125,
                        "durationTicks": 24,
                        "midi": 62,
                        "name": "D4",
                        "ticks": 24048,
                        "time": 125.25,
                        "velocity": 0.4015748031496063
                    },
                    {
                        "duration": 0.125,
                        "durationTicks": 24,
                        "midi": 53,
                        "name": "F3",
                        "ticks": 24048,
                        "time": 125.25,
                        "velocity": 0.4015748031496063
                    },
                    {
                        "duration": 0.125,
                        "durationTicks": 24,
                        "midi": 58,
                        "name": "A#3",
                        "ticks": 24048,
                        "time": 125.25,
                        "velocity": 0.4015748031496063
                    },
                    {
                        "duration": 0.25,
                        "durationTicks": 48,
                        "midi": 41,
                        "name": "F2",
                        "ticks": 24096,
                        "time": 125.5,
                        "velocity": 0.4015748031496063
                    },
                    {
                        "duration": 0.125,
                        "durationTicks": 24,
                        "midi": 62,
                        "name": "D4",
                        "ticks": 24144,
                        "time": 125.75,
                        "velocity": 0.4015748031496063
                    },
                    {
                        "duration": 0.125,
                        "durationTicks": 24,
                        "midi": 53,
                        "name": "F3",
                        "ticks": 24144,
                        "time": 125.75,
                        "velocity": 0.4015748031496063
                    },
                    {
                        "duration": 0.125,
                        "durationTicks": 24,
                        "midi": 58,
                        "name": "A#3",
                        "ticks": 24144,
                        "time": 125.75,
                        "velocity": 0.4015748031496063
                    },
                    {
                        "duration": 0.25,
                        "durationTicks": 48,
                        "midi": 41,
                        "name": "F2",
                        "ticks": 24192,
                        "time": 126,
                        "velocity": 0.4015748031496063
                    },
                    {
                        "duration": 0.125,
                        "durationTicks": 24,
                        "midi": 57,
                        "name": "A3",
                        "ticks": 24240,
                        "time": 126.25,
                        "velocity": 0.4015748031496063
                    },
                    {
                        "duration": 0.125,
                        "durationTicks": 24,
                        "midi": 60,
                        "name": "C4",
                        "ticks": 24240,
                        "time": 126.25,
                        "velocity": 0.4015748031496063
                    },
                    {
                        "duration": 0.125,
                        "durationTicks": 24,
                        "midi": 65,
                        "name": "F4",
                        "ticks": 24240,
                        "time": 126.25,
                        "velocity": 0.4015748031496063
                    },
                    {
                        "duration": 0.25,
                        "durationTicks": 48,
                        "midi": 48,
                        "name": "C3",
                        "ticks": 24288,
                        "time": 126.5,
                        "velocity": 0.4015748031496063
                    },
                    {
                        "duration": 0.125,
                        "durationTicks": 24,
                        "midi": 57,
                        "name": "A3",
                        "ticks": 24336,
                        "time": 126.75,
                        "velocity": 0.4015748031496063
                    },
                    {
                        "duration": 0.125,
                        "durationTicks": 24,
                        "midi": 60,
                        "name": "C4",
                        "ticks": 24336,
                        "time": 126.75,
                        "velocity": 0.4015748031496063
                    },
                    {
                        "duration": 0.125,
                        "durationTicks": 24,
                        "midi": 65,
                        "name": "F4",
                        "ticks": 24336,
                        "time": 126.75,
                        "velocity": 0.4015748031496063
                    },
                    {
                        "duration": 0.25,
                        "durationTicks": 48,
                        "midi": 43,
                        "name": "G2",
                        "ticks": 24384,
                        "time": 127,
                        "velocity": 0.4015748031496063
                    },
                    {
                        "duration": 0.125,
                        "durationTicks": 24,
                        "midi": 58,
                        "name": "A#3",
                        "ticks": 24432,
                        "time": 127.25,
                        "velocity": 0.4015748031496063
                    },
                    {
                        "duration": 0.125,
                        "durationTicks": 24,
                        "midi": 62,
                        "name": "D4",
                        "ticks": 24432,
                        "time": 127.25,
                        "velocity": 0.4015748031496063
                    },
                    {
                        "duration": 0.125,
                        "durationTicks": 24,
                        "midi": 67,
                        "name": "G4",
                        "ticks": 24432,
                        "time": 127.25,
                        "velocity": 0.4015748031496063
                    },
                    {
                        "duration": 0.25,
                        "durationTicks": 48,
                        "midi": 50,
                        "name": "D3",
                        "ticks": 24480,
                        "time": 127.5,
                        "velocity": 0.4015748031496063
                    },
                    {
                        "duration": 0.125,
                        "durationTicks": 24,
                        "midi": 58,
                        "name": "A#3",
                        "ticks": 24528,
                        "time": 127.75,
                        "velocity": 0.4015748031496063
                    },
                    {
                        "duration": 0.125,
                        "durationTicks": 24,
                        "midi": 67,
                        "name": "G4",
                        "ticks": 24528,
                        "time": 127.75,
                        "velocity": 0.4015748031496063
                    },
                    {
                        "duration": 0.125,
                        "durationTicks": 24,
                        "midi": 62,
                        "name": "D4",
                        "ticks": 24528,
                        "time": 127.75,
                        "velocity": 0.4015748031496063
                    },
                    {
                        "duration": 0.25,
                        "durationTicks": 48,
                        "midi": 39,
                        "name": "D#2",
                        "ticks": 24576,
                        "time": 128,
                        "velocity": 0.4015748031496063
                    },
                    {
                        "duration": 0.125,
                        "durationTicks": 24,
                        "midi": 63,
                        "name": "D#4",
                        "ticks": 24624,
                        "time": 128.25,
                        "velocity": 0.4015748031496063
                    },
                    {
                        "duration": 0.125,
                        "durationTicks": 24,
                        "midi": 58,
                        "name": "A#3",
                        "ticks": 24624,
                        "time": 128.25,
                        "velocity": 0.4015748031496063
                    },
                    {
                        "duration": 0.125,
                        "durationTicks": 24,
                        "midi": 55,
                        "name": "G3",
                        "ticks": 24624,
                        "time": 128.25,
                        "velocity": 0.4015748031496063
                    },
                    {
                        "duration": 0.25,
                        "durationTicks": 48,
                        "midi": 46,
                        "name": "A#2",
                        "ticks": 24672,
                        "time": 128.5,
                        "velocity": 0.4015748031496063
                    },
                    {
                        "duration": 0.125,
                        "durationTicks": 24,
                        "midi": 63,
                        "name": "D#4",
                        "ticks": 24720,
                        "time": 128.75,
                        "velocity": 0.4015748031496063
                    },
                    {
                        "duration": 0.125,
                        "durationTicks": 24,
                        "midi": 58,
                        "name": "A#3",
                        "ticks": 24720,
                        "time": 128.75,
                        "velocity": 0.4015748031496063
                    },
                    {
                        "duration": 0.125,
                        "durationTicks": 24,
                        "midi": 55,
                        "name": "G3",
                        "ticks": 24720,
                        "time": 128.75,
                        "velocity": 0.4015748031496063
                    },
                    {
                        "duration": 0.25,
                        "durationTicks": 48,
                        "midi": 34,
                        "name": "A#1",
                        "ticks": 24768,
                        "time": 129,
                        "velocity": 0.4015748031496063
                    },
                    {
                        "duration": 0.125,
                        "durationTicks": 24,
                        "midi": 62,
                        "name": "D4",
                        "ticks": 24816,
                        "time": 129.25,
                        "velocity": 0.4015748031496063
                    },
                    {
                        "duration": 0.125,
                        "durationTicks": 24,
                        "midi": 53,
                        "name": "F3",
                        "ticks": 24816,
                        "time": 129.25,
                        "velocity": 0.4015748031496063
                    },
                    {
                        "duration": 0.125,
                        "durationTicks": 24,
                        "midi": 58,
                        "name": "A#3",
                        "ticks": 24816,
                        "time": 129.25,
                        "velocity": 0.4015748031496063
                    },
                    {
                        "duration": 0.25,
                        "durationTicks": 48,
                        "midi": 41,
                        "name": "F2",
                        "ticks": 24864,
                        "time": 129.5,
                        "velocity": 0.4015748031496063
                    },
                    {
                        "duration": 0.125,
                        "durationTicks": 24,
                        "midi": 58,
                        "name": "A#3",
                        "ticks": 24912,
                        "time": 129.75,
                        "velocity": 0.4015748031496063
                    },
                    {
                        "duration": 0.125,
                        "durationTicks": 24,
                        "midi": 53,
                        "name": "F3",
                        "ticks": 24912,
                        "time": 129.75,
                        "velocity": 0.4015748031496063
                    },
                    {
                        "duration": 0.125,
                        "durationTicks": 24,
                        "midi": 62,
                        "name": "D4",
                        "ticks": 24912,
                        "time": 129.75,
                        "velocity": 0.4015748031496063
                    },
                    {
                        "duration": 0.25,
                        "durationTicks": 48,
                        "midi": 41,
                        "name": "F2",
                        "ticks": 24960,
                        "time": 130,
                        "velocity": 0.4015748031496063
                    },
                    {
                        "duration": 0.125,
                        "durationTicks": 24,
                        "midi": 57,
                        "name": "A3",
                        "ticks": 25008,
                        "time": 130.25,
                        "velocity": 0.4015748031496063
                    },
                    {
                        "duration": 0.125,
                        "durationTicks": 24,
                        "midi": 60,
                        "name": "C4",
                        "ticks": 25008,
                        "time": 130.25,
                        "velocity": 0.4015748031496063
                    },
                    {
                        "duration": 0.125,
                        "durationTicks": 24,
                        "midi": 65,
                        "name": "F4",
                        "ticks": 25008,
                        "time": 130.25,
                        "velocity": 0.4015748031496063
                    },
                    {
                        "duration": 0.25,
                        "durationTicks": 48,
                        "midi": 48,
                        "name": "C3",
                        "ticks": 25056,
                        "time": 130.5,
                        "velocity": 0.4015748031496063
                    },
                    {
                        "duration": 0.125,
                        "durationTicks": 24,
                        "midi": 57,
                        "name": "A3",
                        "ticks": 25104,
                        "time": 130.75,
                        "velocity": 0.4015748031496063
                    },
                    {
                        "duration": 0.125,
                        "durationTicks": 24,
                        "midi": 60,
                        "name": "C4",
                        "ticks": 25104,
                        "time": 130.75,
                        "velocity": 0.4015748031496063
                    },
                    {
                        "duration": 0.125,
                        "durationTicks": 24,
                        "midi": 65,
                        "name": "F4",
                        "ticks": 25104,
                        "time": 130.75,
                        "velocity": 0.4015748031496063
                    },
                    {
                        "duration": 0.25,
                        "durationTicks": 48,
                        "midi": 43,
                        "name": "G2",
                        "ticks": 25152,
                        "time": 131,
                        "velocity": 0.4015748031496063
                    },
                    {
                        "duration": 0.125,
                        "durationTicks": 24,
                        "midi": 58,
                        "name": "A#3",
                        "ticks": 25200,
                        "time": 131.25,
                        "velocity": 0.4015748031496063
                    },
                    {
                        "duration": 0.125,
                        "durationTicks": 24,
                        "midi": 62,
                        "name": "D4",
                        "ticks": 25200,
                        "time": 131.25,
                        "velocity": 0.4015748031496063
                    },
                    {
                        "duration": 0.125,
                        "durationTicks": 24,
                        "midi": 67,
                        "name": "G4",
                        "ticks": 25200,
                        "time": 131.25,
                        "velocity": 0.4015748031496063
                    },
                    {
                        "duration": 0.25,
                        "durationTicks": 48,
                        "midi": 50,
                        "name": "D3",
                        "ticks": 25248,
                        "time": 131.5,
                        "velocity": 0.4015748031496063
                    },
                    {
                        "duration": 0.125,
                        "durationTicks": 24,
                        "midi": 58,
                        "name": "A#3",
                        "ticks": 25296,
                        "time": 131.75,
                        "velocity": 0.4015748031496063
                    },
                    {
                        "duration": 0.125,
                        "durationTicks": 24,
                        "midi": 67,
                        "name": "G4",
                        "ticks": 25296,
                        "time": 131.75,
                        "velocity": 0.4015748031496063
                    },
                    {
                        "duration": 0.125,
                        "durationTicks": 24,
                        "midi": 62,
                        "name": "D4",
                        "ticks": 25296,
                        "time": 131.75,
                        "velocity": 0.4015748031496063
                    },
                    {
                        "duration": 0.25,
                        "durationTicks": 48,
                        "midi": 39,
                        "name": "D#2",
                        "ticks": 25344,
                        "time": 132,
                        "velocity": 0.4015748031496063
                    },
                    {
                        "duration": 0.125,
                        "durationTicks": 24,
                        "midi": 55,
                        "name": "G3",
                        "ticks": 25392,
                        "time": 132.25,
                        "velocity": 0.4015748031496063
                    },
                    {
                        "duration": 0.125,
                        "durationTicks": 24,
                        "midi": 58,
                        "name": "A#3",
                        "ticks": 25392,
                        "time": 132.25,
                        "velocity": 0.4015748031496063
                    },
                    {
                        "duration": 0.125,
                        "durationTicks": 24,
                        "midi": 63,
                        "name": "D#4",
                        "ticks": 25392,
                        "time": 132.25,
                        "velocity": 0.4015748031496063
                    },
                    {
                        "duration": 0.25,
                        "durationTicks": 48,
                        "midi": 46,
                        "name": "A#2",
                        "ticks": 25440,
                        "time": 132.5,
                        "velocity": 0.4015748031496063
                    },
                    {
                        "duration": 0.125,
                        "durationTicks": 24,
                        "midi": 55,
                        "name": "G3",
                        "ticks": 25488,
                        "time": 132.75,
                        "velocity": 0.4015748031496063
                    },
                    {
                        "duration": 0.125,
                        "durationTicks": 24,
                        "midi": 58,
                        "name": "A#3",
                        "ticks": 25488,
                        "time": 132.75,
                        "velocity": 0.4015748031496063
                    },
                    {
                        "duration": 0.125,
                        "durationTicks": 24,
                        "midi": 63,
                        "name": "D#4",
                        "ticks": 25488,
                        "time": 132.75,
                        "velocity": 0.4015748031496063
                    },
                    {
                        "duration": 0.25,
                        "durationTicks": 48,
                        "midi": 34,
                        "name": "A#1",
                        "ticks": 25536,
                        "time": 133,
                        "velocity": 0.4015748031496063
                    },
                    {
                        "duration": 0.125,
                        "durationTicks": 24,
                        "midi": 58,
                        "name": "A#3",
                        "ticks": 25584,
                        "time": 133.25,
                        "velocity": 0.4015748031496063
                    },
                    {
                        "duration": 0.125,
                        "durationTicks": 24,
                        "midi": 53,
                        "name": "F3",
                        "ticks": 25584,
                        "time": 133.25,
                        "velocity": 0.4015748031496063
                    },
                    {
                        "duration": 0.125,
                        "durationTicks": 24,
                        "midi": 62,
                        "name": "D4",
                        "ticks": 25584,
                        "time": 133.25,
                        "velocity": 0.4015748031496063
                    },
                    {
                        "duration": 0.25,
                        "durationTicks": 48,
                        "midi": 41,
                        "name": "F2",
                        "ticks": 25632,
                        "time": 133.5,
                        "velocity": 0.4015748031496063
                    },
                    {
                        "duration": 0.125,
                        "durationTicks": 24,
                        "midi": 62,
                        "name": "D4",
                        "ticks": 25680,
                        "time": 133.75,
                        "velocity": 0.4015748031496063
                    },
                    {
                        "duration": 0.125,
                        "durationTicks": 24,
                        "midi": 53,
                        "name": "F3",
                        "ticks": 25680,
                        "time": 133.75,
                        "velocity": 0.4015748031496063
                    },
                    {
                        "duration": 0.125,
                        "durationTicks": 24,
                        "midi": 58,
                        "name": "A#3",
                        "ticks": 25680,
                        "time": 133.75,
                        "velocity": 0.4015748031496063
                    },
                    {
                        "duration": 0.25,
                        "durationTicks": 48,
                        "midi": 41,
                        "name": "F2",
                        "ticks": 25728,
                        "time": 134,
                        "velocity": 0.4015748031496063
                    },
                    {
                        "duration": 0.125,
                        "durationTicks": 24,
                        "midi": 57,
                        "name": "A3",
                        "ticks": 25776,
                        "time": 134.25,
                        "velocity": 0.4015748031496063
                    },
                    {
                        "duration": 0.125,
                        "durationTicks": 24,
                        "midi": 60,
                        "name": "C4",
                        "ticks": 25776,
                        "time": 134.25,
                        "velocity": 0.4015748031496063
                    },
                    {
                        "duration": 0.125,
                        "durationTicks": 24,
                        "midi": 65,
                        "name": "F4",
                        "ticks": 25776,
                        "time": 134.25,
                        "velocity": 0.4015748031496063
                    },
                    {
                        "duration": 0.25,
                        "durationTicks": 48,
                        "midi": 48,
                        "name": "C3",
                        "ticks": 25824,
                        "time": 134.5,
                        "velocity": 0.4015748031496063
                    },
                    {
                        "duration": 0.125,
                        "durationTicks": 24,
                        "midi": 57,
                        "name": "A3",
                        "ticks": 25872,
                        "time": 134.75,
                        "velocity": 0.4015748031496063
                    },
                    {
                        "duration": 0.125,
                        "durationTicks": 24,
                        "midi": 60,
                        "name": "C4",
                        "ticks": 25872,
                        "time": 134.75,
                        "velocity": 0.4015748031496063
                    },
                    {
                        "duration": 0.125,
                        "durationTicks": 24,
                        "midi": 65,
                        "name": "F4",
                        "ticks": 25872,
                        "time": 134.75,
                        "velocity": 0.4015748031496063
                    },
                    {
                        "duration": 0.25,
                        "durationTicks": 48,
                        "midi": 43,
                        "name": "G2",
                        "ticks": 25920,
                        "time": 135,
                        "velocity": 0.4015748031496063
                    },
                    {
                        "duration": 0.125,
                        "durationTicks": 24,
                        "midi": 67,
                        "name": "G4",
                        "ticks": 25968,
                        "time": 135.25,
                        "velocity": 0.4015748031496063
                    },
                    {
                        "duration": 0.125,
                        "durationTicks": 24,
                        "midi": 62,
                        "name": "D4",
                        "ticks": 25968,
                        "time": 135.25,
                        "velocity": 0.4015748031496063
                    },
                    {
                        "duration": 0.125,
                        "durationTicks": 24,
                        "midi": 58,
                        "name": "A#3",
                        "ticks": 25968,
                        "time": 135.25,
                        "velocity": 0.4015748031496063
                    },
                    {
                        "duration": 0.25,
                        "durationTicks": 48,
                        "midi": 50,
                        "name": "D3",
                        "ticks": 26016,
                        "time": 135.5,
                        "velocity": 0.4015748031496063
                    },
                    {
                        "duration": 0.125,
                        "durationTicks": 24,
                        "midi": 62,
                        "name": "D4",
                        "ticks": 26064,
                        "time": 135.75,
                        "velocity": 0.4015748031496063
                    },
                    {
                        "duration": 0.125,
                        "durationTicks": 24,
                        "midi": 67,
                        "name": "G4",
                        "ticks": 26064,
                        "time": 135.75,
                        "velocity": 0.4015748031496063
                    },
                    {
                        "duration": 0.125,
                        "durationTicks": 24,
                        "midi": 58,
                        "name": "A#3",
                        "ticks": 26064,
                        "time": 135.75,
                        "velocity": 0.4015748031496063
                    },
                    {
                        "duration": 0.25,
                        "durationTicks": 48,
                        "midi": 39,
                        "name": "D#2",
                        "ticks": 26112,
                        "time": 136,
                        "velocity": 0.4015748031496063
                    },
                    {
                        "duration": 0.125,
                        "durationTicks": 24,
                        "midi": 63,
                        "name": "D#4",
                        "ticks": 26160,
                        "time": 136.25,
                        "velocity": 0.4015748031496063
                    },
                    {
                        "duration": 0.125,
                        "durationTicks": 24,
                        "midi": 58,
                        "name": "A#3",
                        "ticks": 26160,
                        "time": 136.25,
                        "velocity": 0.4015748031496063
                    },
                    {
                        "duration": 0.125,
                        "durationTicks": 24,
                        "midi": 55,
                        "name": "G3",
                        "ticks": 26160,
                        "time": 136.25,
                        "velocity": 0.4015748031496063
                    },
                    {
                        "duration": 0.25,
                        "durationTicks": 48,
                        "midi": 46,
                        "name": "A#2",
                        "ticks": 26208,
                        "time": 136.5,
                        "velocity": 0.4015748031496063
                    },
                    {
                        "duration": 0.125,
                        "durationTicks": 24,
                        "midi": 55,
                        "name": "G3",
                        "ticks": 26256,
                        "time": 136.75,
                        "velocity": 0.4015748031496063
                    },
                    {
                        "duration": 0.125,
                        "durationTicks": 24,
                        "midi": 58,
                        "name": "A#3",
                        "ticks": 26256,
                        "time": 136.75,
                        "velocity": 0.4015748031496063
                    },
                    {
                        "duration": 0.125,
                        "durationTicks": 24,
                        "midi": 63,
                        "name": "D#4",
                        "ticks": 26256,
                        "time": 136.75,
                        "velocity": 0.4015748031496063
                    },
                    {
                        "duration": 0.25,
                        "durationTicks": 48,
                        "midi": 34,
                        "name": "A#1",
                        "ticks": 26304,
                        "time": 137,
                        "velocity": 0.4015748031496063
                    },
                    {
                        "duration": 0.125,
                        "durationTicks": 24,
                        "midi": 58,
                        "name": "A#3",
                        "ticks": 26352,
                        "time": 137.25,
                        "velocity": 0.4015748031496063
                    },
                    {
                        "duration": 0.125,
                        "durationTicks": 24,
                        "midi": 53,
                        "name": "F3",
                        "ticks": 26352,
                        "time": 137.25,
                        "velocity": 0.4015748031496063
                    },
                    {
                        "duration": 0.125,
                        "durationTicks": 24,
                        "midi": 62,
                        "name": "D4",
                        "ticks": 26352,
                        "time": 137.25,
                        "velocity": 0.4015748031496063
                    },
                    {
                        "duration": 0.25,
                        "durationTicks": 48,
                        "midi": 41,
                        "name": "F2",
                        "ticks": 26400,
                        "time": 137.5,
                        "velocity": 0.4015748031496063
                    },
                    {
                        "duration": 0.125,
                        "durationTicks": 24,
                        "midi": 62,
                        "name": "D4",
                        "ticks": 26448,
                        "time": 137.75,
                        "velocity": 0.4015748031496063
                    },
                    {
                        "duration": 0.125,
                        "durationTicks": 24,
                        "midi": 53,
                        "name": "F3",
                        "ticks": 26448,
                        "time": 137.75,
                        "velocity": 0.4015748031496063
                    },
                    {
                        "duration": 0.125,
                        "durationTicks": 24,
                        "midi": 58,
                        "name": "A#3",
                        "ticks": 26448,
                        "time": 137.75,
                        "velocity": 0.4015748031496063
                    },
                    {
                        "duration": 0.25,
                        "durationTicks": 48,
                        "midi": 41,
                        "name": "F2",
                        "ticks": 26496,
                        "time": 138,
                        "velocity": 0.4015748031496063
                    },
                    {
                        "duration": 0.125,
                        "durationTicks": 24,
                        "midi": 65,
                        "name": "F4",
                        "ticks": 26544,
                        "time": 138.25,
                        "velocity": 0.4015748031496063
                    },
                    {
                        "duration": 0.125,
                        "durationTicks": 24,
                        "midi": 60,
                        "name": "C4",
                        "ticks": 26544,
                        "time": 138.25,
                        "velocity": 0.4015748031496063
                    },
                    {
                        "duration": 0.125,
                        "durationTicks": 24,
                        "midi": 57,
                        "name": "A3",
                        "ticks": 26544,
                        "time": 138.25,
                        "velocity": 0.4015748031496063
                    },
                    {
                        "duration": 0.25,
                        "durationTicks": 48,
                        "midi": 48,
                        "name": "C3",
                        "ticks": 26592,
                        "time": 138.5,
                        "velocity": 0.4015748031496063
                    },
                    {
                        "duration": 0.125,
                        "durationTicks": 24,
                        "midi": 57,
                        "name": "A3",
                        "ticks": 26640,
                        "time": 138.75,
                        "velocity": 0.4015748031496063
                    },
                    {
                        "duration": 0.125,
                        "durationTicks": 24,
                        "midi": 60,
                        "name": "C4",
                        "ticks": 26640,
                        "time": 138.75,
                        "velocity": 0.4015748031496063
                    },
                    {
                        "duration": 0.125,
                        "durationTicks": 24,
                        "midi": 65,
                        "name": "F4",
                        "ticks": 26640,
                        "time": 138.75,
                        "velocity": 0.4015748031496063
                    },
                    {
                        "duration": 0.25,
                        "durationTicks": 48,
                        "midi": 43,
                        "name": "G2",
                        "ticks": 26688,
                        "time": 139,
                        "velocity": 0.4015748031496063
                    },
                    {
                        "duration": 0.125,
                        "durationTicks": 24,
                        "midi": 67,
                        "name": "G4",
                        "ticks": 26736,
                        "time": 139.25,
                        "velocity": 0.4015748031496063
                    },
                    {
                        "duration": 0.125,
                        "durationTicks": 24,
                        "midi": 62,
                        "name": "D4",
                        "ticks": 26736,
                        "time": 139.25,
                        "velocity": 0.4015748031496063
                    },
                    {
                        "duration": 0.125,
                        "durationTicks": 24,
                        "midi": 58,
                        "name": "A#3",
                        "ticks": 26736,
                        "time": 139.25,
                        "velocity": 0.4015748031496063
                    },
                    {
                        "duration": 0.25,
                        "durationTicks": 48,
                        "midi": 50,
                        "name": "D3",
                        "ticks": 26784,
                        "time": 139.5,
                        "velocity": 0.4015748031496063
                    },
                    {
                        "duration": 0.125,
                        "durationTicks": 24,
                        "midi": 58,
                        "name": "A#3",
                        "ticks": 26832,
                        "time": 139.75,
                        "velocity": 0.4015748031496063
                    },
                    {
                        "duration": 0.125,
                        "durationTicks": 24,
                        "midi": 67,
                        "name": "G4",
                        "ticks": 26832,
                        "time": 139.75,
                        "velocity": 0.4015748031496063
                    },
                    {
                        "duration": 0.125,
                        "durationTicks": 24,
                        "midi": 62,
                        "name": "D4",
                        "ticks": 26832,
                        "time": 139.75,
                        "velocity": 0.4015748031496063
                    },
                    {
                        "duration": 0.25,
                        "durationTicks": 48,
                        "midi": 39,
                        "name": "D#2",
                        "ticks": 26880,
                        "time": 140,
                        "velocity": 0.4015748031496063
                    },
                    {
                        "duration": 0.125,
                        "durationTicks": 24,
                        "midi": 63,
                        "name": "D#4",
                        "ticks": 26928,
                        "time": 140.25,
                        "velocity": 0.4015748031496063
                    },
                    {
                        "duration": 0.125,
                        "durationTicks": 24,
                        "midi": 58,
                        "name": "A#3",
                        "ticks": 26928,
                        "time": 140.25,
                        "velocity": 0.4015748031496063
                    },
                    {
                        "duration": 0.125,
                        "durationTicks": 24,
                        "midi": 55,
                        "name": "G3",
                        "ticks": 26928,
                        "time": 140.25,
                        "velocity": 0.4015748031496063
                    },
                    {
                        "duration": 0.25,
                        "durationTicks": 48,
                        "midi": 46,
                        "name": "A#2",
                        "ticks": 26976,
                        "time": 140.5,
                        "velocity": 0.4015748031496063
                    },
                    {
                        "duration": 0.125,
                        "durationTicks": 24,
                        "midi": 55,
                        "name": "G3",
                        "ticks": 27024,
                        "time": 140.75,
                        "velocity": 0.4015748031496063
                    },
                    {
                        "duration": 0.125,
                        "durationTicks": 24,
                        "midi": 58,
                        "name": "A#3",
                        "ticks": 27024,
                        "time": 140.75,
                        "velocity": 0.4015748031496063
                    },
                    {
                        "duration": 0.125,
                        "durationTicks": 24,
                        "midi": 63,
                        "name": "D#4",
                        "ticks": 27024,
                        "time": 140.75,
                        "velocity": 0.4015748031496063
                    },
                    {
                        "duration": 0.25,
                        "durationTicks": 48,
                        "midi": 34,
                        "name": "A#1",
                        "ticks": 27072,
                        "time": 141,
                        "velocity": 0.4015748031496063
                    },
                    {
                        "duration": 0.125,
                        "durationTicks": 24,
                        "midi": 58,
                        "name": "A#3",
                        "ticks": 27120,
                        "time": 141.25,
                        "velocity": 0.4015748031496063
                    },
                    {
                        "duration": 0.125,
                        "durationTicks": 24,
                        "midi": 53,
                        "name": "F3",
                        "ticks": 27120,
                        "time": 141.25,
                        "velocity": 0.4015748031496063
                    },
                    {
                        "duration": 0.125,
                        "durationTicks": 24,
                        "midi": 62,
                        "name": "D4",
                        "ticks": 27120,
                        "time": 141.25,
                        "velocity": 0.4015748031496063
                    },
                    {
                        "duration": 0.25,
                        "durationTicks": 48,
                        "midi": 41,
                        "name": "F2",
                        "ticks": 27168,
                        "time": 141.5,
                        "velocity": 0.4015748031496063
                    },
                    {
                        "duration": 0.125,
                        "durationTicks": 24,
                        "midi": 58,
                        "name": "A#3",
                        "ticks": 27216,
                        "time": 141.75,
                        "velocity": 0.4015748031496063
                    },
                    {
                        "duration": 0.125,
                        "durationTicks": 24,
                        "midi": 53,
                        "name": "F3",
                        "ticks": 27216,
                        "time": 141.75,
                        "velocity": 0.4015748031496063
                    },
                    {
                        "duration": 0.125,
                        "durationTicks": 24,
                        "midi": 62,
                        "name": "D4",
                        "ticks": 27216,
                        "time": 141.75,
                        "velocity": 0.4015748031496063
                    },
                    {
                        "duration": 0.25,
                        "durationTicks": 48,
                        "midi": 41,
                        "name": "F2",
                        "ticks": 27264,
                        "time": 142,
                        "velocity": 0.4015748031496063
                    },
                    {
                        "duration": 0.125,
                        "durationTicks": 24,
                        "midi": 65,
                        "name": "F4",
                        "ticks": 27312,
                        "time": 142.25,
                        "velocity": 0.4015748031496063
                    },
                    {
                        "duration": 0.125,
                        "durationTicks": 24,
                        "midi": 60,
                        "name": "C4",
                        "ticks": 27312,
                        "time": 142.25,
                        "velocity": 0.4015748031496063
                    },
                    {
                        "duration": 0.125,
                        "durationTicks": 24,
                        "midi": 57,
                        "name": "A3",
                        "ticks": 27312,
                        "time": 142.25,
                        "velocity": 0.4015748031496063
                    },
                    {
                        "duration": 0.25,
                        "durationTicks": 48,
                        "midi": 48,
                        "name": "C3",
                        "ticks": 27360,
                        "time": 142.5,
                        "velocity": 0.4015748031496063
                    },
                    {
                        "duration": 0.125,
                        "durationTicks": 24,
                        "midi": 57,
                        "name": "A3",
                        "ticks": 27408,
                        "time": 142.75,
                        "velocity": 0.4015748031496063
                    },
                    {
                        "duration": 0.125,
                        "durationTicks": 24,
                        "midi": 60,
                        "name": "C4",
                        "ticks": 27408,
                        "time": 142.75,
                        "velocity": 0.4015748031496063
                    },
                    {
                        "duration": 0.125,
                        "durationTicks": 24,
                        "midi": 65,
                        "name": "F4",
                        "ticks": 27408,
                        "time": 142.75,
                        "velocity": 0.4015748031496063
                    },
                    {
                        "duration": 0.25,
                        "durationTicks": 48,
                        "midi": 31,
                        "name": "G1",
                        "ticks": 27456,
                        "time": 143,
                        "velocity": 0.4015748031496063
                    },
                    {
                        "duration": 0.25,
                        "durationTicks": 48,
                        "midi": 43,
                        "name": "G2",
                        "ticks": 27456,
                        "time": 143,
                        "velocity": 0.4015748031496063
                    },
                    {
                        "duration": 0.125,
                        "durationTicks": 24,
                        "midi": 58,
                        "name": "A#3",
                        "ticks": 27504,
                        "time": 143.25,
                        "velocity": 0.4015748031496063
                    },
                    {
                        "duration": 0.125,
                        "durationTicks": 24,
                        "midi": 62,
                        "name": "D4",
                        "ticks": 27504,
                        "time": 143.25,
                        "velocity": 0.4015748031496063
                    },
                    {
                        "duration": 0.125,
                        "durationTicks": 24,
                        "midi": 67,
                        "name": "G4",
                        "ticks": 27504,
                        "time": 143.25,
                        "velocity": 0.4015748031496063
                    },
                    {
                        "duration": 0.25,
                        "durationTicks": 48,
                        "midi": 31,
                        "name": "G1",
                        "ticks": 27648,
                        "time": 144,
                        "velocity": 0.48031496062992124
                    },
                    {
                        "duration": 0.25,
                        "durationTicks": 48,
                        "midi": 43,
                        "name": "G2",
                        "ticks": 27648,
                        "time": 144,
                        "velocity": 0.48031496062992124
                    },
                    {
                        "duration": 0.25,
                        "durationTicks": 48,
                        "midi": 58,
                        "name": "A#3",
                        "ticks": 27744,
                        "time": 144.5,
                        "velocity": 0.48031496062992124
                    },
                    {
                        "duration": 0.25,
                        "durationTicks": 48,
                        "midi": 62,
                        "name": "D4",
                        "ticks": 27744,
                        "time": 144.5,
                        "velocity": 0.48031496062992124
                    },
                    {
                        "duration": 0.25,
                        "durationTicks": 48,
                        "midi": 67,
                        "name": "G4",
                        "ticks": 27744,
                        "time": 144.5,
                        "velocity": 0.48031496062992124
                    },
                    {
                        "duration": 0.25,
                        "durationTicks": 48,
                        "midi": 43,
                        "name": "G2",
                        "ticks": 27840,
                        "time": 145,
                        "velocity": 0.48031496062992124
                    },
                    {
                        "duration": 0.25,
                        "durationTicks": 48,
                        "midi": 31,
                        "name": "G1",
                        "ticks": 27840,
                        "time": 145,
                        "velocity": 0.48031496062992124
                    },
                    {
                        "duration": 0.25,
                        "durationTicks": 48,
                        "midi": 67,
                        "name": "G4",
                        "ticks": 27936,
                        "time": 145.5,
                        "velocity": 0.48031496062992124
                    },
                    {
                        "duration": 0.25,
                        "durationTicks": 48,
                        "midi": 62,
                        "name": "D4",
                        "ticks": 27936,
                        "time": 145.5,
                        "velocity": 0.48031496062992124
                    },
                    {
                        "duration": 0.25,
                        "durationTicks": 48,
                        "midi": 58,
                        "name": "A#3",
                        "ticks": 27936,
                        "time": 145.5,
                        "velocity": 0.48031496062992124
                    },
                    {
                        "duration": 0.25,
                        "durationTicks": 48,
                        "midi": 43,
                        "name": "G2",
                        "ticks": 28032,
                        "time": 146,
                        "velocity": 0.48031496062992124
                    },
                    {
                        "duration": 0.25,
                        "durationTicks": 48,
                        "midi": 31,
                        "name": "G1",
                        "ticks": 28032,
                        "time": 146,
                        "velocity": 0.48031496062992124
                    },
                    {
                        "duration": 0.25,
                        "durationTicks": 48,
                        "midi": 67,
                        "name": "G4",
                        "ticks": 28128,
                        "time": 146.5,
                        "velocity": 0.48031496062992124
                    },
                    {
                        "duration": 0.25,
                        "durationTicks": 48,
                        "midi": 62,
                        "name": "D4",
                        "ticks": 28128,
                        "time": 146.5,
                        "velocity": 0.48031496062992124
                    },
                    {
                        "duration": 0.25,
                        "durationTicks": 48,
                        "midi": 58,
                        "name": "A#3",
                        "ticks": 28128,
                        "time": 146.5,
                        "velocity": 0.48031496062992124
                    },
                    {
                        "duration": 0.25,
                        "durationTicks": 48,
                        "midi": 43,
                        "name": "G2",
                        "ticks": 28224,
                        "time": 147,
                        "velocity": 0.48031496062992124
                    },
                    {
                        "duration": 0.25,
                        "durationTicks": 48,
                        "midi": 31,
                        "name": "G1",
                        "ticks": 28224,
                        "time": 147,
                        "velocity": 0.48031496062992124
                    },
                    {
                        "duration": 0.25,
                        "durationTicks": 48,
                        "midi": 58,
                        "name": "A#3",
                        "ticks": 28320,
                        "time": 147.5,
                        "velocity": 0.48031496062992124
                    },
                    {
                        "duration": 0.25,
                        "durationTicks": 48,
                        "midi": 62,
                        "name": "D4",
                        "ticks": 28320,
                        "time": 147.5,
                        "velocity": 0.48031496062992124
                    },
                    {
                        "duration": 0.125,
                        "durationTicks": 24,
                        "midi": 67,
                        "name": "G4",
                        "ticks": 28320,
                        "time": 147.5,
                        "velocity": 0.48031496062992124
                    },
                    {
                        "duration": 0.25,
                        "durationTicks": 48,
                        "midi": 31,
                        "name": "G1",
                        "ticks": 28416,
                        "time": 148,
                        "velocity": 0.48031496062992124
                    },
                    {
                        "duration": 0.25,
                        "durationTicks": 48,
                        "midi": 43,
                        "name": "G2",
                        "ticks": 28416,
                        "time": 148,
                        "velocity": 0.48031496062992124
                    },
                    {
                        "duration": 0.25,
                        "durationTicks": 48,
                        "midi": 67,
                        "name": "G4",
                        "ticks": 28512,
                        "time": 148.5,
                        "velocity": 0.48031496062992124
                    },
                    {
                        "duration": 0.25,
                        "durationTicks": 48,
                        "midi": 62,
                        "name": "D4",
                        "ticks": 28512,
                        "time": 148.5,
                        "velocity": 0.48031496062992124
                    },
                    {
                        "duration": 0.25,
                        "durationTicks": 48,
                        "midi": 58,
                        "name": "A#3",
                        "ticks": 28512,
                        "time": 148.5,
                        "velocity": 0.48031496062992124
                    },
                    {
                        "duration": 0.25,
                        "durationTicks": 48,
                        "midi": 31,
                        "name": "G1",
                        "ticks": 28608,
                        "time": 149,
                        "velocity": 0.48031496062992124
                    },
                    {
                        "duration": 0.25,
                        "durationTicks": 48,
                        "midi": 43,
                        "name": "G2",
                        "ticks": 28608,
                        "time": 149,
                        "velocity": 0.48031496062992124
                    },
                    {
                        "duration": 0.25,
                        "durationTicks": 48,
                        "midi": 58,
                        "name": "A#3",
                        "ticks": 28704,
                        "time": 149.5,
                        "velocity": 0.48031496062992124
                    },
                    {
                        "duration": 0.25,
                        "durationTicks": 48,
                        "midi": 62,
                        "name": "D4",
                        "ticks": 28704,
                        "time": 149.5,
                        "velocity": 0.48031496062992124
                    },
                    {
                        "duration": 0.25,
                        "durationTicks": 48,
                        "midi": 67,
                        "name": "G4",
                        "ticks": 28704,
                        "time": 149.5,
                        "velocity": 0.48031496062992124
                    },
                    {
                        "duration": 0.25,
                        "durationTicks": 48,
                        "midi": 43,
                        "name": "G2",
                        "ticks": 28800,
                        "time": 150,
                        "velocity": 0.48031496062992124
                    },
                    {
                        "duration": 0.25,
                        "durationTicks": 48,
                        "midi": 31,
                        "name": "G1",
                        "ticks": 28800,
                        "time": 150,
                        "velocity": 0.48031496062992124
                    },
                    {
                        "duration": 0.25,
                        "durationTicks": 48,
                        "midi": 67,
                        "name": "G4",
                        "ticks": 28896,
                        "time": 150.5,
                        "velocity": 0.48031496062992124
                    },
                    {
                        "duration": 0.25,
                        "durationTicks": 48,
                        "midi": 62,
                        "name": "D4",
                        "ticks": 28896,
                        "time": 150.5,
                        "velocity": 0.48031496062992124
                    },
                    {
                        "duration": 0.25,
                        "durationTicks": 48,
                        "midi": 58,
                        "name": "A#3",
                        "ticks": 28896,
                        "time": 150.5,
                        "velocity": 0.48031496062992124
                    },
                    {
                        "duration": 0.25,
                        "durationTicks": 48,
                        "midi": 43,
                        "name": "G2",
                        "ticks": 28992,
                        "time": 151,
                        "velocity": 0.48031496062992124
                    },
                    {
                        "duration": 0.25,
                        "durationTicks": 48,
                        "midi": 31,
                        "name": "G1",
                        "ticks": 28992,
                        "time": 151,
                        "velocity": 0.48031496062992124
                    },
                    {
                        "duration": 0.125,
                        "durationTicks": 24,
                        "midi": 67,
                        "name": "G4",
                        "ticks": 29088,
                        "time": 151.5,
                        "velocity": 0.48031496062992124
                    },
                    {
                        "duration": 0.25,
                        "durationTicks": 48,
                        "midi": 62,
                        "name": "D4",
                        "ticks": 29088,
                        "time": 151.5,
                        "velocity": 0.48031496062992124
                    },
                    {
                        "duration": 0.25,
                        "durationTicks": 48,
                        "midi": 58,
                        "name": "A#3",
                        "ticks": 29088,
                        "time": 151.5,
                        "velocity": 0.48031496062992124
                    },
                    {
                        "duration": 0.25,
                        "durationTicks": 48,
                        "midi": 67,
                        "name": "G4",
                        "ticks": 29136,
                        "time": 151.75,
                        "velocity": 0.48031496062992124
                    },
                    {
                        "duration": 0.25,
                        "durationTicks": 48,
                        "midi": 62,
                        "name": "D4",
                        "ticks": 29136,
                        "time": 151.75,
                        "velocity": 0.48031496062992124
                    },
                    {
                        "duration": 0.25,
                        "durationTicks": 48,
                        "midi": 58,
                        "name": "A#3",
                        "ticks": 29136,
                        "time": 151.75,
                        "velocity": 0.48031496062992124
                    },
                    {
                        "duration": 0.25,
                        "durationTicks": 48,
                        "midi": 31,
                        "name": "G1",
                        "ticks": 29184,
                        "time": 152,
                        "velocity": 0.48031496062992124
                    },
                    {
                        "duration": 0.25,
                        "durationTicks": 48,
                        "midi": 43,
                        "name": "G2",
                        "ticks": 29184,
                        "time": 152,
                        "velocity": 0.48031496062992124
                    },
                    {
                        "duration": 0.25,
                        "durationTicks": 48,
                        "midi": 58,
                        "name": "A#3",
                        "ticks": 29280,
                        "time": 152.5,
                        "velocity": 0.48031496062992124
                    },
                    {
                        "duration": 0.25,
                        "durationTicks": 48,
                        "midi": 62,
                        "name": "D4",
                        "ticks": 29280,
                        "time": 152.5,
                        "velocity": 0.48031496062992124
                    },
                    {
                        "duration": 0.25,
                        "durationTicks": 48,
                        "midi": 67,
                        "name": "G4",
                        "ticks": 29280,
                        "time": 152.5,
                        "velocity": 0.48031496062992124
                    },
                    {
                        "duration": 0.25,
                        "durationTicks": 48,
                        "midi": 31,
                        "name": "G1",
                        "ticks": 29376,
                        "time": 153,
                        "velocity": 0.48031496062992124
                    },
                    {
                        "duration": 0.25,
                        "durationTicks": 48,
                        "midi": 43,
                        "name": "G2",
                        "ticks": 29376,
                        "time": 153,
                        "velocity": 0.48031496062992124
                    },
                    {
                        "duration": 0.25,
                        "durationTicks": 48,
                        "midi": 67,
                        "name": "G4",
                        "ticks": 29472,
                        "time": 153.5,
                        "velocity": 0.48031496062992124
                    },
                    {
                        "duration": 0.25,
                        "durationTicks": 48,
                        "midi": 62,
                        "name": "D4",
                        "ticks": 29472,
                        "time": 153.5,
                        "velocity": 0.48031496062992124
                    },
                    {
                        "duration": 0.25,
                        "durationTicks": 48,
                        "midi": 58,
                        "name": "A#3",
                        "ticks": 29472,
                        "time": 153.5,
                        "velocity": 0.48031496062992124
                    },
                    {
                        "duration": 0.25,
                        "durationTicks": 48,
                        "midi": 43,
                        "name": "G2",
                        "ticks": 29568,
                        "time": 154,
                        "velocity": 0.48031496062992124
                    },
                    {
                        "duration": 0.25,
                        "durationTicks": 48,
                        "midi": 31,
                        "name": "G1",
                        "ticks": 29568,
                        "time": 154,
                        "velocity": 0.48031496062992124
                    },
                    {
                        "duration": 0.25,
                        "durationTicks": 48,
                        "midi": 58,
                        "name": "A#3",
                        "ticks": 29664,
                        "time": 154.5,
                        "velocity": 0.48031496062992124
                    },
                    {
                        "duration": 0.25,
                        "durationTicks": 48,
                        "midi": 62,
                        "name": "D4",
                        "ticks": 29664,
                        "time": 154.5,
                        "velocity": 0.48031496062992124
                    },
                    {
                        "duration": 0.25,
                        "durationTicks": 48,
                        "midi": 67,
                        "name": "G4",
                        "ticks": 29664,
                        "time": 154.5,
                        "velocity": 0.48031496062992124
                    },
                    {
                        "duration": 0.25,
                        "durationTicks": 48,
                        "midi": 43,
                        "name": "G2",
                        "ticks": 29760,
                        "time": 155,
                        "velocity": 0.48031496062992124
                    },
                    {
                        "duration": 0.25,
                        "durationTicks": 48,
                        "midi": 31,
                        "name": "G1",
                        "ticks": 29760,
                        "time": 155,
                        "velocity": 0.48031496062992124
                    },
                    {
                        "duration": 0.125,
                        "durationTicks": 24,
                        "midi": 67,
                        "name": "G4",
                        "ticks": 29856,
                        "time": 155.5,
                        "velocity": 0.48031496062992124
                    },
                    {
                        "duration": 0.25,
                        "durationTicks": 48,
                        "midi": 62,
                        "name": "D4",
                        "ticks": 29856,
                        "time": 155.5,
                        "velocity": 0.48031496062992124
                    },
                    {
                        "duration": 0.25,
                        "durationTicks": 48,
                        "midi": 58,
                        "name": "A#3",
                        "ticks": 29856,
                        "time": 155.5,
                        "velocity": 0.48031496062992124
                    },
                    {
                        "duration": 0.25,
                        "durationTicks": 48,
                        "midi": 43,
                        "name": "G2",
                        "ticks": 29952,
                        "time": 156,
                        "velocity": 0.48031496062992124
                    },
                    {
                        "duration": 0.25,
                        "durationTicks": 48,
                        "midi": 31,
                        "name": "G1",
                        "ticks": 29952,
                        "time": 156,
                        "velocity": 0.48031496062992124
                    },
                    {
                        "duration": 0.25,
                        "durationTicks": 48,
                        "midi": 67,
                        "name": "G4",
                        "ticks": 30048,
                        "time": 156.5,
                        "velocity": 0.48031496062992124
                    },
                    {
                        "duration": 0.25,
                        "durationTicks": 48,
                        "midi": 62,
                        "name": "D4",
                        "ticks": 30048,
                        "time": 156.5,
                        "velocity": 0.48031496062992124
                    },
                    {
                        "duration": 0.25,
                        "durationTicks": 48,
                        "midi": 58,
                        "name": "A#3",
                        "ticks": 30048,
                        "time": 156.5,
                        "velocity": 0.48031496062992124
                    },
                    {
                        "duration": 0.25,
                        "durationTicks": 48,
                        "midi": 31,
                        "name": "G1",
                        "ticks": 30144,
                        "time": 157,
                        "velocity": 0.48031496062992124
                    },
                    {
                        "duration": 0.25,
                        "durationTicks": 48,
                        "midi": 43,
                        "name": "G2",
                        "ticks": 30144,
                        "time": 157,
                        "velocity": 0.48031496062992124
                    },
                    {
                        "duration": 0.25,
                        "durationTicks": 48,
                        "midi": 58,
                        "name": "A#3",
                        "ticks": 30240,
                        "time": 157.5,
                        "velocity": 0.48031496062992124
                    },
                    {
                        "duration": 0.25,
                        "durationTicks": 48,
                        "midi": 62,
                        "name": "D4",
                        "ticks": 30240,
                        "time": 157.5,
                        "velocity": 0.48031496062992124
                    },
                    {
                        "duration": 0.25,
                        "durationTicks": 48,
                        "midi": 67,
                        "name": "G4",
                        "ticks": 30240,
                        "time": 157.5,
                        "velocity": 0.48031496062992124
                    },
                    {
                        "duration": 0.25,
                        "durationTicks": 48,
                        "midi": 43,
                        "name": "G2",
                        "ticks": 30336,
                        "time": 158,
                        "velocity": 0.48031496062992124
                    },
                    {
                        "duration": 0.25,
                        "durationTicks": 48,
                        "midi": 31,
                        "name": "G1",
                        "ticks": 30336,
                        "time": 158,
                        "velocity": 0.48031496062992124
                    },
                    {
                        "duration": 0.25,
                        "durationTicks": 48,
                        "midi": 67,
                        "name": "G4",
                        "ticks": 30432,
                        "time": 158.5,
                        "velocity": 0.48031496062992124
                    },
                    {
                        "duration": 0.25,
                        "durationTicks": 48,
                        "midi": 62,
                        "name": "D4",
                        "ticks": 30432,
                        "time": 158.5,
                        "velocity": 0.48031496062992124
                    },
                    {
                        "duration": 0.25,
                        "durationTicks": 48,
                        "midi": 58,
                        "name": "A#3",
                        "ticks": 30432,
                        "time": 158.5,
                        "velocity": 0.48031496062992124
                    },
                    {
                        "duration": 0.25,
                        "durationTicks": 48,
                        "midi": 43,
                        "name": "G2",
                        "ticks": 30528,
                        "time": 159,
                        "velocity": 0.48031496062992124
                    },
                    {
                        "duration": 0.25,
                        "durationTicks": 48,
                        "midi": 31,
                        "name": "G1",
                        "ticks": 30528,
                        "time": 159,
                        "velocity": 0.48031496062992124
                    },
                    {
                        "duration": 0.25,
                        "durationTicks": 48,
                        "midi": 58,
                        "name": "A#3",
                        "ticks": 30624,
                        "time": 159.5,
                        "velocity": 0.48031496062992124
                    },
                    {
                        "duration": 0.25,
                        "durationTicks": 48,
                        "midi": 62,
                        "name": "D4",
                        "ticks": 30624,
                        "time": 159.5,
                        "velocity": 0.48031496062992124
                    },
                    {
                        "duration": 0.125,
                        "durationTicks": 24,
                        "midi": 67,
                        "name": "G4",
                        "ticks": 30624,
                        "time": 159.5,
                        "velocity": 0.48031496062992124
                    },
                    {
                        "duration": 0.5,
                        "durationTicks": 96,
                        "midi": 39,
                        "name": "D#2",
                        "ticks": 30720,
                        "time": 160,
                        "velocity": 0.48031496062992124
                    },
                    {
                        "duration": 0.25,
                        "durationTicks": 48,
                        "midi": 63,
                        "name": "D#4",
                        "ticks": 30816,
                        "time": 160.5,
                        "velocity": 0.4015748031496063
                    },
                    {
                        "duration": 0.25,
                        "durationTicks": 48,
                        "midi": 58,
                        "name": "A#3",
                        "ticks": 30816,
                        "time": 160.5,
                        "velocity": 0.4015748031496063
                    },
                    {
                        "duration": 0.25,
                        "durationTicks": 48,
                        "midi": 55,
                        "name": "G3",
                        "ticks": 30816,
                        "time": 160.5,
                        "velocity": 0.4015748031496063
                    },
                    {
                        "duration": 0.5,
                        "durationTicks": 96,
                        "midi": 34,
                        "name": "A#1",
                        "ticks": 30912,
                        "time": 161,
                        "velocity": 0.48031496062992124
                    },
                    {
                        "duration": 0.25,
                        "durationTicks": 48,
                        "midi": 58,
                        "name": "A#3",
                        "ticks": 31008,
                        "time": 161.5,
                        "velocity": 0.4015748031496063
                    },
                    {
                        "duration": 0.25,
                        "durationTicks": 48,
                        "midi": 53,
                        "name": "F3",
                        "ticks": 31008,
                        "time": 161.5,
                        "velocity": 0.4015748031496063
                    },
                    {
                        "duration": 0.25,
                        "durationTicks": 48,
                        "midi": 62,
                        "name": "D4",
                        "ticks": 31008,
                        "time": 161.5,
                        "velocity": 0.4015748031496063
                    },
                    {
                        "duration": 0.5,
                        "durationTicks": 96,
                        "midi": 41,
                        "name": "F2",
                        "ticks": 31104,
                        "time": 162,
                        "velocity": 0.48031496062992124
                    },
                    {
                        "duration": 0.25,
                        "durationTicks": 48,
                        "midi": 53,
                        "name": "F3",
                        "ticks": 31200,
                        "time": 162.5,
                        "velocity": 0.48031496062992124
                    },
                    {
                        "duration": 0.25,
                        "durationTicks": 48,
                        "midi": 57,
                        "name": "A3",
                        "ticks": 31200,
                        "time": 162.5,
                        "velocity": 0.48031496062992124
                    },
                    {
                        "duration": 0.25,
                        "durationTicks": 48,
                        "midi": 60,
                        "name": "C4",
                        "ticks": 31200,
                        "time": 162.5,
                        "velocity": 0.48031496062992124
                    },
                    {
                        "duration": 0.5,
                        "durationTicks": 96,
                        "midi": 43,
                        "name": "G2",
                        "ticks": 31296,
                        "time": 163,
                        "velocity": 0.48031496062992124
                    },
                    {
                        "duration": 0.25,
                        "durationTicks": 48,
                        "midi": 58,
                        "name": "A#3",
                        "ticks": 31392,
                        "time": 163.5,
                        "velocity": 0.48031496062992124
                    },
                    {
                        "duration": 0.25,
                        "durationTicks": 48,
                        "midi": 62,
                        "name": "D4",
                        "ticks": 31392,
                        "time": 163.5,
                        "velocity": 0.48031496062992124
                    },
                    {
                        "duration": 0.25,
                        "durationTicks": 48,
                        "midi": 55,
                        "name": "G3",
                        "ticks": 31392,
                        "time": 163.5,
                        "velocity": 0.48031496062992124
                    },
                    {
                        "duration": 0.5,
                        "durationTicks": 96,
                        "midi": 39,
                        "name": "D#2",
                        "ticks": 31488,
                        "time": 164,
                        "velocity": 0.48031496062992124
                    },
                    {
                        "duration": 0.25,
                        "durationTicks": 48,
                        "midi": 55,
                        "name": "G3",
                        "ticks": 31584,
                        "time": 164.5,
                        "velocity": 0.4015748031496063
                    },
                    {
                        "duration": 0.25,
                        "durationTicks": 48,
                        "midi": 58,
                        "name": "A#3",
                        "ticks": 31584,
                        "time": 164.5,
                        "velocity": 0.4015748031496063
                    },
                    {
                        "duration": 0.25,
                        "durationTicks": 48,
                        "midi": 63,
                        "name": "D#4",
                        "ticks": 31584,
                        "time": 164.5,
                        "velocity": 0.4015748031496063
                    },
                    {
                        "duration": 0.5,
                        "durationTicks": 96,
                        "midi": 34,
                        "name": "A#1",
                        "ticks": 31680,
                        "time": 165,
                        "velocity": 0.48031496062992124
                    },
                    {
                        "duration": 0.25,
                        "durationTicks": 48,
                        "midi": 62,
                        "name": "D4",
                        "ticks": 31776,
                        "time": 165.5,
                        "velocity": 0.4015748031496063
                    },
                    {
                        "duration": 0.25,
                        "durationTicks": 48,
                        "midi": 53,
                        "name": "F3",
                        "ticks": 31776,
                        "time": 165.5,
                        "velocity": 0.4015748031496063
                    },
                    {
                        "duration": 0.25,
                        "durationTicks": 48,
                        "midi": 58,
                        "name": "A#3",
                        "ticks": 31776,
                        "time": 165.5,
                        "velocity": 0.4015748031496063
                    },
                    {
                        "duration": 0.5,
                        "durationTicks": 96,
                        "midi": 41,
                        "name": "F2",
                        "ticks": 31872,
                        "time": 166,
                        "velocity": 0.48031496062992124
                    },
                    {
                        "duration": 0.25,
                        "durationTicks": 48,
                        "midi": 53,
                        "name": "F3",
                        "ticks": 31968,
                        "time": 166.5,
                        "velocity": 0.48031496062992124
                    },
                    {
                        "duration": 0.25,
                        "durationTicks": 48,
                        "midi": 57,
                        "name": "A3",
                        "ticks": 31968,
                        "time": 166.5,
                        "velocity": 0.48031496062992124
                    },
                    {
                        "duration": 0.25,
                        "durationTicks": 48,
                        "midi": 60,
                        "name": "C4",
                        "ticks": 31968,
                        "time": 166.5,
                        "velocity": 0.48031496062992124
                    },
                    {
                        "duration": 0.5,
                        "durationTicks": 96,
                        "midi": 43,
                        "name": "G2",
                        "ticks": 32064,
                        "time": 167,
                        "velocity": 0.48031496062992124
                    },
                    {
                        "duration": 0.25,
                        "durationTicks": 48,
                        "midi": 55,
                        "name": "G3",
                        "ticks": 32160,
                        "time": 167.5,
                        "velocity": 0.48031496062992124
                    },
                    {
                        "duration": 0.25,
                        "durationTicks": 48,
                        "midi": 62,
                        "name": "D4",
                        "ticks": 32160,
                        "time": 167.5,
                        "velocity": 0.48031496062992124
                    },
                    {
                        "duration": 0.25,
                        "durationTicks": 48,
                        "midi": 58,
                        "name": "A#3",
                        "ticks": 32160,
                        "time": 167.5,
                        "velocity": 0.48031496062992124
                    },
                    {
                        "duration": 0.5,
                        "durationTicks": 96,
                        "midi": 39,
                        "name": "D#2",
                        "ticks": 32256,
                        "time": 168,
                        "velocity": 0.48031496062992124
                    },
                    {
                        "duration": 0.25,
                        "durationTicks": 48,
                        "midi": 55,
                        "name": "G3",
                        "ticks": 32352,
                        "time": 168.5,
                        "velocity": 0.4015748031496063
                    },
                    {
                        "duration": 0.25,
                        "durationTicks": 48,
                        "midi": 58,
                        "name": "A#3",
                        "ticks": 32352,
                        "time": 168.5,
                        "velocity": 0.4015748031496063
                    },
                    {
                        "duration": 0.25,
                        "durationTicks": 48,
                        "midi": 63,
                        "name": "D#4",
                        "ticks": 32352,
                        "time": 168.5,
                        "velocity": 0.4015748031496063
                    },
                    {
                        "duration": 0.5,
                        "durationTicks": 96,
                        "midi": 34,
                        "name": "A#1",
                        "ticks": 32448,
                        "time": 169,
                        "velocity": 0.48031496062992124
                    },
                    {
                        "duration": 0.25,
                        "durationTicks": 48,
                        "midi": 58,
                        "name": "A#3",
                        "ticks": 32544,
                        "time": 169.5,
                        "velocity": 0.4015748031496063
                    },
                    {
                        "duration": 0.25,
                        "durationTicks": 48,
                        "midi": 53,
                        "name": "F3",
                        "ticks": 32544,
                        "time": 169.5,
                        "velocity": 0.4015748031496063
                    },
                    {
                        "duration": 0.25,
                        "durationTicks": 48,
                        "midi": 62,
                        "name": "D4",
                        "ticks": 32544,
                        "time": 169.5,
                        "velocity": 0.4015748031496063
                    },
                    {
                        "duration": 0.5,
                        "durationTicks": 96,
                        "midi": 41,
                        "name": "F2",
                        "ticks": 32640,
                        "time": 170,
                        "velocity": 0.48031496062992124
                    },
                    {
                        "duration": 0.25,
                        "durationTicks": 48,
                        "midi": 60,
                        "name": "C4",
                        "ticks": 32736,
                        "time": 170.5,
                        "velocity": 0.48031496062992124
                    },
                    {
                        "duration": 0.25,
                        "durationTicks": 48,
                        "midi": 57,
                        "name": "A3",
                        "ticks": 32736,
                        "time": 170.5,
                        "velocity": 0.48031496062992124
                    },
                    {
                        "duration": 0.25,
                        "durationTicks": 48,
                        "midi": 53,
                        "name": "F3",
                        "ticks": 32736,
                        "time": 170.5,
                        "velocity": 0.48031496062992124
                    },
                    {
                        "duration": 0.5,
                        "durationTicks": 96,
                        "midi": 43,
                        "name": "G2",
                        "ticks": 32832,
                        "time": 171,
                        "velocity": 0.48031496062992124
                    },
                    {
                        "duration": 0.25,
                        "durationTicks": 48,
                        "midi": 55,
                        "name": "G3",
                        "ticks": 32928,
                        "time": 171.5,
                        "velocity": 0.48031496062992124
                    },
                    {
                        "duration": 0.25,
                        "durationTicks": 48,
                        "midi": 62,
                        "name": "D4",
                        "ticks": 32928,
                        "time": 171.5,
                        "velocity": 0.48031496062992124
                    },
                    {
                        "duration": 0.25,
                        "durationTicks": 48,
                        "midi": 58,
                        "name": "A#3",
                        "ticks": 32928,
                        "time": 171.5,
                        "velocity": 0.48031496062992124
                    },
                    {
                        "duration": 0.5,
                        "durationTicks": 96,
                        "midi": 39,
                        "name": "D#2",
                        "ticks": 33024,
                        "time": 172,
                        "velocity": 0.48031496062992124
                    },
                    {
                        "duration": 0.25,
                        "durationTicks": 48,
                        "midi": 55,
                        "name": "G3",
                        "ticks": 33120,
                        "time": 172.5,
                        "velocity": 0.4015748031496063
                    },
                    {
                        "duration": 0.25,
                        "durationTicks": 48,
                        "midi": 58,
                        "name": "A#3",
                        "ticks": 33120,
                        "time": 172.5,
                        "velocity": 0.4015748031496063
                    },
                    {
                        "duration": 0.25,
                        "durationTicks": 48,
                        "midi": 63,
                        "name": "D#4",
                        "ticks": 33120,
                        "time": 172.5,
                        "velocity": 0.4015748031496063
                    },
                    {
                        "duration": 0.5,
                        "durationTicks": 96,
                        "midi": 34,
                        "name": "A#1",
                        "ticks": 33216,
                        "time": 173,
                        "velocity": 0.48031496062992124
                    },
                    {
                        "duration": 0.25,
                        "durationTicks": 48,
                        "midi": 58,
                        "name": "A#3",
                        "ticks": 33312,
                        "time": 173.5,
                        "velocity": 0.4015748031496063
                    },
                    {
                        "duration": 0.25,
                        "durationTicks": 48,
                        "midi": 53,
                        "name": "F3",
                        "ticks": 33312,
                        "time": 173.5,
                        "velocity": 0.4015748031496063
                    },
                    {
                        "duration": 0.25,
                        "durationTicks": 48,
                        "midi": 62,
                        "name": "D4",
                        "ticks": 33312,
                        "time": 173.5,
                        "velocity": 0.4015748031496063
                    },
                    {
                        "duration": 0.5,
                        "durationTicks": 96,
                        "midi": 41,
                        "name": "F2",
                        "ticks": 33408,
                        "time": 174,
                        "velocity": 0.48031496062992124
                    },
                    {
                        "duration": 0.25,
                        "durationTicks": 48,
                        "midi": 53,
                        "name": "F3",
                        "ticks": 33504,
                        "time": 174.5,
                        "velocity": 0.48031496062992124
                    },
                    {
                        "duration": 0.25,
                        "durationTicks": 48,
                        "midi": 57,
                        "name": "A3",
                        "ticks": 33504,
                        "time": 174.5,
                        "velocity": 0.48031496062992124
                    },
                    {
                        "duration": 0.25,
                        "durationTicks": 48,
                        "midi": 60,
                        "name": "C4",
                        "ticks": 33504,
                        "time": 174.5,
                        "velocity": 0.48031496062992124
                    },
                    {
                        "duration": 0.5,
                        "durationTicks": 96,
                        "midi": 43,
                        "name": "G2",
                        "ticks": 33600,
                        "time": 175,
                        "velocity": 0.48031496062992124
                    },
                    {
                        "duration": 0.25,
                        "durationTicks": 48,
                        "midi": 58,
                        "name": "A#3",
                        "ticks": 33696,
                        "time": 175.5,
                        "velocity": 0.48031496062992124
                    },
                    {
                        "duration": 0.25,
                        "durationTicks": 48,
                        "midi": 62,
                        "name": "D4",
                        "ticks": 33696,
                        "time": 175.5,
                        "velocity": 0.48031496062992124
                    },
                    {
                        "duration": 0.25,
                        "durationTicks": 48,
                        "midi": 55,
                        "name": "G3",
                        "ticks": 33696,
                        "time": 175.5,
                        "velocity": 0.48031496062992124
                    },
                    {
                        "duration": 0.125,
                        "durationTicks": 24,
                        "midi": 51,
                        "name": "D#3",
                        "ticks": 33792,
                        "time": 176,
                        "velocity": 0.4015748031496063
                    },
                    {
                        "duration": 0.125,
                        "durationTicks": 24,
                        "midi": 58,
                        "name": "A#3",
                        "ticks": 33816,
                        "time": 176.125,
                        "velocity": 0.4015748031496063
                    },
                    {
                        "duration": 0.125,
                        "durationTicks": 24,
                        "midi": 67,
                        "name": "G4",
                        "ticks": 33840,
                        "time": 176.25,
                        "velocity": 0.4015748031496063
                    },
                    {
                        "duration": 0.125,
                        "durationTicks": 24,
                        "midi": 51,
                        "name": "D#3",
                        "ticks": 33864,
                        "time": 176.375,
                        "velocity": 0.4015748031496063
                    },
                    {
                        "duration": 0.125,
                        "durationTicks": 24,
                        "midi": 58,
                        "name": "A#3",
                        "ticks": 33888,
                        "time": 176.5,
                        "velocity": 0.4015748031496063
                    },
                    {
                        "duration": 0.125,
                        "durationTicks": 24,
                        "midi": 67,
                        "name": "G4",
                        "ticks": 33912,
                        "time": 176.625,
                        "velocity": 0.4015748031496063
                    },
                    {
                        "duration": 0.125,
                        "durationTicks": 24,
                        "midi": 51,
                        "name": "D#3",
                        "ticks": 33936,
                        "time": 176.75,
                        "velocity": 0.4015748031496063
                    },
                    {
                        "duration": 0.125,
                        "durationTicks": 24,
                        "midi": 58,
                        "name": "A#3",
                        "ticks": 33960,
                        "time": 176.875,
                        "velocity": 0.4015748031496063
                    },
                    {
                        "duration": 0.125,
                        "durationTicks": 24,
                        "midi": 46,
                        "name": "A#2",
                        "ticks": 33984,
                        "time": 177,
                        "velocity": 0.4015748031496063
                    },
                    {
                        "duration": 0.125,
                        "durationTicks": 24,
                        "midi": 53,
                        "name": "F3",
                        "ticks": 34008,
                        "time": 177.125,
                        "velocity": 0.4015748031496063
                    },
                    {
                        "duration": 0.125,
                        "durationTicks": 24,
                        "midi": 62,
                        "name": "D4",
                        "ticks": 34032,
                        "time": 177.25,
                        "velocity": 0.4015748031496063
                    },
                    {
                        "duration": 0.125,
                        "durationTicks": 24,
                        "midi": 46,
                        "name": "A#2",
                        "ticks": 34056,
                        "time": 177.375,
                        "velocity": 0.4015748031496063
                    },
                    {
                        "duration": 0.125,
                        "durationTicks": 24,
                        "midi": 53,
                        "name": "F3",
                        "ticks": 34080,
                        "time": 177.5,
                        "velocity": 0.4015748031496063
                    },
                    {
                        "duration": 0.125,
                        "durationTicks": 24,
                        "midi": 62,
                        "name": "D4",
                        "ticks": 34104,
                        "time": 177.625,
                        "velocity": 0.4015748031496063
                    },
                    {
                        "duration": 0.125,
                        "durationTicks": 24,
                        "midi": 46,
                        "name": "A#2",
                        "ticks": 34128,
                        "time": 177.75,
                        "velocity": 0.4015748031496063
                    },
                    {
                        "duration": 0.125,
                        "durationTicks": 24,
                        "midi": 53,
                        "name": "F3",
                        "ticks": 34152,
                        "time": 177.875,
                        "velocity": 0.4015748031496063
                    },
                    {
                        "duration": 0.125,
                        "durationTicks": 24,
                        "midi": 53,
                        "name": "F3",
                        "ticks": 34176,
                        "time": 178,
                        "velocity": 0.4015748031496063
                    },
                    {
                        "duration": 0.125,
                        "durationTicks": 24,
                        "midi": 60,
                        "name": "C4",
                        "ticks": 34200,
                        "time": 178.125,
                        "velocity": 0.4015748031496063
                    },
                    {
                        "duration": 0.125,
                        "durationTicks": 24,
                        "midi": 69,
                        "name": "A4",
                        "ticks": 34224,
                        "time": 178.25,
                        "velocity": 0.4015748031496063
                    },
                    {
                        "duration": 0.125,
                        "durationTicks": 24,
                        "midi": 53,
                        "name": "F3",
                        "ticks": 34248,
                        "time": 178.375,
                        "velocity": 0.4015748031496063
                    },
                    {
                        "duration": 0.125,
                        "durationTicks": 24,
                        "midi": 60,
                        "name": "C4",
                        "ticks": 34272,
                        "time": 178.5,
                        "velocity": 0.4015748031496063
                    },
                    {
                        "duration": 0.125,
                        "durationTicks": 24,
                        "midi": 69,
                        "name": "A4",
                        "ticks": 34296,
                        "time": 178.625,
                        "velocity": 0.4015748031496063
                    },
                    {
                        "duration": 0.125,
                        "durationTicks": 24,
                        "midi": 53,
                        "name": "F3",
                        "ticks": 34320,
                        "time": 178.75,
                        "velocity": 0.4015748031496063
                    },
                    {
                        "duration": 0.125,
                        "durationTicks": 24,
                        "midi": 58,
                        "name": "A#3",
                        "ticks": 34344,
                        "time": 178.875,
                        "velocity": 0.4015748031496063
                    },
                    {
                        "duration": 0.125,
                        "durationTicks": 24,
                        "midi": 55,
                        "name": "G3",
                        "ticks": 34368,
                        "time": 179,
                        "velocity": 0.4015748031496063
                    },
                    {
                        "duration": 0.125,
                        "durationTicks": 24,
                        "midi": 62,
                        "name": "D4",
                        "ticks": 34392,
                        "time": 179.125,
                        "velocity": 0.4015748031496063
                    },
                    {
                        "duration": 0.125,
                        "durationTicks": 24,
                        "midi": 70,
                        "name": "A#4",
                        "ticks": 34416,
                        "time": 179.25,
                        "velocity": 0.4015748031496063
                    },
                    {
                        "duration": 0.125,
                        "durationTicks": 24,
                        "midi": 55,
                        "name": "G3",
                        "ticks": 34440,
                        "time": 179.375,
                        "velocity": 0.4015748031496063
                    },
                    {
                        "duration": 0.125,
                        "durationTicks": 24,
                        "midi": 62,
                        "name": "D4",
                        "ticks": 34464,
                        "time": 179.5,
                        "velocity": 0.4015748031496063
                    },
                    {
                        "duration": 0.125,
                        "durationTicks": 24,
                        "midi": 70,
                        "name": "A#4",
                        "ticks": 34488,
                        "time": 179.625,
                        "velocity": 0.4015748031496063
                    },
                    {
                        "duration": 0.125,
                        "durationTicks": 24,
                        "midi": 55,
                        "name": "G3",
                        "ticks": 34512,
                        "time": 179.75,
                        "velocity": 0.4015748031496063
                    },
                    {
                        "duration": 0.125,
                        "durationTicks": 24,
                        "midi": 62,
                        "name": "D4",
                        "ticks": 34536,
                        "time": 179.875,
                        "velocity": 0.4015748031496063
                    },
                    {
                        "duration": 0.125,
                        "durationTicks": 24,
                        "midi": 51,
                        "name": "D#3",
                        "ticks": 34560,
                        "time": 180,
                        "velocity": 0.4015748031496063
                    },
                    {
                        "duration": 0.125,
                        "durationTicks": 24,
                        "midi": 58,
                        "name": "A#3",
                        "ticks": 34584,
                        "time": 180.125,
                        "velocity": 0.4015748031496063
                    },
                    {
                        "duration": 0.125,
                        "durationTicks": 24,
                        "midi": 67,
                        "name": "G4",
                        "ticks": 34608,
                        "time": 180.25,
                        "velocity": 0.4015748031496063
                    },
                    {
                        "duration": 0.125,
                        "durationTicks": 24,
                        "midi": 51,
                        "name": "D#3",
                        "ticks": 34632,
                        "time": 180.375,
                        "velocity": 0.4015748031496063
                    },
                    {
                        "duration": 0.125,
                        "durationTicks": 24,
                        "midi": 58,
                        "name": "A#3",
                        "ticks": 34656,
                        "time": 180.5,
                        "velocity": 0.4015748031496063
                    },
                    {
                        "duration": 0.125,
                        "durationTicks": 24,
                        "midi": 67,
                        "name": "G4",
                        "ticks": 34680,
                        "time": 180.625,
                        "velocity": 0.4015748031496063
                    },
                    {
                        "duration": 0.125,
                        "durationTicks": 24,
                        "midi": 51,
                        "name": "D#3",
                        "ticks": 34704,
                        "time": 180.75,
                        "velocity": 0.4015748031496063
                    },
                    {
                        "duration": 0.125,
                        "durationTicks": 24,
                        "midi": 58,
                        "name": "A#3",
                        "ticks": 34728,
                        "time": 180.875,
                        "velocity": 0.4015748031496063
                    },
                    {
                        "duration": 0.125,
                        "durationTicks": 24,
                        "midi": 46,
                        "name": "A#2",
                        "ticks": 34752,
                        "time": 181,
                        "velocity": 0.4015748031496063
                    },
                    {
                        "duration": 0.125,
                        "durationTicks": 24,
                        "midi": 53,
                        "name": "F3",
                        "ticks": 34776,
                        "time": 181.125,
                        "velocity": 0.4015748031496063
                    },
                    {
                        "duration": 0.125,
                        "durationTicks": 24,
                        "midi": 62,
                        "name": "D4",
                        "ticks": 34800,
                        "time": 181.25,
                        "velocity": 0.4015748031496063
                    },
                    {
                        "duration": 0.125,
                        "durationTicks": 24,
                        "midi": 46,
                        "name": "A#2",
                        "ticks": 34824,
                        "time": 181.375,
                        "velocity": 0.4015748031496063
                    },
                    {
                        "duration": 0.125,
                        "durationTicks": 24,
                        "midi": 53,
                        "name": "F3",
                        "ticks": 34848,
                        "time": 181.5,
                        "velocity": 0.4015748031496063
                    },
                    {
                        "duration": 0.125,
                        "durationTicks": 24,
                        "midi": 62,
                        "name": "D4",
                        "ticks": 34872,
                        "time": 181.625,
                        "velocity": 0.4015748031496063
                    },
                    {
                        "duration": 0.125,
                        "durationTicks": 24,
                        "midi": 46,
                        "name": "A#2",
                        "ticks": 34896,
                        "time": 181.75,
                        "velocity": 0.4015748031496063
                    },
                    {
                        "duration": 0.125,
                        "durationTicks": 24,
                        "midi": 53,
                        "name": "F3",
                        "ticks": 34920,
                        "time": 181.875,
                        "velocity": 0.4015748031496063
                    },
                    {
                        "duration": 0.125,
                        "durationTicks": 24,
                        "midi": 53,
                        "name": "F3",
                        "ticks": 34944,
                        "time": 182,
                        "velocity": 0.4015748031496063
                    },
                    {
                        "duration": 0.125,
                        "durationTicks": 24,
                        "midi": 60,
                        "name": "C4",
                        "ticks": 34968,
                        "time": 182.125,
                        "velocity": 0.4015748031496063
                    },
                    {
                        "duration": 0.125,
                        "durationTicks": 24,
                        "midi": 69,
                        "name": "A4",
                        "ticks": 34992,
                        "time": 182.25,
                        "velocity": 0.4015748031496063
                    },
                    {
                        "duration": 0.125,
                        "durationTicks": 24,
                        "midi": 53,
                        "name": "F3",
                        "ticks": 35016,
                        "time": 182.375,
                        "velocity": 0.4015748031496063
                    },
                    {
                        "duration": 0.125,
                        "durationTicks": 24,
                        "midi": 60,
                        "name": "C4",
                        "ticks": 35040,
                        "time": 182.5,
                        "velocity": 0.4015748031496063
                    },
                    {
                        "duration": 0.125,
                        "durationTicks": 24,
                        "midi": 69,
                        "name": "A4",
                        "ticks": 35064,
                        "time": 182.625,
                        "velocity": 0.4015748031496063
                    },
                    {
                        "duration": 0.125,
                        "durationTicks": 24,
                        "midi": 53,
                        "name": "F3",
                        "ticks": 35088,
                        "time": 182.75,
                        "velocity": 0.4015748031496063
                    },
                    {
                        "duration": 0.125,
                        "durationTicks": 24,
                        "midi": 58,
                        "name": "A#3",
                        "ticks": 35112,
                        "time": 182.875,
                        "velocity": 0.41732283464566927
                    },
                    {
                        "duration": 0.125,
                        "durationTicks": 24,
                        "midi": 55,
                        "name": "G3",
                        "ticks": 35136,
                        "time": 183,
                        "velocity": 0.4015748031496063
                    },
                    {
                        "duration": 0.125,
                        "durationTicks": 24,
                        "midi": 62,
                        "name": "D4",
                        "ticks": 35160,
                        "time": 183.125,
                        "velocity": 0.4015748031496063
                    },
                    {
                        "duration": 0.125,
                        "durationTicks": 24,
                        "midi": 70,
                        "name": "A#4",
                        "ticks": 35184,
                        "time": 183.25,
                        "velocity": 0.4015748031496063
                    },
                    {
                        "duration": 0.125,
                        "durationTicks": 24,
                        "midi": 55,
                        "name": "G3",
                        "ticks": 35208,
                        "time": 183.375,
                        "velocity": 0.4015748031496063
                    },
                    {
                        "duration": 0.125,
                        "durationTicks": 24,
                        "midi": 62,
                        "name": "D4",
                        "ticks": 35232,
                        "time": 183.5,
                        "velocity": 0.4015748031496063
                    },
                    {
                        "duration": 0.125,
                        "durationTicks": 24,
                        "midi": 70,
                        "name": "A#4",
                        "ticks": 35256,
                        "time": 183.625,
                        "velocity": 0.4015748031496063
                    },
                    {
                        "duration": 0.125,
                        "durationTicks": 24,
                        "midi": 55,
                        "name": "G3",
                        "ticks": 35280,
                        "time": 183.75,
                        "velocity": 0.4015748031496063
                    },
                    {
                        "duration": 0.125,
                        "durationTicks": 24,
                        "midi": 62,
                        "name": "D4",
                        "ticks": 35304,
                        "time": 183.875,
                        "velocity": 0.4015748031496063
                    }
                ]
            }
        ]
    },
    {
        "header": {
            "keySignatures": [
                {
                    "key": "G",
                    "scale": "major",
                    "ticks": 0
                }
            ],
            "meta": [],
            "name": "Harry Potter main theme",
            "ppq": 240,
            "tempos": [
                {
                    "bpm": 90.00009000009,
                    "ticks": 0
                }
            ],
            "timeSignatures": [
                {
                    "ticks": 0,
                    "timeSignature": [
                        4,
                        4
                    ],
                    "measures": 0
                },
                {
                    "ticks": 0,
                    "timeSignature": [
                        6,
                        8
                    ],
                    "measures": 0
                }
            ]
        },
        "tracks": [
            {
                "channel": 0,
                "controlChanges": {
                    "7": [
                        {
                            "number": 7,
                            "ticks": 0,
                            "time": 0,
                            "value": 0.8818897637795275
                        }
                    ]
                },
                "pitchBends": [],
                "instrument": {
                    "family": "chromatic percussion",
                    "name": "vibraphone",
                    "number": 11
                },
                "name": "unbenannt1",
                "notes": [
                    {
                        "duration": 0.3333329999999999,
                        "durationTicks": 120,
                        "midi": 71,
                        "name": "B4",
                        "ticks": 600,
                        "time": 1.666665,
                        "velocity": 0.7874015748031497
                    },
                    {
                        "duration": 0.49999950000000015,
                        "durationTicks": 180,
                        "midi": 76,
                        "name": "E5",
                        "ticks": 720,
                        "time": 1.999998,
                        "velocity": 0.7874015748031497
                    },
                    {
                        "duration": 0.16666649999999983,
                        "durationTicks": 60,
                        "midi": 79,
                        "name": "G5",
                        "ticks": 900,
                        "time": 2.4999975,
                        "velocity": 0.7874015748031497
                    },
                    {
                        "duration": 0.3333330000000001,
                        "durationTicks": 120,
                        "midi": 78,
                        "name": "F#5",
                        "ticks": 960,
                        "time": 2.666664,
                        "velocity": 0.7874015748031497
                    },
                    {
                        "duration": 0.6666659999999998,
                        "durationTicks": 240,
                        "midi": 76,
                        "name": "E5",
                        "ticks": 1080,
                        "time": 2.999997,
                        "velocity": 0.7874015748031497
                    },
                    {
                        "duration": 0.3333330000000001,
                        "durationTicks": 120,
                        "midi": 83,
                        "name": "B5",
                        "ticks": 1320,
                        "time": 3.666663,
                        "velocity": 0.7874015748031497
                    },
                    {
                        "duration": 0.9999990000000003,
                        "durationTicks": 360,
                        "midi": 81,
                        "name": "A5",
                        "ticks": 1440,
                        "time": 3.999996,
                        "velocity": 0.7874015748031497
                    },
                    {
                        "duration": 0.9999989999999999,
                        "durationTicks": 360,
                        "midi": 78,
                        "name": "F#5",
                        "ticks": 1800,
                        "time": 4.999995,
                        "velocity": 0.7874015748031497
                    },
                    {
                        "duration": 0.4999994999999995,
                        "durationTicks": 180,
                        "midi": 76,
                        "name": "E5",
                        "ticks": 2160,
                        "time": 5.999994,
                        "velocity": 0.7874015748031497
                    },
                    {
                        "duration": 0.16666650000000072,
                        "durationTicks": 60,
                        "midi": 79,
                        "name": "G5",
                        "ticks": 2340,
                        "time": 6.4999934999999995,
                        "velocity": 0.7874015748031497
                    },
                    {
                        "duration": 0.33333299999999966,
                        "durationTicks": 120,
                        "midi": 78,
                        "name": "F#5",
                        "ticks": 2400,
                        "time": 6.66666,
                        "velocity": 0.7874015748031497
                    },
                    {
                        "duration": 0.6666660000000002,
                        "durationTicks": 240,
                        "midi": 74,
                        "name": "D5",
                        "ticks": 2520,
                        "time": 6.999993,
                        "velocity": 0.7874015748031497
                    },
                    {
                        "duration": 0.33333299999999966,
                        "durationTicks": 120,
                        "midi": 77,
                        "name": "F5",
                        "ticks": 2760,
                        "time": 7.666659,
                        "velocity": 0.7874015748031497
                    },
                    {
                        "duration": 1.6666649999999992,
                        "durationTicks": 600,
                        "midi": 71,
                        "name": "B4",
                        "ticks": 2880,
                        "time": 7.999992,
                        "velocity": 0.7874015748031497
                    },
                    {
                        "duration": 0.33333300000000143,
                        "durationTicks": 120,
                        "midi": 71,
                        "name": "B4",
                        "ticks": 3480,
                        "time": 9.666656999999999,
                        "velocity": 0.7874015748031497
                    },
                    {
                        "duration": 0.4999994999999995,
                        "durationTicks": 180,
                        "midi": 76,
                        "name": "E5",
                        "ticks": 3600,
                        "time": 9.99999,
                        "velocity": 0.7874015748031497
                    },
                    {
                        "duration": 0.16666649999999983,
                        "durationTicks": 60,
                        "midi": 79,
                        "name": "G5",
                        "ticks": 3780,
                        "time": 10.4999895,
                        "velocity": 0.7874015748031497
                    },
                    {
                        "duration": 0.33333299999999966,
                        "durationTicks": 120,
                        "midi": 78,
                        "name": "F#5",
                        "ticks": 3840,
                        "time": 10.666656,
                        "velocity": 0.7874015748031497
                    },
                    {
                        "duration": 0.6666660000000011,
                        "durationTicks": 240,
                        "midi": 76,
                        "name": "E5",
                        "ticks": 3960,
                        "time": 10.999989,
                        "velocity": 0.7874015748031497
                    },
                    {
                        "duration": 0.33333299999999966,
                        "durationTicks": 120,
                        "midi": 83,
                        "name": "B5",
                        "ticks": 4200,
                        "time": 11.666655,
                        "velocity": 0.7874015748031497
                    },
                    {
                        "duration": 0.6666659999999993,
                        "durationTicks": 240,
                        "midi": 86,
                        "name": "D6",
                        "ticks": 4320,
                        "time": 11.999988,
                        "velocity": 0.7874015748031497
                    },
                    {
                        "duration": 0.33333299999999966,
                        "durationTicks": 120,
                        "midi": 85,
                        "name": "C#6",
                        "ticks": 4560,
                        "time": 12.666654,
                        "velocity": 0.7874015748031497
                    },
                    {
                        "duration": 0.6666660000000011,
                        "durationTicks": 240,
                        "midi": 84,
                        "name": "C6",
                        "ticks": 4680,
                        "time": 12.999986999999999,
                        "velocity": 0.7874015748031497
                    },
                    {
                        "duration": 0.33333299999999966,
                        "durationTicks": 120,
                        "midi": 80,
                        "name": "G#5",
                        "ticks": 4920,
                        "time": 13.666653,
                        "velocity": 0.7874015748031497
                    },
                    {
                        "duration": 0.4999994999999995,
                        "durationTicks": 180,
                        "midi": 84,
                        "name": "C6",
                        "ticks": 5040,
                        "time": 13.999986,
                        "velocity": 0.7874015748031497
                    },
                    {
                        "duration": 0.16666649999999983,
                        "durationTicks": 60,
                        "midi": 83,
                        "name": "B5",
                        "ticks": 5220,
                        "time": 14.4999855,
                        "velocity": 0.7874015748031497
                    },
                    {
                        "duration": 0.33333299999999966,
                        "durationTicks": 120,
                        "midi": 82,
                        "name": "A#5",
                        "ticks": 5280,
                        "time": 14.666652,
                        "velocity": 0.7874015748031497
                    },
                    {
                        "duration": 0.6666660000000011,
                        "durationTicks": 240,
                        "midi": 78,
                        "name": "F#5",
                        "ticks": 5400,
                        "time": 14.999984999999999,
                        "velocity": 0.7874015748031497
                    },
                    {
                        "duration": 0.33333299999999966,
                        "durationTicks": 120,
                        "midi": 79,
                        "name": "G5",
                        "ticks": 5640,
                        "time": 15.666651,
                        "velocity": 0.7874015748031497
                    },
                    {
                        "duration": 1.666665,
                        "durationTicks": 600,
                        "midi": 76,
                        "name": "E5",
                        "ticks": 5760,
                        "time": 15.999984,
                        "velocity": 0.7874015748031497
                    },
                    {
                        "duration": 0.33333299999999966,
                        "durationTicks": 120,
                        "midi": 79,
                        "name": "G5",
                        "ticks": 6360,
                        "time": 17.666649,
                        "velocity": 0.7874015748031497
                    },
                    {
                        "duration": 0.6666659999999993,
                        "durationTicks": 240,
                        "midi": 83,
                        "name": "B5",
                        "ticks": 6480,
                        "time": 17.999982,
                        "velocity": 0.7874015748031497
                    },
                    {
                        "duration": 0.33333299999999966,
                        "durationTicks": 120,
                        "midi": 79,
                        "name": "G5",
                        "ticks": 6720,
                        "time": 18.666648,
                        "velocity": 0.7874015748031497
                    },
                    {
                        "duration": 0.6666660000000029,
                        "durationTicks": 240,
                        "midi": 83,
                        "name": "B5",
                        "ticks": 6840,
                        "time": 18.999981,
                        "velocity": 0.7874015748031497
                    },
                    {
                        "duration": 0.33333299999999966,
                        "durationTicks": 120,
                        "midi": 79,
                        "name": "G5",
                        "ticks": 7080,
                        "time": 19.666647,
                        "velocity": 0.7874015748031497
                    },
                    {
                        "duration": 0.6666659999999993,
                        "durationTicks": 240,
                        "midi": 84,
                        "name": "C6",
                        "ticks": 7200,
                        "time": 19.99998,
                        "velocity": 0.7874015748031497
                    },
                    {
                        "duration": 0.33333299999999966,
                        "durationTicks": 120,
                        "midi": 83,
                        "name": "B5",
                        "ticks": 7440,
                        "time": 20.666646,
                        "velocity": 0.7874015748031497
                    },
                    {
                        "duration": 0.6666659999999993,
                        "durationTicks": 240,
                        "midi": 82,
                        "name": "A#5",
                        "ticks": 7560,
                        "time": 20.999979,
                        "velocity": 0.7874015748031497
                    },
                    {
                        "duration": 0.33333299999999966,
                        "durationTicks": 120,
                        "midi": 78,
                        "name": "F#5",
                        "ticks": 7800,
                        "time": 21.666645,
                        "velocity": 0.7874015748031497
                    },
                    {
                        "duration": 0.49999950000000126,
                        "durationTicks": 180,
                        "midi": 79,
                        "name": "G5",
                        "ticks": 7920,
                        "time": 21.999978,
                        "velocity": 0.7874015748031497
                    },
                    {
                        "duration": 0.16666649999999805,
                        "durationTicks": 60,
                        "midi": 83,
                        "name": "B5",
                        "ticks": 8100,
                        "time": 22.4999775,
                        "velocity": 0.7874015748031497
                    },
                    {
                        "duration": 0.33333299999999966,
                        "durationTicks": 120,
                        "midi": 82,
                        "name": "A#5",
                        "ticks": 8160,
                        "time": 22.666643999999998,
                        "velocity": 0.7874015748031497
                    },
                    {
                        "duration": 0.6666660000000029,
                        "durationTicks": 240,
                        "midi": 70,
                        "name": "A#4",
                        "ticks": 8280,
                        "time": 22.999976999999998,
                        "velocity": 0.7874015748031497
                    },
                    {
                        "duration": 0.33333299999999966,
                        "durationTicks": 120,
                        "midi": 71,
                        "name": "B4",
                        "ticks": 8520,
                        "time": 23.666643,
                        "velocity": 0.7874015748031497
                    },
                    {
                        "duration": 1.6666649999999983,
                        "durationTicks": 600,
                        "midi": 83,
                        "name": "B5",
                        "ticks": 8640,
                        "time": 23.999976,
                        "velocity": 0.7874015748031497
                    },
                    {
                        "duration": 0.33333299999999966,
                        "durationTicks": 120,
                        "midi": 79,
                        "name": "G5",
                        "ticks": 9240,
                        "time": 25.666641,
                        "velocity": 0.7874015748031497
                    },
                    {
                        "duration": 0.6666660000000029,
                        "durationTicks": 240,
                        "midi": 83,
                        "name": "B5",
                        "ticks": 9360,
                        "time": 25.999973999999998,
                        "velocity": 0.7874015748031497
                    },
                    {
                        "duration": 0.33333299999999966,
                        "durationTicks": 120,
                        "midi": 79,
                        "name": "G5",
                        "ticks": 9600,
                        "time": 26.66664,
                        "velocity": 0.7874015748031497
                    },
                    {
                        "duration": 0.6666659999999993,
                        "durationTicks": 240,
                        "midi": 83,
                        "name": "B5",
                        "ticks": 9720,
                        "time": 26.999973,
                        "velocity": 0.7874015748031497
                    },
                    {
                        "duration": 0.33333299999999966,
                        "durationTicks": 120,
                        "midi": 79,
                        "name": "G5",
                        "ticks": 9960,
                        "time": 27.666639,
                        "velocity": 0.7874015748031497
                    },
                    {
                        "duration": 0.6666659999999993,
                        "durationTicks": 240,
                        "midi": 86,
                        "name": "D6",
                        "ticks": 10080,
                        "time": 27.999972,
                        "velocity": 0.7874015748031497
                    },
                    {
                        "duration": 0.33333299999999966,
                        "durationTicks": 120,
                        "midi": 85,
                        "name": "C#6",
                        "ticks": 10320,
                        "time": 28.666638,
                        "velocity": 0.7874015748031497
                    },
                    {
                        "duration": 0.6666659999999993,
                        "durationTicks": 240,
                        "midi": 84,
                        "name": "C6",
                        "ticks": 10440,
                        "time": 28.999971,
                        "velocity": 0.7874015748031497
                    },
                    {
                        "duration": 0.33333299999999966,
                        "durationTicks": 120,
                        "midi": 80,
                        "name": "G#5",
                        "ticks": 10680,
                        "time": 29.666636999999998,
                        "velocity": 0.7874015748031497
                    },
                    {
                        "duration": 0.49999950000000126,
                        "durationTicks": 180,
                        "midi": 84,
                        "name": "C6",
                        "ticks": 10800,
                        "time": 29.999969999999998,
                        "velocity": 0.7874015748031497
                    },
                    {
                        "duration": 0.1666665000000016,
                        "durationTicks": 60,
                        "midi": 83,
                        "name": "B5",
                        "ticks": 10980,
                        "time": 30.4999695,
                        "velocity": 0.7874015748031497
                    },
                    {
                        "duration": 0.33333299999999966,
                        "durationTicks": 120,
                        "midi": 82,
                        "name": "A#5",
                        "ticks": 11040,
                        "time": 30.666636,
                        "velocity": 0.7874015748031497
                    },
                    {
                        "duration": 0.6666659999999993,
                        "durationTicks": 240,
                        "midi": 78,
                        "name": "F#5",
                        "ticks": 11160,
                        "time": 30.999969,
                        "velocity": 0.7874015748031497
                    },
                    {
                        "duration": 0.33333299999999966,
                        "durationTicks": 120,
                        "midi": 79,
                        "name": "G5",
                        "ticks": 11400,
                        "time": 31.666635,
                        "velocity": 0.7874015748031497
                    },
                    {
                        "duration": 1.6666649999999983,
                        "durationTicks": 600,
                        "midi": 76,
                        "name": "E5",
                        "ticks": 11520,
                        "time": 31.999968,
                        "velocity": 0.7874015748031497
                    }
                ]
            }
        ]
    },
    {
        "header": {
            "keySignatures": [
                {
                    "key": "C",
                    "scale": "major",
                    "ticks": 0
                }
            ],
            "meta": [
                {
                    "text": "Scott Joplin",
                    "ticks": 0,
                    "type": "text"
                }
            ],
            "name": "The Entertainer",
            "ppq": 256,
            "tempos": [
                {
                    "bpm": 160,
                    "ticks": 0
                }
            ],
            "timeSignatures": [
                {
                    "ticks": 0,
                    "timeSignature": [
                        4,
                        4
                    ],
                    "measures": 0
                },
                {
                    "ticks": 19456,
                    "timeSignature": [
                        5,
                        8
                    ],
                    "measures": 19
                },
                {
                    "ticks": 20096,
                    "timeSignature": [
                        3,
                        8
                    ],
                    "measures": 19.25
                },
                {
                    "ticks": 20480,
                    "timeSignature": [
                        4,
                        4
                    ],
                    "measures": 19.5
                },
                {
                    "ticks": 44032,
                    "timeSignature": [
                        13,
                        8
                    ],
                    "measures": 42.5
                }
            ]
        },
        "tracks": [
            {
                "channel": 0,
                "controlChanges": {
                    "7": [
                        {
                            "number": 7,
                            "ticks": 0,
                            "time": 0,
                            "value": 0.7874015748031497
                        }
                    ],
                    "10": [
                        {
                            "number": 10,
                            "ticks": 0,
                            "time": 0,
                            "value": 0.5039370078740157
                        }
                    ],
                    "64": [
                        {
                            "number": 64,
                            "ticks": 0,
                            "time": 0,
                            "value": 0
                        }
                    ],
                    "91": [
                        {
                            "number": 91,
                            "ticks": 0,
                            "time": 0,
                            "value": 0.3779527559055118
                        }
                    ],
                    "121": [
                        {
                            "number": 121,
                            "ticks": 0,
                            "time": 0,
                            "value": 0
                        }
                    ]
                },
                "pitchBends": [],
                "instrument": {
                    "family": "piano",
                    "name": "acoustic grand piano",
                    "number": 0
                },
                "name": " ",
                "notes": [
                    {
                        "duration": 0.1904296875,
                        "durationTicks": 130,
                        "midi": 98,
                        "name": "D7",
                        "ticks": 0,
                        "time": 0,
                        "velocity": 0.6614173228346457
                    },
                    {
                        "duration": 0.1904296875,
                        "durationTicks": 130,
                        "midi": 100,
                        "name": "E7",
                        "ticks": 128,
                        "time": 0.1875,
                        "velocity": 0.6692913385826772
                    },
                    {
                        "duration": 0.1904296875,
                        "durationTicks": 130,
                        "midi": 96,
                        "name": "C7",
                        "ticks": 256,
                        "time": 0.375,
                        "velocity": 0.6377952755905512
                    },
                    {
                        "duration": 0.38232421875,
                        "durationTicks": 261,
                        "midi": 93,
                        "name": "A6",
                        "ticks": 384,
                        "time": 0.5625,
                        "velocity": 0.5826771653543307
                    },
                    {
                        "duration": 0.1904296875,
                        "durationTicks": 130,
                        "midi": 95,
                        "name": "B6",
                        "ticks": 640,
                        "time": 0.9375,
                        "velocity": 0.8188976377952756
                    },
                    {
                        "duration": 0.17724609375,
                        "durationTicks": 121,
                        "midi": 91,
                        "name": "G6",
                        "ticks": 768,
                        "time": 1.125,
                        "velocity": 0.7480314960629921
                    },
                    {
                        "duration": 0.1904296875,
                        "durationTicks": 130,
                        "midi": 86,
                        "name": "D6",
                        "ticks": 1024,
                        "time": 1.5,
                        "velocity": 0.6535433070866141
                    },
                    {
                        "duration": 0.1904296875,
                        "durationTicks": 130,
                        "midi": 88,
                        "name": "E6",
                        "ticks": 1152,
                        "time": 1.6875,
                        "velocity": 0.6771653543307087
                    },
                    {
                        "duration": 0.1904296875,
                        "durationTicks": 130,
                        "midi": 84,
                        "name": "C6",
                        "ticks": 1280,
                        "time": 1.875,
                        "velocity": 0.6614173228346457
                    },
                    {
                        "duration": 0.38232421875,
                        "durationTicks": 261,
                        "midi": 81,
                        "name": "A5",
                        "ticks": 1408,
                        "time": 2.0625,
                        "velocity": 0.5826771653543307
                    },
                    {
                        "duration": 0.1904296875,
                        "durationTicks": 130,
                        "midi": 83,
                        "name": "B5",
                        "ticks": 1664,
                        "time": 2.4375,
                        "velocity": 0.7952755905511811
                    },
                    {
                        "duration": 0.17724609375,
                        "durationTicks": 121,
                        "midi": 67,
                        "name": "G4",
                        "ticks": 1792,
                        "time": 2.625,
                        "velocity": 0.7086614173228346
                    },
                    {
                        "duration": 0.1904296875,
                        "durationTicks": 130,
                        "midi": 74,
                        "name": "D5",
                        "ticks": 2048,
                        "time": 3,
                        "velocity": 0.8976377952755905
                    },
                    {
                        "duration": 0.1904296875,
                        "durationTicks": 130,
                        "midi": 76,
                        "name": "E5",
                        "ticks": 2176,
                        "time": 3.1875,
                        "velocity": 0.952755905511811
                    },
                    {
                        "duration": 0.1904296875,
                        "durationTicks": 130,
                        "midi": 72,
                        "name": "C5",
                        "ticks": 2304,
                        "time": 3.375,
                        "velocity": 0.6929133858267716
                    },
                    {
                        "duration": 0.38232421875,
                        "durationTicks": 261,
                        "midi": 69,
                        "name": "A4",
                        "ticks": 2432,
                        "time": 3.5625,
                        "velocity": 0.6220472440944882
                    },
                    {
                        "duration": 0.1904296875,
                        "durationTicks": 130,
                        "midi": 71,
                        "name": "B4",
                        "ticks": 2688,
                        "time": 3.9375,
                        "velocity": 0.8346456692913385
                    },
                    {
                        "duration": 0.1904296875,
                        "durationTicks": 130,
                        "midi": 69,
                        "name": "A4",
                        "ticks": 2816,
                        "time": 4.125,
                        "velocity": 0.8031496062992126
                    },
                    {
                        "duration": 0.1904296875,
                        "durationTicks": 130,
                        "midi": 68,
                        "name": "G#4",
                        "ticks": 2944,
                        "time": 4.3125,
                        "velocity": 0.7244094488188977
                    },
                    {
                        "duration": 0.17724609375,
                        "durationTicks": 121,
                        "midi": 67,
                        "name": "G4",
                        "ticks": 3072,
                        "time": 4.5,
                        "velocity": 0.8188976377952756
                    },
                    {
                        "duration": 0.1875,
                        "durationTicks": 128,
                        "midi": 71,
                        "name": "B4",
                        "ticks": 3584,
                        "time": 5.25,
                        "velocity": 0.84251968503937
                    },
                    {
                        "duration": 0.1875,
                        "durationTicks": 128,
                        "midi": 79,
                        "name": "G5",
                        "ticks": 3584,
                        "time": 5.25,
                        "velocity": 0.84251968503937
                    },
                    {
                        "duration": 0.1904296875,
                        "durationTicks": 130,
                        "midi": 62,
                        "name": "D4",
                        "ticks": 3840,
                        "time": 5.625,
                        "velocity": 0.5433070866141733
                    },
                    {
                        "duration": 0.17724609375,
                        "durationTicks": 121,
                        "midi": 63,
                        "name": "D#4",
                        "ticks": 3968,
                        "time": 5.8125,
                        "velocity": 0.5118110236220472
                    },
                    {
                        "duration": 0.1904296875,
                        "durationTicks": 130,
                        "midi": 64,
                        "name": "E4",
                        "ticks": 4096,
                        "time": 6,
                        "velocity": 0.8188976377952756
                    },
                    {
                        "duration": 0.38232421875,
                        "durationTicks": 261,
                        "midi": 72,
                        "name": "C5",
                        "ticks": 4224,
                        "time": 6.1875,
                        "velocity": 1
                    },
                    {
                        "duration": 0.1904296875,
                        "durationTicks": 130,
                        "midi": 64,
                        "name": "E4",
                        "ticks": 4480,
                        "time": 6.5625,
                        "velocity": 0.6220472440944882
                    },
                    {
                        "duration": 0.38232421875,
                        "durationTicks": 261,
                        "midi": 72,
                        "name": "C5",
                        "ticks": 4608,
                        "time": 6.75,
                        "velocity": 0.7086614173228346
                    },
                    {
                        "duration": 0.1904296875,
                        "durationTicks": 130,
                        "midi": 64,
                        "name": "E4",
                        "ticks": 4864,
                        "time": 7.125,
                        "velocity": 0.6456692913385826
                    },
                    {
                        "duration": 1.06787109375,
                        "durationTicks": 729,
                        "midi": 72,
                        "name": "C5",
                        "ticks": 4992,
                        "time": 7.3125,
                        "velocity": 0.7559055118110236
                    },
                    {
                        "duration": 0.1904296875,
                        "durationTicks": 130,
                        "midi": 72,
                        "name": "C5",
                        "ticks": 5760,
                        "time": 8.4375,
                        "velocity": 0.7637795275590551
                    },
                    {
                        "duration": 0.1904296875,
                        "durationTicks": 130,
                        "midi": 74,
                        "name": "D5",
                        "ticks": 5888,
                        "time": 8.625,
                        "velocity": 0.7795275590551181
                    },
                    {
                        "duration": 0.1904296875,
                        "durationTicks": 130,
                        "midi": 75,
                        "name": "D#5",
                        "ticks": 6016,
                        "time": 8.8125,
                        "velocity": 0.8740157480314961
                    },
                    {
                        "duration": 0.1904296875,
                        "durationTicks": 130,
                        "midi": 76,
                        "name": "E5",
                        "ticks": 6144,
                        "time": 9,
                        "velocity": 0.9133858267716536
                    },
                    {
                        "duration": 0.1904296875,
                        "durationTicks": 130,
                        "midi": 72,
                        "name": "C5",
                        "ticks": 6272,
                        "time": 9.1875,
                        "velocity": 0.6929133858267716
                    },
                    {
                        "duration": 0.1904296875,
                        "durationTicks": 130,
                        "midi": 74,
                        "name": "D5",
                        "ticks": 6400,
                        "time": 9.375,
                        "velocity": 0.7322834645669292
                    },
                    {
                        "duration": 0.38232421875,
                        "durationTicks": 261,
                        "midi": 76,
                        "name": "E5",
                        "ticks": 6528,
                        "time": 9.5625,
                        "velocity": 0.84251968503937
                    },
                    {
                        "duration": 0.1904296875,
                        "durationTicks": 130,
                        "midi": 71,
                        "name": "B4",
                        "ticks": 6784,
                        "time": 9.9375,
                        "velocity": 0.7244094488188977
                    },
                    {
                        "duration": 0.38232421875,
                        "durationTicks": 261,
                        "midi": 74,
                        "name": "D5",
                        "ticks": 6912,
                        "time": 10.125,
                        "velocity": 0.8346456692913385
                    },
                    {
                        "duration": 1.06787109375,
                        "durationTicks": 729,
                        "midi": 72,
                        "name": "C5",
                        "ticks": 7168,
                        "time": 10.5,
                        "velocity": 0.7401574803149606
                    },
                    {
                        "duration": 0.1904296875,
                        "durationTicks": 130,
                        "midi": 62,
                        "name": "D4",
                        "ticks": 7936,
                        "time": 11.625,
                        "velocity": 0.6456692913385826
                    },
                    {
                        "duration": 0.1904296875,
                        "durationTicks": 130,
                        "midi": 63,
                        "name": "D#4",
                        "ticks": 8064,
                        "time": 11.8125,
                        "velocity": 0.7086614173228346
                    },
                    {
                        "duration": 0.1904296875,
                        "durationTicks": 130,
                        "midi": 64,
                        "name": "E4",
                        "ticks": 8192,
                        "time": 12,
                        "velocity": 0.8346456692913385
                    },
                    {
                        "duration": 0.38232421875,
                        "durationTicks": 261,
                        "midi": 72,
                        "name": "C5",
                        "ticks": 8320,
                        "time": 12.1875,
                        "velocity": 0.984251968503937
                    },
                    {
                        "duration": 0.1904296875,
                        "durationTicks": 130,
                        "midi": 64,
                        "name": "E4",
                        "ticks": 8576,
                        "time": 12.5625,
                        "velocity": 0.6771653543307087
                    },
                    {
                        "duration": 0.38232421875,
                        "durationTicks": 261,
                        "midi": 72,
                        "name": "C5",
                        "ticks": 8704,
                        "time": 12.75,
                        "velocity": 0.7637795275590551
                    },
                    {
                        "duration": 0.1904296875,
                        "durationTicks": 130,
                        "midi": 64,
                        "name": "E4",
                        "ticks": 8960,
                        "time": 13.125,
                        "velocity": 0.6535433070866141
                    },
                    {
                        "duration": 1.24658203125,
                        "durationTicks": 851,
                        "midi": 72,
                        "name": "C5",
                        "ticks": 9088,
                        "time": 13.3125,
                        "velocity": 0.7716535433070866
                    },
                    {
                        "duration": 0.1904296875,
                        "durationTicks": 130,
                        "midi": 69,
                        "name": "A4",
                        "ticks": 9984,
                        "time": 14.625,
                        "velocity": 0.7165354330708661
                    },
                    {
                        "duration": 0.1904296875,
                        "durationTicks": 130,
                        "midi": 67,
                        "name": "G4",
                        "ticks": 10112,
                        "time": 14.8125,
                        "velocity": 0.6535433070866141
                    },
                    {
                        "duration": 0.1904296875,
                        "durationTicks": 130,
                        "midi": 66,
                        "name": "F#4",
                        "ticks": 10240,
                        "time": 15,
                        "velocity": 0.7716535433070866
                    },
                    {
                        "duration": 0.1904296875,
                        "durationTicks": 130,
                        "midi": 69,
                        "name": "A4",
                        "ticks": 10368,
                        "time": 15.1875,
                        "velocity": 0.8031496062992126
                    },
                    {
                        "duration": 0.1904296875,
                        "durationTicks": 130,
                        "midi": 72,
                        "name": "C5",
                        "ticks": 10496,
                        "time": 15.375,
                        "velocity": 0.8582677165354331
                    },
                    {
                        "duration": 0.38232421875,
                        "durationTicks": 261,
                        "midi": 76,
                        "name": "E5",
                        "ticks": 10624,
                        "time": 15.5625,
                        "velocity": 0.952755905511811
                    },
                    {
                        "duration": 0.1904296875,
                        "durationTicks": 130,
                        "midi": 74,
                        "name": "D5",
                        "ticks": 10880,
                        "time": 15.9375,
                        "velocity": 0.6929133858267716
                    },
                    {
                        "duration": 0.1904296875,
                        "durationTicks": 130,
                        "midi": 72,
                        "name": "C5",
                        "ticks": 11008,
                        "time": 16.125,
                        "velocity": 0.6535433070866141
                    },
                    {
                        "duration": 0.1904296875,
                        "durationTicks": 130,
                        "midi": 69,
                        "name": "A4",
                        "ticks": 11136,
                        "time": 16.3125,
                        "velocity": 0.7480314960629921
                    },
                    {
                        "duration": 1.06787109375,
                        "durationTicks": 729,
                        "midi": 74,
                        "name": "D5",
                        "ticks": 11264,
                        "time": 16.5,
                        "velocity": 0.8188976377952756
                    },
                    {
                        "duration": 0.1904296875,
                        "durationTicks": 130,
                        "midi": 62,
                        "name": "D4",
                        "ticks": 12032,
                        "time": 17.625,
                        "velocity": 0.5826771653543307
                    },
                    {
                        "duration": 0.1904296875,
                        "durationTicks": 130,
                        "midi": 63,
                        "name": "D#4",
                        "ticks": 12160,
                        "time": 17.8125,
                        "velocity": 0.5590551181102362
                    },
                    {
                        "duration": 0.1904296875,
                        "durationTicks": 130,
                        "midi": 64,
                        "name": "E4",
                        "ticks": 12288,
                        "time": 18,
                        "velocity": 0.8661417322834646
                    },
                    {
                        "duration": 0.38232421875,
                        "durationTicks": 261,
                        "midi": 72,
                        "name": "C5",
                        "ticks": 12416,
                        "time": 18.1875,
                        "velocity": 1
                    },
                    {
                        "duration": 0.1904296875,
                        "durationTicks": 130,
                        "midi": 64,
                        "name": "E4",
                        "ticks": 12672,
                        "time": 18.5625,
                        "velocity": 0.6692913385826772
                    },
                    {
                        "duration": 0.38232421875,
                        "durationTicks": 261,
                        "midi": 72,
                        "name": "C5",
                        "ticks": 12800,
                        "time": 18.75,
                        "velocity": 0.7952755905511811
                    },
                    {
                        "duration": 0.1904296875,
                        "durationTicks": 130,
                        "midi": 64,
                        "name": "E4",
                        "ticks": 13056,
                        "time": 19.125,
                        "velocity": 0.6850393700787402
                    },
                    {
                        "duration": 1.06787109375,
                        "durationTicks": 729,
                        "midi": 72,
                        "name": "C5",
                        "ticks": 13184,
                        "time": 19.3125,
                        "velocity": 0.7716535433070866
                    },
                    {
                        "duration": 0.1904296875,
                        "durationTicks": 130,
                        "midi": 72,
                        "name": "C5",
                        "ticks": 13952,
                        "time": 20.4375,
                        "velocity": 0.8188976377952756
                    },
                    {
                        "duration": 0.1904296875,
                        "durationTicks": 130,
                        "midi": 74,
                        "name": "D5",
                        "ticks": 14080,
                        "time": 20.625,
                        "velocity": 0.889763779527559
                    },
                    {
                        "duration": 0.1904296875,
                        "durationTicks": 130,
                        "midi": 75,
                        "name": "D#5",
                        "ticks": 14208,
                        "time": 20.8125,
                        "velocity": 0.8346456692913385
                    },
                    {
                        "duration": 0.1904296875,
                        "durationTicks": 130,
                        "midi": 76,
                        "name": "E5",
                        "ticks": 14336,
                        "time": 21,
                        "velocity": 0.8818897637795275
                    },
                    {
                        "duration": 0.1904296875,
                        "durationTicks": 130,
                        "midi": 72,
                        "name": "C5",
                        "ticks": 14464,
                        "time": 21.1875,
                        "velocity": 0.7086614173228346
                    },
                    {
                        "duration": 0.1904296875,
                        "durationTicks": 130,
                        "midi": 74,
                        "name": "D5",
                        "ticks": 14592,
                        "time": 21.375,
                        "velocity": 0.7244094488188977
                    },
                    {
                        "duration": 0.38232421875,
                        "durationTicks": 261,
                        "midi": 76,
                        "name": "E5",
                        "ticks": 14720,
                        "time": 21.5625,
                        "velocity": 0.8740157480314961
                    },
                    {
                        "duration": 0.1904296875,
                        "durationTicks": 130,
                        "midi": 71,
                        "name": "B4",
                        "ticks": 14976,
                        "time": 21.9375,
                        "velocity": 0.7480314960629921
                    },
                    {
                        "duration": 0.38232421875,
                        "durationTicks": 261,
                        "midi": 74,
                        "name": "D5",
                        "ticks": 15104,
                        "time": 22.125,
                        "velocity": 0.8740157480314961
                    },
                    {
                        "duration": 1.06787109375,
                        "durationTicks": 729,
                        "midi": 72,
                        "name": "C5",
                        "ticks": 15360,
                        "time": 22.5,
                        "velocity": 0.8346456692913385
                    },
                    {
                        "duration": 0.1904296875,
                        "durationTicks": 130,
                        "midi": 72,
                        "name": "C5",
                        "ticks": 16128,
                        "time": 23.625,
                        "velocity": 0.7952755905511811
                    },
                    {
                        "duration": 0.1904296875,
                        "durationTicks": 130,
                        "midi": 74,
                        "name": "D5",
                        "ticks": 16256,
                        "time": 23.8125,
                        "velocity": 0.8661417322834646
                    },
                    {
                        "duration": 0.1904296875,
                        "durationTicks": 130,
                        "midi": 76,
                        "name": "E5",
                        "ticks": 16384,
                        "time": 24,
                        "velocity": 0.8661417322834646
                    },
                    {
                        "duration": 0.1904296875,
                        "durationTicks": 130,
                        "midi": 72,
                        "name": "C5",
                        "ticks": 16512,
                        "time": 24.1875,
                        "velocity": 0.7716535433070866
                    },
                    {
                        "duration": 0.1904296875,
                        "durationTicks": 130,
                        "midi": 74,
                        "name": "D5",
                        "ticks": 16640,
                        "time": 24.375,
                        "velocity": 0.8267716535433071
                    },
                    {
                        "duration": 0.35595703125,
                        "durationTicks": 243,
                        "midi": 76,
                        "name": "E5",
                        "ticks": 16768,
                        "time": 24.5625,
                        "velocity": 0.889763779527559
                    },
                    {
                        "duration": 0.1904296875,
                        "durationTicks": 130,
                        "midi": 72,
                        "name": "C5",
                        "ticks": 17024,
                        "time": 24.9375,
                        "velocity": 0.6850393700787402
                    },
                    {
                        "duration": 0.1904296875,
                        "durationTicks": 130,
                        "midi": 74,
                        "name": "D5",
                        "ticks": 17152,
                        "time": 25.125,
                        "velocity": 0.7322834645669292
                    },
                    {
                        "duration": 0.1904296875,
                        "durationTicks": 130,
                        "midi": 72,
                        "name": "C5",
                        "ticks": 17280,
                        "time": 25.3125,
                        "velocity": 0.7559055118110236
                    },
                    {
                        "duration": 0.1904296875,
                        "durationTicks": 130,
                        "midi": 76,
                        "name": "E5",
                        "ticks": 17408,
                        "time": 25.5,
                        "velocity": 0.8110236220472441
                    },
                    {
                        "duration": 0.1904296875,
                        "durationTicks": 130,
                        "midi": 72,
                        "name": "C5",
                        "ticks": 17536,
                        "time": 25.6875,
                        "velocity": 0.7480314960629921
                    },
                    {
                        "duration": 0.1904296875,
                        "durationTicks": 130,
                        "midi": 74,
                        "name": "D5",
                        "ticks": 17664,
                        "time": 25.875,
                        "velocity": 0.7952755905511811
                    },
                    {
                        "duration": 0.35595703125,
                        "durationTicks": 243,
                        "midi": 76,
                        "name": "E5",
                        "ticks": 17792,
                        "time": 26.0625,
                        "velocity": 0.84251968503937
                    },
                    {
                        "duration": 0.1904296875,
                        "durationTicks": 130,
                        "midi": 72,
                        "name": "C5",
                        "ticks": 18048,
                        "time": 26.4375,
                        "velocity": 0.7007874015748031
                    },
                    {
                        "duration": 0.1904296875,
                        "durationTicks": 130,
                        "midi": 74,
                        "name": "D5",
                        "ticks": 18176,
                        "time": 26.625,
                        "velocity": 0.7244094488188977
                    },
                    {
                        "duration": 0.1904296875,
                        "durationTicks": 130,
                        "midi": 72,
                        "name": "C5",
                        "ticks": 18304,
                        "time": 26.8125,
                        "velocity": 0.7795275590551181
                    },
                    {
                        "duration": 0.1904296875,
                        "durationTicks": 130,
                        "midi": 76,
                        "name": "E5",
                        "ticks": 18432,
                        "time": 27,
                        "velocity": 0.8503937007874016
                    },
                    {
                        "duration": 0.1904296875,
                        "durationTicks": 130,
                        "midi": 72,
                        "name": "C5",
                        "ticks": 18560,
                        "time": 27.1875,
                        "velocity": 0.7086614173228346
                    },
                    {
                        "duration": 0.1904296875,
                        "durationTicks": 130,
                        "midi": 74,
                        "name": "D5",
                        "ticks": 18688,
                        "time": 27.375,
                        "velocity": 0.7637795275590551
                    },
                    {
                        "duration": 0.38232421875,
                        "durationTicks": 261,
                        "midi": 76,
                        "name": "E5",
                        "ticks": 18816,
                        "time": 27.5625,
                        "velocity": 0.8346456692913385
                    },
                    {
                        "duration": 0.1904296875,
                        "durationTicks": 130,
                        "midi": 71,
                        "name": "B4",
                        "ticks": 19072,
                        "time": 27.9375,
                        "velocity": 0.7401574803149606
                    },
                    {
                        "duration": 0.38232421875,
                        "durationTicks": 261,
                        "midi": 74,
                        "name": "D5",
                        "ticks": 19200,
                        "time": 28.125,
                        "velocity": 0.8503937007874016
                    },
                    {
                        "duration": 0.890625,
                        "durationTicks": 608,
                        "midi": 72,
                        "name": "C5",
                        "ticks": 19456,
                        "time": 28.5,
                        "velocity": 0.8188976377952756
                    },
                    {
                        "duration": 0.1904296875,
                        "durationTicks": 130,
                        "midi": 64,
                        "name": "E4",
                        "ticks": 20096,
                        "time": 29.4375,
                        "velocity": 0.6299212598425197
                    },
                    {
                        "duration": 0.1904296875,
                        "durationTicks": 130,
                        "midi": 65,
                        "name": "F4",
                        "ticks": 20224,
                        "time": 29.625,
                        "velocity": 0.6377952755905512
                    },
                    {
                        "duration": 0.1904296875,
                        "durationTicks": 130,
                        "midi": 66,
                        "name": "F#4",
                        "ticks": 20352,
                        "time": 29.8125,
                        "velocity": 0.8346456692913385
                    },
                    {
                        "duration": 0.38232421875,
                        "durationTicks": 261,
                        "midi": 67,
                        "name": "G4",
                        "ticks": 20480,
                        "time": 30,
                        "velocity": 0.9212598425196851
                    },
                    {
                        "duration": 0.1904296875,
                        "durationTicks": 130,
                        "midi": 69,
                        "name": "A4",
                        "ticks": 20736,
                        "time": 30.375,
                        "velocity": 0.8661417322834646
                    },
                    {
                        "duration": 0.35595703125,
                        "durationTicks": 243,
                        "midi": 67,
                        "name": "G4",
                        "ticks": 20864,
                        "time": 30.5625,
                        "velocity": 0.8346456692913385
                    },
                    {
                        "duration": 0.1904296875,
                        "durationTicks": 130,
                        "midi": 64,
                        "name": "E4",
                        "ticks": 21120,
                        "time": 30.9375,
                        "velocity": 0.7086614173228346
                    },
                    {
                        "duration": 0.1904296875,
                        "durationTicks": 130,
                        "midi": 65,
                        "name": "F4",
                        "ticks": 21248,
                        "time": 31.125,
                        "velocity": 0.7086614173228346
                    },
                    {
                        "duration": 0.1904296875,
                        "durationTicks": 130,
                        "midi": 66,
                        "name": "F#4",
                        "ticks": 21376,
                        "time": 31.3125,
                        "velocity": 0.8582677165354331
                    },
                    {
                        "duration": 0.38232421875,
                        "durationTicks": 261,
                        "midi": 67,
                        "name": "G4",
                        "ticks": 21504,
                        "time": 31.5,
                        "velocity": 0.905511811023622
                    },
                    {
                        "duration": 0.1904296875,
                        "durationTicks": 130,
                        "midi": 69,
                        "name": "A4",
                        "ticks": 21760,
                        "time": 31.875,
                        "velocity": 0.84251968503937
                    },
                    {
                        "duration": 0.35595703125,
                        "durationTicks": 243,
                        "midi": 67,
                        "name": "G4",
                        "ticks": 21888,
                        "time": 32.0625,
                        "velocity": 0.8110236220472441
                    },
                    {
                        "duration": 0.1904296875,
                        "durationTicks": 130,
                        "midi": 76,
                        "name": "E5",
                        "ticks": 22144,
                        "time": 32.4375,
                        "velocity": 0.9606299212598425
                    },
                    {
                        "duration": 0.1904296875,
                        "durationTicks": 130,
                        "midi": 72,
                        "name": "C5",
                        "ticks": 22272,
                        "time": 32.625,
                        "velocity": 0.8818897637795275
                    },
                    {
                        "duration": 0.1904296875,
                        "durationTicks": 130,
                        "midi": 67,
                        "name": "G4",
                        "ticks": 22400,
                        "time": 32.8125,
                        "velocity": 0.6614173228346457
                    },
                    {
                        "duration": 0.1904296875,
                        "durationTicks": 130,
                        "midi": 69,
                        "name": "A4",
                        "ticks": 22528,
                        "time": 33,
                        "velocity": 0.6692913385826772
                    },
                    {
                        "duration": 0.1904296875,
                        "durationTicks": 130,
                        "midi": 71,
                        "name": "B4",
                        "ticks": 22656,
                        "time": 33.1875,
                        "velocity": 0.84251968503937
                    },
                    {
                        "duration": 0.1904296875,
                        "durationTicks": 130,
                        "midi": 72,
                        "name": "C5",
                        "ticks": 22784,
                        "time": 33.375,
                        "velocity": 0.9133858267716536
                    },
                    {
                        "duration": 0.1904296875,
                        "durationTicks": 130,
                        "midi": 74,
                        "name": "D5",
                        "ticks": 22912,
                        "time": 33.5625,
                        "velocity": 0.8976377952755905
                    },
                    {
                        "duration": 0.1904296875,
                        "durationTicks": 130,
                        "midi": 76,
                        "name": "E5",
                        "ticks": 23040,
                        "time": 33.75,
                        "velocity": 0.968503937007874
                    },
                    {
                        "duration": 0.1904296875,
                        "durationTicks": 130,
                        "midi": 74,
                        "name": "D5",
                        "ticks": 23168,
                        "time": 33.9375,
                        "velocity": 0.7480314960629921
                    },
                    {
                        "duration": 0.1904296875,
                        "durationTicks": 130,
                        "midi": 72,
                        "name": "C5",
                        "ticks": 23296,
                        "time": 34.125,
                        "velocity": 0.6614173228346457
                    },
                    {
                        "duration": 0.1904296875,
                        "durationTicks": 130,
                        "midi": 74,
                        "name": "D5",
                        "ticks": 23424,
                        "time": 34.3125,
                        "velocity": 0.8503937007874016
                    },
                    {
                        "duration": 0.35595703125,
                        "durationTicks": 243,
                        "midi": 67,
                        "name": "G4",
                        "ticks": 23552,
                        "time": 34.5,
                        "velocity": 0.7244094488188977
                    },
                    {
                        "duration": 0.1904296875,
                        "durationTicks": 130,
                        "midi": 64,
                        "name": "E4",
                        "ticks": 23808,
                        "time": 34.875,
                        "velocity": 0.6692913385826772
                    },
                    {
                        "duration": 0.1904296875,
                        "durationTicks": 130,
                        "midi": 65,
                        "name": "F4",
                        "ticks": 23936,
                        "time": 35.0625,
                        "velocity": 0.6771653543307087
                    },
                    {
                        "duration": 0.1904296875,
                        "durationTicks": 130,
                        "midi": 69,
                        "name": "A4",
                        "ticks": 24064,
                        "time": 35.25,
                        "velocity": 0.889763779527559
                    },
                    {
                        "duration": 0.1904296875,
                        "durationTicks": 130,
                        "midi": 67,
                        "name": "G4",
                        "ticks": 24192,
                        "time": 35.4375,
                        "velocity": 0.8976377952755905
                    },
                    {
                        "duration": 0.1904296875,
                        "durationTicks": 130,
                        "midi": 64,
                        "name": "E4",
                        "ticks": 24320,
                        "time": 35.625,
                        "velocity": 0.7086614173228346
                    },
                    {
                        "duration": 0.1904296875,
                        "durationTicks": 130,
                        "midi": 65,
                        "name": "F4",
                        "ticks": 24448,
                        "time": 35.8125,
                        "velocity": 0.7480314960629921
                    },
                    {
                        "duration": 0.38232421875,
                        "durationTicks": 261,
                        "midi": 67,
                        "name": "G4",
                        "ticks": 24576,
                        "time": 36,
                        "velocity": 0.84251968503937
                    },
                    {
                        "duration": 0.1904296875,
                        "durationTicks": 130,
                        "midi": 69,
                        "name": "A4",
                        "ticks": 24832,
                        "time": 36.375,
                        "velocity": 0.9133858267716536
                    },
                    {
                        "duration": 0.35595703125,
                        "durationTicks": 243,
                        "midi": 67,
                        "name": "G4",
                        "ticks": 24960,
                        "time": 36.5625,
                        "velocity": 0.7480314960629921
                    },
                    {
                        "duration": 0.1904296875,
                        "durationTicks": 130,
                        "midi": 64,
                        "name": "E4",
                        "ticks": 25216,
                        "time": 36.9375,
                        "velocity": 0.7322834645669292
                    },
                    {
                        "duration": 0.1904296875,
                        "durationTicks": 130,
                        "midi": 65,
                        "name": "F4",
                        "ticks": 25344,
                        "time": 37.125,
                        "velocity": 0.7795275590551181
                    },
                    {
                        "duration": 0.1904296875,
                        "durationTicks": 130,
                        "midi": 66,
                        "name": "F#4",
                        "ticks": 25472,
                        "time": 37.3125,
                        "velocity": 0.8346456692913385
                    },
                    {
                        "duration": 0.38232421875,
                        "durationTicks": 261,
                        "midi": 67,
                        "name": "G4",
                        "ticks": 25600,
                        "time": 37.5,
                        "velocity": 0.8818897637795275
                    },
                    {
                        "duration": 0.1904296875,
                        "durationTicks": 130,
                        "midi": 69,
                        "name": "A4",
                        "ticks": 25856,
                        "time": 37.875,
                        "velocity": 0.8582677165354331
                    },
                    {
                        "duration": 0.35595703125,
                        "durationTicks": 243,
                        "midi": 67,
                        "name": "G4",
                        "ticks": 25984,
                        "time": 38.0625,
                        "velocity": 0.8267716535433071
                    },
                    {
                        "duration": 0.1904296875,
                        "durationTicks": 130,
                        "midi": 67,
                        "name": "G4",
                        "ticks": 26240,
                        "time": 38.4375,
                        "velocity": 0.7874015748031497
                    },
                    {
                        "duration": 0.1904296875,
                        "durationTicks": 130,
                        "midi": 69,
                        "name": "A4",
                        "ticks": 26368,
                        "time": 38.625,
                        "velocity": 0.8582677165354331
                    },
                    {
                        "duration": 0.1904296875,
                        "durationTicks": 130,
                        "midi": 70,
                        "name": "A#4",
                        "ticks": 26496,
                        "time": 38.8125,
                        "velocity": 0.8503937007874016
                    },
                    {
                        "duration": 0.1875,
                        "durationTicks": 128,
                        "midi": 71,
                        "name": "B4",
                        "ticks": 26624,
                        "time": 39,
                        "velocity": 0.905511811023622
                    },
                    {
                        "duration": 0.375,
                        "durationTicks": 256,
                        "midi": 71,
                        "name": "B4",
                        "ticks": 26752,
                        "time": 39.1875,
                        "velocity": 0.8110236220472441
                    },
                    {
                        "duration": 0.38232421875,
                        "durationTicks": 261,
                        "midi": 71,
                        "name": "B4",
                        "ticks": 27008,
                        "time": 39.5625,
                        "velocity": 0.7874015748031497
                    },
                    {
                        "duration": 0.1904296875,
                        "durationTicks": 130,
                        "midi": 69,
                        "name": "A4",
                        "ticks": 27264,
                        "time": 39.9375,
                        "velocity": 0.7165354330708661
                    },
                    {
                        "duration": 0.1904296875,
                        "durationTicks": 130,
                        "midi": 66,
                        "name": "F#4",
                        "ticks": 27392,
                        "time": 40.125,
                        "velocity": 0.6929133858267716
                    },
                    {
                        "duration": 0.1904296875,
                        "durationTicks": 130,
                        "midi": 62,
                        "name": "D4",
                        "ticks": 27520,
                        "time": 40.3125,
                        "velocity": 0.5669291338582677
                    },
                    {
                        "duration": 0.890625,
                        "durationTicks": 608,
                        "midi": 67,
                        "name": "G4",
                        "ticks": 27648,
                        "time": 40.5,
                        "velocity": 0.9212598425196851
                    },
                    {
                        "duration": 0.1904296875,
                        "durationTicks": 130,
                        "midi": 64,
                        "name": "E4",
                        "ticks": 28288,
                        "time": 41.4375,
                        "velocity": 0.7322834645669292
                    },
                    {
                        "duration": 0.1904296875,
                        "durationTicks": 130,
                        "midi": 65,
                        "name": "F4",
                        "ticks": 28416,
                        "time": 41.625,
                        "velocity": 0.7637795275590551
                    },
                    {
                        "duration": 0.1904296875,
                        "durationTicks": 130,
                        "midi": 66,
                        "name": "F#4",
                        "ticks": 28544,
                        "time": 41.8125,
                        "velocity": 0.8267716535433071
                    },
                    {
                        "duration": 0.38232421875,
                        "durationTicks": 261,
                        "midi": 67,
                        "name": "G4",
                        "ticks": 28672,
                        "time": 42,
                        "velocity": 0.8976377952755905
                    },
                    {
                        "duration": 0.1904296875,
                        "durationTicks": 130,
                        "midi": 69,
                        "name": "A4",
                        "ticks": 28928,
                        "time": 42.375,
                        "velocity": 0.8661417322834646
                    },
                    {
                        "duration": 0.35595703125,
                        "durationTicks": 243,
                        "midi": 67,
                        "name": "G4",
                        "ticks": 29056,
                        "time": 42.5625,
                        "velocity": 0.7874015748031497
                    },
                    {
                        "duration": 0.1904296875,
                        "durationTicks": 130,
                        "midi": 64,
                        "name": "E4",
                        "ticks": 29312,
                        "time": 42.9375,
                        "velocity": 0.7086614173228346
                    },
                    {
                        "duration": 0.1904296875,
                        "durationTicks": 130,
                        "midi": 65,
                        "name": "F4",
                        "ticks": 29440,
                        "time": 43.125,
                        "velocity": 0.7322834645669292
                    },
                    {
                        "duration": 0.1904296875,
                        "durationTicks": 130,
                        "midi": 66,
                        "name": "F#4",
                        "ticks": 29568,
                        "time": 43.3125,
                        "velocity": 0.8188976377952756
                    },
                    {
                        "duration": 0.38232421875,
                        "durationTicks": 261,
                        "midi": 67,
                        "name": "G4",
                        "ticks": 29696,
                        "time": 43.5,
                        "velocity": 0.8582677165354331
                    },
                    {
                        "duration": 0.1904296875,
                        "durationTicks": 130,
                        "midi": 69,
                        "name": "A4",
                        "ticks": 29952,
                        "time": 43.875,
                        "velocity": 0.8346456692913385
                    },
                    {
                        "duration": 0.35595703125,
                        "durationTicks": 243,
                        "midi": 67,
                        "name": "G4",
                        "ticks": 30080,
                        "time": 44.0625,
                        "velocity": 0.8110236220472441
                    },
                    {
                        "duration": 0.1904296875,
                        "durationTicks": 130,
                        "midi": 76,
                        "name": "E5",
                        "ticks": 30336,
                        "time": 44.4375,
                        "velocity": 1
                    },
                    {
                        "duration": 0.1904296875,
                        "durationTicks": 130,
                        "midi": 72,
                        "name": "C5",
                        "ticks": 30464,
                        "time": 44.625,
                        "velocity": 0.9212598425196851
                    },
                    {
                        "duration": 0.1904296875,
                        "durationTicks": 130,
                        "midi": 67,
                        "name": "G4",
                        "ticks": 30592,
                        "time": 44.8125,
                        "velocity": 0.6771653543307087
                    },
                    {
                        "duration": 0.1904296875,
                        "durationTicks": 130,
                        "midi": 69,
                        "name": "A4",
                        "ticks": 30720,
                        "time": 45,
                        "velocity": 0.7086614173228346
                    },
                    {
                        "duration": 0.1904296875,
                        "durationTicks": 130,
                        "midi": 71,
                        "name": "B4",
                        "ticks": 30848,
                        "time": 45.1875,
                        "velocity": 0.8346456692913385
                    },
                    {
                        "duration": 0.1904296875,
                        "durationTicks": 130,
                        "midi": 72,
                        "name": "C5",
                        "ticks": 30976,
                        "time": 45.375,
                        "velocity": 0.8582677165354331
                    },
                    {
                        "duration": 0.1904296875,
                        "durationTicks": 130,
                        "midi": 74,
                        "name": "D5",
                        "ticks": 31104,
                        "time": 45.5625,
                        "velocity": 0.8818897637795275
                    },
                    {
                        "duration": 0.1904296875,
                        "durationTicks": 130,
                        "midi": 76,
                        "name": "E5",
                        "ticks": 31232,
                        "time": 45.75,
                        "velocity": 0.984251968503937
                    },
                    {
                        "duration": 0.1904296875,
                        "durationTicks": 130,
                        "midi": 74,
                        "name": "D5",
                        "ticks": 31360,
                        "time": 45.9375,
                        "velocity": 0.7480314960629921
                    },
                    {
                        "duration": 0.1904296875,
                        "durationTicks": 130,
                        "midi": 72,
                        "name": "C5",
                        "ticks": 31488,
                        "time": 46.125,
                        "velocity": 0.6929133858267716
                    },
                    {
                        "duration": 0.1904296875,
                        "durationTicks": 130,
                        "midi": 74,
                        "name": "D5",
                        "ticks": 31616,
                        "time": 46.3125,
                        "velocity": 0.8503937007874016
                    },
                    {
                        "duration": 0.890625,
                        "durationTicks": 608,
                        "midi": 72,
                        "name": "C5",
                        "ticks": 31744,
                        "time": 46.5,
                        "velocity": 0.8110236220472441
                    },
                    {
                        "duration": 0.1904296875,
                        "durationTicks": 130,
                        "midi": 67,
                        "name": "G4",
                        "ticks": 32384,
                        "time": 47.4375,
                        "velocity": 0.29133858267716534
                    },
                    {
                        "duration": 0.1904296875,
                        "durationTicks": 130,
                        "midi": 66,
                        "name": "F#4",
                        "ticks": 32512,
                        "time": 47.625,
                        "velocity": 0.2755905511811024
                    },
                    {
                        "duration": 0.1904296875,
                        "durationTicks": 130,
                        "midi": 67,
                        "name": "G4",
                        "ticks": 32640,
                        "time": 47.8125,
                        "velocity": 0.4015748031496063
                    },
                    {
                        "duration": 0.38232421875,
                        "durationTicks": 261,
                        "midi": 72,
                        "name": "C5",
                        "ticks": 32768,
                        "time": 48,
                        "velocity": 0.4409448818897638
                    },
                    {
                        "duration": 0.1904296875,
                        "durationTicks": 130,
                        "midi": 69,
                        "name": "A4",
                        "ticks": 33024,
                        "time": 48.375,
                        "velocity": 0.3228346456692913
                    },
                    {
                        "duration": 0.35595703125,
                        "durationTicks": 243,
                        "midi": 72,
                        "name": "C5",
                        "ticks": 33152,
                        "time": 48.5625,
                        "velocity": 0.3543307086614173
                    },
                    {
                        "duration": 0.1904296875,
                        "durationTicks": 130,
                        "midi": 69,
                        "name": "A4",
                        "ticks": 33408,
                        "time": 48.9375,
                        "velocity": 0.30708661417322836
                    },
                    {
                        "duration": 0.1904296875,
                        "durationTicks": 130,
                        "midi": 72,
                        "name": "C5",
                        "ticks": 33536,
                        "time": 49.125,
                        "velocity": 0.33070866141732286
                    },
                    {
                        "duration": 0.1904296875,
                        "durationTicks": 130,
                        "midi": 69,
                        "name": "A4",
                        "ticks": 33664,
                        "time": 49.3125,
                        "velocity": 0.3700787401574803
                    },
                    {
                        "duration": 0.1904296875,
                        "durationTicks": 130,
                        "midi": 67,
                        "name": "G4",
                        "ticks": 33792,
                        "time": 49.5,
                        "velocity": 0.33070866141732286
                    },
                    {
                        "duration": 0.1904296875,
                        "durationTicks": 130,
                        "midi": 72,
                        "name": "C5",
                        "ticks": 33920,
                        "time": 49.6875,
                        "velocity": 0.4881889763779528
                    },
                    {
                        "duration": 0.1904296875,
                        "durationTicks": 130,
                        "midi": 76,
                        "name": "E5",
                        "ticks": 34048,
                        "time": 49.875,
                        "velocity": 0.6771653543307087
                    },
                    {
                        "duration": 0.35595703125,
                        "durationTicks": 243,
                        "midi": 79,
                        "name": "G5",
                        "ticks": 34176,
                        "time": 50.0625,
                        "velocity": 0.8976377952755905
                    },
                    {
                        "duration": 0.1904296875,
                        "durationTicks": 130,
                        "midi": 76,
                        "name": "E5",
                        "ticks": 34432,
                        "time": 50.4375,
                        "velocity": 0.7795275590551181
                    },
                    {
                        "duration": 0.1904296875,
                        "durationTicks": 130,
                        "midi": 72,
                        "name": "C5",
                        "ticks": 34560,
                        "time": 50.625,
                        "velocity": 0.7007874015748031
                    },
                    {
                        "duration": 0.1904296875,
                        "durationTicks": 130,
                        "midi": 67,
                        "name": "G4",
                        "ticks": 34688,
                        "time": 50.8125,
                        "velocity": 0.7244094488188977
                    },
                    {
                        "duration": 0.38232421875,
                        "durationTicks": 261,
                        "midi": 69,
                        "name": "A4",
                        "ticks": 34816,
                        "time": 51,
                        "velocity": 0.7322834645669292
                    },
                    {
                        "duration": 0.38232421875,
                        "durationTicks": 261,
                        "midi": 72,
                        "name": "C5",
                        "ticks": 35072,
                        "time": 51.375,
                        "velocity": 0.889763779527559
                    },
                    {
                        "duration": 0.1904296875,
                        "durationTicks": 130,
                        "midi": 76,
                        "name": "E5",
                        "ticks": 35328,
                        "time": 51.75,
                        "velocity": 1
                    },
                    {
                        "duration": 0.38232421875,
                        "durationTicks": 261,
                        "midi": 74,
                        "name": "D5",
                        "ticks": 35456,
                        "time": 51.9375,
                        "velocity": 0.7716535433070866
                    },
                    {
                        "duration": 0.890625,
                        "durationTicks": 608,
                        "midi": 72,
                        "name": "C5",
                        "ticks": 35712,
                        "time": 52.3125,
                        "velocity": 0.7480314960629921
                    },
                    {
                        "duration": 0.1904296875,
                        "durationTicks": 130,
                        "midi": 62,
                        "name": "D4",
                        "ticks": 36608,
                        "time": 53.625,
                        "velocity": 0.7165354330708661
                    },
                    {
                        "duration": 0.17724609375,
                        "durationTicks": 121,
                        "midi": 63,
                        "name": "D#4",
                        "ticks": 36736,
                        "time": 53.8125,
                        "velocity": 0.7244094488188977
                    },
                    {
                        "duration": 0.1875,
                        "durationTicks": 128,
                        "midi": 64,
                        "name": "E4",
                        "ticks": 36864,
                        "time": 54,
                        "velocity": 0.8110236220472441
                    },
                    {
                        "duration": 0.375,
                        "durationTicks": 256,
                        "midi": 72,
                        "name": "C5",
                        "ticks": 36992,
                        "time": 54.1875,
                        "velocity": 0.984251968503937
                    },
                    {
                        "duration": 0.1875,
                        "durationTicks": 128,
                        "midi": 64,
                        "name": "E4",
                        "ticks": 37248,
                        "time": 54.5625,
                        "velocity": 0.6456692913385826
                    },
                    {
                        "duration": 0.375,
                        "durationTicks": 256,
                        "midi": 72,
                        "name": "C5",
                        "ticks": 37376,
                        "time": 54.75,
                        "velocity": 0.9448818897637795
                    },
                    {
                        "duration": 0.1875,
                        "durationTicks": 128,
                        "midi": 64,
                        "name": "E4",
                        "ticks": 37632,
                        "time": 55.125,
                        "velocity": 0.6614173228346457
                    },
                    {
                        "duration": 1.125,
                        "durationTicks": 768,
                        "midi": 72,
                        "name": "C5",
                        "ticks": 37760,
                        "time": 55.3125,
                        "velocity": 0.9291338582677166
                    },
                    {
                        "duration": 0.1904296875,
                        "durationTicks": 130,
                        "midi": 72,
                        "name": "C5",
                        "ticks": 38528,
                        "time": 56.4375,
                        "velocity": 0.8110236220472441
                    },
                    {
                        "duration": 0.1904296875,
                        "durationTicks": 130,
                        "midi": 74,
                        "name": "D5",
                        "ticks": 38656,
                        "time": 56.625,
                        "velocity": 0.84251968503937
                    },
                    {
                        "duration": 0.1904296875,
                        "durationTicks": 130,
                        "midi": 75,
                        "name": "D#5",
                        "ticks": 38784,
                        "time": 56.8125,
                        "velocity": 0.84251968503937
                    },
                    {
                        "duration": 0.1904296875,
                        "durationTicks": 130,
                        "midi": 76,
                        "name": "E5",
                        "ticks": 38912,
                        "time": 57,
                        "velocity": 0.8582677165354331
                    },
                    {
                        "duration": 0.1904296875,
                        "durationTicks": 130,
                        "midi": 72,
                        "name": "C5",
                        "ticks": 39040,
                        "time": 57.1875,
                        "velocity": 0.7244094488188977
                    },
                    {
                        "duration": 0.1904296875,
                        "durationTicks": 130,
                        "midi": 74,
                        "name": "D5",
                        "ticks": 39168,
                        "time": 57.375,
                        "velocity": 0.7716535433070866
                    },
                    {
                        "duration": 0.38232421875,
                        "durationTicks": 261,
                        "midi": 76,
                        "name": "E5",
                        "ticks": 39296,
                        "time": 57.5625,
                        "velocity": 0.8661417322834646
                    },
                    {
                        "duration": 0.1904296875,
                        "durationTicks": 130,
                        "midi": 71,
                        "name": "B4",
                        "ticks": 39552,
                        "time": 57.9375,
                        "velocity": 0.7480314960629921
                    },
                    {
                        "duration": 0.38232421875,
                        "durationTicks": 261,
                        "midi": 74,
                        "name": "D5",
                        "ticks": 39680,
                        "time": 58.125,
                        "velocity": 0.8740157480314961
                    },
                    {
                        "duration": 1.06787109375,
                        "durationTicks": 729,
                        "midi": 72,
                        "name": "C5",
                        "ticks": 39936,
                        "time": 58.5,
                        "velocity": 0.7795275590551181
                    },
                    {
                        "duration": 0.1904296875,
                        "durationTicks": 130,
                        "midi": 72,
                        "name": "C5",
                        "ticks": 40704,
                        "time": 59.625,
                        "velocity": 0.8031496062992126
                    },
                    {
                        "duration": 0.1904296875,
                        "durationTicks": 130,
                        "midi": 74,
                        "name": "D5",
                        "ticks": 40832,
                        "time": 59.8125,
                        "velocity": 0.84251968503937
                    },
                    {
                        "duration": 0.1904296875,
                        "durationTicks": 130,
                        "midi": 76,
                        "name": "E5",
                        "ticks": 40960,
                        "time": 60,
                        "velocity": 0.8503937007874016
                    },
                    {
                        "duration": 0.1904296875,
                        "durationTicks": 130,
                        "midi": 72,
                        "name": "C5",
                        "ticks": 41088,
                        "time": 60.1875,
                        "velocity": 0.7244094488188977
                    },
                    {
                        "duration": 0.1904296875,
                        "durationTicks": 130,
                        "midi": 74,
                        "name": "D5",
                        "ticks": 41216,
                        "time": 60.375,
                        "velocity": 0.8267716535433071
                    },
                    {
                        "duration": 0.35595703125,
                        "durationTicks": 243,
                        "midi": 76,
                        "name": "E5",
                        "ticks": 41344,
                        "time": 60.5625,
                        "velocity": 0.9133858267716536
                    },
                    {
                        "duration": 0.1904296875,
                        "durationTicks": 130,
                        "midi": 72,
                        "name": "C5",
                        "ticks": 41600,
                        "time": 60.9375,
                        "velocity": 0.7007874015748031
                    },
                    {
                        "duration": 0.1904296875,
                        "durationTicks": 130,
                        "midi": 74,
                        "name": "D5",
                        "ticks": 41728,
                        "time": 61.125,
                        "velocity": 0.7086614173228346
                    },
                    {
                        "duration": 0.1904296875,
                        "durationTicks": 130,
                        "midi": 72,
                        "name": "C5",
                        "ticks": 41856,
                        "time": 61.3125,
                        "velocity": 0.7637795275590551
                    },
                    {
                        "duration": 0.1904296875,
                        "durationTicks": 130,
                        "midi": 76,
                        "name": "E5",
                        "ticks": 41984,
                        "time": 61.5,
                        "velocity": 0.84251968503937
                    },
                    {
                        "duration": 0.1904296875,
                        "durationTicks": 130,
                        "midi": 72,
                        "name": "C5",
                        "ticks": 42112,
                        "time": 61.6875,
                        "velocity": 0.7322834645669292
                    },
                    {
                        "duration": 0.1904296875,
                        "durationTicks": 130,
                        "midi": 74,
                        "name": "D5",
                        "ticks": 42240,
                        "time": 61.875,
                        "velocity": 0.7637795275590551
                    },
                    {
                        "duration": 0.35595703125,
                        "durationTicks": 243,
                        "midi": 76,
                        "name": "E5",
                        "ticks": 42368,
                        "time": 62.0625,
                        "velocity": 0.8582677165354331
                    },
                    {
                        "duration": 0.1904296875,
                        "durationTicks": 130,
                        "midi": 72,
                        "name": "C5",
                        "ticks": 42624,
                        "time": 62.4375,
                        "velocity": 0.7086614173228346
                    },
                    {
                        "duration": 0.1904296875,
                        "durationTicks": 130,
                        "midi": 74,
                        "name": "D5",
                        "ticks": 42752,
                        "time": 62.625,
                        "velocity": 0.7086614173228346
                    },
                    {
                        "duration": 0.1904296875,
                        "durationTicks": 130,
                        "midi": 72,
                        "name": "C5",
                        "ticks": 42880,
                        "time": 62.8125,
                        "velocity": 0.7637795275590551
                    },
                    {
                        "duration": 0.1904296875,
                        "durationTicks": 130,
                        "midi": 76,
                        "name": "E5",
                        "ticks": 43008,
                        "time": 63,
                        "velocity": 0.84251968503937
                    },
                    {
                        "duration": 0.1904296875,
                        "durationTicks": 130,
                        "midi": 72,
                        "name": "C5",
                        "ticks": 43136,
                        "time": 63.1875,
                        "velocity": 0.7086614173228346
                    },
                    {
                        "duration": 0.1904296875,
                        "durationTicks": 130,
                        "midi": 74,
                        "name": "D5",
                        "ticks": 43264,
                        "time": 63.375,
                        "velocity": 0.7244094488188977
                    },
                    {
                        "duration": 0.38232421875,
                        "durationTicks": 261,
                        "midi": 76,
                        "name": "E5",
                        "ticks": 43392,
                        "time": 63.5625,
                        "velocity": 0.8346456692913385
                    },
                    {
                        "duration": 0.1904296875,
                        "durationTicks": 130,
                        "midi": 71,
                        "name": "B4",
                        "ticks": 43648,
                        "time": 63.9375,
                        "velocity": 0.7165354330708661
                    },
                    {
                        "duration": 0.38232421875,
                        "durationTicks": 261,
                        "midi": 74,
                        "name": "D5",
                        "ticks": 43776,
                        "time": 64.125,
                        "velocity": 0.84251968503937
                    },
                    {
                        "duration": 0.890625,
                        "durationTicks": 608,
                        "midi": 72,
                        "name": "C5",
                        "ticks": 44032,
                        "time": 64.5,
                        "velocity": 0.8110236220472441
                    }
                ]
            },
            {
                "channel": 1,
                "controlChanges": {
                    "7": [
                        {
                            "number": 7,
                            "ticks": 0,
                            "time": 0,
                            "value": 0.7874015748031497
                        }
                    ],
                    "10": [
                        {
                            "number": 10,
                            "ticks": 0,
                            "time": 0,
                            "value": 0.5039370078740157
                        }
                    ],
                    "64": [
                        {
                            "number": 64,
                            "ticks": 0,
                            "time": 0,
                            "value": 0
                        }
                    ],
                    "91": [
                        {
                            "number": 91,
                            "ticks": 0,
                            "time": 0,
                            "value": 0.3779527559055118
                        }
                    ],
                    "121": [
                        {
                            "number": 121,
                            "ticks": 0,
                            "time": 0,
                            "value": 0
                        }
                    ]
                },
                "pitchBends": [],
                "instrument": {
                    "family": "piano",
                    "name": "acoustic grand piano",
                    "number": 0
                },
                "name": "",
                "notes": [
                    {
                        "duration": 0.1875,
                        "durationTicks": 128,
                        "midi": 43,
                        "name": "G2",
                        "ticks": 3584,
                        "time": 5.25,
                        "velocity": 0.6299212598425197
                    },
                    {
                        "duration": 0.375,
                        "durationTicks": 256,
                        "midi": 48,
                        "name": "C3",
                        "ticks": 4096,
                        "time": 6,
                        "velocity": 0.3228346456692913
                    },
                    {
                        "duration": 0.375,
                        "durationTicks": 256,
                        "midi": 52,
                        "name": "E3",
                        "ticks": 4352,
                        "time": 6.375,
                        "velocity": 0.4015748031496063
                    },
                    {
                        "duration": 0.375,
                        "durationTicks": 256,
                        "midi": 55,
                        "name": "G3",
                        "ticks": 4352,
                        "time": 6.375,
                        "velocity": 0.4015748031496063
                    },
                    {
                        "duration": 0.375,
                        "durationTicks": 256,
                        "midi": 52,
                        "name": "E3",
                        "ticks": 4608,
                        "time": 6.75,
                        "velocity": 0.3464566929133858
                    },
                    {
                        "duration": 0.375,
                        "durationTicks": 256,
                        "midi": 58,
                        "name": "A#3",
                        "ticks": 4864,
                        "time": 7.125,
                        "velocity": 0.47244094488188976
                    },
                    {
                        "duration": 0.375,
                        "durationTicks": 256,
                        "midi": 60,
                        "name": "C4",
                        "ticks": 4864,
                        "time": 7.125,
                        "velocity": 0.47244094488188976
                    },
                    {
                        "duration": 0.375,
                        "durationTicks": 256,
                        "midi": 53,
                        "name": "F3",
                        "ticks": 5120,
                        "time": 7.5,
                        "velocity": 0.3700787401574803
                    },
                    {
                        "duration": 0.375,
                        "durationTicks": 256,
                        "midi": 57,
                        "name": "A3",
                        "ticks": 5376,
                        "time": 7.875,
                        "velocity": 0.4566929133858268
                    },
                    {
                        "duration": 0.375,
                        "durationTicks": 256,
                        "midi": 60,
                        "name": "C4",
                        "ticks": 5376,
                        "time": 7.875,
                        "velocity": 0.4566929133858268
                    },
                    {
                        "duration": 0.375,
                        "durationTicks": 256,
                        "midi": 52,
                        "name": "E3",
                        "ticks": 5632,
                        "time": 8.25,
                        "velocity": 0.3543307086614173
                    },
                    {
                        "duration": 0.375,
                        "durationTicks": 256,
                        "midi": 55,
                        "name": "G3",
                        "ticks": 5888,
                        "time": 8.625,
                        "velocity": 0.4330708661417323
                    },
                    {
                        "duration": 0.375,
                        "durationTicks": 256,
                        "midi": 60,
                        "name": "C4",
                        "ticks": 5888,
                        "time": 8.625,
                        "velocity": 0.4330708661417323
                    },
                    {
                        "duration": 0.375,
                        "durationTicks": 256,
                        "midi": 55,
                        "name": "G3",
                        "ticks": 6144,
                        "time": 9,
                        "velocity": 0.7559055118110236
                    },
                    {
                        "duration": 0.375,
                        "durationTicks": 256,
                        "midi": 60,
                        "name": "C4",
                        "ticks": 6400,
                        "time": 9.375,
                        "velocity": 0.9291338582677166
                    },
                    {
                        "duration": 0.375,
                        "durationTicks": 256,
                        "midi": 64,
                        "name": "E4",
                        "ticks": 6400,
                        "time": 9.375,
                        "velocity": 0.9291338582677166
                    },
                    {
                        "duration": 0.375,
                        "durationTicks": 256,
                        "midi": 55,
                        "name": "G3",
                        "ticks": 6656,
                        "time": 9.75,
                        "velocity": 0.7086614173228346
                    },
                    {
                        "duration": 0.375,
                        "durationTicks": 256,
                        "midi": 59,
                        "name": "B3",
                        "ticks": 6912,
                        "time": 10.125,
                        "velocity": 0.8188976377952756
                    },
                    {
                        "duration": 0.375,
                        "durationTicks": 256,
                        "midi": 60,
                        "name": "C4",
                        "ticks": 7168,
                        "time": 10.5,
                        "velocity": 0.8267716535433071
                    },
                    {
                        "duration": 0.375,
                        "durationTicks": 256,
                        "midi": 55,
                        "name": "G3",
                        "ticks": 7424,
                        "time": 10.875,
                        "velocity": 0.7007874015748031
                    },
                    {
                        "duration": 0.375,
                        "durationTicks": 256,
                        "midi": 48,
                        "name": "C3",
                        "ticks": 7680,
                        "time": 11.25,
                        "velocity": 0.6850393700787402
                    },
                    {
                        "duration": 0.375,
                        "durationTicks": 256,
                        "midi": 48,
                        "name": "C3",
                        "ticks": 8192,
                        "time": 12,
                        "velocity": 0.3464566929133858
                    },
                    {
                        "duration": 0.375,
                        "durationTicks": 256,
                        "midi": 52,
                        "name": "E3",
                        "ticks": 8448,
                        "time": 12.375,
                        "velocity": 0.4094488188976378
                    },
                    {
                        "duration": 0.375,
                        "durationTicks": 256,
                        "midi": 55,
                        "name": "G3",
                        "ticks": 8448,
                        "time": 12.375,
                        "velocity": 0.4094488188976378
                    },
                    {
                        "duration": 0.375,
                        "durationTicks": 256,
                        "midi": 52,
                        "name": "E3",
                        "ticks": 8704,
                        "time": 12.75,
                        "velocity": 0.3543307086614173
                    },
                    {
                        "duration": 0.375,
                        "durationTicks": 256,
                        "midi": 58,
                        "name": "A#3",
                        "ticks": 8960,
                        "time": 13.125,
                        "velocity": 0.4645669291338583
                    },
                    {
                        "duration": 0.375,
                        "durationTicks": 256,
                        "midi": 60,
                        "name": "C4",
                        "ticks": 8960,
                        "time": 13.125,
                        "velocity": 0.4645669291338583
                    },
                    {
                        "duration": 0.375,
                        "durationTicks": 256,
                        "midi": 53,
                        "name": "F3",
                        "ticks": 9216,
                        "time": 13.5,
                        "velocity": 0.3700787401574803
                    },
                    {
                        "duration": 0.375,
                        "durationTicks": 256,
                        "midi": 57,
                        "name": "A3",
                        "ticks": 9472,
                        "time": 13.875,
                        "velocity": 0.4645669291338583
                    },
                    {
                        "duration": 0.375,
                        "durationTicks": 256,
                        "midi": 60,
                        "name": "C4",
                        "ticks": 9472,
                        "time": 13.875,
                        "velocity": 0.4645669291338583
                    },
                    {
                        "duration": 0.375,
                        "durationTicks": 256,
                        "midi": 52,
                        "name": "E3",
                        "ticks": 9728,
                        "time": 14.25,
                        "velocity": 0.4015748031496063
                    },
                    {
                        "duration": 0.375,
                        "durationTicks": 256,
                        "midi": 51,
                        "name": "D#3",
                        "ticks": 9984,
                        "time": 14.625,
                        "velocity": 0.3937007874015748
                    },
                    {
                        "duration": 0.375,
                        "durationTicks": 256,
                        "midi": 50,
                        "name": "D3",
                        "ticks": 10240,
                        "time": 15,
                        "velocity": 0.7559055118110236
                    },
                    {
                        "duration": 0.375,
                        "durationTicks": 256,
                        "midi": 54,
                        "name": "F#3",
                        "ticks": 10496,
                        "time": 15.375,
                        "velocity": 0.8582677165354331
                    },
                    {
                        "duration": 0.375,
                        "durationTicks": 256,
                        "midi": 57,
                        "name": "A3",
                        "ticks": 10496,
                        "time": 15.375,
                        "velocity": 0.8582677165354331
                    },
                    {
                        "duration": 0.375,
                        "durationTicks": 256,
                        "midi": 50,
                        "name": "D3",
                        "ticks": 10752,
                        "time": 15.75,
                        "velocity": 0.7007874015748031
                    },
                    {
                        "duration": 0.375,
                        "durationTicks": 256,
                        "midi": 54,
                        "name": "F#3",
                        "ticks": 11008,
                        "time": 16.125,
                        "velocity": 0.8346456692913385
                    },
                    {
                        "duration": 0.375,
                        "durationTicks": 256,
                        "midi": 57,
                        "name": "A3",
                        "ticks": 11008,
                        "time": 16.125,
                        "velocity": 0.8346456692913385
                    },
                    {
                        "duration": 0.375,
                        "durationTicks": 256,
                        "midi": 55,
                        "name": "G3",
                        "ticks": 11264,
                        "time": 16.5,
                        "velocity": 0.8110236220472441
                    },
                    {
                        "duration": 0.375,
                        "durationTicks": 256,
                        "midi": 59,
                        "name": "B3",
                        "ticks": 11264,
                        "time": 16.5,
                        "velocity": 0.8110236220472441
                    },
                    {
                        "duration": 0.375,
                        "durationTicks": 256,
                        "midi": 43,
                        "name": "G2",
                        "ticks": 11520,
                        "time": 16.875,
                        "velocity": 0.7322834645669292
                    },
                    {
                        "duration": 0.375,
                        "durationTicks": 256,
                        "midi": 45,
                        "name": "A2",
                        "ticks": 11776,
                        "time": 17.25,
                        "velocity": 0.8503937007874016
                    },
                    {
                        "duration": 0.375,
                        "durationTicks": 256,
                        "midi": 47,
                        "name": "B2",
                        "ticks": 12032,
                        "time": 17.625,
                        "velocity": 0.4094488188976378
                    },
                    {
                        "duration": 0.375,
                        "durationTicks": 256,
                        "midi": 48,
                        "name": "C3",
                        "ticks": 12288,
                        "time": 18,
                        "velocity": 0.3858267716535433
                    },
                    {
                        "duration": 0.375,
                        "durationTicks": 256,
                        "midi": 52,
                        "name": "E3",
                        "ticks": 12544,
                        "time": 18.375,
                        "velocity": 0.4330708661417323
                    },
                    {
                        "duration": 0.375,
                        "durationTicks": 256,
                        "midi": 55,
                        "name": "G3",
                        "ticks": 12544,
                        "time": 18.375,
                        "velocity": 0.4330708661417323
                    },
                    {
                        "duration": 0.375,
                        "durationTicks": 256,
                        "midi": 52,
                        "name": "E3",
                        "ticks": 12800,
                        "time": 18.75,
                        "velocity": 0.3700787401574803
                    },
                    {
                        "duration": 0.375,
                        "durationTicks": 256,
                        "midi": 58,
                        "name": "A#3",
                        "ticks": 13056,
                        "time": 19.125,
                        "velocity": 0.4645669291338583
                    },
                    {
                        "duration": 0.375,
                        "durationTicks": 256,
                        "midi": 60,
                        "name": "C4",
                        "ticks": 13056,
                        "time": 19.125,
                        "velocity": 0.4645669291338583
                    },
                    {
                        "duration": 0.375,
                        "durationTicks": 256,
                        "midi": 53,
                        "name": "F3",
                        "ticks": 13312,
                        "time": 19.5,
                        "velocity": 0.3858267716535433
                    },
                    {
                        "duration": 0.375,
                        "durationTicks": 256,
                        "midi": 57,
                        "name": "A3",
                        "ticks": 13568,
                        "time": 19.875,
                        "velocity": 0.44881889763779526
                    },
                    {
                        "duration": 0.375,
                        "durationTicks": 256,
                        "midi": 60,
                        "name": "C4",
                        "ticks": 13568,
                        "time": 19.875,
                        "velocity": 0.44881889763779526
                    },
                    {
                        "duration": 0.375,
                        "durationTicks": 256,
                        "midi": 52,
                        "name": "E3",
                        "ticks": 13824,
                        "time": 20.25,
                        "velocity": 0.3700787401574803
                    },
                    {
                        "duration": 0.375,
                        "durationTicks": 256,
                        "midi": 55,
                        "name": "G3",
                        "ticks": 14080,
                        "time": 20.625,
                        "velocity": 0.4566929133858268
                    },
                    {
                        "duration": 0.375,
                        "durationTicks": 256,
                        "midi": 60,
                        "name": "C4",
                        "ticks": 14080,
                        "time": 20.625,
                        "velocity": 0.4566929133858268
                    },
                    {
                        "duration": 0.375,
                        "durationTicks": 256,
                        "midi": 55,
                        "name": "G3",
                        "ticks": 14336,
                        "time": 21,
                        "velocity": 0.7322834645669292
                    },
                    {
                        "duration": 0.375,
                        "durationTicks": 256,
                        "midi": 60,
                        "name": "C4",
                        "ticks": 14592,
                        "time": 21.375,
                        "velocity": 0.937007874015748
                    },
                    {
                        "duration": 0.375,
                        "durationTicks": 256,
                        "midi": 64,
                        "name": "E4",
                        "ticks": 14592,
                        "time": 21.375,
                        "velocity": 0.937007874015748
                    },
                    {
                        "duration": 0.375,
                        "durationTicks": 256,
                        "midi": 55,
                        "name": "G3",
                        "ticks": 14848,
                        "time": 21.75,
                        "velocity": 0.7165354330708661
                    },
                    {
                        "duration": 0.375,
                        "durationTicks": 256,
                        "midi": 59,
                        "name": "B3",
                        "ticks": 15104,
                        "time": 22.125,
                        "velocity": 0.8346456692913385
                    },
                    {
                        "duration": 0.375,
                        "durationTicks": 256,
                        "midi": 60,
                        "name": "C4",
                        "ticks": 15360,
                        "time": 22.5,
                        "velocity": 0.7874015748031497
                    },
                    {
                        "duration": 0.375,
                        "durationTicks": 256,
                        "midi": 55,
                        "name": "G3",
                        "ticks": 15616,
                        "time": 22.875,
                        "velocity": 0.7244094488188977
                    },
                    {
                        "duration": 0.375,
                        "durationTicks": 256,
                        "midi": 48,
                        "name": "C3",
                        "ticks": 15872,
                        "time": 23.25,
                        "velocity": 0.6771653543307087
                    },
                    {
                        "duration": 0.75,
                        "durationTicks": 512,
                        "midi": 48,
                        "name": "C3",
                        "ticks": 16384,
                        "time": 24,
                        "velocity": 0.7007874015748031
                    },
                    {
                        "duration": 0.75,
                        "durationTicks": 512,
                        "midi": 52,
                        "name": "E3",
                        "ticks": 16384,
                        "time": 24,
                        "velocity": 0.7007874015748031
                    },
                    {
                        "duration": 0.75,
                        "durationTicks": 512,
                        "midi": 55,
                        "name": "G3",
                        "ticks": 16384,
                        "time": 24,
                        "velocity": 0.7007874015748031
                    },
                    {
                        "duration": 0.75,
                        "durationTicks": 512,
                        "midi": 52,
                        "name": "E3",
                        "ticks": 16896,
                        "time": 24.75,
                        "velocity": 0.8346456692913385
                    },
                    {
                        "duration": 0.75,
                        "durationTicks": 512,
                        "midi": 58,
                        "name": "A#3",
                        "ticks": 16896,
                        "time": 24.75,
                        "velocity": 0.8346456692913385
                    },
                    {
                        "duration": 0.75,
                        "durationTicks": 512,
                        "midi": 60,
                        "name": "C4",
                        "ticks": 16896,
                        "time": 24.75,
                        "velocity": 0.8346456692913385
                    },
                    {
                        "duration": 0.75,
                        "durationTicks": 512,
                        "midi": 53,
                        "name": "F3",
                        "ticks": 17408,
                        "time": 25.5,
                        "velocity": 0.7874015748031497
                    },
                    {
                        "duration": 0.75,
                        "durationTicks": 512,
                        "midi": 57,
                        "name": "A3",
                        "ticks": 17408,
                        "time": 25.5,
                        "velocity": 0.7874015748031497
                    },
                    {
                        "duration": 0.75,
                        "durationTicks": 512,
                        "midi": 60,
                        "name": "C4",
                        "ticks": 17408,
                        "time": 25.5,
                        "velocity": 0.7874015748031497
                    },
                    {
                        "duration": 0.75,
                        "durationTicks": 512,
                        "midi": 53,
                        "name": "F3",
                        "ticks": 17920,
                        "time": 26.25,
                        "velocity": 0.7480314960629921
                    },
                    {
                        "duration": 0.75,
                        "durationTicks": 512,
                        "midi": 56,
                        "name": "G#3",
                        "ticks": 17920,
                        "time": 26.25,
                        "velocity": 0.7480314960629921
                    },
                    {
                        "duration": 0.75,
                        "durationTicks": 512,
                        "midi": 60,
                        "name": "C4",
                        "ticks": 17920,
                        "time": 26.25,
                        "velocity": 0.7480314960629921
                    },
                    {
                        "duration": 0.75,
                        "durationTicks": 512,
                        "midi": 55,
                        "name": "G3",
                        "ticks": 18432,
                        "time": 27,
                        "velocity": 0.8346456692913385
                    },
                    {
                        "duration": 0.75,
                        "durationTicks": 512,
                        "midi": 60,
                        "name": "C4",
                        "ticks": 18432,
                        "time": 27,
                        "velocity": 0.8346456692913385
                    },
                    {
                        "duration": 0.75,
                        "durationTicks": 512,
                        "midi": 64,
                        "name": "E4",
                        "ticks": 18432,
                        "time": 27,
                        "velocity": 0.8346456692913385
                    },
                    {
                        "duration": 0.75,
                        "durationTicks": 512,
                        "midi": 55,
                        "name": "G3",
                        "ticks": 18944,
                        "time": 27.75,
                        "velocity": 0.6929133858267716
                    },
                    {
                        "duration": 0.375,
                        "durationTicks": 256,
                        "midi": 60,
                        "name": "C4",
                        "ticks": 19456,
                        "time": 28.5,
                        "velocity": 0.8582677165354331
                    },
                    {
                        "duration": 0.375,
                        "durationTicks": 256,
                        "midi": 55,
                        "name": "G3",
                        "ticks": 19712,
                        "time": 28.875,
                        "velocity": 0.7480314960629921
                    },
                    {
                        "duration": 0.1875,
                        "durationTicks": 128,
                        "midi": 48,
                        "name": "C3",
                        "ticks": 19968,
                        "time": 29.25,
                        "velocity": 0.7007874015748031
                    },
                    {
                        "duration": 0.375,
                        "durationTicks": 256,
                        "midi": 48,
                        "name": "C3",
                        "ticks": 20480,
                        "time": 30,
                        "velocity": 0.7559055118110236
                    },
                    {
                        "duration": 0.375,
                        "durationTicks": 256,
                        "midi": 55,
                        "name": "G3",
                        "ticks": 20736,
                        "time": 30.375,
                        "velocity": 0.8503937007874016
                    },
                    {
                        "duration": 0.375,
                        "durationTicks": 256,
                        "midi": 43,
                        "name": "G2",
                        "ticks": 20992,
                        "time": 30.75,
                        "velocity": 0.6929133858267716
                    },
                    {
                        "duration": 0.375,
                        "durationTicks": 256,
                        "midi": 55,
                        "name": "G3",
                        "ticks": 21248,
                        "time": 31.125,
                        "velocity": 0.8503937007874016
                    },
                    {
                        "duration": 0.375,
                        "durationTicks": 256,
                        "midi": 48,
                        "name": "C3",
                        "ticks": 21504,
                        "time": 31.5,
                        "velocity": 0.7165354330708661
                    },
                    {
                        "duration": 0.375,
                        "durationTicks": 256,
                        "midi": 55,
                        "name": "G3",
                        "ticks": 21760,
                        "time": 31.875,
                        "velocity": 0.8346456692913385
                    },
                    {
                        "duration": 0.375,
                        "durationTicks": 256,
                        "midi": 43,
                        "name": "G2",
                        "ticks": 22016,
                        "time": 32.25,
                        "velocity": 0.6614173228346457
                    },
                    {
                        "duration": 0.375,
                        "durationTicks": 256,
                        "midi": 55,
                        "name": "G3",
                        "ticks": 22272,
                        "time": 32.625,
                        "velocity": 0.8661417322834646
                    },
                    {
                        "duration": 0.375,
                        "durationTicks": 256,
                        "midi": 53,
                        "name": "F3",
                        "ticks": 22528,
                        "time": 33,
                        "velocity": 0.7244094488188977
                    },
                    {
                        "duration": 0.375,
                        "durationTicks": 256,
                        "midi": 57,
                        "name": "A3",
                        "ticks": 22784,
                        "time": 33.375,
                        "velocity": 0.8976377952755905
                    },
                    {
                        "duration": 0.375,
                        "durationTicks": 256,
                        "midi": 60,
                        "name": "C4",
                        "ticks": 22784,
                        "time": 33.375,
                        "velocity": 0.8976377952755905
                    },
                    {
                        "duration": 0.375,
                        "durationTicks": 256,
                        "midi": 53,
                        "name": "F3",
                        "ticks": 23040,
                        "time": 33.75,
                        "velocity": 0.7322834645669292
                    },
                    {
                        "duration": 0.375,
                        "durationTicks": 256,
                        "midi": 56,
                        "name": "G#3",
                        "ticks": 23296,
                        "time": 34.125,
                        "velocity": 0.889763779527559
                    },
                    {
                        "duration": 0.375,
                        "durationTicks": 256,
                        "midi": 60,
                        "name": "C4",
                        "ticks": 23296,
                        "time": 34.125,
                        "velocity": 0.889763779527559
                    },
                    {
                        "duration": 0.375,
                        "durationTicks": 256,
                        "midi": 52,
                        "name": "E3",
                        "ticks": 23552,
                        "time": 34.5,
                        "velocity": 0.7007874015748031
                    },
                    {
                        "duration": 0.375,
                        "durationTicks": 256,
                        "midi": 55,
                        "name": "G3",
                        "ticks": 23808,
                        "time": 34.875,
                        "velocity": 0.8976377952755905
                    },
                    {
                        "duration": 0.375,
                        "durationTicks": 256,
                        "midi": 60,
                        "name": "C4",
                        "ticks": 23808,
                        "time": 34.875,
                        "velocity": 0.8976377952755905
                    },
                    {
                        "duration": 0.375,
                        "durationTicks": 256,
                        "midi": 50,
                        "name": "D3",
                        "ticks": 24064,
                        "time": 35.25,
                        "velocity": 0.6850393700787402
                    },
                    {
                        "duration": 0.375,
                        "durationTicks": 256,
                        "midi": 59,
                        "name": "B3",
                        "ticks": 24320,
                        "time": 35.625,
                        "velocity": 0.8267716535433071
                    },
                    {
                        "duration": 0.375,
                        "durationTicks": 256,
                        "midi": 48,
                        "name": "C3",
                        "ticks": 24576,
                        "time": 36,
                        "velocity": 0.6377952755905512
                    },
                    {
                        "duration": 0.375,
                        "durationTicks": 256,
                        "midi": 55,
                        "name": "G3",
                        "ticks": 24832,
                        "time": 36.375,
                        "velocity": 0.8031496062992126
                    },
                    {
                        "duration": 0.375,
                        "durationTicks": 256,
                        "midi": 43,
                        "name": "G2",
                        "ticks": 25088,
                        "time": 36.75,
                        "velocity": 0.6614173228346457
                    },
                    {
                        "duration": 0.375,
                        "durationTicks": 256,
                        "midi": 55,
                        "name": "G3",
                        "ticks": 25344,
                        "time": 37.125,
                        "velocity": 0.84251968503937
                    },
                    {
                        "duration": 0.375,
                        "durationTicks": 256,
                        "midi": 48,
                        "name": "C3",
                        "ticks": 25600,
                        "time": 37.5,
                        "velocity": 0.7322834645669292
                    },
                    {
                        "duration": 0.375,
                        "durationTicks": 256,
                        "midi": 55,
                        "name": "G3",
                        "ticks": 25856,
                        "time": 37.875,
                        "velocity": 0.8267716535433071
                    },
                    {
                        "duration": 0.375,
                        "durationTicks": 256,
                        "midi": 52,
                        "name": "E3",
                        "ticks": 26112,
                        "time": 38.25,
                        "velocity": 0.7086614173228346
                    },
                    {
                        "duration": 0.375,
                        "durationTicks": 256,
                        "midi": 51,
                        "name": "D#3",
                        "ticks": 26368,
                        "time": 38.625,
                        "velocity": 0.7401574803149606
                    },
                    {
                        "duration": 0.375,
                        "durationTicks": 256,
                        "midi": 50,
                        "name": "D3",
                        "ticks": 26624,
                        "time": 39,
                        "velocity": 0.7244094488188977
                    },
                    {
                        "duration": 0.375,
                        "durationTicks": 256,
                        "midi": 59,
                        "name": "B3",
                        "ticks": 26880,
                        "time": 39.375,
                        "velocity": 0.84251968503937
                    },
                    {
                        "duration": 0.375,
                        "durationTicks": 256,
                        "midi": 50,
                        "name": "D3",
                        "ticks": 27136,
                        "time": 39.75,
                        "velocity": 0.6771653543307087
                    },
                    {
                        "duration": 0.375,
                        "durationTicks": 256,
                        "midi": 57,
                        "name": "A3",
                        "ticks": 27392,
                        "time": 40.125,
                        "velocity": 0.8031496062992126
                    },
                    {
                        "duration": 0.375,
                        "durationTicks": 256,
                        "midi": 55,
                        "name": "G3",
                        "ticks": 27648,
                        "time": 40.5,
                        "velocity": 0.7401574803149606
                    },
                    {
                        "duration": 0.375,
                        "durationTicks": 256,
                        "midi": 53,
                        "name": "F3",
                        "ticks": 27904,
                        "time": 40.875,
                        "velocity": 0.7401574803149606
                    },
                    {
                        "duration": 0.375,
                        "durationTicks": 256,
                        "midi": 52,
                        "name": "E3",
                        "ticks": 28160,
                        "time": 41.25,
                        "velocity": 0.7401574803149606
                    },
                    {
                        "duration": 0.375,
                        "durationTicks": 256,
                        "midi": 50,
                        "name": "D3",
                        "ticks": 28416,
                        "time": 41.625,
                        "velocity": 0.7165354330708661
                    },
                    {
                        "duration": 0.375,
                        "durationTicks": 256,
                        "midi": 48,
                        "name": "C3",
                        "ticks": 28672,
                        "time": 42,
                        "velocity": 0.7244094488188977
                    },
                    {
                        "duration": 0.375,
                        "durationTicks": 256,
                        "midi": 55,
                        "name": "G3",
                        "ticks": 28928,
                        "time": 42.375,
                        "velocity": 0.7795275590551181
                    },
                    {
                        "duration": 0.375,
                        "durationTicks": 256,
                        "midi": 43,
                        "name": "G2",
                        "ticks": 29184,
                        "time": 42.75,
                        "velocity": 0.6614173228346457
                    },
                    {
                        "duration": 0.375,
                        "durationTicks": 256,
                        "midi": 55,
                        "name": "G3",
                        "ticks": 29440,
                        "time": 43.125,
                        "velocity": 0.8582677165354331
                    },
                    {
                        "duration": 0.375,
                        "durationTicks": 256,
                        "midi": 48,
                        "name": "C3",
                        "ticks": 29696,
                        "time": 43.5,
                        "velocity": 0.7007874015748031
                    },
                    {
                        "duration": 0.375,
                        "durationTicks": 256,
                        "midi": 55,
                        "name": "G3",
                        "ticks": 29952,
                        "time": 43.875,
                        "velocity": 0.7952755905511811
                    },
                    {
                        "duration": 0.375,
                        "durationTicks": 256,
                        "midi": 43,
                        "name": "G2",
                        "ticks": 30208,
                        "time": 44.25,
                        "velocity": 0.6692913385826772
                    },
                    {
                        "duration": 0.375,
                        "durationTicks": 256,
                        "midi": 55,
                        "name": "G3",
                        "ticks": 30464,
                        "time": 44.625,
                        "velocity": 0.8661417322834646
                    },
                    {
                        "duration": 0.375,
                        "durationTicks": 256,
                        "midi": 53,
                        "name": "F3",
                        "ticks": 30720,
                        "time": 45,
                        "velocity": 0.7244094488188977
                    },
                    {
                        "duration": 0.375,
                        "durationTicks": 256,
                        "midi": 57,
                        "name": "A3",
                        "ticks": 30976,
                        "time": 45.375,
                        "velocity": 0.905511811023622
                    },
                    {
                        "duration": 0.375,
                        "durationTicks": 256,
                        "midi": 60,
                        "name": "C4",
                        "ticks": 30976,
                        "time": 45.375,
                        "velocity": 0.905511811023622
                    },
                    {
                        "duration": 0.375,
                        "durationTicks": 256,
                        "midi": 53,
                        "name": "F3",
                        "ticks": 31232,
                        "time": 45.75,
                        "velocity": 0.7480314960629921
                    },
                    {
                        "duration": 0.375,
                        "durationTicks": 256,
                        "midi": 56,
                        "name": "G#3",
                        "ticks": 31488,
                        "time": 46.125,
                        "velocity": 0.905511811023622
                    },
                    {
                        "duration": 0.375,
                        "durationTicks": 256,
                        "midi": 60,
                        "name": "C4",
                        "ticks": 31488,
                        "time": 46.125,
                        "velocity": 0.905511811023622
                    },
                    {
                        "duration": 0.375,
                        "durationTicks": 256,
                        "midi": 52,
                        "name": "E3",
                        "ticks": 31744,
                        "time": 46.5,
                        "velocity": 0.7244094488188977
                    },
                    {
                        "duration": 0.375,
                        "durationTicks": 256,
                        "midi": 55,
                        "name": "G3",
                        "ticks": 32000,
                        "time": 46.875,
                        "velocity": 0.9133858267716536
                    },
                    {
                        "duration": 0.375,
                        "durationTicks": 256,
                        "midi": 60,
                        "name": "C4",
                        "ticks": 32000,
                        "time": 46.875,
                        "velocity": 0.9133858267716536
                    },
                    {
                        "duration": 0.375,
                        "durationTicks": 256,
                        "midi": 52,
                        "name": "E3",
                        "ticks": 32256,
                        "time": 47.25,
                        "velocity": 0.7086614173228346
                    },
                    {
                        "duration": 0.375,
                        "durationTicks": 256,
                        "midi": 55,
                        "name": "G3",
                        "ticks": 32512,
                        "time": 47.625,
                        "velocity": 0.889763779527559
                    },
                    {
                        "duration": 0.375,
                        "durationTicks": 256,
                        "midi": 60,
                        "name": "C4",
                        "ticks": 32512,
                        "time": 47.625,
                        "velocity": 0.889763779527559
                    },
                    {
                        "duration": 0.75,
                        "durationTicks": 512,
                        "midi": 53,
                        "name": "F3",
                        "ticks": 32768,
                        "time": 48,
                        "velocity": 0.7874015748031497
                    },
                    {
                        "duration": 0.75,
                        "durationTicks": 512,
                        "midi": 57,
                        "name": "A3",
                        "ticks": 32768,
                        "time": 48,
                        "velocity": 0.7874015748031497
                    },
                    {
                        "duration": 0.75,
                        "durationTicks": 512,
                        "midi": 60,
                        "name": "C4",
                        "ticks": 32768,
                        "time": 48,
                        "velocity": 0.7874015748031497
                    },
                    {
                        "duration": 0.75,
                        "durationTicks": 512,
                        "midi": 54,
                        "name": "F#3",
                        "ticks": 33280,
                        "time": 48.75,
                        "velocity": 0.7559055118110236
                    },
                    {
                        "duration": 0.75,
                        "durationTicks": 512,
                        "midi": 57,
                        "name": "A3",
                        "ticks": 33280,
                        "time": 48.75,
                        "velocity": 0.7559055118110236
                    },
                    {
                        "duration": 0.75,
                        "durationTicks": 512,
                        "midi": 60,
                        "name": "C4",
                        "ticks": 33280,
                        "time": 48.75,
                        "velocity": 0.7559055118110236
                    },
                    {
                        "duration": 0.75,
                        "durationTicks": 512,
                        "midi": 55,
                        "name": "G3",
                        "ticks": 33792,
                        "time": 49.5,
                        "velocity": 0.8740157480314961
                    },
                    {
                        "duration": 0.75,
                        "durationTicks": 512,
                        "midi": 60,
                        "name": "C4",
                        "ticks": 33792,
                        "time": 49.5,
                        "velocity": 0.8740157480314961
                    },
                    {
                        "duration": 0.75,
                        "durationTicks": 512,
                        "midi": 64,
                        "name": "E4",
                        "ticks": 33792,
                        "time": 49.5,
                        "velocity": 0.8740157480314961
                    },
                    {
                        "duration": 0.75,
                        "durationTicks": 512,
                        "midi": 55,
                        "name": "G3",
                        "ticks": 34304,
                        "time": 50.25,
                        "velocity": 0.7795275590551181
                    },
                    {
                        "duration": 0.75,
                        "durationTicks": 512,
                        "midi": 60,
                        "name": "C4",
                        "ticks": 34304,
                        "time": 50.25,
                        "velocity": 0.7795275590551181
                    },
                    {
                        "duration": 0.75,
                        "durationTicks": 512,
                        "midi": 64,
                        "name": "E4",
                        "ticks": 34304,
                        "time": 50.25,
                        "velocity": 0.7795275590551181
                    },
                    {
                        "duration": 0.375,
                        "durationTicks": 256,
                        "midi": 50,
                        "name": "D3",
                        "ticks": 34816,
                        "time": 51,
                        "velocity": 0.6614173228346457
                    },
                    {
                        "duration": 0.375,
                        "durationTicks": 256,
                        "midi": 54,
                        "name": "F#3",
                        "ticks": 35072,
                        "time": 51.375,
                        "velocity": 0.937007874015748
                    },
                    {
                        "duration": 0.375,
                        "durationTicks": 256,
                        "midi": 60,
                        "name": "C4",
                        "ticks": 35072,
                        "time": 51.375,
                        "velocity": 0.937007874015748
                    },
                    {
                        "duration": 0.75,
                        "durationTicks": 512,
                        "midi": 55,
                        "name": "G3",
                        "ticks": 35328,
                        "time": 51.75,
                        "velocity": 0.7795275590551181
                    },
                    {
                        "duration": 0.75,
                        "durationTicks": 512,
                        "midi": 59,
                        "name": "B3",
                        "ticks": 35328,
                        "time": 51.75,
                        "velocity": 0.7795275590551181
                    },
                    {
                        "duration": 0.375,
                        "durationTicks": 256,
                        "midi": 60,
                        "name": "C4",
                        "ticks": 35840,
                        "time": 52.5,
                        "velocity": 0.7716535433070866
                    },
                    {
                        "duration": 0.375,
                        "durationTicks": 256,
                        "midi": 55,
                        "name": "G3",
                        "ticks": 36096,
                        "time": 52.875,
                        "velocity": 0.6929133858267716
                    },
                    {
                        "duration": 0.375,
                        "durationTicks": 256,
                        "midi": 48,
                        "name": "C3",
                        "ticks": 36352,
                        "time": 53.25,
                        "velocity": 0.7007874015748031
                    },
                    {
                        "duration": 0.375,
                        "durationTicks": 256,
                        "midi": 48,
                        "name": "C3",
                        "ticks": 36864,
                        "time": 54,
                        "velocity": 0.6850393700787402
                    },
                    {
                        "duration": 0.375,
                        "durationTicks": 256,
                        "midi": 52,
                        "name": "E3",
                        "ticks": 37120,
                        "time": 54.375,
                        "velocity": 0.8110236220472441
                    },
                    {
                        "duration": 0.375,
                        "durationTicks": 256,
                        "midi": 55,
                        "name": "G3",
                        "ticks": 37120,
                        "time": 54.375,
                        "velocity": 0.8110236220472441
                    },
                    {
                        "duration": 0.375,
                        "durationTicks": 256,
                        "midi": 52,
                        "name": "E3",
                        "ticks": 37376,
                        "time": 54.75,
                        "velocity": 0.7007874015748031
                    },
                    {
                        "duration": 0.375,
                        "durationTicks": 256,
                        "midi": 58,
                        "name": "A#3",
                        "ticks": 37632,
                        "time": 55.125,
                        "velocity": 0.8740157480314961
                    },
                    {
                        "duration": 0.375,
                        "durationTicks": 256,
                        "midi": 60,
                        "name": "C4",
                        "ticks": 37632,
                        "time": 55.125,
                        "velocity": 0.8740157480314961
                    },
                    {
                        "duration": 0.375,
                        "durationTicks": 256,
                        "midi": 53,
                        "name": "F3",
                        "ticks": 37888,
                        "time": 55.5,
                        "velocity": 0.7086614173228346
                    },
                    {
                        "duration": 0.375,
                        "durationTicks": 256,
                        "midi": 57,
                        "name": "A3",
                        "ticks": 38144,
                        "time": 55.875,
                        "velocity": 0.889763779527559
                    },
                    {
                        "duration": 0.375,
                        "durationTicks": 256,
                        "midi": 60,
                        "name": "C4",
                        "ticks": 38144,
                        "time": 55.875,
                        "velocity": 0.889763779527559
                    },
                    {
                        "duration": 0.375,
                        "durationTicks": 256,
                        "midi": 52,
                        "name": "E3",
                        "ticks": 38400,
                        "time": 56.25,
                        "velocity": 0.7244094488188977
                    },
                    {
                        "duration": 0.375,
                        "durationTicks": 256,
                        "midi": 55,
                        "name": "G3",
                        "ticks": 38656,
                        "time": 56.625,
                        "velocity": 0.8740157480314961
                    },
                    {
                        "duration": 0.375,
                        "durationTicks": 256,
                        "midi": 60,
                        "name": "C4",
                        "ticks": 38656,
                        "time": 56.625,
                        "velocity": 0.8740157480314961
                    },
                    {
                        "duration": 0.375,
                        "durationTicks": 256,
                        "midi": 55,
                        "name": "G3",
                        "ticks": 38912,
                        "time": 57,
                        "velocity": 0.7480314960629921
                    },
                    {
                        "duration": 0.375,
                        "durationTicks": 256,
                        "midi": 60,
                        "name": "C4",
                        "ticks": 39168,
                        "time": 57.375,
                        "velocity": 0.9212598425196851
                    },
                    {
                        "duration": 0.375,
                        "durationTicks": 256,
                        "midi": 64,
                        "name": "E4",
                        "ticks": 39168,
                        "time": 57.375,
                        "velocity": 0.9212598425196851
                    },
                    {
                        "duration": 0.375,
                        "durationTicks": 256,
                        "midi": 55,
                        "name": "G3",
                        "ticks": 39424,
                        "time": 57.75,
                        "velocity": 0.6850393700787402
                    },
                    {
                        "duration": 0.375,
                        "durationTicks": 256,
                        "midi": 59,
                        "name": "B3",
                        "ticks": 39680,
                        "time": 58.125,
                        "velocity": 0.7874015748031497
                    },
                    {
                        "duration": 0.375,
                        "durationTicks": 256,
                        "midi": 60,
                        "name": "C4",
                        "ticks": 39936,
                        "time": 58.5,
                        "velocity": 0.8267716535433071
                    },
                    {
                        "duration": 0.375,
                        "durationTicks": 256,
                        "midi": 55,
                        "name": "G3",
                        "ticks": 40192,
                        "time": 58.875,
                        "velocity": 0.7322834645669292
                    },
                    {
                        "duration": 0.375,
                        "durationTicks": 256,
                        "midi": 48,
                        "name": "C3",
                        "ticks": 40448,
                        "time": 59.25,
                        "velocity": 0.7007874015748031
                    },
                    {
                        "duration": 0.75,
                        "durationTicks": 512,
                        "midi": 48,
                        "name": "C3",
                        "ticks": 40960,
                        "time": 60,
                        "velocity": 0.6771653543307087
                    },
                    {
                        "duration": 0.75,
                        "durationTicks": 512,
                        "midi": 52,
                        "name": "E3",
                        "ticks": 40960,
                        "time": 60,
                        "velocity": 0.6771653543307087
                    },
                    {
                        "duration": 0.75,
                        "durationTicks": 512,
                        "midi": 55,
                        "name": "G3",
                        "ticks": 40960,
                        "time": 60,
                        "velocity": 0.6771653543307087
                    },
                    {
                        "duration": 0.75,
                        "durationTicks": 512,
                        "midi": 52,
                        "name": "E3",
                        "ticks": 41472,
                        "time": 60.75,
                        "velocity": 0.8582677165354331
                    },
                    {
                        "duration": 0.75,
                        "durationTicks": 512,
                        "midi": 58,
                        "name": "A#3",
                        "ticks": 41472,
                        "time": 60.75,
                        "velocity": 0.8582677165354331
                    },
                    {
                        "duration": 0.75,
                        "durationTicks": 512,
                        "midi": 60,
                        "name": "C4",
                        "ticks": 41472,
                        "time": 60.75,
                        "velocity": 0.8582677165354331
                    },
                    {
                        "duration": 0.75,
                        "durationTicks": 512,
                        "midi": 53,
                        "name": "F3",
                        "ticks": 41984,
                        "time": 61.5,
                        "velocity": 0.7952755905511811
                    },
                    {
                        "duration": 0.75,
                        "durationTicks": 512,
                        "midi": 57,
                        "name": "A3",
                        "ticks": 41984,
                        "time": 61.5,
                        "velocity": 0.7952755905511811
                    },
                    {
                        "duration": 0.75,
                        "durationTicks": 512,
                        "midi": 60,
                        "name": "C4",
                        "ticks": 41984,
                        "time": 61.5,
                        "velocity": 0.7952755905511811
                    },
                    {
                        "duration": 0.75,
                        "durationTicks": 512,
                        "midi": 53,
                        "name": "F3",
                        "ticks": 42496,
                        "time": 62.25,
                        "velocity": 0.7244094488188977
                    },
                    {
                        "duration": 0.75,
                        "durationTicks": 512,
                        "midi": 56,
                        "name": "G#3",
                        "ticks": 42496,
                        "time": 62.25,
                        "velocity": 0.7244094488188977
                    },
                    {
                        "duration": 0.75,
                        "durationTicks": 512,
                        "midi": 60,
                        "name": "C4",
                        "ticks": 42496,
                        "time": 62.25,
                        "velocity": 0.7244094488188977
                    },
                    {
                        "duration": 0.75,
                        "durationTicks": 512,
                        "midi": 55,
                        "name": "G3",
                        "ticks": 43008,
                        "time": 63,
                        "velocity": 0.8661417322834646
                    },
                    {
                        "duration": 0.75,
                        "durationTicks": 512,
                        "midi": 60,
                        "name": "C4",
                        "ticks": 43008,
                        "time": 63,
                        "velocity": 0.8661417322834646
                    },
                    {
                        "duration": 0.75,
                        "durationTicks": 512,
                        "midi": 64,
                        "name": "E4",
                        "ticks": 43008,
                        "time": 63,
                        "velocity": 0.8661417322834646
                    },
                    {
                        "duration": 0.75,
                        "durationTicks": 512,
                        "midi": 55,
                        "name": "G3",
                        "ticks": 43520,
                        "time": 63.75,
                        "velocity": 0.6929133858267716
                    },
                    {
                        "duration": 0.375,
                        "durationTicks": 256,
                        "midi": 60,
                        "name": "C4",
                        "ticks": 44032,
                        "time": 64.5,
                        "velocity": 0.8661417322834646
                    },
                    {
                        "duration": 0.375,
                        "durationTicks": 256,
                        "midi": 55,
                        "name": "G3",
                        "ticks": 44288,
                        "time": 64.875,
                        "velocity": 0.6850393700787402
                    },
                    {
                        "duration": 0.1875,
                        "durationTicks": 128,
                        "midi": 48,
                        "name": "C3",
                        "ticks": 44544,
                        "time": 65.25,
                        "velocity": 0.6771653543307087
                    }
                ]
            }
        ]
    },
    {
        "header": {
            "keySignatures": [
                {
                    "key": "F",
                    "scale": "major",
                    "ticks": 0
                },
                {
                    "key": "F",
                    "scale": "major",
                    "ticks": 0
                }
            ],
            "meta": [],
            "name": "Dance of the Sugar Plum",
            "ppq": 256,
            "tempos": [
                {
                    "bpm": 120,
                    "ticks": 0
                },
                {
                    "bpm": 120,
                    "ticks": 0
                }
            ],
            "timeSignatures": [
                {
                    "ticks": 0,
                    "timeSignature": [
                        4,
                        4
                    ],
                    "measures": 0
                }
            ]
        },
        "tracks": [
            {
                "channel": 0,
                "controlChanges": {
                    "7": [
                        {
                            "number": 7,
                            "ticks": 0,
                            "time": 0,
                            "value": 0.7874015748031497
                        },
                        {
                            "number": 7,
                            "ticks": 0,
                            "time": 0,
                            "value": 0.6299212598425197
                        }
                    ],
                    "10": [
                        {
                            "number": 10,
                            "ticks": 0,
                            "time": 0,
                            "value": 0.7086614173228346
                        },
                        {
                            "number": 10,
                            "ticks": 0,
                            "time": 0,
                            "value": 0.23622047244094488
                        }
                    ],
                    "64": [
                        {
                            "number": 64,
                            "ticks": 0,
                            "time": 0,
                            "value": 0
                        },
                        {
                            "number": 64,
                            "ticks": 0,
                            "time": 0,
                            "value": 0
                        }
                    ],
                    "91": [
                        {
                            "number": 91,
                            "ticks": 0,
                            "time": 0,
                            "value": 0.3779527559055118
                        },
                        {
                            "number": 91,
                            "ticks": 0,
                            "time": 0,
                            "value": 0.3779527559055118
                        }
                    ],
                    "121": [
                        {
                            "number": 121,
                            "ticks": 0,
                            "time": 0,
                            "value": 0
                        },
                        {
                            "number": 121,
                            "ticks": 0,
                            "time": 0,
                            "value": 0
                        }
                    ]
                },
                "pitchBends": [],
                "instrument": {
                    "family": "piano",
                    "name": "acoustic grand piano",
                    "number": 0
                },
                "name": "Piano",
                "notes": [
                    {
                        "duration": 0.248046875,
                        "durationTicks": 127,
                        "midi": 50,
                        "name": "D3",
                        "ticks": 0,
                        "time": 0,
                        "velocity": 0.3543307086614173
                    },
                    {
                        "duration": 0.248046875,
                        "durationTicks": 127,
                        "midi": 57,
                        "name": "A3",
                        "ticks": 256,
                        "time": 0.5,
                        "velocity": 0.3464566929133858
                    },
                    {
                        "duration": 0.248046875,
                        "durationTicks": 127,
                        "midi": 62,
                        "name": "D4",
                        "ticks": 256,
                        "time": 0.5,
                        "velocity": 0.3464566929133858
                    },
                    {
                        "duration": 0.248046875,
                        "durationTicks": 127,
                        "midi": 53,
                        "name": "F3",
                        "ticks": 256,
                        "time": 0.5,
                        "velocity": 0.4251968503937008
                    },
                    {
                        "duration": 0.248046875,
                        "durationTicks": 127,
                        "midi": 50,
                        "name": "D3",
                        "ticks": 512,
                        "time": 1,
                        "velocity": 0.3858267716535433
                    },
                    {
                        "duration": 0.248046875,
                        "durationTicks": 127,
                        "midi": 58,
                        "name": "A#3",
                        "ticks": 768,
                        "time": 1.5,
                        "velocity": 0.3700787401574803
                    },
                    {
                        "duration": 0.248046875,
                        "durationTicks": 127,
                        "midi": 64,
                        "name": "E4",
                        "ticks": 768,
                        "time": 1.5,
                        "velocity": 0.3700787401574803
                    },
                    {
                        "duration": 0.248046875,
                        "durationTicks": 127,
                        "midi": 55,
                        "name": "G3",
                        "ticks": 768,
                        "time": 1.5,
                        "velocity": 0.4015748031496063
                    },
                    {
                        "duration": 0.248046875,
                        "durationTicks": 127,
                        "midi": 50,
                        "name": "D3",
                        "ticks": 1024,
                        "time": 2,
                        "velocity": 0.3858267716535433
                    },
                    {
                        "duration": 0.248046875,
                        "durationTicks": 127,
                        "midi": 59,
                        "name": "B3",
                        "ticks": 1280,
                        "time": 2.5,
                        "velocity": 0.3228346456692913
                    },
                    {
                        "duration": 0.248046875,
                        "durationTicks": 127,
                        "midi": 65,
                        "name": "F4",
                        "ticks": 1280,
                        "time": 2.5,
                        "velocity": 0.3228346456692913
                    },
                    {
                        "duration": 0.248046875,
                        "durationTicks": 127,
                        "midi": 56,
                        "name": "G#3",
                        "ticks": 1280,
                        "time": 2.5,
                        "velocity": 0.4251968503937008
                    },
                    {
                        "duration": 0.248046875,
                        "durationTicks": 127,
                        "midi": 50,
                        "name": "D3",
                        "ticks": 1536,
                        "time": 3,
                        "velocity": 0.36220472440944884
                    },
                    {
                        "duration": 0.248046875,
                        "durationTicks": 127,
                        "midi": 58,
                        "name": "A#3",
                        "ticks": 1792,
                        "time": 3.5,
                        "velocity": 0.3543307086614173
                    },
                    {
                        "duration": 0.248046875,
                        "durationTicks": 127,
                        "midi": 61,
                        "name": "C#4",
                        "ticks": 1792,
                        "time": 3.5,
                        "velocity": 0.3543307086614173
                    },
                    {
                        "duration": 0.248046875,
                        "durationTicks": 127,
                        "midi": 55,
                        "name": "G3",
                        "ticks": 1792,
                        "time": 3.5,
                        "velocity": 0.4251968503937008
                    },
                    {
                        "duration": 0.248046875,
                        "durationTicks": 127,
                        "midi": 50,
                        "name": "D3",
                        "ticks": 2048,
                        "time": 4,
                        "velocity": 0.36220472440944884
                    },
                    {
                        "duration": 0.248046875,
                        "durationTicks": 127,
                        "midi": 57,
                        "name": "A3",
                        "ticks": 2304,
                        "time": 4.5,
                        "velocity": 0.33070866141732286
                    },
                    {
                        "duration": 0.248046875,
                        "durationTicks": 127,
                        "midi": 62,
                        "name": "D4",
                        "ticks": 2304,
                        "time": 4.5,
                        "velocity": 0.33070866141732286
                    },
                    {
                        "duration": 0.248046875,
                        "durationTicks": 127,
                        "midi": 53,
                        "name": "F3",
                        "ticks": 2304,
                        "time": 4.5,
                        "velocity": 0.3937007874015748
                    },
                    {
                        "duration": 0.248046875,
                        "durationTicks": 127,
                        "midi": 50,
                        "name": "D3",
                        "ticks": 2560,
                        "time": 5,
                        "velocity": 0.3779527559055118
                    },
                    {
                        "duration": 0.248046875,
                        "durationTicks": 127,
                        "midi": 58,
                        "name": "A#3",
                        "ticks": 2816,
                        "time": 5.5,
                        "velocity": 0.33858267716535434
                    },
                    {
                        "duration": 0.248046875,
                        "durationTicks": 127,
                        "midi": 64,
                        "name": "E4",
                        "ticks": 2816,
                        "time": 5.5,
                        "velocity": 0.33858267716535434
                    },
                    {
                        "duration": 0.248046875,
                        "durationTicks": 127,
                        "midi": 55,
                        "name": "G3",
                        "ticks": 2816,
                        "time": 5.5,
                        "velocity": 0.3937007874015748
                    },
                    {
                        "duration": 0.248046875,
                        "durationTicks": 127,
                        "midi": 50,
                        "name": "D3",
                        "ticks": 3072,
                        "time": 6,
                        "velocity": 0.3937007874015748
                    },
                    {
                        "duration": 0.248046875,
                        "durationTicks": 127,
                        "midi": 59,
                        "name": "B3",
                        "ticks": 3328,
                        "time": 6.5,
                        "velocity": 0.3464566929133858
                    },
                    {
                        "duration": 0.248046875,
                        "durationTicks": 127,
                        "midi": 65,
                        "name": "F4",
                        "ticks": 3328,
                        "time": 6.5,
                        "velocity": 0.3464566929133858
                    },
                    {
                        "duration": 0.248046875,
                        "durationTicks": 127,
                        "midi": 56,
                        "name": "G#3",
                        "ticks": 3328,
                        "time": 6.5,
                        "velocity": 0.4015748031496063
                    },
                    {
                        "duration": 0.248046875,
                        "durationTicks": 127,
                        "midi": 50,
                        "name": "D3",
                        "ticks": 3584,
                        "time": 7,
                        "velocity": 0.33858267716535434
                    },
                    {
                        "duration": 0.248046875,
                        "durationTicks": 127,
                        "midi": 58,
                        "name": "A#3",
                        "ticks": 3840,
                        "time": 7.5,
                        "velocity": 0.33858267716535434
                    },
                    {
                        "duration": 0.248046875,
                        "durationTicks": 127,
                        "midi": 61,
                        "name": "C#4",
                        "ticks": 3840,
                        "time": 7.5,
                        "velocity": 0.33858267716535434
                    },
                    {
                        "duration": 0.248046875,
                        "durationTicks": 127,
                        "midi": 55,
                        "name": "G3",
                        "ticks": 3840,
                        "time": 7.5,
                        "velocity": 0.4015748031496063
                    },
                    {
                        "duration": 0.248046875,
                        "durationTicks": 127,
                        "midi": 50,
                        "name": "D3",
                        "ticks": 4096,
                        "time": 8,
                        "velocity": 0.3700787401574803
                    },
                    {
                        "duration": 0.123046875,
                        "durationTicks": 63,
                        "midi": 81,
                        "name": "A5",
                        "ticks": 4352,
                        "time": 8.5,
                        "velocity": 0.3700787401574803
                    },
                    {
                        "duration": 0.123046875,
                        "durationTicks": 63,
                        "midi": 89,
                        "name": "F6",
                        "ticks": 4352,
                        "time": 8.5,
                        "velocity": 0.3700787401574803
                    },
                    {
                        "duration": 0.248046875,
                        "durationTicks": 127,
                        "midi": 53,
                        "name": "F3",
                        "ticks": 4352,
                        "time": 8.5,
                        "velocity": 0.4094488188976378
                    },
                    {
                        "duration": 0.248046875,
                        "durationTicks": 127,
                        "midi": 57,
                        "name": "A3",
                        "ticks": 4352,
                        "time": 8.5,
                        "velocity": 0.4094488188976378
                    },
                    {
                        "duration": 0.123046875,
                        "durationTicks": 63,
                        "midi": 86,
                        "name": "D6",
                        "ticks": 4480,
                        "time": 8.75,
                        "velocity": 0.3543307086614173
                    },
                    {
                        "duration": 0.248046875,
                        "durationTicks": 127,
                        "midi": 81,
                        "name": "A5",
                        "ticks": 4608,
                        "time": 9,
                        "velocity": 0.4330708661417323
                    },
                    {
                        "duration": 0.248046875,
                        "durationTicks": 127,
                        "midi": 89,
                        "name": "F6",
                        "ticks": 4608,
                        "time": 9,
                        "velocity": 0.4330708661417323
                    },
                    {
                        "duration": 0.248046875,
                        "durationTicks": 127,
                        "midi": 50,
                        "name": "D3",
                        "ticks": 4608,
                        "time": 9,
                        "velocity": 0.3700787401574803
                    },
                    {
                        "duration": 0.248046875,
                        "durationTicks": 127,
                        "midi": 79,
                        "name": "G5",
                        "ticks": 4864,
                        "time": 9.5,
                        "velocity": 0.4094488188976378
                    },
                    {
                        "duration": 0.248046875,
                        "durationTicks": 127,
                        "midi": 88,
                        "name": "E6",
                        "ticks": 4864,
                        "time": 9.5,
                        "velocity": 0.4094488188976378
                    },
                    {
                        "duration": 0.248046875,
                        "durationTicks": 127,
                        "midi": 55,
                        "name": "G3",
                        "ticks": 4864,
                        "time": 9.5,
                        "velocity": 0.4566929133858268
                    },
                    {
                        "duration": 0.248046875,
                        "durationTicks": 127,
                        "midi": 58,
                        "name": "A#3",
                        "ticks": 4864,
                        "time": 9.5,
                        "velocity": 0.4566929133858268
                    },
                    {
                        "duration": 0.248046875,
                        "durationTicks": 127,
                        "midi": 76,
                        "name": "E5",
                        "ticks": 5120,
                        "time": 10,
                        "velocity": 0.3700787401574803
                    },
                    {
                        "duration": 0.248046875,
                        "durationTicks": 127,
                        "midi": 85,
                        "name": "C#6",
                        "ticks": 5120,
                        "time": 10,
                        "velocity": 0.3700787401574803
                    },
                    {
                        "duration": 0.248046875,
                        "durationTicks": 127,
                        "midi": 50,
                        "name": "D3",
                        "ticks": 5120,
                        "time": 10,
                        "velocity": 0.3543307086614173
                    },
                    {
                        "duration": 0.248046875,
                        "durationTicks": 127,
                        "midi": 77,
                        "name": "F5",
                        "ticks": 5376,
                        "time": 10.5,
                        "velocity": 0.4251968503937008
                    },
                    {
                        "duration": 0.248046875,
                        "durationTicks": 127,
                        "midi": 86,
                        "name": "D6",
                        "ticks": 5376,
                        "time": 10.5,
                        "velocity": 0.4251968503937008
                    },
                    {
                        "duration": 0.248046875,
                        "durationTicks": 127,
                        "midi": 56,
                        "name": "G#3",
                        "ticks": 5376,
                        "time": 10.5,
                        "velocity": 0.4015748031496063
                    },
                    {
                        "duration": 0.248046875,
                        "durationTicks": 127,
                        "midi": 59,
                        "name": "B3",
                        "ticks": 5376,
                        "time": 10.5,
                        "velocity": 0.4015748031496063
                    },
                    {
                        "duration": 0.123046875,
                        "durationTicks": 63,
                        "midi": 75,
                        "name": "D#5",
                        "ticks": 5632,
                        "time": 11,
                        "velocity": 0.3543307086614173
                    },
                    {
                        "duration": 0.123046875,
                        "durationTicks": 63,
                        "midi": 78,
                        "name": "F#5",
                        "ticks": 5632,
                        "time": 11,
                        "velocity": 0.3543307086614173
                    },
                    {
                        "duration": 0.123046875,
                        "durationTicks": 63,
                        "midi": 84,
                        "name": "C6",
                        "ticks": 5632,
                        "time": 11,
                        "velocity": 0.3543307086614173
                    },
                    {
                        "duration": 0.248046875,
                        "durationTicks": 127,
                        "midi": 50,
                        "name": "D3",
                        "ticks": 5632,
                        "time": 11,
                        "velocity": 0.3779527559055118
                    },
                    {
                        "duration": 0.123046875,
                        "durationTicks": 63,
                        "midi": 75,
                        "name": "D#5",
                        "ticks": 5760,
                        "time": 11.25,
                        "velocity": 0.4015748031496063
                    },
                    {
                        "duration": 0.123046875,
                        "durationTicks": 63,
                        "midi": 78,
                        "name": "F#5",
                        "ticks": 5760,
                        "time": 11.25,
                        "velocity": 0.4015748031496063
                    },
                    {
                        "duration": 0.123046875,
                        "durationTicks": 63,
                        "midi": 84,
                        "name": "C6",
                        "ticks": 5760,
                        "time": 11.25,
                        "velocity": 0.4015748031496063
                    },
                    {
                        "duration": 0.248046875,
                        "durationTicks": 127,
                        "midi": 75,
                        "name": "D#5",
                        "ticks": 5888,
                        "time": 11.5,
                        "velocity": 0.3858267716535433
                    },
                    {
                        "duration": 0.248046875,
                        "durationTicks": 127,
                        "midi": 78,
                        "name": "F#5",
                        "ticks": 5888,
                        "time": 11.5,
                        "velocity": 0.3858267716535433
                    },
                    {
                        "duration": 0.248046875,
                        "durationTicks": 127,
                        "midi": 84,
                        "name": "C6",
                        "ticks": 5888,
                        "time": 11.5,
                        "velocity": 0.3858267716535433
                    },
                    {
                        "duration": 0.248046875,
                        "durationTicks": 127,
                        "midi": 57,
                        "name": "A3",
                        "ticks": 5888,
                        "time": 11.5,
                        "velocity": 0.48031496062992124
                    },
                    {
                        "duration": 0.248046875,
                        "durationTicks": 127,
                        "midi": 60,
                        "name": "C4",
                        "ticks": 5888,
                        "time": 11.5,
                        "velocity": 0.48031496062992124
                    },
                    {
                        "duration": 0.123046875,
                        "durationTicks": 63,
                        "midi": 74,
                        "name": "D5",
                        "ticks": 6144,
                        "time": 12,
                        "velocity": 0.3858267716535433
                    },
                    {
                        "duration": 0.123046875,
                        "durationTicks": 63,
                        "midi": 77,
                        "name": "F5",
                        "ticks": 6144,
                        "time": 12,
                        "velocity": 0.3858267716535433
                    },
                    {
                        "duration": 0.123046875,
                        "durationTicks": 63,
                        "midi": 83,
                        "name": "B5",
                        "ticks": 6144,
                        "time": 12,
                        "velocity": 0.3858267716535433
                    },
                    {
                        "duration": 0.248046875,
                        "durationTicks": 127,
                        "midi": 50,
                        "name": "D3",
                        "ticks": 6144,
                        "time": 12,
                        "velocity": 0.3543307086614173
                    },
                    {
                        "duration": 0.123046875,
                        "durationTicks": 63,
                        "midi": 74,
                        "name": "D5",
                        "ticks": 6272,
                        "time": 12.25,
                        "velocity": 0.4015748031496063
                    },
                    {
                        "duration": 0.123046875,
                        "durationTicks": 63,
                        "midi": 77,
                        "name": "F5",
                        "ticks": 6272,
                        "time": 12.25,
                        "velocity": 0.4015748031496063
                    },
                    {
                        "duration": 0.123046875,
                        "durationTicks": 63,
                        "midi": 83,
                        "name": "B5",
                        "ticks": 6272,
                        "time": 12.25,
                        "velocity": 0.4015748031496063
                    },
                    {
                        "duration": 0.248046875,
                        "durationTicks": 127,
                        "midi": 74,
                        "name": "D5",
                        "ticks": 6400,
                        "time": 12.5,
                        "velocity": 0.4094488188976378
                    },
                    {
                        "duration": 0.248046875,
                        "durationTicks": 127,
                        "midi": 77,
                        "name": "F5",
                        "ticks": 6400,
                        "time": 12.5,
                        "velocity": 0.4094488188976378
                    },
                    {
                        "duration": 0.248046875,
                        "durationTicks": 127,
                        "midi": 83,
                        "name": "B5",
                        "ticks": 6400,
                        "time": 12.5,
                        "velocity": 0.4094488188976378
                    },
                    {
                        "duration": 0.248046875,
                        "durationTicks": 127,
                        "midi": 56,
                        "name": "G#3",
                        "ticks": 6400,
                        "time": 12.5,
                        "velocity": 0.4330708661417323
                    },
                    {
                        "duration": 0.248046875,
                        "durationTicks": 127,
                        "midi": 59,
                        "name": "B3",
                        "ticks": 6400,
                        "time": 12.5,
                        "velocity": 0.4330708661417323
                    },
                    {
                        "duration": 0.123046875,
                        "durationTicks": 63,
                        "midi": 73,
                        "name": "C#5",
                        "ticks": 6656,
                        "time": 13,
                        "velocity": 0.3700787401574803
                    },
                    {
                        "duration": 0.123046875,
                        "durationTicks": 63,
                        "midi": 76,
                        "name": "E5",
                        "ticks": 6656,
                        "time": 13,
                        "velocity": 0.3700787401574803
                    },
                    {
                        "duration": 0.123046875,
                        "durationTicks": 63,
                        "midi": 82,
                        "name": "A#5",
                        "ticks": 6656,
                        "time": 13,
                        "velocity": 0.3700787401574803
                    },
                    {
                        "duration": 0.248046875,
                        "durationTicks": 127,
                        "midi": 50,
                        "name": "D3",
                        "ticks": 6656,
                        "time": 13,
                        "velocity": 0.36220472440944884
                    },
                    {
                        "duration": 0.123046875,
                        "durationTicks": 63,
                        "midi": 73,
                        "name": "C#5",
                        "ticks": 6784,
                        "time": 13.25,
                        "velocity": 0.3543307086614173
                    },
                    {
                        "duration": 0.123046875,
                        "durationTicks": 63,
                        "midi": 76,
                        "name": "E5",
                        "ticks": 6784,
                        "time": 13.25,
                        "velocity": 0.3543307086614173
                    },
                    {
                        "duration": 0.123046875,
                        "durationTicks": 63,
                        "midi": 82,
                        "name": "A#5",
                        "ticks": 6784,
                        "time": 13.25,
                        "velocity": 0.3543307086614173
                    },
                    {
                        "duration": 0.248046875,
                        "durationTicks": 127,
                        "midi": 73,
                        "name": "C#5",
                        "ticks": 6912,
                        "time": 13.5,
                        "velocity": 0.4409448818897638
                    },
                    {
                        "duration": 0.248046875,
                        "durationTicks": 127,
                        "midi": 76,
                        "name": "E5",
                        "ticks": 6912,
                        "time": 13.5,
                        "velocity": 0.4409448818897638
                    },
                    {
                        "duration": 0.248046875,
                        "durationTicks": 127,
                        "midi": 82,
                        "name": "A#5",
                        "ticks": 6912,
                        "time": 13.5,
                        "velocity": 0.4409448818897638
                    },
                    {
                        "duration": 0.248046875,
                        "durationTicks": 127,
                        "midi": 55,
                        "name": "G3",
                        "ticks": 6912,
                        "time": 13.5,
                        "velocity": 0.4330708661417323
                    },
                    {
                        "duration": 0.248046875,
                        "durationTicks": 127,
                        "midi": 58,
                        "name": "A#3",
                        "ticks": 6912,
                        "time": 13.5,
                        "velocity": 0.4330708661417323
                    },
                    {
                        "duration": 0.123046875,
                        "durationTicks": 63,
                        "midi": 77,
                        "name": "F5",
                        "ticks": 7168,
                        "time": 14,
                        "velocity": 0.3937007874015748
                    },
                    {
                        "duration": 0.123046875,
                        "durationTicks": 63,
                        "midi": 81,
                        "name": "A5",
                        "ticks": 7168,
                        "time": 14,
                        "velocity": 0.3937007874015748
                    },
                    {
                        "duration": 0.248046875,
                        "durationTicks": 127,
                        "midi": 50,
                        "name": "D3",
                        "ticks": 7168,
                        "time": 14,
                        "velocity": 0.3779527559055118
                    },
                    {
                        "duration": 0.123046875,
                        "durationTicks": 63,
                        "midi": 86,
                        "name": "D6",
                        "ticks": 7296,
                        "time": 14.25,
                        "velocity": 0.41732283464566927
                    },
                    {
                        "duration": 0.123046875,
                        "durationTicks": 63,
                        "midi": 79,
                        "name": "G5",
                        "ticks": 7424,
                        "time": 14.5,
                        "velocity": 0.3543307086614173
                    },
                    {
                        "duration": 0.123046875,
                        "durationTicks": 63,
                        "midi": 82,
                        "name": "A#5",
                        "ticks": 7424,
                        "time": 14.5,
                        "velocity": 0.3543307086614173
                    },
                    {
                        "duration": 0.248046875,
                        "durationTicks": 127,
                        "midi": 62,
                        "name": "D4",
                        "ticks": 7424,
                        "time": 14.5,
                        "velocity": 0.5354330708661418
                    },
                    {
                        "duration": 0.123046875,
                        "durationTicks": 63,
                        "midi": 86,
                        "name": "D6",
                        "ticks": 7552,
                        "time": 14.75,
                        "velocity": 0.4330708661417323
                    },
                    {
                        "duration": 0.248046875,
                        "durationTicks": 127,
                        "midi": 77,
                        "name": "F5",
                        "ticks": 7680,
                        "time": 15,
                        "velocity": 0.33858267716535434
                    },
                    {
                        "duration": 0.248046875,
                        "durationTicks": 127,
                        "midi": 81,
                        "name": "A5",
                        "ticks": 7680,
                        "time": 15,
                        "velocity": 0.33858267716535434
                    },
                    {
                        "duration": 0.248046875,
                        "durationTicks": 127,
                        "midi": 62,
                        "name": "D4",
                        "ticks": 7680,
                        "time": 15,
                        "velocity": 0.4251968503937008
                    },
                    {
                        "duration": 0.125,
                        "durationTicks": 64,
                        "midi": 62,
                        "name": "D4",
                        "ticks": 7936,
                        "time": 15.5,
                        "velocity": 0.3858267716535433
                    },
                    {
                        "duration": 0.125,
                        "durationTicks": 64,
                        "midi": 60,
                        "name": "C4",
                        "ticks": 8000,
                        "time": 15.625,
                        "velocity": 0.3543307086614173
                    },
                    {
                        "duration": 0.125,
                        "durationTicks": 64,
                        "midi": 59,
                        "name": "B3",
                        "ticks": 8064,
                        "time": 15.75,
                        "velocity": 0.3543307086614173
                    },
                    {
                        "duration": 0.125,
                        "durationTicks": 64,
                        "midi": 57,
                        "name": "A3",
                        "ticks": 8128,
                        "time": 15.875,
                        "velocity": 0.3858267716535433
                    },
                    {
                        "duration": 0.400390625,
                        "durationTicks": 205,
                        "midi": 56,
                        "name": "G#3",
                        "ticks": 8192,
                        "time": 16,
                        "velocity": 0.3779527559055118
                    },
                    {
                        "duration": 0.123046875,
                        "durationTicks": 63,
                        "midi": 70,
                        "name": "A#4",
                        "ticks": 8448,
                        "time": 16.5,
                        "velocity": 0.3543307086614173
                    },
                    {
                        "duration": 0.123046875,
                        "durationTicks": 63,
                        "midi": 77,
                        "name": "F5",
                        "ticks": 8448,
                        "time": 16.5,
                        "velocity": 0.3543307086614173
                    },
                    {
                        "duration": 0.248046875,
                        "durationTicks": 127,
                        "midi": 62,
                        "name": "D4",
                        "ticks": 8448,
                        "time": 16.5,
                        "velocity": 0.47244094488188976
                    },
                    {
                        "duration": 0.248046875,
                        "durationTicks": 127,
                        "midi": 65,
                        "name": "F4",
                        "ticks": 8448,
                        "time": 16.5,
                        "velocity": 0.47244094488188976
                    },
                    {
                        "duration": 0.123046875,
                        "durationTicks": 63,
                        "midi": 74,
                        "name": "D5",
                        "ticks": 8576,
                        "time": 16.75,
                        "velocity": 0.3464566929133858
                    },
                    {
                        "duration": 0.248046875,
                        "durationTicks": 127,
                        "midi": 70,
                        "name": "A#4",
                        "ticks": 8704,
                        "time": 17,
                        "velocity": 0.4015748031496063
                    },
                    {
                        "duration": 0.248046875,
                        "durationTicks": 127,
                        "midi": 77,
                        "name": "F5",
                        "ticks": 8704,
                        "time": 17,
                        "velocity": 0.4015748031496063
                    },
                    {
                        "duration": 0.248046875,
                        "durationTicks": 127,
                        "midi": 55,
                        "name": "G3",
                        "ticks": 8704,
                        "time": 17,
                        "velocity": 0.3700787401574803
                    },
                    {
                        "duration": 0.248046875,
                        "durationTicks": 127,
                        "midi": 70,
                        "name": "A#4",
                        "ticks": 8960,
                        "time": 17.5,
                        "velocity": 0.3779527559055118
                    },
                    {
                        "duration": 0.248046875,
                        "durationTicks": 127,
                        "midi": 76,
                        "name": "E5",
                        "ticks": 8960,
                        "time": 17.5,
                        "velocity": 0.3779527559055118
                    },
                    {
                        "duration": 0.248046875,
                        "durationTicks": 127,
                        "midi": 61,
                        "name": "C#4",
                        "ticks": 8960,
                        "time": 17.5,
                        "velocity": 0.48031496062992124
                    },
                    {
                        "duration": 0.248046875,
                        "durationTicks": 127,
                        "midi": 64,
                        "name": "E4",
                        "ticks": 8960,
                        "time": 17.5,
                        "velocity": 0.48031496062992124
                    },
                    {
                        "duration": 0.248046875,
                        "durationTicks": 127,
                        "midi": 73,
                        "name": "C#5",
                        "ticks": 9216,
                        "time": 18,
                        "velocity": 0.41732283464566927
                    },
                    {
                        "duration": 0.248046875,
                        "durationTicks": 127,
                        "midi": 76,
                        "name": "E5",
                        "ticks": 9216,
                        "time": 18,
                        "velocity": 0.41732283464566927
                    },
                    {
                        "duration": 0.248046875,
                        "durationTicks": 127,
                        "midi": 82,
                        "name": "A#5",
                        "ticks": 9216,
                        "time": 18,
                        "velocity": 0.41732283464566927
                    },
                    {
                        "duration": 0.248046875,
                        "durationTicks": 127,
                        "midi": 53,
                        "name": "F3",
                        "ticks": 9216,
                        "time": 18,
                        "velocity": 0.36220472440944884
                    },
                    {
                        "duration": 0.248046875,
                        "durationTicks": 127,
                        "midi": 74,
                        "name": "D5",
                        "ticks": 9472,
                        "time": 18.5,
                        "velocity": 0.4015748031496063
                    },
                    {
                        "duration": 0.248046875,
                        "durationTicks": 127,
                        "midi": 77,
                        "name": "F5",
                        "ticks": 9472,
                        "time": 18.5,
                        "velocity": 0.4015748031496063
                    },
                    {
                        "duration": 0.248046875,
                        "durationTicks": 127,
                        "midi": 81,
                        "name": "A5",
                        "ticks": 9472,
                        "time": 18.5,
                        "velocity": 0.4015748031496063
                    },
                    {
                        "duration": 0.248046875,
                        "durationTicks": 127,
                        "midi": 57,
                        "name": "A3",
                        "ticks": 9472,
                        "time": 18.5,
                        "velocity": 0.47244094488188976
                    },
                    {
                        "duration": 0.248046875,
                        "durationTicks": 127,
                        "midi": 62,
                        "name": "D4",
                        "ticks": 9472,
                        "time": 18.5,
                        "velocity": 0.47244094488188976
                    },
                    {
                        "duration": 0.123046875,
                        "durationTicks": 63,
                        "midi": 80,
                        "name": "G#5",
                        "ticks": 9728,
                        "time": 19,
                        "velocity": 0.3543307086614173
                    },
                    {
                        "duration": 0.123046875,
                        "durationTicks": 63,
                        "midi": 89,
                        "name": "F6",
                        "ticks": 9728,
                        "time": 19,
                        "velocity": 0.3543307086614173
                    },
                    {
                        "duration": 0.248046875,
                        "durationTicks": 127,
                        "midi": 52,
                        "name": "E3",
                        "ticks": 9728,
                        "time": 19,
                        "velocity": 0.3700787401574803
                    },
                    {
                        "duration": 0.123046875,
                        "durationTicks": 63,
                        "midi": 80,
                        "name": "G#5",
                        "ticks": 9856,
                        "time": 19.25,
                        "velocity": 0.36220472440944884
                    },
                    {
                        "duration": 0.123046875,
                        "durationTicks": 63,
                        "midi": 89,
                        "name": "F6",
                        "ticks": 9856,
                        "time": 19.25,
                        "velocity": 0.36220472440944884
                    },
                    {
                        "duration": 0.248046875,
                        "durationTicks": 127,
                        "midi": 80,
                        "name": "G#5",
                        "ticks": 9984,
                        "time": 19.5,
                        "velocity": 0.4015748031496063
                    },
                    {
                        "duration": 0.248046875,
                        "durationTicks": 127,
                        "midi": 89,
                        "name": "F6",
                        "ticks": 9984,
                        "time": 19.5,
                        "velocity": 0.4015748031496063
                    },
                    {
                        "duration": 0.248046875,
                        "durationTicks": 127,
                        "midi": 56,
                        "name": "G#3",
                        "ticks": 9984,
                        "time": 19.5,
                        "velocity": 0.4566929133858268
                    },
                    {
                        "duration": 0.248046875,
                        "durationTicks": 127,
                        "midi": 62,
                        "name": "D4",
                        "ticks": 9984,
                        "time": 19.5,
                        "velocity": 0.4566929133858268
                    },
                    {
                        "duration": 0.123046875,
                        "durationTicks": 63,
                        "midi": 81,
                        "name": "A5",
                        "ticks": 10240,
                        "time": 20,
                        "velocity": 0.36220472440944884
                    },
                    {
                        "duration": 0.123046875,
                        "durationTicks": 63,
                        "midi": 84,
                        "name": "C6",
                        "ticks": 10240,
                        "time": 20,
                        "velocity": 0.36220472440944884
                    },
                    {
                        "duration": 0.123046875,
                        "durationTicks": 63,
                        "midi": 88,
                        "name": "E6",
                        "ticks": 10240,
                        "time": 20,
                        "velocity": 0.36220472440944884
                    },
                    {
                        "duration": 0.248046875,
                        "durationTicks": 127,
                        "midi": 52,
                        "name": "E3",
                        "ticks": 10240,
                        "time": 20,
                        "velocity": 0.3700787401574803
                    },
                    {
                        "duration": 0.123046875,
                        "durationTicks": 63,
                        "midi": 81,
                        "name": "A5",
                        "ticks": 10368,
                        "time": 20.25,
                        "velocity": 0.3779527559055118
                    },
                    {
                        "duration": 0.123046875,
                        "durationTicks": 63,
                        "midi": 84,
                        "name": "C6",
                        "ticks": 10368,
                        "time": 20.25,
                        "velocity": 0.3779527559055118
                    },
                    {
                        "duration": 0.123046875,
                        "durationTicks": 63,
                        "midi": 88,
                        "name": "E6",
                        "ticks": 10368,
                        "time": 20.25,
                        "velocity": 0.3779527559055118
                    },
                    {
                        "duration": 0.248046875,
                        "durationTicks": 127,
                        "midi": 81,
                        "name": "A5",
                        "ticks": 10496,
                        "time": 20.5,
                        "velocity": 0.41732283464566927
                    },
                    {
                        "duration": 0.248046875,
                        "durationTicks": 127,
                        "midi": 84,
                        "name": "C6",
                        "ticks": 10496,
                        "time": 20.5,
                        "velocity": 0.41732283464566927
                    },
                    {
                        "duration": 0.248046875,
                        "durationTicks": 127,
                        "midi": 88,
                        "name": "E6",
                        "ticks": 10496,
                        "time": 20.5,
                        "velocity": 0.41732283464566927
                    },
                    {
                        "duration": 0.248046875,
                        "durationTicks": 127,
                        "midi": 54,
                        "name": "F#3",
                        "ticks": 10496,
                        "time": 20.5,
                        "velocity": 0.4566929133858268
                    },
                    {
                        "duration": 0.248046875,
                        "durationTicks": 127,
                        "midi": 57,
                        "name": "A3",
                        "ticks": 10496,
                        "time": 20.5,
                        "velocity": 0.4566929133858268
                    },
                    {
                        "duration": 0.123046875,
                        "durationTicks": 63,
                        "midi": 80,
                        "name": "G#5",
                        "ticks": 10752,
                        "time": 21,
                        "velocity": 0.4015748031496063
                    },
                    {
                        "duration": 0.123046875,
                        "durationTicks": 63,
                        "midi": 83,
                        "name": "B5",
                        "ticks": 10752,
                        "time": 21,
                        "velocity": 0.4015748031496063
                    },
                    {
                        "duration": 0.123046875,
                        "durationTicks": 63,
                        "midi": 86,
                        "name": "D6",
                        "ticks": 10752,
                        "time": 21,
                        "velocity": 0.4015748031496063
                    },
                    {
                        "duration": 0.248046875,
                        "durationTicks": 127,
                        "midi": 52,
                        "name": "E3",
                        "ticks": 10752,
                        "time": 21,
                        "velocity": 0.3937007874015748
                    },
                    {
                        "duration": 0.123046875,
                        "durationTicks": 63,
                        "midi": 80,
                        "name": "G#5",
                        "ticks": 10880,
                        "time": 21.25,
                        "velocity": 0.4094488188976378
                    },
                    {
                        "duration": 0.123046875,
                        "durationTicks": 63,
                        "midi": 83,
                        "name": "B5",
                        "ticks": 10880,
                        "time": 21.25,
                        "velocity": 0.4094488188976378
                    },
                    {
                        "duration": 0.123046875,
                        "durationTicks": 63,
                        "midi": 86,
                        "name": "D6",
                        "ticks": 10880,
                        "time": 21.25,
                        "velocity": 0.4094488188976378
                    },
                    {
                        "duration": 0.248046875,
                        "durationTicks": 127,
                        "midi": 80,
                        "name": "G#5",
                        "ticks": 11008,
                        "time": 21.5,
                        "velocity": 0.3858267716535433
                    },
                    {
                        "duration": 0.248046875,
                        "durationTicks": 127,
                        "midi": 83,
                        "name": "B5",
                        "ticks": 11008,
                        "time": 21.5,
                        "velocity": 0.3858267716535433
                    },
                    {
                        "duration": 0.248046875,
                        "durationTicks": 127,
                        "midi": 86,
                        "name": "D6",
                        "ticks": 11008,
                        "time": 21.5,
                        "velocity": 0.3858267716535433
                    },
                    {
                        "duration": 0.248046875,
                        "durationTicks": 127,
                        "midi": 56,
                        "name": "G#3",
                        "ticks": 11008,
                        "time": 21.5,
                        "velocity": 0.4566929133858268
                    },
                    {
                        "duration": 0.248046875,
                        "durationTicks": 127,
                        "midi": 59,
                        "name": "B3",
                        "ticks": 11008,
                        "time": 21.5,
                        "velocity": 0.4566929133858268
                    },
                    {
                        "duration": 0.123046875,
                        "durationTicks": 63,
                        "midi": 81,
                        "name": "A5",
                        "ticks": 11264,
                        "time": 22,
                        "velocity": 0.4409448818897638
                    },
                    {
                        "duration": 0.123046875,
                        "durationTicks": 63,
                        "midi": 85,
                        "name": "C#6",
                        "ticks": 11264,
                        "time": 22,
                        "velocity": 0.4409448818897638
                    },
                    {
                        "duration": 0.248046875,
                        "durationTicks": 127,
                        "midi": 57,
                        "name": "A3",
                        "ticks": 11264,
                        "time": 22,
                        "velocity": 0.4645669291338583
                    },
                    {
                        "duration": 0.248046875,
                        "durationTicks": 127,
                        "midi": 64,
                        "name": "E4",
                        "ticks": 11264,
                        "time": 22,
                        "velocity": 0.4645669291338583
                    },
                    {
                        "duration": 0.123046875,
                        "durationTicks": 63,
                        "midi": 88,
                        "name": "E6",
                        "ticks": 11392,
                        "time": 22.25,
                        "velocity": 0.4251968503937008
                    },
                    {
                        "duration": 0.123046875,
                        "durationTicks": 63,
                        "midi": 80,
                        "name": "G#5",
                        "ticks": 11520,
                        "time": 22.5,
                        "velocity": 0.3779527559055118
                    },
                    {
                        "duration": 0.123046875,
                        "durationTicks": 63,
                        "midi": 86,
                        "name": "D6",
                        "ticks": 11520,
                        "time": 22.5,
                        "velocity": 0.3779527559055118
                    },
                    {
                        "duration": 0.248046875,
                        "durationTicks": 127,
                        "midi": 58,
                        "name": "A#3",
                        "ticks": 11520,
                        "time": 22.5,
                        "velocity": 0.36220472440944884
                    },
                    {
                        "duration": 0.248046875,
                        "durationTicks": 127,
                        "midi": 64,
                        "name": "E4",
                        "ticks": 11520,
                        "time": 22.5,
                        "velocity": 0.36220472440944884
                    },
                    {
                        "duration": 0.123046875,
                        "durationTicks": 63,
                        "midi": 88,
                        "name": "E6",
                        "ticks": 11648,
                        "time": 22.75,
                        "velocity": 0.4330708661417323
                    },
                    {
                        "duration": 0.248046875,
                        "durationTicks": 127,
                        "midi": 81,
                        "name": "A5",
                        "ticks": 11776,
                        "time": 23,
                        "velocity": 0.3700787401574803
                    },
                    {
                        "duration": 0.248046875,
                        "durationTicks": 127,
                        "midi": 85,
                        "name": "C#6",
                        "ticks": 11776,
                        "time": 23,
                        "velocity": 0.3700787401574803
                    },
                    {
                        "duration": 0.248046875,
                        "durationTicks": 127,
                        "midi": 57,
                        "name": "A3",
                        "ticks": 11776,
                        "time": 23,
                        "velocity": 0.3858267716535433
                    },
                    {
                        "duration": 0.248046875,
                        "durationTicks": 127,
                        "midi": 64,
                        "name": "E4",
                        "ticks": 11776,
                        "time": 23,
                        "velocity": 0.3858267716535433
                    },
                    {
                        "duration": 0.125,
                        "durationTicks": 64,
                        "midi": 57,
                        "name": "A3",
                        "ticks": 12032,
                        "time": 23.5,
                        "velocity": 0.3700787401574803
                    },
                    {
                        "duration": 0.125,
                        "durationTicks": 64,
                        "midi": 55,
                        "name": "G3",
                        "ticks": 12096,
                        "time": 23.625,
                        "velocity": 0.3937007874015748
                    },
                    {
                        "duration": 0.125,
                        "durationTicks": 64,
                        "midi": 53,
                        "name": "F3",
                        "ticks": 12160,
                        "time": 23.75,
                        "velocity": 0.36220472440944884
                    },
                    {
                        "duration": 0.125,
                        "durationTicks": 64,
                        "midi": 52,
                        "name": "E3",
                        "ticks": 12224,
                        "time": 23.875,
                        "velocity": 0.4015748031496063
                    },
                    {
                        "duration": 0.197265625,
                        "durationTicks": 101,
                        "midi": 50,
                        "name": "D3",
                        "ticks": 12288,
                        "time": 24,
                        "velocity": 0.3779527559055118
                    },
                    {
                        "duration": 0.123046875,
                        "durationTicks": 63,
                        "midi": 81,
                        "name": "A5",
                        "ticks": 12544,
                        "time": 24.5,
                        "velocity": 0.36220472440944884
                    },
                    {
                        "duration": 0.123046875,
                        "durationTicks": 63,
                        "midi": 89,
                        "name": "F6",
                        "ticks": 12544,
                        "time": 24.5,
                        "velocity": 0.36220472440944884
                    },
                    {
                        "duration": 0.248046875,
                        "durationTicks": 127,
                        "midi": 53,
                        "name": "F3",
                        "ticks": 12544,
                        "time": 24.5,
                        "velocity": 0.4330708661417323
                    },
                    {
                        "duration": 0.248046875,
                        "durationTicks": 127,
                        "midi": 57,
                        "name": "A3",
                        "ticks": 12544,
                        "time": 24.5,
                        "velocity": 0.4330708661417323
                    },
                    {
                        "duration": 0.123046875,
                        "durationTicks": 63,
                        "midi": 86,
                        "name": "D6",
                        "ticks": 12672,
                        "time": 24.75,
                        "velocity": 0.36220472440944884
                    },
                    {
                        "duration": 0.248046875,
                        "durationTicks": 127,
                        "midi": 81,
                        "name": "A5",
                        "ticks": 12800,
                        "time": 25,
                        "velocity": 0.44881889763779526
                    },
                    {
                        "duration": 0.248046875,
                        "durationTicks": 127,
                        "midi": 89,
                        "name": "F6",
                        "ticks": 12800,
                        "time": 25,
                        "velocity": 0.44881889763779526
                    },
                    {
                        "duration": 0.248046875,
                        "durationTicks": 127,
                        "midi": 50,
                        "name": "D3",
                        "ticks": 12800,
                        "time": 25,
                        "velocity": 0.3700787401574803
                    },
                    {
                        "duration": 0.248046875,
                        "durationTicks": 127,
                        "midi": 79,
                        "name": "G5",
                        "ticks": 13056,
                        "time": 25.5,
                        "velocity": 0.3543307086614173
                    },
                    {
                        "duration": 0.248046875,
                        "durationTicks": 127,
                        "midi": 88,
                        "name": "E6",
                        "ticks": 13056,
                        "time": 25.5,
                        "velocity": 0.3543307086614173
                    },
                    {
                        "duration": 0.248046875,
                        "durationTicks": 127,
                        "midi": 55,
                        "name": "G3",
                        "ticks": 13056,
                        "time": 25.5,
                        "velocity": 0.3779527559055118
                    },
                    {
                        "duration": 0.248046875,
                        "durationTicks": 127,
                        "midi": 58,
                        "name": "A#3",
                        "ticks": 13056,
                        "time": 25.5,
                        "velocity": 0.3779527559055118
                    },
                    {
                        "duration": 0.248046875,
                        "durationTicks": 127,
                        "midi": 76,
                        "name": "E5",
                        "ticks": 13312,
                        "time": 26,
                        "velocity": 0.3937007874015748
                    },
                    {
                        "duration": 0.248046875,
                        "durationTicks": 127,
                        "midi": 85,
                        "name": "C#6",
                        "ticks": 13312,
                        "time": 26,
                        "velocity": 0.3937007874015748
                    },
                    {
                        "duration": 0.248046875,
                        "durationTicks": 127,
                        "midi": 50,
                        "name": "D3",
                        "ticks": 13312,
                        "time": 26,
                        "velocity": 0.3858267716535433
                    },
                    {
                        "duration": 0.248046875,
                        "durationTicks": 127,
                        "midi": 77,
                        "name": "F5",
                        "ticks": 13568,
                        "time": 26.5,
                        "velocity": 0.44881889763779526
                    },
                    {
                        "duration": 0.248046875,
                        "durationTicks": 127,
                        "midi": 86,
                        "name": "D6",
                        "ticks": 13568,
                        "time": 26.5,
                        "velocity": 0.44881889763779526
                    },
                    {
                        "duration": 0.248046875,
                        "durationTicks": 127,
                        "midi": 56,
                        "name": "G#3",
                        "ticks": 13568,
                        "time": 26.5,
                        "velocity": 0.4251968503937008
                    },
                    {
                        "duration": 0.248046875,
                        "durationTicks": 127,
                        "midi": 59,
                        "name": "B3",
                        "ticks": 13568,
                        "time": 26.5,
                        "velocity": 0.4251968503937008
                    },
                    {
                        "duration": 0.123046875,
                        "durationTicks": 63,
                        "midi": 75,
                        "name": "D#5",
                        "ticks": 13824,
                        "time": 27,
                        "velocity": 0.36220472440944884
                    },
                    {
                        "duration": 0.123046875,
                        "durationTicks": 63,
                        "midi": 78,
                        "name": "F#5",
                        "ticks": 13824,
                        "time": 27,
                        "velocity": 0.36220472440944884
                    },
                    {
                        "duration": 0.123046875,
                        "durationTicks": 63,
                        "midi": 84,
                        "name": "C6",
                        "ticks": 13824,
                        "time": 27,
                        "velocity": 0.36220472440944884
                    },
                    {
                        "duration": 0.248046875,
                        "durationTicks": 127,
                        "midi": 50,
                        "name": "D3",
                        "ticks": 13824,
                        "time": 27,
                        "velocity": 0.3228346456692913
                    },
                    {
                        "duration": 0.123046875,
                        "durationTicks": 63,
                        "midi": 75,
                        "name": "D#5",
                        "ticks": 13952,
                        "time": 27.25,
                        "velocity": 0.4094488188976378
                    },
                    {
                        "duration": 0.123046875,
                        "durationTicks": 63,
                        "midi": 78,
                        "name": "F#5",
                        "ticks": 13952,
                        "time": 27.25,
                        "velocity": 0.4094488188976378
                    },
                    {
                        "duration": 0.123046875,
                        "durationTicks": 63,
                        "midi": 84,
                        "name": "C6",
                        "ticks": 13952,
                        "time": 27.25,
                        "velocity": 0.4094488188976378
                    },
                    {
                        "duration": 0.248046875,
                        "durationTicks": 127,
                        "midi": 75,
                        "name": "D#5",
                        "ticks": 14080,
                        "time": 27.5,
                        "velocity": 0.4015748031496063
                    },
                    {
                        "duration": 0.248046875,
                        "durationTicks": 127,
                        "midi": 78,
                        "name": "F#5",
                        "ticks": 14080,
                        "time": 27.5,
                        "velocity": 0.4015748031496063
                    },
                    {
                        "duration": 0.248046875,
                        "durationTicks": 127,
                        "midi": 84,
                        "name": "C6",
                        "ticks": 14080,
                        "time": 27.5,
                        "velocity": 0.4015748031496063
                    },
                    {
                        "duration": 0.248046875,
                        "durationTicks": 127,
                        "midi": 57,
                        "name": "A3",
                        "ticks": 14080,
                        "time": 27.5,
                        "velocity": 0.5118110236220472
                    },
                    {
                        "duration": 0.248046875,
                        "durationTicks": 127,
                        "midi": 60,
                        "name": "C4",
                        "ticks": 14080,
                        "time": 27.5,
                        "velocity": 0.5118110236220472
                    },
                    {
                        "duration": 0.123046875,
                        "durationTicks": 63,
                        "midi": 74,
                        "name": "D5",
                        "ticks": 14336,
                        "time": 28,
                        "velocity": 0.4094488188976378
                    },
                    {
                        "duration": 0.123046875,
                        "durationTicks": 63,
                        "midi": 77,
                        "name": "F5",
                        "ticks": 14336,
                        "time": 28,
                        "velocity": 0.4094488188976378
                    },
                    {
                        "duration": 0.123046875,
                        "durationTicks": 63,
                        "midi": 83,
                        "name": "B5",
                        "ticks": 14336,
                        "time": 28,
                        "velocity": 0.4094488188976378
                    },
                    {
                        "duration": 0.248046875,
                        "durationTicks": 127,
                        "midi": 50,
                        "name": "D3",
                        "ticks": 14336,
                        "time": 28,
                        "velocity": 0.3779527559055118
                    },
                    {
                        "duration": 0.123046875,
                        "durationTicks": 63,
                        "midi": 74,
                        "name": "D5",
                        "ticks": 14464,
                        "time": 28.25,
                        "velocity": 0.3700787401574803
                    },
                    {
                        "duration": 0.123046875,
                        "durationTicks": 63,
                        "midi": 77,
                        "name": "F5",
                        "ticks": 14464,
                        "time": 28.25,
                        "velocity": 0.3700787401574803
                    },
                    {
                        "duration": 0.123046875,
                        "durationTicks": 63,
                        "midi": 83,
                        "name": "B5",
                        "ticks": 14464,
                        "time": 28.25,
                        "velocity": 0.3700787401574803
                    },
                    {
                        "duration": 0.248046875,
                        "durationTicks": 127,
                        "midi": 74,
                        "name": "D5",
                        "ticks": 14592,
                        "time": 28.5,
                        "velocity": 0.41732283464566927
                    },
                    {
                        "duration": 0.248046875,
                        "durationTicks": 127,
                        "midi": 77,
                        "name": "F5",
                        "ticks": 14592,
                        "time": 28.5,
                        "velocity": 0.41732283464566927
                    },
                    {
                        "duration": 0.248046875,
                        "durationTicks": 127,
                        "midi": 83,
                        "name": "B5",
                        "ticks": 14592,
                        "time": 28.5,
                        "velocity": 0.41732283464566927
                    },
                    {
                        "duration": 0.248046875,
                        "durationTicks": 127,
                        "midi": 56,
                        "name": "G#3",
                        "ticks": 14592,
                        "time": 28.5,
                        "velocity": 0.44881889763779526
                    },
                    {
                        "duration": 0.248046875,
                        "durationTicks": 127,
                        "midi": 59,
                        "name": "B3",
                        "ticks": 14592,
                        "time": 28.5,
                        "velocity": 0.44881889763779526
                    },
                    {
                        "duration": 0.123046875,
                        "durationTicks": 63,
                        "midi": 73,
                        "name": "C#5",
                        "ticks": 14848,
                        "time": 29,
                        "velocity": 0.4251968503937008
                    },
                    {
                        "duration": 0.123046875,
                        "durationTicks": 63,
                        "midi": 76,
                        "name": "E5",
                        "ticks": 14848,
                        "time": 29,
                        "velocity": 0.4251968503937008
                    },
                    {
                        "duration": 0.123046875,
                        "durationTicks": 63,
                        "midi": 82,
                        "name": "A#5",
                        "ticks": 14848,
                        "time": 29,
                        "velocity": 0.4251968503937008
                    },
                    {
                        "duration": 0.248046875,
                        "durationTicks": 127,
                        "midi": 50,
                        "name": "D3",
                        "ticks": 14848,
                        "time": 29,
                        "velocity": 0.36220472440944884
                    },
                    {
                        "duration": 0.123046875,
                        "durationTicks": 63,
                        "midi": 73,
                        "name": "C#5",
                        "ticks": 14976,
                        "time": 29.25,
                        "velocity": 0.3779527559055118
                    },
                    {
                        "duration": 0.123046875,
                        "durationTicks": 63,
                        "midi": 76,
                        "name": "E5",
                        "ticks": 14976,
                        "time": 29.25,
                        "velocity": 0.3779527559055118
                    },
                    {
                        "duration": 0.123046875,
                        "durationTicks": 63,
                        "midi": 82,
                        "name": "A#5",
                        "ticks": 14976,
                        "time": 29.25,
                        "velocity": 0.3779527559055118
                    },
                    {
                        "duration": 0.248046875,
                        "durationTicks": 127,
                        "midi": 73,
                        "name": "C#5",
                        "ticks": 15104,
                        "time": 29.5,
                        "velocity": 0.3858267716535433
                    },
                    {
                        "duration": 0.248046875,
                        "durationTicks": 127,
                        "midi": 76,
                        "name": "E5",
                        "ticks": 15104,
                        "time": 29.5,
                        "velocity": 0.3858267716535433
                    },
                    {
                        "duration": 0.248046875,
                        "durationTicks": 127,
                        "midi": 82,
                        "name": "A#5",
                        "ticks": 15104,
                        "time": 29.5,
                        "velocity": 0.3858267716535433
                    },
                    {
                        "duration": 0.248046875,
                        "durationTicks": 127,
                        "midi": 55,
                        "name": "G3",
                        "ticks": 15104,
                        "time": 29.5,
                        "velocity": 0.4094488188976378
                    },
                    {
                        "duration": 0.248046875,
                        "durationTicks": 127,
                        "midi": 58,
                        "name": "A#3",
                        "ticks": 15104,
                        "time": 29.5,
                        "velocity": 0.4094488188976378
                    },
                    {
                        "duration": 0.123046875,
                        "durationTicks": 63,
                        "midi": 77,
                        "name": "F5",
                        "ticks": 15360,
                        "time": 30,
                        "velocity": 0.3700787401574803
                    },
                    {
                        "duration": 0.123046875,
                        "durationTicks": 63,
                        "midi": 81,
                        "name": "A5",
                        "ticks": 15360,
                        "time": 30,
                        "velocity": 0.3700787401574803
                    },
                    {
                        "duration": 0.248046875,
                        "durationTicks": 127,
                        "midi": 50,
                        "name": "D3",
                        "ticks": 15360,
                        "time": 30,
                        "velocity": 0.3937007874015748
                    },
                    {
                        "duration": 0.123046875,
                        "durationTicks": 63,
                        "midi": 86,
                        "name": "D6",
                        "ticks": 15488,
                        "time": 30.25,
                        "velocity": 0.4409448818897638
                    },
                    {
                        "duration": 0.123046875,
                        "durationTicks": 63,
                        "midi": 79,
                        "name": "G5",
                        "ticks": 15616,
                        "time": 30.5,
                        "velocity": 0.3464566929133858
                    },
                    {
                        "duration": 0.123046875,
                        "durationTicks": 63,
                        "midi": 82,
                        "name": "A#5",
                        "ticks": 15616,
                        "time": 30.5,
                        "velocity": 0.3464566929133858
                    },
                    {
                        "duration": 0.248046875,
                        "durationTicks": 127,
                        "midi": 62,
                        "name": "D4",
                        "ticks": 15616,
                        "time": 30.5,
                        "velocity": 0.48031496062992124
                    },
                    {
                        "duration": 0.248046875,
                        "durationTicks": 127,
                        "midi": 64,
                        "name": "E4",
                        "ticks": 15616,
                        "time": 30.5,
                        "velocity": 0.48031496062992124
                    },
                    {
                        "duration": 0.123046875,
                        "durationTicks": 63,
                        "midi": 86,
                        "name": "D6",
                        "ticks": 15744,
                        "time": 30.75,
                        "velocity": 0.4094488188976378
                    },
                    {
                        "duration": 0.248046875,
                        "durationTicks": 127,
                        "midi": 77,
                        "name": "F5",
                        "ticks": 15872,
                        "time": 31,
                        "velocity": 0.33858267716535434
                    },
                    {
                        "duration": 0.248046875,
                        "durationTicks": 127,
                        "midi": 81,
                        "name": "A5",
                        "ticks": 15872,
                        "time": 31,
                        "velocity": 0.33858267716535434
                    },
                    {
                        "duration": 0.248046875,
                        "durationTicks": 127,
                        "midi": 62,
                        "name": "D4",
                        "ticks": 15872,
                        "time": 31,
                        "velocity": 0.4015748031496063
                    },
                    {
                        "duration": 0.248046875,
                        "durationTicks": 127,
                        "midi": 65,
                        "name": "F4",
                        "ticks": 15872,
                        "time": 31,
                        "velocity": 0.4015748031496063
                    },
                    {
                        "duration": 0.125,
                        "durationTicks": 64,
                        "midi": 65,
                        "name": "F4",
                        "ticks": 16128,
                        "time": 31.5,
                        "velocity": 0.3937007874015748
                    },
                    {
                        "duration": 0.125,
                        "durationTicks": 64,
                        "midi": 64,
                        "name": "E4",
                        "ticks": 16192,
                        "time": 31.625,
                        "velocity": 0.41732283464566927
                    },
                    {
                        "duration": 0.125,
                        "durationTicks": 64,
                        "midi": 62,
                        "name": "D4",
                        "ticks": 16256,
                        "time": 31.75,
                        "velocity": 0.36220472440944884
                    },
                    {
                        "duration": 0.125,
                        "durationTicks": 64,
                        "midi": 60,
                        "name": "C4",
                        "ticks": 16320,
                        "time": 31.875,
                        "velocity": 0.36220472440944884
                    },
                    {
                        "duration": 0.400390625,
                        "durationTicks": 205,
                        "midi": 59,
                        "name": "B3",
                        "ticks": 16384,
                        "time": 32,
                        "velocity": 0.3779527559055118
                    },
                    {
                        "duration": 0.123046875,
                        "durationTicks": 63,
                        "midi": 68,
                        "name": "G#4",
                        "ticks": 16640,
                        "time": 32.5,
                        "velocity": 0.3464566929133858
                    },
                    {
                        "duration": 0.123046875,
                        "durationTicks": 63,
                        "midi": 74,
                        "name": "D5",
                        "ticks": 16640,
                        "time": 32.5,
                        "velocity": 0.3464566929133858
                    },
                    {
                        "duration": 1,
                        "durationTicks": 512,
                        "midi": 64,
                        "name": "E4",
                        "ticks": 16640,
                        "time": 32.5,
                        "velocity": 0.6535433070866141
                    },
                    {
                        "duration": 0.123046875,
                        "durationTicks": 63,
                        "midi": 71,
                        "name": "B4",
                        "ticks": 16768,
                        "time": 32.75,
                        "velocity": 0.36220472440944884
                    },
                    {
                        "duration": 0.248046875,
                        "durationTicks": 127,
                        "midi": 68,
                        "name": "G#4",
                        "ticks": 16896,
                        "time": 33,
                        "velocity": 0.4094488188976378
                    },
                    {
                        "duration": 0.248046875,
                        "durationTicks": 127,
                        "midi": 74,
                        "name": "D5",
                        "ticks": 16896,
                        "time": 33,
                        "velocity": 0.4094488188976378
                    },
                    {
                        "duration": 0.248046875,
                        "durationTicks": 127,
                        "midi": 67,
                        "name": "G4",
                        "ticks": 17152,
                        "time": 33.5,
                        "velocity": 0.3543307086614173
                    },
                    {
                        "duration": 0.248046875,
                        "durationTicks": 127,
                        "midi": 69,
                        "name": "A4",
                        "ticks": 17152,
                        "time": 33.5,
                        "velocity": 0.3543307086614173
                    },
                    {
                        "duration": 0.248046875,
                        "durationTicks": 127,
                        "midi": 73,
                        "name": "C#5",
                        "ticks": 17152,
                        "time": 33.5,
                        "velocity": 0.3543307086614173
                    },
                    {
                        "duration": 0.400390625,
                        "durationTicks": 205,
                        "midi": 57,
                        "name": "A3",
                        "ticks": 17152,
                        "time": 33.5,
                        "velocity": 0.33858267716535434
                    },
                    {
                        "duration": 0.5,
                        "durationTicks": 256,
                        "midi": 50,
                        "name": "D3",
                        "ticks": 17408,
                        "time": 34,
                        "velocity": 0.4015748031496063
                    },
                    {
                        "duration": 0.123046875,
                        "durationTicks": 63,
                        "midi": 66,
                        "name": "F#4",
                        "ticks": 17664,
                        "time": 34.5,
                        "velocity": 0.3228346456692913
                    },
                    {
                        "duration": 0.123046875,
                        "durationTicks": 63,
                        "midi": 72,
                        "name": "C5",
                        "ticks": 17664,
                        "time": 34.5,
                        "velocity": 0.3228346456692913
                    },
                    {
                        "duration": 1,
                        "durationTicks": 512,
                        "midi": 62,
                        "name": "D4",
                        "ticks": 17664,
                        "time": 34.5,
                        "velocity": 0.7007874015748031
                    },
                    {
                        "duration": 0.123046875,
                        "durationTicks": 63,
                        "midi": 69,
                        "name": "A4",
                        "ticks": 17792,
                        "time": 34.75,
                        "velocity": 0.3700787401574803
                    },
                    {
                        "duration": 0.248046875,
                        "durationTicks": 127,
                        "midi": 66,
                        "name": "F#4",
                        "ticks": 17920,
                        "time": 35,
                        "velocity": 0.41732283464566927
                    },
                    {
                        "duration": 0.248046875,
                        "durationTicks": 127,
                        "midi": 72,
                        "name": "C5",
                        "ticks": 17920,
                        "time": 35,
                        "velocity": 0.41732283464566927
                    },
                    {
                        "duration": 0.248046875,
                        "durationTicks": 127,
                        "midi": 65,
                        "name": "F4",
                        "ticks": 18176,
                        "time": 35.5,
                        "velocity": 0.3543307086614173
                    },
                    {
                        "duration": 0.248046875,
                        "durationTicks": 127,
                        "midi": 67,
                        "name": "G4",
                        "ticks": 18176,
                        "time": 35.5,
                        "velocity": 0.3543307086614173
                    },
                    {
                        "duration": 0.248046875,
                        "durationTicks": 127,
                        "midi": 71,
                        "name": "B4",
                        "ticks": 18176,
                        "time": 35.5,
                        "velocity": 0.3543307086614173
                    },
                    {
                        "duration": 0.400390625,
                        "durationTicks": 205,
                        "midi": 55,
                        "name": "G3",
                        "ticks": 18176,
                        "time": 35.5,
                        "velocity": 0.36220472440944884
                    },
                    {
                        "duration": 0.5,
                        "durationTicks": 256,
                        "midi": 48,
                        "name": "C3",
                        "ticks": 18432,
                        "time": 36,
                        "velocity": 0.3543307086614173
                    },
                    {
                        "duration": 0.123046875,
                        "durationTicks": 63,
                        "midi": 64,
                        "name": "E4",
                        "ticks": 18688,
                        "time": 36.5,
                        "velocity": 0.33858267716535434
                    },
                    {
                        "duration": 0.123046875,
                        "durationTicks": 63,
                        "midi": 70,
                        "name": "A#4",
                        "ticks": 18688,
                        "time": 36.5,
                        "velocity": 0.33858267716535434
                    },
                    {
                        "duration": 1,
                        "durationTicks": 512,
                        "midi": 60,
                        "name": "C4",
                        "ticks": 18688,
                        "time": 36.5,
                        "velocity": 0.7165354330708661
                    },
                    {
                        "duration": 0.123046875,
                        "durationTicks": 63,
                        "midi": 67,
                        "name": "G4",
                        "ticks": 18816,
                        "time": 36.75,
                        "velocity": 0.33070866141732286
                    },
                    {
                        "duration": 0.248046875,
                        "durationTicks": 127,
                        "midi": 64,
                        "name": "E4",
                        "ticks": 18944,
                        "time": 37,
                        "velocity": 0.3937007874015748
                    },
                    {
                        "duration": 0.248046875,
                        "durationTicks": 127,
                        "midi": 70,
                        "name": "A#4",
                        "ticks": 18944,
                        "time": 37,
                        "velocity": 0.3937007874015748
                    },
                    {
                        "duration": 0.248046875,
                        "durationTicks": 127,
                        "midi": 65,
                        "name": "F4",
                        "ticks": 19200,
                        "time": 37.5,
                        "velocity": 0.3858267716535433
                    },
                    {
                        "duration": 0.248046875,
                        "durationTicks": 127,
                        "midi": 69,
                        "name": "A4",
                        "ticks": 19200,
                        "time": 37.5,
                        "velocity": 0.3858267716535433
                    },
                    {
                        "duration": 0.400390625,
                        "durationTicks": 205,
                        "midi": 53,
                        "name": "F3",
                        "ticks": 19200,
                        "time": 37.5,
                        "velocity": 0.3858267716535433
                    },
                    {
                        "duration": 0.248046875,
                        "durationTicks": 127,
                        "midi": 57,
                        "name": "A3",
                        "ticks": 19456,
                        "time": 38,
                        "velocity": 0.41732283464566927
                    },
                    {
                        "duration": 0.5,
                        "durationTicks": 256,
                        "midi": 69,
                        "name": "A4",
                        "ticks": 19712,
                        "time": 38.5,
                        "velocity": 0.3779527559055118
                    },
                    {
                        "duration": 0.248046875,
                        "durationTicks": 127,
                        "midi": 52,
                        "name": "E3",
                        "ticks": 19712,
                        "time": 38.5,
                        "velocity": 0.3700787401574803
                    },
                    {
                        "duration": 0.248046875,
                        "durationTicks": 127,
                        "midi": 55,
                        "name": "G3",
                        "ticks": 19712,
                        "time": 38.5,
                        "velocity": 0.3700787401574803
                    },
                    {
                        "duration": 0.421875,
                        "durationTicks": 216,
                        "midi": 73,
                        "name": "C#5",
                        "ticks": 19752,
                        "time": 38.578125,
                        "velocity": 0.3779527559055118
                    },
                    {
                        "duration": 0.34375,
                        "durationTicks": 176,
                        "midi": 81,
                        "name": "A5",
                        "ticks": 19792,
                        "time": 38.65625,
                        "velocity": 0.3779527559055118
                    },
                    {
                        "duration": 0.5,
                        "durationTicks": 256,
                        "midi": 74,
                        "name": "D5",
                        "ticks": 19968,
                        "time": 39,
                        "velocity": 0.3228346456692913
                    },
                    {
                        "duration": 0.248046875,
                        "durationTicks": 127,
                        "midi": 50,
                        "name": "D3",
                        "ticks": 19968,
                        "time": 39,
                        "velocity": 0.41732283464566927
                    },
                    {
                        "duration": 0.248046875,
                        "durationTicks": 127,
                        "midi": 53,
                        "name": "F3",
                        "ticks": 19968,
                        "time": 39,
                        "velocity": 0.41732283464566927
                    },
                    {
                        "duration": 4,
                        "durationTicks": 2048,
                        "midi": 45,
                        "name": "A2",
                        "ticks": 20224,
                        "time": 39.5,
                        "velocity": 0.7007874015748031
                    },
                    {
                        "duration": 0.5,
                        "durationTicks": 256,
                        "midi": 50,
                        "name": "D3",
                        "ticks": 20480,
                        "time": 40,
                        "velocity": 0.5354330708661418
                    },
                    {
                        "duration": 0.5,
                        "durationTicks": 256,
                        "midi": 53,
                        "name": "F3",
                        "ticks": 20480,
                        "time": 40,
                        "velocity": 0.5354330708661418
                    },
                    {
                        "duration": 0.123046875,
                        "durationTicks": 63,
                        "midi": 59,
                        "name": "B3",
                        "ticks": 20608,
                        "time": 40.25,
                        "velocity": 0.3543307086614173
                    },
                    {
                        "duration": 0.5,
                        "durationTicks": 256,
                        "midi": 52,
                        "name": "E3",
                        "ticks": 20736,
                        "time": 40.5,
                        "velocity": 0.3937007874015748
                    },
                    {
                        "duration": 0.5,
                        "durationTicks": 256,
                        "midi": 55,
                        "name": "G3",
                        "ticks": 20736,
                        "time": 40.5,
                        "velocity": 0.3937007874015748
                    },
                    {
                        "duration": 0.123046875,
                        "durationTicks": 63,
                        "midi": 61,
                        "name": "C#4",
                        "ticks": 20864,
                        "time": 40.75,
                        "velocity": 0.4330708661417323
                    },
                    {
                        "duration": 0.5,
                        "durationTicks": 256,
                        "midi": 53,
                        "name": "F3",
                        "ticks": 20992,
                        "time": 41,
                        "velocity": 0.4645669291338583
                    },
                    {
                        "duration": 0.123046875,
                        "durationTicks": 63,
                        "midi": 57,
                        "name": "A3",
                        "ticks": 21120,
                        "time": 41.25,
                        "velocity": 0.49606299212598426
                    },
                    {
                        "duration": 0.123046875,
                        "durationTicks": 63,
                        "midi": 62,
                        "name": "D4",
                        "ticks": 21120,
                        "time": 41.25,
                        "velocity": 0.49606299212598426
                    },
                    {
                        "duration": 0.5,
                        "durationTicks": 256,
                        "midi": 55,
                        "name": "G3",
                        "ticks": 21248,
                        "time": 41.5,
                        "velocity": 0.5275590551181102
                    },
                    {
                        "duration": 0.123046875,
                        "durationTicks": 63,
                        "midi": 57,
                        "name": "A3",
                        "ticks": 21376,
                        "time": 41.75,
                        "velocity": 0.5590551181102362
                    },
                    {
                        "duration": 0.123046875,
                        "durationTicks": 63,
                        "midi": 64,
                        "name": "E4",
                        "ticks": 21376,
                        "time": 41.75,
                        "velocity": 0.5590551181102362
                    },
                    {
                        "duration": 0.5,
                        "durationTicks": 256,
                        "midi": 57,
                        "name": "A3",
                        "ticks": 21504,
                        "time": 42,
                        "velocity": 0.6220472440944882
                    },
                    {
                        "duration": 0.123046875,
                        "durationTicks": 63,
                        "midi": 62,
                        "name": "D4",
                        "ticks": 21632,
                        "time": 42.25,
                        "velocity": 0.5984251968503937
                    },
                    {
                        "duration": 0.123046875,
                        "durationTicks": 63,
                        "midi": 65,
                        "name": "F4",
                        "ticks": 21632,
                        "time": 42.25,
                        "velocity": 0.5984251968503937
                    },
                    {
                        "duration": 0.5,
                        "durationTicks": 256,
                        "midi": 53,
                        "name": "F3",
                        "ticks": 21760,
                        "time": 42.5,
                        "velocity": 0.5590551181102362
                    },
                    {
                        "duration": 0.25,
                        "durationTicks": 128,
                        "midi": 59,
                        "name": "B3",
                        "ticks": 21888,
                        "time": 42.75,
                        "velocity": 0.5196850393700787
                    },
                    {
                        "duration": 0.25,
                        "durationTicks": 128,
                        "midi": 62,
                        "name": "D4",
                        "ticks": 21888,
                        "time": 42.75,
                        "velocity": 0.5196850393700787
                    },
                    {
                        "duration": 0.400390625,
                        "durationTicks": 205,
                        "midi": 57,
                        "name": "A3",
                        "ticks": 22016,
                        "time": 43,
                        "velocity": 0.47244094488188976
                    },
                    {
                        "duration": 0.400390625,
                        "durationTicks": 205,
                        "midi": 61,
                        "name": "C#4",
                        "ticks": 22016,
                        "time": 43,
                        "velocity": 0.47244094488188976
                    },
                    {
                        "duration": 0.5,
                        "durationTicks": 256,
                        "midi": 52,
                        "name": "E3",
                        "ticks": 22016,
                        "time": 43,
                        "velocity": 0.47244094488188976
                    },
                    {
                        "duration": 0.166015625,
                        "durationTicks": 85,
                        "midi": 57,
                        "name": "A3",
                        "ticks": 22272,
                        "time": 43.5,
                        "velocity": 0.6062992125984252
                    },
                    {
                        "duration": 0.5,
                        "durationTicks": 256,
                        "midi": 45,
                        "name": "A2",
                        "ticks": 22272,
                        "time": 43.5,
                        "velocity": 0.6141732283464567
                    },
                    {
                        "duration": 0.5,
                        "durationTicks": 256,
                        "midi": 49,
                        "name": "C#3",
                        "ticks": 22272,
                        "time": 43.5,
                        "velocity": 0.6141732283464567
                    },
                    {
                        "duration": 0.166015625,
                        "durationTicks": 85,
                        "midi": 58,
                        "name": "A#3",
                        "ticks": 22357,
                        "time": 43.666015625,
                        "velocity": 0.6771653543307087
                    },
                    {
                        "duration": 0.1328125,
                        "durationTicks": 68,
                        "midi": 57,
                        "name": "A3",
                        "ticks": 22442,
                        "time": 43.83203125,
                        "velocity": 0.6062992125984252
                    },
                    {
                        "duration": 0.25,
                        "durationTicks": 128,
                        "midi": 55,
                        "name": "G3",
                        "ticks": 22528,
                        "time": 44,
                        "velocity": 0.6456692913385826
                    },
                    {
                        "duration": 1.400390625,
                        "durationTicks": 717,
                        "midi": 50,
                        "name": "D3",
                        "ticks": 22528,
                        "time": 44,
                        "velocity": 0.6692913385826772
                    },
                    {
                        "duration": 0.09765625,
                        "durationTicks": 50,
                        "midi": 53,
                        "name": "F3",
                        "ticks": 22656,
                        "time": 44.25,
                        "velocity": 0.6299212598425197
                    },
                    {
                        "duration": 0.123046875,
                        "durationTicks": 63,
                        "midi": 53,
                        "name": "F3",
                        "ticks": 22784,
                        "time": 44.5,
                        "velocity": 0.6614173228346457
                    },
                    {
                        "duration": 0.123046875,
                        "durationTicks": 63,
                        "midi": 53,
                        "name": "F3",
                        "ticks": 22912,
                        "time": 44.75,
                        "velocity": 0.6299212598425197
                    },
                    {
                        "duration": 0.123046875,
                        "durationTicks": 63,
                        "midi": 53,
                        "name": "F3",
                        "ticks": 23040,
                        "time": 45,
                        "velocity": 0.6141732283464567
                    },
                    {
                        "duration": 0.123046875,
                        "durationTicks": 63,
                        "midi": 53,
                        "name": "F3",
                        "ticks": 23168,
                        "time": 45.25,
                        "velocity": 0.6692913385826772
                    },
                    {
                        "duration": 0.166015625,
                        "durationTicks": 85,
                        "midi": 53,
                        "name": "F3",
                        "ticks": 23296,
                        "time": 45.5,
                        "velocity": 0.6220472440944882
                    },
                    {
                        "duration": 0.5,
                        "durationTicks": 256,
                        "midi": 43,
                        "name": "G2",
                        "ticks": 23296,
                        "time": 45.5,
                        "velocity": 0.6614173228346457
                    },
                    {
                        "duration": 0.5,
                        "durationTicks": 256,
                        "midi": 47,
                        "name": "B2",
                        "ticks": 23296,
                        "time": 45.5,
                        "velocity": 0.6614173228346457
                    },
                    {
                        "duration": 0.166015625,
                        "durationTicks": 85,
                        "midi": 57,
                        "name": "A3",
                        "ticks": 23381,
                        "time": 45.666015625,
                        "velocity": 0.6614173228346457
                    },
                    {
                        "duration": 0.1328125,
                        "durationTicks": 68,
                        "midi": 55,
                        "name": "G3",
                        "ticks": 23466,
                        "time": 45.83203125,
                        "velocity": 0.6141732283464567
                    },
                    {
                        "duration": 0.25,
                        "durationTicks": 128,
                        "midi": 53,
                        "name": "F3",
                        "ticks": 23552,
                        "time": 46,
                        "velocity": 0.6141732283464567
                    },
                    {
                        "duration": 1.400390625,
                        "durationTicks": 717,
                        "midi": 48,
                        "name": "C3",
                        "ticks": 23552,
                        "time": 46,
                        "velocity": 0.7086614173228346
                    },
                    {
                        "duration": 0.09765625,
                        "durationTicks": 50,
                        "midi": 52,
                        "name": "E3",
                        "ticks": 23680,
                        "time": 46.25,
                        "velocity": 0.6220472440944882
                    },
                    {
                        "duration": 0.123046875,
                        "durationTicks": 63,
                        "midi": 52,
                        "name": "E3",
                        "ticks": 23808,
                        "time": 46.5,
                        "velocity": 0.6850393700787402
                    },
                    {
                        "duration": 0.123046875,
                        "durationTicks": 63,
                        "midi": 52,
                        "name": "E3",
                        "ticks": 23936,
                        "time": 46.75,
                        "velocity": 0.6456692913385826
                    },
                    {
                        "duration": 0.123046875,
                        "durationTicks": 63,
                        "midi": 52,
                        "name": "E3",
                        "ticks": 24064,
                        "time": 47,
                        "velocity": 0.6535433070866141
                    },
                    {
                        "duration": 0.123046875,
                        "durationTicks": 63,
                        "midi": 52,
                        "name": "E3",
                        "ticks": 24192,
                        "time": 47.25,
                        "velocity": 0.6850393700787402
                    },
                    {
                        "duration": 4,
                        "durationTicks": 2048,
                        "midi": 45,
                        "name": "A2",
                        "ticks": 24320,
                        "time": 47.5,
                        "velocity": 0.7795275590551181
                    },
                    {
                        "duration": 0.5,
                        "durationTicks": 256,
                        "midi": 50,
                        "name": "D3",
                        "ticks": 24576,
                        "time": 48,
                        "velocity": 0.44881889763779526
                    },
                    {
                        "duration": 0.5,
                        "durationTicks": 256,
                        "midi": 53,
                        "name": "F3",
                        "ticks": 24576,
                        "time": 48,
                        "velocity": 0.44881889763779526
                    },
                    {
                        "duration": 0.123046875,
                        "durationTicks": 63,
                        "midi": 59,
                        "name": "B3",
                        "ticks": 24704,
                        "time": 48.25,
                        "velocity": 0.33858267716535434
                    },
                    {
                        "duration": 0.5,
                        "durationTicks": 256,
                        "midi": 52,
                        "name": "E3",
                        "ticks": 24832,
                        "time": 48.5,
                        "velocity": 0.3937007874015748
                    },
                    {
                        "duration": 0.5,
                        "durationTicks": 256,
                        "midi": 55,
                        "name": "G3",
                        "ticks": 24832,
                        "time": 48.5,
                        "velocity": 0.3937007874015748
                    },
                    {
                        "duration": 0.123046875,
                        "durationTicks": 63,
                        "midi": 61,
                        "name": "C#4",
                        "ticks": 24960,
                        "time": 48.75,
                        "velocity": 0.4330708661417323
                    },
                    {
                        "duration": 0.5,
                        "durationTicks": 256,
                        "midi": 53,
                        "name": "F3",
                        "ticks": 25088,
                        "time": 49,
                        "velocity": 0.4645669291338583
                    },
                    {
                        "duration": 0.123046875,
                        "durationTicks": 63,
                        "midi": 57,
                        "name": "A3",
                        "ticks": 25216,
                        "time": 49.25,
                        "velocity": 0.49606299212598426
                    },
                    {
                        "duration": 0.123046875,
                        "durationTicks": 63,
                        "midi": 62,
                        "name": "D4",
                        "ticks": 25216,
                        "time": 49.25,
                        "velocity": 0.49606299212598426
                    },
                    {
                        "duration": 0.5,
                        "durationTicks": 256,
                        "midi": 55,
                        "name": "G3",
                        "ticks": 25344,
                        "time": 49.5,
                        "velocity": 0.5275590551181102
                    },
                    {
                        "duration": 0.123046875,
                        "durationTicks": 63,
                        "midi": 57,
                        "name": "A3",
                        "ticks": 25472,
                        "time": 49.75,
                        "velocity": 0.5590551181102362
                    },
                    {
                        "duration": 0.123046875,
                        "durationTicks": 63,
                        "midi": 64,
                        "name": "E4",
                        "ticks": 25472,
                        "time": 49.75,
                        "velocity": 0.5590551181102362
                    },
                    {
                        "duration": 0.5,
                        "durationTicks": 256,
                        "midi": 57,
                        "name": "A3",
                        "ticks": 25600,
                        "time": 50,
                        "velocity": 0.6299212598425197
                    },
                    {
                        "duration": 0.123046875,
                        "durationTicks": 63,
                        "midi": 62,
                        "name": "D4",
                        "ticks": 25728,
                        "time": 50.25,
                        "velocity": 0.5984251968503937
                    },
                    {
                        "duration": 0.123046875,
                        "durationTicks": 63,
                        "midi": 65,
                        "name": "F4",
                        "ticks": 25728,
                        "time": 50.25,
                        "velocity": 0.5984251968503937
                    },
                    {
                        "duration": 0.5,
                        "durationTicks": 256,
                        "midi": 53,
                        "name": "F3",
                        "ticks": 25856,
                        "time": 50.5,
                        "velocity": 0.5590551181102362
                    },
                    {
                        "duration": 0.25,
                        "durationTicks": 128,
                        "midi": 59,
                        "name": "B3",
                        "ticks": 25984,
                        "time": 50.75,
                        "velocity": 0.5196850393700787
                    },
                    {
                        "duration": 0.25,
                        "durationTicks": 128,
                        "midi": 62,
                        "name": "D4",
                        "ticks": 25984,
                        "time": 50.75,
                        "velocity": 0.5196850393700787
                    },
                    {
                        "duration": 0.400390625,
                        "durationTicks": 205,
                        "midi": 57,
                        "name": "A3",
                        "ticks": 26112,
                        "time": 51,
                        "velocity": 0.47244094488188976
                    },
                    {
                        "duration": 0.400390625,
                        "durationTicks": 205,
                        "midi": 61,
                        "name": "C#4",
                        "ticks": 26112,
                        "time": 51,
                        "velocity": 0.47244094488188976
                    },
                    {
                        "duration": 0.5,
                        "durationTicks": 256,
                        "midi": 52,
                        "name": "E3",
                        "ticks": 26112,
                        "time": 51,
                        "velocity": 0.47244094488188976
                    },
                    {
                        "duration": 0.166015625,
                        "durationTicks": 85,
                        "midi": 57,
                        "name": "A3",
                        "ticks": 26368,
                        "time": 51.5,
                        "velocity": 0.6141732283464567
                    },
                    {
                        "duration": 0.5,
                        "durationTicks": 256,
                        "midi": 45,
                        "name": "A2",
                        "ticks": 26368,
                        "time": 51.5,
                        "velocity": 0.6299212598425197
                    },
                    {
                        "duration": 0.5,
                        "durationTicks": 256,
                        "midi": 49,
                        "name": "C#3",
                        "ticks": 26368,
                        "time": 51.5,
                        "velocity": 0.6299212598425197
                    },
                    {
                        "duration": 0.166015625,
                        "durationTicks": 85,
                        "midi": 58,
                        "name": "A#3",
                        "ticks": 26453,
                        "time": 51.666015625,
                        "velocity": 0.6692913385826772
                    },
                    {
                        "duration": 0.1328125,
                        "durationTicks": 68,
                        "midi": 57,
                        "name": "A3",
                        "ticks": 26538,
                        "time": 51.83203125,
                        "velocity": 0.6220472440944882
                    },
                    {
                        "duration": 0.25,
                        "durationTicks": 128,
                        "midi": 55,
                        "name": "G3",
                        "ticks": 26624,
                        "time": 52,
                        "velocity": 0.6535433070866141
                    },
                    {
                        "duration": 1.400390625,
                        "durationTicks": 717,
                        "midi": 50,
                        "name": "D3",
                        "ticks": 26624,
                        "time": 52,
                        "velocity": 0.6850393700787402
                    },
                    {
                        "duration": 0.09765625,
                        "durationTicks": 50,
                        "midi": 53,
                        "name": "F3",
                        "ticks": 26752,
                        "time": 52.25,
                        "velocity": 0.6141732283464567
                    },
                    {
                        "duration": 0.123046875,
                        "durationTicks": 63,
                        "midi": 53,
                        "name": "F3",
                        "ticks": 26880,
                        "time": 52.5,
                        "velocity": 0.6850393700787402
                    },
                    {
                        "duration": 0.123046875,
                        "durationTicks": 63,
                        "midi": 53,
                        "name": "F3",
                        "ticks": 27008,
                        "time": 52.75,
                        "velocity": 0.6614173228346457
                    },
                    {
                        "duration": 0.123046875,
                        "durationTicks": 63,
                        "midi": 53,
                        "name": "F3",
                        "ticks": 27136,
                        "time": 53,
                        "velocity": 0.6456692913385826
                    },
                    {
                        "duration": 0.123046875,
                        "durationTicks": 63,
                        "midi": 53,
                        "name": "F3",
                        "ticks": 27264,
                        "time": 53.25,
                        "velocity": 0.6692913385826772
                    },
                    {
                        "duration": 0.166015625,
                        "durationTicks": 85,
                        "midi": 53,
                        "name": "F3",
                        "ticks": 27392,
                        "time": 53.5,
                        "velocity": 0.6299212598425197
                    },
                    {
                        "duration": 0.5,
                        "durationTicks": 256,
                        "midi": 43,
                        "name": "G2",
                        "ticks": 27392,
                        "time": 53.5,
                        "velocity": 0.6220472440944882
                    },
                    {
                        "duration": 0.5,
                        "durationTicks": 256,
                        "midi": 47,
                        "name": "B2",
                        "ticks": 27392,
                        "time": 53.5,
                        "velocity": 0.6220472440944882
                    },
                    {
                        "duration": 0.166015625,
                        "durationTicks": 85,
                        "midi": 57,
                        "name": "A3",
                        "ticks": 27477,
                        "time": 53.666015625,
                        "velocity": 0.6771653543307087
                    },
                    {
                        "duration": 0.1328125,
                        "durationTicks": 68,
                        "midi": 55,
                        "name": "G3",
                        "ticks": 27562,
                        "time": 53.83203125,
                        "velocity": 0.6535433070866141
                    },
                    {
                        "duration": 0.25,
                        "durationTicks": 128,
                        "midi": 53,
                        "name": "F3",
                        "ticks": 27648,
                        "time": 54,
                        "velocity": 0.6377952755905512
                    },
                    {
                        "duration": 1.400390625,
                        "durationTicks": 717,
                        "midi": 48,
                        "name": "C3",
                        "ticks": 27648,
                        "time": 54,
                        "velocity": 0.6377952755905512
                    },
                    {
                        "duration": 0.09765625,
                        "durationTicks": 50,
                        "midi": 52,
                        "name": "E3",
                        "ticks": 27776,
                        "time": 54.25,
                        "velocity": 0.6299212598425197
                    },
                    {
                        "duration": 0.123046875,
                        "durationTicks": 63,
                        "midi": 52,
                        "name": "E3",
                        "ticks": 27904,
                        "time": 54.5,
                        "velocity": 0.6456692913385826
                    },
                    {
                        "duration": 0.123046875,
                        "durationTicks": 63,
                        "midi": 52,
                        "name": "E3",
                        "ticks": 28032,
                        "time": 54.75,
                        "velocity": 0.6614173228346457
                    },
                    {
                        "duration": 0.123046875,
                        "durationTicks": 63,
                        "midi": 52,
                        "name": "E3",
                        "ticks": 28160,
                        "time": 55,
                        "velocity": 0.6771653543307087
                    },
                    {
                        "duration": 0.123046875,
                        "durationTicks": 63,
                        "midi": 52,
                        "name": "E3",
                        "ticks": 28288,
                        "time": 55.25,
                        "velocity": 0.6692913385826772
                    },
                    {
                        "duration": 1.900390625,
                        "durationTicks": 973,
                        "midi": 45,
                        "name": "A2",
                        "ticks": 28416,
                        "time": 55.5,
                        "velocity": 0.5590551181102362
                    },
                    {
                        "duration": 0.5,
                        "durationTicks": 256,
                        "midi": 50,
                        "name": "D3",
                        "ticks": 28672,
                        "time": 56,
                        "velocity": 0.5984251968503937
                    },
                    {
                        "duration": 0.25,
                        "durationTicks": 128,
                        "midi": 62,
                        "name": "D4",
                        "ticks": 28800,
                        "time": 56.25,
                        "velocity": 0.6141732283464567
                    },
                    {
                        "duration": 0.25,
                        "durationTicks": 128,
                        "midi": 65,
                        "name": "F4",
                        "ticks": 28800,
                        "time": 56.25,
                        "velocity": 0.6141732283464567
                    },
                    {
                        "duration": 0.25,
                        "durationTicks": 128,
                        "midi": 71,
                        "name": "B4",
                        "ticks": 28800,
                        "time": 56.25,
                        "velocity": 0.6141732283464567
                    },
                    {
                        "duration": 0.5,
                        "durationTicks": 256,
                        "midi": 52,
                        "name": "E3",
                        "ticks": 28928,
                        "time": 56.5,
                        "velocity": 0.6535433070866141
                    },
                    {
                        "duration": 0.25,
                        "durationTicks": 128,
                        "midi": 64,
                        "name": "E4",
                        "ticks": 29056,
                        "time": 56.75,
                        "velocity": 0.5905511811023622
                    },
                    {
                        "duration": 0.25,
                        "durationTicks": 128,
                        "midi": 67,
                        "name": "G4",
                        "ticks": 29056,
                        "time": 56.75,
                        "velocity": 0.5905511811023622
                    },
                    {
                        "duration": 0.25,
                        "durationTicks": 128,
                        "midi": 73,
                        "name": "C#5",
                        "ticks": 29056,
                        "time": 56.75,
                        "velocity": 0.5905511811023622
                    },
                    {
                        "duration": 0.900390625,
                        "durationTicks": 461,
                        "midi": 53,
                        "name": "F3",
                        "ticks": 29184,
                        "time": 57,
                        "velocity": 0.6850393700787402
                    },
                    {
                        "duration": 0.25,
                        "durationTicks": 128,
                        "midi": 65,
                        "name": "F4",
                        "ticks": 29312,
                        "time": 57.25,
                        "velocity": 0.6062992125984252
                    },
                    {
                        "duration": 0.25,
                        "durationTicks": 128,
                        "midi": 69,
                        "name": "A4",
                        "ticks": 29312,
                        "time": 57.25,
                        "velocity": 0.6062992125984252
                    },
                    {
                        "duration": 0.25,
                        "durationTicks": 128,
                        "midi": 74,
                        "name": "D5",
                        "ticks": 29312,
                        "time": 57.25,
                        "velocity": 0.6062992125984252
                    },
                    {
                        "duration": 0.5,
                        "durationTicks": 256,
                        "midi": 69,
                        "name": "A4",
                        "ticks": 29440,
                        "time": 57.5,
                        "velocity": 0.7480314960629921
                    },
                    {
                        "duration": 1.900390625,
                        "durationTicks": 973,
                        "midi": 45,
                        "name": "A2",
                        "ticks": 29440,
                        "time": 57.5,
                        "velocity": 0.5669291338582677
                    },
                    {
                        "duration": 0.5,
                        "durationTicks": 256,
                        "midi": 52,
                        "name": "E3",
                        "ticks": 29696,
                        "time": 58,
                        "velocity": 0.6377952755905512
                    },
                    {
                        "duration": 0.25,
                        "durationTicks": 128,
                        "midi": 64,
                        "name": "E4",
                        "ticks": 29824,
                        "time": 58.25,
                        "velocity": 0.6535433070866141
                    },
                    {
                        "duration": 0.25,
                        "durationTicks": 128,
                        "midi": 67,
                        "name": "G4",
                        "ticks": 29824,
                        "time": 58.25,
                        "velocity": 0.6535433070866141
                    },
                    {
                        "duration": 0.25,
                        "durationTicks": 128,
                        "midi": 73,
                        "name": "C#5",
                        "ticks": 29824,
                        "time": 58.25,
                        "velocity": 0.6535433070866141
                    },
                    {
                        "duration": 0.5,
                        "durationTicks": 256,
                        "midi": 53,
                        "name": "F3",
                        "ticks": 29952,
                        "time": 58.5,
                        "velocity": 0.6692913385826772
                    },
                    {
                        "duration": 0.25,
                        "durationTicks": 128,
                        "midi": 65,
                        "name": "F4",
                        "ticks": 30080,
                        "time": 58.75,
                        "velocity": 0.6850393700787402
                    },
                    {
                        "duration": 0.25,
                        "durationTicks": 128,
                        "midi": 69,
                        "name": "A4",
                        "ticks": 30080,
                        "time": 58.75,
                        "velocity": 0.6850393700787402
                    },
                    {
                        "duration": 0.25,
                        "durationTicks": 128,
                        "midi": 74,
                        "name": "D5",
                        "ticks": 30080,
                        "time": 58.75,
                        "velocity": 0.6850393700787402
                    },
                    {
                        "duration": 0.900390625,
                        "durationTicks": 461,
                        "midi": 55,
                        "name": "G3",
                        "ticks": 30208,
                        "time": 59,
                        "velocity": 0.7007874015748031
                    },
                    {
                        "duration": 0.25,
                        "durationTicks": 128,
                        "midi": 67,
                        "name": "G4",
                        "ticks": 30336,
                        "time": 59.25,
                        "velocity": 0.7165354330708661
                    },
                    {
                        "duration": 0.25,
                        "durationTicks": 128,
                        "midi": 73,
                        "name": "C#5",
                        "ticks": 30336,
                        "time": 59.25,
                        "velocity": 0.7165354330708661
                    },
                    {
                        "duration": 0.25,
                        "durationTicks": 128,
                        "midi": 76,
                        "name": "E5",
                        "ticks": 30336,
                        "time": 59.25,
                        "velocity": 0.7165354330708661
                    },
                    {
                        "duration": 0.5,
                        "durationTicks": 256,
                        "midi": 69,
                        "name": "A4",
                        "ticks": 30464,
                        "time": 59.5,
                        "velocity": 0.7244094488188977
                    },
                    {
                        "duration": 1.900390625,
                        "durationTicks": 973,
                        "midi": 45,
                        "name": "A2",
                        "ticks": 30464,
                        "time": 59.5,
                        "velocity": 0.6692913385826772
                    },
                    {
                        "duration": 0.5,
                        "durationTicks": 256,
                        "midi": 53,
                        "name": "F3",
                        "ticks": 30720,
                        "time": 60,
                        "velocity": 0.7559055118110236
                    },
                    {
                        "duration": 0.25,
                        "durationTicks": 128,
                        "midi": 65,
                        "name": "F4",
                        "ticks": 30848,
                        "time": 60.25,
                        "velocity": 0.7716535433070866
                    },
                    {
                        "duration": 0.25,
                        "durationTicks": 128,
                        "midi": 71,
                        "name": "B4",
                        "ticks": 30848,
                        "time": 60.25,
                        "velocity": 0.7716535433070866
                    },
                    {
                        "duration": 0.25,
                        "durationTicks": 128,
                        "midi": 74,
                        "name": "D5",
                        "ticks": 30848,
                        "time": 60.25,
                        "velocity": 0.7716535433070866
                    },
                    {
                        "duration": 0.5,
                        "durationTicks": 256,
                        "midi": 55,
                        "name": "G3",
                        "ticks": 30976,
                        "time": 60.5,
                        "velocity": 0.7874015748031497
                    },
                    {
                        "duration": 0.25,
                        "durationTicks": 128,
                        "midi": 67,
                        "name": "G4",
                        "ticks": 31104,
                        "time": 60.75,
                        "velocity": 0.7952755905511811
                    },
                    {
                        "duration": 0.25,
                        "durationTicks": 128,
                        "midi": 73,
                        "name": "C#5",
                        "ticks": 31104,
                        "time": 60.75,
                        "velocity": 0.7952755905511811
                    },
                    {
                        "duration": 0.25,
                        "durationTicks": 128,
                        "midi": 76,
                        "name": "E5",
                        "ticks": 31104,
                        "time": 60.75,
                        "velocity": 0.7952755905511811
                    },
                    {
                        "duration": 0.400390625,
                        "durationTicks": 205,
                        "midi": 57,
                        "name": "A3",
                        "ticks": 31232,
                        "time": 61,
                        "velocity": 0.8110236220472441
                    },
                    {
                        "duration": 0.25,
                        "durationTicks": 128,
                        "midi": 69,
                        "name": "A4",
                        "ticks": 31360,
                        "time": 61.25,
                        "velocity": 0.8267716535433071
                    },
                    {
                        "duration": 0.25,
                        "durationTicks": 128,
                        "midi": 74,
                        "name": "D5",
                        "ticks": 31360,
                        "time": 61.25,
                        "velocity": 0.8267716535433071
                    },
                    {
                        "duration": 0.25,
                        "durationTicks": 128,
                        "midi": 77,
                        "name": "F5",
                        "ticks": 31360,
                        "time": 61.25,
                        "velocity": 0.8267716535433071
                    },
                    {
                        "duration": 0.5,
                        "durationTicks": 256,
                        "midi": 57,
                        "name": "A3",
                        "ticks": 31488,
                        "time": 61.5,
                        "velocity": 0.84251968503937
                    },
                    {
                        "duration": 0.5,
                        "durationTicks": 256,
                        "midi": 57,
                        "name": "A3",
                        "ticks": 31488,
                        "time": 61.5,
                        "velocity": 0.7795275590551181
                    },
                    {
                        "duration": 0.25,
                        "durationTicks": 128,
                        "midi": 69,
                        "name": "A4",
                        "ticks": 31616,
                        "time": 61.75,
                        "velocity": 0.8110236220472441
                    },
                    {
                        "duration": 0.25,
                        "durationTicks": 128,
                        "midi": 74,
                        "name": "D5",
                        "ticks": 31616,
                        "time": 61.75,
                        "velocity": 0.8110236220472441
                    },
                    {
                        "duration": 0.25,
                        "durationTicks": 128,
                        "midi": 77,
                        "name": "F5",
                        "ticks": 31616,
                        "time": 61.75,
                        "velocity": 0.8110236220472441
                    },
                    {
                        "duration": 0.5,
                        "durationTicks": 256,
                        "midi": 57,
                        "name": "A3",
                        "ticks": 31744,
                        "time": 62,
                        "velocity": 1
                    },
                    {
                        "duration": 0.5,
                        "durationTicks": 256,
                        "midi": 62,
                        "name": "D4",
                        "ticks": 31744,
                        "time": 62,
                        "velocity": 1
                    },
                    {
                        "duration": 0.5,
                        "durationTicks": 256,
                        "midi": 67,
                        "name": "G4",
                        "ticks": 31744,
                        "time": 62,
                        "velocity": 1
                    },
                    {
                        "duration": 0.25,
                        "durationTicks": 128,
                        "midi": 70,
                        "name": "A#4",
                        "ticks": 31872,
                        "time": 62.25,
                        "velocity": 0.6850393700787402
                    },
                    {
                        "duration": 0.25,
                        "durationTicks": 128,
                        "midi": 74,
                        "name": "D5",
                        "ticks": 31872,
                        "time": 62.25,
                        "velocity": 0.6850393700787402
                    },
                    {
                        "duration": 0.25,
                        "durationTicks": 128,
                        "midi": 79,
                        "name": "G5",
                        "ticks": 31872,
                        "time": 62.25,
                        "velocity": 0.6850393700787402
                    },
                    {
                        "duration": 0.5,
                        "durationTicks": 256,
                        "midi": 57,
                        "name": "A3",
                        "ticks": 32000,
                        "time": 62.5,
                        "velocity": 0.7795275590551181
                    },
                    {
                        "duration": 0.5,
                        "durationTicks": 256,
                        "midi": 62,
                        "name": "D4",
                        "ticks": 32000,
                        "time": 62.5,
                        "velocity": 0.7795275590551181
                    },
                    {
                        "duration": 0.5,
                        "durationTicks": 256,
                        "midi": 67,
                        "name": "G4",
                        "ticks": 32000,
                        "time": 62.5,
                        "velocity": 0.7795275590551181
                    },
                    {
                        "duration": 0.25,
                        "durationTicks": 128,
                        "midi": 70,
                        "name": "A#4",
                        "ticks": 32128,
                        "time": 62.75,
                        "velocity": 0.7007874015748031
                    },
                    {
                        "duration": 0.25,
                        "durationTicks": 128,
                        "midi": 74,
                        "name": "D5",
                        "ticks": 32128,
                        "time": 62.75,
                        "velocity": 0.7007874015748031
                    },
                    {
                        "duration": 0.25,
                        "durationTicks": 128,
                        "midi": 79,
                        "name": "G5",
                        "ticks": 32128,
                        "time": 62.75,
                        "velocity": 0.7007874015748031
                    },
                    {
                        "duration": 0.5,
                        "durationTicks": 256,
                        "midi": 69,
                        "name": "A4",
                        "ticks": 32256,
                        "time": 63,
                        "velocity": 0.8346456692913385
                    },
                    {
                        "duration": 0.5,
                        "durationTicks": 256,
                        "midi": 73,
                        "name": "C#5",
                        "ticks": 32256,
                        "time": 63,
                        "velocity": 0.8346456692913385
                    },
                    {
                        "duration": 0.5,
                        "durationTicks": 256,
                        "midi": 81,
                        "name": "A5",
                        "ticks": 32256,
                        "time": 63,
                        "velocity": 0.8346456692913385
                    },
                    {
                        "duration": 0.5,
                        "durationTicks": 256,
                        "midi": 57,
                        "name": "A3",
                        "ticks": 32256,
                        "time": 63,
                        "velocity": 0.7795275590551181
                    },
                    {
                        "duration": 0.5,
                        "durationTicks": 256,
                        "midi": 64,
                        "name": "E4",
                        "ticks": 32256,
                        "time": 63,
                        "velocity": 0.7795275590551181
                    },
                    {
                        "duration": 0.5,
                        "durationTicks": 256,
                        "midi": 67,
                        "name": "G4",
                        "ticks": 32256,
                        "time": 63,
                        "velocity": 0.7795275590551181
                    },
                    {
                        "duration": 0.125,
                        "durationTicks": 64,
                        "midi": 57,
                        "name": "A3",
                        "ticks": 32512,
                        "time": 63.5,
                        "velocity": 0.6771653543307087
                    },
                    {
                        "duration": 0.125,
                        "durationTicks": 64,
                        "midi": 55,
                        "name": "G3",
                        "ticks": 32576,
                        "time": 63.625,
                        "velocity": 0.7401574803149606
                    },
                    {
                        "duration": 0.125,
                        "durationTicks": 64,
                        "midi": 53,
                        "name": "F3",
                        "ticks": 32640,
                        "time": 63.75,
                        "velocity": 0.7480314960629921
                    },
                    {
                        "duration": 0.125,
                        "durationTicks": 64,
                        "midi": 52,
                        "name": "E3",
                        "ticks": 32704,
                        "time": 63.875,
                        "velocity": 0.7401574803149606
                    },
                    {
                        "duration": 0.197265625,
                        "durationTicks": 101,
                        "midi": 50,
                        "name": "D3",
                        "ticks": 32768,
                        "time": 64,
                        "velocity": 0.4566929133858268
                    },
                    {
                        "duration": 0.123046875,
                        "durationTicks": 63,
                        "midi": 81,
                        "name": "A5",
                        "ticks": 33024,
                        "time": 64.5,
                        "velocity": 0.4251968503937008
                    },
                    {
                        "duration": 0.123046875,
                        "durationTicks": 63,
                        "midi": 89,
                        "name": "F6",
                        "ticks": 33024,
                        "time": 64.5,
                        "velocity": 0.4251968503937008
                    },
                    {
                        "duration": 0.248046875,
                        "durationTicks": 127,
                        "midi": 53,
                        "name": "F3",
                        "ticks": 33024,
                        "time": 64.5,
                        "velocity": 0.5669291338582677
                    },
                    {
                        "duration": 0.248046875,
                        "durationTicks": 127,
                        "midi": 57,
                        "name": "A3",
                        "ticks": 33024,
                        "time": 64.5,
                        "velocity": 0.5669291338582677
                    },
                    {
                        "duration": 0.123046875,
                        "durationTicks": 63,
                        "midi": 86,
                        "name": "D6",
                        "ticks": 33152,
                        "time": 64.75,
                        "velocity": 0.4566929133858268
                    },
                    {
                        "duration": 0.248046875,
                        "durationTicks": 127,
                        "midi": 81,
                        "name": "A5",
                        "ticks": 33280,
                        "time": 65,
                        "velocity": 0.48031496062992124
                    },
                    {
                        "duration": 0.248046875,
                        "durationTicks": 127,
                        "midi": 89,
                        "name": "F6",
                        "ticks": 33280,
                        "time": 65,
                        "velocity": 0.48031496062992124
                    },
                    {
                        "duration": 0.248046875,
                        "durationTicks": 127,
                        "midi": 50,
                        "name": "D3",
                        "ticks": 33280,
                        "time": 65,
                        "velocity": 0.41732283464566927
                    },
                    {
                        "duration": 0.248046875,
                        "durationTicks": 127,
                        "midi": 79,
                        "name": "G5",
                        "ticks": 33536,
                        "time": 65.5,
                        "velocity": 0.4566929133858268
                    },
                    {
                        "duration": 0.248046875,
                        "durationTicks": 127,
                        "midi": 88,
                        "name": "E6",
                        "ticks": 33536,
                        "time": 65.5,
                        "velocity": 0.4566929133858268
                    },
                    {
                        "duration": 0.248046875,
                        "durationTicks": 127,
                        "midi": 55,
                        "name": "G3",
                        "ticks": 33536,
                        "time": 65.5,
                        "velocity": 0.5039370078740157
                    },
                    {
                        "duration": 0.248046875,
                        "durationTicks": 127,
                        "midi": 58,
                        "name": "A#3",
                        "ticks": 33536,
                        "time": 65.5,
                        "velocity": 0.5039370078740157
                    },
                    {
                        "duration": 0.248046875,
                        "durationTicks": 127,
                        "midi": 76,
                        "name": "E5",
                        "ticks": 33792,
                        "time": 66,
                        "velocity": 0.3937007874015748
                    },
                    {
                        "duration": 0.248046875,
                        "durationTicks": 127,
                        "midi": 85,
                        "name": "C#6",
                        "ticks": 33792,
                        "time": 66,
                        "velocity": 0.3937007874015748
                    },
                    {
                        "duration": 0.248046875,
                        "durationTicks": 127,
                        "midi": 50,
                        "name": "D3",
                        "ticks": 33792,
                        "time": 66,
                        "velocity": 0.44881889763779526
                    },
                    {
                        "duration": 0.248046875,
                        "durationTicks": 127,
                        "midi": 77,
                        "name": "F5",
                        "ticks": 34048,
                        "time": 66.5,
                        "velocity": 0.5275590551181102
                    },
                    {
                        "duration": 0.248046875,
                        "durationTicks": 127,
                        "midi": 86,
                        "name": "D6",
                        "ticks": 34048,
                        "time": 66.5,
                        "velocity": 0.5275590551181102
                    },
                    {
                        "duration": 0.248046875,
                        "durationTicks": 127,
                        "midi": 56,
                        "name": "G#3",
                        "ticks": 34048,
                        "time": 66.5,
                        "velocity": 0.5275590551181102
                    },
                    {
                        "duration": 0.248046875,
                        "durationTicks": 127,
                        "midi": 59,
                        "name": "B3",
                        "ticks": 34048,
                        "time": 66.5,
                        "velocity": 0.5275590551181102
                    },
                    {
                        "duration": 0.123046875,
                        "durationTicks": 63,
                        "midi": 75,
                        "name": "D#5",
                        "ticks": 34304,
                        "time": 67,
                        "velocity": 0.4330708661417323
                    },
                    {
                        "duration": 0.123046875,
                        "durationTicks": 63,
                        "midi": 78,
                        "name": "F#5",
                        "ticks": 34304,
                        "time": 67,
                        "velocity": 0.4330708661417323
                    },
                    {
                        "duration": 0.123046875,
                        "durationTicks": 63,
                        "midi": 84,
                        "name": "C6",
                        "ticks": 34304,
                        "time": 67,
                        "velocity": 0.4330708661417323
                    },
                    {
                        "duration": 0.248046875,
                        "durationTicks": 127,
                        "midi": 50,
                        "name": "D3",
                        "ticks": 34304,
                        "time": 67,
                        "velocity": 0.44881889763779526
                    },
                    {
                        "duration": 0.123046875,
                        "durationTicks": 63,
                        "midi": 75,
                        "name": "D#5",
                        "ticks": 34432,
                        "time": 67.25,
                        "velocity": 0.4645669291338583
                    },
                    {
                        "duration": 0.123046875,
                        "durationTicks": 63,
                        "midi": 78,
                        "name": "F#5",
                        "ticks": 34432,
                        "time": 67.25,
                        "velocity": 0.4645669291338583
                    },
                    {
                        "duration": 0.123046875,
                        "durationTicks": 63,
                        "midi": 84,
                        "name": "C6",
                        "ticks": 34432,
                        "time": 67.25,
                        "velocity": 0.4645669291338583
                    },
                    {
                        "duration": 0.248046875,
                        "durationTicks": 127,
                        "midi": 75,
                        "name": "D#5",
                        "ticks": 34560,
                        "time": 67.5,
                        "velocity": 0.47244094488188976
                    },
                    {
                        "duration": 0.248046875,
                        "durationTicks": 127,
                        "midi": 78,
                        "name": "F#5",
                        "ticks": 34560,
                        "time": 67.5,
                        "velocity": 0.47244094488188976
                    },
                    {
                        "duration": 0.248046875,
                        "durationTicks": 127,
                        "midi": 84,
                        "name": "C6",
                        "ticks": 34560,
                        "time": 67.5,
                        "velocity": 0.47244094488188976
                    },
                    {
                        "duration": 0.248046875,
                        "durationTicks": 127,
                        "midi": 57,
                        "name": "A3",
                        "ticks": 34560,
                        "time": 67.5,
                        "velocity": 0.5984251968503937
                    },
                    {
                        "duration": 0.248046875,
                        "durationTicks": 127,
                        "midi": 60,
                        "name": "C4",
                        "ticks": 34560,
                        "time": 67.5,
                        "velocity": 0.5984251968503937
                    },
                    {
                        "duration": 0.123046875,
                        "durationTicks": 63,
                        "midi": 74,
                        "name": "D5",
                        "ticks": 34816,
                        "time": 68,
                        "velocity": 0.4881889763779528
                    },
                    {
                        "duration": 0.123046875,
                        "durationTicks": 63,
                        "midi": 77,
                        "name": "F5",
                        "ticks": 34816,
                        "time": 68,
                        "velocity": 0.4881889763779528
                    },
                    {
                        "duration": 0.123046875,
                        "durationTicks": 63,
                        "midi": 83,
                        "name": "B5",
                        "ticks": 34816,
                        "time": 68,
                        "velocity": 0.4881889763779528
                    },
                    {
                        "duration": 0.248046875,
                        "durationTicks": 127,
                        "midi": 50,
                        "name": "D3",
                        "ticks": 34816,
                        "time": 68,
                        "velocity": 0.4566929133858268
                    },
                    {
                        "duration": 0.123046875,
                        "durationTicks": 63,
                        "midi": 74,
                        "name": "D5",
                        "ticks": 34944,
                        "time": 68.25,
                        "velocity": 0.47244094488188976
                    },
                    {
                        "duration": 0.123046875,
                        "durationTicks": 63,
                        "midi": 77,
                        "name": "F5",
                        "ticks": 34944,
                        "time": 68.25,
                        "velocity": 0.47244094488188976
                    },
                    {
                        "duration": 0.123046875,
                        "durationTicks": 63,
                        "midi": 83,
                        "name": "B5",
                        "ticks": 34944,
                        "time": 68.25,
                        "velocity": 0.47244094488188976
                    },
                    {
                        "duration": 0.248046875,
                        "durationTicks": 127,
                        "midi": 74,
                        "name": "D5",
                        "ticks": 35072,
                        "time": 68.5,
                        "velocity": 0.4645669291338583
                    },
                    {
                        "duration": 0.248046875,
                        "durationTicks": 127,
                        "midi": 77,
                        "name": "F5",
                        "ticks": 35072,
                        "time": 68.5,
                        "velocity": 0.4645669291338583
                    },
                    {
                        "duration": 0.248046875,
                        "durationTicks": 127,
                        "midi": 83,
                        "name": "B5",
                        "ticks": 35072,
                        "time": 68.5,
                        "velocity": 0.4645669291338583
                    },
                    {
                        "duration": 0.248046875,
                        "durationTicks": 127,
                        "midi": 56,
                        "name": "G#3",
                        "ticks": 35072,
                        "time": 68.5,
                        "velocity": 0.5039370078740157
                    },
                    {
                        "duration": 0.248046875,
                        "durationTicks": 127,
                        "midi": 59,
                        "name": "B3",
                        "ticks": 35072,
                        "time": 68.5,
                        "velocity": 0.5039370078740157
                    },
                    {
                        "duration": 0.123046875,
                        "durationTicks": 63,
                        "midi": 73,
                        "name": "C#5",
                        "ticks": 35328,
                        "time": 69,
                        "velocity": 0.4645669291338583
                    },
                    {
                        "duration": 0.123046875,
                        "durationTicks": 63,
                        "midi": 76,
                        "name": "E5",
                        "ticks": 35328,
                        "time": 69,
                        "velocity": 0.4645669291338583
                    },
                    {
                        "duration": 0.123046875,
                        "durationTicks": 63,
                        "midi": 82,
                        "name": "A#5",
                        "ticks": 35328,
                        "time": 69,
                        "velocity": 0.4645669291338583
                    },
                    {
                        "duration": 0.248046875,
                        "durationTicks": 127,
                        "midi": 50,
                        "name": "D3",
                        "ticks": 35328,
                        "time": 69,
                        "velocity": 0.4094488188976378
                    },
                    {
                        "duration": 0.123046875,
                        "durationTicks": 63,
                        "midi": 73,
                        "name": "C#5",
                        "ticks": 35456,
                        "time": 69.25,
                        "velocity": 0.5039370078740157
                    },
                    {
                        "duration": 0.123046875,
                        "durationTicks": 63,
                        "midi": 76,
                        "name": "E5",
                        "ticks": 35456,
                        "time": 69.25,
                        "velocity": 0.5039370078740157
                    },
                    {
                        "duration": 0.123046875,
                        "durationTicks": 63,
                        "midi": 82,
                        "name": "A#5",
                        "ticks": 35456,
                        "time": 69.25,
                        "velocity": 0.5039370078740157
                    },
                    {
                        "duration": 0.248046875,
                        "durationTicks": 127,
                        "midi": 73,
                        "name": "C#5",
                        "ticks": 35584,
                        "time": 69.5,
                        "velocity": 0.4881889763779528
                    },
                    {
                        "duration": 0.248046875,
                        "durationTicks": 127,
                        "midi": 76,
                        "name": "E5",
                        "ticks": 35584,
                        "time": 69.5,
                        "velocity": 0.4881889763779528
                    },
                    {
                        "duration": 0.248046875,
                        "durationTicks": 127,
                        "midi": 82,
                        "name": "A#5",
                        "ticks": 35584,
                        "time": 69.5,
                        "velocity": 0.4881889763779528
                    },
                    {
                        "duration": 0.248046875,
                        "durationTicks": 127,
                        "midi": 55,
                        "name": "G3",
                        "ticks": 35584,
                        "time": 69.5,
                        "velocity": 0.49606299212598426
                    },
                    {
                        "duration": 0.248046875,
                        "durationTicks": 127,
                        "midi": 58,
                        "name": "A#3",
                        "ticks": 35584,
                        "time": 69.5,
                        "velocity": 0.49606299212598426
                    },
                    {
                        "duration": 0.123046875,
                        "durationTicks": 63,
                        "midi": 77,
                        "name": "F5",
                        "ticks": 35840,
                        "time": 70,
                        "velocity": 0.4566929133858268
                    },
                    {
                        "duration": 0.123046875,
                        "durationTicks": 63,
                        "midi": 81,
                        "name": "A5",
                        "ticks": 35840,
                        "time": 70,
                        "velocity": 0.4566929133858268
                    },
                    {
                        "duration": 0.248046875,
                        "durationTicks": 127,
                        "midi": 50,
                        "name": "D3",
                        "ticks": 35840,
                        "time": 70,
                        "velocity": 0.4330708661417323
                    },
                    {
                        "duration": 0.123046875,
                        "durationTicks": 63,
                        "midi": 86,
                        "name": "D6",
                        "ticks": 35968,
                        "time": 70.25,
                        "velocity": 0.5275590551181102
                    },
                    {
                        "duration": 0.123046875,
                        "durationTicks": 63,
                        "midi": 79,
                        "name": "G5",
                        "ticks": 36096,
                        "time": 70.5,
                        "velocity": 0.4409448818897638
                    },
                    {
                        "duration": 0.123046875,
                        "durationTicks": 63,
                        "midi": 82,
                        "name": "A#5",
                        "ticks": 36096,
                        "time": 70.5,
                        "velocity": 0.4409448818897638
                    },
                    {
                        "duration": 0.248046875,
                        "durationTicks": 127,
                        "midi": 62,
                        "name": "D4",
                        "ticks": 36096,
                        "time": 70.5,
                        "velocity": 0.5748031496062992
                    },
                    {
                        "duration": 0.123046875,
                        "durationTicks": 63,
                        "midi": 86,
                        "name": "D6",
                        "ticks": 36224,
                        "time": 70.75,
                        "velocity": 0.5039370078740157
                    },
                    {
                        "duration": 0.248046875,
                        "durationTicks": 127,
                        "midi": 77,
                        "name": "F5",
                        "ticks": 36352,
                        "time": 71,
                        "velocity": 0.41732283464566927
                    },
                    {
                        "duration": 0.248046875,
                        "durationTicks": 127,
                        "midi": 81,
                        "name": "A5",
                        "ticks": 36352,
                        "time": 71,
                        "velocity": 0.41732283464566927
                    },
                    {
                        "duration": 0.248046875,
                        "durationTicks": 127,
                        "midi": 62,
                        "name": "D4",
                        "ticks": 36352,
                        "time": 71,
                        "velocity": 0.48031496062992124
                    },
                    {
                        "duration": 0.125,
                        "durationTicks": 64,
                        "midi": 62,
                        "name": "D4",
                        "ticks": 36608,
                        "time": 71.5,
                        "velocity": 0.4409448818897638
                    },
                    {
                        "duration": 0.125,
                        "durationTicks": 64,
                        "midi": 60,
                        "name": "C4",
                        "ticks": 36672,
                        "time": 71.625,
                        "velocity": 0.44881889763779526
                    },
                    {
                        "duration": 0.125,
                        "durationTicks": 64,
                        "midi": 59,
                        "name": "B3",
                        "ticks": 36736,
                        "time": 71.75,
                        "velocity": 0.4409448818897638
                    },
                    {
                        "duration": 0.125,
                        "durationTicks": 64,
                        "midi": 57,
                        "name": "A3",
                        "ticks": 36800,
                        "time": 71.875,
                        "velocity": 0.47244094488188976
                    },
                    {
                        "duration": 0.400390625,
                        "durationTicks": 205,
                        "midi": 56,
                        "name": "G#3",
                        "ticks": 36864,
                        "time": 72,
                        "velocity": 0.49606299212598426
                    },
                    {
                        "duration": 0.123046875,
                        "durationTicks": 63,
                        "midi": 70,
                        "name": "A#4",
                        "ticks": 37120,
                        "time": 72.5,
                        "velocity": 0.41732283464566927
                    },
                    {
                        "duration": 0.123046875,
                        "durationTicks": 63,
                        "midi": 77,
                        "name": "F5",
                        "ticks": 37120,
                        "time": 72.5,
                        "velocity": 0.41732283464566927
                    },
                    {
                        "duration": 0.248046875,
                        "durationTicks": 127,
                        "midi": 62,
                        "name": "D4",
                        "ticks": 37120,
                        "time": 72.5,
                        "velocity": 0.5669291338582677
                    },
                    {
                        "duration": 0.248046875,
                        "durationTicks": 127,
                        "midi": 65,
                        "name": "F4",
                        "ticks": 37120,
                        "time": 72.5,
                        "velocity": 0.5669291338582677
                    },
                    {
                        "duration": 0.123046875,
                        "durationTicks": 63,
                        "midi": 74,
                        "name": "D5",
                        "ticks": 37248,
                        "time": 72.75,
                        "velocity": 0.4409448818897638
                    },
                    {
                        "duration": 0.248046875,
                        "durationTicks": 127,
                        "midi": 70,
                        "name": "A#4",
                        "ticks": 37376,
                        "time": 73,
                        "velocity": 0.5039370078740157
                    },
                    {
                        "duration": 0.248046875,
                        "durationTicks": 127,
                        "midi": 77,
                        "name": "F5",
                        "ticks": 37376,
                        "time": 73,
                        "velocity": 0.5039370078740157
                    },
                    {
                        "duration": 0.248046875,
                        "durationTicks": 127,
                        "midi": 55,
                        "name": "G3",
                        "ticks": 37376,
                        "time": 73,
                        "velocity": 0.4645669291338583
                    },
                    {
                        "duration": 0.248046875,
                        "durationTicks": 127,
                        "midi": 70,
                        "name": "A#4",
                        "ticks": 37632,
                        "time": 73.5,
                        "velocity": 0.4645669291338583
                    },
                    {
                        "duration": 0.248046875,
                        "durationTicks": 127,
                        "midi": 76,
                        "name": "E5",
                        "ticks": 37632,
                        "time": 73.5,
                        "velocity": 0.4645669291338583
                    },
                    {
                        "duration": 0.248046875,
                        "durationTicks": 127,
                        "midi": 61,
                        "name": "C#4",
                        "ticks": 37632,
                        "time": 73.5,
                        "velocity": 0.5590551181102362
                    },
                    {
                        "duration": 0.248046875,
                        "durationTicks": 127,
                        "midi": 64,
                        "name": "E4",
                        "ticks": 37632,
                        "time": 73.5,
                        "velocity": 0.5590551181102362
                    },
                    {
                        "duration": 0.248046875,
                        "durationTicks": 127,
                        "midi": 73,
                        "name": "C#5",
                        "ticks": 37888,
                        "time": 74,
                        "velocity": 0.5590551181102362
                    },
                    {
                        "duration": 0.248046875,
                        "durationTicks": 127,
                        "midi": 76,
                        "name": "E5",
                        "ticks": 37888,
                        "time": 74,
                        "velocity": 0.5590551181102362
                    },
                    {
                        "duration": 0.248046875,
                        "durationTicks": 127,
                        "midi": 82,
                        "name": "A#5",
                        "ticks": 37888,
                        "time": 74,
                        "velocity": 0.5590551181102362
                    },
                    {
                        "duration": 0.248046875,
                        "durationTicks": 127,
                        "midi": 53,
                        "name": "F3",
                        "ticks": 37888,
                        "time": 74,
                        "velocity": 0.4409448818897638
                    },
                    {
                        "duration": 0.248046875,
                        "durationTicks": 127,
                        "midi": 74,
                        "name": "D5",
                        "ticks": 38144,
                        "time": 74.5,
                        "velocity": 0.44881889763779526
                    },
                    {
                        "duration": 0.248046875,
                        "durationTicks": 127,
                        "midi": 77,
                        "name": "F5",
                        "ticks": 38144,
                        "time": 74.5,
                        "velocity": 0.44881889763779526
                    },
                    {
                        "duration": 0.248046875,
                        "durationTicks": 127,
                        "midi": 81,
                        "name": "A5",
                        "ticks": 38144,
                        "time": 74.5,
                        "velocity": 0.44881889763779526
                    },
                    {
                        "duration": 0.248046875,
                        "durationTicks": 127,
                        "midi": 57,
                        "name": "A3",
                        "ticks": 38144,
                        "time": 74.5,
                        "velocity": 0.5669291338582677
                    },
                    {
                        "duration": 0.248046875,
                        "durationTicks": 127,
                        "midi": 62,
                        "name": "D4",
                        "ticks": 38144,
                        "time": 74.5,
                        "velocity": 0.5669291338582677
                    },
                    {
                        "duration": 0.123046875,
                        "durationTicks": 63,
                        "midi": 80,
                        "name": "G#5",
                        "ticks": 38400,
                        "time": 75,
                        "velocity": 0.4566929133858268
                    },
                    {
                        "duration": 0.123046875,
                        "durationTicks": 63,
                        "midi": 89,
                        "name": "F6",
                        "ticks": 38400,
                        "time": 75,
                        "velocity": 0.4566929133858268
                    },
                    {
                        "duration": 0.248046875,
                        "durationTicks": 127,
                        "midi": 52,
                        "name": "E3",
                        "ticks": 38400,
                        "time": 75,
                        "velocity": 0.4251968503937008
                    },
                    {
                        "duration": 0.123046875,
                        "durationTicks": 63,
                        "midi": 80,
                        "name": "G#5",
                        "ticks": 38528,
                        "time": 75.25,
                        "velocity": 0.4330708661417323
                    },
                    {
                        "duration": 0.123046875,
                        "durationTicks": 63,
                        "midi": 89,
                        "name": "F6",
                        "ticks": 38528,
                        "time": 75.25,
                        "velocity": 0.4330708661417323
                    },
                    {
                        "duration": 0.248046875,
                        "durationTicks": 127,
                        "midi": 80,
                        "name": "G#5",
                        "ticks": 38656,
                        "time": 75.5,
                        "velocity": 0.4645669291338583
                    },
                    {
                        "duration": 0.248046875,
                        "durationTicks": 127,
                        "midi": 89,
                        "name": "F6",
                        "ticks": 38656,
                        "time": 75.5,
                        "velocity": 0.4645669291338583
                    },
                    {
                        "duration": 0.248046875,
                        "durationTicks": 127,
                        "midi": 56,
                        "name": "G#3",
                        "ticks": 38656,
                        "time": 75.5,
                        "velocity": 0.5748031496062992
                    },
                    {
                        "duration": 0.248046875,
                        "durationTicks": 127,
                        "midi": 62,
                        "name": "D4",
                        "ticks": 38656,
                        "time": 75.5,
                        "velocity": 0.5748031496062992
                    },
                    {
                        "duration": 0.123046875,
                        "durationTicks": 63,
                        "midi": 81,
                        "name": "A5",
                        "ticks": 38912,
                        "time": 76,
                        "velocity": 0.4330708661417323
                    },
                    {
                        "duration": 0.123046875,
                        "durationTicks": 63,
                        "midi": 84,
                        "name": "C6",
                        "ticks": 38912,
                        "time": 76,
                        "velocity": 0.4330708661417323
                    },
                    {
                        "duration": 0.123046875,
                        "durationTicks": 63,
                        "midi": 88,
                        "name": "E6",
                        "ticks": 38912,
                        "time": 76,
                        "velocity": 0.4330708661417323
                    },
                    {
                        "duration": 0.248046875,
                        "durationTicks": 127,
                        "midi": 52,
                        "name": "E3",
                        "ticks": 38912,
                        "time": 76,
                        "velocity": 0.4015748031496063
                    },
                    {
                        "duration": 0.123046875,
                        "durationTicks": 63,
                        "midi": 81,
                        "name": "A5",
                        "ticks": 39040,
                        "time": 76.25,
                        "velocity": 0.48031496062992124
                    },
                    {
                        "duration": 0.123046875,
                        "durationTicks": 63,
                        "midi": 84,
                        "name": "C6",
                        "ticks": 39040,
                        "time": 76.25,
                        "velocity": 0.48031496062992124
                    },
                    {
                        "duration": 0.123046875,
                        "durationTicks": 63,
                        "midi": 88,
                        "name": "E6",
                        "ticks": 39040,
                        "time": 76.25,
                        "velocity": 0.48031496062992124
                    },
                    {
                        "duration": 0.248046875,
                        "durationTicks": 127,
                        "midi": 81,
                        "name": "A5",
                        "ticks": 39168,
                        "time": 76.5,
                        "velocity": 0.4645669291338583
                    },
                    {
                        "duration": 0.248046875,
                        "durationTicks": 127,
                        "midi": 84,
                        "name": "C6",
                        "ticks": 39168,
                        "time": 76.5,
                        "velocity": 0.4645669291338583
                    },
                    {
                        "duration": 0.248046875,
                        "durationTicks": 127,
                        "midi": 88,
                        "name": "E6",
                        "ticks": 39168,
                        "time": 76.5,
                        "velocity": 0.4645669291338583
                    },
                    {
                        "duration": 0.248046875,
                        "durationTicks": 127,
                        "midi": 54,
                        "name": "F#3",
                        "ticks": 39168,
                        "time": 76.5,
                        "velocity": 0.5196850393700787
                    },
                    {
                        "duration": 0.248046875,
                        "durationTicks": 127,
                        "midi": 57,
                        "name": "A3",
                        "ticks": 39168,
                        "time": 76.5,
                        "velocity": 0.5196850393700787
                    },
                    {
                        "duration": 0.123046875,
                        "durationTicks": 63,
                        "midi": 80,
                        "name": "G#5",
                        "ticks": 39424,
                        "time": 77,
                        "velocity": 0.4645669291338583
                    },
                    {
                        "duration": 0.123046875,
                        "durationTicks": 63,
                        "midi": 83,
                        "name": "B5",
                        "ticks": 39424,
                        "time": 77,
                        "velocity": 0.4645669291338583
                    },
                    {
                        "duration": 0.123046875,
                        "durationTicks": 63,
                        "midi": 86,
                        "name": "D6",
                        "ticks": 39424,
                        "time": 77,
                        "velocity": 0.4645669291338583
                    },
                    {
                        "duration": 0.248046875,
                        "durationTicks": 127,
                        "midi": 52,
                        "name": "E3",
                        "ticks": 39424,
                        "time": 77,
                        "velocity": 0.4409448818897638
                    },
                    {
                        "duration": 0.123046875,
                        "durationTicks": 63,
                        "midi": 80,
                        "name": "G#5",
                        "ticks": 39552,
                        "time": 77.25,
                        "velocity": 0.48031496062992124
                    },
                    {
                        "duration": 0.123046875,
                        "durationTicks": 63,
                        "midi": 83,
                        "name": "B5",
                        "ticks": 39552,
                        "time": 77.25,
                        "velocity": 0.48031496062992124
                    },
                    {
                        "duration": 0.123046875,
                        "durationTicks": 63,
                        "midi": 86,
                        "name": "D6",
                        "ticks": 39552,
                        "time": 77.25,
                        "velocity": 0.48031496062992124
                    },
                    {
                        "duration": 0.248046875,
                        "durationTicks": 127,
                        "midi": 80,
                        "name": "G#5",
                        "ticks": 39680,
                        "time": 77.5,
                        "velocity": 0.47244094488188976
                    },
                    {
                        "duration": 0.248046875,
                        "durationTicks": 127,
                        "midi": 83,
                        "name": "B5",
                        "ticks": 39680,
                        "time": 77.5,
                        "velocity": 0.47244094488188976
                    },
                    {
                        "duration": 0.248046875,
                        "durationTicks": 127,
                        "midi": 86,
                        "name": "D6",
                        "ticks": 39680,
                        "time": 77.5,
                        "velocity": 0.47244094488188976
                    },
                    {
                        "duration": 0.248046875,
                        "durationTicks": 127,
                        "midi": 56,
                        "name": "G#3",
                        "ticks": 39680,
                        "time": 77.5,
                        "velocity": 0.5118110236220472
                    },
                    {
                        "duration": 0.248046875,
                        "durationTicks": 127,
                        "midi": 59,
                        "name": "B3",
                        "ticks": 39680,
                        "time": 77.5,
                        "velocity": 0.5118110236220472
                    },
                    {
                        "duration": 0.123046875,
                        "durationTicks": 63,
                        "midi": 81,
                        "name": "A5",
                        "ticks": 39936,
                        "time": 78,
                        "velocity": 0.4645669291338583
                    },
                    {
                        "duration": 0.123046875,
                        "durationTicks": 63,
                        "midi": 85,
                        "name": "C#6",
                        "ticks": 39936,
                        "time": 78,
                        "velocity": 0.4645669291338583
                    },
                    {
                        "duration": 0.248046875,
                        "durationTicks": 127,
                        "midi": 57,
                        "name": "A3",
                        "ticks": 39936,
                        "time": 78,
                        "velocity": 0.5275590551181102
                    },
                    {
                        "duration": 0.248046875,
                        "durationTicks": 127,
                        "midi": 64,
                        "name": "E4",
                        "ticks": 39936,
                        "time": 78,
                        "velocity": 0.5275590551181102
                    },
                    {
                        "duration": 0.123046875,
                        "durationTicks": 63,
                        "midi": 88,
                        "name": "E6",
                        "ticks": 40064,
                        "time": 78.25,
                        "velocity": 0.5511811023622047
                    },
                    {
                        "duration": 0.123046875,
                        "durationTicks": 63,
                        "midi": 80,
                        "name": "G#5",
                        "ticks": 40192,
                        "time": 78.5,
                        "velocity": 0.4645669291338583
                    },
                    {
                        "duration": 0.123046875,
                        "durationTicks": 63,
                        "midi": 86,
                        "name": "D6",
                        "ticks": 40192,
                        "time": 78.5,
                        "velocity": 0.4645669291338583
                    },
                    {
                        "duration": 0.248046875,
                        "durationTicks": 127,
                        "midi": 58,
                        "name": "A#3",
                        "ticks": 40192,
                        "time": 78.5,
                        "velocity": 0.4881889763779528
                    },
                    {
                        "duration": 0.248046875,
                        "durationTicks": 127,
                        "midi": 64,
                        "name": "E4",
                        "ticks": 40192,
                        "time": 78.5,
                        "velocity": 0.4881889763779528
                    },
                    {
                        "duration": 0.123046875,
                        "durationTicks": 63,
                        "midi": 88,
                        "name": "E6",
                        "ticks": 40320,
                        "time": 78.75,
                        "velocity": 0.49606299212598426
                    },
                    {
                        "duration": 0.248046875,
                        "durationTicks": 127,
                        "midi": 81,
                        "name": "A5",
                        "ticks": 40448,
                        "time": 79,
                        "velocity": 0.44881889763779526
                    },
                    {
                        "duration": 0.248046875,
                        "durationTicks": 127,
                        "midi": 85,
                        "name": "C#6",
                        "ticks": 40448,
                        "time": 79,
                        "velocity": 0.44881889763779526
                    },
                    {
                        "duration": 0.248046875,
                        "durationTicks": 127,
                        "midi": 57,
                        "name": "A3",
                        "ticks": 40448,
                        "time": 79,
                        "velocity": 0.4409448818897638
                    },
                    {
                        "duration": 0.248046875,
                        "durationTicks": 127,
                        "midi": 64,
                        "name": "E4",
                        "ticks": 40448,
                        "time": 79,
                        "velocity": 0.4409448818897638
                    },
                    {
                        "duration": 0.125,
                        "durationTicks": 64,
                        "midi": 57,
                        "name": "A3",
                        "ticks": 40704,
                        "time": 79.5,
                        "velocity": 0.4094488188976378
                    },
                    {
                        "duration": 0.125,
                        "durationTicks": 64,
                        "midi": 55,
                        "name": "G3",
                        "ticks": 40768,
                        "time": 79.625,
                        "velocity": 0.4645669291338583
                    },
                    {
                        "duration": 0.125,
                        "durationTicks": 64,
                        "midi": 53,
                        "name": "F3",
                        "ticks": 40832,
                        "time": 79.75,
                        "velocity": 0.4645669291338583
                    },
                    {
                        "duration": 0.125,
                        "durationTicks": 64,
                        "midi": 52,
                        "name": "E3",
                        "ticks": 40896,
                        "time": 79.875,
                        "velocity": 0.4330708661417323
                    },
                    {
                        "duration": 0.197265625,
                        "durationTicks": 101,
                        "midi": 50,
                        "name": "D3",
                        "ticks": 40960,
                        "time": 80,
                        "velocity": 0.4645669291338583
                    },
                    {
                        "duration": 0.123046875,
                        "durationTicks": 63,
                        "midi": 81,
                        "name": "A5",
                        "ticks": 41216,
                        "time": 80.5,
                        "velocity": 0.4409448818897638
                    },
                    {
                        "duration": 0.123046875,
                        "durationTicks": 63,
                        "midi": 89,
                        "name": "F6",
                        "ticks": 41216,
                        "time": 80.5,
                        "velocity": 0.4409448818897638
                    },
                    {
                        "duration": 0.248046875,
                        "durationTicks": 127,
                        "midi": 53,
                        "name": "F3",
                        "ticks": 41216,
                        "time": 80.5,
                        "velocity": 0.5196850393700787
                    },
                    {
                        "duration": 0.248046875,
                        "durationTicks": 127,
                        "midi": 57,
                        "name": "A3",
                        "ticks": 41216,
                        "time": 80.5,
                        "velocity": 0.5196850393700787
                    },
                    {
                        "duration": 0.123046875,
                        "durationTicks": 63,
                        "midi": 86,
                        "name": "D6",
                        "ticks": 41344,
                        "time": 80.75,
                        "velocity": 0.4566929133858268
                    },
                    {
                        "duration": 0.248046875,
                        "durationTicks": 127,
                        "midi": 81,
                        "name": "A5",
                        "ticks": 41472,
                        "time": 81,
                        "velocity": 0.5039370078740157
                    },
                    {
                        "duration": 0.248046875,
                        "durationTicks": 127,
                        "midi": 89,
                        "name": "F6",
                        "ticks": 41472,
                        "time": 81,
                        "velocity": 0.5039370078740157
                    },
                    {
                        "duration": 0.248046875,
                        "durationTicks": 127,
                        "midi": 50,
                        "name": "D3",
                        "ticks": 41472,
                        "time": 81,
                        "velocity": 0.4330708661417323
                    },
                    {
                        "duration": 0.248046875,
                        "durationTicks": 127,
                        "midi": 79,
                        "name": "G5",
                        "ticks": 41728,
                        "time": 81.5,
                        "velocity": 0.49606299212598426
                    },
                    {
                        "duration": 0.248046875,
                        "durationTicks": 127,
                        "midi": 88,
                        "name": "E6",
                        "ticks": 41728,
                        "time": 81.5,
                        "velocity": 0.49606299212598426
                    },
                    {
                        "duration": 0.248046875,
                        "durationTicks": 127,
                        "midi": 55,
                        "name": "G3",
                        "ticks": 41728,
                        "time": 81.5,
                        "velocity": 0.5196850393700787
                    },
                    {
                        "duration": 0.248046875,
                        "durationTicks": 127,
                        "midi": 58,
                        "name": "A#3",
                        "ticks": 41728,
                        "time": 81.5,
                        "velocity": 0.5196850393700787
                    },
                    {
                        "duration": 0.248046875,
                        "durationTicks": 127,
                        "midi": 76,
                        "name": "E5",
                        "ticks": 41984,
                        "time": 82,
                        "velocity": 0.4409448818897638
                    },
                    {
                        "duration": 0.248046875,
                        "durationTicks": 127,
                        "midi": 85,
                        "name": "C#6",
                        "ticks": 41984,
                        "time": 82,
                        "velocity": 0.4409448818897638
                    },
                    {
                        "duration": 0.248046875,
                        "durationTicks": 127,
                        "midi": 50,
                        "name": "D3",
                        "ticks": 41984,
                        "time": 82,
                        "velocity": 0.4094488188976378
                    },
                    {
                        "duration": 0.248046875,
                        "durationTicks": 127,
                        "midi": 77,
                        "name": "F5",
                        "ticks": 42240,
                        "time": 82.5,
                        "velocity": 0.47244094488188976
                    },
                    {
                        "duration": 0.248046875,
                        "durationTicks": 127,
                        "midi": 86,
                        "name": "D6",
                        "ticks": 42240,
                        "time": 82.5,
                        "velocity": 0.47244094488188976
                    },
                    {
                        "duration": 0.248046875,
                        "durationTicks": 127,
                        "midi": 56,
                        "name": "G#3",
                        "ticks": 42240,
                        "time": 82.5,
                        "velocity": 0.5511811023622047
                    },
                    {
                        "duration": 0.248046875,
                        "durationTicks": 127,
                        "midi": 59,
                        "name": "B3",
                        "ticks": 42240,
                        "time": 82.5,
                        "velocity": 0.5511811023622047
                    },
                    {
                        "duration": 0.123046875,
                        "durationTicks": 63,
                        "midi": 75,
                        "name": "D#5",
                        "ticks": 42496,
                        "time": 83,
                        "velocity": 0.44881889763779526
                    },
                    {
                        "duration": 0.123046875,
                        "durationTicks": 63,
                        "midi": 78,
                        "name": "F#5",
                        "ticks": 42496,
                        "time": 83,
                        "velocity": 0.44881889763779526
                    },
                    {
                        "duration": 0.123046875,
                        "durationTicks": 63,
                        "midi": 84,
                        "name": "C6",
                        "ticks": 42496,
                        "time": 83,
                        "velocity": 0.44881889763779526
                    },
                    {
                        "duration": 0.248046875,
                        "durationTicks": 127,
                        "midi": 50,
                        "name": "D3",
                        "ticks": 42496,
                        "time": 83,
                        "velocity": 0.4409448818897638
                    },
                    {
                        "duration": 0.123046875,
                        "durationTicks": 63,
                        "midi": 75,
                        "name": "D#5",
                        "ticks": 42624,
                        "time": 83.25,
                        "velocity": 0.47244094488188976
                    },
                    {
                        "duration": 0.123046875,
                        "durationTicks": 63,
                        "midi": 78,
                        "name": "F#5",
                        "ticks": 42624,
                        "time": 83.25,
                        "velocity": 0.47244094488188976
                    },
                    {
                        "duration": 0.123046875,
                        "durationTicks": 63,
                        "midi": 84,
                        "name": "C6",
                        "ticks": 42624,
                        "time": 83.25,
                        "velocity": 0.47244094488188976
                    },
                    {
                        "duration": 0.248046875,
                        "durationTicks": 127,
                        "midi": 75,
                        "name": "D#5",
                        "ticks": 42752,
                        "time": 83.5,
                        "velocity": 0.4881889763779528
                    },
                    {
                        "duration": 0.248046875,
                        "durationTicks": 127,
                        "midi": 78,
                        "name": "F#5",
                        "ticks": 42752,
                        "time": 83.5,
                        "velocity": 0.4881889763779528
                    },
                    {
                        "duration": 0.248046875,
                        "durationTicks": 127,
                        "midi": 84,
                        "name": "C6",
                        "ticks": 42752,
                        "time": 83.5,
                        "velocity": 0.4881889763779528
                    },
                    {
                        "duration": 0.248046875,
                        "durationTicks": 127,
                        "midi": 57,
                        "name": "A3",
                        "ticks": 42752,
                        "time": 83.5,
                        "velocity": 0.5590551181102362
                    },
                    {
                        "duration": 0.248046875,
                        "durationTicks": 127,
                        "midi": 60,
                        "name": "C4",
                        "ticks": 42752,
                        "time": 83.5,
                        "velocity": 0.5590551181102362
                    },
                    {
                        "duration": 0.123046875,
                        "durationTicks": 63,
                        "midi": 74,
                        "name": "D5",
                        "ticks": 43008,
                        "time": 84,
                        "velocity": 0.4645669291338583
                    },
                    {
                        "duration": 0.123046875,
                        "durationTicks": 63,
                        "midi": 77,
                        "name": "F5",
                        "ticks": 43008,
                        "time": 84,
                        "velocity": 0.4645669291338583
                    },
                    {
                        "duration": 0.123046875,
                        "durationTicks": 63,
                        "midi": 83,
                        "name": "B5",
                        "ticks": 43008,
                        "time": 84,
                        "velocity": 0.4645669291338583
                    },
                    {
                        "duration": 0.248046875,
                        "durationTicks": 127,
                        "midi": 50,
                        "name": "D3",
                        "ticks": 43008,
                        "time": 84,
                        "velocity": 0.41732283464566927
                    },
                    {
                        "duration": 0.123046875,
                        "durationTicks": 63,
                        "midi": 74,
                        "name": "D5",
                        "ticks": 43136,
                        "time": 84.25,
                        "velocity": 0.44881889763779526
                    },
                    {
                        "duration": 0.123046875,
                        "durationTicks": 63,
                        "midi": 77,
                        "name": "F5",
                        "ticks": 43136,
                        "time": 84.25,
                        "velocity": 0.44881889763779526
                    },
                    {
                        "duration": 0.123046875,
                        "durationTicks": 63,
                        "midi": 83,
                        "name": "B5",
                        "ticks": 43136,
                        "time": 84.25,
                        "velocity": 0.44881889763779526
                    },
                    {
                        "duration": 0.248046875,
                        "durationTicks": 127,
                        "midi": 74,
                        "name": "D5",
                        "ticks": 43264,
                        "time": 84.5,
                        "velocity": 0.4645669291338583
                    },
                    {
                        "duration": 0.248046875,
                        "durationTicks": 127,
                        "midi": 77,
                        "name": "F5",
                        "ticks": 43264,
                        "time": 84.5,
                        "velocity": 0.4645669291338583
                    },
                    {
                        "duration": 0.248046875,
                        "durationTicks": 127,
                        "midi": 83,
                        "name": "B5",
                        "ticks": 43264,
                        "time": 84.5,
                        "velocity": 0.4645669291338583
                    },
                    {
                        "duration": 0.248046875,
                        "durationTicks": 127,
                        "midi": 56,
                        "name": "G#3",
                        "ticks": 43264,
                        "time": 84.5,
                        "velocity": 0.5275590551181102
                    },
                    {
                        "duration": 0.248046875,
                        "durationTicks": 127,
                        "midi": 59,
                        "name": "B3",
                        "ticks": 43264,
                        "time": 84.5,
                        "velocity": 0.5275590551181102
                    },
                    {
                        "duration": 0.123046875,
                        "durationTicks": 63,
                        "midi": 73,
                        "name": "C#5",
                        "ticks": 43520,
                        "time": 85,
                        "velocity": 0.4881889763779528
                    },
                    {
                        "duration": 0.123046875,
                        "durationTicks": 63,
                        "midi": 76,
                        "name": "E5",
                        "ticks": 43520,
                        "time": 85,
                        "velocity": 0.4881889763779528
                    },
                    {
                        "duration": 0.123046875,
                        "durationTicks": 63,
                        "midi": 82,
                        "name": "A#5",
                        "ticks": 43520,
                        "time": 85,
                        "velocity": 0.4881889763779528
                    },
                    {
                        "duration": 0.248046875,
                        "durationTicks": 127,
                        "midi": 50,
                        "name": "D3",
                        "ticks": 43520,
                        "time": 85,
                        "velocity": 0.4566929133858268
                    },
                    {
                        "duration": 0.123046875,
                        "durationTicks": 63,
                        "midi": 73,
                        "name": "C#5",
                        "ticks": 43648,
                        "time": 85.25,
                        "velocity": 0.4251968503937008
                    },
                    {
                        "duration": 0.123046875,
                        "durationTicks": 63,
                        "midi": 76,
                        "name": "E5",
                        "ticks": 43648,
                        "time": 85.25,
                        "velocity": 0.4251968503937008
                    },
                    {
                        "duration": 0.123046875,
                        "durationTicks": 63,
                        "midi": 82,
                        "name": "A#5",
                        "ticks": 43648,
                        "time": 85.25,
                        "velocity": 0.4251968503937008
                    },
                    {
                        "duration": 0.248046875,
                        "durationTicks": 127,
                        "midi": 73,
                        "name": "C#5",
                        "ticks": 43776,
                        "time": 85.5,
                        "velocity": 0.47244094488188976
                    },
                    {
                        "duration": 0.248046875,
                        "durationTicks": 127,
                        "midi": 76,
                        "name": "E5",
                        "ticks": 43776,
                        "time": 85.5,
                        "velocity": 0.47244094488188976
                    },
                    {
                        "duration": 0.248046875,
                        "durationTicks": 127,
                        "midi": 82,
                        "name": "A#5",
                        "ticks": 43776,
                        "time": 85.5,
                        "velocity": 0.47244094488188976
                    },
                    {
                        "duration": 0.248046875,
                        "durationTicks": 127,
                        "midi": 55,
                        "name": "G3",
                        "ticks": 43776,
                        "time": 85.5,
                        "velocity": 0.5118110236220472
                    },
                    {
                        "duration": 0.248046875,
                        "durationTicks": 127,
                        "midi": 58,
                        "name": "A#3",
                        "ticks": 43776,
                        "time": 85.5,
                        "velocity": 0.5118110236220472
                    },
                    {
                        "duration": 0.123046875,
                        "durationTicks": 63,
                        "midi": 77,
                        "name": "F5",
                        "ticks": 44032,
                        "time": 86,
                        "velocity": 0.4645669291338583
                    },
                    {
                        "duration": 0.123046875,
                        "durationTicks": 63,
                        "midi": 81,
                        "name": "A5",
                        "ticks": 44032,
                        "time": 86,
                        "velocity": 0.4645669291338583
                    },
                    {
                        "duration": 0.248046875,
                        "durationTicks": 127,
                        "midi": 50,
                        "name": "D3",
                        "ticks": 44032,
                        "time": 86,
                        "velocity": 0.41732283464566927
                    },
                    {
                        "duration": 0.123046875,
                        "durationTicks": 63,
                        "midi": 86,
                        "name": "D6",
                        "ticks": 44160,
                        "time": 86.25,
                        "velocity": 0.5354330708661418
                    },
                    {
                        "duration": 0.123046875,
                        "durationTicks": 63,
                        "midi": 79,
                        "name": "G5",
                        "ticks": 44288,
                        "time": 86.5,
                        "velocity": 0.4566929133858268
                    },
                    {
                        "duration": 0.123046875,
                        "durationTicks": 63,
                        "midi": 82,
                        "name": "A#5",
                        "ticks": 44288,
                        "time": 86.5,
                        "velocity": 0.4566929133858268
                    },
                    {
                        "duration": 0.248046875,
                        "durationTicks": 127,
                        "midi": 62,
                        "name": "D4",
                        "ticks": 44288,
                        "time": 86.5,
                        "velocity": 0.5826771653543307
                    },
                    {
                        "duration": 0.248046875,
                        "durationTicks": 127,
                        "midi": 64,
                        "name": "E4",
                        "ticks": 44288,
                        "time": 86.5,
                        "velocity": 0.5826771653543307
                    },
                    {
                        "duration": 0.123046875,
                        "durationTicks": 63,
                        "midi": 86,
                        "name": "D6",
                        "ticks": 44416,
                        "time": 86.75,
                        "velocity": 0.5511811023622047
                    },
                    {
                        "duration": 0.248046875,
                        "durationTicks": 127,
                        "midi": 77,
                        "name": "F5",
                        "ticks": 44544,
                        "time": 87,
                        "velocity": 0.41732283464566927
                    },
                    {
                        "duration": 0.248046875,
                        "durationTicks": 127,
                        "midi": 81,
                        "name": "A5",
                        "ticks": 44544,
                        "time": 87,
                        "velocity": 0.41732283464566927
                    },
                    {
                        "duration": 0.248046875,
                        "durationTicks": 127,
                        "midi": 62,
                        "name": "D4",
                        "ticks": 44544,
                        "time": 87,
                        "velocity": 0.5433070866141733
                    },
                    {
                        "duration": 0.248046875,
                        "durationTicks": 127,
                        "midi": 65,
                        "name": "F4",
                        "ticks": 44544,
                        "time": 87,
                        "velocity": 0.5433070866141733
                    },
                    {
                        "duration": 0.125,
                        "durationTicks": 64,
                        "midi": 65,
                        "name": "F4",
                        "ticks": 44800,
                        "time": 87.5,
                        "velocity": 0.49606299212598426
                    },
                    {
                        "duration": 0.125,
                        "durationTicks": 64,
                        "midi": 64,
                        "name": "E4",
                        "ticks": 44864,
                        "time": 87.625,
                        "velocity": 0.44881889763779526
                    },
                    {
                        "duration": 0.125,
                        "durationTicks": 64,
                        "midi": 62,
                        "name": "D4",
                        "ticks": 44928,
                        "time": 87.75,
                        "velocity": 0.41732283464566927
                    },
                    {
                        "duration": 0.125,
                        "durationTicks": 64,
                        "midi": 60,
                        "name": "C4",
                        "ticks": 44992,
                        "time": 87.875,
                        "velocity": 0.4645669291338583
                    },
                    {
                        "duration": 0.400390625,
                        "durationTicks": 205,
                        "midi": 59,
                        "name": "B3",
                        "ticks": 45056,
                        "time": 88,
                        "velocity": 0.48031496062992124
                    },
                    {
                        "duration": 0.123046875,
                        "durationTicks": 63,
                        "midi": 68,
                        "name": "G#4",
                        "ticks": 45312,
                        "time": 88.5,
                        "velocity": 0.4094488188976378
                    },
                    {
                        "duration": 0.123046875,
                        "durationTicks": 63,
                        "midi": 74,
                        "name": "D5",
                        "ticks": 45312,
                        "time": 88.5,
                        "velocity": 0.4094488188976378
                    },
                    {
                        "duration": 1,
                        "durationTicks": 512,
                        "midi": 64,
                        "name": "E4",
                        "ticks": 45312,
                        "time": 88.5,
                        "velocity": 0.7322834645669292
                    },
                    {
                        "duration": 0.123046875,
                        "durationTicks": 63,
                        "midi": 71,
                        "name": "B4",
                        "ticks": 45440,
                        "time": 88.75,
                        "velocity": 0.41732283464566927
                    },
                    {
                        "duration": 0.248046875,
                        "durationTicks": 127,
                        "midi": 68,
                        "name": "G#4",
                        "ticks": 45568,
                        "time": 89,
                        "velocity": 0.5196850393700787
                    },
                    {
                        "duration": 0.248046875,
                        "durationTicks": 127,
                        "midi": 74,
                        "name": "D5",
                        "ticks": 45568,
                        "time": 89,
                        "velocity": 0.5196850393700787
                    },
                    {
                        "duration": 0.248046875,
                        "durationTicks": 127,
                        "midi": 67,
                        "name": "G4",
                        "ticks": 45824,
                        "time": 89.5,
                        "velocity": 0.44881889763779526
                    },
                    {
                        "duration": 0.248046875,
                        "durationTicks": 127,
                        "midi": 69,
                        "name": "A4",
                        "ticks": 45824,
                        "time": 89.5,
                        "velocity": 0.44881889763779526
                    },
                    {
                        "duration": 0.248046875,
                        "durationTicks": 127,
                        "midi": 73,
                        "name": "C#5",
                        "ticks": 45824,
                        "time": 89.5,
                        "velocity": 0.44881889763779526
                    },
                    {
                        "duration": 0.400390625,
                        "durationTicks": 205,
                        "midi": 57,
                        "name": "A3",
                        "ticks": 45824,
                        "time": 89.5,
                        "velocity": 0.4645669291338583
                    },
                    {
                        "duration": 0.5,
                        "durationTicks": 256,
                        "midi": 50,
                        "name": "D3",
                        "ticks": 46080,
                        "time": 90,
                        "velocity": 0.4330708661417323
                    },
                    {
                        "duration": 0.123046875,
                        "durationTicks": 63,
                        "midi": 66,
                        "name": "F#4",
                        "ticks": 46336,
                        "time": 90.5,
                        "velocity": 0.41732283464566927
                    },
                    {
                        "duration": 0.123046875,
                        "durationTicks": 63,
                        "midi": 72,
                        "name": "C5",
                        "ticks": 46336,
                        "time": 90.5,
                        "velocity": 0.41732283464566927
                    },
                    {
                        "duration": 1,
                        "durationTicks": 512,
                        "midi": 62,
                        "name": "D4",
                        "ticks": 46336,
                        "time": 90.5,
                        "velocity": 0.7952755905511811
                    },
                    {
                        "duration": 0.123046875,
                        "durationTicks": 63,
                        "midi": 69,
                        "name": "A4",
                        "ticks": 46464,
                        "time": 90.75,
                        "velocity": 0.4409448818897638
                    },
                    {
                        "duration": 0.248046875,
                        "durationTicks": 127,
                        "midi": 66,
                        "name": "F#4",
                        "ticks": 46592,
                        "time": 91,
                        "velocity": 0.47244094488188976
                    },
                    {
                        "duration": 0.248046875,
                        "durationTicks": 127,
                        "midi": 72,
                        "name": "C5",
                        "ticks": 46592,
                        "time": 91,
                        "velocity": 0.47244094488188976
                    },
                    {
                        "duration": 0.248046875,
                        "durationTicks": 127,
                        "midi": 65,
                        "name": "F4",
                        "ticks": 46848,
                        "time": 91.5,
                        "velocity": 0.4409448818897638
                    },
                    {
                        "duration": 0.248046875,
                        "durationTicks": 127,
                        "midi": 67,
                        "name": "G4",
                        "ticks": 46848,
                        "time": 91.5,
                        "velocity": 0.4409448818897638
                    },
                    {
                        "duration": 0.248046875,
                        "durationTicks": 127,
                        "midi": 71,
                        "name": "B4",
                        "ticks": 46848,
                        "time": 91.5,
                        "velocity": 0.4409448818897638
                    },
                    {
                        "duration": 0.400390625,
                        "durationTicks": 205,
                        "midi": 55,
                        "name": "G3",
                        "ticks": 46848,
                        "time": 91.5,
                        "velocity": 0.4409448818897638
                    },
                    {
                        "duration": 0.5,
                        "durationTicks": 256,
                        "midi": 48,
                        "name": "C3",
                        "ticks": 47104,
                        "time": 92,
                        "velocity": 0.4409448818897638
                    },
                    {
                        "duration": 0.123046875,
                        "durationTicks": 63,
                        "midi": 64,
                        "name": "E4",
                        "ticks": 47360,
                        "time": 92.5,
                        "velocity": 0.44881889763779526
                    },
                    {
                        "duration": 0.123046875,
                        "durationTicks": 63,
                        "midi": 70,
                        "name": "A#4",
                        "ticks": 47360,
                        "time": 92.5,
                        "velocity": 0.44881889763779526
                    },
                    {
                        "duration": 1,
                        "durationTicks": 512,
                        "midi": 60,
                        "name": "C4",
                        "ticks": 47360,
                        "time": 92.5,
                        "velocity": 0.7952755905511811
                    },
                    {
                        "duration": 0.123046875,
                        "durationTicks": 63,
                        "midi": 67,
                        "name": "G4",
                        "ticks": 47488,
                        "time": 92.75,
                        "velocity": 0.41732283464566927
                    },
                    {
                        "duration": 0.248046875,
                        "durationTicks": 127,
                        "midi": 64,
                        "name": "E4",
                        "ticks": 47616,
                        "time": 93,
                        "velocity": 0.49606299212598426
                    },
                    {
                        "duration": 0.248046875,
                        "durationTicks": 127,
                        "midi": 70,
                        "name": "A#4",
                        "ticks": 47616,
                        "time": 93,
                        "velocity": 0.49606299212598426
                    },
                    {
                        "duration": 0.248046875,
                        "durationTicks": 127,
                        "midi": 65,
                        "name": "F4",
                        "ticks": 47872,
                        "time": 93.5,
                        "velocity": 0.44881889763779526
                    },
                    {
                        "duration": 0.248046875,
                        "durationTicks": 127,
                        "midi": 69,
                        "name": "A4",
                        "ticks": 47872,
                        "time": 93.5,
                        "velocity": 0.44881889763779526
                    },
                    {
                        "duration": 0.400390625,
                        "durationTicks": 205,
                        "midi": 53,
                        "name": "F3",
                        "ticks": 47872,
                        "time": 93.5,
                        "velocity": 0.4645669291338583
                    },
                    {
                        "duration": 0.248046875,
                        "durationTicks": 127,
                        "midi": 45,
                        "name": "A2",
                        "ticks": 48128,
                        "time": 94,
                        "velocity": 0.4251968503937008
                    },
                    {
                        "duration": 0.0625,
                        "durationTicks": 32,
                        "midi": 69,
                        "name": "A4",
                        "ticks": 48289,
                        "time": 94.314453125,
                        "velocity": 0.6850393700787402
                    },
                    {
                        "duration": 0.0390625,
                        "durationTicks": 20,
                        "midi": 73,
                        "name": "C#5",
                        "ticks": 48321,
                        "time": 94.376953125,
                        "velocity": 0.8110236220472441
                    },
                    {
                        "duration": 0.083984375,
                        "durationTicks": 43,
                        "midi": 76,
                        "name": "E5",
                        "ticks": 48341,
                        "time": 94.416015625,
                        "velocity": 0.8346456692913385
                    },
                    {
                        "duration": 0.197265625,
                        "durationTicks": 101,
                        "midi": 81,
                        "name": "A5",
                        "ticks": 48384,
                        "time": 94.5,
                        "velocity": 0.8661417322834646
                    },
                    {
                        "duration": 0.248046875,
                        "durationTicks": 127,
                        "midi": 52,
                        "name": "E3",
                        "ticks": 48384,
                        "time": 94.5,
                        "velocity": 1
                    },
                    {
                        "duration": 0.248046875,
                        "durationTicks": 127,
                        "midi": 55,
                        "name": "G3",
                        "ticks": 48384,
                        "time": 94.5,
                        "velocity": 1
                    },
                    {
                        "duration": 0.248046875,
                        "durationTicks": 127,
                        "midi": 57,
                        "name": "A3",
                        "ticks": 48384,
                        "time": 94.5,
                        "velocity": 1
                    },
                    {
                        "duration": 0.248046875,
                        "durationTicks": 127,
                        "midi": 74,
                        "name": "D5",
                        "ticks": 48640,
                        "time": 95,
                        "velocity": 0.905511811023622
                    },
                    {
                        "duration": 0.248046875,
                        "durationTicks": 127,
                        "midi": 86,
                        "name": "D6",
                        "ticks": 48640,
                        "time": 95,
                        "velocity": 0.905511811023622
                    },
                    {
                        "duration": 0.248046875,
                        "durationTicks": 127,
                        "midi": 50,
                        "name": "D3",
                        "ticks": 48640,
                        "time": 95,
                        "velocity": 0.9763779527559056
                    },
                    {
                        "duration": 0.248046875,
                        "durationTicks": 127,
                        "midi": 53,
                        "name": "F3",
                        "ticks": 48640,
                        "time": 95,
                        "velocity": 0.9763779527559056
                    },
                    {
                        "duration": 0.248046875,
                        "durationTicks": 127,
                        "midi": 57,
                        "name": "A3",
                        "ticks": 48640,
                        "time": 95,
                        "velocity": 0.9763779527559056
                    }
                ]
            }
        ]
    }
];