let midi = {
    "header": {
        "keySignatures": [
            {
                "key": "D",
                "scale": "major",
                "ticks": 0
            }
        ],
        "meta": [],
        "name": "",
        "ppq": 256,
        "tempos": [
            {
                "bpm": 138.00019320027047,
                "ticks": 0
            },
            {
                "bpm": 142.0000710000355,
                "ticks": 17408
            },
            {
                "bpm": 145.00003625000906,
                "ticks": 41984
            },
            {
                "bpm": 148.000148000148,
                "ticks": 46080
            },
            {
                "bpm": 150,
                "ticks": 48128
            },
            {
                "bpm": 153.33033487345136,
                "ticks": 48256
            },
            {
                "bpm": 156.66000861630047,
                "ticks": 48384
            },
            {
                "bpm": 159.9901872685142,
                "ticks": 48512
            },
            {
                "bpm": 163.32041287400375,
                "ticks": 48640
            },
            {
                "bpm": 166.6500016665,
                "ticks": 48768
            },
            {
                "bpm": 169.98033894079586,
                "ticks": 48896
            },
            {
                "bpm": 173.3102253032929,
                "ticks": 49024
            },
            {
                "bpm": 176.6404748095963,
                "ticks": 49152
            },
            {
                "bpm": 179.97048484048617,
                "ticks": 49280
            },
            {
                "bpm": 183.30013564210037,
                "ticks": 49408
            },
            {
                "bpm": 186.6304188919752,
                "ticks": 49536
            },
            {
                "bpm": 190.0002850004275,
                "ticks": 49664
            },
            {
                "bpm": 190.0002850004275,
                "ticks": 50175
            },
            {
                "bpm": 200,
                "ticks": 66560
            },
            {
                "bpm": 205.00064916872236,
                "ticks": 70656
            },
            {
                "bpm": 210.00021000021,
                "ticks": 73216
            },
            {
                "bpm": 215.00059125162593,
                "ticks": 73472
            },
            {
                "bpm": 220.00022000022,
                "ticks": 73728
            },
            {
                "bpm": 260.00026000026,
                "ticks": 74752
            }
        ],
        "timeSignatures": [
            {
                "ticks": 0,
                "timeSignature": [
                    4,
                    4
                ],
                "measures": 0
            },
            {
                "ticks": 0,
                "timeSignature": [
                    4,
                    4
                ],
                "measures": 0
            }
        ]
    },
    "tracks": [
        {
            "channel": 0,
            "controlChanges": {
                "0": [
                    {
                        "number": 0,
                        "ticks": 1024,
                        "time": 1.739128,
                        "value": 0
                    }
                ],
                "10": [
                    {
                        "number": 10,
                        "ticks": 0,
                        "time": 0,
                        "value": 0.5984251968503937
                    }
                ],
                "32": [
                    {
                        "number": 32,
                        "ticks": 1024,
                        "time": 1.739128,
                        "value": 0
                    }
                ],
                "91": [
                    {
                        "number": 91,
                        "ticks": 0,
                        "time": 0,
                        "value": 0.47244094488188976
                    }
                ]
            },
            "pitchBends": [],
            "instrument": {
                "family": "piano",
                "name": "acoustic grand piano",
                "number": 0
            },
            "name": "Piano",
            "notes": [
                {
                    "duration": 0.1069971328124999,
                    "durationTicks": 63,
                    "midi": 35,
                    "name": "B1",
                    "ticks": 1024,
                    "time": 1.739128,
                    "velocity": 0.28346456692913385
                },
                {
                    "duration": 0.1069971328124999,
                    "durationTicks": 63,
                    "midi": 37,
                    "name": "C#2",
                    "ticks": 1152,
                    "time": 1.9565190000000001,
                    "velocity": 0.28346456692913385
                },
                {
                    "duration": 0.1069971328124999,
                    "durationTicks": 63,
                    "midi": 38,
                    "name": "D2",
                    "ticks": 1280,
                    "time": 2.1739100000000002,
                    "velocity": 0.30708661417322836
                },
                {
                    "duration": 0.1069971328124999,
                    "durationTicks": 63,
                    "midi": 40,
                    "name": "E2",
                    "ticks": 1408,
                    "time": 2.391301,
                    "velocity": 0.30708661417322836
                },
                {
                    "duration": 0.1069971328124999,
                    "durationTicks": 63,
                    "midi": 42,
                    "name": "F#2",
                    "ticks": 1536,
                    "time": 2.608692,
                    "velocity": 0.41732283464566927
                },
                {
                    "duration": 0.1069971328124999,
                    "durationTicks": 63,
                    "midi": 38,
                    "name": "D2",
                    "ticks": 1664,
                    "time": 2.826083,
                    "velocity": 0.2283464566929134
                },
                {
                    "duration": 0.21399426562500024,
                    "durationTicks": 126,
                    "midi": 42,
                    "name": "F#2",
                    "ticks": 1792,
                    "time": 3.043474,
                    "velocity": 0.29133858267716534
                },
                {
                    "duration": 0.1069971328124999,
                    "durationTicks": 63,
                    "midi": 41,
                    "name": "F2",
                    "ticks": 2048,
                    "time": 3.478256,
                    "velocity": 0.3937007874015748
                },
                {
                    "duration": 0.1069971328124999,
                    "durationTicks": 63,
                    "midi": 37,
                    "name": "C#2",
                    "ticks": 2176,
                    "time": 3.695647,
                    "velocity": 0.2283464566929134
                },
                {
                    "duration": 0.2139942656249998,
                    "durationTicks": 126,
                    "midi": 41,
                    "name": "F2",
                    "ticks": 2304,
                    "time": 3.9130380000000002,
                    "velocity": 0.2992125984251969
                },
                {
                    "duration": 0.10699713281249945,
                    "durationTicks": 63,
                    "midi": 40,
                    "name": "E2",
                    "ticks": 2560,
                    "time": 4.3478200000000005,
                    "velocity": 0.3858267716535433
                },
                {
                    "duration": 0.10699713281250034,
                    "durationTicks": 63,
                    "midi": 36,
                    "name": "C2",
                    "ticks": 2688,
                    "time": 4.565211,
                    "velocity": 0.25196850393700787
                },
                {
                    "duration": 0.2139942656249998,
                    "durationTicks": 126,
                    "midi": 40,
                    "name": "E2",
                    "ticks": 2816,
                    "time": 4.782602,
                    "velocity": 0.2992125984251969
                },
                {
                    "duration": 0.10699713281250034,
                    "durationTicks": 63,
                    "midi": 35,
                    "name": "B1",
                    "ticks": 3072,
                    "time": 5.217384,
                    "velocity": 0.25984251968503935
                },
                {
                    "duration": 0.10699713281249945,
                    "durationTicks": 63,
                    "midi": 37,
                    "name": "C#2",
                    "ticks": 3200,
                    "time": 5.434775,
                    "velocity": 0.28346456692913385
                },
                {
                    "duration": 0.10699713281249945,
                    "durationTicks": 63,
                    "midi": 38,
                    "name": "D2",
                    "ticks": 3328,
                    "time": 5.652166,
                    "velocity": 0.29133858267716534
                },
                {
                    "duration": 0.10699713281249945,
                    "durationTicks": 63,
                    "midi": 40,
                    "name": "E2",
                    "ticks": 3456,
                    "time": 5.869557,
                    "velocity": 0.2992125984251969
                },
                {
                    "duration": 0.10699713281250034,
                    "durationTicks": 63,
                    "midi": 42,
                    "name": "F#2",
                    "ticks": 3584,
                    "time": 6.086948,
                    "velocity": 0.33070866141732286
                },
                {
                    "duration": 0.10699713281250034,
                    "durationTicks": 63,
                    "midi": 38,
                    "name": "D2",
                    "ticks": 3712,
                    "time": 6.304339,
                    "velocity": 0.25196850393700787
                },
                {
                    "duration": 0.10699713281250034,
                    "durationTicks": 63,
                    "midi": 42,
                    "name": "F#2",
                    "ticks": 3840,
                    "time": 6.52173,
                    "velocity": 0.33070866141732286
                },
                {
                    "duration": 0.10699713281250034,
                    "durationTicks": 63,
                    "midi": 47,
                    "name": "B2",
                    "ticks": 3968,
                    "time": 6.739121,
                    "velocity": 0.30708661417322836
                },
                {
                    "duration": 0.10699713281250034,
                    "durationTicks": 63,
                    "midi": 45,
                    "name": "A2",
                    "ticks": 4096,
                    "time": 6.956512,
                    "velocity": 0.2677165354330709
                },
                {
                    "duration": 0.10699713281249945,
                    "durationTicks": 63,
                    "midi": 42,
                    "name": "F#2",
                    "ticks": 4224,
                    "time": 7.173903,
                    "velocity": 0.2283464566929134
                },
                {
                    "duration": 0.10699713281249945,
                    "durationTicks": 63,
                    "midi": 38,
                    "name": "D2",
                    "ticks": 4352,
                    "time": 7.391294,
                    "velocity": 0.2755905511811024
                },
                {
                    "duration": 0.10699713281249945,
                    "durationTicks": 63,
                    "midi": 42,
                    "name": "F#2",
                    "ticks": 4480,
                    "time": 7.608685,
                    "velocity": 0.30708661417322836
                },
                {
                    "duration": 0.7846456406249995,
                    "durationTicks": 462,
                    "midi": 45,
                    "name": "A2",
                    "ticks": 4608,
                    "time": 7.8260760000000005,
                    "velocity": 0.41732283464566927
                },
                {
                    "duration": 0.10699713281249856,
                    "durationTicks": 63,
                    "midi": 47,
                    "name": "B2",
                    "ticks": 5120,
                    "time": 8.695640000000001,
                    "velocity": 0.4330708661417323
                },
                {
                    "duration": 0.10699713281250034,
                    "durationTicks": 63,
                    "midi": 49,
                    "name": "C#3",
                    "ticks": 5248,
                    "time": 8.913031,
                    "velocity": 0.4015748031496063
                },
                {
                    "duration": 0.10699713281250034,
                    "durationTicks": 63,
                    "midi": 50,
                    "name": "D3",
                    "ticks": 5376,
                    "time": 9.130422,
                    "velocity": 0.4251968503937008
                },
                {
                    "duration": 0.10699713281250034,
                    "durationTicks": 63,
                    "midi": 52,
                    "name": "E3",
                    "ticks": 5504,
                    "time": 9.347813,
                    "velocity": 0.4015748031496063
                },
                {
                    "duration": 0.10699713281250034,
                    "durationTicks": 63,
                    "midi": 54,
                    "name": "F#3",
                    "ticks": 5632,
                    "time": 9.565204,
                    "velocity": 0.4330708661417323
                },
                {
                    "duration": 0.10699713281249856,
                    "durationTicks": 63,
                    "midi": 50,
                    "name": "D3",
                    "ticks": 5760,
                    "time": 9.782595,
                    "velocity": 0.23622047244094488
                },
                {
                    "duration": 0.21399426562500068,
                    "durationTicks": 126,
                    "midi": 54,
                    "name": "F#3",
                    "ticks": 5888,
                    "time": 9.999986,
                    "velocity": 0.2992125984251969
                },
                {
                    "duration": 0.10699713281250034,
                    "durationTicks": 63,
                    "midi": 53,
                    "name": "F3",
                    "ticks": 6144,
                    "time": 10.434768,
                    "velocity": 0.3700787401574803
                },
                {
                    "duration": 0.10699713281250034,
                    "durationTicks": 63,
                    "midi": 49,
                    "name": "C#3",
                    "ticks": 6272,
                    "time": 10.652159,
                    "velocity": 0.25196850393700787
                },
                {
                    "duration": 0.2139942656249989,
                    "durationTicks": 126,
                    "midi": 53,
                    "name": "F3",
                    "ticks": 6400,
                    "time": 10.86955,
                    "velocity": 0.31496062992125984
                },
                {
                    "duration": 0.10699713281250034,
                    "durationTicks": 63,
                    "midi": 52,
                    "name": "E3",
                    "ticks": 6656,
                    "time": 11.304332,
                    "velocity": 0.3858267716535433
                },
                {
                    "duration": 0.10699713281250034,
                    "durationTicks": 63,
                    "midi": 48,
                    "name": "C3",
                    "ticks": 6784,
                    "time": 11.521723,
                    "velocity": 0.25984251968503935
                },
                {
                    "duration": 0.2139942656249989,
                    "durationTicks": 126,
                    "midi": 52,
                    "name": "E3",
                    "ticks": 6912,
                    "time": 11.739114,
                    "velocity": 0.30708661417322836
                },
                {
                    "duration": 0.10699713281250034,
                    "durationTicks": 63,
                    "midi": 47,
                    "name": "B2",
                    "ticks": 7168,
                    "time": 12.173896,
                    "velocity": 0.2755905511811024
                },
                {
                    "duration": 0.10699713281250034,
                    "durationTicks": 63,
                    "midi": 49,
                    "name": "C#3",
                    "ticks": 7296,
                    "time": 12.391287,
                    "velocity": 0.2755905511811024
                },
                {
                    "duration": 0.10699713281250034,
                    "durationTicks": 63,
                    "midi": 50,
                    "name": "D3",
                    "ticks": 7424,
                    "time": 12.608678,
                    "velocity": 0.30708661417322836
                },
                {
                    "duration": 0.10699713281250034,
                    "durationTicks": 63,
                    "midi": 52,
                    "name": "E3",
                    "ticks": 7552,
                    "time": 12.826069,
                    "velocity": 0.2755905511811024
                },
                {
                    "duration": 0.10699713281250034,
                    "durationTicks": 63,
                    "midi": 54,
                    "name": "F#3",
                    "ticks": 7680,
                    "time": 13.04346,
                    "velocity": 0.31496062992125984
                },
                {
                    "duration": 0.10699713281249856,
                    "durationTicks": 63,
                    "midi": 50,
                    "name": "D3",
                    "ticks": 7808,
                    "time": 13.260851,
                    "velocity": 0.23622047244094488
                },
                {
                    "duration": 0.10699713281250034,
                    "durationTicks": 63,
                    "midi": 54,
                    "name": "F#3",
                    "ticks": 7936,
                    "time": 13.478242,
                    "velocity": 0.3228346456692913
                },
                {
                    "duration": 0.10699713281249856,
                    "durationTicks": 63,
                    "midi": 59,
                    "name": "B3",
                    "ticks": 8064,
                    "time": 13.695633,
                    "velocity": 0.30708661417322836
                },
                {
                    "duration": 0.10699713281250034,
                    "durationTicks": 63,
                    "midi": 57,
                    "name": "A3",
                    "ticks": 8192,
                    "time": 13.913024,
                    "velocity": 0.2992125984251969
                },
                {
                    "duration": 0.10699713281250034,
                    "durationTicks": 63,
                    "midi": 54,
                    "name": "F#3",
                    "ticks": 8320,
                    "time": 14.130415,
                    "velocity": 0.25984251968503935
                },
                {
                    "duration": 0.10699713281250034,
                    "durationTicks": 63,
                    "midi": 50,
                    "name": "D3",
                    "ticks": 8448,
                    "time": 14.347806,
                    "velocity": 0.25984251968503935
                },
                {
                    "duration": 0.10699713281250034,
                    "durationTicks": 63,
                    "midi": 54,
                    "name": "F#3",
                    "ticks": 8576,
                    "time": 14.565197,
                    "velocity": 0.2992125984251969
                },
                {
                    "duration": 0.7846456406249995,
                    "durationTicks": 462,
                    "midi": 45,
                    "name": "A2",
                    "ticks": 8704,
                    "time": 14.782588,
                    "velocity": 0.41732283464566927
                },
                {
                    "duration": 0.7846456406249995,
                    "durationTicks": 462,
                    "midi": 57,
                    "name": "A3",
                    "ticks": 8704,
                    "time": 14.782588,
                    "velocity": 0.4094488188976378
                },
                {
                    "duration": 0.10699713281249856,
                    "durationTicks": 63,
                    "midi": 42,
                    "name": "F#2",
                    "ticks": 9216,
                    "time": 15.652152000000001,
                    "velocity": 0.2125984251968504
                },
                {
                    "duration": 0.10699713281250034,
                    "durationTicks": 63,
                    "midi": 44,
                    "name": "G#2",
                    "ticks": 9344,
                    "time": 15.869543,
                    "velocity": 0.28346456692913385
                },
                {
                    "duration": 0.10699713281250212,
                    "durationTicks": 63,
                    "midi": 46,
                    "name": "A#2",
                    "ticks": 9472,
                    "time": 16.086934,
                    "velocity": 0.30708661417322836
                },
                {
                    "duration": 0.10699713281250212,
                    "durationTicks": 63,
                    "midi": 47,
                    "name": "B2",
                    "ticks": 9600,
                    "time": 16.304325,
                    "velocity": 0.2755905511811024
                },
                {
                    "duration": 0.10699713281249856,
                    "durationTicks": 63,
                    "midi": 49,
                    "name": "C#3",
                    "ticks": 9728,
                    "time": 16.521716,
                    "velocity": 0.4251968503937008
                },
                {
                    "duration": 0.10699713281249856,
                    "durationTicks": 63,
                    "midi": 46,
                    "name": "A#2",
                    "ticks": 9856,
                    "time": 16.739107,
                    "velocity": 0.2677165354330709
                },
                {
                    "duration": 0.21399426562500068,
                    "durationTicks": 126,
                    "midi": 49,
                    "name": "C#3",
                    "ticks": 9984,
                    "time": 16.956498,
                    "velocity": 0.2755905511811024
                },
                {
                    "duration": 0.10699713281249856,
                    "durationTicks": 63,
                    "midi": 50,
                    "name": "D3",
                    "ticks": 10240,
                    "time": 17.391280000000002,
                    "velocity": 0.4330708661417323
                },
                {
                    "duration": 0.10699713281249856,
                    "durationTicks": 63,
                    "midi": 46,
                    "name": "A#2",
                    "ticks": 10368,
                    "time": 17.608671,
                    "velocity": 0.2440944881889764
                },
                {
                    "duration": 0.21399426562500068,
                    "durationTicks": 126,
                    "midi": 50,
                    "name": "D3",
                    "ticks": 10496,
                    "time": 17.826062,
                    "velocity": 0.2992125984251969
                },
                {
                    "duration": 0.10699713281250212,
                    "durationTicks": 63,
                    "midi": 49,
                    "name": "C#3",
                    "ticks": 10752,
                    "time": 18.260844,
                    "velocity": 0.4015748031496063
                },
                {
                    "duration": 0.10699713281249856,
                    "durationTicks": 63,
                    "midi": 46,
                    "name": "A#2",
                    "ticks": 10880,
                    "time": 18.478235,
                    "velocity": 0.25196850393700787
                },
                {
                    "duration": 0.21399426562500068,
                    "durationTicks": 126,
                    "midi": 49,
                    "name": "C#3",
                    "ticks": 11008,
                    "time": 18.695626,
                    "velocity": 0.28346456692913385
                },
                {
                    "duration": 0.10699713281250212,
                    "durationTicks": 63,
                    "midi": 42,
                    "name": "F#2",
                    "ticks": 11264,
                    "time": 19.130408,
                    "velocity": 0.23622047244094488
                },
                {
                    "duration": 0.10699713281250212,
                    "durationTicks": 63,
                    "midi": 44,
                    "name": "G#2",
                    "ticks": 11392,
                    "time": 19.347799,
                    "velocity": 0.2755905511811024
                },
                {
                    "duration": 0.10699713281249856,
                    "durationTicks": 63,
                    "midi": 46,
                    "name": "A#2",
                    "ticks": 11520,
                    "time": 19.56519,
                    "velocity": 0.30708661417322836
                },
                {
                    "duration": 0.10699713281249856,
                    "durationTicks": 63,
                    "midi": 47,
                    "name": "B2",
                    "ticks": 11648,
                    "time": 19.782581,
                    "velocity": 0.29133858267716534
                },
                {
                    "duration": 0.10699713281250212,
                    "durationTicks": 63,
                    "midi": 49,
                    "name": "C#3",
                    "ticks": 11776,
                    "time": 19.999972,
                    "velocity": 0.4330708661417323
                },
                {
                    "duration": 0.10699713281250212,
                    "durationTicks": 63,
                    "midi": 46,
                    "name": "A#2",
                    "ticks": 11904,
                    "time": 20.217363,
                    "velocity": 0.2440944881889764
                },
                {
                    "duration": 0.21399426562499713,
                    "durationTicks": 126,
                    "midi": 49,
                    "name": "C#3",
                    "ticks": 12032,
                    "time": 20.434754,
                    "velocity": 0.28346456692913385
                },
                {
                    "duration": 0.10699713281249856,
                    "durationTicks": 63,
                    "midi": 50,
                    "name": "D3",
                    "ticks": 12288,
                    "time": 20.869536,
                    "velocity": 0.4251968503937008
                },
                {
                    "duration": 0.10699713281250212,
                    "durationTicks": 63,
                    "midi": 46,
                    "name": "A#2",
                    "ticks": 12416,
                    "time": 21.086927,
                    "velocity": 0.23622047244094488
                },
                {
                    "duration": 0.21399426562500068,
                    "durationTicks": 126,
                    "midi": 50,
                    "name": "D3",
                    "ticks": 12544,
                    "time": 21.304318,
                    "velocity": 0.30708661417322836
                },
                {
                    "duration": 0.4262901640625003,
                    "durationTicks": 251,
                    "midi": 49,
                    "name": "C#3",
                    "ticks": 12800,
                    "time": 21.7391,
                    "velocity": 0.3779527559055118
                },
                {
                    "duration": 0.10699713281249856,
                    "durationTicks": 63,
                    "midi": 54,
                    "name": "F#3",
                    "ticks": 13312,
                    "time": 22.608664,
                    "velocity": 0.33070866141732286
                },
                {
                    "duration": 0.10699713281249856,
                    "durationTicks": 63,
                    "midi": 56,
                    "name": "G#3",
                    "ticks": 13440,
                    "time": 22.826055,
                    "velocity": 0.28346456692913385
                },
                {
                    "duration": 0.10699713281250212,
                    "durationTicks": 63,
                    "midi": 58,
                    "name": "A#3",
                    "ticks": 13568,
                    "time": 23.043446,
                    "velocity": 0.30708661417322836
                },
                {
                    "duration": 0.10699713281250212,
                    "durationTicks": 63,
                    "midi": 59,
                    "name": "B3",
                    "ticks": 13696,
                    "time": 23.260837,
                    "velocity": 0.2677165354330709
                },
                {
                    "duration": 0.10699713281249856,
                    "durationTicks": 63,
                    "midi": 61,
                    "name": "C#4",
                    "ticks": 13824,
                    "time": 23.478228,
                    "velocity": 0.4330708661417323
                },
                {
                    "duration": 0.10699713281249856,
                    "durationTicks": 63,
                    "midi": 58,
                    "name": "A#3",
                    "ticks": 13952,
                    "time": 23.695619,
                    "velocity": 0.25196850393700787
                },
                {
                    "duration": 0.21399426562500068,
                    "durationTicks": 126,
                    "midi": 61,
                    "name": "C#4",
                    "ticks": 14080,
                    "time": 23.91301,
                    "velocity": 0.30708661417322836
                },
                {
                    "duration": 0.10699713281250212,
                    "durationTicks": 63,
                    "midi": 62,
                    "name": "D4",
                    "ticks": 14336,
                    "time": 24.347792,
                    "velocity": 0.4330708661417323
                },
                {
                    "duration": 0.10699713281249856,
                    "durationTicks": 63,
                    "midi": 58,
                    "name": "A#3",
                    "ticks": 14464,
                    "time": 24.565183,
                    "velocity": 0.2440944881889764
                },
                {
                    "duration": 0.21399426562500068,
                    "durationTicks": 126,
                    "midi": 62,
                    "name": "D4",
                    "ticks": 14592,
                    "time": 24.782574,
                    "velocity": 0.28346456692913385
                },
                {
                    "duration": 0.10699713281250212,
                    "durationTicks": 63,
                    "midi": 61,
                    "name": "C#4",
                    "ticks": 14848,
                    "time": 25.217356,
                    "velocity": 0.3858267716535433
                },
                {
                    "duration": 0.10699713281249856,
                    "durationTicks": 63,
                    "midi": 58,
                    "name": "A#3",
                    "ticks": 14976,
                    "time": 25.434747,
                    "velocity": 0.25196850393700787
                },
                {
                    "duration": 0.21399426562500068,
                    "durationTicks": 126,
                    "midi": 61,
                    "name": "C#4",
                    "ticks": 15104,
                    "time": 25.652138,
                    "velocity": 0.29133858267716534
                },
                {
                    "duration": 0.10699713281250212,
                    "durationTicks": 63,
                    "midi": 54,
                    "name": "F#3",
                    "ticks": 15360,
                    "time": 26.08692,
                    "velocity": 0.2440944881889764
                },
                {
                    "duration": 0.10699713281250212,
                    "durationTicks": 63,
                    "midi": 56,
                    "name": "G#3",
                    "ticks": 15488,
                    "time": 26.304311,
                    "velocity": 0.2677165354330709
                },
                {
                    "duration": 0.10699713281249856,
                    "durationTicks": 63,
                    "midi": 58,
                    "name": "A#3",
                    "ticks": 15616,
                    "time": 26.521702,
                    "velocity": 0.31496062992125984
                },
                {
                    "duration": 0.10699713281249856,
                    "durationTicks": 63,
                    "midi": 59,
                    "name": "B3",
                    "ticks": 15744,
                    "time": 26.739093,
                    "velocity": 0.29133858267716534
                },
                {
                    "duration": 0.10699713281250212,
                    "durationTicks": 63,
                    "midi": 61,
                    "name": "C#4",
                    "ticks": 15872,
                    "time": 26.956484,
                    "velocity": 0.41732283464566927
                },
                {
                    "duration": 0.10699713281250212,
                    "durationTicks": 63,
                    "midi": 58,
                    "name": "A#3",
                    "ticks": 16000,
                    "time": 27.173875,
                    "velocity": 0.25196850393700787
                },
                {
                    "duration": 0.21399426562499713,
                    "durationTicks": 126,
                    "midi": 61,
                    "name": "C#4",
                    "ticks": 16128,
                    "time": 27.391266,
                    "velocity": 0.29133858267716534
                },
                {
                    "duration": 0.10699713281249856,
                    "durationTicks": 63,
                    "midi": 62,
                    "name": "D4",
                    "ticks": 16384,
                    "time": 27.826048,
                    "velocity": 0.41732283464566927
                },
                {
                    "duration": 0.10699713281250212,
                    "durationTicks": 63,
                    "midi": 58,
                    "name": "A#3",
                    "ticks": 16512,
                    "time": 28.043439,
                    "velocity": 0.2283464566929134
                },
                {
                    "duration": 0.21399426562500068,
                    "durationTicks": 126,
                    "midi": 62,
                    "name": "D4",
                    "ticks": 16640,
                    "time": 28.26083,
                    "velocity": 0.29133858267716534
                },
                {
                    "duration": 0.4262901640625003,
                    "durationTicks": 251,
                    "midi": 61,
                    "name": "C#4",
                    "ticks": 16896,
                    "time": 28.695612,
                    "velocity": 0.3858267716535433
                },
                {
                    "duration": 0.10398322265625026,
                    "durationTicks": 63,
                    "midi": 35,
                    "name": "B1",
                    "ticks": 17408,
                    "time": 29.565176,
                    "velocity": 0.2204724409448819
                },
                {
                    "duration": 0.10398322265624671,
                    "durationTicks": 63,
                    "midi": 37,
                    "name": "C#2",
                    "ticks": 17536,
                    "time": 29.776443500000003,
                    "velocity": 0.2755905511811024
                },
                {
                    "duration": 0.10398322265625026,
                    "durationTicks": 63,
                    "midi": 38,
                    "name": "D2",
                    "ticks": 17664,
                    "time": 29.987711,
                    "velocity": 0.29133858267716534
                },
                {
                    "duration": 0.10398322265624671,
                    "durationTicks": 63,
                    "midi": 40,
                    "name": "E2",
                    "ticks": 17792,
                    "time": 30.198978500000003,
                    "velocity": 0.29133858267716534
                },
                {
                    "duration": 0.10398322265625026,
                    "durationTicks": 63,
                    "midi": 42,
                    "name": "F#2",
                    "ticks": 17920,
                    "time": 30.410246,
                    "velocity": 0.4094488188976378
                },
                {
                    "duration": 0.10398322265625026,
                    "durationTicks": 63,
                    "midi": 38,
                    "name": "D2",
                    "ticks": 18048,
                    "time": 30.621513500000002,
                    "velocity": 0.2440944881889764
                },
                {
                    "duration": 0.20796644531250053,
                    "durationTicks": 126,
                    "midi": 42,
                    "name": "F#2",
                    "ticks": 18176,
                    "time": 30.832781,
                    "velocity": 0.30708661417322836
                },
                {
                    "duration": 0.10398322265625026,
                    "durationTicks": 63,
                    "midi": 41,
                    "name": "F2",
                    "ticks": 18432,
                    "time": 31.255316,
                    "velocity": 0.3858267716535433
                },
                {
                    "duration": 0.10398322265625026,
                    "durationTicks": 63,
                    "midi": 37,
                    "name": "C#2",
                    "ticks": 18560,
                    "time": 31.466583500000002,
                    "velocity": 0.23622047244094488
                },
                {
                    "duration": 0.20796644531250053,
                    "durationTicks": 126,
                    "midi": 41,
                    "name": "F2",
                    "ticks": 18688,
                    "time": 31.677851,
                    "velocity": 0.2992125984251969
                },
                {
                    "duration": 0.10398322265625382,
                    "durationTicks": 63,
                    "midi": 40,
                    "name": "E2",
                    "ticks": 18944,
                    "time": 32.100386,
                    "velocity": 0.4015748031496063
                },
                {
                    "duration": 0.10398322265625382,
                    "durationTicks": 63,
                    "midi": 36,
                    "name": "C2",
                    "ticks": 19072,
                    "time": 32.3116535,
                    "velocity": 0.2440944881889764
                },
                {
                    "duration": 0.20796644531250053,
                    "durationTicks": 126,
                    "midi": 40,
                    "name": "E2",
                    "ticks": 19200,
                    "time": 32.522921000000004,
                    "velocity": 0.29133858267716534
                },
                {
                    "duration": 0.10398322265625382,
                    "durationTicks": 63,
                    "midi": 35,
                    "name": "B1",
                    "ticks": 19456,
                    "time": 32.945456,
                    "velocity": 0.2677165354330709
                },
                {
                    "duration": 0.10398322265625382,
                    "durationTicks": 63,
                    "midi": 37,
                    "name": "C#2",
                    "ticks": 19584,
                    "time": 33.1567235,
                    "velocity": 0.28346456692913385
                },
                {
                    "duration": 0.10398322265624671,
                    "durationTicks": 63,
                    "midi": 38,
                    "name": "D2",
                    "ticks": 19712,
                    "time": 33.367991,
                    "velocity": 0.3228346456692913
                },
                {
                    "duration": 0.10398322265624671,
                    "durationTicks": 63,
                    "midi": 40,
                    "name": "E2",
                    "ticks": 19840,
                    "time": 33.5792585,
                    "velocity": 0.28346456692913385
                },
                {
                    "duration": 0.10398322265625382,
                    "durationTicks": 63,
                    "midi": 42,
                    "name": "F#2",
                    "ticks": 19968,
                    "time": 33.790526,
                    "velocity": 0.3228346456692913
                },
                {
                    "duration": 0.10398322265624671,
                    "durationTicks": 63,
                    "midi": 38,
                    "name": "D2",
                    "ticks": 20096,
                    "time": 34.001793500000005,
                    "velocity": 0.25984251968503935
                },
                {
                    "duration": 0.10398322265624671,
                    "durationTicks": 63,
                    "midi": 42,
                    "name": "F#2",
                    "ticks": 20224,
                    "time": 34.213061,
                    "velocity": 0.3228346456692913
                },
                {
                    "duration": 0.10398322265625382,
                    "durationTicks": 63,
                    "midi": 47,
                    "name": "B2",
                    "ticks": 20352,
                    "time": 34.4243285,
                    "velocity": 0.30708661417322836
                },
                {
                    "duration": 0.10398322265625382,
                    "durationTicks": 63,
                    "midi": 45,
                    "name": "A2",
                    "ticks": 20480,
                    "time": 34.635596,
                    "velocity": 0.29133858267716534
                },
                {
                    "duration": 0.10398322265625382,
                    "durationTicks": 63,
                    "midi": 42,
                    "name": "F#2",
                    "ticks": 20608,
                    "time": 34.8468635,
                    "velocity": 0.23622047244094488
                },
                {
                    "duration": 0.10398322265624671,
                    "durationTicks": 63,
                    "midi": 38,
                    "name": "D2",
                    "ticks": 20736,
                    "time": 35.058131,
                    "velocity": 0.2677165354330709
                },
                {
                    "duration": 0.10398322265624671,
                    "durationTicks": 63,
                    "midi": 42,
                    "name": "F#2",
                    "ticks": 20864,
                    "time": 35.2693985,
                    "velocity": 0.30708661417322836
                },
                {
                    "duration": 0.7625436328125019,
                    "durationTicks": 462,
                    "midi": 45,
                    "name": "A2",
                    "ticks": 20992,
                    "time": 35.480666,
                    "velocity": 0.41732283464566927
                },
                {
                    "duration": 0.10398322265625382,
                    "durationTicks": 63,
                    "midi": 47,
                    "name": "B2",
                    "ticks": 21504,
                    "time": 36.325736,
                    "velocity": 0.41732283464566927
                },
                {
                    "duration": 0.10398322265624671,
                    "durationTicks": 63,
                    "midi": 49,
                    "name": "C#3",
                    "ticks": 21632,
                    "time": 36.537003500000004,
                    "velocity": 0.41732283464566927
                },
                {
                    "duration": 0.10398322265624671,
                    "durationTicks": 63,
                    "midi": 50,
                    "name": "D3",
                    "ticks": 21760,
                    "time": 36.748271,
                    "velocity": 0.41732283464566927
                },
                {
                    "duration": 0.10398322265625382,
                    "durationTicks": 63,
                    "midi": 52,
                    "name": "E3",
                    "ticks": 21888,
                    "time": 36.9595385,
                    "velocity": 0.4015748031496063
                },
                {
                    "duration": 0.10398322265625382,
                    "durationTicks": 63,
                    "midi": 54,
                    "name": "F#3",
                    "ticks": 22016,
                    "time": 37.170806,
                    "velocity": 0.4409448818897638
                },
                {
                    "duration": 0.10398322265624671,
                    "durationTicks": 63,
                    "midi": 50,
                    "name": "D3",
                    "ticks": 22144,
                    "time": 37.382073500000004,
                    "velocity": 0.25984251968503935
                },
                {
                    "duration": 0.20796644531250053,
                    "durationTicks": 126,
                    "midi": 54,
                    "name": "F#3",
                    "ticks": 22272,
                    "time": 37.593341,
                    "velocity": 0.29133858267716534
                },
                {
                    "duration": 0.10398322265624671,
                    "durationTicks": 63,
                    "midi": 53,
                    "name": "F3",
                    "ticks": 22528,
                    "time": 38.015876000000006,
                    "velocity": 0.3858267716535433
                },
                {
                    "duration": 0.10398322265624671,
                    "durationTicks": 63,
                    "midi": 49,
                    "name": "C#3",
                    "ticks": 22656,
                    "time": 38.227143500000004,
                    "velocity": 0.2440944881889764
                },
                {
                    "duration": 0.20796644531250053,
                    "durationTicks": 126,
                    "midi": 53,
                    "name": "F3",
                    "ticks": 22784,
                    "time": 38.438411,
                    "velocity": 0.2992125984251969
                },
                {
                    "duration": 0.10398322265625382,
                    "durationTicks": 63,
                    "midi": 52,
                    "name": "E3",
                    "ticks": 23040,
                    "time": 38.860946,
                    "velocity": 0.3937007874015748
                },
                {
                    "duration": 0.10398322265624671,
                    "durationTicks": 63,
                    "midi": 48,
                    "name": "C3",
                    "ticks": 23168,
                    "time": 39.072213500000004,
                    "velocity": 0.23622047244094488
                },
                {
                    "duration": 0.20796644531250053,
                    "durationTicks": 126,
                    "midi": 52,
                    "name": "E3",
                    "ticks": 23296,
                    "time": 39.283481,
                    "velocity": 0.28346456692913385
                },
                {
                    "duration": 0.10398322265624671,
                    "durationTicks": 63,
                    "midi": 47,
                    "name": "B2",
                    "ticks": 23552,
                    "time": 39.706016000000005,
                    "velocity": 0.2440944881889764
                },
                {
                    "duration": 0.10398322265624671,
                    "durationTicks": 63,
                    "midi": 49,
                    "name": "C#3",
                    "ticks": 23680,
                    "time": 39.9172835,
                    "velocity": 0.29133858267716534
                },
                {
                    "duration": 0.10398322265625382,
                    "durationTicks": 63,
                    "midi": 50,
                    "name": "D3",
                    "ticks": 23808,
                    "time": 40.128551,
                    "velocity": 0.3228346456692913
                },
                {
                    "duration": 0.10398322265625382,
                    "durationTicks": 63,
                    "midi": 52,
                    "name": "E3",
                    "ticks": 23936,
                    "time": 40.3398185,
                    "velocity": 0.2755905511811024
                },
                {
                    "duration": 0.10398322265625382,
                    "durationTicks": 63,
                    "midi": 54,
                    "name": "F#3",
                    "ticks": 24064,
                    "time": 40.551086,
                    "velocity": 0.3228346456692913
                },
                {
                    "duration": 0.10398322265624671,
                    "durationTicks": 63,
                    "midi": 50,
                    "name": "D3",
                    "ticks": 24192,
                    "time": 40.7623535,
                    "velocity": 0.2440944881889764
                },
                {
                    "duration": 0.10398322265624671,
                    "durationTicks": 63,
                    "midi": 54,
                    "name": "F#3",
                    "ticks": 24320,
                    "time": 40.973621,
                    "velocity": 0.33070866141732286
                },
                {
                    "duration": 0.10398322265625382,
                    "durationTicks": 63,
                    "midi": 59,
                    "name": "B3",
                    "ticks": 24448,
                    "time": 41.1848885,
                    "velocity": 0.2992125984251969
                },
                {
                    "duration": 0.10398322265624671,
                    "durationTicks": 63,
                    "midi": 54,
                    "name": "F#3",
                    "ticks": 24576,
                    "time": 41.396156000000005,
                    "velocity": 0.25984251968503935
                },
                {
                    "duration": 0.10398322265624671,
                    "durationTicks": 63,
                    "midi": 50,
                    "name": "D3",
                    "ticks": 24704,
                    "time": 41.6074235,
                    "velocity": 0.2440944881889764
                },
                {
                    "duration": 0.10398322265625382,
                    "durationTicks": 63,
                    "midi": 54,
                    "name": "F#3",
                    "ticks": 24832,
                    "time": 41.818691,
                    "velocity": 0.31496062992125984
                },
                {
                    "duration": 0.10398322265624671,
                    "durationTicks": 63,
                    "midi": 59,
                    "name": "B3",
                    "ticks": 24960,
                    "time": 42.029958500000006,
                    "velocity": 0.30708661417322836
                },
                {
                    "duration": 0.7625436328125019,
                    "durationTicks": 462,
                    "midi": 47,
                    "name": "B2",
                    "ticks": 25088,
                    "time": 42.241226000000005,
                    "velocity": 0.29133858267716534
                },
                {
                    "duration": 0.10398322265624671,
                    "durationTicks": 63,
                    "midi": 59,
                    "name": "B3",
                    "ticks": 25600,
                    "time": 43.086296000000004,
                    "velocity": 0.4881889763779528
                },
                {
                    "duration": 0.10398322265624671,
                    "durationTicks": 63,
                    "midi": 61,
                    "name": "C#4",
                    "ticks": 25728,
                    "time": 43.2975635,
                    "velocity": 0.41732283464566927
                },
                {
                    "duration": 0.10398322265625382,
                    "durationTicks": 63,
                    "midi": 54,
                    "name": "F#3",
                    "ticks": 25856,
                    "time": 43.508831,
                    "velocity": 0.4409448818897638
                },
                {
                    "duration": 0.10398322265625382,
                    "durationTicks": 63,
                    "midi": 62,
                    "name": "D4",
                    "ticks": 25856,
                    "time": 43.508831,
                    "velocity": 0.4409448818897638
                },
                {
                    "duration": 0.10398322265624671,
                    "durationTicks": 63,
                    "midi": 64,
                    "name": "E4",
                    "ticks": 25984,
                    "time": 43.720098500000006,
                    "velocity": 0.3858267716535433
                },
                {
                    "duration": 0.10398322265624671,
                    "durationTicks": 63,
                    "midi": 66,
                    "name": "F#4",
                    "ticks": 26112,
                    "time": 43.931366000000004,
                    "velocity": 0.6456692913385826
                },
                {
                    "duration": 0.10398322265625382,
                    "durationTicks": 63,
                    "midi": 62,
                    "name": "D4",
                    "ticks": 26240,
                    "time": 44.1426335,
                    "velocity": 0.3464566929133858
                },
                {
                    "duration": 0.20796644531250053,
                    "durationTicks": 126,
                    "midi": 54,
                    "name": "F#3",
                    "ticks": 26368,
                    "time": 44.353901,
                    "velocity": 0.4015748031496063
                },
                {
                    "duration": 0.20796644531250053,
                    "durationTicks": 126,
                    "midi": 66,
                    "name": "F#4",
                    "ticks": 26368,
                    "time": 44.353901,
                    "velocity": 0.4015748031496063
                },
                {
                    "duration": 0.10398322265624671,
                    "durationTicks": 63,
                    "midi": 65,
                    "name": "F4",
                    "ticks": 26624,
                    "time": 44.776436000000004,
                    "velocity": 0.5826771653543307
                },
                {
                    "duration": 0.10398322265624671,
                    "durationTicks": 63,
                    "midi": 61,
                    "name": "C#4",
                    "ticks": 26752,
                    "time": 44.9877035,
                    "velocity": 0.3464566929133858
                },
                {
                    "duration": 0.20796644531250053,
                    "durationTicks": 126,
                    "midi": 54,
                    "name": "F#3",
                    "ticks": 26880,
                    "time": 45.198971,
                    "velocity": 0.41732283464566927
                },
                {
                    "duration": 0.20796644531250053,
                    "durationTicks": 126,
                    "midi": 65,
                    "name": "F4",
                    "ticks": 26880,
                    "time": 45.198971,
                    "velocity": 0.4251968503937008
                },
                {
                    "duration": 0.10398322265624671,
                    "durationTicks": 63,
                    "midi": 64,
                    "name": "E4",
                    "ticks": 27136,
                    "time": 45.621506000000004,
                    "velocity": 0.5748031496062992
                },
                {
                    "duration": 0.10398322265625382,
                    "durationTicks": 63,
                    "midi": 60,
                    "name": "C4",
                    "ticks": 27264,
                    "time": 45.8327735,
                    "velocity": 0.33070866141732286
                },
                {
                    "duration": 0.20796644531249342,
                    "durationTicks": 126,
                    "midi": 54,
                    "name": "F#3",
                    "ticks": 27392,
                    "time": 46.04404100000001,
                    "velocity": 0.3937007874015748
                },
                {
                    "duration": 0.20796644531249342,
                    "durationTicks": 126,
                    "midi": 64,
                    "name": "E4",
                    "ticks": 27392,
                    "time": 46.04404100000001,
                    "velocity": 0.4094488188976378
                },
                {
                    "duration": 0.10398322265625382,
                    "durationTicks": 63,
                    "midi": 59,
                    "name": "B3",
                    "ticks": 27648,
                    "time": 46.466576,
                    "velocity": 0.3700787401574803
                },
                {
                    "duration": 0.10398322265624671,
                    "durationTicks": 63,
                    "midi": 61,
                    "name": "C#4",
                    "ticks": 27776,
                    "time": 46.6778435,
                    "velocity": 0.4015748031496063
                },
                {
                    "duration": 0.10398322265625382,
                    "durationTicks": 63,
                    "midi": 54,
                    "name": "F#3",
                    "ticks": 27904,
                    "time": 46.889111,
                    "velocity": 0.4094488188976378
                },
                {
                    "duration": 0.10398322265625382,
                    "durationTicks": 63,
                    "midi": 62,
                    "name": "D4",
                    "ticks": 27904,
                    "time": 46.889111,
                    "velocity": 0.4251968503937008
                },
                {
                    "duration": 0.10398322265624671,
                    "durationTicks": 63,
                    "midi": 64,
                    "name": "E4",
                    "ticks": 28032,
                    "time": 47.100378500000005,
                    "velocity": 0.41732283464566927
                },
                {
                    "duration": 0.10398322265624671,
                    "durationTicks": 63,
                    "midi": 66,
                    "name": "F#4",
                    "ticks": 28160,
                    "time": 47.311646,
                    "velocity": 0.4409448818897638
                },
                {
                    "duration": 0.10398322265625382,
                    "durationTicks": 63,
                    "midi": 62,
                    "name": "D4",
                    "ticks": 28288,
                    "time": 47.5229135,
                    "velocity": 0.33070866141732286
                },
                {
                    "duration": 0.10398322265624671,
                    "durationTicks": 63,
                    "midi": 66,
                    "name": "F#4",
                    "ticks": 28416,
                    "time": 47.73418100000001,
                    "velocity": 0.4409448818897638
                },
                {
                    "duration": 0.10398322265624671,
                    "durationTicks": 63,
                    "midi": 71,
                    "name": "B4",
                    "ticks": 28544,
                    "time": 47.945448500000005,
                    "velocity": 0.4409448818897638
                },
                {
                    "duration": 0.10398322265625382,
                    "durationTicks": 63,
                    "midi": 69,
                    "name": "A4",
                    "ticks": 28672,
                    "time": 48.156716,
                    "velocity": 0.3937007874015748
                },
                {
                    "duration": 0.10398322265624671,
                    "durationTicks": 63,
                    "midi": 66,
                    "name": "F#4",
                    "ticks": 28800,
                    "time": 48.36798350000001,
                    "velocity": 0.3464566929133858
                },
                {
                    "duration": 0.10398322265625382,
                    "durationTicks": 63,
                    "midi": 57,
                    "name": "A3",
                    "ticks": 28928,
                    "time": 48.579251,
                    "velocity": 0.33858267716535434
                },
                {
                    "duration": 0.10398322265625382,
                    "durationTicks": 63,
                    "midi": 62,
                    "name": "D4",
                    "ticks": 28928,
                    "time": 48.579251,
                    "velocity": 0.3464566929133858
                },
                {
                    "duration": 0.10398322265625382,
                    "durationTicks": 63,
                    "midi": 66,
                    "name": "F#4",
                    "ticks": 29056,
                    "time": 48.790518500000005,
                    "velocity": 0.4251968503937008
                },
                {
                    "duration": 0.7625436328125019,
                    "durationTicks": 462,
                    "midi": 69,
                    "name": "A4",
                    "ticks": 29184,
                    "time": 49.001786,
                    "velocity": 0.41732283464566927
                },
                {
                    "duration": 0.10398322265625382,
                    "durationTicks": 63,
                    "midi": 71,
                    "name": "B4",
                    "ticks": 29696,
                    "time": 49.846856,
                    "velocity": 0.4330708661417323
                },
                {
                    "duration": 0.10398322265624671,
                    "durationTicks": 63,
                    "midi": 73,
                    "name": "C#5",
                    "ticks": 29824,
                    "time": 50.05812350000001,
                    "velocity": 0.4015748031496063
                },
                {
                    "duration": 0.10398322265625382,
                    "durationTicks": 63,
                    "midi": 66,
                    "name": "F#4",
                    "ticks": 29952,
                    "time": 50.269391,
                    "velocity": 0.4330708661417323
                },
                {
                    "duration": 0.10398322265625382,
                    "durationTicks": 63,
                    "midi": 74,
                    "name": "D5",
                    "ticks": 29952,
                    "time": 50.269391,
                    "velocity": 0.4330708661417323
                },
                {
                    "duration": 0.10398322265625382,
                    "durationTicks": 63,
                    "midi": 76,
                    "name": "E5",
                    "ticks": 30080,
                    "time": 50.480658500000004,
                    "velocity": 0.3937007874015748
                },
                {
                    "duration": 0.10398322265624671,
                    "durationTicks": 63,
                    "midi": 78,
                    "name": "F#5",
                    "ticks": 30208,
                    "time": 50.691926,
                    "velocity": 0.6299212598425197
                },
                {
                    "duration": 0.10398322265625382,
                    "durationTicks": 63,
                    "midi": 74,
                    "name": "D5",
                    "ticks": 30336,
                    "time": 50.9031935,
                    "velocity": 0.33858267716535434
                },
                {
                    "duration": 0.20796644531249342,
                    "durationTicks": 126,
                    "midi": 66,
                    "name": "F#4",
                    "ticks": 30464,
                    "time": 51.114461000000006,
                    "velocity": 0.3937007874015748
                },
                {
                    "duration": 0.20796644531249342,
                    "durationTicks": 126,
                    "midi": 78,
                    "name": "F#5",
                    "ticks": 30464,
                    "time": 51.114461000000006,
                    "velocity": 0.4015748031496063
                },
                {
                    "duration": 0.10398322265625382,
                    "durationTicks": 63,
                    "midi": 77,
                    "name": "F5",
                    "ticks": 30720,
                    "time": 51.536996,
                    "velocity": 0.5826771653543307
                },
                {
                    "duration": 0.10398322265624671,
                    "durationTicks": 63,
                    "midi": 73,
                    "name": "C#5",
                    "ticks": 30848,
                    "time": 51.74826350000001,
                    "velocity": 0.33858267716535434
                },
                {
                    "duration": 0.20796644531250763,
                    "durationTicks": 126,
                    "midi": 66,
                    "name": "F#4",
                    "ticks": 30976,
                    "time": 51.959531,
                    "velocity": 0.4015748031496063
                },
                {
                    "duration": 0.20796644531250763,
                    "durationTicks": 126,
                    "midi": 77,
                    "name": "F5",
                    "ticks": 30976,
                    "time": 51.959531,
                    "velocity": 0.4015748031496063
                },
                {
                    "duration": 0.1039832226562396,
                    "durationTicks": 63,
                    "midi": 76,
                    "name": "E5",
                    "ticks": 31232,
                    "time": 52.38206600000001,
                    "velocity": 0.5669291338582677
                },
                {
                    "duration": 0.10398322265625382,
                    "durationTicks": 63,
                    "midi": 72,
                    "name": "C5",
                    "ticks": 31360,
                    "time": 52.5933335,
                    "velocity": 0.3228346456692913
                },
                {
                    "duration": 0.20796644531249342,
                    "durationTicks": 126,
                    "midi": 66,
                    "name": "F#4",
                    "ticks": 31488,
                    "time": 52.804601000000005,
                    "velocity": 0.4015748031496063
                },
                {
                    "duration": 0.20796644531249342,
                    "durationTicks": 126,
                    "midi": 76,
                    "name": "E5",
                    "ticks": 31488,
                    "time": 52.804601000000005,
                    "velocity": 0.4094488188976378
                },
                {
                    "duration": 0.10398322265625382,
                    "durationTicks": 63,
                    "midi": 71,
                    "name": "B4",
                    "ticks": 31744,
                    "time": 53.227136,
                    "velocity": 0.3700787401574803
                },
                {
                    "duration": 0.10398322265624671,
                    "durationTicks": 63,
                    "midi": 73,
                    "name": "C#5",
                    "ticks": 31872,
                    "time": 53.43840350000001,
                    "velocity": 0.3937007874015748
                },
                {
                    "duration": 0.10398322265624671,
                    "durationTicks": 63,
                    "midi": 66,
                    "name": "F#4",
                    "ticks": 32000,
                    "time": 53.649671000000005,
                    "velocity": 0.41732283464566927
                },
                {
                    "duration": 0.10398322265624671,
                    "durationTicks": 63,
                    "midi": 74,
                    "name": "D5",
                    "ticks": 32000,
                    "time": 53.649671000000005,
                    "velocity": 0.4094488188976378
                },
                {
                    "duration": 0.10398322265625382,
                    "durationTicks": 63,
                    "midi": 76,
                    "name": "E5",
                    "ticks": 32128,
                    "time": 53.8609385,
                    "velocity": 0.3937007874015748
                },
                {
                    "duration": 0.10398322265624671,
                    "durationTicks": 63,
                    "midi": 78,
                    "name": "F#5",
                    "ticks": 32256,
                    "time": 54.07220600000001,
                    "velocity": 0.4251968503937008
                },
                {
                    "duration": 0.10398322265625382,
                    "durationTicks": 63,
                    "midi": 74,
                    "name": "D5",
                    "ticks": 32384,
                    "time": 54.2834735,
                    "velocity": 0.33070866141732286
                },
                {
                    "duration": 0.10398322265625382,
                    "durationTicks": 63,
                    "midi": 78,
                    "name": "F#5",
                    "ticks": 32512,
                    "time": 54.494741000000005,
                    "velocity": 0.4409448818897638
                },
                {
                    "duration": 0.10398322265624671,
                    "durationTicks": 63,
                    "midi": 83,
                    "name": "B5",
                    "ticks": 32640,
                    "time": 54.7060085,
                    "velocity": 0.4409448818897638
                },
                {
                    "duration": 0.10398322265625382,
                    "durationTicks": 63,
                    "midi": 81,
                    "name": "A5",
                    "ticks": 32768,
                    "time": 54.917276,
                    "velocity": 0.3779527559055118
                },
                {
                    "duration": 0.10398322265624671,
                    "durationTicks": 63,
                    "midi": 78,
                    "name": "F#5",
                    "ticks": 32896,
                    "time": 55.128543500000006,
                    "velocity": 0.33070866141732286
                },
                {
                    "duration": 0.10398322265624671,
                    "durationTicks": 63,
                    "midi": 69,
                    "name": "A4",
                    "ticks": 33024,
                    "time": 55.339811000000005,
                    "velocity": 0.36220472440944884
                },
                {
                    "duration": 0.10398322265624671,
                    "durationTicks": 63,
                    "midi": 74,
                    "name": "D5",
                    "ticks": 33024,
                    "time": 55.339811000000005,
                    "velocity": 0.3700787401574803
                },
                {
                    "duration": 0.10398322265625382,
                    "durationTicks": 63,
                    "midi": 78,
                    "name": "F#5",
                    "ticks": 33152,
                    "time": 55.5510785,
                    "velocity": 0.4015748031496063
                },
                {
                    "duration": 0.7625436328124948,
                    "durationTicks": 462,
                    "midi": 81,
                    "name": "A5",
                    "ticks": 33280,
                    "time": 55.76234600000001,
                    "velocity": 0.4094488188976378
                },
                {
                    "duration": 0.10398322265625382,
                    "durationTicks": 63,
                    "midi": 66,
                    "name": "F#4",
                    "ticks": 33792,
                    "time": 56.607416,
                    "velocity": 0.2992125984251969
                },
                {
                    "duration": 0.10398322265624671,
                    "durationTicks": 63,
                    "midi": 68,
                    "name": "G#4",
                    "ticks": 33920,
                    "time": 56.818683500000006,
                    "velocity": 0.3858267716535433
                },
                {
                    "duration": 0.10398322265624671,
                    "durationTicks": 63,
                    "midi": 70,
                    "name": "A#4",
                    "ticks": 34048,
                    "time": 57.029951000000004,
                    "velocity": 0.4251968503937008
                },
                {
                    "duration": 0.3812718164062474,
                    "durationTicks": 231,
                    "midi": 66,
                    "name": "F#4",
                    "ticks": 34048,
                    "time": 57.029951000000004,
                    "velocity": 0.3543307086614173
                },
                {
                    "duration": 0.10398322265625382,
                    "durationTicks": 63,
                    "midi": 71,
                    "name": "B4",
                    "ticks": 34176,
                    "time": 57.2412185,
                    "velocity": 0.3858267716535433
                },
                {
                    "duration": 0.10398322265624671,
                    "durationTicks": 63,
                    "midi": 73,
                    "name": "C#5",
                    "ticks": 34304,
                    "time": 57.45248600000001,
                    "velocity": 0.6614173228346457
                },
                {
                    "duration": 0.10398322265624671,
                    "durationTicks": 63,
                    "midi": 70,
                    "name": "A#4",
                    "ticks": 34432,
                    "time": 57.663753500000006,
                    "velocity": 0.36220472440944884
                },
                {
                    "duration": 0.20796644531250053,
                    "durationTicks": 126,
                    "midi": 73,
                    "name": "C#5",
                    "ticks": 34560,
                    "time": 57.875021000000004,
                    "velocity": 0.4330708661417323
                },
                {
                    "duration": 0.3812718164062545,
                    "durationTicks": 231,
                    "midi": 66,
                    "name": "F#4",
                    "ticks": 34560,
                    "time": 57.875021000000004,
                    "velocity": 0.33070866141732286
                },
                {
                    "duration": 0.3812718164062545,
                    "durationTicks": 231,
                    "midi": 70,
                    "name": "A#4",
                    "ticks": 34560,
                    "time": 57.875021000000004,
                    "velocity": 0.3543307086614173
                },
                {
                    "duration": 0.10398322265625382,
                    "durationTicks": 63,
                    "midi": 74,
                    "name": "D5",
                    "ticks": 34816,
                    "time": 58.297556,
                    "velocity": 0.6456692913385826
                },
                {
                    "duration": 0.10398322265625382,
                    "durationTicks": 63,
                    "midi": 70,
                    "name": "A#4",
                    "ticks": 34944,
                    "time": 58.508823500000005,
                    "velocity": 0.3779527559055118
                },
                {
                    "duration": 0.20796644531250053,
                    "durationTicks": 126,
                    "midi": 74,
                    "name": "D5",
                    "ticks": 35072,
                    "time": 58.720091000000004,
                    "velocity": 0.4566929133858268
                },
                {
                    "duration": 0.3812718164062474,
                    "durationTicks": 231,
                    "midi": 66,
                    "name": "F#4",
                    "ticks": 35072,
                    "time": 58.720091000000004,
                    "velocity": 0.3464566929133858
                },
                {
                    "duration": 0.3812718164062474,
                    "durationTicks": 231,
                    "midi": 70,
                    "name": "A#4",
                    "ticks": 35072,
                    "time": 58.720091000000004,
                    "velocity": 0.3543307086614173
                },
                {
                    "duration": 0.10398322265624671,
                    "durationTicks": 63,
                    "midi": 73,
                    "name": "C#5",
                    "ticks": 35328,
                    "time": 59.14262600000001,
                    "velocity": 0.6299212598425197
                },
                {
                    "duration": 0.10398322265624671,
                    "durationTicks": 63,
                    "midi": 70,
                    "name": "A#4",
                    "ticks": 35456,
                    "time": 59.353893500000005,
                    "velocity": 0.4015748031496063
                },
                {
                    "duration": 0.20796644531250053,
                    "durationTicks": 126,
                    "midi": 73,
                    "name": "C#5",
                    "ticks": 35584,
                    "time": 59.565161,
                    "velocity": 0.4566929133858268
                },
                {
                    "duration": 0.3812718164062545,
                    "durationTicks": 231,
                    "midi": 66,
                    "name": "F#4",
                    "ticks": 35584,
                    "time": 59.565161,
                    "velocity": 0.3858267716535433
                },
                {
                    "duration": 0.3812718164062545,
                    "durationTicks": 231,
                    "midi": 70,
                    "name": "A#4",
                    "ticks": 35584,
                    "time": 59.565161,
                    "velocity": 0.3700787401574803
                },
                {
                    "duration": 0.10398322265625382,
                    "durationTicks": 63,
                    "midi": 66,
                    "name": "F#4",
                    "ticks": 35840,
                    "time": 59.987696,
                    "velocity": 0.3779527559055118
                },
                {
                    "duration": 0.10398322265625382,
                    "durationTicks": 63,
                    "midi": 68,
                    "name": "G#4",
                    "ticks": 35968,
                    "time": 60.198963500000005,
                    "velocity": 0.4330708661417323
                },
                {
                    "duration": 0.10398322265624671,
                    "durationTicks": 63,
                    "midi": 70,
                    "name": "A#4",
                    "ticks": 36096,
                    "time": 60.410231,
                    "velocity": 0.49606299212598426
                },
                {
                    "duration": 0.3812718164062474,
                    "durationTicks": 231,
                    "midi": 66,
                    "name": "F#4",
                    "ticks": 36096,
                    "time": 60.410231,
                    "velocity": 0.3858267716535433
                },
                {
                    "duration": 0.10398322265625382,
                    "durationTicks": 63,
                    "midi": 71,
                    "name": "B4",
                    "ticks": 36224,
                    "time": 60.6214985,
                    "velocity": 0.4566929133858268
                },
                {
                    "duration": 0.10398322265624671,
                    "durationTicks": 63,
                    "midi": 73,
                    "name": "C#5",
                    "ticks": 36352,
                    "time": 60.83276600000001,
                    "velocity": 0.7165354330708661
                },
                {
                    "duration": 0.10398322265624671,
                    "durationTicks": 63,
                    "midi": 70,
                    "name": "A#4",
                    "ticks": 36480,
                    "time": 61.044033500000005,
                    "velocity": 0.41732283464566927
                },
                {
                    "duration": 0.20796644531250053,
                    "durationTicks": 126,
                    "midi": 73,
                    "name": "C#5",
                    "ticks": 36608,
                    "time": 61.255301,
                    "velocity": 0.5039370078740157
                },
                {
                    "duration": 0.3812718164062545,
                    "durationTicks": 231,
                    "midi": 66,
                    "name": "F#4",
                    "ticks": 36608,
                    "time": 61.255301,
                    "velocity": 0.4015748031496063
                },
                {
                    "duration": 0.3812718164062545,
                    "durationTicks": 231,
                    "midi": 70,
                    "name": "A#4",
                    "ticks": 36608,
                    "time": 61.255301,
                    "velocity": 0.41732283464566927
                },
                {
                    "duration": 0.10398322265624671,
                    "durationTicks": 63,
                    "midi": 74,
                    "name": "D5",
                    "ticks": 36864,
                    "time": 61.677836000000006,
                    "velocity": 0.7007874015748031
                },
                {
                    "duration": 0.10398322265625382,
                    "durationTicks": 63,
                    "midi": 70,
                    "name": "A#4",
                    "ticks": 36992,
                    "time": 61.889103500000004,
                    "velocity": 0.4015748031496063
                },
                {
                    "duration": 0.20796644531250053,
                    "durationTicks": 126,
                    "midi": 74,
                    "name": "D5",
                    "ticks": 37120,
                    "time": 62.100371,
                    "velocity": 0.5039370078740157
                },
                {
                    "duration": 0.3812718164062545,
                    "durationTicks": 231,
                    "midi": 66,
                    "name": "F#4",
                    "ticks": 37120,
                    "time": 62.100371,
                    "velocity": 0.41732283464566927
                },
                {
                    "duration": 0.3812718164062545,
                    "durationTicks": 231,
                    "midi": 70,
                    "name": "A#4",
                    "ticks": 37120,
                    "time": 62.100371,
                    "velocity": 0.4094488188976378
                },
                {
                    "duration": 0.41428236328125223,
                    "durationTicks": 251,
                    "midi": 73,
                    "name": "C#5",
                    "ticks": 37376,
                    "time": 62.522906000000006,
                    "velocity": 0.6771653543307087
                },
                {
                    "duration": 0.3812718164062545,
                    "durationTicks": 231,
                    "midi": 66,
                    "name": "F#4",
                    "ticks": 37632,
                    "time": 62.945441,
                    "velocity": 0.41732283464566927
                },
                {
                    "duration": 0.3812718164062545,
                    "durationTicks": 231,
                    "midi": 70,
                    "name": "A#4",
                    "ticks": 37632,
                    "time": 62.945441,
                    "velocity": 0.4330708661417323
                },
                {
                    "duration": 0.10398322265624671,
                    "durationTicks": 63,
                    "midi": 78,
                    "name": "F#5",
                    "ticks": 37888,
                    "time": 63.367976000000006,
                    "velocity": 0.5748031496062992
                },
                {
                    "duration": 0.10398322265625382,
                    "durationTicks": 63,
                    "midi": 80,
                    "name": "G#5",
                    "ticks": 38016,
                    "time": 63.579243500000004,
                    "velocity": 0.5196850393700787
                },
                {
                    "duration": 0.10398322265625382,
                    "durationTicks": 63,
                    "midi": 82,
                    "name": "A#5",
                    "ticks": 38144,
                    "time": 63.790511,
                    "velocity": 0.5354330708661418
                },
                {
                    "duration": 0.20796644531250053,
                    "durationTicks": 126,
                    "midi": 78,
                    "name": "F#5",
                    "ticks": 38144,
                    "time": 63.790511,
                    "velocity": 0.4330708661417323
                },
                {
                    "duration": 0.10398322265625382,
                    "durationTicks": 63,
                    "midi": 83,
                    "name": "B5",
                    "ticks": 38272,
                    "time": 64.0017785,
                    "velocity": 0.5118110236220472
                },
                {
                    "duration": 0.10398322265625382,
                    "durationTicks": 63,
                    "midi": 85,
                    "name": "C#6",
                    "ticks": 38400,
                    "time": 64.213046,
                    "velocity": 0.7795275590551181
                },
                {
                    "duration": 0.1039832226562396,
                    "durationTicks": 63,
                    "midi": 82,
                    "name": "A#5",
                    "ticks": 38528,
                    "time": 64.42431350000001,
                    "velocity": 0.44881889763779526
                },
                {
                    "duration": 0.20796644531250763,
                    "durationTicks": 126,
                    "midi": 85,
                    "name": "C#6",
                    "ticks": 38656,
                    "time": 64.635581,
                    "velocity": 0.5511811023622047
                },
                {
                    "duration": 0.20796644531250763,
                    "durationTicks": 126,
                    "midi": 78,
                    "name": "F#5",
                    "ticks": 38656,
                    "time": 64.635581,
                    "velocity": 0.44881889763779526
                },
                {
                    "duration": 0.20796644531250763,
                    "durationTicks": 126,
                    "midi": 82,
                    "name": "A#5",
                    "ticks": 38656,
                    "time": 64.635581,
                    "velocity": 0.44881889763779526
                },
                {
                    "duration": 0.1039832226562396,
                    "durationTicks": 63,
                    "midi": 86,
                    "name": "D6",
                    "ticks": 38912,
                    "time": 65.05811600000001,
                    "velocity": 0.7716535433070866
                },
                {
                    "duration": 0.10398322265625382,
                    "durationTicks": 63,
                    "midi": 82,
                    "name": "A#5",
                    "ticks": 39040,
                    "time": 65.2693835,
                    "velocity": 0.4566929133858268
                },
                {
                    "duration": 0.20796644531250763,
                    "durationTicks": 126,
                    "midi": 86,
                    "name": "D6",
                    "ticks": 39168,
                    "time": 65.480651,
                    "velocity": 0.5669291338582677
                },
                {
                    "duration": 0.20796644531250763,
                    "durationTicks": 126,
                    "midi": 78,
                    "name": "F#5",
                    "ticks": 39168,
                    "time": 65.480651,
                    "velocity": 0.4645669291338583
                },
                {
                    "duration": 0.20796644531250763,
                    "durationTicks": 126,
                    "midi": 82,
                    "name": "A#5",
                    "ticks": 39168,
                    "time": 65.480651,
                    "velocity": 0.4645669291338583
                },
                {
                    "duration": 0.1039832226562396,
                    "durationTicks": 63,
                    "midi": 85,
                    "name": "C#6",
                    "ticks": 39424,
                    "time": 65.903186,
                    "velocity": 0.7322834645669292
                },
                {
                    "duration": 0.10398322265626803,
                    "durationTicks": 63,
                    "midi": 82,
                    "name": "A#5",
                    "ticks": 39552,
                    "time": 66.1144535,
                    "velocity": 0.49606299212598426
                },
                {
                    "duration": 0.2079664453124792,
                    "durationTicks": 126,
                    "midi": 85,
                    "name": "C#6",
                    "ticks": 39680,
                    "time": 66.32572100000002,
                    "velocity": 0.5590551181102362
                },
                {
                    "duration": 0.2079664453124792,
                    "durationTicks": 126,
                    "midi": 78,
                    "name": "F#5",
                    "ticks": 39680,
                    "time": 66.32572100000002,
                    "velocity": 0.4881889763779528
                },
                {
                    "duration": 0.2079664453124792,
                    "durationTicks": 126,
                    "midi": 82,
                    "name": "A#5",
                    "ticks": 39680,
                    "time": 66.32572100000002,
                    "velocity": 0.4881889763779528
                },
                {
                    "duration": 0.10398322265626803,
                    "durationTicks": 63,
                    "midi": 78,
                    "name": "F#5",
                    "ticks": 39936,
                    "time": 66.748256,
                    "velocity": 0.4645669291338583
                },
                {
                    "duration": 0.10398322265625382,
                    "durationTicks": 63,
                    "midi": 80,
                    "name": "G#5",
                    "ticks": 40064,
                    "time": 66.9595235,
                    "velocity": 0.5748031496062992
                },
                {
                    "duration": 0.1039832226562396,
                    "durationTicks": 63,
                    "midi": 82,
                    "name": "A#5",
                    "ticks": 40192,
                    "time": 67.17079100000001,
                    "velocity": 0.6062992125984252
                },
                {
                    "duration": 0.20796644531250763,
                    "durationTicks": 126,
                    "midi": 78,
                    "name": "F#5",
                    "ticks": 40192,
                    "time": 67.17079100000001,
                    "velocity": 0.4881889763779528
                },
                {
                    "duration": 0.10398322265625382,
                    "durationTicks": 63,
                    "midi": 83,
                    "name": "B5",
                    "ticks": 40320,
                    "time": 67.3820585,
                    "velocity": 0.5826771653543307
                },
                {
                    "duration": 0.10398322265625382,
                    "durationTicks": 63,
                    "midi": 85,
                    "name": "C#6",
                    "ticks": 40448,
                    "time": 67.593326,
                    "velocity": 0.8346456692913385
                },
                {
                    "duration": 0.1039832226562396,
                    "durationTicks": 63,
                    "midi": 82,
                    "name": "A#5",
                    "ticks": 40576,
                    "time": 67.80459350000001,
                    "velocity": 0.5275590551181102
                },
                {
                    "duration": 0.20796644531250763,
                    "durationTicks": 126,
                    "midi": 85,
                    "name": "C#6",
                    "ticks": 40704,
                    "time": 68.015861,
                    "velocity": 0.6220472440944882
                },
                {
                    "duration": 0.20796644531250763,
                    "durationTicks": 126,
                    "midi": 78,
                    "name": "F#5",
                    "ticks": 40704,
                    "time": 68.015861,
                    "velocity": 0.5118110236220472
                },
                {
                    "duration": 0.20796644531250763,
                    "durationTicks": 126,
                    "midi": 82,
                    "name": "A#5",
                    "ticks": 40704,
                    "time": 68.015861,
                    "velocity": 0.5196850393700787
                },
                {
                    "duration": 0.1039832226562396,
                    "durationTicks": 63,
                    "midi": 86,
                    "name": "D6",
                    "ticks": 40960,
                    "time": 68.43839600000001,
                    "velocity": 0.8267716535433071
                },
                {
                    "duration": 0.10398322265625382,
                    "durationTicks": 63,
                    "midi": 82,
                    "name": "A#5",
                    "ticks": 41088,
                    "time": 68.6496635,
                    "velocity": 0.5039370078740157
                },
                {
                    "duration": 0.20796644531249342,
                    "durationTicks": 126,
                    "midi": 86,
                    "name": "D6",
                    "ticks": 41216,
                    "time": 68.86093100000001,
                    "velocity": 0.6062992125984252
                },
                {
                    "duration": 0.20796644531249342,
                    "durationTicks": 126,
                    "midi": 78,
                    "name": "F#5",
                    "ticks": 41216,
                    "time": 68.86093100000001,
                    "velocity": 0.5196850393700787
                },
                {
                    "duration": 0.20796644531249342,
                    "durationTicks": 126,
                    "midi": 82,
                    "name": "A#5",
                    "ticks": 41216,
                    "time": 68.86093100000001,
                    "velocity": 0.5196850393700787
                },
                {
                    "duration": 0.4142823632812451,
                    "durationTicks": 251,
                    "midi": 85,
                    "name": "C#6",
                    "ticks": 41472,
                    "time": 69.283466,
                    "velocity": 0.7874015748031497
                },
                {
                    "duration": 0.3812718164062403,
                    "durationTicks": 231,
                    "midi": 78,
                    "name": "F#5",
                    "ticks": 41728,
                    "time": 69.70600100000001,
                    "velocity": 0.5275590551181102
                },
                {
                    "duration": 0.3812718164062403,
                    "durationTicks": 231,
                    "midi": 82,
                    "name": "A#5",
                    "ticks": 41728,
                    "time": 69.70600100000001,
                    "velocity": 0.5354330708661418
                },
                {
                    "duration": 0.10183187109375069,
                    "durationTicks": 63,
                    "midi": 59,
                    "name": "B3",
                    "ticks": 41984,
                    "time": 70.128536,
                    "velocity": 0.47244094488188976
                },
                {
                    "duration": 0.10183187109375069,
                    "durationTicks": 63,
                    "midi": 61,
                    "name": "C#4",
                    "ticks": 42112,
                    "time": 70.3354325,
                    "velocity": 0.6535433070866141
                },
                {
                    "duration": 0.10183187109375069,
                    "durationTicks": 63,
                    "midi": 54,
                    "name": "F#3",
                    "ticks": 42240,
                    "time": 70.542329,
                    "velocity": 0.6771653543307087
                },
                {
                    "duration": 0.10183187109375069,
                    "durationTicks": 63,
                    "midi": 62,
                    "name": "D4",
                    "ticks": 42240,
                    "time": 70.542329,
                    "velocity": 0.6614173228346457
                },
                {
                    "duration": 0.10183187109375069,
                    "durationTicks": 63,
                    "midi": 64,
                    "name": "E4",
                    "ticks": 42368,
                    "time": 70.7492255,
                    "velocity": 0.6614173228346457
                },
                {
                    "duration": 0.10183187109375069,
                    "durationTicks": 63,
                    "midi": 66,
                    "name": "F#4",
                    "ticks": 42496,
                    "time": 70.956122,
                    "velocity": 0.889763779527559
                },
                {
                    "duration": 0.10183187109375069,
                    "durationTicks": 63,
                    "midi": 62,
                    "name": "D4",
                    "ticks": 42624,
                    "time": 71.16301849999999,
                    "velocity": 0.5433070866141733
                },
                {
                    "duration": 0.20366374218750138,
                    "durationTicks": 126,
                    "midi": 54,
                    "name": "F#3",
                    "ticks": 42752,
                    "time": 71.36991499999999,
                    "velocity": 0.7007874015748031
                },
                {
                    "duration": 0.20366374218750138,
                    "durationTicks": 126,
                    "midi": 66,
                    "name": "F#4",
                    "ticks": 42752,
                    "time": 71.36991499999999,
                    "velocity": 0.6771653543307087
                },
                {
                    "duration": 0.10183187109375069,
                    "durationTicks": 63,
                    "midi": 65,
                    "name": "F4",
                    "ticks": 43008,
                    "time": 71.78370799999999,
                    "velocity": 0.8267716535433071
                },
                {
                    "duration": 0.10183187109375069,
                    "durationTicks": 63,
                    "midi": 61,
                    "name": "C#4",
                    "ticks": 43136,
                    "time": 71.9906045,
                    "velocity": 0.5669291338582677
                },
                {
                    "duration": 0.20366374218748717,
                    "durationTicks": 126,
                    "midi": 54,
                    "name": "F#3",
                    "ticks": 43264,
                    "time": 72.197501,
                    "velocity": 0.6771653543307087
                },
                {
                    "duration": 0.20366374218748717,
                    "durationTicks": 126,
                    "midi": 65,
                    "name": "F4",
                    "ticks": 43264,
                    "time": 72.197501,
                    "velocity": 0.6771653543307087
                },
                {
                    "duration": 0.10183187109375069,
                    "durationTicks": 63,
                    "midi": 64,
                    "name": "E4",
                    "ticks": 43520,
                    "time": 72.611294,
                    "velocity": 0.8267716535433071
                },
                {
                    "duration": 0.10183187109375069,
                    "durationTicks": 63,
                    "midi": 60,
                    "name": "C4",
                    "ticks": 43648,
                    "time": 72.8181905,
                    "velocity": 0.5669291338582677
                },
                {
                    "duration": 0.20366374218750138,
                    "durationTicks": 126,
                    "midi": 54,
                    "name": "F#3",
                    "ticks": 43776,
                    "time": 73.025087,
                    "velocity": 0.6850393700787402
                },
                {
                    "duration": 0.20366374218750138,
                    "durationTicks": 126,
                    "midi": 64,
                    "name": "E4",
                    "ticks": 43776,
                    "time": 73.025087,
                    "velocity": 0.6929133858267716
                },
                {
                    "duration": 0.10183187109375069,
                    "durationTicks": 63,
                    "midi": 59,
                    "name": "B3",
                    "ticks": 44032,
                    "time": 73.43888,
                    "velocity": 0.5669291338582677
                },
                {
                    "duration": 0.10183187109375069,
                    "durationTicks": 63,
                    "midi": 61,
                    "name": "C#4",
                    "ticks": 44160,
                    "time": 73.6457765,
                    "velocity": 0.6692913385826772
                },
                {
                    "duration": 0.10183187109375069,
                    "durationTicks": 63,
                    "midi": 54,
                    "name": "F#3",
                    "ticks": 44288,
                    "time": 73.852673,
                    "velocity": 0.6929133858267716
                },
                {
                    "duration": 0.10183187109375069,
                    "durationTicks": 63,
                    "midi": 62,
                    "name": "D4",
                    "ticks": 44288,
                    "time": 73.852673,
                    "velocity": 0.6850393700787402
                },
                {
                    "duration": 0.10183187109375069,
                    "durationTicks": 63,
                    "midi": 64,
                    "name": "E4",
                    "ticks": 44416,
                    "time": 74.0595695,
                    "velocity": 0.6614173228346457
                },
                {
                    "duration": 0.10183187109375069,
                    "durationTicks": 63,
                    "midi": 66,
                    "name": "F#4",
                    "ticks": 44544,
                    "time": 74.266466,
                    "velocity": 0.6850393700787402
                },
                {
                    "duration": 0.10183187109375069,
                    "durationTicks": 63,
                    "midi": 62,
                    "name": "D4",
                    "ticks": 44672,
                    "time": 74.4733625,
                    "velocity": 0.5669291338582677
                },
                {
                    "duration": 0.10183187109375069,
                    "durationTicks": 63,
                    "midi": 59,
                    "name": "B3",
                    "ticks": 44800,
                    "time": 74.68025899999999,
                    "velocity": 0.6929133858267716
                },
                {
                    "duration": 0.10183187109375069,
                    "durationTicks": 63,
                    "midi": 66,
                    "name": "F#4",
                    "ticks": 44800,
                    "time": 74.68025899999999,
                    "velocity": 0.6929133858267716
                },
                {
                    "duration": 0.10183187109375069,
                    "durationTicks": 63,
                    "midi": 71,
                    "name": "B4",
                    "ticks": 44928,
                    "time": 74.88715549999999,
                    "velocity": 0.7007874015748031
                },
                {
                    "duration": 0.10183187109375069,
                    "durationTicks": 63,
                    "midi": 69,
                    "name": "A4",
                    "ticks": 45056,
                    "time": 75.09405199999999,
                    "velocity": 0.6220472440944882
                },
                {
                    "duration": 0.10183187109373648,
                    "durationTicks": 63,
                    "midi": 66,
                    "name": "F#4",
                    "ticks": 45184,
                    "time": 75.3009485,
                    "velocity": 0.5826771653543307
                },
                {
                    "duration": 0.10183187109373648,
                    "durationTicks": 63,
                    "midi": 57,
                    "name": "A3",
                    "ticks": 45312,
                    "time": 75.507845,
                    "velocity": 0.5590551181102362
                },
                {
                    "duration": 0.10183187109373648,
                    "durationTicks": 63,
                    "midi": 62,
                    "name": "D4",
                    "ticks": 45312,
                    "time": 75.507845,
                    "velocity": 0.5748031496062992
                },
                {
                    "duration": 0.10183187109375069,
                    "durationTicks": 63,
                    "midi": 66,
                    "name": "F#4",
                    "ticks": 45440,
                    "time": 75.7147415,
                    "velocity": 0.6771653543307087
                },
                {
                    "duration": 0.7871765273437461,
                    "durationTicks": 487,
                    "midi": 69,
                    "name": "A4",
                    "ticks": 45568,
                    "time": 75.921638,
                    "velocity": 0.7086614173228346
                },
                {
                    "duration": 0.3733835273437478,
                    "durationTicks": 231,
                    "midi": 57,
                    "name": "A3",
                    "ticks": 45824,
                    "time": 76.335431,
                    "velocity": 0.6535433070866141
                },
                {
                    "duration": 0.3733835273437478,
                    "durationTicks": 231,
                    "midi": 62,
                    "name": "D4",
                    "ticks": 45824,
                    "time": 76.335431,
                    "velocity": 0.6299212598425197
                },
                {
                    "duration": 0.09976763671875233,
                    "durationTicks": 63,
                    "midi": 71,
                    "name": "B4",
                    "ticks": 46080,
                    "time": 76.749224,
                    "velocity": 0.7007874015748031
                },
                {
                    "duration": 0.09976763671875233,
                    "durationTicks": 63,
                    "midi": 73,
                    "name": "C#5",
                    "ticks": 46208,
                    "time": 76.9519265,
                    "velocity": 0.6614173228346457
                },
                {
                    "duration": 0.09976763671875233,
                    "durationTicks": 63,
                    "midi": 66,
                    "name": "F#4",
                    "ticks": 46336,
                    "time": 77.154629,
                    "velocity": 0.6850393700787402
                },
                {
                    "duration": 0.09976763671875233,
                    "durationTicks": 63,
                    "midi": 74,
                    "name": "D5",
                    "ticks": 46336,
                    "time": 77.154629,
                    "velocity": 0.7007874015748031
                },
                {
                    "duration": 0.09976763671875233,
                    "durationTicks": 63,
                    "midi": 76,
                    "name": "E5",
                    "ticks": 46464,
                    "time": 77.3573315,
                    "velocity": 0.6692913385826772
                },
                {
                    "duration": 0.09976763671875233,
                    "durationTicks": 63,
                    "midi": 78,
                    "name": "F#5",
                    "ticks": 46592,
                    "time": 77.560034,
                    "velocity": 0.905511811023622
                },
                {
                    "duration": 0.09976763671875233,
                    "durationTicks": 63,
                    "midi": 74,
                    "name": "D5",
                    "ticks": 46720,
                    "time": 77.7627365,
                    "velocity": 0.5590551181102362
                },
                {
                    "duration": 0.19953527343749045,
                    "durationTicks": 126,
                    "midi": 66,
                    "name": "F#4",
                    "ticks": 46848,
                    "time": 77.965439,
                    "velocity": 0.6850393700787402
                },
                {
                    "duration": 0.19953527343749045,
                    "durationTicks": 126,
                    "midi": 78,
                    "name": "F#5",
                    "ticks": 46848,
                    "time": 77.965439,
                    "velocity": 0.6850393700787402
                },
                {
                    "duration": 0.09976763671873812,
                    "durationTicks": 63,
                    "midi": 77,
                    "name": "F5",
                    "ticks": 47104,
                    "time": 78.370844,
                    "velocity": 0.8110236220472441
                },
                {
                    "duration": 0.09976763671875233,
                    "durationTicks": 63,
                    "midi": 73,
                    "name": "C#5",
                    "ticks": 47232,
                    "time": 78.57354649999999,
                    "velocity": 0.5669291338582677
                },
                {
                    "duration": 0.19953527343750466,
                    "durationTicks": 126,
                    "midi": 66,
                    "name": "F#4",
                    "ticks": 47360,
                    "time": 78.77624899999999,
                    "velocity": 0.6850393700787402
                },
                {
                    "duration": 0.19953527343750466,
                    "durationTicks": 126,
                    "midi": 77,
                    "name": "F5",
                    "ticks": 47360,
                    "time": 78.77624899999999,
                    "velocity": 0.6850393700787402
                },
                {
                    "duration": 0.09976763671875233,
                    "durationTicks": 63,
                    "midi": 76,
                    "name": "E5",
                    "ticks": 47616,
                    "time": 79.181654,
                    "velocity": 0.8346456692913385
                },
                {
                    "duration": 0.09976763671875233,
                    "durationTicks": 63,
                    "midi": 72,
                    "name": "C5",
                    "ticks": 47744,
                    "time": 79.3843565,
                    "velocity": 0.5590551181102362
                },
                {
                    "duration": 0.19953527343750466,
                    "durationTicks": 126,
                    "midi": 66,
                    "name": "F#4",
                    "ticks": 47872,
                    "time": 79.587059,
                    "velocity": 0.6929133858267716
                },
                {
                    "duration": 0.19953527343750466,
                    "durationTicks": 126,
                    "midi": 76,
                    "name": "E5",
                    "ticks": 47872,
                    "time": 79.587059,
                    "velocity": 0.6850393700787402
                },
                {
                    "duration": 0.09843750000000284,
                    "durationTicks": 63,
                    "midi": 71,
                    "name": "B4",
                    "ticks": 48128,
                    "time": 79.992464,
                    "velocity": 0.5826771653543307
                },
                {
                    "duration": 0.0962994374999937,
                    "durationTicks": 63,
                    "midi": 73,
                    "name": "C#5",
                    "ticks": 48256,
                    "time": 80.192464,
                    "velocity": 0.6614173228346457
                },
                {
                    "duration": 0.09425267578124874,
                    "durationTicks": 63,
                    "midi": 66,
                    "name": "F#4",
                    "ticks": 48384,
                    "time": 80.38812,
                    "velocity": 0.7086614173228346
                },
                {
                    "duration": 0.09425267578124874,
                    "durationTicks": 63,
                    "midi": 74,
                    "name": "D5",
                    "ticks": 48384,
                    "time": 80.38812,
                    "velocity": 0.7244094488188977
                },
                {
                    "duration": 0.0922908164062477,
                    "durationTicks": 63,
                    "midi": 76,
                    "name": "E5",
                    "ticks": 48512,
                    "time": 80.5796175,
                    "velocity": 0.7086614173228346
                },
                {
                    "duration": 0.09040893750000123,
                    "durationTicks": 63,
                    "midi": 78,
                    "name": "F#5",
                    "ticks": 48640,
                    "time": 80.767129,
                    "velocity": 0.7637795275590551
                },
                {
                    "duration": 0.08860260937500186,
                    "durationTicks": 63,
                    "midi": 74,
                    "name": "D5",
                    "ticks": 48768,
                    "time": 80.950817,
                    "velocity": 0.6220472440944882
                },
                {
                    "duration": 0.08686666406249799,
                    "durationTicks": 63,
                    "midi": 78,
                    "name": "F#5",
                    "ticks": 48896,
                    "time": 81.130835,
                    "velocity": 0.7874015748031497
                },
                {
                    "duration": 0.08519765625000275,
                    "durationTicks": 63,
                    "midi": 83,
                    "name": "B5",
                    "ticks": 49024,
                    "time": 81.307326,
                    "velocity": 0.8110236220472441
                },
                {
                    "duration": 0.08359140234375673,
                    "durationTicks": 63,
                    "midi": 78,
                    "name": "F#5",
                    "ticks": 49152,
                    "time": 81.48042600000001,
                    "velocity": 0.6929133858267716
                },
                {
                    "duration": 0.08204470312500689,
                    "durationTicks": 63,
                    "midi": 74,
                    "name": "D5",
                    "ticks": 49280,
                    "time": 81.65026250000001,
                    "velocity": 0.6614173228346457
                },
                {
                    "duration": 0.24278292578125615,
                    "durationTicks": 191,
                    "midi": 71,
                    "name": "B4",
                    "ticks": 49408,
                    "time": 81.81695650000002,
                    "velocity": 0.8503937007874016
                },
                {
                    "duration": 0.24278292578125615,
                    "durationTicks": 191,
                    "midi": 74,
                    "name": "D5",
                    "ticks": 49408,
                    "time": 81.81695650000002,
                    "velocity": 0.8582677165354331
                },
                {
                    "duration": 0.08055435937500022,
                    "durationTicks": 63,
                    "midi": 78,
                    "name": "F#5",
                    "ticks": 49408,
                    "time": 81.81695650000002,
                    "velocity": 0.8740157480314961
                },
                {
                    "duration": 0.07911692578124985,
                    "durationTicks": 63,
                    "midi": 83,
                    "name": "B5",
                    "ticks": 49536,
                    "time": 81.98062250000002,
                    "velocity": 0.8818897637795275
                },
                {
                    "duration": 0.5699004609375038,
                    "durationTicks": 462,
                    "midi": 71,
                    "name": "B4",
                    "ticks": 49664,
                    "time": 82.14136800000003,
                    "velocity": 0.7559055118110236
                },
                {
                    "duration": 0.07771369921874793,
                    "durationTicks": 63,
                    "midi": 83,
                    "name": "B5",
                    "ticks": 50176,
                    "time": 82.77294600000003,
                    "velocity": 1
                },
                {
                    "duration": 0.5699004609375038,
                    "durationTicks": 462,
                    "midi": 83,
                    "name": "B5",
                    "ticks": 50176,
                    "time": 82.77294600000003,
                    "velocity": 1
                },
                {
                    "duration": 0.07771369921874793,
                    "durationTicks": 63,
                    "midi": 85,
                    "name": "C#6",
                    "ticks": 50304,
                    "time": 82.93084050000003,
                    "velocity": 0.968503937007874
                },
                {
                    "duration": 0.07771369921874793,
                    "durationTicks": 63,
                    "midi": 86,
                    "name": "D6",
                    "ticks": 50432,
                    "time": 83.08873500000003,
                    "velocity": 0.952755905511811
                },
                {
                    "duration": 0.07771369921876214,
                    "durationTicks": 63,
                    "midi": 88,
                    "name": "E6",
                    "ticks": 50560,
                    "time": 83.24662950000003,
                    "velocity": 0.9291338582677166
                },
                {
                    "duration": 0.07771369921874793,
                    "durationTicks": 63,
                    "midi": 90,
                    "name": "F#6",
                    "ticks": 50688,
                    "time": 83.40452400000004,
                    "velocity": 1
                },
                {
                    "duration": 0.5699004609374896,
                    "durationTicks": 462,
                    "midi": 83,
                    "name": "B5",
                    "ticks": 50688,
                    "time": 83.40452400000004,
                    "velocity": 1
                },
                {
                    "duration": 0.07771369921874793,
                    "durationTicks": 63,
                    "midi": 86,
                    "name": "D6",
                    "ticks": 50816,
                    "time": 83.56241850000004,
                    "velocity": 0.7637795275590551
                },
                {
                    "duration": 0.15542739843749587,
                    "durationTicks": 126,
                    "midi": 90,
                    "name": "F#6",
                    "ticks": 50944,
                    "time": 83.72031300000003,
                    "velocity": 0.9606299212598425
                },
                {
                    "duration": 0.07771369921874793,
                    "durationTicks": 63,
                    "midi": 89,
                    "name": "F6",
                    "ticks": 51200,
                    "time": 84.03610200000003,
                    "velocity": 0.984251968503937
                },
                {
                    "duration": 0.5699004609375038,
                    "durationTicks": 462,
                    "midi": 83,
                    "name": "B5",
                    "ticks": 51200,
                    "time": 84.03610200000003,
                    "velocity": 0.889763779527559
                },
                {
                    "duration": 0.07771369921876214,
                    "durationTicks": 63,
                    "midi": 85,
                    "name": "C#6",
                    "ticks": 51328,
                    "time": 84.19399650000003,
                    "velocity": 0.7795275590551181
                },
                {
                    "duration": 0.15542739843749587,
                    "durationTicks": 126,
                    "midi": 89,
                    "name": "F6",
                    "ticks": 51456,
                    "time": 84.35189100000004,
                    "velocity": 0.968503937007874
                },
                {
                    "duration": 0.07771369921874793,
                    "durationTicks": 63,
                    "midi": 88,
                    "name": "E6",
                    "ticks": 51712,
                    "time": 84.66768000000003,
                    "velocity": 0.968503937007874
                },
                {
                    "duration": 0.5699004609375038,
                    "durationTicks": 462,
                    "midi": 83,
                    "name": "B5",
                    "ticks": 51712,
                    "time": 84.66768000000003,
                    "velocity": 0.8740157480314961
                },
                {
                    "duration": 0.07771369921874793,
                    "durationTicks": 63,
                    "midi": 84,
                    "name": "C6",
                    "ticks": 51840,
                    "time": 84.82557450000003,
                    "velocity": 0.7637795275590551
                },
                {
                    "duration": 0.15542739843751008,
                    "durationTicks": 126,
                    "midi": 88,
                    "name": "E6",
                    "ticks": 51968,
                    "time": 84.98346900000003,
                    "velocity": 0.968503937007874
                },
                {
                    "duration": 0.07771369921874793,
                    "durationTicks": 63,
                    "midi": 83,
                    "name": "B5",
                    "ticks": 52224,
                    "time": 85.29925800000004,
                    "velocity": 0.7716535433070866
                },
                {
                    "duration": 0.5699004609374896,
                    "durationTicks": 462,
                    "midi": 83,
                    "name": "B5",
                    "ticks": 52224,
                    "time": 85.29925800000004,
                    "velocity": 0.889763779527559
                },
                {
                    "duration": 0.07771369921874793,
                    "durationTicks": 63,
                    "midi": 85,
                    "name": "C#6",
                    "ticks": 52352,
                    "time": 85.45715250000003,
                    "velocity": 0.9133858267716536
                },
                {
                    "duration": 0.07771369921874793,
                    "durationTicks": 63,
                    "midi": 86,
                    "name": "D6",
                    "ticks": 52480,
                    "time": 85.61504700000003,
                    "velocity": 0.937007874015748
                },
                {
                    "duration": 0.07771369921874793,
                    "durationTicks": 63,
                    "midi": 88,
                    "name": "E6",
                    "ticks": 52608,
                    "time": 85.77294150000003,
                    "velocity": 0.9448818897637795
                },
                {
                    "duration": 0.07771369921874793,
                    "durationTicks": 63,
                    "midi": 90,
                    "name": "F#6",
                    "ticks": 52736,
                    "time": 85.93083600000003,
                    "velocity": 0.9606299212598425
                },
                {
                    "duration": 0.5699004609375038,
                    "durationTicks": 462,
                    "midi": 83,
                    "name": "B5",
                    "ticks": 52736,
                    "time": 85.93083600000003,
                    "velocity": 0.8818897637795275
                },
                {
                    "duration": 0.07771369921876214,
                    "durationTicks": 63,
                    "midi": 86,
                    "name": "D6",
                    "ticks": 52864,
                    "time": 86.08873050000003,
                    "velocity": 0.7716535433070866
                },
                {
                    "duration": 0.07771369921874793,
                    "durationTicks": 63,
                    "midi": 90,
                    "name": "F#6",
                    "ticks": 52992,
                    "time": 86.24662500000004,
                    "velocity": 0.984251968503937
                },
                {
                    "duration": 0.07771369921874793,
                    "durationTicks": 63,
                    "midi": 95,
                    "name": "B6",
                    "ticks": 53120,
                    "time": 86.40451950000003,
                    "velocity": 1
                },
                {
                    "duration": 0.07771369921874793,
                    "durationTicks": 63,
                    "midi": 93,
                    "name": "A6",
                    "ticks": 53248,
                    "time": 86.56241400000003,
                    "velocity": 0.8503937007874016
                },
                {
                    "duration": 0.5699004609375038,
                    "durationTicks": 462,
                    "midi": 81,
                    "name": "A5",
                    "ticks": 53248,
                    "time": 86.56241400000003,
                    "velocity": 0.9763779527559056
                },
                {
                    "duration": 0.39350269921874315,
                    "durationTicks": 319,
                    "midi": 86,
                    "name": "D6",
                    "ticks": 53248,
                    "time": 86.56241400000003,
                    "velocity": 0.968503937007874
                },
                {
                    "duration": 0.07771369921874793,
                    "durationTicks": 63,
                    "midi": 90,
                    "name": "F#6",
                    "ticks": 53376,
                    "time": 86.72030850000003,
                    "velocity": 0.7795275590551181
                },
                {
                    "duration": 0.2541114609375086,
                    "durationTicks": 206,
                    "midi": 86,
                    "name": "D6",
                    "ticks": 53504,
                    "time": 86.87820300000003,
                    "velocity": 0.7716535433070866
                },
                {
                    "duration": 0.07771369921874793,
                    "durationTicks": 63,
                    "midi": 90,
                    "name": "F#6",
                    "ticks": 53632,
                    "time": 87.03609750000004,
                    "velocity": 0.9606299212598425
                },
                {
                    "duration": 0.5699004609374896,
                    "durationTicks": 462,
                    "midi": 93,
                    "name": "A6",
                    "ticks": 53760,
                    "time": 87.19399200000004,
                    "velocity": 0.984251968503937
                },
                {
                    "duration": 0.5699004609374896,
                    "durationTicks": 462,
                    "midi": 81,
                    "name": "A5",
                    "ticks": 53760,
                    "time": 87.19399200000004,
                    "velocity": 0.9921259842519685
                },
                {
                    "duration": 0.5699004609374896,
                    "durationTicks": 462,
                    "midi": 86,
                    "name": "D6",
                    "ticks": 53760,
                    "time": 87.19399200000004,
                    "velocity": 0.984251968503937
                },
                {
                    "duration": 0.07771369921874793,
                    "durationTicks": 63,
                    "midi": 83,
                    "name": "B5",
                    "ticks": 54272,
                    "time": 87.82557000000003,
                    "velocity": 0.7086614173228346
                },
                {
                    "duration": 0.5699004609375038,
                    "durationTicks": 462,
                    "midi": 83,
                    "name": "B5",
                    "ticks": 54272,
                    "time": 87.82557000000003,
                    "velocity": 0.8110236220472441
                },
                {
                    "duration": 0.07771369921876214,
                    "durationTicks": 63,
                    "midi": 85,
                    "name": "C#6",
                    "ticks": 54400,
                    "time": 87.98346450000003,
                    "velocity": 0.8740157480314961
                },
                {
                    "duration": 0.07771369921874793,
                    "durationTicks": 63,
                    "midi": 86,
                    "name": "D6",
                    "ticks": 54528,
                    "time": 88.14135900000004,
                    "velocity": 0.9291338582677166
                },
                {
                    "duration": 0.07771369921874793,
                    "durationTicks": 63,
                    "midi": 88,
                    "name": "E6",
                    "ticks": 54656,
                    "time": 88.29925350000003,
                    "velocity": 0.9291338582677166
                },
                {
                    "duration": 0.07771369921874793,
                    "durationTicks": 63,
                    "midi": 90,
                    "name": "F#6",
                    "ticks": 54784,
                    "time": 88.45714800000003,
                    "velocity": 1
                },
                {
                    "duration": 0.5699004609375038,
                    "durationTicks": 462,
                    "midi": 83,
                    "name": "B5",
                    "ticks": 54784,
                    "time": 88.45714800000003,
                    "velocity": 0.8740157480314961
                },
                {
                    "duration": 0.07771369921874793,
                    "durationTicks": 63,
                    "midi": 86,
                    "name": "D6",
                    "ticks": 54912,
                    "time": 88.61504250000003,
                    "velocity": 0.7637795275590551
                },
                {
                    "duration": 0.15542739843751008,
                    "durationTicks": 126,
                    "midi": 90,
                    "name": "F#6",
                    "ticks": 55040,
                    "time": 88.77293700000003,
                    "velocity": 0.937007874015748
                },
                {
                    "duration": 0.07771369921874793,
                    "durationTicks": 63,
                    "midi": 89,
                    "name": "F6",
                    "ticks": 55296,
                    "time": 89.08872600000004,
                    "velocity": 0.9763779527559056
                },
                {
                    "duration": 0.5699004609374896,
                    "durationTicks": 462,
                    "midi": 83,
                    "name": "B5",
                    "ticks": 55296,
                    "time": 89.08872600000004,
                    "velocity": 0.8976377952755905
                },
                {
                    "duration": 0.07771369921874793,
                    "durationTicks": 63,
                    "midi": 85,
                    "name": "C#6",
                    "ticks": 55424,
                    "time": 89.24662050000003,
                    "velocity": 0.7795275590551181
                },
                {
                    "duration": 0.15542739843749587,
                    "durationTicks": 126,
                    "midi": 89,
                    "name": "F6",
                    "ticks": 55552,
                    "time": 89.40451500000003,
                    "velocity": 0.937007874015748
                },
                {
                    "duration": 0.07771369921874793,
                    "durationTicks": 63,
                    "midi": 88,
                    "name": "E6",
                    "ticks": 55808,
                    "time": 89.72030400000003,
                    "velocity": 0.984251968503937
                },
                {
                    "duration": 0.5699004609375038,
                    "durationTicks": 462,
                    "midi": 83,
                    "name": "B5",
                    "ticks": 55808,
                    "time": 89.72030400000003,
                    "velocity": 0.8818897637795275
                },
                {
                    "duration": 0.07771369921876214,
                    "durationTicks": 63,
                    "midi": 84,
                    "name": "C6",
                    "ticks": 55936,
                    "time": 89.87819850000002,
                    "velocity": 0.7716535433070866
                },
                {
                    "duration": 0.15542739843749587,
                    "durationTicks": 126,
                    "midi": 88,
                    "name": "E6",
                    "ticks": 56064,
                    "time": 90.03609300000004,
                    "velocity": 0.9448818897637795
                },
                {
                    "duration": 0.07771369921874793,
                    "durationTicks": 63,
                    "midi": 83,
                    "name": "B5",
                    "ticks": 56320,
                    "time": 90.35188200000003,
                    "velocity": 0.7795275590551181
                },
                {
                    "duration": 0.5699004609375038,
                    "durationTicks": 462,
                    "midi": 83,
                    "name": "B5",
                    "ticks": 56320,
                    "time": 90.35188200000003,
                    "velocity": 0.8976377952755905
                },
                {
                    "duration": 0.07771369921874793,
                    "durationTicks": 63,
                    "midi": 85,
                    "name": "C#6",
                    "ticks": 56448,
                    "time": 90.50977650000003,
                    "velocity": 0.9291338582677166
                },
                {
                    "duration": 0.07771369921876214,
                    "durationTicks": 63,
                    "midi": 86,
                    "name": "D6",
                    "ticks": 56576,
                    "time": 90.66767100000003,
                    "velocity": 0.9291338582677166
                },
                {
                    "duration": 0.07771369921874793,
                    "durationTicks": 63,
                    "midi": 88,
                    "name": "E6",
                    "ticks": 56704,
                    "time": 90.82556550000004,
                    "velocity": 0.9291338582677166
                },
                {
                    "duration": 0.07771369921874793,
                    "durationTicks": 63,
                    "midi": 90,
                    "name": "F#6",
                    "ticks": 56832,
                    "time": 90.98346000000004,
                    "velocity": 0.968503937007874
                },
                {
                    "duration": 0.5699004609374896,
                    "durationTicks": 462,
                    "midi": 83,
                    "name": "B5",
                    "ticks": 56832,
                    "time": 90.98346000000004,
                    "velocity": 0.8740157480314961
                },
                {
                    "duration": 0.07771369921874793,
                    "durationTicks": 63,
                    "midi": 86,
                    "name": "D6",
                    "ticks": 56960,
                    "time": 91.14135450000003,
                    "velocity": 0.7952755905511811
                },
                {
                    "duration": 0.07771369921874793,
                    "durationTicks": 63,
                    "midi": 90,
                    "name": "F#6",
                    "ticks": 57088,
                    "time": 91.29924900000003,
                    "velocity": 0.9606299212598425
                },
                {
                    "duration": 0.07771369921874793,
                    "durationTicks": 63,
                    "midi": 95,
                    "name": "B6",
                    "ticks": 57216,
                    "time": 91.45714350000003,
                    "velocity": 1
                },
                {
                    "duration": 0.07771369921874793,
                    "durationTicks": 63,
                    "midi": 93,
                    "name": "A6",
                    "ticks": 57344,
                    "time": 91.61503800000003,
                    "velocity": 0.8740157480314961
                },
                {
                    "duration": 0.39350269921875736,
                    "durationTicks": 319,
                    "midi": 81,
                    "name": "A5",
                    "ticks": 57344,
                    "time": 91.61503800000003,
                    "velocity": 0.9763779527559056
                },
                {
                    "duration": 0.39350269921875736,
                    "durationTicks": 319,
                    "midi": 86,
                    "name": "D6",
                    "ticks": 57344,
                    "time": 91.61503800000003,
                    "velocity": 0.9763779527559056
                },
                {
                    "duration": 0.07771369921876214,
                    "durationTicks": 63,
                    "midi": 90,
                    "name": "F#6",
                    "ticks": 57472,
                    "time": 91.77293250000002,
                    "velocity": 0.8031496062992126
                },
                {
                    "duration": 0.25411146093749437,
                    "durationTicks": 206,
                    "midi": 81,
                    "name": "A5",
                    "ticks": 57600,
                    "time": 91.93082700000004,
                    "velocity": 0.7795275590551181
                },
                {
                    "duration": 0.25411146093749437,
                    "durationTicks": 206,
                    "midi": 86,
                    "name": "D6",
                    "ticks": 57600,
                    "time": 91.93082700000004,
                    "velocity": 0.7874015748031497
                },
                {
                    "duration": 0.07771369921874793,
                    "durationTicks": 63,
                    "midi": 90,
                    "name": "F#6",
                    "ticks": 57728,
                    "time": 92.08872150000003,
                    "velocity": 0.937007874015748
                },
                {
                    "duration": 0.5699004609375038,
                    "durationTicks": 462,
                    "midi": 93,
                    "name": "A6",
                    "ticks": 57856,
                    "time": 92.24661600000003,
                    "velocity": 0.9606299212598425
                },
                {
                    "duration": 0.5699004609375038,
                    "durationTicks": 462,
                    "midi": 81,
                    "name": "A5",
                    "ticks": 57856,
                    "time": 92.24661600000003,
                    "velocity": 0.889763779527559
                },
                {
                    "duration": 0.5699004609375038,
                    "durationTicks": 462,
                    "midi": 86,
                    "name": "D6",
                    "ticks": 57856,
                    "time": 92.24661600000003,
                    "velocity": 0.8818897637795275
                },
                {
                    "duration": 0.07771369921874793,
                    "durationTicks": 63,
                    "midi": 90,
                    "name": "F#6",
                    "ticks": 58368,
                    "time": 92.87819400000004,
                    "velocity": 0.6771653543307087
                },
                {
                    "duration": 0.5699004609374896,
                    "durationTicks": 462,
                    "midi": 90,
                    "name": "F#6",
                    "ticks": 58368,
                    "time": 92.87819400000004,
                    "velocity": 0.7401574803149606
                },
                {
                    "duration": 0.07771369921874793,
                    "durationTicks": 63,
                    "midi": 92,
                    "name": "G#6",
                    "ticks": 58496,
                    "time": 93.03608850000003,
                    "velocity": 0.8740157480314961
                },
                {
                    "duration": 0.07771369921874793,
                    "durationTicks": 63,
                    "midi": 94,
                    "name": "A#6",
                    "ticks": 58624,
                    "time": 93.19398300000003,
                    "velocity": 0.937007874015748
                },
                {
                    "duration": 0.07771369921874793,
                    "durationTicks": 63,
                    "midi": 95,
                    "name": "B6",
                    "ticks": 58752,
                    "time": 93.35187750000003,
                    "velocity": 0.9212598425196851
                },
                {
                    "duration": 0.07771369921874793,
                    "durationTicks": 63,
                    "midi": 97,
                    "name": "C#7",
                    "ticks": 58880,
                    "time": 93.50977200000003,
                    "velocity": 1
                },
                {
                    "duration": 0.2849502304687519,
                    "durationTicks": 231,
                    "midi": 85,
                    "name": "C#6",
                    "ticks": 58880,
                    "time": 93.50977200000003,
                    "velocity": 0.8503937007874016
                },
                {
                    "duration": 0.2849502304687519,
                    "durationTicks": 231,
                    "midi": 90,
                    "name": "F#6",
                    "ticks": 58880,
                    "time": 93.50977200000003,
                    "velocity": 0.8503937007874016
                },
                {
                    "duration": 0.07771369921876214,
                    "durationTicks": 63,
                    "midi": 94,
                    "name": "A#6",
                    "ticks": 59008,
                    "time": 93.66766650000002,
                    "velocity": 0.7874015748031497
                },
                {
                    "duration": 0.15542739843749587,
                    "durationTicks": 126,
                    "midi": 97,
                    "name": "C#7",
                    "ticks": 59136,
                    "time": 93.82556100000004,
                    "velocity": 0.9212598425196851
                },
                {
                    "duration": 0.2849502304687377,
                    "durationTicks": 231,
                    "midi": 85,
                    "name": "C#6",
                    "ticks": 59136,
                    "time": 93.82556100000004,
                    "velocity": 0.8740157480314961
                },
                {
                    "duration": 0.2849502304687377,
                    "durationTicks": 231,
                    "midi": 90,
                    "name": "F#6",
                    "ticks": 59136,
                    "time": 93.82556100000004,
                    "velocity": 0.8740157480314961
                },
                {
                    "duration": 0.07771369921874793,
                    "durationTicks": 63,
                    "midi": 98,
                    "name": "D7",
                    "ticks": 59392,
                    "time": 94.14135000000003,
                    "velocity": 1
                },
                {
                    "duration": 0.15542739843749587,
                    "durationTicks": 126,
                    "midi": 86,
                    "name": "D6",
                    "ticks": 59392,
                    "time": 94.14135000000003,
                    "velocity": 0.905511811023622
                },
                {
                    "duration": 0.15542739843749587,
                    "durationTicks": 126,
                    "midi": 90,
                    "name": "F#6",
                    "ticks": 59392,
                    "time": 94.14135000000003,
                    "velocity": 0.9133858267716536
                },
                {
                    "duration": 0.07771369921874793,
                    "durationTicks": 63,
                    "midi": 94,
                    "name": "A#6",
                    "ticks": 59520,
                    "time": 94.29924450000003,
                    "velocity": 0.7795275590551181
                },
                {
                    "duration": 0.15542739843751008,
                    "durationTicks": 126,
                    "midi": 98,
                    "name": "D7",
                    "ticks": 59648,
                    "time": 94.45713900000003,
                    "velocity": 0.9606299212598425
                },
                {
                    "duration": 0.15542739843751008,
                    "durationTicks": 126,
                    "midi": 90,
                    "name": "F#6",
                    "ticks": 59648,
                    "time": 94.45713900000003,
                    "velocity": 0.9606299212598425
                },
                {
                    "duration": 0.15542739843751008,
                    "durationTicks": 126,
                    "midi": 94,
                    "name": "A#6",
                    "ticks": 59648,
                    "time": 94.45713900000003,
                    "velocity": 0.9606299212598425
                },
                {
                    "duration": 0.07771369921874793,
                    "durationTicks": 63,
                    "midi": 97,
                    "name": "C#7",
                    "ticks": 59904,
                    "time": 94.77292800000004,
                    "velocity": 0.9921259842519685
                },
                {
                    "duration": 0.15542739843749587,
                    "durationTicks": 126,
                    "midi": 85,
                    "name": "C#6",
                    "ticks": 59904,
                    "time": 94.77292800000004,
                    "velocity": 0.7952755905511811
                },
                {
                    "duration": 0.15542739843749587,
                    "durationTicks": 126,
                    "midi": 90,
                    "name": "F#6",
                    "ticks": 59904,
                    "time": 94.77292800000004,
                    "velocity": 0.7716535433070866
                },
                {
                    "duration": 0.07771369921874793,
                    "durationTicks": 63,
                    "midi": 94,
                    "name": "A#6",
                    "ticks": 60032,
                    "time": 94.93082250000003,
                    "velocity": 0.7795275590551181
                },
                {
                    "duration": 0.15542739843749587,
                    "durationTicks": 126,
                    "midi": 97,
                    "name": "C#7",
                    "ticks": 60160,
                    "time": 95.08871700000003,
                    "velocity": 0.9291338582677166
                },
                {
                    "duration": 0.2849502304687519,
                    "durationTicks": 231,
                    "midi": 85,
                    "name": "C#6",
                    "ticks": 60160,
                    "time": 95.08871700000003,
                    "velocity": 0.8503937007874016
                },
                {
                    "duration": 0.2849502304687519,
                    "durationTicks": 231,
                    "midi": 90,
                    "name": "F#6",
                    "ticks": 60160,
                    "time": 95.08871700000003,
                    "velocity": 0.8740157480314961
                },
                {
                    "duration": 0.07771369921874793,
                    "durationTicks": 63,
                    "midi": 90,
                    "name": "F#6",
                    "ticks": 60416,
                    "time": 95.40450600000003,
                    "velocity": 0.7559055118110236
                },
                {
                    "duration": 0.14309189062500138,
                    "durationTicks": 116,
                    "midi": 90,
                    "name": "F#6",
                    "ticks": 60416,
                    "time": 95.40450600000003,
                    "velocity": 0.8976377952755905
                },
                {
                    "duration": 0.07771369921876214,
                    "durationTicks": 63,
                    "midi": 92,
                    "name": "G#6",
                    "ticks": 60544,
                    "time": 95.56240050000002,
                    "velocity": 0.889763779527559
                },
                {
                    "duration": 0.07771369921876214,
                    "durationTicks": 63,
                    "midi": 90,
                    "name": "F#6",
                    "ticks": 60544,
                    "time": 95.56240050000002,
                    "velocity": 0.889763779527559
                },
                {
                    "duration": 0.07771369921874793,
                    "durationTicks": 63,
                    "midi": 94,
                    "name": "A#6",
                    "ticks": 60672,
                    "time": 95.72029500000004,
                    "velocity": 0.937007874015748
                },
                {
                    "duration": 0.07771369921874793,
                    "durationTicks": 63,
                    "midi": 90,
                    "name": "F#6",
                    "ticks": 60672,
                    "time": 95.72029500000004,
                    "velocity": 0.889763779527559
                },
                {
                    "duration": 0.07771369921874793,
                    "durationTicks": 63,
                    "midi": 95,
                    "name": "B6",
                    "ticks": 60800,
                    "time": 95.87818950000003,
                    "velocity": 0.9133858267716536
                },
                {
                    "duration": 0.07771369921874793,
                    "durationTicks": 63,
                    "midi": 90,
                    "name": "F#6",
                    "ticks": 60800,
                    "time": 95.87818950000003,
                    "velocity": 0.8661417322834646
                },
                {
                    "duration": 0.07771369921874793,
                    "durationTicks": 63,
                    "midi": 97,
                    "name": "C#7",
                    "ticks": 60928,
                    "time": 96.03608400000003,
                    "velocity": 1
                },
                {
                    "duration": 0.07771369921874793,
                    "durationTicks": 63,
                    "midi": 85,
                    "name": "C#6",
                    "ticks": 60928,
                    "time": 96.03608400000003,
                    "velocity": 0.889763779527559
                },
                {
                    "duration": 0.07771369921874793,
                    "durationTicks": 63,
                    "midi": 90,
                    "name": "F#6",
                    "ticks": 60928,
                    "time": 96.03608400000003,
                    "velocity": 0.889763779527559
                },
                {
                    "duration": 0.07771369921874793,
                    "durationTicks": 63,
                    "midi": 94,
                    "name": "A#6",
                    "ticks": 61056,
                    "time": 96.19397850000003,
                    "velocity": 0.8110236220472441
                },
                {
                    "duration": 0.07771369921874793,
                    "durationTicks": 63,
                    "midi": 85,
                    "name": "C#6",
                    "ticks": 61056,
                    "time": 96.19397850000003,
                    "velocity": 0.889763779527559
                },
                {
                    "duration": 0.07771369921874793,
                    "durationTicks": 63,
                    "midi": 90,
                    "name": "F#6",
                    "ticks": 61056,
                    "time": 96.19397850000003,
                    "velocity": 0.8818897637795275
                },
                {
                    "duration": 0.15542739843751008,
                    "durationTicks": 126,
                    "midi": 97,
                    "name": "C#7",
                    "ticks": 61184,
                    "time": 96.35187300000003,
                    "velocity": 0.9448818897637795
                },
                {
                    "duration": 0.15542739843751008,
                    "durationTicks": 126,
                    "midi": 85,
                    "name": "C#6",
                    "ticks": 61184,
                    "time": 96.35187300000003,
                    "velocity": 0.8740157480314961
                },
                {
                    "duration": 0.15542739843751008,
                    "durationTicks": 126,
                    "midi": 90,
                    "name": "F#6",
                    "ticks": 61184,
                    "time": 96.35187300000003,
                    "velocity": 0.8818897637795275
                },
                {
                    "duration": 0.07771369921874793,
                    "durationTicks": 63,
                    "midi": 98,
                    "name": "D7",
                    "ticks": 61440,
                    "time": 96.66766200000004,
                    "velocity": 1
                },
                {
                    "duration": 0.07771369921874793,
                    "durationTicks": 63,
                    "midi": 86,
                    "name": "D6",
                    "ticks": 61440,
                    "time": 96.66766200000004,
                    "velocity": 0.905511811023622
                },
                {
                    "duration": 0.07771369921874793,
                    "durationTicks": 63,
                    "midi": 90,
                    "name": "F#6",
                    "ticks": 61440,
                    "time": 96.66766200000004,
                    "velocity": 0.889763779527559
                },
                {
                    "duration": 0.07771369921874793,
                    "durationTicks": 63,
                    "midi": 94,
                    "name": "A#6",
                    "ticks": 61568,
                    "time": 96.82555650000003,
                    "velocity": 0.7952755905511811
                },
                {
                    "duration": 0.07771369921874793,
                    "durationTicks": 63,
                    "midi": 86,
                    "name": "D6",
                    "ticks": 61568,
                    "time": 96.82555650000003,
                    "velocity": 0.889763779527559
                },
                {
                    "duration": 0.07771369921874793,
                    "durationTicks": 63,
                    "midi": 90,
                    "name": "F#6",
                    "ticks": 61568,
                    "time": 96.82555650000003,
                    "velocity": 0.8740157480314961
                },
                {
                    "duration": 0.15542739843749587,
                    "durationTicks": 126,
                    "midi": 98,
                    "name": "D7",
                    "ticks": 61696,
                    "time": 96.98345100000003,
                    "velocity": 0.9448818897637795
                },
                {
                    "duration": 0.15542739843749587,
                    "durationTicks": 126,
                    "midi": 86,
                    "name": "D6",
                    "ticks": 61696,
                    "time": 96.98345100000003,
                    "velocity": 0.8740157480314961
                },
                {
                    "duration": 0.15542739843749587,
                    "durationTicks": 126,
                    "midi": 90,
                    "name": "F#6",
                    "ticks": 61696,
                    "time": 96.98345100000003,
                    "velocity": 0.8740157480314961
                },
                {
                    "duration": 0.3096212460937551,
                    "durationTicks": 251,
                    "midi": 97,
                    "name": "C#7",
                    "ticks": 61952,
                    "time": 97.29924000000003,
                    "velocity": 0.968503937007874
                },
                {
                    "duration": 0.5699004609375038,
                    "durationTicks": 462,
                    "midi": 85,
                    "name": "C#6",
                    "ticks": 61952,
                    "time": 97.29924000000003,
                    "velocity": 0.8661417322834646
                },
                {
                    "duration": 0.5699004609375038,
                    "durationTicks": 462,
                    "midi": 90,
                    "name": "F#6",
                    "ticks": 61952,
                    "time": 97.29924000000003,
                    "velocity": 0.8582677165354331
                },
                {
                    "duration": 0.07771369921874793,
                    "durationTicks": 63,
                    "midi": 90,
                    "name": "F#6",
                    "ticks": 62464,
                    "time": 97.93081800000003,
                    "velocity": 0.7480314960629921
                },
                {
                    "duration": 0.5699004609375038,
                    "durationTicks": 462,
                    "midi": 90,
                    "name": "F#6",
                    "ticks": 62464,
                    "time": 97.93081800000003,
                    "velocity": 0.905511811023622
                },
                {
                    "duration": 0.07771369921874793,
                    "durationTicks": 63,
                    "midi": 92,
                    "name": "G#6",
                    "ticks": 62592,
                    "time": 98.08871250000003,
                    "velocity": 0.889763779527559
                },
                {
                    "duration": 0.07771369921876214,
                    "durationTicks": 63,
                    "midi": 94,
                    "name": "A#6",
                    "ticks": 62720,
                    "time": 98.24660700000003,
                    "velocity": 0.937007874015748
                },
                {
                    "duration": 0.07771369921874793,
                    "durationTicks": 63,
                    "midi": 95,
                    "name": "B6",
                    "ticks": 62848,
                    "time": 98.40450150000004,
                    "velocity": 0.9212598425196851
                },
                {
                    "duration": 0.07771369921874793,
                    "durationTicks": 63,
                    "midi": 97,
                    "name": "C#7",
                    "ticks": 62976,
                    "time": 98.56239600000004,
                    "velocity": 1
                },
                {
                    "duration": 0.2849502304687519,
                    "durationTicks": 231,
                    "midi": 85,
                    "name": "C#6",
                    "ticks": 62976,
                    "time": 98.56239600000004,
                    "velocity": 0.8740157480314961
                },
                {
                    "duration": 0.2849502304687519,
                    "durationTicks": 231,
                    "midi": 90,
                    "name": "F#6",
                    "ticks": 62976,
                    "time": 98.56239600000004,
                    "velocity": 0.8740157480314961
                },
                {
                    "duration": 0.07771369921874793,
                    "durationTicks": 63,
                    "midi": 94,
                    "name": "A#6",
                    "ticks": 63104,
                    "time": 98.72029050000003,
                    "velocity": 0.7952755905511811
                },
                {
                    "duration": 0.15542739843749587,
                    "durationTicks": 126,
                    "midi": 97,
                    "name": "C#7",
                    "ticks": 63232,
                    "time": 98.87818500000003,
                    "velocity": 0.952755905511811
                },
                {
                    "duration": 0.2849502304687519,
                    "durationTicks": 231,
                    "midi": 85,
                    "name": "C#6",
                    "ticks": 63232,
                    "time": 98.87818500000003,
                    "velocity": 0.8818897637795275
                },
                {
                    "duration": 0.2849502304687519,
                    "durationTicks": 231,
                    "midi": 90,
                    "name": "F#6",
                    "ticks": 63232,
                    "time": 98.87818500000003,
                    "velocity": 0.889763779527559
                },
                {
                    "duration": 0.07771369921874793,
                    "durationTicks": 63,
                    "midi": 99,
                    "name": "D#7",
                    "ticks": 63488,
                    "time": 99.19397400000003,
                    "velocity": 1
                },
                {
                    "duration": 0.15542739843751008,
                    "durationTicks": 126,
                    "midi": 87,
                    "name": "D#6",
                    "ticks": 63488,
                    "time": 99.19397400000003,
                    "velocity": 0.905511811023622
                },
                {
                    "duration": 0.15542739843751008,
                    "durationTicks": 126,
                    "midi": 90,
                    "name": "F#6",
                    "ticks": 63488,
                    "time": 99.19397400000003,
                    "velocity": 0.889763779527559
                },
                {
                    "duration": 0.07771369921876214,
                    "durationTicks": 63,
                    "midi": 94,
                    "name": "A#6",
                    "ticks": 63616,
                    "time": 99.35186850000002,
                    "velocity": 0.7637795275590551
                },
                {
                    "duration": 0.15542739843749587,
                    "durationTicks": 126,
                    "midi": 99,
                    "name": "D#7",
                    "ticks": 63744,
                    "time": 99.50976300000004,
                    "velocity": 0.9763779527559056
                },
                {
                    "duration": 0.15542739843749587,
                    "durationTicks": 126,
                    "midi": 90,
                    "name": "F#6",
                    "ticks": 63744,
                    "time": 99.50976300000004,
                    "velocity": 0.968503937007874
                },
                {
                    "duration": 0.15542739843749587,
                    "durationTicks": 126,
                    "midi": 94,
                    "name": "A#6",
                    "ticks": 63744,
                    "time": 99.50976300000004,
                    "velocity": 0.968503937007874
                },
                {
                    "duration": 0.07771369921874793,
                    "durationTicks": 63,
                    "midi": 97,
                    "name": "C#7",
                    "ticks": 64000,
                    "time": 99.82555200000003,
                    "velocity": 0.9763779527559056
                },
                {
                    "duration": 0.15542739843749587,
                    "durationTicks": 126,
                    "midi": 85,
                    "name": "C#6",
                    "ticks": 64000,
                    "time": 99.82555200000003,
                    "velocity": 0.7716535433070866
                },
                {
                    "duration": 0.15542739843749587,
                    "durationTicks": 126,
                    "midi": 90,
                    "name": "F#6",
                    "ticks": 64000,
                    "time": 99.82555200000003,
                    "velocity": 0.7795275590551181
                },
                {
                    "duration": 0.07771369921876214,
                    "durationTicks": 63,
                    "midi": 94,
                    "name": "A#6",
                    "ticks": 64128,
                    "time": 99.98344650000003,
                    "velocity": 0.7795275590551181
                },
                {
                    "duration": 0.15542739843749587,
                    "durationTicks": 126,
                    "midi": 97,
                    "name": "C#7",
                    "ticks": 64256,
                    "time": 100.14134100000004,
                    "velocity": 0.937007874015748
                },
                {
                    "duration": 0.2849502304687377,
                    "durationTicks": 231,
                    "midi": 85,
                    "name": "C#6",
                    "ticks": 64256,
                    "time": 100.14134100000004,
                    "velocity": 0.8503937007874016
                },
                {
                    "duration": 0.2849502304687377,
                    "durationTicks": 231,
                    "midi": 90,
                    "name": "F#6",
                    "ticks": 64256,
                    "time": 100.14134100000004,
                    "velocity": 0.84251968503937
                },
                {
                    "duration": 0.07771369921874793,
                    "durationTicks": 63,
                    "midi": 90,
                    "name": "F#6",
                    "ticks": 64512,
                    "time": 100.45713000000003,
                    "velocity": 0.7480314960629921
                },
                {
                    "duration": 0.14309189062500138,
                    "durationTicks": 116,
                    "midi": 90,
                    "name": "F#6",
                    "ticks": 64512,
                    "time": 100.45713000000003,
                    "velocity": 0.9133858267716536
                },
                {
                    "duration": 0.07771369921874793,
                    "durationTicks": 63,
                    "midi": 92,
                    "name": "G#6",
                    "ticks": 64640,
                    "time": 100.61502450000003,
                    "velocity": 0.889763779527559
                },
                {
                    "duration": 0.07771369921874793,
                    "durationTicks": 63,
                    "midi": 90,
                    "name": "F#6",
                    "ticks": 64640,
                    "time": 100.61502450000003,
                    "velocity": 0.8818897637795275
                },
                {
                    "duration": 0.07771369921874793,
                    "durationTicks": 63,
                    "midi": 94,
                    "name": "A#6",
                    "ticks": 64768,
                    "time": 100.77291900000003,
                    "velocity": 0.952755905511811
                },
                {
                    "duration": 0.07771369921874793,
                    "durationTicks": 63,
                    "midi": 90,
                    "name": "F#6",
                    "ticks": 64768,
                    "time": 100.77291900000003,
                    "velocity": 0.889763779527559
                },
                {
                    "duration": 0.07771369921874793,
                    "durationTicks": 63,
                    "midi": 95,
                    "name": "B6",
                    "ticks": 64896,
                    "time": 100.93081350000003,
                    "velocity": 0.905511811023622
                },
                {
                    "duration": 0.07771369921874793,
                    "durationTicks": 63,
                    "midi": 90,
                    "name": "F#6",
                    "ticks": 64896,
                    "time": 100.93081350000003,
                    "velocity": 0.8740157480314961
                },
                {
                    "duration": 0.07771369921874793,
                    "durationTicks": 63,
                    "midi": 97,
                    "name": "C#7",
                    "ticks": 65024,
                    "time": 101.08870800000003,
                    "velocity": 1
                },
                {
                    "duration": 0.07771369921874793,
                    "durationTicks": 63,
                    "midi": 85,
                    "name": "C#6",
                    "ticks": 65024,
                    "time": 101.08870800000003,
                    "velocity": 0.8976377952755905
                },
                {
                    "duration": 0.07771369921874793,
                    "durationTicks": 63,
                    "midi": 90,
                    "name": "F#6",
                    "ticks": 65024,
                    "time": 101.08870800000003,
                    "velocity": 0.9133858267716536
                },
                {
                    "duration": 0.07771369921876214,
                    "durationTicks": 63,
                    "midi": 94,
                    "name": "A#6",
                    "ticks": 65152,
                    "time": 101.24660250000002,
                    "velocity": 0.8031496062992126
                },
                {
                    "duration": 0.07771369921876214,
                    "durationTicks": 63,
                    "midi": 85,
                    "name": "C#6",
                    "ticks": 65152,
                    "time": 101.24660250000002,
                    "velocity": 0.8740157480314961
                },
                {
                    "duration": 0.07771369921876214,
                    "durationTicks": 63,
                    "midi": 90,
                    "name": "F#6",
                    "ticks": 65152,
                    "time": 101.24660250000002,
                    "velocity": 0.8818897637795275
                },
                {
                    "duration": 0.15542739843749587,
                    "durationTicks": 126,
                    "midi": 97,
                    "name": "C#7",
                    "ticks": 65280,
                    "time": 101.40449700000003,
                    "velocity": 0.9212598425196851
                },
                {
                    "duration": 0.15542739843749587,
                    "durationTicks": 126,
                    "midi": 85,
                    "name": "C#6",
                    "ticks": 65280,
                    "time": 101.40449700000003,
                    "velocity": 0.8740157480314961
                },
                {
                    "duration": 0.15542739843749587,
                    "durationTicks": 126,
                    "midi": 90,
                    "name": "F#6",
                    "ticks": 65280,
                    "time": 101.40449700000003,
                    "velocity": 0.8661417322834646
                },
                {
                    "duration": 0.07771369921874793,
                    "durationTicks": 63,
                    "midi": 99,
                    "name": "D#7",
                    "ticks": 65536,
                    "time": 101.72028600000003,
                    "velocity": 1
                },
                {
                    "duration": 0.07771369921874793,
                    "durationTicks": 63,
                    "midi": 87,
                    "name": "D#6",
                    "ticks": 65536,
                    "time": 101.72028600000003,
                    "velocity": 0.8976377952755905
                },
                {
                    "duration": 0.07771369921874793,
                    "durationTicks": 63,
                    "midi": 90,
                    "name": "F#6",
                    "ticks": 65536,
                    "time": 101.72028600000003,
                    "velocity": 0.905511811023622
                },
                {
                    "duration": 0.07771369921876214,
                    "durationTicks": 63,
                    "midi": 94,
                    "name": "A#6",
                    "ticks": 65664,
                    "time": 101.87818050000003,
                    "velocity": 0.7795275590551181
                },
                {
                    "duration": 0.07771369921876214,
                    "durationTicks": 63,
                    "midi": 87,
                    "name": "D#6",
                    "ticks": 65664,
                    "time": 101.87818050000003,
                    "velocity": 0.889763779527559
                },
                {
                    "duration": 0.07771369921876214,
                    "durationTicks": 63,
                    "midi": 90,
                    "name": "F#6",
                    "ticks": 65664,
                    "time": 101.87818050000003,
                    "velocity": 0.8582677165354331
                },
                {
                    "duration": 0.15542739843749587,
                    "durationTicks": 126,
                    "midi": 99,
                    "name": "D#7",
                    "ticks": 65792,
                    "time": 102.03607500000004,
                    "velocity": 0.968503937007874
                },
                {
                    "duration": 0.15542739843749587,
                    "durationTicks": 126,
                    "midi": 87,
                    "name": "D#6",
                    "ticks": 65792,
                    "time": 102.03607500000004,
                    "velocity": 0.8818897637795275
                },
                {
                    "duration": 0.15542739843749587,
                    "durationTicks": 126,
                    "midi": 90,
                    "name": "F#6",
                    "ticks": 65792,
                    "time": 102.03607500000004,
                    "velocity": 0.8582677165354331
                },
                {
                    "duration": 0.30962124609374087,
                    "durationTicks": 251,
                    "midi": 97,
                    "name": "C#7",
                    "ticks": 66048,
                    "time": 102.35186400000003,
                    "velocity": 0.9606299212598425
                },
                {
                    "duration": 0.5699004609375038,
                    "durationTicks": 462,
                    "midi": 85,
                    "name": "C#6",
                    "ticks": 66048,
                    "time": 102.35186400000003,
                    "velocity": 0.8740157480314961
                },
                {
                    "duration": 0.5699004609375038,
                    "durationTicks": 462,
                    "midi": 90,
                    "name": "F#6",
                    "ticks": 66048,
                    "time": 102.35186400000003,
                    "velocity": 0.8818897637795275
                },
                {
                    "duration": 0.07382812500000568,
                    "durationTicks": 63,
                    "midi": 83,
                    "name": "B5",
                    "ticks": 66560,
                    "time": 102.98344200000003,
                    "velocity": 0.6299212598425197
                },
                {
                    "duration": 0.5414062499999943,
                    "durationTicks": 462,
                    "midi": 83,
                    "name": "B5",
                    "ticks": 66560,
                    "time": 102.98344200000003,
                    "velocity": 0.7322834645669292
                },
                {
                    "duration": 0.07382812499999147,
                    "durationTicks": 63,
                    "midi": 85,
                    "name": "C#6",
                    "ticks": 66688,
                    "time": 103.13344200000003,
                    "velocity": 0.8740157480314961
                },
                {
                    "duration": 0.07382812500000568,
                    "durationTicks": 63,
                    "midi": 86,
                    "name": "D6",
                    "ticks": 66816,
                    "time": 103.28344200000002,
                    "velocity": 0.937007874015748
                },
                {
                    "duration": 0.07382812499999147,
                    "durationTicks": 63,
                    "midi": 88,
                    "name": "E6",
                    "ticks": 66944,
                    "time": 103.43344200000003,
                    "velocity": 0.9448818897637795
                },
                {
                    "duration": 0.07382812500000568,
                    "durationTicks": 63,
                    "midi": 90,
                    "name": "F#6",
                    "ticks": 67072,
                    "time": 103.58344200000002,
                    "velocity": 1
                },
                {
                    "duration": 0.5414062500000085,
                    "durationTicks": 462,
                    "midi": 83,
                    "name": "B5",
                    "ticks": 67072,
                    "time": 103.58344200000002,
                    "velocity": 0.8503937007874016
                },
                {
                    "duration": 0.07382812500000568,
                    "durationTicks": 63,
                    "midi": 86,
                    "name": "D6",
                    "ticks": 67200,
                    "time": 103.73344200000003,
                    "velocity": 0.7795275590551181
                },
                {
                    "duration": 0.14765624999999716,
                    "durationTicks": 126,
                    "midi": 90,
                    "name": "F#6",
                    "ticks": 67328,
                    "time": 103.88344200000003,
                    "velocity": 0.952755905511811
                },
                {
                    "duration": 0.07382812499999147,
                    "durationTicks": 63,
                    "midi": 89,
                    "name": "F6",
                    "ticks": 67584,
                    "time": 104.18344200000003,
                    "velocity": 0.9921259842519685
                },
                {
                    "duration": 0.5414062499999943,
                    "durationTicks": 462,
                    "midi": 83,
                    "name": "B5",
                    "ticks": 67584,
                    "time": 104.18344200000003,
                    "velocity": 0.9133858267716536
                },
                {
                    "duration": 0.07382812500000568,
                    "durationTicks": 63,
                    "midi": 85,
                    "name": "C#6",
                    "ticks": 67712,
                    "time": 104.33344200000002,
                    "velocity": 0.7874015748031497
                },
                {
                    "duration": 0.14765624999999716,
                    "durationTicks": 126,
                    "midi": 89,
                    "name": "F6",
                    "ticks": 67840,
                    "time": 104.48344200000003,
                    "velocity": 0.952755905511811
                },
                {
                    "duration": 0.07382812500000568,
                    "durationTicks": 63,
                    "midi": 88,
                    "name": "E6",
                    "ticks": 68096,
                    "time": 104.78344200000002,
                    "velocity": 0.9763779527559056
                },
                {
                    "duration": 0.5414062500000085,
                    "durationTicks": 462,
                    "midi": 83,
                    "name": "B5",
                    "ticks": 68096,
                    "time": 104.78344200000002,
                    "velocity": 0.8740157480314961
                },
                {
                    "duration": 0.07382812499999147,
                    "durationTicks": 63,
                    "midi": 84,
                    "name": "C6",
                    "ticks": 68224,
                    "time": 104.93344200000003,
                    "velocity": 0.7795275590551181
                },
                {
                    "duration": 0.14765625000001137,
                    "durationTicks": 126,
                    "midi": 88,
                    "name": "E6",
                    "ticks": 68352,
                    "time": 105.08344200000002,
                    "velocity": 0.952755905511811
                },
                {
                    "duration": 0.07382812499999147,
                    "durationTicks": 63,
                    "midi": 83,
                    "name": "B5",
                    "ticks": 68608,
                    "time": 105.38344200000003,
                    "velocity": 0.7874015748031497
                },
                {
                    "duration": 0.5414062499999943,
                    "durationTicks": 462,
                    "midi": 83,
                    "name": "B5",
                    "ticks": 68608,
                    "time": 105.38344200000003,
                    "velocity": 0.8976377952755905
                },
                {
                    "duration": 0.07382812500000568,
                    "durationTicks": 63,
                    "midi": 85,
                    "name": "C#6",
                    "ticks": 68736,
                    "time": 105.53344200000002,
                    "velocity": 0.9212598425196851
                },
                {
                    "duration": 0.07382812499999147,
                    "durationTicks": 63,
                    "midi": 86,
                    "name": "D6",
                    "ticks": 68864,
                    "time": 105.68344200000003,
                    "velocity": 0.9448818897637795
                },
                {
                    "duration": 0.07382812500000568,
                    "durationTicks": 63,
                    "midi": 88,
                    "name": "E6",
                    "ticks": 68992,
                    "time": 105.83344200000002,
                    "velocity": 0.9212598425196851
                },
                {
                    "duration": 0.07382812500000568,
                    "durationTicks": 63,
                    "midi": 90,
                    "name": "F#6",
                    "ticks": 69120,
                    "time": 105.98344200000003,
                    "velocity": 0.937007874015748
                },
                {
                    "duration": 0.5414062499999943,
                    "durationTicks": 462,
                    "midi": 83,
                    "name": "B5",
                    "ticks": 69120,
                    "time": 105.98344200000003,
                    "velocity": 0.8661417322834646
                },
                {
                    "duration": 0.07382812499999147,
                    "durationTicks": 63,
                    "midi": 86,
                    "name": "D6",
                    "ticks": 69248,
                    "time": 106.13344200000003,
                    "velocity": 0.7795275590551181
                },
                {
                    "duration": 0.07382812500000568,
                    "durationTicks": 63,
                    "midi": 90,
                    "name": "F#6",
                    "ticks": 69376,
                    "time": 106.28344200000002,
                    "velocity": 0.968503937007874
                },
                {
                    "duration": 0.07382812499999147,
                    "durationTicks": 63,
                    "midi": 95,
                    "name": "B6",
                    "ticks": 69504,
                    "time": 106.43344200000003,
                    "velocity": 1
                },
                {
                    "duration": 0.07382812500000568,
                    "durationTicks": 63,
                    "midi": 93,
                    "name": "A6",
                    "ticks": 69632,
                    "time": 106.58344200000002,
                    "velocity": 0.8740157480314961
                },
                {
                    "duration": 0.5414062500000085,
                    "durationTicks": 462,
                    "midi": 81,
                    "name": "A5",
                    "ticks": 69632,
                    "time": 106.58344200000002,
                    "velocity": 0.968503937007874
                },
                {
                    "duration": 0.37382812500000284,
                    "durationTicks": 319,
                    "midi": 86,
                    "name": "D6",
                    "ticks": 69632,
                    "time": 106.58344200000002,
                    "velocity": 0.9606299212598425
                },
                {
                    "duration": 0.07382812500000568,
                    "durationTicks": 63,
                    "midi": 90,
                    "name": "F#6",
                    "ticks": 69760,
                    "time": 106.73344200000003,
                    "velocity": 0.7874015748031497
                },
                {
                    "duration": 0.24140624999999716,
                    "durationTicks": 206,
                    "midi": 86,
                    "name": "D6",
                    "ticks": 69888,
                    "time": 106.88344200000003,
                    "velocity": 0.7795275590551181
                },
                {
                    "duration": 0.07382812500000568,
                    "durationTicks": 63,
                    "midi": 90,
                    "name": "F#6",
                    "ticks": 70016,
                    "time": 107.03344200000002,
                    "velocity": 0.952755905511811
                },
                {
                    "duration": 0.5414062499999943,
                    "durationTicks": 462,
                    "midi": 93,
                    "name": "A6",
                    "ticks": 70144,
                    "time": 107.18344200000003,
                    "velocity": 0.952755905511811
                },
                {
                    "duration": 0.5414062499999943,
                    "durationTicks": 462,
                    "midi": 81,
                    "name": "A5",
                    "ticks": 70144,
                    "time": 107.18344200000003,
                    "velocity": 0.8976377952755905
                },
                {
                    "duration": 0.5414062499999943,
                    "durationTicks": 462,
                    "midi": 86,
                    "name": "D6",
                    "ticks": 70144,
                    "time": 107.18344200000003,
                    "velocity": 0.889763779527559
                },
                {
                    "duration": 0.07202721093750597,
                    "durationTicks": 63,
                    "midi": 83,
                    "name": "B5",
                    "ticks": 70656,
                    "time": 107.78344200000002,
                    "velocity": 0.6850393700787402
                },
                {
                    "duration": 0.13262153124999543,
                    "durationTicks": 116,
                    "midi": 83,
                    "name": "B5",
                    "ticks": 70656,
                    "time": 107.78344200000002,
                    "velocity": 0.8267716535433071
                },
                {
                    "duration": 0.07202721093749176,
                    "durationTicks": 63,
                    "midi": 85,
                    "name": "C#6",
                    "ticks": 70784,
                    "time": 107.92978300000003,
                    "velocity": 0.8740157480314961
                },
                {
                    "duration": 0.07202721093749176,
                    "durationTicks": 63,
                    "midi": 83,
                    "name": "B5",
                    "ticks": 70784,
                    "time": 107.92978300000003,
                    "velocity": 0.84251968503937
                },
                {
                    "duration": 0.07202721093750597,
                    "durationTicks": 63,
                    "midi": 86,
                    "name": "D6",
                    "ticks": 70912,
                    "time": 108.07612400000002,
                    "velocity": 0.9212598425196851
                },
                {
                    "duration": 0.07202721093750597,
                    "durationTicks": 63,
                    "midi": 83,
                    "name": "B5",
                    "ticks": 70912,
                    "time": 108.07612400000002,
                    "velocity": 0.889763779527559
                },
                {
                    "duration": 0.07202721093749176,
                    "durationTicks": 63,
                    "midi": 88,
                    "name": "E6",
                    "ticks": 71040,
                    "time": 108.22246500000003,
                    "velocity": 0.937007874015748
                },
                {
                    "duration": 0.07202721093749176,
                    "durationTicks": 63,
                    "midi": 83,
                    "name": "B5",
                    "ticks": 71040,
                    "time": 108.22246500000003,
                    "velocity": 0.8740157480314961
                },
                {
                    "duration": 0.07202721093750597,
                    "durationTicks": 63,
                    "midi": 90,
                    "name": "F#6",
                    "ticks": 71168,
                    "time": 108.36880600000002,
                    "velocity": 1
                },
                {
                    "duration": 0.07202721093750597,
                    "durationTicks": 63,
                    "midi": 83,
                    "name": "B5",
                    "ticks": 71168,
                    "time": 108.36880600000002,
                    "velocity": 0.905511811023622
                },
                {
                    "duration": 0.07202721093749176,
                    "durationTicks": 63,
                    "midi": 86,
                    "name": "D6",
                    "ticks": 71296,
                    "time": 108.51514700000003,
                    "velocity": 0.7874015748031497
                },
                {
                    "duration": 0.07202721093749176,
                    "durationTicks": 63,
                    "midi": 83,
                    "name": "B5",
                    "ticks": 71296,
                    "time": 108.51514700000003,
                    "velocity": 0.8661417322834646
                },
                {
                    "duration": 0.14405442187499773,
                    "durationTicks": 126,
                    "midi": 90,
                    "name": "F#6",
                    "ticks": 71424,
                    "time": 108.66148800000002,
                    "velocity": 0.9606299212598425
                },
                {
                    "duration": 0.14405442187499773,
                    "durationTicks": 126,
                    "midi": 83,
                    "name": "B5",
                    "ticks": 71424,
                    "time": 108.66148800000002,
                    "velocity": 0.8661417322834646
                },
                {
                    "duration": 0.07202721093750597,
                    "durationTicks": 63,
                    "midi": 89,
                    "name": "F6",
                    "ticks": 71680,
                    "time": 108.95417000000002,
                    "velocity": 0.9921259842519685
                },
                {
                    "duration": 0.13262153125000964,
                    "durationTicks": 116,
                    "midi": 83,
                    "name": "B5",
                    "ticks": 71680,
                    "time": 108.95417000000002,
                    "velocity": 0.889763779527559
                },
                {
                    "duration": 0.07202721093749176,
                    "durationTicks": 63,
                    "midi": 85,
                    "name": "C#6",
                    "ticks": 71808,
                    "time": 109.10051100000003,
                    "velocity": 0.7716535433070866
                },
                {
                    "duration": 0.13262153124999543,
                    "durationTicks": 116,
                    "midi": 83,
                    "name": "B5",
                    "ticks": 71808,
                    "time": 109.10051100000003,
                    "velocity": 0.8740157480314961
                },
                {
                    "duration": 0.14405442187499773,
                    "durationTicks": 126,
                    "midi": 89,
                    "name": "F6",
                    "ticks": 71936,
                    "time": 109.24685200000002,
                    "velocity": 0.952755905511811
                },
                {
                    "duration": 0.13262153125000964,
                    "durationTicks": 116,
                    "midi": 83,
                    "name": "B5",
                    "ticks": 71936,
                    "time": 109.24685200000002,
                    "velocity": 0.8818897637795275
                },
                {
                    "duration": 0.07202721093750597,
                    "durationTicks": 63,
                    "midi": 88,
                    "name": "E6",
                    "ticks": 72192,
                    "time": 109.53953400000002,
                    "velocity": 0.9763779527559056
                },
                {
                    "duration": 0.13262153125000964,
                    "durationTicks": 116,
                    "midi": 83,
                    "name": "B5",
                    "ticks": 72192,
                    "time": 109.53953400000002,
                    "velocity": 0.8110236220472441
                },
                {
                    "duration": 0.07202721093749176,
                    "durationTicks": 63,
                    "midi": 84,
                    "name": "C6",
                    "ticks": 72320,
                    "time": 109.68587500000002,
                    "velocity": 0.7795275590551181
                },
                {
                    "duration": 0.13262153124999543,
                    "durationTicks": 116,
                    "midi": 83,
                    "name": "B5",
                    "ticks": 72320,
                    "time": 109.68587500000002,
                    "velocity": 0.8661417322834646
                },
                {
                    "duration": 0.14405442187501194,
                    "durationTicks": 126,
                    "midi": 88,
                    "name": "E6",
                    "ticks": 72448,
                    "time": 109.83221600000002,
                    "velocity": 0.9606299212598425
                },
                {
                    "duration": 0.13262153125000964,
                    "durationTicks": 116,
                    "midi": 83,
                    "name": "B5",
                    "ticks": 72448,
                    "time": 109.83221600000002,
                    "velocity": 0.905511811023622
                },
                {
                    "duration": 0.07202721093750597,
                    "durationTicks": 63,
                    "midi": 83,
                    "name": "B5",
                    "ticks": 72704,
                    "time": 110.12489800000002,
                    "velocity": 0.7716535433070866
                },
                {
                    "duration": 0.13262153125000964,
                    "durationTicks": 116,
                    "midi": 83,
                    "name": "B5",
                    "ticks": 72704,
                    "time": 110.12489800000002,
                    "velocity": 0.8110236220472441
                },
                {
                    "duration": 0.07202721093750597,
                    "durationTicks": 63,
                    "midi": 85,
                    "name": "C#6",
                    "ticks": 72832,
                    "time": 110.27123900000002,
                    "velocity": 0.9133858267716536
                },
                {
                    "duration": 0.07202721093750597,
                    "durationTicks": 63,
                    "midi": 83,
                    "name": "B5",
                    "ticks": 72832,
                    "time": 110.27123900000002,
                    "velocity": 0.84251968503937
                },
                {
                    "duration": 0.07202721093750597,
                    "durationTicks": 63,
                    "midi": 86,
                    "name": "D6",
                    "ticks": 72960,
                    "time": 110.41758000000002,
                    "velocity": 0.952755905511811
                },
                {
                    "duration": 0.07202721093750597,
                    "durationTicks": 63,
                    "midi": 83,
                    "name": "B5",
                    "ticks": 72960,
                    "time": 110.41758000000002,
                    "velocity": 0.905511811023622
                },
                {
                    "duration": 0.07202721093750597,
                    "durationTicks": 63,
                    "midi": 88,
                    "name": "E6",
                    "ticks": 73088,
                    "time": 110.56392100000002,
                    "velocity": 0.9448818897637795
                },
                {
                    "duration": 0.07202721093750597,
                    "durationTicks": 63,
                    "midi": 83,
                    "name": "B5",
                    "ticks": 73088,
                    "time": 110.56392100000002,
                    "velocity": 0.8818897637795275
                },
                {
                    "duration": 0.07031242968750462,
                    "durationTicks": 63,
                    "midi": 90,
                    "name": "F#6",
                    "ticks": 73216,
                    "time": 110.71026200000003,
                    "velocity": 0.9606299212598425
                },
                {
                    "duration": 0.07031242968750462,
                    "durationTicks": 63,
                    "midi": 83,
                    "name": "B5",
                    "ticks": 73216,
                    "time": 110.71026200000003,
                    "velocity": 0.889763779527559
                },
                {
                    "duration": 0.07031242968749041,
                    "durationTicks": 63,
                    "midi": 86,
                    "name": "D6",
                    "ticks": 73344,
                    "time": 110.85311900000004,
                    "velocity": 0.7795275590551181
                },
                {
                    "duration": 0.07031242968749041,
                    "durationTicks": 63,
                    "midi": 83,
                    "name": "B5",
                    "ticks": 73344,
                    "time": 110.85311900000004,
                    "velocity": 0.8582677165354331
                },
                {
                    "duration": 0.06867713671874753,
                    "durationTicks": 63,
                    "midi": 90,
                    "name": "F#6",
                    "ticks": 73472,
                    "time": 110.99597600000003,
                    "velocity": 0.968503937007874
                },
                {
                    "duration": 0.06867713671874753,
                    "durationTicks": 63,
                    "midi": 83,
                    "name": "B5",
                    "ticks": 73472,
                    "time": 110.99597600000003,
                    "velocity": 0.905511811023622
                },
                {
                    "duration": 0.06867713671874753,
                    "durationTicks": 63,
                    "midi": 95,
                    "name": "B6",
                    "ticks": 73600,
                    "time": 111.13551050000002,
                    "velocity": 1
                },
                {
                    "duration": 0.06867713671874753,
                    "durationTicks": 63,
                    "midi": 83,
                    "name": "B5",
                    "ticks": 73600,
                    "time": 111.13551050000002,
                    "velocity": 0.8818897637795275
                },
                {
                    "duration": 0.06711641015624537,
                    "durationTicks": 63,
                    "midi": 90,
                    "name": "F#6",
                    "ticks": 73728,
                    "time": 111.27504500000003,
                    "velocity": 0.7952755905511811
                },
                {
                    "duration": 0.06711641015624537,
                    "durationTicks": 63,
                    "midi": 83,
                    "name": "B5",
                    "ticks": 73728,
                    "time": 111.27504500000003,
                    "velocity": 0.8976377952755905
                },
                {
                    "duration": 0.06711641015624537,
                    "durationTicks": 63,
                    "midi": 86,
                    "name": "D6",
                    "ticks": 73856,
                    "time": 111.41140850000004,
                    "velocity": 0.7716535433070866
                },
                {
                    "duration": 0.06711641015624537,
                    "durationTicks": 63,
                    "midi": 90,
                    "name": "F#6",
                    "ticks": 73984,
                    "time": 111.54777200000004,
                    "velocity": 0.9606299212598425
                },
                {
                    "duration": 0.06711641015624537,
                    "durationTicks": 63,
                    "midi": 95,
                    "name": "B6",
                    "ticks": 74112,
                    "time": 111.68413550000004,
                    "velocity": 0.984251968503937
                },
                {
                    "duration": 0.4921870078124897,
                    "durationTicks": 462,
                    "midi": 83,
                    "name": "B5",
                    "ticks": 74240,
                    "time": 111.82049900000004,
                    "velocity": 0.7322834645669292
                },
                {
                    "duration": 0.04146630468750345,
                    "durationTicks": 46,
                    "midi": 92,
                    "name": "G#6",
                    "ticks": 74840,
                    "time": 112.44527984375003,
                    "velocity": 0.7716535433070866
                },
                {
                    "duration": 0.06941098828124836,
                    "durationTicks": 77,
                    "midi": 93,
                    "name": "A6",
                    "ticks": 74886,
                    "time": 112.48674614843753,
                    "velocity": 0.905511811023622
                },
                {
                    "duration": 0.0405648632812472,
                    "durationTicks": 45,
                    "midi": 94,
                    "name": "A#6",
                    "ticks": 74963,
                    "time": 112.55615713671878,
                    "velocity": 0.905511811023622
                },
                {
                    "duration": 0.2082329648437593,
                    "durationTicks": 231,
                    "midi": 86,
                    "name": "D6",
                    "ticks": 75008,
                    "time": 112.59672200000003,
                    "velocity": 0.9133858267716536
                },
                {
                    "duration": 0.2082329648437593,
                    "durationTicks": 231,
                    "midi": 95,
                    "name": "B6",
                    "ticks": 75008,
                    "time": 112.59672200000003,
                    "velocity": 0.9133858267716536
                },
                {
                    "duration": 0.04146630468748924,
                    "durationTicks": 46,
                    "midi": 92,
                    "name": "G#6",
                    "ticks": 75864,
                    "time": 113.36835584375004,
                    "velocity": 0.7952755905511811
                },
                {
                    "duration": 0.06941098828126258,
                    "durationTicks": 77,
                    "midi": 93,
                    "name": "A6",
                    "ticks": 75910,
                    "time": 113.40982214843753,
                    "velocity": 0.905511811023622
                },
                {
                    "duration": 0.0405648632812472,
                    "durationTicks": 45,
                    "midi": 94,
                    "name": "A#6",
                    "ticks": 75987,
                    "time": 113.47923313671879,
                    "velocity": 0.9133858267716536
                },
                {
                    "duration": 0.2082329648437451,
                    "durationTicks": 231,
                    "midi": 86,
                    "name": "D6",
                    "ticks": 76032,
                    "time": 113.51979800000004,
                    "velocity": 0.9212598425196851
                },
                {
                    "duration": 0.2082329648437451,
                    "durationTicks": 231,
                    "midi": 95,
                    "name": "B6",
                    "ticks": 76032,
                    "time": 113.51979800000004,
                    "velocity": 0.905511811023622
                },
                {
                    "duration": 0.05679080859374608,
                    "durationTicks": 63,
                    "midi": 71,
                    "name": "B4",
                    "ticks": 76800,
                    "time": 114.21210500000004,
                    "velocity": 0.5984251968503937
                },
                {
                    "duration": 0.05679080859376029,
                    "durationTicks": 63,
                    "midi": 73,
                    "name": "C#5",
                    "ticks": 76928,
                    "time": 114.32748950000003,
                    "velocity": 0.6535433070866141
                },
                {
                    "duration": 0.05679080859374608,
                    "durationTicks": 63,
                    "midi": 74,
                    "name": "D5",
                    "ticks": 77056,
                    "time": 114.44287400000003,
                    "velocity": 0.7322834645669292
                },
                {
                    "duration": 0.05679080859374608,
                    "durationTicks": 63,
                    "midi": 76,
                    "name": "E5",
                    "ticks": 77184,
                    "time": 114.55825850000004,
                    "velocity": 0.7401574803149606
                },
                {
                    "duration": 0.05679080859376029,
                    "durationTicks": 63,
                    "midi": 78,
                    "name": "F#5",
                    "ticks": 77312,
                    "time": 114.67364300000003,
                    "velocity": 0.7637795275590551
                },
                {
                    "duration": 0.05679080859374608,
                    "durationTicks": 63,
                    "midi": 74,
                    "name": "D5",
                    "ticks": 77440,
                    "time": 114.78902750000003,
                    "velocity": 0.6535433070866141
                },
                {
                    "duration": 0.05679080859374608,
                    "durationTicks": 63,
                    "midi": 78,
                    "name": "F#5",
                    "ticks": 77568,
                    "time": 114.90441200000004,
                    "velocity": 0.84251968503937
                },
                {
                    "duration": 0.05679080859376029,
                    "durationTicks": 63,
                    "midi": 83,
                    "name": "B5",
                    "ticks": 77696,
                    "time": 115.01979650000003,
                    "velocity": 0.8661417322834646
                },
                {
                    "duration": 0.05679080859374608,
                    "durationTicks": 63,
                    "midi": 82,
                    "name": "A#5",
                    "ticks": 77824,
                    "time": 115.13518100000003,
                    "velocity": 0.7795275590551181
                },
                {
                    "duration": 0.05679080859374608,
                    "durationTicks": 63,
                    "midi": 78,
                    "name": "F#5",
                    "ticks": 77952,
                    "time": 115.25056550000004,
                    "velocity": 0.7322834645669292
                },
                {
                    "duration": 0.05679080859376029,
                    "durationTicks": 63,
                    "midi": 82,
                    "name": "A#5",
                    "ticks": 78080,
                    "time": 115.36595000000003,
                    "velocity": 0.937007874015748
                },
                {
                    "duration": 0.05679080859374608,
                    "durationTicks": 63,
                    "midi": 85,
                    "name": "C#6",
                    "ticks": 78208,
                    "time": 115.48133450000003,
                    "velocity": 0.952755905511811
                },
                {
                    "duration": 0.4164659296874902,
                    "durationTicks": 462,
                    "midi": 83,
                    "name": "B5",
                    "ticks": 78336,
                    "time": 115.59671900000004,
                    "velocity": 0.9448818897637795
                },
                {
                    "duration": 0.04146630468750345,
                    "durationTicks": 46,
                    "midi": 92,
                    "name": "G#6",
                    "ticks": 78936,
                    "time": 116.13758384375004,
                    "velocity": 0.7952755905511811
                },
                {
                    "duration": 0.06941098828124836,
                    "durationTicks": 77,
                    "midi": 93,
                    "name": "A6",
                    "ticks": 78982,
                    "time": 116.17905014843754,
                    "velocity": 0.889763779527559
                },
                {
                    "duration": 0.0405648632812472,
                    "durationTicks": 45,
                    "midi": 94,
                    "name": "A#6",
                    "ticks": 79059,
                    "time": 116.24846113671879,
                    "velocity": 0.905511811023622
                },
                {
                    "duration": 0.2082329648437451,
                    "durationTicks": 231,
                    "midi": 86,
                    "name": "D6",
                    "ticks": 79104,
                    "time": 116.28902600000004,
                    "velocity": 0.9291338582677166
                },
                {
                    "duration": 0.2082329648437451,
                    "durationTicks": 231,
                    "midi": 95,
                    "name": "B6",
                    "ticks": 79104,
                    "time": 116.28902600000004,
                    "velocity": 0.937007874015748
                },
                {
                    "duration": 0.04146630468750345,
                    "durationTicks": 46,
                    "midi": 92,
                    "name": "G#6",
                    "ticks": 79960,
                    "time": 117.06065984375003,
                    "velocity": 0.7795275590551181
                },
                {
                    "duration": 0.06941098828124836,
                    "durationTicks": 77,
                    "midi": 93,
                    "name": "A6",
                    "ticks": 80006,
                    "time": 117.10212614843753,
                    "velocity": 0.905511811023622
                },
                {
                    "duration": 0.0405648632812472,
                    "durationTicks": 45,
                    "midi": 94,
                    "name": "A#6",
                    "ticks": 80083,
                    "time": 117.17153713671878,
                    "velocity": 0.9133858267716536
                },
                {
                    "duration": 0.2082329648437593,
                    "durationTicks": 231,
                    "midi": 86,
                    "name": "D6",
                    "ticks": 80128,
                    "time": 117.21210200000003,
                    "velocity": 0.9212598425196851
                },
                {
                    "duration": 0.2082329648437593,
                    "durationTicks": 231,
                    "midi": 95,
                    "name": "B6",
                    "ticks": 80128,
                    "time": 117.21210200000003,
                    "velocity": 0.9133858267716536
                },
                {
                    "duration": 0.05679080859376029,
                    "durationTicks": 63,
                    "midi": 83,
                    "name": "B5",
                    "ticks": 80896,
                    "time": 117.90440900000003,
                    "velocity": 0.5826771653543307
                },
                {
                    "duration": 0.05679080859374608,
                    "durationTicks": 63,
                    "midi": 85,
                    "name": "C#6",
                    "ticks": 81024,
                    "time": 118.01979350000003,
                    "velocity": 0.6771653543307087
                },
                {
                    "duration": 0.05679080859374608,
                    "durationTicks": 63,
                    "midi": 86,
                    "name": "D6",
                    "ticks": 81152,
                    "time": 118.13517800000004,
                    "velocity": 0.7244094488188977
                },
                {
                    "duration": 0.05679080859374608,
                    "durationTicks": 63,
                    "midi": 88,
                    "name": "E6",
                    "ticks": 81280,
                    "time": 118.25056250000003,
                    "velocity": 0.7244094488188977
                },
                {
                    "duration": 0.05679080859374608,
                    "durationTicks": 63,
                    "midi": 90,
                    "name": "F#6",
                    "ticks": 81408,
                    "time": 118.36594700000003,
                    "velocity": 0.7716535433070866
                },
                {
                    "duration": 0.05679080859374608,
                    "durationTicks": 63,
                    "midi": 86,
                    "name": "D6",
                    "ticks": 81536,
                    "time": 118.48133150000004,
                    "velocity": 0.6614173228346457
                },
                {
                    "duration": 0.05679080859376029,
                    "durationTicks": 63,
                    "midi": 90,
                    "name": "F#6",
                    "ticks": 81664,
                    "time": 118.59671600000003,
                    "velocity": 0.8267716535433071
                },
                {
                    "duration": 0.05679080859374608,
                    "durationTicks": 63,
                    "midi": 95,
                    "name": "B6",
                    "ticks": 81792,
                    "time": 118.71210050000003,
                    "velocity": 0.889763779527559
                },
                {
                    "duration": 0.05679080859374608,
                    "durationTicks": 63,
                    "midi": 94,
                    "name": "A#6",
                    "ticks": 81920,
                    "time": 118.82748500000004,
                    "velocity": 0.7952755905511811
                },
                {
                    "duration": 0.05679080859374608,
                    "durationTicks": 63,
                    "midi": 90,
                    "name": "F#6",
                    "ticks": 82048,
                    "time": 118.94286950000003,
                    "velocity": 0.7244094488188977
                },
                {
                    "duration": 0.05679080859374608,
                    "durationTicks": 63,
                    "midi": 94,
                    "name": "A#6",
                    "ticks": 82176,
                    "time": 119.05825400000003,
                    "velocity": 0.9212598425196851
                },
                {
                    "duration": 0.05679080859374608,
                    "durationTicks": 63,
                    "midi": 97,
                    "name": "C#7",
                    "ticks": 82304,
                    "time": 119.17363850000004,
                    "velocity": 0.9606299212598425
                },
                {
                    "duration": 0.4164659296875044,
                    "durationTicks": 462,
                    "midi": 95,
                    "name": "B6",
                    "ticks": 82432,
                    "time": 119.28902300000003,
                    "velocity": 0.937007874015748
                },
                {
                    "duration": 0.04146630468750345,
                    "durationTicks": 46,
                    "midi": 92,
                    "name": "G#6",
                    "ticks": 83032,
                    "time": 119.82988784375003,
                    "velocity": 0.7952755905511811
                },
                {
                    "duration": 0.06941098828124836,
                    "durationTicks": 77,
                    "midi": 93,
                    "name": "A6",
                    "ticks": 83078,
                    "time": 119.87135414843753,
                    "velocity": 0.905511811023622
                },
                {
                    "duration": 0.0405648632812472,
                    "durationTicks": 45,
                    "midi": 94,
                    "name": "A#6",
                    "ticks": 83155,
                    "time": 119.94076513671878,
                    "velocity": 0.9133858267716536
                },
                {
                    "duration": 0.2082329648437593,
                    "durationTicks": 231,
                    "midi": 86,
                    "name": "D6",
                    "ticks": 83200,
                    "time": 119.98133000000003,
                    "velocity": 0.9133858267716536
                },
                {
                    "duration": 0.2082329648437593,
                    "durationTicks": 231,
                    "midi": 95,
                    "name": "B6",
                    "ticks": 83200,
                    "time": 119.98133000000003,
                    "velocity": 0.9291338582677166
                },
                {
                    "duration": 0.04146630468748924,
                    "durationTicks": 46,
                    "midi": 92,
                    "name": "G#6",
                    "ticks": 84056,
                    "time": 120.75296384375004,
                    "velocity": 0.7795275590551181
                },
                {
                    "duration": 0.06941098828124836,
                    "durationTicks": 77,
                    "midi": 93,
                    "name": "A6",
                    "ticks": 84102,
                    "time": 120.79443014843753,
                    "velocity": 0.905511811023622
                },
                {
                    "duration": 0.04056486328126141,
                    "durationTicks": 45,
                    "midi": 94,
                    "name": "A#6",
                    "ticks": 84179,
                    "time": 120.86384113671878,
                    "velocity": 0.905511811023622
                },
                {
                    "duration": 0.2082329648437451,
                    "durationTicks": 231,
                    "midi": 86,
                    "name": "D6",
                    "ticks": 84224,
                    "time": 120.90440600000004,
                    "velocity": 0.905511811023622
                },
                {
                    "duration": 0.2082329648437451,
                    "durationTicks": 231,
                    "midi": 95,
                    "name": "B6",
                    "ticks": 84224,
                    "time": 120.90440600000004,
                    "velocity": 0.905511811023622
                },
                {
                    "duration": 0.04146630468750345,
                    "durationTicks": 46,
                    "midi": 92,
                    "name": "G#6",
                    "ticks": 85080,
                    "time": 121.67603984375003,
                    "velocity": 0.2440944881889764
                },
                {
                    "duration": 0.06941098828124836,
                    "durationTicks": 77,
                    "midi": 93,
                    "name": "A6",
                    "ticks": 85126,
                    "time": 121.71750614843754,
                    "velocity": 0.2992125984251969
                },
                {
                    "duration": 0.0405648632812472,
                    "durationTicks": 45,
                    "midi": 94,
                    "name": "A#6",
                    "ticks": 85203,
                    "time": 121.78691713671878,
                    "velocity": 0.29133858267716534
                },
                {
                    "duration": 0.2082329648437451,
                    "durationTicks": 231,
                    "midi": 86,
                    "name": "D6",
                    "ticks": 85248,
                    "time": 121.82748200000003,
                    "velocity": 0.28346456692913385
                },
                {
                    "duration": 0.2082329648437451,
                    "durationTicks": 231,
                    "midi": 95,
                    "name": "B6",
                    "ticks": 85248,
                    "time": 121.82748200000003,
                    "velocity": 0.28346456692913385
                },
                {
                    "duration": 0.06490378124999552,
                    "durationTicks": 72,
                    "midi": 92,
                    "name": "G#6",
                    "ticks": 85310,
                    "time": 121.88337136718754,
                    "velocity": 0.25984251968503935
                },
                {
                    "duration": 0.06941098828124836,
                    "durationTicks": 77,
                    "midi": 93,
                    "name": "A6",
                    "ticks": 85382,
                    "time": 121.94827514843753,
                    "velocity": 0.2755905511811024
                },
                {
                    "duration": 0.0405648632812472,
                    "durationTicks": 45,
                    "midi": 94,
                    "name": "A#6",
                    "ticks": 85459,
                    "time": 122.01768613671878,
                    "velocity": 0.2677165354330709
                },
                {
                    "duration": 0.2082329648437593,
                    "durationTicks": 231,
                    "midi": 86,
                    "name": "D6",
                    "ticks": 85504,
                    "time": 122.05825100000003,
                    "velocity": 0.28346456692913385
                },
                {
                    "duration": 0.2082329648437593,
                    "durationTicks": 231,
                    "midi": 95,
                    "name": "B6",
                    "ticks": 85504,
                    "time": 122.05825100000003,
                    "velocity": 0.2755905511811024
                },
                {
                    "duration": 0.06490378124999552,
                    "durationTicks": 72,
                    "midi": 92,
                    "name": "G#6",
                    "ticks": 85566,
                    "time": 122.11414036718753,
                    "velocity": 0.23622047244094488
                },
                {
                    "duration": 0.06941098828124836,
                    "durationTicks": 77,
                    "midi": 93,
                    "name": "A6",
                    "ticks": 85638,
                    "time": 122.17904414843753,
                    "velocity": 0.2677165354330709
                },
                {
                    "duration": 0.04056486328126141,
                    "durationTicks": 45,
                    "midi": 94,
                    "name": "A#6",
                    "ticks": 85715,
                    "time": 122.24845513671877,
                    "velocity": 0.2755905511811024
                },
                {
                    "duration": 0.2082329648437451,
                    "durationTicks": 231,
                    "midi": 86,
                    "name": "D6",
                    "ticks": 85760,
                    "time": 122.28902000000004,
                    "velocity": 0.2755905511811024
                },
                {
                    "duration": 0.2082329648437451,
                    "durationTicks": 231,
                    "midi": 95,
                    "name": "B6",
                    "ticks": 85760,
                    "time": 122.28902000000004,
                    "velocity": 0.28346456692913385
                },
                {
                    "duration": 0.04146630468750345,
                    "durationTicks": 46,
                    "midi": 92,
                    "name": "G#6",
                    "ticks": 86016,
                    "time": 122.51978900000003,
                    "velocity": 0.25196850393700787
                },
                {
                    "duration": 0.06941098828124836,
                    "durationTicks": 77,
                    "midi": 93,
                    "name": "A6",
                    "ticks": 86062,
                    "time": 122.56125530468753,
                    "velocity": 0.2677165354330709
                },
                {
                    "duration": 0.06490378124999552,
                    "durationTicks": 72,
                    "midi": 92,
                    "name": "G#6",
                    "ticks": 86078,
                    "time": 122.57567836718754,
                    "velocity": 0.47244094488188976
                },
                {
                    "duration": 0.0405648632812472,
                    "durationTicks": 45,
                    "midi": 94,
                    "name": "A#6",
                    "ticks": 86139,
                    "time": 122.63066629296878,
                    "velocity": 0.2677165354330709
                },
                {
                    "duration": 0.06941098828124836,
                    "durationTicks": 77,
                    "midi": 93,
                    "name": "A6",
                    "ticks": 86150,
                    "time": 122.64058214843753,
                    "velocity": 0.5039370078740157
                },
                {
                    "duration": 0.05679080859374608,
                    "durationTicks": 63,
                    "midi": 86,
                    "name": "D6",
                    "ticks": 86184,
                    "time": 122.67123115625003,
                    "velocity": 0.2755905511811024
                },
                {
                    "duration": 0.05679080859374608,
                    "durationTicks": 63,
                    "midi": 95,
                    "name": "B6",
                    "ticks": 86184,
                    "time": 122.67123115625003,
                    "velocity": 0.29133858267716534
                },
                {
                    "duration": 0.0405648632812472,
                    "durationTicks": 45,
                    "midi": 94,
                    "name": "A#6",
                    "ticks": 86227,
                    "time": 122.70999313671878,
                    "velocity": 0.5196850393700787
                },
                {
                    "duration": 0.2082329648437593,
                    "durationTicks": 231,
                    "midi": 86,
                    "name": "D6",
                    "ticks": 86272,
                    "time": 122.75055800000003,
                    "velocity": 0.5275590551181102
                },
                {
                    "duration": 0.2082329648437593,
                    "durationTicks": 231,
                    "midi": 95,
                    "name": "B6",
                    "ticks": 86272,
                    "time": 122.75055800000003,
                    "velocity": 0.5118110236220472
                },
                {
                    "duration": 0.06490378124999552,
                    "durationTicks": 72,
                    "midi": 92,
                    "name": "G#6",
                    "ticks": 86334,
                    "time": 122.80644736718753,
                    "velocity": 0.6692913385826772
                },
                {
                    "duration": 0.06941098828124836,
                    "durationTicks": 77,
                    "midi": 93,
                    "name": "A6",
                    "ticks": 86406,
                    "time": 122.87135114843753,
                    "velocity": 0.7559055118110236
                },
                {
                    "duration": 0.04056486328126141,
                    "durationTicks": 45,
                    "midi": 94,
                    "name": "A#6",
                    "ticks": 86483,
                    "time": 122.94076213671877,
                    "velocity": 0.7480314960629921
                },
                {
                    "duration": 0.2082329648437451,
                    "durationTicks": 231,
                    "midi": 86,
                    "name": "D6",
                    "ticks": 86528,
                    "time": 122.98132700000004,
                    "velocity": 0.7559055118110236
                },
                {
                    "duration": 0.2082329648437451,
                    "durationTicks": 231,
                    "midi": 95,
                    "name": "B6",
                    "ticks": 86528,
                    "time": 122.98132700000004,
                    "velocity": 0.7559055118110236
                },
                {
                    "duration": 0.06490378124999552,
                    "durationTicks": 72,
                    "midi": 92,
                    "name": "G#6",
                    "ticks": 86590,
                    "time": 123.03721636718754,
                    "velocity": 0.8582677165354331
                },
                {
                    "duration": 0.06941098828124836,
                    "durationTicks": 77,
                    "midi": 93,
                    "name": "A6",
                    "ticks": 86662,
                    "time": 123.10212014843754,
                    "velocity": 0.968503937007874
                },
                {
                    "duration": 0.0405648632812472,
                    "durationTicks": 45,
                    "midi": 94,
                    "name": "A#6",
                    "ticks": 86739,
                    "time": 123.17153113671878,
                    "velocity": 0.9921259842519685
                },
                {
                    "duration": 0.2082329648437451,
                    "durationTicks": 231,
                    "midi": 86,
                    "name": "D6",
                    "ticks": 86784,
                    "time": 123.21209600000003,
                    "velocity": 0.9921259842519685
                },
                {
                    "duration": 0.2082329648437451,
                    "durationTicks": 231,
                    "midi": 95,
                    "name": "B6",
                    "ticks": 86784,
                    "time": 123.21209600000003,
                    "velocity": 0.984251968503937
                },
                {
                    "duration": 0.04146630468750345,
                    "durationTicks": 46,
                    "midi": 92,
                    "name": "G#6",
                    "ticks": 89176,
                    "time": 125.36834384375003,
                    "velocity": 0.8976377952755905
                },
                {
                    "duration": 0.06941098828124836,
                    "durationTicks": 77,
                    "midi": 93,
                    "name": "A6",
                    "ticks": 89222,
                    "time": 125.40981014843753,
                    "velocity": 1
                },
                {
                    "duration": 0.04056486328126141,
                    "durationTicks": 45,
                    "midi": 94,
                    "name": "A#6",
                    "ticks": 89299,
                    "time": 125.47922113671878,
                    "velocity": 0.9921259842519685
                },
                {
                    "duration": 0.2082329648437451,
                    "durationTicks": 231,
                    "midi": 86,
                    "name": "D6",
                    "ticks": 89344,
                    "time": 125.51978600000004,
                    "velocity": 1
                },
                {
                    "duration": 0.2082329648437451,
                    "durationTicks": 231,
                    "midi": 95,
                    "name": "B6",
                    "ticks": 89344,
                    "time": 125.51978600000004,
                    "velocity": 0.9921259842519685
                }
            ]
        },
        {
            "channel": 1,
            "controlChanges": {
                "0": [
                    {
                        "number": 0,
                        "ticks": 0,
                        "time": 0,
                        "value": 0
                    }
                ],
                "10": [
                    {
                        "number": 10,
                        "ticks": 0,
                        "time": 0,
                        "value": 0.3937007874015748
                    }
                ],
                "32": [
                    {
                        "number": 32,
                        "ticks": 0,
                        "time": 0,
                        "value": 0
                    }
                ],
                "64": [
                    {
                        "number": 64,
                        "ticks": 17408,
                        "time": 29.565176,
                        "value": 1
                    },
                    {
                        "number": 64,
                        "ticks": 18176,
                        "time": 30.832781,
                        "value": 0
                    },
                    {
                        "number": 64,
                        "ticks": 25600,
                        "time": 43.086296000000004,
                        "value": 1
                    },
                    {
                        "number": 64,
                        "ticks": 26112,
                        "time": 43.931366000000004,
                        "value": 1
                    },
                    {
                        "number": 64,
                        "ticks": 26112,
                        "time": 43.931366000000004,
                        "value": 0
                    },
                    {
                        "number": 64,
                        "ticks": 26496,
                        "time": 44.5651685,
                        "value": 0
                    },
                    {
                        "number": 64,
                        "ticks": 26624,
                        "time": 44.776436000000004,
                        "value": 1
                    },
                    {
                        "number": 64,
                        "ticks": 27136,
                        "time": 45.621506000000004,
                        "value": 1
                    },
                    {
                        "number": 64,
                        "ticks": 27136,
                        "time": 45.621506000000004,
                        "value": 0
                    },
                    {
                        "number": 64,
                        "ticks": 27520,
                        "time": 46.2553085,
                        "value": 0
                    },
                    {
                        "number": 64,
                        "ticks": 27648,
                        "time": 46.466576,
                        "value": 1
                    },
                    {
                        "number": 64,
                        "ticks": 28160,
                        "time": 47.311646,
                        "value": 1
                    },
                    {
                        "number": 64,
                        "ticks": 28160,
                        "time": 47.311646,
                        "value": 0
                    },
                    {
                        "number": 64,
                        "ticks": 28544,
                        "time": 47.945448500000005,
                        "value": 0
                    },
                    {
                        "number": 64,
                        "ticks": 28800,
                        "time": 48.36798350000001,
                        "value": 1
                    },
                    {
                        "number": 64,
                        "ticks": 29184,
                        "time": 49.001786,
                        "value": 1
                    },
                    {
                        "number": 64,
                        "ticks": 29440,
                        "time": 49.424321000000006,
                        "value": 0
                    },
                    {
                        "number": 64,
                        "ticks": 29568,
                        "time": 49.635588500000004,
                        "value": 0
                    },
                    {
                        "number": 64,
                        "ticks": 29696,
                        "time": 49.846856,
                        "value": 1
                    },
                    {
                        "number": 64,
                        "ticks": 30208,
                        "time": 50.691926,
                        "value": 1
                    },
                    {
                        "number": 64,
                        "ticks": 30208,
                        "time": 50.691926,
                        "value": 0
                    },
                    {
                        "number": 64,
                        "ticks": 30592,
                        "time": 51.325728500000004,
                        "value": 0
                    },
                    {
                        "number": 64,
                        "ticks": 30720,
                        "time": 51.536996,
                        "value": 1
                    },
                    {
                        "number": 64,
                        "ticks": 31232,
                        "time": 52.38206600000001,
                        "value": 1
                    },
                    {
                        "number": 64,
                        "ticks": 31232,
                        "time": 52.38206600000001,
                        "value": 0
                    },
                    {
                        "number": 64,
                        "ticks": 31616,
                        "time": 53.0158685,
                        "value": 0
                    },
                    {
                        "number": 64,
                        "ticks": 31744,
                        "time": 53.227136,
                        "value": 1
                    },
                    {
                        "number": 64,
                        "ticks": 32256,
                        "time": 54.07220600000001,
                        "value": 1
                    },
                    {
                        "number": 64,
                        "ticks": 32256,
                        "time": 54.07220600000001,
                        "value": 0
                    },
                    {
                        "number": 64,
                        "ticks": 32640,
                        "time": 54.7060085,
                        "value": 0
                    },
                    {
                        "number": 64,
                        "ticks": 32896,
                        "time": 55.128543500000006,
                        "value": 1
                    },
                    {
                        "number": 64,
                        "ticks": 33280,
                        "time": 55.76234600000001,
                        "value": 1
                    },
                    {
                        "number": 64,
                        "ticks": 33536,
                        "time": 56.184881000000004,
                        "value": 0
                    },
                    {
                        "number": 64,
                        "ticks": 33664,
                        "time": 56.3961485,
                        "value": 0
                    },
                    {
                        "number": 64,
                        "ticks": 33920,
                        "time": 56.818683500000006,
                        "value": 1
                    },
                    {
                        "number": 64,
                        "ticks": 34304,
                        "time": 57.45248600000001,
                        "value": 1
                    },
                    {
                        "number": 64,
                        "ticks": 34560,
                        "time": 57.875021000000004,
                        "value": 0
                    },
                    {
                        "number": 64,
                        "ticks": 34688,
                        "time": 58.08628850000001,
                        "value": 0
                    },
                    {
                        "number": 64,
                        "ticks": 34816,
                        "time": 58.297556,
                        "value": 1
                    },
                    {
                        "number": 64,
                        "ticks": 35328,
                        "time": 59.14262600000001,
                        "value": 1
                    },
                    {
                        "number": 64,
                        "ticks": 35584,
                        "time": 59.565161,
                        "value": 0
                    },
                    {
                        "number": 64,
                        "ticks": 35712,
                        "time": 59.77642850000001,
                        "value": 0
                    },
                    {
                        "number": 64,
                        "ticks": 35968,
                        "time": 60.198963500000005,
                        "value": 1
                    },
                    {
                        "number": 64,
                        "ticks": 36352,
                        "time": 60.83276600000001,
                        "value": 1
                    },
                    {
                        "number": 64,
                        "ticks": 36608,
                        "time": 61.255301,
                        "value": 0
                    },
                    {
                        "number": 64,
                        "ticks": 36736,
                        "time": 61.46656850000001,
                        "value": 0
                    },
                    {
                        "number": 64,
                        "ticks": 36864,
                        "time": 61.677836000000006,
                        "value": 1
                    },
                    {
                        "number": 64,
                        "ticks": 37376,
                        "time": 62.522906000000006,
                        "value": 1
                    },
                    {
                        "number": 64,
                        "ticks": 37632,
                        "time": 62.945441,
                        "value": 0
                    },
                    {
                        "number": 64,
                        "ticks": 37760,
                        "time": 63.15670850000001,
                        "value": 0
                    },
                    {
                        "number": 64,
                        "ticks": 38016,
                        "time": 63.579243500000004,
                        "value": 1
                    },
                    {
                        "number": 64,
                        "ticks": 38400,
                        "time": 64.213046,
                        "value": 1
                    },
                    {
                        "number": 64,
                        "ticks": 38656,
                        "time": 64.635581,
                        "value": 0
                    },
                    {
                        "number": 64,
                        "ticks": 38784,
                        "time": 64.84684850000001,
                        "value": 0
                    },
                    {
                        "number": 64,
                        "ticks": 38912,
                        "time": 65.05811600000001,
                        "value": 1
                    },
                    {
                        "number": 64,
                        "ticks": 39424,
                        "time": 65.903186,
                        "value": 1
                    },
                    {
                        "number": 64,
                        "ticks": 39680,
                        "time": 66.32572100000002,
                        "value": 0
                    },
                    {
                        "number": 64,
                        "ticks": 39808,
                        "time": 66.5369885,
                        "value": 0
                    },
                    {
                        "number": 64,
                        "ticks": 40064,
                        "time": 66.9595235,
                        "value": 1
                    },
                    {
                        "number": 64,
                        "ticks": 40448,
                        "time": 67.593326,
                        "value": 1
                    },
                    {
                        "number": 64,
                        "ticks": 40704,
                        "time": 68.015861,
                        "value": 0
                    },
                    {
                        "number": 64,
                        "ticks": 40832,
                        "time": 68.2271285,
                        "value": 0
                    },
                    {
                        "number": 64,
                        "ticks": 40960,
                        "time": 68.43839600000001,
                        "value": 1
                    },
                    {
                        "number": 64,
                        "ticks": 41472,
                        "time": 69.283466,
                        "value": 1
                    },
                    {
                        "number": 64,
                        "ticks": 41728,
                        "time": 69.70600100000001,
                        "value": 0
                    },
                    {
                        "number": 64,
                        "ticks": 41983,
                        "time": 70.12688547265626,
                        "value": 0
                    },
                    {
                        "number": 64,
                        "ticks": 41984,
                        "time": 70.128536,
                        "value": 1
                    },
                    {
                        "number": 64,
                        "ticks": 42496,
                        "time": 70.956122,
                        "value": 1
                    },
                    {
                        "number": 64,
                        "ticks": 42496,
                        "time": 70.956122,
                        "value": 0
                    },
                    {
                        "number": 64,
                        "ticks": 42922,
                        "time": 71.6446994140625,
                        "value": 0
                    },
                    {
                        "number": 64,
                        "ticks": 43008,
                        "time": 71.78370799999999,
                        "value": 1
                    },
                    {
                        "number": 64,
                        "ticks": 43520,
                        "time": 72.611294,
                        "value": 1
                    },
                    {
                        "number": 64,
                        "ticks": 43520,
                        "time": 72.611294,
                        "value": 0
                    },
                    {
                        "number": 64,
                        "ticks": 43946,
                        "time": 73.2998714140625,
                        "value": 0
                    },
                    {
                        "number": 64,
                        "ticks": 44032,
                        "time": 73.43888,
                        "value": 1
                    },
                    {
                        "number": 64,
                        "ticks": 44544,
                        "time": 74.266466,
                        "value": 1
                    },
                    {
                        "number": 64,
                        "ticks": 44544,
                        "time": 74.266466,
                        "value": 0
                    },
                    {
                        "number": 64,
                        "ticks": 45055,
                        "time": 75.09243562109374,
                        "value": 1
                    },
                    {
                        "number": 64,
                        "ticks": 45055,
                        "time": 75.09243562109374,
                        "value": 0
                    },
                    {
                        "number": 64,
                        "ticks": 45482,
                        "time": 75.7826294140625,
                        "value": 0
                    },
                    {
                        "number": 64,
                        "ticks": 45568,
                        "time": 75.921638,
                        "value": 1
                    },
                    {
                        "number": 64,
                        "ticks": 45994,
                        "time": 76.6102154140625,
                        "value": 0
                    },
                    {
                        "number": 64,
                        "ticks": 46080,
                        "time": 76.749224,
                        "value": 1
                    },
                    {
                        "number": 64,
                        "ticks": 46592,
                        "time": 77.560034,
                        "value": 1
                    },
                    {
                        "number": 64,
                        "ticks": 46592,
                        "time": 77.560034,
                        "value": 0
                    },
                    {
                        "number": 64,
                        "ticks": 47018,
                        "time": 78.2346532578125,
                        "value": 0
                    },
                    {
                        "number": 64,
                        "ticks": 47104,
                        "time": 78.370844,
                        "value": 1
                    },
                    {
                        "number": 64,
                        "ticks": 47616,
                        "time": 79.181654,
                        "value": 1
                    },
                    {
                        "number": 64,
                        "ticks": 47616,
                        "time": 79.181654,
                        "value": 0
                    },
                    {
                        "number": 64,
                        "ticks": 48042,
                        "time": 79.8562732578125,
                        "value": 0
                    },
                    {
                        "number": 64,
                        "ticks": 50176,
                        "time": 82.77294600000003,
                        "value": 1
                    },
                    {
                        "number": 64,
                        "ticks": 50688,
                        "time": 83.40452400000004,
                        "value": 1
                    },
                    {
                        "number": 64,
                        "ticks": 50688,
                        "time": 83.40452400000004,
                        "value": 0
                    },
                    {
                        "number": 64,
                        "ticks": 51072,
                        "time": 83.87820750000003,
                        "value": 0
                    },
                    {
                        "number": 64,
                        "ticks": 51328,
                        "time": 84.19399650000003,
                        "value": 1
                    },
                    {
                        "number": 64,
                        "ticks": 51712,
                        "time": 84.66768000000003,
                        "value": 1
                    },
                    {
                        "number": 64,
                        "ticks": 51840,
                        "time": 84.82557450000003,
                        "value": 0
                    },
                    {
                        "number": 64,
                        "ticks": 52096,
                        "time": 85.14136350000003,
                        "value": 0
                    },
                    {
                        "number": 64,
                        "ticks": 52224,
                        "time": 85.29925800000004,
                        "value": 1
                    },
                    {
                        "number": 64,
                        "ticks": 52736,
                        "time": 85.93083600000003,
                        "value": 1
                    },
                    {
                        "number": 64,
                        "ticks": 52736,
                        "time": 85.93083600000003,
                        "value": 0
                    },
                    {
                        "number": 64,
                        "ticks": 53120,
                        "time": 86.40451950000003,
                        "value": 0
                    },
                    {
                        "number": 64,
                        "ticks": 53248,
                        "time": 86.56241400000003,
                        "value": 1
                    },
                    {
                        "number": 64,
                        "ticks": 53760,
                        "time": 87.19399200000004,
                        "value": 1
                    },
                    {
                        "number": 64,
                        "ticks": 53760,
                        "time": 87.19399200000004,
                        "value": 0
                    },
                    {
                        "number": 64,
                        "ticks": 54144,
                        "time": 87.66767550000003,
                        "value": 0
                    },
                    {
                        "number": 64,
                        "ticks": 54400,
                        "time": 87.98346450000003,
                        "value": 1
                    },
                    {
                        "number": 64,
                        "ticks": 54784,
                        "time": 88.45714800000003,
                        "value": 1
                    },
                    {
                        "number": 64,
                        "ticks": 54912,
                        "time": 88.61504250000003,
                        "value": 0
                    },
                    {
                        "number": 64,
                        "ticks": 55168,
                        "time": 88.93083150000004,
                        "value": 0
                    },
                    {
                        "number": 64,
                        "ticks": 55424,
                        "time": 89.24662050000003,
                        "value": 1
                    },
                    {
                        "number": 64,
                        "ticks": 55808,
                        "time": 89.72030400000003,
                        "value": 1
                    },
                    {
                        "number": 64,
                        "ticks": 55936,
                        "time": 89.87819850000002,
                        "value": 0
                    },
                    {
                        "number": 64,
                        "ticks": 56192,
                        "time": 90.19398750000003,
                        "value": 0
                    },
                    {
                        "number": 64,
                        "ticks": 56320,
                        "time": 90.35188200000003,
                        "value": 1
                    },
                    {
                        "number": 64,
                        "ticks": 56832,
                        "time": 90.98346000000004,
                        "value": 1
                    },
                    {
                        "number": 64,
                        "ticks": 56832,
                        "time": 90.98346000000004,
                        "value": 0
                    },
                    {
                        "number": 64,
                        "ticks": 57216,
                        "time": 91.45714350000003,
                        "value": 0
                    },
                    {
                        "number": 64,
                        "ticks": 57344,
                        "time": 91.61503800000003,
                        "value": 1
                    },
                    {
                        "number": 64,
                        "ticks": 57856,
                        "time": 92.24661600000003,
                        "value": 1
                    },
                    {
                        "number": 64,
                        "ticks": 57856,
                        "time": 92.24661600000003,
                        "value": 0
                    },
                    {
                        "number": 64,
                        "ticks": 58240,
                        "time": 92.72029950000004,
                        "value": 0
                    },
                    {
                        "number": 64,
                        "ticks": 58368,
                        "time": 92.87819400000004,
                        "value": 1
                    },
                    {
                        "number": 64,
                        "ticks": 58880,
                        "time": 93.50977200000003,
                        "value": 1
                    },
                    {
                        "number": 64,
                        "ticks": 58880,
                        "time": 93.50977200000003,
                        "value": 0
                    },
                    {
                        "number": 64,
                        "ticks": 59264,
                        "time": 93.98345550000003,
                        "value": 0
                    },
                    {
                        "number": 64,
                        "ticks": 59392,
                        "time": 94.14135000000003,
                        "value": 1
                    },
                    {
                        "number": 64,
                        "ticks": 59904,
                        "time": 94.77292800000004,
                        "value": 1
                    },
                    {
                        "number": 64,
                        "ticks": 59904,
                        "time": 94.77292800000004,
                        "value": 0
                    },
                    {
                        "number": 64,
                        "ticks": 60416,
                        "time": 95.40450600000003,
                        "value": 1
                    },
                    {
                        "number": 64,
                        "ticks": 60544,
                        "time": 95.56240050000002,
                        "value": 0
                    },
                    {
                        "number": 64,
                        "ticks": 60928,
                        "time": 96.03608400000003,
                        "value": 1
                    },
                    {
                        "number": 64,
                        "ticks": 60928,
                        "time": 96.03608400000003,
                        "value": 0
                    },
                    {
                        "number": 64,
                        "ticks": 61312,
                        "time": 96.50976750000004,
                        "value": 0
                    },
                    {
                        "number": 64,
                        "ticks": 61440,
                        "time": 96.66766200000004,
                        "value": 1
                    },
                    {
                        "number": 64,
                        "ticks": 61952,
                        "time": 97.29924000000003,
                        "value": 1
                    },
                    {
                        "number": 64,
                        "ticks": 61952,
                        "time": 97.29924000000003,
                        "value": 0
                    },
                    {
                        "number": 64,
                        "ticks": 62464,
                        "time": 97.93081800000003,
                        "value": 1
                    },
                    {
                        "number": 64,
                        "ticks": 62592,
                        "time": 98.08871250000003,
                        "value": 0
                    },
                    {
                        "number": 64,
                        "ticks": 62976,
                        "time": 98.56239600000004,
                        "value": 1
                    },
                    {
                        "number": 64,
                        "ticks": 62976,
                        "time": 98.56239600000004,
                        "value": 0
                    },
                    {
                        "number": 64,
                        "ticks": 63360,
                        "time": 99.03607950000003,
                        "value": 0
                    },
                    {
                        "number": 64,
                        "ticks": 63488,
                        "time": 99.19397400000003,
                        "value": 1
                    },
                    {
                        "number": 64,
                        "ticks": 64000,
                        "time": 99.82555200000003,
                        "value": 1
                    },
                    {
                        "number": 64,
                        "ticks": 64000,
                        "time": 99.82555200000003,
                        "value": 0
                    },
                    {
                        "number": 64,
                        "ticks": 64384,
                        "time": 100.29923550000004,
                        "value": 0
                    },
                    {
                        "number": 64,
                        "ticks": 64512,
                        "time": 100.45713000000003,
                        "value": 1
                    },
                    {
                        "number": 64,
                        "ticks": 65024,
                        "time": 101.08870800000003,
                        "value": 1
                    },
                    {
                        "number": 64,
                        "ticks": 65024,
                        "time": 101.08870800000003,
                        "value": 0
                    },
                    {
                        "number": 64,
                        "ticks": 65408,
                        "time": 101.56239150000003,
                        "value": 0
                    },
                    {
                        "number": 64,
                        "ticks": 65536,
                        "time": 101.72028600000003,
                        "value": 1
                    },
                    {
                        "number": 64,
                        "ticks": 66048,
                        "time": 102.35186400000003,
                        "value": 1
                    },
                    {
                        "number": 64,
                        "ticks": 66048,
                        "time": 102.35186400000003,
                        "value": 0
                    },
                    {
                        "number": 64,
                        "ticks": 66688,
                        "time": 103.13344200000003,
                        "value": 1
                    },
                    {
                        "number": 64,
                        "ticks": 66688,
                        "time": 103.13344200000003,
                        "value": 0
                    },
                    {
                        "number": 64,
                        "ticks": 67072,
                        "time": 103.58344200000002,
                        "value": 1
                    },
                    {
                        "number": 64,
                        "ticks": 67200,
                        "time": 103.73344200000003,
                        "value": 0
                    },
                    {
                        "number": 64,
                        "ticks": 67456,
                        "time": 104.03344200000002,
                        "value": 0
                    },
                    {
                        "number": 64,
                        "ticks": 67712,
                        "time": 104.33344200000002,
                        "value": 1
                    },
                    {
                        "number": 64,
                        "ticks": 68096,
                        "time": 104.78344200000002,
                        "value": 1
                    },
                    {
                        "number": 64,
                        "ticks": 68224,
                        "time": 104.93344200000003,
                        "value": 0
                    },
                    {
                        "number": 64,
                        "ticks": 68480,
                        "time": 105.23344200000003,
                        "value": 0
                    },
                    {
                        "number": 64,
                        "ticks": 68608,
                        "time": 105.38344200000003,
                        "value": 1
                    },
                    {
                        "number": 64,
                        "ticks": 69120,
                        "time": 105.98344200000003,
                        "value": 1
                    },
                    {
                        "number": 64,
                        "ticks": 69120,
                        "time": 105.98344200000003,
                        "value": 0
                    },
                    {
                        "number": 64,
                        "ticks": 69504,
                        "time": 106.43344200000003,
                        "value": 0
                    },
                    {
                        "number": 64,
                        "ticks": 69632,
                        "time": 106.58344200000002,
                        "value": 1
                    },
                    {
                        "number": 64,
                        "ticks": 70144,
                        "time": 107.18344200000003,
                        "value": 1
                    },
                    {
                        "number": 64,
                        "ticks": 70144,
                        "time": 107.18344200000003,
                        "value": 0
                    },
                    {
                        "number": 64,
                        "ticks": 70528,
                        "time": 107.63344200000003,
                        "value": 0
                    },
                    {
                        "number": 64,
                        "ticks": 70784,
                        "time": 107.92978300000003,
                        "value": 1
                    },
                    {
                        "number": 64,
                        "ticks": 71168,
                        "time": 108.36880600000002,
                        "value": 1
                    },
                    {
                        "number": 64,
                        "ticks": 71296,
                        "time": 108.51514700000003,
                        "value": 0
                    },
                    {
                        "number": 64,
                        "ticks": 71552,
                        "time": 108.80782900000003,
                        "value": 0
                    },
                    {
                        "number": 64,
                        "ticks": 71808,
                        "time": 109.10051100000003,
                        "value": 1
                    },
                    {
                        "number": 64,
                        "ticks": 72192,
                        "time": 109.53953400000002,
                        "value": 1
                    },
                    {
                        "number": 64,
                        "ticks": 72320,
                        "time": 109.68587500000002,
                        "value": 0
                    },
                    {
                        "number": 64,
                        "ticks": 72576,
                        "time": 109.97855700000002,
                        "value": 0
                    },
                    {
                        "number": 64,
                        "ticks": 72704,
                        "time": 110.12489800000002,
                        "value": 1
                    },
                    {
                        "number": 64,
                        "ticks": 73216,
                        "time": 110.71026200000003,
                        "value": 1
                    },
                    {
                        "number": 64,
                        "ticks": 73216,
                        "time": 110.71026200000003,
                        "value": 0
                    },
                    {
                        "number": 64,
                        "ticks": 73600,
                        "time": 111.13551050000002,
                        "value": 0
                    },
                    {
                        "number": 64,
                        "ticks": 73728,
                        "time": 111.27504500000003,
                        "value": 1
                    },
                    {
                        "number": 64,
                        "ticks": 74240,
                        "time": 111.82049900000004,
                        "value": 1
                    },
                    {
                        "number": 64,
                        "ticks": 74240,
                        "time": 111.82049900000004,
                        "value": 0
                    },
                    {
                        "number": 64,
                        "ticks": 74624,
                        "time": 112.22958950000003,
                        "value": 0
                    },
                    {
                        "number": 64,
                        "ticks": 74752,
                        "time": 112.36595300000003,
                        "value": 1
                    },
                    {
                        "number": 64,
                        "ticks": 75264,
                        "time": 112.82749100000004,
                        "value": 0
                    },
                    {
                        "number": 64,
                        "ticks": 75775,
                        "time": 113.28812755859379,
                        "value": 1
                    },
                    {
                        "number": 64,
                        "ticks": 76288,
                        "time": 113.75056700000003,
                        "value": 0
                    },
                    {
                        "number": 64,
                        "ticks": 76800,
                        "time": 114.21210500000004,
                        "value": 1
                    },
                    {
                        "number": 64,
                        "ticks": 77312,
                        "time": 114.67364300000003,
                        "value": 1
                    },
                    {
                        "number": 64,
                        "ticks": 77312,
                        "time": 114.67364300000003,
                        "value": 0
                    },
                    {
                        "number": 64,
                        "ticks": 77568,
                        "time": 114.90441200000004,
                        "value": 0
                    },
                    {
                        "number": 64,
                        "ticks": 77824,
                        "time": 115.13518100000003,
                        "value": 1
                    },
                    {
                        "number": 64,
                        "ticks": 78336,
                        "time": 115.59671900000004,
                        "value": 1
                    },
                    {
                        "number": 64,
                        "ticks": 78592,
                        "time": 115.82748800000003,
                        "value": 0
                    },
                    {
                        "number": 64,
                        "ticks": 78592,
                        "time": 115.82748800000003,
                        "value": 0
                    },
                    {
                        "number": 64,
                        "ticks": 78848,
                        "time": 116.05825700000003,
                        "value": 1
                    },
                    {
                        "number": 64,
                        "ticks": 79360,
                        "time": 116.51979500000003,
                        "value": 0
                    },
                    {
                        "number": 64,
                        "ticks": 79871,
                        "time": 116.98043155859378,
                        "value": 1
                    },
                    {
                        "number": 64,
                        "ticks": 80384,
                        "time": 117.44287100000003,
                        "value": 0
                    },
                    {
                        "number": 64,
                        "ticks": 80896,
                        "time": 117.90440900000003,
                        "value": 1
                    },
                    {
                        "number": 64,
                        "ticks": 81408,
                        "time": 118.36594700000003,
                        "value": 1
                    },
                    {
                        "number": 64,
                        "ticks": 81408,
                        "time": 118.36594700000003,
                        "value": 0
                    },
                    {
                        "number": 64,
                        "ticks": 81664,
                        "time": 118.59671600000003,
                        "value": 0
                    },
                    {
                        "number": 64,
                        "ticks": 81920,
                        "time": 118.82748500000004,
                        "value": 1
                    },
                    {
                        "number": 64,
                        "ticks": 82432,
                        "time": 119.28902300000003,
                        "value": 1
                    },
                    {
                        "number": 64,
                        "ticks": 82688,
                        "time": 119.51979200000004,
                        "value": 0
                    },
                    {
                        "number": 64,
                        "ticks": 82688,
                        "time": 119.51979200000004,
                        "value": 0
                    },
                    {
                        "number": 64,
                        "ticks": 82944,
                        "time": 119.75056100000003,
                        "value": 1
                    },
                    {
                        "number": 64,
                        "ticks": 83456,
                        "time": 120.21209900000004,
                        "value": 0
                    },
                    {
                        "number": 64,
                        "ticks": 83968,
                        "time": 120.67363700000003,
                        "value": 1
                    },
                    {
                        "number": 64,
                        "ticks": 84480,
                        "time": 121.13517500000003,
                        "value": 0
                    },
                    {
                        "number": 64,
                        "ticks": 87552,
                        "time": 123.90440300000003,
                        "value": 1
                    },
                    {
                        "number": 64,
                        "ticks": 89600,
                        "time": 125.75055500000003,
                        "value": 0
                    }
                ],
                "91": [
                    {
                        "number": 91,
                        "ticks": 0,
                        "time": 0,
                        "value": 0.47244094488188976
                    }
                ]
            },
            "pitchBends": [],
            "instrument": {
                "family": "piano",
                "name": "acoustic grand piano",
                "number": 0
            },
            "name": "",
            "notes": [
                {
                    "duration": 1.654209640625,
                    "durationTicks": 974,
                    "midi": 54,
                    "name": "F#3",
                    "ticks": 0,
                    "time": 0,
                    "velocity": 0.2677165354330709
                },
                {
                    "duration": 1.654209640625,
                    "durationTicks": 974,
                    "midi": 66,
                    "name": "F#4",
                    "ticks": 0,
                    "time": 0,
                    "velocity": 0.2677165354330709
                },
                {
                    "duration": 0.213994265625,
                    "durationTicks": 126,
                    "midi": 23,
                    "name": "B0",
                    "ticks": 1024,
                    "time": 1.739128,
                    "velocity": 0.2047244094488189
                },
                {
                    "duration": 0.2139942656249998,
                    "durationTicks": 126,
                    "midi": 30,
                    "name": "F#1",
                    "ticks": 1280,
                    "time": 2.1739100000000002,
                    "velocity": 0.31496062992125984
                },
                {
                    "duration": 0.2139942656249998,
                    "durationTicks": 126,
                    "midi": 23,
                    "name": "B0",
                    "ticks": 1536,
                    "time": 2.608692,
                    "velocity": 0.2283464566929134
                },
                {
                    "duration": 0.21399426562500024,
                    "durationTicks": 126,
                    "midi": 30,
                    "name": "F#1",
                    "ticks": 1792,
                    "time": 3.043474,
                    "velocity": 0.33070866141732286
                },
                {
                    "duration": 0.2139942656249998,
                    "durationTicks": 126,
                    "midi": 23,
                    "name": "B0",
                    "ticks": 2048,
                    "time": 3.478256,
                    "velocity": 0.25196850393700787
                },
                {
                    "duration": 0.2139942656249998,
                    "durationTicks": 126,
                    "midi": 30,
                    "name": "F#1",
                    "ticks": 2304,
                    "time": 3.9130380000000002,
                    "velocity": 0.2992125984251969
                },
                {
                    "duration": 0.2139942656249998,
                    "durationTicks": 126,
                    "midi": 23,
                    "name": "B0",
                    "ticks": 2560,
                    "time": 4.3478200000000005,
                    "velocity": 0.2204724409448819
                },
                {
                    "duration": 0.2139942656249998,
                    "durationTicks": 126,
                    "midi": 30,
                    "name": "F#1",
                    "ticks": 2816,
                    "time": 4.782602,
                    "velocity": 0.3228346456692913
                },
                {
                    "duration": 0.2139942656249998,
                    "durationTicks": 126,
                    "midi": 23,
                    "name": "B0",
                    "ticks": 3072,
                    "time": 5.217384,
                    "velocity": 0.25984251968503935
                },
                {
                    "duration": 0.2139942656249998,
                    "durationTicks": 126,
                    "midi": 30,
                    "name": "F#1",
                    "ticks": 3328,
                    "time": 5.652166,
                    "velocity": 0.30708661417322836
                },
                {
                    "duration": 0.21399426562500068,
                    "durationTicks": 126,
                    "midi": 23,
                    "name": "B0",
                    "ticks": 3584,
                    "time": 6.086948,
                    "velocity": 0.2283464566929134
                },
                {
                    "duration": 0.2139942656249998,
                    "durationTicks": 126,
                    "midi": 30,
                    "name": "F#1",
                    "ticks": 3840,
                    "time": 6.52173,
                    "velocity": 0.33070866141732286
                },
                {
                    "duration": 0.2139942656249998,
                    "durationTicks": 126,
                    "midi": 26,
                    "name": "D1",
                    "ticks": 4096,
                    "time": 6.956512,
                    "velocity": 0.25984251968503935
                },
                {
                    "duration": 0.2139942656249998,
                    "durationTicks": 126,
                    "midi": 33,
                    "name": "A1",
                    "ticks": 4352,
                    "time": 7.391294,
                    "velocity": 0.31496062992125984
                },
                {
                    "duration": 0.2139942656249989,
                    "durationTicks": 126,
                    "midi": 26,
                    "name": "D1",
                    "ticks": 4608,
                    "time": 7.8260760000000005,
                    "velocity": 0.2440944881889764
                },
                {
                    "duration": 0.2139942656249989,
                    "durationTicks": 126,
                    "midi": 33,
                    "name": "A1",
                    "ticks": 4864,
                    "time": 8.260858,
                    "velocity": 0.3228346456692913
                },
                {
                    "duration": 0.2139942656249989,
                    "durationTicks": 126,
                    "midi": 23,
                    "name": "B0",
                    "ticks": 5120,
                    "time": 8.695640000000001,
                    "velocity": 0.2440944881889764
                },
                {
                    "duration": 0.21399426562500068,
                    "durationTicks": 126,
                    "midi": 30,
                    "name": "F#1",
                    "ticks": 5376,
                    "time": 9.130422,
                    "velocity": 0.2992125984251969
                },
                {
                    "duration": 0.21399426562500068,
                    "durationTicks": 126,
                    "midi": 23,
                    "name": "B0",
                    "ticks": 5632,
                    "time": 9.565204,
                    "velocity": 0.2283464566929134
                },
                {
                    "duration": 0.21399426562500068,
                    "durationTicks": 126,
                    "midi": 30,
                    "name": "F#1",
                    "ticks": 5888,
                    "time": 9.999986,
                    "velocity": 0.3228346456692913
                },
                {
                    "duration": 0.21399426562500068,
                    "durationTicks": 126,
                    "midi": 23,
                    "name": "B0",
                    "ticks": 6144,
                    "time": 10.434768,
                    "velocity": 0.25984251968503935
                },
                {
                    "duration": 0.2139942656249989,
                    "durationTicks": 126,
                    "midi": 30,
                    "name": "F#1",
                    "ticks": 6400,
                    "time": 10.86955,
                    "velocity": 0.30708661417322836
                },
                {
                    "duration": 0.2139942656249989,
                    "durationTicks": 126,
                    "midi": 23,
                    "name": "B0",
                    "ticks": 6656,
                    "time": 11.304332,
                    "velocity": 0.23622047244094488
                },
                {
                    "duration": 0.2139942656249989,
                    "durationTicks": 126,
                    "midi": 30,
                    "name": "F#1",
                    "ticks": 6912,
                    "time": 11.739114,
                    "velocity": 0.3228346456692913
                },
                {
                    "duration": 0.21399426562500068,
                    "durationTicks": 126,
                    "midi": 23,
                    "name": "B0",
                    "ticks": 7168,
                    "time": 12.173896,
                    "velocity": 0.25196850393700787
                },
                {
                    "duration": 0.21399426562500068,
                    "durationTicks": 126,
                    "midi": 30,
                    "name": "F#1",
                    "ticks": 7424,
                    "time": 12.608678,
                    "velocity": 0.3228346456692913
                },
                {
                    "duration": 0.21399426562500068,
                    "durationTicks": 126,
                    "midi": 23,
                    "name": "B0",
                    "ticks": 7680,
                    "time": 13.04346,
                    "velocity": 0.23622047244094488
                },
                {
                    "duration": 0.21399426562500068,
                    "durationTicks": 126,
                    "midi": 30,
                    "name": "F#1",
                    "ticks": 7936,
                    "time": 13.478242,
                    "velocity": 0.2992125984251969
                },
                {
                    "duration": 0.21399426562500068,
                    "durationTicks": 126,
                    "midi": 26,
                    "name": "D1",
                    "ticks": 8192,
                    "time": 13.913024,
                    "velocity": 0.25984251968503935
                },
                {
                    "duration": 0.2139942656249989,
                    "durationTicks": 126,
                    "midi": 33,
                    "name": "A1",
                    "ticks": 8448,
                    "time": 14.347806,
                    "velocity": 0.30708661417322836
                },
                {
                    "duration": 0.2139942656249989,
                    "durationTicks": 126,
                    "midi": 26,
                    "name": "D1",
                    "ticks": 8704,
                    "time": 14.782588,
                    "velocity": 0.23622047244094488
                },
                {
                    "duration": 0.2139942656249989,
                    "durationTicks": 126,
                    "midi": 33,
                    "name": "A1",
                    "ticks": 8960,
                    "time": 15.21737,
                    "velocity": 0.30708661417322836
                },
                {
                    "duration": 0.2139942656249989,
                    "durationTicks": 126,
                    "midi": 30,
                    "name": "F#1",
                    "ticks": 9216,
                    "time": 15.652152000000001,
                    "velocity": 0.28346456692913385
                },
                {
                    "duration": 0.21399426562500068,
                    "durationTicks": 126,
                    "midi": 37,
                    "name": "C#2",
                    "ticks": 9472,
                    "time": 16.086934,
                    "velocity": 0.31496062992125984
                },
                {
                    "duration": 0.21399426562499713,
                    "durationTicks": 126,
                    "midi": 30,
                    "name": "F#1",
                    "ticks": 9728,
                    "time": 16.521716,
                    "velocity": 0.2440944881889764
                },
                {
                    "duration": 0.21399426562500068,
                    "durationTicks": 126,
                    "midi": 37,
                    "name": "C#2",
                    "ticks": 9984,
                    "time": 16.956498,
                    "velocity": 0.3228346456692913
                },
                {
                    "duration": 0.21399426562499713,
                    "durationTicks": 126,
                    "midi": 26,
                    "name": "D1",
                    "ticks": 10240,
                    "time": 17.391280000000002,
                    "velocity": 0.2204724409448819
                },
                {
                    "duration": 0.21399426562500068,
                    "durationTicks": 126,
                    "midi": 33,
                    "name": "A1",
                    "ticks": 10496,
                    "time": 17.826062,
                    "velocity": 0.2992125984251969
                },
                {
                    "duration": 0.21399426562500068,
                    "durationTicks": 126,
                    "midi": 30,
                    "name": "F#1",
                    "ticks": 10752,
                    "time": 18.260844,
                    "velocity": 0.2677165354330709
                },
                {
                    "duration": 0.21399426562500068,
                    "durationTicks": 126,
                    "midi": 37,
                    "name": "C#2",
                    "ticks": 11008,
                    "time": 18.695626,
                    "velocity": 0.31496062992125984
                },
                {
                    "duration": 0.21399426562500068,
                    "durationTicks": 126,
                    "midi": 30,
                    "name": "F#1",
                    "ticks": 11264,
                    "time": 19.130408,
                    "velocity": 0.2440944881889764
                },
                {
                    "duration": 0.21399426562499713,
                    "durationTicks": 126,
                    "midi": 37,
                    "name": "C#2",
                    "ticks": 11520,
                    "time": 19.56519,
                    "velocity": 0.31496062992125984
                },
                {
                    "duration": 0.21399426562500068,
                    "durationTicks": 126,
                    "midi": 30,
                    "name": "F#1",
                    "ticks": 11776,
                    "time": 19.999972,
                    "velocity": 0.2204724409448819
                },
                {
                    "duration": 0.21399426562499713,
                    "durationTicks": 126,
                    "midi": 37,
                    "name": "C#2",
                    "ticks": 12032,
                    "time": 20.434754,
                    "velocity": 0.2992125984251969
                },
                {
                    "duration": 0.21399426562500068,
                    "durationTicks": 126,
                    "midi": 26,
                    "name": "D1",
                    "ticks": 12288,
                    "time": 20.869536,
                    "velocity": 0.23622047244094488
                },
                {
                    "duration": 0.21399426562500068,
                    "durationTicks": 126,
                    "midi": 33,
                    "name": "A1",
                    "ticks": 12544,
                    "time": 21.304318,
                    "velocity": 0.2992125984251969
                },
                {
                    "duration": 0.21399426562500068,
                    "durationTicks": 126,
                    "midi": 30,
                    "name": "F#1",
                    "ticks": 12800,
                    "time": 21.7391,
                    "velocity": 0.25984251968503935
                },
                {
                    "duration": 0.21399426562500068,
                    "durationTicks": 126,
                    "midi": 37,
                    "name": "C#2",
                    "ticks": 13056,
                    "time": 22.173882,
                    "velocity": 0.30708661417322836
                },
                {
                    "duration": 0.21399426562500068,
                    "durationTicks": 126,
                    "midi": 30,
                    "name": "F#1",
                    "ticks": 13312,
                    "time": 22.608664,
                    "velocity": 0.25196850393700787
                },
                {
                    "duration": 0.21399426562500068,
                    "durationTicks": 126,
                    "midi": 37,
                    "name": "C#2",
                    "ticks": 13568,
                    "time": 23.043446,
                    "velocity": 0.3228346456692913
                },
                {
                    "duration": 0.21399426562499713,
                    "durationTicks": 126,
                    "midi": 30,
                    "name": "F#1",
                    "ticks": 13824,
                    "time": 23.478228,
                    "velocity": 0.2204724409448819
                },
                {
                    "duration": 0.21399426562500068,
                    "durationTicks": 126,
                    "midi": 37,
                    "name": "C#2",
                    "ticks": 14080,
                    "time": 23.91301,
                    "velocity": 0.3228346456692913
                },
                {
                    "duration": 0.21399426562500068,
                    "durationTicks": 126,
                    "midi": 26,
                    "name": "D1",
                    "ticks": 14336,
                    "time": 24.347792,
                    "velocity": 0.2125984251968504
                },
                {
                    "duration": 0.21399426562500068,
                    "durationTicks": 126,
                    "midi": 33,
                    "name": "A1",
                    "ticks": 14592,
                    "time": 24.782574,
                    "velocity": 0.3228346456692913
                },
                {
                    "duration": 0.21399426562500068,
                    "durationTicks": 126,
                    "midi": 30,
                    "name": "F#1",
                    "ticks": 14848,
                    "time": 25.217356,
                    "velocity": 0.2677165354330709
                },
                {
                    "duration": 0.21399426562500068,
                    "durationTicks": 126,
                    "midi": 37,
                    "name": "C#2",
                    "ticks": 15104,
                    "time": 25.652138,
                    "velocity": 0.33070866141732286
                },
                {
                    "duration": 0.21399426562500068,
                    "durationTicks": 126,
                    "midi": 30,
                    "name": "F#1",
                    "ticks": 15360,
                    "time": 26.08692,
                    "velocity": 0.25196850393700787
                },
                {
                    "duration": 0.21399426562499713,
                    "durationTicks": 126,
                    "midi": 37,
                    "name": "C#2",
                    "ticks": 15616,
                    "time": 26.521702,
                    "velocity": 0.33070866141732286
                },
                {
                    "duration": 0.21399426562500068,
                    "durationTicks": 126,
                    "midi": 30,
                    "name": "F#1",
                    "ticks": 15872,
                    "time": 26.956484,
                    "velocity": 0.2440944881889764
                },
                {
                    "duration": 0.21399426562499713,
                    "durationTicks": 126,
                    "midi": 37,
                    "name": "C#2",
                    "ticks": 16128,
                    "time": 27.391266,
                    "velocity": 0.30708661417322836
                },
                {
                    "duration": 0.21399426562500068,
                    "durationTicks": 126,
                    "midi": 26,
                    "name": "D1",
                    "ticks": 16384,
                    "time": 27.826048,
                    "velocity": 0.2283464566929134
                },
                {
                    "duration": 0.21399426562500068,
                    "durationTicks": 126,
                    "midi": 33,
                    "name": "A1",
                    "ticks": 16640,
                    "time": 28.26083,
                    "velocity": 0.3228346456692913
                },
                {
                    "duration": 0.21399426562500068,
                    "durationTicks": 126,
                    "midi": 30,
                    "name": "F#1",
                    "ticks": 16896,
                    "time": 28.695612,
                    "velocity": 0.25984251968503935
                },
                {
                    "duration": 0.21399426562500068,
                    "durationTicks": 126,
                    "midi": 37,
                    "name": "C#2",
                    "ticks": 17152,
                    "time": 29.130394,
                    "velocity": 0.33858267716535434
                },
                {
                    "duration": 0.20796644531250053,
                    "durationTicks": 126,
                    "midi": 23,
                    "name": "B0",
                    "ticks": 17408,
                    "time": 29.565176,
                    "velocity": 0.23622047244094488
                },
                {
                    "duration": 0.20796644531250053,
                    "durationTicks": 126,
                    "midi": 30,
                    "name": "F#1",
                    "ticks": 17664,
                    "time": 29.987711,
                    "velocity": 0.2992125984251969
                },
                {
                    "duration": 0.20796644531250053,
                    "durationTicks": 126,
                    "midi": 23,
                    "name": "B0",
                    "ticks": 17920,
                    "time": 30.410246,
                    "velocity": 0.23622047244094488
                },
                {
                    "duration": 0.20796644531250053,
                    "durationTicks": 126,
                    "midi": 30,
                    "name": "F#1",
                    "ticks": 18176,
                    "time": 30.832781,
                    "velocity": 0.3228346456692913
                },
                {
                    "duration": 0.20796644531250053,
                    "durationTicks": 126,
                    "midi": 23,
                    "name": "B0",
                    "ticks": 18432,
                    "time": 31.255316,
                    "velocity": 0.25984251968503935
                },
                {
                    "duration": 0.20796644531250053,
                    "durationTicks": 126,
                    "midi": 30,
                    "name": "F#1",
                    "ticks": 18688,
                    "time": 31.677851,
                    "velocity": 0.31496062992125984
                },
                {
                    "duration": 0.20796644531250053,
                    "durationTicks": 126,
                    "midi": 23,
                    "name": "B0",
                    "ticks": 18944,
                    "time": 32.100386,
                    "velocity": 0.23622047244094488
                },
                {
                    "duration": 0.20796644531250053,
                    "durationTicks": 126,
                    "midi": 30,
                    "name": "F#1",
                    "ticks": 19200,
                    "time": 32.522921000000004,
                    "velocity": 0.2992125984251969
                },
                {
                    "duration": 0.20796644531250053,
                    "durationTicks": 126,
                    "midi": 23,
                    "name": "B0",
                    "ticks": 19456,
                    "time": 32.945456,
                    "velocity": 0.25984251968503935
                },
                {
                    "duration": 0.20796644531250053,
                    "durationTicks": 126,
                    "midi": 30,
                    "name": "F#1",
                    "ticks": 19712,
                    "time": 33.367991,
                    "velocity": 0.33070866141732286
                },
                {
                    "duration": 0.20796644531250053,
                    "durationTicks": 126,
                    "midi": 23,
                    "name": "B0",
                    "ticks": 19968,
                    "time": 33.790526,
                    "velocity": 0.2283464566929134
                },
                {
                    "duration": 0.20796644531250053,
                    "durationTicks": 126,
                    "midi": 30,
                    "name": "F#1",
                    "ticks": 20224,
                    "time": 34.213061,
                    "velocity": 0.2992125984251969
                },
                {
                    "duration": 0.20796644531250053,
                    "durationTicks": 126,
                    "midi": 26,
                    "name": "D1",
                    "ticks": 20480,
                    "time": 34.635596,
                    "velocity": 0.25196850393700787
                },
                {
                    "duration": 0.20796644531250053,
                    "durationTicks": 126,
                    "midi": 33,
                    "name": "A1",
                    "ticks": 20736,
                    "time": 35.058131,
                    "velocity": 0.3228346456692913
                },
                {
                    "duration": 0.20796644531250053,
                    "durationTicks": 126,
                    "midi": 26,
                    "name": "D1",
                    "ticks": 20992,
                    "time": 35.480666,
                    "velocity": 0.2204724409448819
                },
                {
                    "duration": 0.20796644531250053,
                    "durationTicks": 126,
                    "midi": 33,
                    "name": "A1",
                    "ticks": 21248,
                    "time": 35.903201,
                    "velocity": 0.3228346456692913
                },
                {
                    "duration": 0.20796644531250053,
                    "durationTicks": 126,
                    "midi": 23,
                    "name": "B0",
                    "ticks": 21504,
                    "time": 36.325736,
                    "velocity": 0.25196850393700787
                },
                {
                    "duration": 0.20796644531250053,
                    "durationTicks": 126,
                    "midi": 30,
                    "name": "F#1",
                    "ticks": 21760,
                    "time": 36.748271,
                    "velocity": 0.3228346456692913
                },
                {
                    "duration": 0.20796644531250053,
                    "durationTicks": 126,
                    "midi": 23,
                    "name": "B0",
                    "ticks": 22016,
                    "time": 37.170806,
                    "velocity": 0.2204724409448819
                },
                {
                    "duration": 0.20796644531250053,
                    "durationTicks": 126,
                    "midi": 30,
                    "name": "F#1",
                    "ticks": 22272,
                    "time": 37.593341,
                    "velocity": 0.2992125984251969
                },
                {
                    "duration": 0.20796644531249342,
                    "durationTicks": 126,
                    "midi": 23,
                    "name": "B0",
                    "ticks": 22528,
                    "time": 38.015876000000006,
                    "velocity": 0.25984251968503935
                },
                {
                    "duration": 0.20796644531250053,
                    "durationTicks": 126,
                    "midi": 30,
                    "name": "F#1",
                    "ticks": 22784,
                    "time": 38.438411,
                    "velocity": 0.33070866141732286
                },
                {
                    "duration": 0.20796644531250763,
                    "durationTicks": 126,
                    "midi": 23,
                    "name": "B0",
                    "ticks": 23040,
                    "time": 38.860946,
                    "velocity": 0.2125984251968504
                },
                {
                    "duration": 0.20796644531250053,
                    "durationTicks": 126,
                    "midi": 30,
                    "name": "F#1",
                    "ticks": 23296,
                    "time": 39.283481,
                    "velocity": 0.33070866141732286
                },
                {
                    "duration": 0.20796644531249342,
                    "durationTicks": 126,
                    "midi": 23,
                    "name": "B0",
                    "ticks": 23552,
                    "time": 39.706016000000005,
                    "velocity": 0.23622047244094488
                },
                {
                    "duration": 0.20796644531250053,
                    "durationTicks": 126,
                    "midi": 35,
                    "name": "B1",
                    "ticks": 23808,
                    "time": 40.128551,
                    "velocity": 0.33858267716535434
                },
                {
                    "duration": 0.20796644531250763,
                    "durationTicks": 126,
                    "midi": 33,
                    "name": "A1",
                    "ticks": 24064,
                    "time": 40.551086,
                    "velocity": 0.25196850393700787
                },
                {
                    "duration": 0.20796644531250053,
                    "durationTicks": 126,
                    "midi": 31,
                    "name": "G1",
                    "ticks": 24320,
                    "time": 40.973621,
                    "velocity": 0.23622047244094488
                },
                {
                    "duration": 0.20796644531249342,
                    "durationTicks": 126,
                    "midi": 30,
                    "name": "F#1",
                    "ticks": 24576,
                    "time": 41.396156000000005,
                    "velocity": 0.29133858267716534
                },
                {
                    "duration": 0.20796644531250053,
                    "durationTicks": 126,
                    "midi": 28,
                    "name": "E1",
                    "ticks": 24832,
                    "time": 41.818691,
                    "velocity": 0.25196850393700787
                },
                {
                    "duration": 0.20796644531250053,
                    "durationTicks": 126,
                    "midi": 26,
                    "name": "D1",
                    "ticks": 25088,
                    "time": 42.241226000000005,
                    "velocity": 0.25984251968503935
                },
                {
                    "duration": 0.20796644531250053,
                    "durationTicks": 126,
                    "midi": 25,
                    "name": "C#1",
                    "ticks": 25344,
                    "time": 42.663761,
                    "velocity": 0.2677165354330709
                },
                {
                    "duration": 0.20796644531250053,
                    "durationTicks": 126,
                    "midi": 23,
                    "name": "B0",
                    "ticks": 25600,
                    "time": 43.086296000000004,
                    "velocity": 0.3779527559055118
                },
                {
                    "duration": 0.09573058593750261,
                    "durationTicks": 58,
                    "midi": 42,
                    "name": "F#2",
                    "ticks": 25856,
                    "time": 43.508831,
                    "velocity": 0.49606299212598426
                },
                {
                    "duration": 0.09573058593750261,
                    "durationTicks": 58,
                    "midi": 50,
                    "name": "D3",
                    "ticks": 25856,
                    "time": 43.508831,
                    "velocity": 0.5039370078740157
                },
                {
                    "duration": 0.0957305859374955,
                    "durationTicks": 58,
                    "midi": 41,
                    "name": "F2",
                    "ticks": 25920,
                    "time": 43.61446475,
                    "velocity": 0.2992125984251969
                },
                {
                    "duration": 0.10398322265624671,
                    "durationTicks": 63,
                    "midi": 42,
                    "name": "F#2",
                    "ticks": 25984,
                    "time": 43.720098500000006,
                    "velocity": 0.3700787401574803
                },
                {
                    "duration": 0.20796644531250053,
                    "durationTicks": 126,
                    "midi": 35,
                    "name": "B1",
                    "ticks": 26112,
                    "time": 43.931366000000004,
                    "velocity": 0.31496062992125984
                },
                {
                    "duration": 0.09573058593750261,
                    "durationTicks": 58,
                    "midi": 42,
                    "name": "F#2",
                    "ticks": 26368,
                    "time": 44.353901,
                    "velocity": 0.48031496062992124
                },
                {
                    "duration": 0.09573058593750261,
                    "durationTicks": 58,
                    "midi": 50,
                    "name": "D3",
                    "ticks": 26368,
                    "time": 44.353901,
                    "velocity": 0.48031496062992124
                },
                {
                    "duration": 0.09573058593750261,
                    "durationTicks": 58,
                    "midi": 41,
                    "name": "F2",
                    "ticks": 26432,
                    "time": 44.45953475,
                    "velocity": 0.2992125984251969
                },
                {
                    "duration": 0.10398322265625382,
                    "durationTicks": 63,
                    "midi": 42,
                    "name": "F#2",
                    "ticks": 26496,
                    "time": 44.5651685,
                    "velocity": 0.36220472440944884
                },
                {
                    "duration": 0.20796644531250053,
                    "durationTicks": 126,
                    "midi": 35,
                    "name": "B1",
                    "ticks": 26624,
                    "time": 44.776436000000004,
                    "velocity": 0.3228346456692913
                },
                {
                    "duration": 0.09573058593750261,
                    "durationTicks": 58,
                    "midi": 42,
                    "name": "F#2",
                    "ticks": 26880,
                    "time": 45.198971,
                    "velocity": 0.4881889763779528
                },
                {
                    "duration": 0.09573058593750261,
                    "durationTicks": 58,
                    "midi": 49,
                    "name": "C#3",
                    "ticks": 26880,
                    "time": 45.198971,
                    "velocity": 0.5039370078740157
                },
                {
                    "duration": 0.09573058593750261,
                    "durationTicks": 58,
                    "midi": 41,
                    "name": "F2",
                    "ticks": 26944,
                    "time": 45.30460475,
                    "velocity": 0.31496062992125984
                },
                {
                    "duration": 0.10398322265624671,
                    "durationTicks": 63,
                    "midi": 42,
                    "name": "F#2",
                    "ticks": 27008,
                    "time": 45.410238500000006,
                    "velocity": 0.3858267716535433
                },
                {
                    "duration": 0.20796644531250053,
                    "durationTicks": 126,
                    "midi": 35,
                    "name": "B1",
                    "ticks": 27136,
                    "time": 45.621506000000004,
                    "velocity": 0.3228346456692913
                },
                {
                    "duration": 0.0957305859374955,
                    "durationTicks": 58,
                    "midi": 42,
                    "name": "F#2",
                    "ticks": 27392,
                    "time": 46.04404100000001,
                    "velocity": 0.47244094488188976
                },
                {
                    "duration": 0.0957305859374955,
                    "durationTicks": 58,
                    "midi": 48,
                    "name": "C3",
                    "ticks": 27392,
                    "time": 46.04404100000001,
                    "velocity": 0.49606299212598426
                },
                {
                    "duration": 0.09573058593750261,
                    "durationTicks": 58,
                    "midi": 41,
                    "name": "F2",
                    "ticks": 27456,
                    "time": 46.14967475,
                    "velocity": 0.30708661417322836
                },
                {
                    "duration": 0.10398322265625382,
                    "durationTicks": 63,
                    "midi": 42,
                    "name": "F#2",
                    "ticks": 27520,
                    "time": 46.2553085,
                    "velocity": 0.3700787401574803
                },
                {
                    "duration": 0.20796644531250053,
                    "durationTicks": 126,
                    "midi": 35,
                    "name": "B1",
                    "ticks": 27648,
                    "time": 46.466576,
                    "velocity": 0.3228346456692913
                },
                {
                    "duration": 0.09573058593750261,
                    "durationTicks": 58,
                    "midi": 42,
                    "name": "F#2",
                    "ticks": 27904,
                    "time": 46.889111,
                    "velocity": 0.48031496062992124
                },
                {
                    "duration": 0.09573058593750261,
                    "durationTicks": 58,
                    "midi": 50,
                    "name": "D3",
                    "ticks": 27904,
                    "time": 46.889111,
                    "velocity": 0.48031496062992124
                },
                {
                    "duration": 0.0957305859374955,
                    "durationTicks": 58,
                    "midi": 41,
                    "name": "F2",
                    "ticks": 27968,
                    "time": 46.99474475,
                    "velocity": 0.30708661417322836
                },
                {
                    "duration": 0.10398322265624671,
                    "durationTicks": 63,
                    "midi": 42,
                    "name": "F#2",
                    "ticks": 28032,
                    "time": 47.100378500000005,
                    "velocity": 0.3937007874015748
                },
                {
                    "duration": 0.20796644531250053,
                    "durationTicks": 126,
                    "midi": 35,
                    "name": "B1",
                    "ticks": 28160,
                    "time": 47.311646,
                    "velocity": 0.30708661417322836
                },
                {
                    "duration": 0.0957305859374955,
                    "durationTicks": 58,
                    "midi": 42,
                    "name": "F#2",
                    "ticks": 28416,
                    "time": 47.73418100000001,
                    "velocity": 0.4881889763779528
                },
                {
                    "duration": 0.0957305859374955,
                    "durationTicks": 58,
                    "midi": 50,
                    "name": "D3",
                    "ticks": 28416,
                    "time": 47.73418100000001,
                    "velocity": 0.49606299212598426
                },
                {
                    "duration": 0.09573058593750261,
                    "durationTicks": 58,
                    "midi": 41,
                    "name": "F2",
                    "ticks": 28480,
                    "time": 47.83981475,
                    "velocity": 0.31496062992125984
                },
                {
                    "duration": 0.10398322265624671,
                    "durationTicks": 63,
                    "midi": 42,
                    "name": "F#2",
                    "ticks": 28544,
                    "time": 47.945448500000005,
                    "velocity": 0.3779527559055118
                },
                {
                    "duration": 0.20796644531250053,
                    "durationTicks": 126,
                    "midi": 38,
                    "name": "D2",
                    "ticks": 28672,
                    "time": 48.156716,
                    "velocity": 0.36220472440944884
                },
                {
                    "duration": 0.09573058593750261,
                    "durationTicks": 58,
                    "midi": 45,
                    "name": "A2",
                    "ticks": 28928,
                    "time": 48.579251,
                    "velocity": 0.4881889763779528
                },
                {
                    "duration": 0.09573058593750261,
                    "durationTicks": 58,
                    "midi": 54,
                    "name": "F#3",
                    "ticks": 28928,
                    "time": 48.579251,
                    "velocity": 0.5039370078740157
                },
                {
                    "duration": 0.09573058593750261,
                    "durationTicks": 58,
                    "midi": 44,
                    "name": "G#2",
                    "ticks": 28992,
                    "time": 48.68488475,
                    "velocity": 0.30708661417322836
                },
                {
                    "duration": 0.10398322265625382,
                    "durationTicks": 63,
                    "midi": 45,
                    "name": "A2",
                    "ticks": 29056,
                    "time": 48.790518500000005,
                    "velocity": 0.3937007874015748
                },
                {
                    "duration": 0.20796644531250053,
                    "durationTicks": 126,
                    "midi": 38,
                    "name": "D2",
                    "ticks": 29184,
                    "time": 49.001786,
                    "velocity": 0.3228346456692913
                },
                {
                    "duration": 0.0957305859374955,
                    "durationTicks": 58,
                    "midi": 45,
                    "name": "A2",
                    "ticks": 29440,
                    "time": 49.424321000000006,
                    "velocity": 0.49606299212598426
                },
                {
                    "duration": 0.0957305859374955,
                    "durationTicks": 58,
                    "midi": 54,
                    "name": "F#3",
                    "ticks": 29440,
                    "time": 49.424321000000006,
                    "velocity": 0.5039370078740157
                },
                {
                    "duration": 0.09573058593750261,
                    "durationTicks": 58,
                    "midi": 44,
                    "name": "G#2",
                    "ticks": 29504,
                    "time": 49.52995475,
                    "velocity": 0.2992125984251969
                },
                {
                    "duration": 0.10398322265624671,
                    "durationTicks": 63,
                    "midi": 45,
                    "name": "A2",
                    "ticks": 29568,
                    "time": 49.635588500000004,
                    "velocity": 0.3858267716535433
                },
                {
                    "duration": 0.20796644531250053,
                    "durationTicks": 126,
                    "midi": 35,
                    "name": "B1",
                    "ticks": 29696,
                    "time": 49.846856,
                    "velocity": 0.30708661417322836
                },
                {
                    "duration": 0.09573058593750261,
                    "durationTicks": 58,
                    "midi": 42,
                    "name": "F#2",
                    "ticks": 29952,
                    "time": 50.269391,
                    "velocity": 0.49606299212598426
                },
                {
                    "duration": 0.09573058593750261,
                    "durationTicks": 58,
                    "midi": 50,
                    "name": "D3",
                    "ticks": 29952,
                    "time": 50.269391,
                    "velocity": 0.49606299212598426
                },
                {
                    "duration": 0.0957305859374955,
                    "durationTicks": 58,
                    "midi": 41,
                    "name": "F2",
                    "ticks": 30016,
                    "time": 50.37502475000001,
                    "velocity": 0.30708661417322836
                },
                {
                    "duration": 0.10398322265625382,
                    "durationTicks": 63,
                    "midi": 42,
                    "name": "F#2",
                    "ticks": 30080,
                    "time": 50.480658500000004,
                    "velocity": 0.36220472440944884
                },
                {
                    "duration": 0.20796644531250053,
                    "durationTicks": 126,
                    "midi": 35,
                    "name": "B1",
                    "ticks": 30208,
                    "time": 50.691926,
                    "velocity": 0.30708661417322836
                },
                {
                    "duration": 0.09573058593750261,
                    "durationTicks": 58,
                    "midi": 42,
                    "name": "F#2",
                    "ticks": 30464,
                    "time": 51.114461000000006,
                    "velocity": 0.4881889763779528
                },
                {
                    "duration": 0.09573058593750261,
                    "durationTicks": 58,
                    "midi": 50,
                    "name": "D3",
                    "ticks": 30464,
                    "time": 51.114461000000006,
                    "velocity": 0.47244094488188976
                },
                {
                    "duration": 0.09573058593750261,
                    "durationTicks": 58,
                    "midi": 41,
                    "name": "F2",
                    "ticks": 30528,
                    "time": 51.22009475,
                    "velocity": 0.30708661417322836
                },
                {
                    "duration": 0.10398322265624671,
                    "durationTicks": 63,
                    "midi": 42,
                    "name": "F#2",
                    "ticks": 30592,
                    "time": 51.325728500000004,
                    "velocity": 0.3858267716535433
                },
                {
                    "duration": 0.20796644531250053,
                    "durationTicks": 126,
                    "midi": 35,
                    "name": "B1",
                    "ticks": 30720,
                    "time": 51.536996,
                    "velocity": 0.33070866141732286
                },
                {
                    "duration": 0.09573058593750261,
                    "durationTicks": 58,
                    "midi": 42,
                    "name": "F#2",
                    "ticks": 30976,
                    "time": 51.959531,
                    "velocity": 0.48031496062992124
                },
                {
                    "duration": 0.09573058593750261,
                    "durationTicks": 58,
                    "midi": 49,
                    "name": "C#3",
                    "ticks": 30976,
                    "time": 51.959531,
                    "velocity": 0.49606299212598426
                },
                {
                    "duration": 0.0957305859374955,
                    "durationTicks": 58,
                    "midi": 41,
                    "name": "F2",
                    "ticks": 31040,
                    "time": 52.06516475000001,
                    "velocity": 0.3228346456692913
                },
                {
                    "duration": 0.10398322265625382,
                    "durationTicks": 63,
                    "midi": 42,
                    "name": "F#2",
                    "ticks": 31104,
                    "time": 52.170798500000004,
                    "velocity": 0.3858267716535433
                },
                {
                    "duration": 0.20796644531249342,
                    "durationTicks": 126,
                    "midi": 35,
                    "name": "B1",
                    "ticks": 31232,
                    "time": 52.38206600000001,
                    "velocity": 0.31496062992125984
                },
                {
                    "duration": 0.09573058593750261,
                    "durationTicks": 58,
                    "midi": 42,
                    "name": "F#2",
                    "ticks": 31488,
                    "time": 52.804601000000005,
                    "velocity": 0.4881889763779528
                },
                {
                    "duration": 0.09573058593750261,
                    "durationTicks": 58,
                    "midi": 48,
                    "name": "C3",
                    "ticks": 31488,
                    "time": 52.804601000000005,
                    "velocity": 0.4881889763779528
                },
                {
                    "duration": 0.09573058593750261,
                    "durationTicks": 58,
                    "midi": 41,
                    "name": "F2",
                    "ticks": 31552,
                    "time": 52.91023475,
                    "velocity": 0.3228346456692913
                },
                {
                    "duration": 0.10398322265624671,
                    "durationTicks": 63,
                    "midi": 42,
                    "name": "F#2",
                    "ticks": 31616,
                    "time": 53.0158685,
                    "velocity": 0.3937007874015748
                },
                {
                    "duration": 0.20796644531250053,
                    "durationTicks": 126,
                    "midi": 35,
                    "name": "B1",
                    "ticks": 31744,
                    "time": 53.227136,
                    "velocity": 0.33070866141732286
                },
                {
                    "duration": 0.0957305859374955,
                    "durationTicks": 58,
                    "midi": 42,
                    "name": "F#2",
                    "ticks": 32000,
                    "time": 53.649671000000005,
                    "velocity": 0.48031496062992124
                },
                {
                    "duration": 0.0957305859374955,
                    "durationTicks": 58,
                    "midi": 50,
                    "name": "D3",
                    "ticks": 32000,
                    "time": 53.649671000000005,
                    "velocity": 0.5039370078740157
                },
                {
                    "duration": 0.0957305859374955,
                    "durationTicks": 58,
                    "midi": 41,
                    "name": "F2",
                    "ticks": 32064,
                    "time": 53.75530475000001,
                    "velocity": 0.2992125984251969
                },
                {
                    "duration": 0.10398322265625382,
                    "durationTicks": 63,
                    "midi": 42,
                    "name": "F#2",
                    "ticks": 32128,
                    "time": 53.8609385,
                    "velocity": 0.3779527559055118
                },
                {
                    "duration": 0.20796644531249342,
                    "durationTicks": 126,
                    "midi": 35,
                    "name": "B1",
                    "ticks": 32256,
                    "time": 54.07220600000001,
                    "velocity": 0.31496062992125984
                },
                {
                    "duration": 0.09573058593750261,
                    "durationTicks": 58,
                    "midi": 42,
                    "name": "F#2",
                    "ticks": 32512,
                    "time": 54.494741000000005,
                    "velocity": 0.48031496062992124
                },
                {
                    "duration": 0.09573058593750261,
                    "durationTicks": 58,
                    "midi": 50,
                    "name": "D3",
                    "ticks": 32512,
                    "time": 54.494741000000005,
                    "velocity": 0.48031496062992124
                },
                {
                    "duration": 0.09573058593750261,
                    "durationTicks": 58,
                    "midi": 41,
                    "name": "F2",
                    "ticks": 32576,
                    "time": 54.60037475,
                    "velocity": 0.2992125984251969
                },
                {
                    "duration": 0.10398322265624671,
                    "durationTicks": 63,
                    "midi": 42,
                    "name": "F#2",
                    "ticks": 32640,
                    "time": 54.7060085,
                    "velocity": 0.3700787401574803
                },
                {
                    "duration": 0.20796644531250763,
                    "durationTicks": 126,
                    "midi": 38,
                    "name": "D2",
                    "ticks": 32768,
                    "time": 54.917276,
                    "velocity": 0.36220472440944884
                },
                {
                    "duration": 0.0957305859374955,
                    "durationTicks": 58,
                    "midi": 45,
                    "name": "A2",
                    "ticks": 33024,
                    "time": 55.339811000000005,
                    "velocity": 0.49606299212598426
                },
                {
                    "duration": 0.0957305859374955,
                    "durationTicks": 58,
                    "midi": 54,
                    "name": "F#3",
                    "ticks": 33024,
                    "time": 55.339811000000005,
                    "velocity": 0.5039370078740157
                },
                {
                    "duration": 0.0957305859374955,
                    "durationTicks": 58,
                    "midi": 44,
                    "name": "G#2",
                    "ticks": 33088,
                    "time": 55.44544475000001,
                    "velocity": 0.29133858267716534
                },
                {
                    "duration": 0.10398322265625382,
                    "durationTicks": 63,
                    "midi": 45,
                    "name": "A2",
                    "ticks": 33152,
                    "time": 55.5510785,
                    "velocity": 0.3937007874015748
                },
                {
                    "duration": 0.20796644531249342,
                    "durationTicks": 126,
                    "midi": 38,
                    "name": "D2",
                    "ticks": 33280,
                    "time": 55.76234600000001,
                    "velocity": 0.29133858267716534
                },
                {
                    "duration": 0.09573058593750261,
                    "durationTicks": 58,
                    "midi": 45,
                    "name": "A2",
                    "ticks": 33536,
                    "time": 56.184881000000004,
                    "velocity": 0.48031496062992124
                },
                {
                    "duration": 0.09573058593750261,
                    "durationTicks": 58,
                    "midi": 54,
                    "name": "F#3",
                    "ticks": 33536,
                    "time": 56.184881000000004,
                    "velocity": 0.4881889763779528
                },
                {
                    "duration": 0.09573058593750261,
                    "durationTicks": 58,
                    "midi": 44,
                    "name": "G#2",
                    "ticks": 33600,
                    "time": 56.29051475,
                    "velocity": 0.2992125984251969
                },
                {
                    "duration": 0.10398322265624671,
                    "durationTicks": 63,
                    "midi": 45,
                    "name": "A2",
                    "ticks": 33664,
                    "time": 56.3961485,
                    "velocity": 0.3779527559055118
                },
                {
                    "duration": 0.20796644531250763,
                    "durationTicks": 126,
                    "midi": 42,
                    "name": "F#2",
                    "ticks": 33792,
                    "time": 56.607416,
                    "velocity": 0.36220472440944884
                },
                {
                    "duration": 0.0957305859374955,
                    "durationTicks": 58,
                    "midi": 49,
                    "name": "C#3",
                    "ticks": 34048,
                    "time": 57.029951000000004,
                    "velocity": 0.49606299212598426
                },
                {
                    "duration": 0.0957305859374955,
                    "durationTicks": 58,
                    "midi": 58,
                    "name": "A#3",
                    "ticks": 34048,
                    "time": 57.029951000000004,
                    "velocity": 0.4881889763779528
                },
                {
                    "duration": 0.09573058593750261,
                    "durationTicks": 58,
                    "midi": 48,
                    "name": "C3",
                    "ticks": 34112,
                    "time": 57.13558475000001,
                    "velocity": 0.31496062992125984
                },
                {
                    "duration": 0.10398322265625382,
                    "durationTicks": 63,
                    "midi": 49,
                    "name": "C#3",
                    "ticks": 34176,
                    "time": 57.2412185,
                    "velocity": 0.3779527559055118
                },
                {
                    "duration": 0.20796644531249342,
                    "durationTicks": 126,
                    "midi": 42,
                    "name": "F#2",
                    "ticks": 34304,
                    "time": 57.45248600000001,
                    "velocity": 0.3228346456692913
                },
                {
                    "duration": 0.09573058593750261,
                    "durationTicks": 58,
                    "midi": 49,
                    "name": "C#3",
                    "ticks": 34560,
                    "time": 57.875021000000004,
                    "velocity": 0.5275590551181102
                },
                {
                    "duration": 0.09573058593750261,
                    "durationTicks": 58,
                    "midi": 58,
                    "name": "A#3",
                    "ticks": 34560,
                    "time": 57.875021000000004,
                    "velocity": 0.5039370078740157
                },
                {
                    "duration": 0.09573058593750261,
                    "durationTicks": 58,
                    "midi": 48,
                    "name": "C3",
                    "ticks": 34624,
                    "time": 57.98065475,
                    "velocity": 0.30708661417322836
                },
                {
                    "duration": 0.10398322265624671,
                    "durationTicks": 63,
                    "midi": 49,
                    "name": "C#3",
                    "ticks": 34688,
                    "time": 58.08628850000001,
                    "velocity": 0.3937007874015748
                },
                {
                    "duration": 0.20796644531250763,
                    "durationTicks": 126,
                    "midi": 38,
                    "name": "D2",
                    "ticks": 34816,
                    "time": 58.297556,
                    "velocity": 0.2992125984251969
                },
                {
                    "duration": 0.09573058593750261,
                    "durationTicks": 58,
                    "midi": 50,
                    "name": "D3",
                    "ticks": 35072,
                    "time": 58.720091000000004,
                    "velocity": 0.5118110236220472
                },
                {
                    "duration": 0.09573058593750261,
                    "durationTicks": 58,
                    "midi": 58,
                    "name": "A#3",
                    "ticks": 35072,
                    "time": 58.720091000000004,
                    "velocity": 0.5275590551181102
                },
                {
                    "duration": 0.09573058593750261,
                    "durationTicks": 58,
                    "midi": 49,
                    "name": "C#3",
                    "ticks": 35136,
                    "time": 58.825724750000006,
                    "velocity": 0.33858267716535434
                },
                {
                    "duration": 0.10398322265625382,
                    "durationTicks": 63,
                    "midi": 50,
                    "name": "D3",
                    "ticks": 35200,
                    "time": 58.9313585,
                    "velocity": 0.4251968503937008
                },
                {
                    "duration": 0.20796644531249342,
                    "durationTicks": 126,
                    "midi": 42,
                    "name": "F#2",
                    "ticks": 35328,
                    "time": 59.14262600000001,
                    "velocity": 0.33858267716535434
                },
                {
                    "duration": 0.09573058593750261,
                    "durationTicks": 58,
                    "midi": 49,
                    "name": "C#3",
                    "ticks": 35584,
                    "time": 59.565161,
                    "velocity": 0.5590551181102362
                },
                {
                    "duration": 0.09573058593750261,
                    "durationTicks": 58,
                    "midi": 58,
                    "name": "A#3",
                    "ticks": 35584,
                    "time": 59.565161,
                    "velocity": 0.5669291338582677
                },
                {
                    "duration": 0.0957305859374955,
                    "durationTicks": 58,
                    "midi": 48,
                    "name": "C3",
                    "ticks": 35648,
                    "time": 59.670794750000006,
                    "velocity": 0.33858267716535434
                },
                {
                    "duration": 0.10398322265624671,
                    "durationTicks": 63,
                    "midi": 49,
                    "name": "C#3",
                    "ticks": 35712,
                    "time": 59.77642850000001,
                    "velocity": 0.4251968503937008
                },
                {
                    "duration": 0.20796644531250763,
                    "durationTicks": 126,
                    "midi": 42,
                    "name": "F#2",
                    "ticks": 35840,
                    "time": 59.987696,
                    "velocity": 0.3937007874015748
                },
                {
                    "duration": 0.09573058593750261,
                    "durationTicks": 58,
                    "midi": 49,
                    "name": "C#3",
                    "ticks": 36096,
                    "time": 60.410231,
                    "velocity": 0.5511811023622047
                },
                {
                    "duration": 0.09573058593750261,
                    "durationTicks": 58,
                    "midi": 58,
                    "name": "A#3",
                    "ticks": 36096,
                    "time": 60.410231,
                    "velocity": 0.5748031496062992
                },
                {
                    "duration": 0.09573058593750261,
                    "durationTicks": 58,
                    "midi": 48,
                    "name": "C3",
                    "ticks": 36160,
                    "time": 60.515864750000006,
                    "velocity": 0.3464566929133858
                },
                {
                    "duration": 0.10398322265625382,
                    "durationTicks": 63,
                    "midi": 49,
                    "name": "C#3",
                    "ticks": 36224,
                    "time": 60.6214985,
                    "velocity": 0.4566929133858268
                },
                {
                    "duration": 0.20796644531249342,
                    "durationTicks": 126,
                    "midi": 42,
                    "name": "F#2",
                    "ticks": 36352,
                    "time": 60.83276600000001,
                    "velocity": 0.3464566929133858
                },
                {
                    "duration": 0.09573058593750261,
                    "durationTicks": 58,
                    "midi": 49,
                    "name": "C#3",
                    "ticks": 36608,
                    "time": 61.255301,
                    "velocity": 0.6062992125984252
                },
                {
                    "duration": 0.09573058593750261,
                    "durationTicks": 58,
                    "midi": 58,
                    "name": "A#3",
                    "ticks": 36608,
                    "time": 61.255301,
                    "velocity": 0.5905511811023622
                },
                {
                    "duration": 0.0957305859374955,
                    "durationTicks": 58,
                    "midi": 48,
                    "name": "C3",
                    "ticks": 36672,
                    "time": 61.360934750000006,
                    "velocity": 0.36220472440944884
                },
                {
                    "duration": 0.10398322265624671,
                    "durationTicks": 63,
                    "midi": 49,
                    "name": "C#3",
                    "ticks": 36736,
                    "time": 61.46656850000001,
                    "velocity": 0.44881889763779526
                },
                {
                    "duration": 0.20796644531250053,
                    "durationTicks": 126,
                    "midi": 38,
                    "name": "D2",
                    "ticks": 36864,
                    "time": 61.677836000000006,
                    "velocity": 0.36220472440944884
                },
                {
                    "duration": 0.09573058593750261,
                    "durationTicks": 58,
                    "midi": 50,
                    "name": "D3",
                    "ticks": 37120,
                    "time": 62.100371,
                    "velocity": 0.5905511811023622
                },
                {
                    "duration": 0.09573058593750261,
                    "durationTicks": 58,
                    "midi": 58,
                    "name": "A#3",
                    "ticks": 37120,
                    "time": 62.100371,
                    "velocity": 0.5905511811023622
                },
                {
                    "duration": 0.09573058593750261,
                    "durationTicks": 58,
                    "midi": 49,
                    "name": "C#3",
                    "ticks": 37184,
                    "time": 62.206004750000005,
                    "velocity": 0.3700787401574803
                },
                {
                    "duration": 0.10398322265624671,
                    "durationTicks": 63,
                    "midi": 50,
                    "name": "D3",
                    "ticks": 37248,
                    "time": 62.31163850000001,
                    "velocity": 0.47244094488188976
                },
                {
                    "duration": 0.20796644531250053,
                    "durationTicks": 126,
                    "midi": 42,
                    "name": "F#2",
                    "ticks": 37376,
                    "time": 62.522906000000006,
                    "velocity": 0.3858267716535433
                },
                {
                    "duration": 0.09573058593750261,
                    "durationTicks": 58,
                    "midi": 49,
                    "name": "C#3",
                    "ticks": 37632,
                    "time": 62.945441,
                    "velocity": 0.6062992125984252
                },
                {
                    "duration": 0.09573058593750261,
                    "durationTicks": 58,
                    "midi": 58,
                    "name": "A#3",
                    "ticks": 37632,
                    "time": 62.945441,
                    "velocity": 0.6220472440944882
                },
                {
                    "duration": 0.09573058593750261,
                    "durationTicks": 58,
                    "midi": 48,
                    "name": "C3",
                    "ticks": 37696,
                    "time": 63.051074750000005,
                    "velocity": 0.3700787401574803
                },
                {
                    "duration": 0.10398322265624671,
                    "durationTicks": 63,
                    "midi": 49,
                    "name": "C#3",
                    "ticks": 37760,
                    "time": 63.15670850000001,
                    "velocity": 0.4881889763779528
                },
                {
                    "duration": 0.20796644531250053,
                    "durationTicks": 126,
                    "midi": 42,
                    "name": "F#2",
                    "ticks": 37888,
                    "time": 63.367976000000006,
                    "velocity": 0.4094488188976378
                },
                {
                    "duration": 0.09573058593750261,
                    "durationTicks": 58,
                    "midi": 49,
                    "name": "C#3",
                    "ticks": 38144,
                    "time": 63.790511,
                    "velocity": 0.6299212598425197
                },
                {
                    "duration": 0.09573058593750261,
                    "durationTicks": 58,
                    "midi": 58,
                    "name": "A#3",
                    "ticks": 38144,
                    "time": 63.790511,
                    "velocity": 0.6456692913385826
                },
                {
                    "duration": 0.09573058593750261,
                    "durationTicks": 58,
                    "midi": 48,
                    "name": "C3",
                    "ticks": 38208,
                    "time": 63.896144750000005,
                    "velocity": 0.4094488188976378
                },
                {
                    "duration": 0.10398322265625382,
                    "durationTicks": 63,
                    "midi": 49,
                    "name": "C#3",
                    "ticks": 38272,
                    "time": 64.0017785,
                    "velocity": 0.49606299212598426
                },
                {
                    "duration": 0.20796644531249342,
                    "durationTicks": 126,
                    "midi": 42,
                    "name": "F#2",
                    "ticks": 38400,
                    "time": 64.213046,
                    "velocity": 0.4251968503937008
                },
                {
                    "duration": 0.09573058593750261,
                    "durationTicks": 58,
                    "midi": 49,
                    "name": "C#3",
                    "ticks": 38656,
                    "time": 64.635581,
                    "velocity": 0.6614173228346457
                },
                {
                    "duration": 0.09573058593750261,
                    "durationTicks": 58,
                    "midi": 58,
                    "name": "A#3",
                    "ticks": 38656,
                    "time": 64.635581,
                    "velocity": 0.6456692913385826
                },
                {
                    "duration": 0.09573058593750261,
                    "durationTicks": 58,
                    "midi": 48,
                    "name": "C3",
                    "ticks": 38720,
                    "time": 64.74121475000001,
                    "velocity": 0.41732283464566927
                },
                {
                    "duration": 0.10398322265625382,
                    "durationTicks": 63,
                    "midi": 49,
                    "name": "C#3",
                    "ticks": 38784,
                    "time": 64.84684850000001,
                    "velocity": 0.5039370078740157
                },
                {
                    "duration": 0.20796644531249342,
                    "durationTicks": 126,
                    "midi": 38,
                    "name": "D2",
                    "ticks": 38912,
                    "time": 65.05811600000001,
                    "velocity": 0.4015748031496063
                },
                {
                    "duration": 0.09573058593750261,
                    "durationTicks": 58,
                    "midi": 50,
                    "name": "D3",
                    "ticks": 39168,
                    "time": 65.480651,
                    "velocity": 0.6614173228346457
                },
                {
                    "duration": 0.09573058593750261,
                    "durationTicks": 58,
                    "midi": 58,
                    "name": "A#3",
                    "ticks": 39168,
                    "time": 65.480651,
                    "velocity": 0.6535433070866141
                },
                {
                    "duration": 0.09573058593750261,
                    "durationTicks": 58,
                    "midi": 49,
                    "name": "C#3",
                    "ticks": 39232,
                    "time": 65.58628475,
                    "velocity": 0.4409448818897638
                },
                {
                    "duration": 0.1039832226562396,
                    "durationTicks": 63,
                    "midi": 50,
                    "name": "D3",
                    "ticks": 39296,
                    "time": 65.69191850000001,
                    "velocity": 0.5354330708661418
                },
                {
                    "duration": 0.20796644531250763,
                    "durationTicks": 126,
                    "midi": 42,
                    "name": "F#2",
                    "ticks": 39424,
                    "time": 65.903186,
                    "velocity": 0.4251968503937008
                },
                {
                    "duration": 0.0957305859374884,
                    "durationTicks": 58,
                    "midi": 49,
                    "name": "C#3",
                    "ticks": 39680,
                    "time": 66.32572100000002,
                    "velocity": 0.6692913385826772
                },
                {
                    "duration": 0.0957305859374884,
                    "durationTicks": 58,
                    "midi": 58,
                    "name": "A#3",
                    "ticks": 39680,
                    "time": 66.32572100000002,
                    "velocity": 0.6771653543307087
                },
                {
                    "duration": 0.09573058593750261,
                    "durationTicks": 58,
                    "midi": 48,
                    "name": "C3",
                    "ticks": 39744,
                    "time": 66.43135475,
                    "velocity": 0.4094488188976378
                },
                {
                    "duration": 0.1039832226562396,
                    "durationTicks": 63,
                    "midi": 49,
                    "name": "C#3",
                    "ticks": 39808,
                    "time": 66.5369885,
                    "velocity": 0.5433070866141733
                },
                {
                    "duration": 0.20796644531250763,
                    "durationTicks": 126,
                    "midi": 42,
                    "name": "F#2",
                    "ticks": 39936,
                    "time": 66.748256,
                    "velocity": 0.4645669291338583
                },
                {
                    "duration": 0.09573058593750261,
                    "durationTicks": 58,
                    "midi": 49,
                    "name": "C#3",
                    "ticks": 40192,
                    "time": 67.17079100000001,
                    "velocity": 0.6929133858267716
                },
                {
                    "duration": 0.09573058593750261,
                    "durationTicks": 58,
                    "midi": 58,
                    "name": "A#3",
                    "ticks": 40192,
                    "time": 67.17079100000001,
                    "velocity": 0.7086614173228346
                },
                {
                    "duration": 0.09573058593750261,
                    "durationTicks": 58,
                    "midi": 48,
                    "name": "C3",
                    "ticks": 40256,
                    "time": 67.27642475,
                    "velocity": 0.4566929133858268
                },
                {
                    "duration": 0.10398322265625382,
                    "durationTicks": 63,
                    "midi": 49,
                    "name": "C#3",
                    "ticks": 40320,
                    "time": 67.3820585,
                    "velocity": 0.5669291338582677
                },
                {
                    "duration": 0.20796644531249342,
                    "durationTicks": 126,
                    "midi": 42,
                    "name": "F#2",
                    "ticks": 40448,
                    "time": 67.593326,
                    "velocity": 0.4645669291338583
                },
                {
                    "duration": 0.09573058593750261,
                    "durationTicks": 58,
                    "midi": 49,
                    "name": "C#3",
                    "ticks": 40704,
                    "time": 68.015861,
                    "velocity": 0.7322834645669292
                },
                {
                    "duration": 0.09573058593750261,
                    "durationTicks": 58,
                    "midi": 58,
                    "name": "A#3",
                    "ticks": 40704,
                    "time": 68.015861,
                    "velocity": 0.7322834645669292
                },
                {
                    "duration": 0.09573058593750261,
                    "durationTicks": 58,
                    "midi": 48,
                    "name": "C3",
                    "ticks": 40768,
                    "time": 68.12149475000001,
                    "velocity": 0.4409448818897638
                },
                {
                    "duration": 0.10398322265625382,
                    "durationTicks": 63,
                    "midi": 49,
                    "name": "C#3",
                    "ticks": 40832,
                    "time": 68.2271285,
                    "velocity": 0.5748031496062992
                },
                {
                    "duration": 0.20796644531249342,
                    "durationTicks": 126,
                    "midi": 38,
                    "name": "D2",
                    "ticks": 40960,
                    "time": 68.43839600000001,
                    "velocity": 0.4409448818897638
                },
                {
                    "duration": 0.0957305859374884,
                    "durationTicks": 58,
                    "midi": 50,
                    "name": "D3",
                    "ticks": 41216,
                    "time": 68.86093100000001,
                    "velocity": 0.7165354330708661
                },
                {
                    "duration": 0.0957305859374884,
                    "durationTicks": 58,
                    "midi": 58,
                    "name": "A#3",
                    "ticks": 41216,
                    "time": 68.86093100000001,
                    "velocity": 0.7322834645669292
                },
                {
                    "duration": 0.09573058593750261,
                    "durationTicks": 58,
                    "midi": 49,
                    "name": "C#3",
                    "ticks": 41280,
                    "time": 68.96656475,
                    "velocity": 0.4645669291338583
                },
                {
                    "duration": 0.1039832226562396,
                    "durationTicks": 63,
                    "midi": 50,
                    "name": "D3",
                    "ticks": 41344,
                    "time": 69.07219850000001,
                    "velocity": 0.5984251968503937
                },
                {
                    "duration": 0.20796644531250763,
                    "durationTicks": 126,
                    "midi": 42,
                    "name": "F#2",
                    "ticks": 41472,
                    "time": 69.283466,
                    "velocity": 0.44881889763779526
                },
                {
                    "duration": 0.0957305859374884,
                    "durationTicks": 58,
                    "midi": 49,
                    "name": "C#3",
                    "ticks": 41728,
                    "time": 69.70600100000001,
                    "velocity": 0.7637795275590551
                },
                {
                    "duration": 0.0957305859374884,
                    "durationTicks": 58,
                    "midi": 58,
                    "name": "A#3",
                    "ticks": 41728,
                    "time": 69.70600100000001,
                    "velocity": 0.7480314960629921
                },
                {
                    "duration": 0.09573058593750261,
                    "durationTicks": 58,
                    "midi": 48,
                    "name": "C3",
                    "ticks": 41792,
                    "time": 69.81163475,
                    "velocity": 0.47244094488188976
                },
                {
                    "duration": 0.1039832226562396,
                    "durationTicks": 63,
                    "midi": 49,
                    "name": "C#3",
                    "ticks": 41856,
                    "time": 69.9172685,
                    "velocity": 0.5984251968503937
                },
                {
                    "duration": 0.12446117578124927,
                    "durationTicks": 77,
                    "midi": 35,
                    "name": "B1",
                    "ticks": 41984,
                    "time": 70.128536,
                    "velocity": 0.47244094488188976
                },
                {
                    "duration": 0.12446117578124927,
                    "durationTicks": 77,
                    "midi": 41,
                    "name": "F2",
                    "ticks": 42069,
                    "time": 70.26592820703125,
                    "velocity": 0.7007874015748031
                },
                {
                    "duration": 0.12607755468749815,
                    "durationTicks": 78,
                    "midi": 42,
                    "name": "F#2",
                    "ticks": 42154,
                    "time": 70.40332041406249,
                    "velocity": 0.6771653543307087
                },
                {
                    "duration": 0.12446117578124927,
                    "durationTicks": 77,
                    "midi": 50,
                    "name": "D3",
                    "ticks": 42240,
                    "time": 70.542329,
                    "velocity": 0.7637795275590551
                },
                {
                    "duration": 0.12446117578124927,
                    "durationTicks": 77,
                    "midi": 41,
                    "name": "F2",
                    "ticks": 42325,
                    "time": 70.67972120703125,
                    "velocity": 0.5275590551181102
                },
                {
                    "duration": 0.12607755468751236,
                    "durationTicks": 78,
                    "midi": 42,
                    "name": "F#2",
                    "ticks": 42410,
                    "time": 70.81711341406249,
                    "velocity": 0.6299212598425197
                },
                {
                    "duration": 0.12446117578124927,
                    "durationTicks": 77,
                    "midi": 35,
                    "name": "B1",
                    "ticks": 42496,
                    "time": 70.956122,
                    "velocity": 0.5275590551181102
                },
                {
                    "duration": 0.12446117578124927,
                    "durationTicks": 77,
                    "midi": 41,
                    "name": "F2",
                    "ticks": 42581,
                    "time": 71.09351420703125,
                    "velocity": 0.7007874015748031
                },
                {
                    "duration": 0.12607755468749815,
                    "durationTicks": 78,
                    "midi": 42,
                    "name": "F#2",
                    "ticks": 42666,
                    "time": 71.2309064140625,
                    "velocity": 0.6535433070866141
                },
                {
                    "duration": 0.12446117578124927,
                    "durationTicks": 77,
                    "midi": 50,
                    "name": "D3",
                    "ticks": 42752,
                    "time": 71.36991499999999,
                    "velocity": 0.7716535433070866
                },
                {
                    "duration": 0.12446117578124927,
                    "durationTicks": 77,
                    "midi": 41,
                    "name": "F2",
                    "ticks": 42837,
                    "time": 71.50730720703125,
                    "velocity": 0.5196850393700787
                },
                {
                    "duration": 0.12607755468749815,
                    "durationTicks": 78,
                    "midi": 42,
                    "name": "F#2",
                    "ticks": 42922,
                    "time": 71.6446994140625,
                    "velocity": 0.6299212598425197
                },
                {
                    "duration": 0.12446117578126348,
                    "durationTicks": 77,
                    "midi": 35,
                    "name": "B1",
                    "ticks": 43008,
                    "time": 71.78370799999999,
                    "velocity": 0.5354330708661418
                },
                {
                    "duration": 0.12446117578124927,
                    "durationTicks": 77,
                    "midi": 41,
                    "name": "F2",
                    "ticks": 43093,
                    "time": 71.92110020703124,
                    "velocity": 0.7165354330708661
                },
                {
                    "duration": 0.12607755468749815,
                    "durationTicks": 78,
                    "midi": 42,
                    "name": "F#2",
                    "ticks": 43178,
                    "time": 72.0584924140625,
                    "velocity": 0.6850393700787402
                },
                {
                    "duration": 0.12446117578124927,
                    "durationTicks": 77,
                    "midi": 49,
                    "name": "C#3",
                    "ticks": 43264,
                    "time": 72.197501,
                    "velocity": 0.7716535433070866
                },
                {
                    "duration": 0.12446117578124927,
                    "durationTicks": 77,
                    "midi": 41,
                    "name": "F2",
                    "ticks": 43349,
                    "time": 72.33489320703124,
                    "velocity": 0.5354330708661418
                },
                {
                    "duration": 0.12607755468749815,
                    "durationTicks": 78,
                    "midi": 42,
                    "name": "F#2",
                    "ticks": 43434,
                    "time": 72.4722854140625,
                    "velocity": 0.6220472440944882
                },
                {
                    "duration": 0.12446117578124927,
                    "durationTicks": 77,
                    "midi": 35,
                    "name": "B1",
                    "ticks": 43520,
                    "time": 72.611294,
                    "velocity": 0.5511811023622047
                },
                {
                    "duration": 0.12446117578124927,
                    "durationTicks": 77,
                    "midi": 41,
                    "name": "F2",
                    "ticks": 43605,
                    "time": 72.74868620703124,
                    "velocity": 0.7244094488188977
                },
                {
                    "duration": 0.12607755468749815,
                    "durationTicks": 78,
                    "midi": 42,
                    "name": "F#2",
                    "ticks": 43690,
                    "time": 72.8860784140625,
                    "velocity": 0.6771653543307087
                },
                {
                    "duration": 0.12446117578124927,
                    "durationTicks": 77,
                    "midi": 48,
                    "name": "C3",
                    "ticks": 43776,
                    "time": 73.025087,
                    "velocity": 0.7480314960629921
                },
                {
                    "duration": 0.12446117578124927,
                    "durationTicks": 77,
                    "midi": 41,
                    "name": "F2",
                    "ticks": 43861,
                    "time": 73.16247920703125,
                    "velocity": 0.5118110236220472
                },
                {
                    "duration": 0.12607755468749815,
                    "durationTicks": 78,
                    "midi": 42,
                    "name": "F#2",
                    "ticks": 43946,
                    "time": 73.2998714140625,
                    "velocity": 0.6220472440944882
                },
                {
                    "duration": 0.12446117578124927,
                    "durationTicks": 77,
                    "midi": 35,
                    "name": "B1",
                    "ticks": 44032,
                    "time": 73.43888,
                    "velocity": 0.5433070866141733
                },
                {
                    "duration": 0.12446117578124927,
                    "durationTicks": 77,
                    "midi": 41,
                    "name": "F2",
                    "ticks": 44117,
                    "time": 73.57627220703125,
                    "velocity": 0.7086614173228346
                },
                {
                    "duration": 0.12607755468749815,
                    "durationTicks": 78,
                    "midi": 42,
                    "name": "F#2",
                    "ticks": 44202,
                    "time": 73.71366441406249,
                    "velocity": 0.6614173228346457
                },
                {
                    "duration": 0.12446117578124927,
                    "durationTicks": 77,
                    "midi": 50,
                    "name": "D3",
                    "ticks": 44288,
                    "time": 73.852673,
                    "velocity": 0.7795275590551181
                },
                {
                    "duration": 0.12446117578124927,
                    "durationTicks": 77,
                    "midi": 41,
                    "name": "F2",
                    "ticks": 44373,
                    "time": 73.99006520703125,
                    "velocity": 0.5275590551181102
                },
                {
                    "duration": 0.12607755468751236,
                    "durationTicks": 78,
                    "midi": 42,
                    "name": "F#2",
                    "ticks": 44458,
                    "time": 74.12745741406249,
                    "velocity": 0.6377952755905512
                },
                {
                    "duration": 0.12446117578124927,
                    "durationTicks": 77,
                    "midi": 35,
                    "name": "B1",
                    "ticks": 44544,
                    "time": 74.266466,
                    "velocity": 0.5275590551181102
                },
                {
                    "duration": 0.12446117578124927,
                    "durationTicks": 77,
                    "midi": 41,
                    "name": "F2",
                    "ticks": 44629,
                    "time": 74.40385820703125,
                    "velocity": 0.7007874015748031
                },
                {
                    "duration": 0.12607755468749815,
                    "durationTicks": 78,
                    "midi": 42,
                    "name": "F#2",
                    "ticks": 44714,
                    "time": 74.5412504140625,
                    "velocity": 0.6614173228346457
                },
                {
                    "duration": 0.12446117578124927,
                    "durationTicks": 77,
                    "midi": 50,
                    "name": "D3",
                    "ticks": 44800,
                    "time": 74.68025899999999,
                    "velocity": 0.7795275590551181
                },
                {
                    "duration": 0.12446117578124927,
                    "durationTicks": 77,
                    "midi": 41,
                    "name": "F2",
                    "ticks": 44885,
                    "time": 74.81765120703125,
                    "velocity": 0.49606299212598426
                },
                {
                    "duration": 0.12607755468749815,
                    "durationTicks": 78,
                    "midi": 42,
                    "name": "F#2",
                    "ticks": 44970,
                    "time": 74.9550434140625,
                    "velocity": 0.6456692913385826
                },
                {
                    "duration": 0.12446117578126348,
                    "durationTicks": 77,
                    "midi": 38,
                    "name": "D2",
                    "ticks": 45056,
                    "time": 75.09405199999999,
                    "velocity": 0.5826771653543307
                },
                {
                    "duration": 0.12446117578124927,
                    "durationTicks": 77,
                    "midi": 44,
                    "name": "G#2",
                    "ticks": 45141,
                    "time": 75.23144420703125,
                    "velocity": 0.7322834645669292
                },
                {
                    "duration": 0.12607755468749815,
                    "durationTicks": 78,
                    "midi": 45,
                    "name": "A2",
                    "ticks": 45226,
                    "time": 75.3688364140625,
                    "velocity": 0.6614173228346457
                },
                {
                    "duration": 0.12446117578124927,
                    "durationTicks": 77,
                    "midi": 54,
                    "name": "F#3",
                    "ticks": 45312,
                    "time": 75.507845,
                    "velocity": 0.7874015748031497
                },
                {
                    "duration": 0.12446117578124927,
                    "durationTicks": 77,
                    "midi": 44,
                    "name": "G#2",
                    "ticks": 45397,
                    "time": 75.64523720703124,
                    "velocity": 0.5118110236220472
                },
                {
                    "duration": 0.12607755468749815,
                    "durationTicks": 78,
                    "midi": 45,
                    "name": "A2",
                    "ticks": 45482,
                    "time": 75.7826294140625,
                    "velocity": 0.6220472440944882
                },
                {
                    "duration": 0.12446117578124927,
                    "durationTicks": 77,
                    "midi": 38,
                    "name": "D2",
                    "ticks": 45568,
                    "time": 75.921638,
                    "velocity": 0.5354330708661418
                },
                {
                    "duration": 0.12446117578124927,
                    "durationTicks": 77,
                    "midi": 44,
                    "name": "G#2",
                    "ticks": 45653,
                    "time": 76.05903020703124,
                    "velocity": 0.7007874015748031
                },
                {
                    "duration": 0.12607755468749815,
                    "durationTicks": 78,
                    "midi": 45,
                    "name": "A2",
                    "ticks": 45738,
                    "time": 76.1964224140625,
                    "velocity": 0.6850393700787402
                },
                {
                    "duration": 0.12446117578124927,
                    "durationTicks": 77,
                    "midi": 54,
                    "name": "F#3",
                    "ticks": 45824,
                    "time": 76.335431,
                    "velocity": 0.7874015748031497
                },
                {
                    "duration": 0.12446117578126348,
                    "durationTicks": 77,
                    "midi": 44,
                    "name": "G#2",
                    "ticks": 45909,
                    "time": 76.47282320703124,
                    "velocity": 0.5118110236220472
                },
                {
                    "duration": 0.12607755468749815,
                    "durationTicks": 78,
                    "midi": 45,
                    "name": "A2",
                    "ticks": 45994,
                    "time": 76.6102154140625,
                    "velocity": 0.6299212598425197
                },
                {
                    "duration": 0.12193822265625442,
                    "durationTicks": 77,
                    "midi": 35,
                    "name": "B1",
                    "ticks": 46080,
                    "time": 76.749224,
                    "velocity": 0.49606299212598426
                },
                {
                    "duration": 0.12193822265624021,
                    "durationTicks": 77,
                    "midi": 41,
                    "name": "F2",
                    "ticks": 46165,
                    "time": 76.88383112890625,
                    "velocity": 0.6850393700787402
                },
                {
                    "duration": 0.12352183593750965,
                    "durationTicks": 78,
                    "midi": 42,
                    "name": "F#2",
                    "ticks": 46250,
                    "time": 77.01843825781249,
                    "velocity": 0.6614173228346457
                },
                {
                    "duration": 0.12193822265625442,
                    "durationTicks": 77,
                    "midi": 50,
                    "name": "D3",
                    "ticks": 46336,
                    "time": 77.154629,
                    "velocity": 0.7716535433070866
                },
                {
                    "duration": 0.12193822265624021,
                    "durationTicks": 77,
                    "midi": 41,
                    "name": "F2",
                    "ticks": 46421,
                    "time": 77.28923612890625,
                    "velocity": 0.5039370078740157
                },
                {
                    "duration": 0.12352183593750965,
                    "durationTicks": 78,
                    "midi": 42,
                    "name": "F#2",
                    "ticks": 46506,
                    "time": 77.42384325781249,
                    "velocity": 0.6299212598425197
                },
                {
                    "duration": 0.12193822265624021,
                    "durationTicks": 77,
                    "midi": 35,
                    "name": "B1",
                    "ticks": 46592,
                    "time": 77.560034,
                    "velocity": 0.5354330708661418
                },
                {
                    "duration": 0.12193822265624021,
                    "durationTicks": 77,
                    "midi": 41,
                    "name": "F2",
                    "ticks": 46677,
                    "time": 77.69464112890626,
                    "velocity": 0.7086614173228346
                },
                {
                    "duration": 0.12352183593750965,
                    "durationTicks": 78,
                    "midi": 42,
                    "name": "F#2",
                    "ticks": 46762,
                    "time": 77.8292482578125,
                    "velocity": 0.6850393700787402
                },
                {
                    "duration": 0.12193822265624021,
                    "durationTicks": 77,
                    "midi": 50,
                    "name": "D3",
                    "ticks": 46848,
                    "time": 77.965439,
                    "velocity": 0.7874015748031497
                },
                {
                    "duration": 0.12193822265625442,
                    "durationTicks": 77,
                    "midi": 41,
                    "name": "F2",
                    "ticks": 46933,
                    "time": 78.10004612890624,
                    "velocity": 0.5039370078740157
                },
                {
                    "duration": 0.12352183593749544,
                    "durationTicks": 78,
                    "midi": 42,
                    "name": "F#2",
                    "ticks": 47018,
                    "time": 78.2346532578125,
                    "velocity": 0.6299212598425197
                },
                {
                    "duration": 0.12193822265624021,
                    "durationTicks": 77,
                    "midi": 35,
                    "name": "B1",
                    "ticks": 47104,
                    "time": 78.370844,
                    "velocity": 0.5433070866141733
                },
                {
                    "duration": 0.12193822265625442,
                    "durationTicks": 77,
                    "midi": 41,
                    "name": "F2",
                    "ticks": 47189,
                    "time": 78.50545112890624,
                    "velocity": 0.7165354330708661
                },
                {
                    "duration": 0.12352183593749544,
                    "durationTicks": 78,
                    "midi": 42,
                    "name": "F#2",
                    "ticks": 47274,
                    "time": 78.6400582578125,
                    "velocity": 0.6771653543307087
                },
                {
                    "duration": 0.12193822265625442,
                    "durationTicks": 77,
                    "midi": 49,
                    "name": "C#3",
                    "ticks": 47360,
                    "time": 78.77624899999999,
                    "velocity": 0.7559055118110236
                },
                {
                    "duration": 0.12193822265625442,
                    "durationTicks": 77,
                    "midi": 41,
                    "name": "F2",
                    "ticks": 47445,
                    "time": 78.91085612890625,
                    "velocity": 0.5275590551181102
                },
                {
                    "duration": 0.12352183593749544,
                    "durationTicks": 78,
                    "midi": 42,
                    "name": "F#2",
                    "ticks": 47530,
                    "time": 79.0454632578125,
                    "velocity": 0.6299212598425197
                },
                {
                    "duration": 0.12193822265625442,
                    "durationTicks": 77,
                    "midi": 35,
                    "name": "B1",
                    "ticks": 47616,
                    "time": 79.181654,
                    "velocity": 0.5433070866141733
                },
                {
                    "duration": 0.12193822265625442,
                    "durationTicks": 77,
                    "midi": 41,
                    "name": "F2",
                    "ticks": 47701,
                    "time": 79.31626112890625,
                    "velocity": 0.7165354330708661
                },
                {
                    "duration": 0.12352183593749544,
                    "durationTicks": 78,
                    "midi": 42,
                    "name": "F#2",
                    "ticks": 47786,
                    "time": 79.4508682578125,
                    "velocity": 0.6614173228346457
                },
                {
                    "duration": 0.12193822265625442,
                    "durationTicks": 77,
                    "midi": 48,
                    "name": "C3",
                    "ticks": 47872,
                    "time": 79.587059,
                    "velocity": 0.7559055118110236
                },
                {
                    "duration": 0.12193822265625442,
                    "durationTicks": 77,
                    "midi": 41,
                    "name": "F2",
                    "ticks": 47957,
                    "time": 79.72166612890625,
                    "velocity": 0.5196850393700787
                },
                {
                    "duration": 0.12352183593749544,
                    "durationTicks": 78,
                    "midi": 42,
                    "name": "F#2",
                    "ticks": 48042,
                    "time": 79.8562732578125,
                    "velocity": 0.6299212598425197
                },
                {
                    "duration": 0.12031249999999716,
                    "durationTicks": 77,
                    "midi": 35,
                    "name": "B1",
                    "ticks": 48128,
                    "time": 79.992464,
                    "velocity": 0.5354330708661418
                },
                {
                    "duration": 0.11915862499999719,
                    "durationTicks": 77,
                    "midi": 41,
                    "name": "F2",
                    "ticks": 48213,
                    "time": 80.1252765,
                    "velocity": 0.7007874015748031
                },
                {
                    "duration": 0.11922787499999288,
                    "durationTicks": 78,
                    "midi": 42,
                    "name": "F#2",
                    "ticks": 48298,
                    "time": 80.256663625,
                    "velocity": 0.6850393700787402
                },
                {
                    "duration": 0.3423856601562534,
                    "durationTicks": 231,
                    "midi": 47,
                    "name": "B2",
                    "ticks": 48384,
                    "time": 80.38812,
                    "velocity": 0.8503937007874016
                },
                {
                    "duration": 0.3423856601562534,
                    "durationTicks": 231,
                    "midi": 59,
                    "name": "B3",
                    "ticks": 48384,
                    "time": 80.38812,
                    "velocity": 0.8582677165354331
                },
                {
                    "duration": 0.32854623437499697,
                    "durationTicks": 231,
                    "midi": 45,
                    "name": "A2",
                    "ticks": 48640,
                    "time": 80.767129,
                    "velocity": 0.6929133858267716
                },
                {
                    "duration": 0.32854623437499697,
                    "durationTicks": 231,
                    "midi": 47,
                    "name": "B2",
                    "ticks": 48640,
                    "time": 80.767129,
                    "velocity": 0.6771653543307087
                },
                {
                    "duration": 0.32854623437499697,
                    "durationTicks": 231,
                    "midi": 57,
                    "name": "A3",
                    "ticks": 48640,
                    "time": 80.767129,
                    "velocity": 0.6771653543307087
                },
                {
                    "duration": 0.3157824062499941,
                    "durationTicks": 231,
                    "midi": 43,
                    "name": "G2",
                    "ticks": 48896,
                    "time": 81.130835,
                    "velocity": 0.6850393700787402
                },
                {
                    "duration": 0.3157824062499941,
                    "durationTicks": 231,
                    "midi": 47,
                    "name": "B2",
                    "ticks": 48896,
                    "time": 81.130835,
                    "velocity": 0.6692913385826772
                },
                {
                    "duration": 0.3157824062499941,
                    "durationTicks": 231,
                    "midi": 55,
                    "name": "G3",
                    "ticks": 48896,
                    "time": 81.130835,
                    "velocity": 0.6771653543307087
                },
                {
                    "duration": 0.3039730781249972,
                    "durationTicks": 231,
                    "midi": 42,
                    "name": "F#2",
                    "ticks": 49152,
                    "time": 81.48042600000001,
                    "velocity": 0.7322834645669292
                },
                {
                    "duration": 0.3039730781249972,
                    "durationTicks": 231,
                    "midi": 47,
                    "name": "B2",
                    "ticks": 49152,
                    "time": 81.48042600000001,
                    "velocity": 0.7322834645669292
                },
                {
                    "duration": 0.3039730781249972,
                    "durationTicks": 231,
                    "midi": 54,
                    "name": "F#3",
                    "ticks": 49152,
                    "time": 81.48042600000001,
                    "velocity": 0.7244094488188977
                },
                {
                    "duration": 0.2930158945312513,
                    "durationTicks": 231,
                    "midi": 40,
                    "name": "E2",
                    "ticks": 49408,
                    "time": 81.81695650000002,
                    "velocity": 0.905511811023622
                },
                {
                    "duration": 0.2930158945312513,
                    "durationTicks": 231,
                    "midi": 47,
                    "name": "B2",
                    "ticks": 49408,
                    "time": 81.81695650000002,
                    "velocity": 0.905511811023622
                },
                {
                    "duration": 0.2930158945312513,
                    "durationTicks": 231,
                    "midi": 52,
                    "name": "E3",
                    "ticks": 49408,
                    "time": 81.81695650000002,
                    "velocity": 0.8976377952755905
                },
                {
                    "duration": 0.2849502304687519,
                    "durationTicks": 231,
                    "midi": 38,
                    "name": "D2",
                    "ticks": 49664,
                    "time": 82.14136800000003,
                    "velocity": 0.9212598425196851
                },
                {
                    "duration": 0.2849502304687519,
                    "durationTicks": 231,
                    "midi": 47,
                    "name": "B2",
                    "ticks": 49664,
                    "time": 82.14136800000003,
                    "velocity": 0.9212598425196851
                },
                {
                    "duration": 0.2849502304687519,
                    "durationTicks": 231,
                    "midi": 50,
                    "name": "D3",
                    "ticks": 49664,
                    "time": 82.14136800000003,
                    "velocity": 0.9291338582677166
                },
                {
                    "duration": 0.2849502304687519,
                    "durationTicks": 231,
                    "midi": 37,
                    "name": "C#2",
                    "ticks": 49920,
                    "time": 82.45715700000002,
                    "velocity": 0.9448818897637795
                },
                {
                    "duration": 0.2849502304687519,
                    "durationTicks": 231,
                    "midi": 47,
                    "name": "B2",
                    "ticks": 49920,
                    "time": 82.45715700000002,
                    "velocity": 0.952755905511811
                },
                {
                    "duration": 0.2849502304687519,
                    "durationTicks": 231,
                    "midi": 49,
                    "name": "C#3",
                    "ticks": 49920,
                    "time": 82.45715700000002,
                    "velocity": 0.9291338582677166
                },
                {
                    "duration": 0.07771369921874793,
                    "durationTicks": 63,
                    "midi": 35,
                    "name": "B1",
                    "ticks": 50176,
                    "time": 82.77294600000003,
                    "velocity": 0.9606299212598425
                },
                {
                    "duration": 0.07771369921874793,
                    "durationTicks": 63,
                    "midi": 47,
                    "name": "B2",
                    "ticks": 50176,
                    "time": 82.77294600000003,
                    "velocity": 0.952755905511811
                },
                {
                    "duration": 0.07771369921874793,
                    "durationTicks": 63,
                    "midi": 45,
                    "name": "A2",
                    "ticks": 50304,
                    "time": 82.93084050000003,
                    "velocity": 0.8188976377952756
                },
                {
                    "duration": 0.07771369921874793,
                    "durationTicks": 63,
                    "midi": 43,
                    "name": "G2",
                    "ticks": 50432,
                    "time": 83.08873500000003,
                    "velocity": 0.8188976377952756
                },
                {
                    "duration": 0.07771369921876214,
                    "durationTicks": 63,
                    "midi": 42,
                    "name": "F#2",
                    "ticks": 50560,
                    "time": 83.24662950000003,
                    "velocity": 0.8188976377952756
                },
                {
                    "duration": 0.07771369921874793,
                    "durationTicks": 63,
                    "midi": 35,
                    "name": "B1",
                    "ticks": 50688,
                    "time": 83.40452400000004,
                    "velocity": 1
                },
                {
                    "duration": 0.07771369921874793,
                    "durationTicks": 63,
                    "midi": 47,
                    "name": "B2",
                    "ticks": 50688,
                    "time": 83.40452400000004,
                    "velocity": 1
                },
                {
                    "duration": 0.07771369921874793,
                    "durationTicks": 63,
                    "midi": 45,
                    "name": "A2",
                    "ticks": 50816,
                    "time": 83.56241850000004,
                    "velocity": 0.8188976377952756
                },
                {
                    "duration": 0.07771369921874793,
                    "durationTicks": 63,
                    "midi": 43,
                    "name": "G2",
                    "ticks": 50944,
                    "time": 83.72031300000003,
                    "velocity": 0.84251968503937
                },
                {
                    "duration": 0.07771369921874793,
                    "durationTicks": 63,
                    "midi": 42,
                    "name": "F#2",
                    "ticks": 51072,
                    "time": 83.87820750000003,
                    "velocity": 0.8110236220472441
                },
                {
                    "duration": 0.07771369921874793,
                    "durationTicks": 63,
                    "midi": 35,
                    "name": "B1",
                    "ticks": 51200,
                    "time": 84.03610200000003,
                    "velocity": 1
                },
                {
                    "duration": 0.07771369921874793,
                    "durationTicks": 63,
                    "midi": 47,
                    "name": "B2",
                    "ticks": 51200,
                    "time": 84.03610200000003,
                    "velocity": 1
                },
                {
                    "duration": 0.07771369921876214,
                    "durationTicks": 63,
                    "midi": 45,
                    "name": "A2",
                    "ticks": 51328,
                    "time": 84.19399650000003,
                    "velocity": 0.84251968503937
                },
                {
                    "duration": 0.07771369921874793,
                    "durationTicks": 63,
                    "midi": 43,
                    "name": "G2",
                    "ticks": 51456,
                    "time": 84.35189100000004,
                    "velocity": 0.84251968503937
                },
                {
                    "duration": 0.07771369921874793,
                    "durationTicks": 63,
                    "midi": 42,
                    "name": "F#2",
                    "ticks": 51584,
                    "time": 84.50978550000004,
                    "velocity": 0.8267716535433071
                },
                {
                    "duration": 0.07771369921874793,
                    "durationTicks": 63,
                    "midi": 35,
                    "name": "B1",
                    "ticks": 51712,
                    "time": 84.66768000000003,
                    "velocity": 1
                },
                {
                    "duration": 0.07771369921874793,
                    "durationTicks": 63,
                    "midi": 47,
                    "name": "B2",
                    "ticks": 51712,
                    "time": 84.66768000000003,
                    "velocity": 1
                },
                {
                    "duration": 0.07771369921874793,
                    "durationTicks": 63,
                    "midi": 45,
                    "name": "A2",
                    "ticks": 51840,
                    "time": 84.82557450000003,
                    "velocity": 0.8503937007874016
                },
                {
                    "duration": 0.07771369921874793,
                    "durationTicks": 63,
                    "midi": 43,
                    "name": "G2",
                    "ticks": 51968,
                    "time": 84.98346900000003,
                    "velocity": 0.84251968503937
                },
                {
                    "duration": 0.07771369921876214,
                    "durationTicks": 63,
                    "midi": 42,
                    "name": "F#2",
                    "ticks": 52096,
                    "time": 85.14136350000003,
                    "velocity": 0.8346456692913385
                },
                {
                    "duration": 0.07771369921874793,
                    "durationTicks": 63,
                    "midi": 35,
                    "name": "B1",
                    "ticks": 52224,
                    "time": 85.29925800000004,
                    "velocity": 1
                },
                {
                    "duration": 0.07771369921874793,
                    "durationTicks": 63,
                    "midi": 47,
                    "name": "B2",
                    "ticks": 52224,
                    "time": 85.29925800000004,
                    "velocity": 1
                },
                {
                    "duration": 0.07771369921874793,
                    "durationTicks": 63,
                    "midi": 45,
                    "name": "A2",
                    "ticks": 52352,
                    "time": 85.45715250000003,
                    "velocity": 0.84251968503937
                },
                {
                    "duration": 0.07771369921874793,
                    "durationTicks": 63,
                    "midi": 43,
                    "name": "G2",
                    "ticks": 52480,
                    "time": 85.61504700000003,
                    "velocity": 0.84251968503937
                },
                {
                    "duration": 0.07771369921874793,
                    "durationTicks": 63,
                    "midi": 42,
                    "name": "F#2",
                    "ticks": 52608,
                    "time": 85.77294150000003,
                    "velocity": 0.8188976377952756
                },
                {
                    "duration": 0.07771369921874793,
                    "durationTicks": 63,
                    "midi": 35,
                    "name": "B1",
                    "ticks": 52736,
                    "time": 85.93083600000003,
                    "velocity": 1
                },
                {
                    "duration": 0.07771369921874793,
                    "durationTicks": 63,
                    "midi": 47,
                    "name": "B2",
                    "ticks": 52736,
                    "time": 85.93083600000003,
                    "velocity": 1
                },
                {
                    "duration": 0.07771369921876214,
                    "durationTicks": 63,
                    "midi": 45,
                    "name": "A2",
                    "ticks": 52864,
                    "time": 86.08873050000003,
                    "velocity": 0.8346456692913385
                },
                {
                    "duration": 0.07771369921874793,
                    "durationTicks": 63,
                    "midi": 43,
                    "name": "G2",
                    "ticks": 52992,
                    "time": 86.24662500000004,
                    "velocity": 0.8346456692913385
                },
                {
                    "duration": 0.07771369921874793,
                    "durationTicks": 63,
                    "midi": 42,
                    "name": "F#2",
                    "ticks": 53120,
                    "time": 86.40451950000003,
                    "velocity": 0.8110236220472441
                },
                {
                    "duration": 0.07771369921874793,
                    "durationTicks": 63,
                    "midi": 38,
                    "name": "D2",
                    "ticks": 53248,
                    "time": 86.56241400000003,
                    "velocity": 1
                },
                {
                    "duration": 0.07771369921874793,
                    "durationTicks": 63,
                    "midi": 50,
                    "name": "D3",
                    "ticks": 53248,
                    "time": 86.56241400000003,
                    "velocity": 1
                },
                {
                    "duration": 0.07771369921874793,
                    "durationTicks": 63,
                    "midi": 49,
                    "name": "C#3",
                    "ticks": 53376,
                    "time": 86.72030850000003,
                    "velocity": 0.8661417322834646
                },
                {
                    "duration": 0.07771369921874793,
                    "durationTicks": 63,
                    "midi": 47,
                    "name": "B2",
                    "ticks": 53504,
                    "time": 86.87820300000003,
                    "velocity": 0.8346456692913385
                },
                {
                    "duration": 0.07771369921874793,
                    "durationTicks": 63,
                    "midi": 45,
                    "name": "A2",
                    "ticks": 53632,
                    "time": 87.03609750000004,
                    "velocity": 0.8031496062992126
                },
                {
                    "duration": 0.07771369921874793,
                    "durationTicks": 63,
                    "midi": 38,
                    "name": "D2",
                    "ticks": 53760,
                    "time": 87.19399200000004,
                    "velocity": 1
                },
                {
                    "duration": 0.07771369921874793,
                    "durationTicks": 63,
                    "midi": 50,
                    "name": "D3",
                    "ticks": 53760,
                    "time": 87.19399200000004,
                    "velocity": 1
                },
                {
                    "duration": 0.07771369921874793,
                    "durationTicks": 63,
                    "midi": 49,
                    "name": "C#3",
                    "ticks": 53888,
                    "time": 87.35188650000003,
                    "velocity": 0.84251968503937
                },
                {
                    "duration": 0.07771369921874793,
                    "durationTicks": 63,
                    "midi": 47,
                    "name": "B2",
                    "ticks": 54016,
                    "time": 87.50978100000003,
                    "velocity": 0.8503937007874016
                },
                {
                    "duration": 0.07771369921874793,
                    "durationTicks": 63,
                    "midi": 45,
                    "name": "A2",
                    "ticks": 54144,
                    "time": 87.66767550000003,
                    "velocity": 0.8188976377952756
                },
                {
                    "duration": 0.07771369921874793,
                    "durationTicks": 63,
                    "midi": 35,
                    "name": "B1",
                    "ticks": 54272,
                    "time": 87.82557000000003,
                    "velocity": 1
                },
                {
                    "duration": 0.07771369921874793,
                    "durationTicks": 63,
                    "midi": 47,
                    "name": "B2",
                    "ticks": 54272,
                    "time": 87.82557000000003,
                    "velocity": 1
                },
                {
                    "duration": 0.07771369921876214,
                    "durationTicks": 63,
                    "midi": 45,
                    "name": "A2",
                    "ticks": 54400,
                    "time": 87.98346450000003,
                    "velocity": 0.8110236220472441
                },
                {
                    "duration": 0.07771369921874793,
                    "durationTicks": 63,
                    "midi": 43,
                    "name": "G2",
                    "ticks": 54528,
                    "time": 88.14135900000004,
                    "velocity": 0.8346456692913385
                },
                {
                    "duration": 0.07771369921874793,
                    "durationTicks": 63,
                    "midi": 42,
                    "name": "F#2",
                    "ticks": 54656,
                    "time": 88.29925350000003,
                    "velocity": 0.8110236220472441
                },
                {
                    "duration": 0.07771369921874793,
                    "durationTicks": 63,
                    "midi": 35,
                    "name": "B1",
                    "ticks": 54784,
                    "time": 88.45714800000003,
                    "velocity": 1
                },
                {
                    "duration": 0.07771369921874793,
                    "durationTicks": 63,
                    "midi": 47,
                    "name": "B2",
                    "ticks": 54784,
                    "time": 88.45714800000003,
                    "velocity": 1
                },
                {
                    "duration": 0.07771369921874793,
                    "durationTicks": 63,
                    "midi": 45,
                    "name": "A2",
                    "ticks": 54912,
                    "time": 88.61504250000003,
                    "velocity": 0.84251968503937
                },
                {
                    "duration": 0.07771369921874793,
                    "durationTicks": 63,
                    "midi": 43,
                    "name": "G2",
                    "ticks": 55040,
                    "time": 88.77293700000003,
                    "velocity": 0.8346456692913385
                },
                {
                    "duration": 0.07771369921874793,
                    "durationTicks": 63,
                    "midi": 42,
                    "name": "F#2",
                    "ticks": 55168,
                    "time": 88.93083150000004,
                    "velocity": 0.8188976377952756
                },
                {
                    "duration": 0.07771369921874793,
                    "durationTicks": 63,
                    "midi": 35,
                    "name": "B1",
                    "ticks": 55296,
                    "time": 89.08872600000004,
                    "velocity": 1
                },
                {
                    "duration": 0.07771369921874793,
                    "durationTicks": 63,
                    "midi": 47,
                    "name": "B2",
                    "ticks": 55296,
                    "time": 89.08872600000004,
                    "velocity": 1
                },
                {
                    "duration": 0.07771369921874793,
                    "durationTicks": 63,
                    "midi": 45,
                    "name": "A2",
                    "ticks": 55424,
                    "time": 89.24662050000003,
                    "velocity": 0.8188976377952756
                },
                {
                    "duration": 0.07771369921874793,
                    "durationTicks": 63,
                    "midi": 43,
                    "name": "G2",
                    "ticks": 55552,
                    "time": 89.40451500000003,
                    "velocity": 0.84251968503937
                },
                {
                    "duration": 0.07771369921874793,
                    "durationTicks": 63,
                    "midi": 42,
                    "name": "F#2",
                    "ticks": 55680,
                    "time": 89.56240950000003,
                    "velocity": 0.8267716535433071
                },
                {
                    "duration": 0.07771369921874793,
                    "durationTicks": 63,
                    "midi": 35,
                    "name": "B1",
                    "ticks": 55808,
                    "time": 89.72030400000003,
                    "velocity": 1
                },
                {
                    "duration": 0.07771369921874793,
                    "durationTicks": 63,
                    "midi": 47,
                    "name": "B2",
                    "ticks": 55808,
                    "time": 89.72030400000003,
                    "velocity": 1
                },
                {
                    "duration": 0.07771369921876214,
                    "durationTicks": 63,
                    "midi": 45,
                    "name": "A2",
                    "ticks": 55936,
                    "time": 89.87819850000002,
                    "velocity": 0.8503937007874016
                },
                {
                    "duration": 0.07771369921874793,
                    "durationTicks": 63,
                    "midi": 43,
                    "name": "G2",
                    "ticks": 56064,
                    "time": 90.03609300000004,
                    "velocity": 0.8267716535433071
                },
                {
                    "duration": 0.07771369921874793,
                    "durationTicks": 63,
                    "midi": 42,
                    "name": "F#2",
                    "ticks": 56192,
                    "time": 90.19398750000003,
                    "velocity": 0.8188976377952756
                },
                {
                    "duration": 0.07771369921874793,
                    "durationTicks": 63,
                    "midi": 35,
                    "name": "B1",
                    "ticks": 56320,
                    "time": 90.35188200000003,
                    "velocity": 1
                },
                {
                    "duration": 0.07771369921874793,
                    "durationTicks": 63,
                    "midi": 47,
                    "name": "B2",
                    "ticks": 56320,
                    "time": 90.35188200000003,
                    "velocity": 1
                },
                {
                    "duration": 0.07771369921874793,
                    "durationTicks": 63,
                    "midi": 45,
                    "name": "A2",
                    "ticks": 56448,
                    "time": 90.50977650000003,
                    "velocity": 0.8267716535433071
                },
                {
                    "duration": 0.07771369921876214,
                    "durationTicks": 63,
                    "midi": 43,
                    "name": "G2",
                    "ticks": 56576,
                    "time": 90.66767100000003,
                    "velocity": 0.8346456692913385
                },
                {
                    "duration": 0.07771369921874793,
                    "durationTicks": 63,
                    "midi": 42,
                    "name": "F#2",
                    "ticks": 56704,
                    "time": 90.82556550000004,
                    "velocity": 0.8031496062992126
                },
                {
                    "duration": 0.07771369921874793,
                    "durationTicks": 63,
                    "midi": 35,
                    "name": "B1",
                    "ticks": 56832,
                    "time": 90.98346000000004,
                    "velocity": 1
                },
                {
                    "duration": 0.07771369921874793,
                    "durationTicks": 63,
                    "midi": 47,
                    "name": "B2",
                    "ticks": 56832,
                    "time": 90.98346000000004,
                    "velocity": 1
                },
                {
                    "duration": 0.07771369921874793,
                    "durationTicks": 63,
                    "midi": 45,
                    "name": "A2",
                    "ticks": 56960,
                    "time": 91.14135450000003,
                    "velocity": 0.8267716535433071
                },
                {
                    "duration": 0.07771369921874793,
                    "durationTicks": 63,
                    "midi": 43,
                    "name": "G2",
                    "ticks": 57088,
                    "time": 91.29924900000003,
                    "velocity": 0.8267716535433071
                },
                {
                    "duration": 0.07771369921874793,
                    "durationTicks": 63,
                    "midi": 42,
                    "name": "F#2",
                    "ticks": 57216,
                    "time": 91.45714350000003,
                    "velocity": 0.8346456692913385
                },
                {
                    "duration": 0.07771369921874793,
                    "durationTicks": 63,
                    "midi": 38,
                    "name": "D2",
                    "ticks": 57344,
                    "time": 91.61503800000003,
                    "velocity": 1
                },
                {
                    "duration": 0.07771369921874793,
                    "durationTicks": 63,
                    "midi": 50,
                    "name": "D3",
                    "ticks": 57344,
                    "time": 91.61503800000003,
                    "velocity": 1
                },
                {
                    "duration": 0.07771369921876214,
                    "durationTicks": 63,
                    "midi": 49,
                    "name": "C#3",
                    "ticks": 57472,
                    "time": 91.77293250000002,
                    "velocity": 0.8503937007874016
                },
                {
                    "duration": 0.07771369921874793,
                    "durationTicks": 63,
                    "midi": 47,
                    "name": "B2",
                    "ticks": 57600,
                    "time": 91.93082700000004,
                    "velocity": 0.84251968503937
                },
                {
                    "duration": 0.07771369921874793,
                    "durationTicks": 63,
                    "midi": 45,
                    "name": "A2",
                    "ticks": 57728,
                    "time": 92.08872150000003,
                    "velocity": 0.8031496062992126
                },
                {
                    "duration": 0.07771369921874793,
                    "durationTicks": 63,
                    "midi": 38,
                    "name": "D2",
                    "ticks": 57856,
                    "time": 92.24661600000003,
                    "velocity": 1
                },
                {
                    "duration": 0.07771369921874793,
                    "durationTicks": 63,
                    "midi": 50,
                    "name": "D3",
                    "ticks": 57856,
                    "time": 92.24661600000003,
                    "velocity": 1
                },
                {
                    "duration": 0.07771369921874793,
                    "durationTicks": 63,
                    "midi": 49,
                    "name": "C#3",
                    "ticks": 57984,
                    "time": 92.40451050000003,
                    "velocity": 0.8661417322834646
                },
                {
                    "duration": 0.07771369921876214,
                    "durationTicks": 63,
                    "midi": 47,
                    "name": "B2",
                    "ticks": 58112,
                    "time": 92.56240500000003,
                    "velocity": 0.84251968503937
                },
                {
                    "duration": 0.07771369921874793,
                    "durationTicks": 63,
                    "midi": 45,
                    "name": "A2",
                    "ticks": 58240,
                    "time": 92.72029950000004,
                    "velocity": 0.8188976377952756
                },
                {
                    "duration": 0.07771369921874793,
                    "durationTicks": 63,
                    "midi": 42,
                    "name": "F#2",
                    "ticks": 58368,
                    "time": 92.87819400000004,
                    "velocity": 1
                },
                {
                    "duration": 0.07771369921874793,
                    "durationTicks": 63,
                    "midi": 54,
                    "name": "F#3",
                    "ticks": 58368,
                    "time": 92.87819400000004,
                    "velocity": 1
                },
                {
                    "duration": 0.07771369921874793,
                    "durationTicks": 63,
                    "midi": 52,
                    "name": "E3",
                    "ticks": 58496,
                    "time": 93.03608850000003,
                    "velocity": 0.84251968503937
                },
                {
                    "duration": 0.07771369921874793,
                    "durationTicks": 63,
                    "midi": 50,
                    "name": "D3",
                    "ticks": 58624,
                    "time": 93.19398300000003,
                    "velocity": 0.8503937007874016
                },
                {
                    "duration": 0.07771369921874793,
                    "durationTicks": 63,
                    "midi": 49,
                    "name": "C#3",
                    "ticks": 58752,
                    "time": 93.35187750000003,
                    "velocity": 0.8188976377952756
                },
                {
                    "duration": 0.07771369921874793,
                    "durationTicks": 63,
                    "midi": 42,
                    "name": "F#2",
                    "ticks": 58880,
                    "time": 93.50977200000003,
                    "velocity": 1
                },
                {
                    "duration": 0.07771369921874793,
                    "durationTicks": 63,
                    "midi": 54,
                    "name": "F#3",
                    "ticks": 58880,
                    "time": 93.50977200000003,
                    "velocity": 1
                },
                {
                    "duration": 0.07771369921876214,
                    "durationTicks": 63,
                    "midi": 52,
                    "name": "E3",
                    "ticks": 59008,
                    "time": 93.66766650000002,
                    "velocity": 0.8346456692913385
                },
                {
                    "duration": 0.07771369921874793,
                    "durationTicks": 63,
                    "midi": 50,
                    "name": "D3",
                    "ticks": 59136,
                    "time": 93.82556100000004,
                    "velocity": 0.8503937007874016
                },
                {
                    "duration": 0.07771369921874793,
                    "durationTicks": 63,
                    "midi": 49,
                    "name": "C#3",
                    "ticks": 59264,
                    "time": 93.98345550000003,
                    "velocity": 0.8267716535433071
                },
                {
                    "duration": 0.07771369921874793,
                    "durationTicks": 63,
                    "midi": 38,
                    "name": "D2",
                    "ticks": 59392,
                    "time": 94.14135000000003,
                    "velocity": 1
                },
                {
                    "duration": 0.07771369921874793,
                    "durationTicks": 63,
                    "midi": 50,
                    "name": "D3",
                    "ticks": 59392,
                    "time": 94.14135000000003,
                    "velocity": 1
                },
                {
                    "duration": 0.07771369921874793,
                    "durationTicks": 63,
                    "midi": 49,
                    "name": "C#3",
                    "ticks": 59520,
                    "time": 94.29924450000003,
                    "velocity": 0.8188976377952756
                },
                {
                    "duration": 0.07771369921876214,
                    "durationTicks": 63,
                    "midi": 50,
                    "name": "D3",
                    "ticks": 59648,
                    "time": 94.45713900000003,
                    "velocity": 0.9448818897637795
                },
                {
                    "duration": 0.07771369921874793,
                    "durationTicks": 63,
                    "midi": 52,
                    "name": "E3",
                    "ticks": 59776,
                    "time": 94.61503350000004,
                    "velocity": 0.937007874015748
                },
                {
                    "duration": 0.07771369921874793,
                    "durationTicks": 63,
                    "midi": 42,
                    "name": "F#2",
                    "ticks": 59904,
                    "time": 94.77292800000004,
                    "velocity": 1
                },
                {
                    "duration": 0.07771369921874793,
                    "durationTicks": 63,
                    "midi": 54,
                    "name": "F#3",
                    "ticks": 59904,
                    "time": 94.77292800000004,
                    "velocity": 1
                },
                {
                    "duration": 0.07771369921874793,
                    "durationTicks": 63,
                    "midi": 52,
                    "name": "E3",
                    "ticks": 60032,
                    "time": 94.93082250000003,
                    "velocity": 0.8110236220472441
                },
                {
                    "duration": 0.07771369921874793,
                    "durationTicks": 63,
                    "midi": 50,
                    "name": "D3",
                    "ticks": 60160,
                    "time": 95.08871700000003,
                    "velocity": 0.84251968503937
                },
                {
                    "duration": 0.07771369921874793,
                    "durationTicks": 63,
                    "midi": 49,
                    "name": "C#3",
                    "ticks": 60288,
                    "time": 95.24661150000003,
                    "velocity": 0.8188976377952756
                },
                {
                    "duration": 0.07771369921874793,
                    "durationTicks": 63,
                    "midi": 42,
                    "name": "F#2",
                    "ticks": 60416,
                    "time": 95.40450600000003,
                    "velocity": 1
                },
                {
                    "duration": 0.07771369921874793,
                    "durationTicks": 63,
                    "midi": 54,
                    "name": "F#3",
                    "ticks": 60416,
                    "time": 95.40450600000003,
                    "velocity": 1
                },
                {
                    "duration": 0.07771369921876214,
                    "durationTicks": 63,
                    "midi": 52,
                    "name": "E3",
                    "ticks": 60544,
                    "time": 95.56240050000002,
                    "velocity": 0.84251968503937
                },
                {
                    "duration": 0.07771369921874793,
                    "durationTicks": 63,
                    "midi": 50,
                    "name": "D3",
                    "ticks": 60672,
                    "time": 95.72029500000004,
                    "velocity": 0.8503937007874016
                },
                {
                    "duration": 0.07771369921874793,
                    "durationTicks": 63,
                    "midi": 49,
                    "name": "C#3",
                    "ticks": 60800,
                    "time": 95.87818950000003,
                    "velocity": 0.8267716535433071
                },
                {
                    "duration": 0.07771369921874793,
                    "durationTicks": 63,
                    "midi": 42,
                    "name": "F#2",
                    "ticks": 60928,
                    "time": 96.03608400000003,
                    "velocity": 1
                },
                {
                    "duration": 0.07771369921874793,
                    "durationTicks": 63,
                    "midi": 54,
                    "name": "F#3",
                    "ticks": 60928,
                    "time": 96.03608400000003,
                    "velocity": 1
                },
                {
                    "duration": 0.07771369921874793,
                    "durationTicks": 63,
                    "midi": 52,
                    "name": "E3",
                    "ticks": 61056,
                    "time": 96.19397850000003,
                    "velocity": 0.8346456692913385
                },
                {
                    "duration": 0.07771369921876214,
                    "durationTicks": 63,
                    "midi": 50,
                    "name": "D3",
                    "ticks": 61184,
                    "time": 96.35187300000003,
                    "velocity": 0.8503937007874016
                },
                {
                    "duration": 0.07771369921874793,
                    "durationTicks": 63,
                    "midi": 49,
                    "name": "C#3",
                    "ticks": 61312,
                    "time": 96.50976750000004,
                    "velocity": 0.8267716535433071
                },
                {
                    "duration": 0.07771369921874793,
                    "durationTicks": 63,
                    "midi": 38,
                    "name": "D2",
                    "ticks": 61440,
                    "time": 96.66766200000004,
                    "velocity": 1
                },
                {
                    "duration": 0.07771369921874793,
                    "durationTicks": 63,
                    "midi": 50,
                    "name": "D3",
                    "ticks": 61440,
                    "time": 96.66766200000004,
                    "velocity": 1
                },
                {
                    "duration": 0.07771369921874793,
                    "durationTicks": 63,
                    "midi": 49,
                    "name": "C#3",
                    "ticks": 61568,
                    "time": 96.82555650000003,
                    "velocity": 0.8267716535433071
                },
                {
                    "duration": 0.07771369921874793,
                    "durationTicks": 63,
                    "midi": 50,
                    "name": "D3",
                    "ticks": 61696,
                    "time": 96.98345100000003,
                    "velocity": 0.9133858267716536
                },
                {
                    "duration": 0.07771369921874793,
                    "durationTicks": 63,
                    "midi": 52,
                    "name": "E3",
                    "ticks": 61824,
                    "time": 97.14134550000003,
                    "velocity": 0.9133858267716536
                },
                {
                    "duration": 0.07771369921874793,
                    "durationTicks": 63,
                    "midi": 42,
                    "name": "F#2",
                    "ticks": 61952,
                    "time": 97.29924000000003,
                    "velocity": 1
                },
                {
                    "duration": 0.07771369921874793,
                    "durationTicks": 63,
                    "midi": 54,
                    "name": "F#3",
                    "ticks": 61952,
                    "time": 97.29924000000003,
                    "velocity": 1
                },
                {
                    "duration": 0.07771369921876214,
                    "durationTicks": 63,
                    "midi": 52,
                    "name": "E3",
                    "ticks": 62080,
                    "time": 97.45713450000002,
                    "velocity": 0.8267716535433071
                },
                {
                    "duration": 0.07771369921874793,
                    "durationTicks": 63,
                    "midi": 50,
                    "name": "D3",
                    "ticks": 62208,
                    "time": 97.61502900000004,
                    "velocity": 0.84251968503937
                },
                {
                    "duration": 0.07771369921874793,
                    "durationTicks": 63,
                    "midi": 49,
                    "name": "C#3",
                    "ticks": 62336,
                    "time": 97.77292350000003,
                    "velocity": 0.8110236220472441
                },
                {
                    "duration": 0.07771369921874793,
                    "durationTicks": 63,
                    "midi": 42,
                    "name": "F#2",
                    "ticks": 62464,
                    "time": 97.93081800000003,
                    "velocity": 1
                },
                {
                    "duration": 0.07771369921874793,
                    "durationTicks": 63,
                    "midi": 54,
                    "name": "F#3",
                    "ticks": 62464,
                    "time": 97.93081800000003,
                    "velocity": 1
                },
                {
                    "duration": 0.07771369921874793,
                    "durationTicks": 63,
                    "midi": 53,
                    "name": "F3",
                    "ticks": 62592,
                    "time": 98.08871250000003,
                    "velocity": 0.8582677165354331
                },
                {
                    "duration": 0.07771369921876214,
                    "durationTicks": 63,
                    "midi": 51,
                    "name": "D#3",
                    "ticks": 62720,
                    "time": 98.24660700000003,
                    "velocity": 0.8346456692913385
                },
                {
                    "duration": 0.07771369921874793,
                    "durationTicks": 63,
                    "midi": 49,
                    "name": "C#3",
                    "ticks": 62848,
                    "time": 98.40450150000004,
                    "velocity": 0.8188976377952756
                },
                {
                    "duration": 0.07771369921874793,
                    "durationTicks": 63,
                    "midi": 42,
                    "name": "F#2",
                    "ticks": 62976,
                    "time": 98.56239600000004,
                    "velocity": 1
                },
                {
                    "duration": 0.07771369921874793,
                    "durationTicks": 63,
                    "midi": 54,
                    "name": "F#3",
                    "ticks": 62976,
                    "time": 98.56239600000004,
                    "velocity": 1
                },
                {
                    "duration": 0.07771369921874793,
                    "durationTicks": 63,
                    "midi": 53,
                    "name": "F3",
                    "ticks": 63104,
                    "time": 98.72029050000003,
                    "velocity": 0.8346456692913385
                },
                {
                    "duration": 0.07771369921874793,
                    "durationTicks": 63,
                    "midi": 51,
                    "name": "D#3",
                    "ticks": 63232,
                    "time": 98.87818500000003,
                    "velocity": 0.8582677165354331
                },
                {
                    "duration": 0.07771369921874793,
                    "durationTicks": 63,
                    "midi": 49,
                    "name": "C#3",
                    "ticks": 63360,
                    "time": 99.03607950000003,
                    "velocity": 0.8110236220472441
                },
                {
                    "duration": 0.07771369921874793,
                    "durationTicks": 63,
                    "midi": 39,
                    "name": "D#2",
                    "ticks": 63488,
                    "time": 99.19397400000003,
                    "velocity": 1
                },
                {
                    "duration": 0.07771369921874793,
                    "durationTicks": 63,
                    "midi": 51,
                    "name": "D#3",
                    "ticks": 63488,
                    "time": 99.19397400000003,
                    "velocity": 1
                },
                {
                    "duration": 0.07771369921876214,
                    "durationTicks": 63,
                    "midi": 49,
                    "name": "C#3",
                    "ticks": 63616,
                    "time": 99.35186850000002,
                    "velocity": 0.8188976377952756
                },
                {
                    "duration": 0.07771369921874793,
                    "durationTicks": 63,
                    "midi": 51,
                    "name": "D#3",
                    "ticks": 63744,
                    "time": 99.50976300000004,
                    "velocity": 0.937007874015748
                },
                {
                    "duration": 0.07771369921874793,
                    "durationTicks": 63,
                    "midi": 53,
                    "name": "F3",
                    "ticks": 63872,
                    "time": 99.66765750000003,
                    "velocity": 0.9212598425196851
                },
                {
                    "duration": 0.07771369921874793,
                    "durationTicks": 63,
                    "midi": 42,
                    "name": "F#2",
                    "ticks": 64000,
                    "time": 99.82555200000003,
                    "velocity": 1
                },
                {
                    "duration": 0.07771369921874793,
                    "durationTicks": 63,
                    "midi": 54,
                    "name": "F#3",
                    "ticks": 64000,
                    "time": 99.82555200000003,
                    "velocity": 1
                },
                {
                    "duration": 0.07771369921876214,
                    "durationTicks": 63,
                    "midi": 53,
                    "name": "F3",
                    "ticks": 64128,
                    "time": 99.98344650000003,
                    "velocity": 0.8503937007874016
                },
                {
                    "duration": 0.07771369921874793,
                    "durationTicks": 63,
                    "midi": 51,
                    "name": "D#3",
                    "ticks": 64256,
                    "time": 100.14134100000004,
                    "velocity": 0.8267716535433071
                },
                {
                    "duration": 0.07771369921874793,
                    "durationTicks": 63,
                    "midi": 49,
                    "name": "C#3",
                    "ticks": 64384,
                    "time": 100.29923550000004,
                    "velocity": 0.7952755905511811
                },
                {
                    "duration": 0.07771369921874793,
                    "durationTicks": 63,
                    "midi": 42,
                    "name": "F#2",
                    "ticks": 64512,
                    "time": 100.45713000000003,
                    "velocity": 1
                },
                {
                    "duration": 0.07771369921874793,
                    "durationTicks": 63,
                    "midi": 54,
                    "name": "F#3",
                    "ticks": 64512,
                    "time": 100.45713000000003,
                    "velocity": 1
                },
                {
                    "duration": 0.07771369921874793,
                    "durationTicks": 63,
                    "midi": 53,
                    "name": "F3",
                    "ticks": 64640,
                    "time": 100.61502450000003,
                    "velocity": 0.8503937007874016
                },
                {
                    "duration": 0.07771369921874793,
                    "durationTicks": 63,
                    "midi": 51,
                    "name": "D#3",
                    "ticks": 64768,
                    "time": 100.77291900000003,
                    "velocity": 0.84251968503937
                },
                {
                    "duration": 0.07771369921874793,
                    "durationTicks": 63,
                    "midi": 49,
                    "name": "C#3",
                    "ticks": 64896,
                    "time": 100.93081350000003,
                    "velocity": 0.8188976377952756
                },
                {
                    "duration": 0.07771369921874793,
                    "durationTicks": 63,
                    "midi": 42,
                    "name": "F#2",
                    "ticks": 65024,
                    "time": 101.08870800000003,
                    "velocity": 1
                },
                {
                    "duration": 0.07771369921874793,
                    "durationTicks": 63,
                    "midi": 54,
                    "name": "F#3",
                    "ticks": 65024,
                    "time": 101.08870800000003,
                    "velocity": 1
                },
                {
                    "duration": 0.07771369921876214,
                    "durationTicks": 63,
                    "midi": 53,
                    "name": "F3",
                    "ticks": 65152,
                    "time": 101.24660250000002,
                    "velocity": 0.8503937007874016
                },
                {
                    "duration": 0.07771369921874793,
                    "durationTicks": 63,
                    "midi": 51,
                    "name": "D#3",
                    "ticks": 65280,
                    "time": 101.40449700000003,
                    "velocity": 0.8582677165354331
                },
                {
                    "duration": 0.07771369921874793,
                    "durationTicks": 63,
                    "midi": 49,
                    "name": "C#3",
                    "ticks": 65408,
                    "time": 101.56239150000003,
                    "velocity": 0.8267716535433071
                },
                {
                    "duration": 0.07771369921874793,
                    "durationTicks": 63,
                    "midi": 39,
                    "name": "D#2",
                    "ticks": 65536,
                    "time": 101.72028600000003,
                    "velocity": 1
                },
                {
                    "duration": 0.07771369921874793,
                    "durationTicks": 63,
                    "midi": 51,
                    "name": "D#3",
                    "ticks": 65536,
                    "time": 101.72028600000003,
                    "velocity": 1
                },
                {
                    "duration": 0.07771369921876214,
                    "durationTicks": 63,
                    "midi": 49,
                    "name": "C#3",
                    "ticks": 65664,
                    "time": 101.87818050000003,
                    "velocity": 0.8110236220472441
                },
                {
                    "duration": 0.07771369921874793,
                    "durationTicks": 63,
                    "midi": 51,
                    "name": "D#3",
                    "ticks": 65792,
                    "time": 102.03607500000004,
                    "velocity": 0.952755905511811
                },
                {
                    "duration": 0.07771369921874793,
                    "durationTicks": 63,
                    "midi": 53,
                    "name": "F3",
                    "ticks": 65920,
                    "time": 102.19396950000004,
                    "velocity": 0.9212598425196851
                },
                {
                    "duration": 0.07771369921874793,
                    "durationTicks": 63,
                    "midi": 42,
                    "name": "F#2",
                    "ticks": 66048,
                    "time": 102.35186400000003,
                    "velocity": 1
                },
                {
                    "duration": 0.07771369921874793,
                    "durationTicks": 63,
                    "midi": 54,
                    "name": "F#3",
                    "ticks": 66048,
                    "time": 102.35186400000003,
                    "velocity": 1
                },
                {
                    "duration": 0.07771369921874793,
                    "durationTicks": 63,
                    "midi": 53,
                    "name": "F3",
                    "ticks": 66176,
                    "time": 102.50975850000003,
                    "velocity": 0.8267716535433071
                },
                {
                    "duration": 0.07771369921874793,
                    "durationTicks": 63,
                    "midi": 51,
                    "name": "D#3",
                    "ticks": 66304,
                    "time": 102.66765300000003,
                    "velocity": 0.8503937007874016
                },
                {
                    "duration": 0.07771369921874793,
                    "durationTicks": 63,
                    "midi": 49,
                    "name": "C#3",
                    "ticks": 66432,
                    "time": 102.82554750000003,
                    "velocity": 0.7952755905511811
                },
                {
                    "duration": 0.07382812500000568,
                    "durationTicks": 63,
                    "midi": 35,
                    "name": "B1",
                    "ticks": 66560,
                    "time": 102.98344200000003,
                    "velocity": 0.937007874015748
                },
                {
                    "duration": 0.07382812500000568,
                    "durationTicks": 63,
                    "midi": 47,
                    "name": "B2",
                    "ticks": 66560,
                    "time": 102.98344200000003,
                    "velocity": 0.952755905511811
                },
                {
                    "duration": 0.07382812499999147,
                    "durationTicks": 63,
                    "midi": 45,
                    "name": "A2",
                    "ticks": 66688,
                    "time": 103.13344200000003,
                    "velocity": 0.8110236220472441
                },
                {
                    "duration": 0.07382812500000568,
                    "durationTicks": 63,
                    "midi": 43,
                    "name": "G2",
                    "ticks": 66816,
                    "time": 103.28344200000002,
                    "velocity": 0.84251968503937
                },
                {
                    "duration": 0.07382812499999147,
                    "durationTicks": 63,
                    "midi": 42,
                    "name": "F#2",
                    "ticks": 66944,
                    "time": 103.43344200000003,
                    "velocity": 0.8346456692913385
                },
                {
                    "duration": 0.07382812500000568,
                    "durationTicks": 63,
                    "midi": 35,
                    "name": "B1",
                    "ticks": 67072,
                    "time": 103.58344200000002,
                    "velocity": 1
                },
                {
                    "duration": 0.07382812500000568,
                    "durationTicks": 63,
                    "midi": 47,
                    "name": "B2",
                    "ticks": 67072,
                    "time": 103.58344200000002,
                    "velocity": 1
                },
                {
                    "duration": 0.07382812500000568,
                    "durationTicks": 63,
                    "midi": 45,
                    "name": "A2",
                    "ticks": 67200,
                    "time": 103.73344200000003,
                    "velocity": 0.8346456692913385
                },
                {
                    "duration": 0.07382812499999147,
                    "durationTicks": 63,
                    "midi": 43,
                    "name": "G2",
                    "ticks": 67328,
                    "time": 103.88344200000003,
                    "velocity": 0.8582677165354331
                },
                {
                    "duration": 0.07382812500000568,
                    "durationTicks": 63,
                    "midi": 42,
                    "name": "F#2",
                    "ticks": 67456,
                    "time": 104.03344200000002,
                    "velocity": 0.8188976377952756
                },
                {
                    "duration": 0.07382812499999147,
                    "durationTicks": 63,
                    "midi": 35,
                    "name": "B1",
                    "ticks": 67584,
                    "time": 104.18344200000003,
                    "velocity": 1
                },
                {
                    "duration": 0.07382812499999147,
                    "durationTicks": 63,
                    "midi": 47,
                    "name": "B2",
                    "ticks": 67584,
                    "time": 104.18344200000003,
                    "velocity": 1
                },
                {
                    "duration": 0.07382812500000568,
                    "durationTicks": 63,
                    "midi": 45,
                    "name": "A2",
                    "ticks": 67712,
                    "time": 104.33344200000002,
                    "velocity": 0.8346456692913385
                },
                {
                    "duration": 0.07382812500000568,
                    "durationTicks": 63,
                    "midi": 43,
                    "name": "G2",
                    "ticks": 67840,
                    "time": 104.48344200000003,
                    "velocity": 0.8582677165354331
                },
                {
                    "duration": 0.07382812499999147,
                    "durationTicks": 63,
                    "midi": 42,
                    "name": "F#2",
                    "ticks": 67968,
                    "time": 104.63344200000003,
                    "velocity": 0.8267716535433071
                },
                {
                    "duration": 0.07382812500000568,
                    "durationTicks": 63,
                    "midi": 35,
                    "name": "B1",
                    "ticks": 68096,
                    "time": 104.78344200000002,
                    "velocity": 1
                },
                {
                    "duration": 0.07382812500000568,
                    "durationTicks": 63,
                    "midi": 47,
                    "name": "B2",
                    "ticks": 68096,
                    "time": 104.78344200000002,
                    "velocity": 1
                },
                {
                    "duration": 0.07382812499999147,
                    "durationTicks": 63,
                    "midi": 45,
                    "name": "A2",
                    "ticks": 68224,
                    "time": 104.93344200000003,
                    "velocity": 0.8503937007874016
                },
                {
                    "duration": 0.07382812500000568,
                    "durationTicks": 63,
                    "midi": 43,
                    "name": "G2",
                    "ticks": 68352,
                    "time": 105.08344200000002,
                    "velocity": 0.8503937007874016
                },
                {
                    "duration": 0.07382812500000568,
                    "durationTicks": 63,
                    "midi": 42,
                    "name": "F#2",
                    "ticks": 68480,
                    "time": 105.23344200000003,
                    "velocity": 0.8267716535433071
                },
                {
                    "duration": 0.07382812499999147,
                    "durationTicks": 63,
                    "midi": 35,
                    "name": "B1",
                    "ticks": 68608,
                    "time": 105.38344200000003,
                    "velocity": 1
                },
                {
                    "duration": 0.07382812499999147,
                    "durationTicks": 63,
                    "midi": 47,
                    "name": "B2",
                    "ticks": 68608,
                    "time": 105.38344200000003,
                    "velocity": 1
                },
                {
                    "duration": 0.07382812500000568,
                    "durationTicks": 63,
                    "midi": 45,
                    "name": "A2",
                    "ticks": 68736,
                    "time": 105.53344200000002,
                    "velocity": 0.8267716535433071
                },
                {
                    "duration": 0.07382812499999147,
                    "durationTicks": 63,
                    "midi": 43,
                    "name": "G2",
                    "ticks": 68864,
                    "time": 105.68344200000003,
                    "velocity": 0.84251968503937
                },
                {
                    "duration": 0.07382812500000568,
                    "durationTicks": 63,
                    "midi": 42,
                    "name": "F#2",
                    "ticks": 68992,
                    "time": 105.83344200000002,
                    "velocity": 0.8031496062992126
                },
                {
                    "duration": 0.07382812500000568,
                    "durationTicks": 63,
                    "midi": 35,
                    "name": "B1",
                    "ticks": 69120,
                    "time": 105.98344200000003,
                    "velocity": 1
                },
                {
                    "duration": 0.07382812500000568,
                    "durationTicks": 63,
                    "midi": 47,
                    "name": "B2",
                    "ticks": 69120,
                    "time": 105.98344200000003,
                    "velocity": 1
                },
                {
                    "duration": 0.07382812499999147,
                    "durationTicks": 63,
                    "midi": 45,
                    "name": "A2",
                    "ticks": 69248,
                    "time": 106.13344200000003,
                    "velocity": 0.8503937007874016
                },
                {
                    "duration": 0.07382812500000568,
                    "durationTicks": 63,
                    "midi": 43,
                    "name": "G2",
                    "ticks": 69376,
                    "time": 106.28344200000002,
                    "velocity": 0.84251968503937
                },
                {
                    "duration": 0.07382812499999147,
                    "durationTicks": 63,
                    "midi": 42,
                    "name": "F#2",
                    "ticks": 69504,
                    "time": 106.43344200000003,
                    "velocity": 0.8346456692913385
                },
                {
                    "duration": 0.07382812500000568,
                    "durationTicks": 63,
                    "midi": 38,
                    "name": "D2",
                    "ticks": 69632,
                    "time": 106.58344200000002,
                    "velocity": 1
                },
                {
                    "duration": 0.07382812500000568,
                    "durationTicks": 63,
                    "midi": 50,
                    "name": "D3",
                    "ticks": 69632,
                    "time": 106.58344200000002,
                    "velocity": 1
                },
                {
                    "duration": 0.07382812500000568,
                    "durationTicks": 63,
                    "midi": 49,
                    "name": "C#3",
                    "ticks": 69760,
                    "time": 106.73344200000003,
                    "velocity": 0.8582677165354331
                },
                {
                    "duration": 0.07382812499999147,
                    "durationTicks": 63,
                    "midi": 47,
                    "name": "B2",
                    "ticks": 69888,
                    "time": 106.88344200000003,
                    "velocity": 0.84251968503937
                },
                {
                    "duration": 0.07382812500000568,
                    "durationTicks": 63,
                    "midi": 45,
                    "name": "A2",
                    "ticks": 70016,
                    "time": 107.03344200000002,
                    "velocity": 0.8110236220472441
                },
                {
                    "duration": 0.07382812499999147,
                    "durationTicks": 63,
                    "midi": 38,
                    "name": "D2",
                    "ticks": 70144,
                    "time": 107.18344200000003,
                    "velocity": 1
                },
                {
                    "duration": 0.07382812499999147,
                    "durationTicks": 63,
                    "midi": 50,
                    "name": "D3",
                    "ticks": 70144,
                    "time": 107.18344200000003,
                    "velocity": 1
                },
                {
                    "duration": 0.07382812500000568,
                    "durationTicks": 63,
                    "midi": 49,
                    "name": "C#3",
                    "ticks": 70272,
                    "time": 107.33344200000002,
                    "velocity": 0.8582677165354331
                },
                {
                    "duration": 0.07382812500000568,
                    "durationTicks": 63,
                    "midi": 47,
                    "name": "B2",
                    "ticks": 70400,
                    "time": 107.48344200000003,
                    "velocity": 0.8503937007874016
                },
                {
                    "duration": 0.07382812499999147,
                    "durationTicks": 63,
                    "midi": 45,
                    "name": "A2",
                    "ticks": 70528,
                    "time": 107.63344200000003,
                    "velocity": 0.8110236220472441
                },
                {
                    "duration": 0.07202721093750597,
                    "durationTicks": 63,
                    "midi": 35,
                    "name": "B1",
                    "ticks": 70656,
                    "time": 107.78344200000002,
                    "velocity": 1
                },
                {
                    "duration": 0.07202721093750597,
                    "durationTicks": 63,
                    "midi": 47,
                    "name": "B2",
                    "ticks": 70656,
                    "time": 107.78344200000002,
                    "velocity": 1
                },
                {
                    "duration": 0.07202721093749176,
                    "durationTicks": 63,
                    "midi": 45,
                    "name": "A2",
                    "ticks": 70784,
                    "time": 107.92978300000003,
                    "velocity": 0.8110236220472441
                },
                {
                    "duration": 0.07202721093750597,
                    "durationTicks": 63,
                    "midi": 43,
                    "name": "G2",
                    "ticks": 70912,
                    "time": 108.07612400000002,
                    "velocity": 0.84251968503937
                },
                {
                    "duration": 0.07202721093749176,
                    "durationTicks": 63,
                    "midi": 42,
                    "name": "F#2",
                    "ticks": 71040,
                    "time": 108.22246500000003,
                    "velocity": 0.8110236220472441
                },
                {
                    "duration": 0.07202721093750597,
                    "durationTicks": 63,
                    "midi": 35,
                    "name": "B1",
                    "ticks": 71168,
                    "time": 108.36880600000002,
                    "velocity": 1
                },
                {
                    "duration": 0.07202721093750597,
                    "durationTicks": 63,
                    "midi": 47,
                    "name": "B2",
                    "ticks": 71168,
                    "time": 108.36880600000002,
                    "velocity": 1
                },
                {
                    "duration": 0.07202721093749176,
                    "durationTicks": 63,
                    "midi": 45,
                    "name": "A2",
                    "ticks": 71296,
                    "time": 108.51514700000003,
                    "velocity": 0.8188976377952756
                },
                {
                    "duration": 0.07202721093750597,
                    "durationTicks": 63,
                    "midi": 43,
                    "name": "G2",
                    "ticks": 71424,
                    "time": 108.66148800000002,
                    "velocity": 0.84251968503937
                },
                {
                    "duration": 0.07202721093749176,
                    "durationTicks": 63,
                    "midi": 42,
                    "name": "F#2",
                    "ticks": 71552,
                    "time": 108.80782900000003,
                    "velocity": 0.8188976377952756
                },
                {
                    "duration": 0.07202721093750597,
                    "durationTicks": 63,
                    "midi": 35,
                    "name": "B1",
                    "ticks": 71680,
                    "time": 108.95417000000002,
                    "velocity": 1
                },
                {
                    "duration": 0.07202721093750597,
                    "durationTicks": 63,
                    "midi": 47,
                    "name": "B2",
                    "ticks": 71680,
                    "time": 108.95417000000002,
                    "velocity": 1
                },
                {
                    "duration": 0.07202721093749176,
                    "durationTicks": 63,
                    "midi": 45,
                    "name": "A2",
                    "ticks": 71808,
                    "time": 109.10051100000003,
                    "velocity": 0.8267716535433071
                },
                {
                    "duration": 0.07202721093750597,
                    "durationTicks": 63,
                    "midi": 43,
                    "name": "G2",
                    "ticks": 71936,
                    "time": 109.24685200000002,
                    "velocity": 0.8503937007874016
                },
                {
                    "duration": 0.07202721093749176,
                    "durationTicks": 63,
                    "midi": 42,
                    "name": "F#2",
                    "ticks": 72064,
                    "time": 109.39319300000002,
                    "velocity": 0.8188976377952756
                },
                {
                    "duration": 0.07202721093750597,
                    "durationTicks": 63,
                    "midi": 35,
                    "name": "B1",
                    "ticks": 72192,
                    "time": 109.53953400000002,
                    "velocity": 1
                },
                {
                    "duration": 0.07202721093750597,
                    "durationTicks": 63,
                    "midi": 47,
                    "name": "B2",
                    "ticks": 72192,
                    "time": 109.53953400000002,
                    "velocity": 1
                },
                {
                    "duration": 0.07202721093749176,
                    "durationTicks": 63,
                    "midi": 45,
                    "name": "A2",
                    "ticks": 72320,
                    "time": 109.68587500000002,
                    "velocity": 0.8346456692913385
                },
                {
                    "duration": 0.07202721093750597,
                    "durationTicks": 63,
                    "midi": 43,
                    "name": "G2",
                    "ticks": 72448,
                    "time": 109.83221600000002,
                    "velocity": 0.8503937007874016
                },
                {
                    "duration": 0.07202721093750597,
                    "durationTicks": 63,
                    "midi": 42,
                    "name": "F#2",
                    "ticks": 72576,
                    "time": 109.97855700000002,
                    "velocity": 0.8267716535433071
                },
                {
                    "duration": 0.07202721093750597,
                    "durationTicks": 63,
                    "midi": 35,
                    "name": "B1",
                    "ticks": 72704,
                    "time": 110.12489800000002,
                    "velocity": 1
                },
                {
                    "duration": 0.07202721093750597,
                    "durationTicks": 63,
                    "midi": 47,
                    "name": "B2",
                    "ticks": 72704,
                    "time": 110.12489800000002,
                    "velocity": 1
                },
                {
                    "duration": 0.07202721093750597,
                    "durationTicks": 63,
                    "midi": 45,
                    "name": "A2",
                    "ticks": 72832,
                    "time": 110.27123900000002,
                    "velocity": 0.8267716535433071
                },
                {
                    "duration": 0.07202721093750597,
                    "durationTicks": 63,
                    "midi": 43,
                    "name": "G2",
                    "ticks": 72960,
                    "time": 110.41758000000002,
                    "velocity": 0.8503937007874016
                },
                {
                    "duration": 0.07202721093750597,
                    "durationTicks": 63,
                    "midi": 42,
                    "name": "F#2",
                    "ticks": 73088,
                    "time": 110.56392100000002,
                    "velocity": 0.8346456692913385
                },
                {
                    "duration": 0.07031242968750462,
                    "durationTicks": 63,
                    "midi": 35,
                    "name": "B1",
                    "ticks": 73216,
                    "time": 110.71026200000003,
                    "velocity": 1
                },
                {
                    "duration": 0.07031242968750462,
                    "durationTicks": 63,
                    "midi": 47,
                    "name": "B2",
                    "ticks": 73216,
                    "time": 110.71026200000003,
                    "velocity": 1
                },
                {
                    "duration": 0.07031242968749041,
                    "durationTicks": 63,
                    "midi": 45,
                    "name": "A2",
                    "ticks": 73344,
                    "time": 110.85311900000004,
                    "velocity": 0.84251968503937
                },
                {
                    "duration": 0.06867713671874753,
                    "durationTicks": 63,
                    "midi": 43,
                    "name": "G2",
                    "ticks": 73472,
                    "time": 110.99597600000003,
                    "velocity": 0.8346456692913385
                },
                {
                    "duration": 0.06867713671874753,
                    "durationTicks": 63,
                    "midi": 42,
                    "name": "F#2",
                    "ticks": 73600,
                    "time": 111.13551050000002,
                    "velocity": 0.8346456692913385
                },
                {
                    "duration": 0.06711641015624537,
                    "durationTicks": 63,
                    "midi": 35,
                    "name": "B1",
                    "ticks": 73728,
                    "time": 111.27504500000003,
                    "velocity": 1
                },
                {
                    "duration": 0.06711641015624537,
                    "durationTicks": 63,
                    "midi": 47,
                    "name": "B2",
                    "ticks": 73728,
                    "time": 111.27504500000003,
                    "velocity": 1
                },
                {
                    "duration": 0.06711641015624537,
                    "durationTicks": 63,
                    "midi": 45,
                    "name": "A2",
                    "ticks": 73856,
                    "time": 111.41140850000004,
                    "velocity": 0.8346456692913385
                },
                {
                    "duration": 0.06711641015624537,
                    "durationTicks": 63,
                    "midi": 43,
                    "name": "G2",
                    "ticks": 73984,
                    "time": 111.54777200000004,
                    "velocity": 0.8346456692913385
                },
                {
                    "duration": 0.06711641015624537,
                    "durationTicks": 63,
                    "midi": 42,
                    "name": "F#2",
                    "ticks": 74112,
                    "time": 111.68413550000004,
                    "velocity": 0.8267716535433071
                },
                {
                    "duration": 0.06711641015624537,
                    "durationTicks": 63,
                    "midi": 35,
                    "name": "B1",
                    "ticks": 74240,
                    "time": 111.82049900000004,
                    "velocity": 1
                },
                {
                    "duration": 0.06711641015624537,
                    "durationTicks": 63,
                    "midi": 47,
                    "name": "B2",
                    "ticks": 74240,
                    "time": 111.82049900000004,
                    "velocity": 1
                },
                {
                    "duration": 0.06711641015625958,
                    "durationTicks": 63,
                    "midi": 45,
                    "name": "A2",
                    "ticks": 74368,
                    "time": 111.95686250000003,
                    "velocity": 0.8503937007874016
                },
                {
                    "duration": 0.06711641015625958,
                    "durationTicks": 63,
                    "midi": 43,
                    "name": "G2",
                    "ticks": 74496,
                    "time": 112.09322600000003,
                    "velocity": 0.8503937007874016
                },
                {
                    "duration": 0.06711641015625958,
                    "durationTicks": 63,
                    "midi": 42,
                    "name": "F#2",
                    "ticks": 74624,
                    "time": 112.22958950000003,
                    "velocity": 0.8110236220472441
                },
                {
                    "duration": 0.2082329648437451,
                    "durationTicks": 231,
                    "midi": 35,
                    "name": "B1",
                    "ticks": 74752,
                    "time": 112.36595300000003,
                    "velocity": 0.9921259842519685
                },
                {
                    "duration": 0.2082329648437451,
                    "durationTicks": 231,
                    "midi": 47,
                    "name": "B2",
                    "ticks": 74752,
                    "time": 112.36595300000003,
                    "velocity": 1
                },
                {
                    "duration": 0.11358161718750637,
                    "durationTicks": 126,
                    "midi": 50,
                    "name": "D3",
                    "ticks": 75008,
                    "time": 112.59672200000003,
                    "velocity": 1
                },
                {
                    "duration": 0.11358161718750637,
                    "durationTicks": 126,
                    "midi": 53,
                    "name": "F3",
                    "ticks": 75008,
                    "time": 112.59672200000003,
                    "velocity": 1
                },
                {
                    "duration": 0.11358161718750637,
                    "durationTicks": 126,
                    "midi": 56,
                    "name": "G#3",
                    "ticks": 75008,
                    "time": 112.59672200000003,
                    "velocity": 0.984251968503937
                },
                {
                    "duration": 0.11358161718750637,
                    "durationTicks": 126,
                    "midi": 59,
                    "name": "B3",
                    "ticks": 75008,
                    "time": 112.59672200000003,
                    "velocity": 0.9921259842519685
                },
                {
                    "duration": 0.2082329648437593,
                    "durationTicks": 231,
                    "midi": 35,
                    "name": "B1",
                    "ticks": 75776,
                    "time": 113.28902900000003,
                    "velocity": 0.8110236220472441
                },
                {
                    "duration": 0.2082329648437593,
                    "durationTicks": 231,
                    "midi": 47,
                    "name": "B2",
                    "ticks": 75776,
                    "time": 113.28902900000003,
                    "velocity": 0.7952755905511811
                },
                {
                    "duration": 0.11358161718749216,
                    "durationTicks": 126,
                    "midi": 50,
                    "name": "D3",
                    "ticks": 76032,
                    "time": 113.51979800000004,
                    "velocity": 1
                },
                {
                    "duration": 0.11358161718749216,
                    "durationTicks": 126,
                    "midi": 54,
                    "name": "F#3",
                    "ticks": 76032,
                    "time": 113.51979800000004,
                    "velocity": 1
                },
                {
                    "duration": 0.11358161718749216,
                    "durationTicks": 126,
                    "midi": 59,
                    "name": "B3",
                    "ticks": 76032,
                    "time": 113.51979800000004,
                    "velocity": 1
                },
                {
                    "duration": 0.2082329648437451,
                    "durationTicks": 231,
                    "midi": 43,
                    "name": "G2",
                    "ticks": 76800,
                    "time": 114.21210500000004,
                    "velocity": 0.7637795275590551
                },
                {
                    "duration": 0.2082329648437451,
                    "durationTicks": 231,
                    "midi": 55,
                    "name": "G3",
                    "ticks": 76800,
                    "time": 114.21210500000004,
                    "velocity": 0.7637795275590551
                },
                {
                    "duration": 0.2082329648437451,
                    "durationTicks": 231,
                    "midi": 50,
                    "name": "D3",
                    "ticks": 77056,
                    "time": 114.44287400000003,
                    "velocity": 0.7322834645669292
                },
                {
                    "duration": 0.2082329648437451,
                    "durationTicks": 231,
                    "midi": 55,
                    "name": "G3",
                    "ticks": 77056,
                    "time": 114.44287400000003,
                    "velocity": 0.7244094488188977
                },
                {
                    "duration": 0.2082329648437451,
                    "durationTicks": 231,
                    "midi": 59,
                    "name": "B3",
                    "ticks": 77056,
                    "time": 114.44287400000003,
                    "velocity": 0.7322834645669292
                },
                {
                    "duration": 0.2082329648437593,
                    "durationTicks": 231,
                    "midi": 42,
                    "name": "F#2",
                    "ticks": 77312,
                    "time": 114.67364300000003,
                    "velocity": 0.7795275590551181
                },
                {
                    "duration": 0.2082329648437593,
                    "durationTicks": 231,
                    "midi": 54,
                    "name": "F#3",
                    "ticks": 77312,
                    "time": 114.67364300000003,
                    "velocity": 0.8031496062992126
                },
                {
                    "duration": 0.2082329648437451,
                    "durationTicks": 231,
                    "midi": 50,
                    "name": "D3",
                    "ticks": 77568,
                    "time": 114.90441200000004,
                    "velocity": 0.8346456692913385
                },
                {
                    "duration": 0.2082329648437451,
                    "durationTicks": 231,
                    "midi": 54,
                    "name": "F#3",
                    "ticks": 77568,
                    "time": 114.90441200000004,
                    "velocity": 0.8346456692913385
                },
                {
                    "duration": 0.2082329648437451,
                    "durationTicks": 231,
                    "midi": 59,
                    "name": "B3",
                    "ticks": 77568,
                    "time": 114.90441200000004,
                    "velocity": 0.8503937007874016
                },
                {
                    "duration": 0.2082329648437451,
                    "durationTicks": 231,
                    "midi": 30,
                    "name": "F#1",
                    "ticks": 77824,
                    "time": 115.13518100000003,
                    "velocity": 0.7637795275590551
                },
                {
                    "duration": 0.2082329648437451,
                    "durationTicks": 231,
                    "midi": 42,
                    "name": "F#2",
                    "ticks": 77824,
                    "time": 115.13518100000003,
                    "velocity": 0.7401574803149606
                },
                {
                    "duration": 0.2082329648437593,
                    "durationTicks": 231,
                    "midi": 49,
                    "name": "C#3",
                    "ticks": 78080,
                    "time": 115.36595000000003,
                    "velocity": 0.9921259842519685
                },
                {
                    "duration": 0.2082329648437593,
                    "durationTicks": 231,
                    "midi": 54,
                    "name": "F#3",
                    "ticks": 78080,
                    "time": 115.36595000000003,
                    "velocity": 0.9921259842519685
                },
                {
                    "duration": 0.2082329648437593,
                    "durationTicks": 231,
                    "midi": 58,
                    "name": "A#3",
                    "ticks": 78080,
                    "time": 115.36595000000003,
                    "velocity": 0.9921259842519685
                },
                {
                    "duration": 0.2082329648437451,
                    "durationTicks": 231,
                    "midi": 35,
                    "name": "B1",
                    "ticks": 78336,
                    "time": 115.59671900000004,
                    "velocity": 0.7716535433070866
                },
                {
                    "duration": 0.2082329648437451,
                    "durationTicks": 231,
                    "midi": 47,
                    "name": "B2",
                    "ticks": 78336,
                    "time": 115.59671900000004,
                    "velocity": 0.7795275590551181
                },
                {
                    "duration": 0.2082329648437451,
                    "durationTicks": 231,
                    "midi": 50,
                    "name": "D3",
                    "ticks": 78592,
                    "time": 115.82748800000003,
                    "velocity": 1
                },
                {
                    "duration": 0.2082329648437451,
                    "durationTicks": 231,
                    "midi": 54,
                    "name": "F#3",
                    "ticks": 78592,
                    "time": 115.82748800000003,
                    "velocity": 1
                },
                {
                    "duration": 0.2082329648437451,
                    "durationTicks": 231,
                    "midi": 59,
                    "name": "B3",
                    "ticks": 78592,
                    "time": 115.82748800000003,
                    "velocity": 1
                },
                {
                    "duration": 0.2082329648437593,
                    "durationTicks": 231,
                    "midi": 35,
                    "name": "B1",
                    "ticks": 78848,
                    "time": 116.05825700000003,
                    "velocity": 0.6771653543307087
                },
                {
                    "duration": 0.2082329648437593,
                    "durationTicks": 231,
                    "midi": 47,
                    "name": "B2",
                    "ticks": 78848,
                    "time": 116.05825700000003,
                    "velocity": 0.6692913385826772
                },
                {
                    "duration": 0.11358161718749216,
                    "durationTicks": 126,
                    "midi": 50,
                    "name": "D3",
                    "ticks": 79104,
                    "time": 116.28902600000004,
                    "velocity": 0.9921259842519685
                },
                {
                    "duration": 0.11358161718749216,
                    "durationTicks": 126,
                    "midi": 53,
                    "name": "F3",
                    "ticks": 79104,
                    "time": 116.28902600000004,
                    "velocity": 0.9921259842519685
                },
                {
                    "duration": 0.11358161718749216,
                    "durationTicks": 126,
                    "midi": 56,
                    "name": "G#3",
                    "ticks": 79104,
                    "time": 116.28902600000004,
                    "velocity": 1
                },
                {
                    "duration": 0.11358161718749216,
                    "durationTicks": 126,
                    "midi": 59,
                    "name": "B3",
                    "ticks": 79104,
                    "time": 116.28902600000004,
                    "velocity": 0.9921259842519685
                },
                {
                    "duration": 0.2082329648437451,
                    "durationTicks": 231,
                    "midi": 35,
                    "name": "B1",
                    "ticks": 79872,
                    "time": 116.98133300000003,
                    "velocity": 0.7874015748031497
                },
                {
                    "duration": 0.2082329648437451,
                    "durationTicks": 231,
                    "midi": 47,
                    "name": "B2",
                    "ticks": 79872,
                    "time": 116.98133300000003,
                    "velocity": 0.8188976377952756
                },
                {
                    "duration": 0.11358161718750637,
                    "durationTicks": 126,
                    "midi": 50,
                    "name": "D3",
                    "ticks": 80128,
                    "time": 117.21210200000003,
                    "velocity": 0.984251968503937
                },
                {
                    "duration": 0.11358161718750637,
                    "durationTicks": 126,
                    "midi": 54,
                    "name": "F#3",
                    "ticks": 80128,
                    "time": 117.21210200000003,
                    "velocity": 1
                },
                {
                    "duration": 0.11358161718750637,
                    "durationTicks": 126,
                    "midi": 59,
                    "name": "B3",
                    "ticks": 80128,
                    "time": 117.21210200000003,
                    "velocity": 0.9921259842519685
                },
                {
                    "duration": 0.2082329648437593,
                    "durationTicks": 231,
                    "midi": 43,
                    "name": "G2",
                    "ticks": 80896,
                    "time": 117.90440900000003,
                    "velocity": 0.7559055118110236
                },
                {
                    "duration": 0.2082329648437593,
                    "durationTicks": 231,
                    "midi": 55,
                    "name": "G3",
                    "ticks": 80896,
                    "time": 117.90440900000003,
                    "velocity": 0.7716535433070866
                },
                {
                    "duration": 0.2082329648437451,
                    "durationTicks": 231,
                    "midi": 50,
                    "name": "D3",
                    "ticks": 81152,
                    "time": 118.13517800000004,
                    "velocity": 0.7322834645669292
                },
                {
                    "duration": 0.2082329648437451,
                    "durationTicks": 231,
                    "midi": 55,
                    "name": "G3",
                    "ticks": 81152,
                    "time": 118.13517800000004,
                    "velocity": 0.7244094488188977
                },
                {
                    "duration": 0.2082329648437451,
                    "durationTicks": 231,
                    "midi": 59,
                    "name": "B3",
                    "ticks": 81152,
                    "time": 118.13517800000004,
                    "velocity": 0.7322834645669292
                },
                {
                    "duration": 0.2082329648437451,
                    "durationTicks": 231,
                    "midi": 42,
                    "name": "F#2",
                    "ticks": 81408,
                    "time": 118.36594700000003,
                    "velocity": 0.7952755905511811
                },
                {
                    "duration": 0.2082329648437451,
                    "durationTicks": 231,
                    "midi": 54,
                    "name": "F#3",
                    "ticks": 81408,
                    "time": 118.36594700000003,
                    "velocity": 0.7795275590551181
                },
                {
                    "duration": 0.2082329648437593,
                    "durationTicks": 231,
                    "midi": 50,
                    "name": "D3",
                    "ticks": 81664,
                    "time": 118.59671600000003,
                    "velocity": 0.8188976377952756
                },
                {
                    "duration": 0.2082329648437593,
                    "durationTicks": 231,
                    "midi": 54,
                    "name": "F#3",
                    "ticks": 81664,
                    "time": 118.59671600000003,
                    "velocity": 0.84251968503937
                },
                {
                    "duration": 0.2082329648437593,
                    "durationTicks": 231,
                    "midi": 59,
                    "name": "B3",
                    "ticks": 81664,
                    "time": 118.59671600000003,
                    "velocity": 0.8346456692913385
                },
                {
                    "duration": 0.2082329648437451,
                    "durationTicks": 231,
                    "midi": 30,
                    "name": "F#1",
                    "ticks": 81920,
                    "time": 118.82748500000004,
                    "velocity": 0.7637795275590551
                },
                {
                    "duration": 0.2082329648437451,
                    "durationTicks": 231,
                    "midi": 42,
                    "name": "F#2",
                    "ticks": 81920,
                    "time": 118.82748500000004,
                    "velocity": 0.7480314960629921
                },
                {
                    "duration": 0.2082329648437451,
                    "durationTicks": 231,
                    "midi": 49,
                    "name": "C#3",
                    "ticks": 82176,
                    "time": 119.05825400000003,
                    "velocity": 0.9921259842519685
                },
                {
                    "duration": 0.2082329648437451,
                    "durationTicks": 231,
                    "midi": 54,
                    "name": "F#3",
                    "ticks": 82176,
                    "time": 119.05825400000003,
                    "velocity": 1
                },
                {
                    "duration": 0.2082329648437451,
                    "durationTicks": 231,
                    "midi": 58,
                    "name": "A#3",
                    "ticks": 82176,
                    "time": 119.05825400000003,
                    "velocity": 0.9921259842519685
                },
                {
                    "duration": 0.2082329648437593,
                    "durationTicks": 231,
                    "midi": 35,
                    "name": "B1",
                    "ticks": 82432,
                    "time": 119.28902300000003,
                    "velocity": 0.7716535433070866
                },
                {
                    "duration": 0.2082329648437593,
                    "durationTicks": 231,
                    "midi": 47,
                    "name": "B2",
                    "ticks": 82432,
                    "time": 119.28902300000003,
                    "velocity": 0.7637795275590551
                },
                {
                    "duration": 0.2082329648437451,
                    "durationTicks": 231,
                    "midi": 50,
                    "name": "D3",
                    "ticks": 82688,
                    "time": 119.51979200000004,
                    "velocity": 1
                },
                {
                    "duration": 0.2082329648437451,
                    "durationTicks": 231,
                    "midi": 54,
                    "name": "F#3",
                    "ticks": 82688,
                    "time": 119.51979200000004,
                    "velocity": 0.9921259842519685
                },
                {
                    "duration": 0.2082329648437451,
                    "durationTicks": 231,
                    "midi": 59,
                    "name": "B3",
                    "ticks": 82688,
                    "time": 119.51979200000004,
                    "velocity": 1
                },
                {
                    "duration": 0.2082329648437451,
                    "durationTicks": 231,
                    "midi": 35,
                    "name": "B1",
                    "ticks": 82944,
                    "time": 119.75056100000003,
                    "velocity": 0.6850393700787402
                },
                {
                    "duration": 0.2082329648437451,
                    "durationTicks": 231,
                    "midi": 47,
                    "name": "B2",
                    "ticks": 82944,
                    "time": 119.75056100000003,
                    "velocity": 0.6850393700787402
                },
                {
                    "duration": 0.2082329648437593,
                    "durationTicks": 231,
                    "midi": 50,
                    "name": "D3",
                    "ticks": 83200,
                    "time": 119.98133000000003,
                    "velocity": 0.9921259842519685
                },
                {
                    "duration": 0.2082329648437593,
                    "durationTicks": 231,
                    "midi": 53,
                    "name": "F3",
                    "ticks": 83200,
                    "time": 119.98133000000003,
                    "velocity": 0.9921259842519685
                },
                {
                    "duration": 0.2082329648437593,
                    "durationTicks": 231,
                    "midi": 56,
                    "name": "G#3",
                    "ticks": 83200,
                    "time": 119.98133000000003,
                    "velocity": 1
                },
                {
                    "duration": 0.2082329648437593,
                    "durationTicks": 231,
                    "midi": 59,
                    "name": "B3",
                    "ticks": 83200,
                    "time": 119.98133000000003,
                    "velocity": 1
                },
                {
                    "duration": 0.2082329648437593,
                    "durationTicks": 231,
                    "midi": 35,
                    "name": "B1",
                    "ticks": 83968,
                    "time": 120.67363700000003,
                    "velocity": 0.8031496062992126
                },
                {
                    "duration": 0.2082329648437593,
                    "durationTicks": 231,
                    "midi": 47,
                    "name": "B2",
                    "ticks": 83968,
                    "time": 120.67363700000003,
                    "velocity": 0.7952755905511811
                },
                {
                    "duration": 0.11358161718749216,
                    "durationTicks": 126,
                    "midi": 50,
                    "name": "D3",
                    "ticks": 84224,
                    "time": 120.90440600000004,
                    "velocity": 0.9921259842519685
                },
                {
                    "duration": 0.11358161718749216,
                    "durationTicks": 126,
                    "midi": 53,
                    "name": "F3",
                    "ticks": 84224,
                    "time": 120.90440600000004,
                    "velocity": 0.984251968503937
                },
                {
                    "duration": 0.11358161718749216,
                    "durationTicks": 126,
                    "midi": 56,
                    "name": "G#3",
                    "ticks": 84224,
                    "time": 120.90440600000004,
                    "velocity": 0.9921259842519685
                },
                {
                    "duration": 0.11358161718749216,
                    "durationTicks": 126,
                    "midi": 59,
                    "name": "B3",
                    "ticks": 84224,
                    "time": 120.90440600000004,
                    "velocity": 0.9921259842519685
                },
                {
                    "duration": 0.2082329648437451,
                    "durationTicks": 231,
                    "midi": 35,
                    "name": "B1",
                    "ticks": 84992,
                    "time": 121.59671300000004,
                    "velocity": 0.7952755905511811
                },
                {
                    "duration": 0.2082329648437451,
                    "durationTicks": 231,
                    "midi": 47,
                    "name": "B2",
                    "ticks": 84992,
                    "time": 121.59671300000004,
                    "velocity": 0.8031496062992126
                },
                {
                    "duration": 0.11358161718750637,
                    "durationTicks": 126,
                    "midi": 50,
                    "name": "D3",
                    "ticks": 85248,
                    "time": 121.82748200000003,
                    "velocity": 0.36220472440944884
                },
                {
                    "duration": 0.11358161718750637,
                    "durationTicks": 126,
                    "midi": 53,
                    "name": "F3",
                    "ticks": 85248,
                    "time": 121.82748200000003,
                    "velocity": 0.33858267716535434
                },
                {
                    "duration": 0.11358161718750637,
                    "durationTicks": 126,
                    "midi": 56,
                    "name": "G#3",
                    "ticks": 85248,
                    "time": 121.82748200000003,
                    "velocity": 0.36220472440944884
                },
                {
                    "duration": 0.11358161718750637,
                    "durationTicks": 126,
                    "midi": 59,
                    "name": "B3",
                    "ticks": 85248,
                    "time": 121.82748200000003,
                    "velocity": 0.33858267716535434
                },
                {
                    "duration": 0.11358161718750637,
                    "durationTicks": 126,
                    "midi": 50,
                    "name": "D3",
                    "ticks": 85504,
                    "time": 122.05825100000003,
                    "velocity": 0.28346456692913385
                },
                {
                    "duration": 0.11358161718750637,
                    "durationTicks": 126,
                    "midi": 53,
                    "name": "F3",
                    "ticks": 85504,
                    "time": 122.05825100000003,
                    "velocity": 0.29133858267716534
                },
                {
                    "duration": 0.11358161718750637,
                    "durationTicks": 126,
                    "midi": 56,
                    "name": "G#3",
                    "ticks": 85504,
                    "time": 122.05825100000003,
                    "velocity": 0.2677165354330709
                },
                {
                    "duration": 0.11358161718750637,
                    "durationTicks": 126,
                    "midi": 59,
                    "name": "B3",
                    "ticks": 85504,
                    "time": 122.05825100000003,
                    "velocity": 0.29133858267716534
                },
                {
                    "duration": 0.11358161718749216,
                    "durationTicks": 126,
                    "midi": 50,
                    "name": "D3",
                    "ticks": 85760,
                    "time": 122.28902000000004,
                    "velocity": 0.2677165354330709
                },
                {
                    "duration": 0.11358161718749216,
                    "durationTicks": 126,
                    "midi": 53,
                    "name": "F3",
                    "ticks": 85760,
                    "time": 122.28902000000004,
                    "velocity": 0.29133858267716534
                },
                {
                    "duration": 0.11358161718749216,
                    "durationTicks": 126,
                    "midi": 56,
                    "name": "G#3",
                    "ticks": 85760,
                    "time": 122.28902000000004,
                    "velocity": 0.2677165354330709
                },
                {
                    "duration": 0.11358161718749216,
                    "durationTicks": 126,
                    "midi": 59,
                    "name": "B3",
                    "ticks": 85760,
                    "time": 122.28902000000004,
                    "velocity": 0.2755905511811024
                },
                {
                    "duration": 0.11358161718750637,
                    "durationTicks": 126,
                    "midi": 50,
                    "name": "D3",
                    "ticks": 86016,
                    "time": 122.51978900000003,
                    "velocity": 0.29133858267716534
                },
                {
                    "duration": 0.11358161718750637,
                    "durationTicks": 126,
                    "midi": 53,
                    "name": "F3",
                    "ticks": 86016,
                    "time": 122.51978900000003,
                    "velocity": 0.29133858267716534
                },
                {
                    "duration": 0.11358161718750637,
                    "durationTicks": 126,
                    "midi": 56,
                    "name": "G#3",
                    "ticks": 86016,
                    "time": 122.51978900000003,
                    "velocity": 0.29133858267716534
                },
                {
                    "duration": 0.11358161718750637,
                    "durationTicks": 126,
                    "midi": 59,
                    "name": "B3",
                    "ticks": 86016,
                    "time": 122.51978900000003,
                    "velocity": 0.2992125984251969
                },
                {
                    "duration": 0.11358161718750637,
                    "durationTicks": 126,
                    "midi": 50,
                    "name": "D3",
                    "ticks": 86272,
                    "time": 122.75055800000003,
                    "velocity": 0.5118110236220472
                },
                {
                    "duration": 0.11358161718750637,
                    "durationTicks": 126,
                    "midi": 53,
                    "name": "F3",
                    "ticks": 86272,
                    "time": 122.75055800000003,
                    "velocity": 0.4881889763779528
                },
                {
                    "duration": 0.11358161718750637,
                    "durationTicks": 126,
                    "midi": 56,
                    "name": "G#3",
                    "ticks": 86272,
                    "time": 122.75055800000003,
                    "velocity": 0.5118110236220472
                },
                {
                    "duration": 0.11358161718750637,
                    "durationTicks": 126,
                    "midi": 59,
                    "name": "B3",
                    "ticks": 86272,
                    "time": 122.75055800000003,
                    "velocity": 0.4881889763779528
                },
                {
                    "duration": 0.11358161718749216,
                    "durationTicks": 126,
                    "midi": 50,
                    "name": "D3",
                    "ticks": 86528,
                    "time": 122.98132700000004,
                    "velocity": 0.7165354330708661
                },
                {
                    "duration": 0.11358161718749216,
                    "durationTicks": 126,
                    "midi": 53,
                    "name": "F3",
                    "ticks": 86528,
                    "time": 122.98132700000004,
                    "velocity": 0.7480314960629921
                },
                {
                    "duration": 0.11358161718749216,
                    "durationTicks": 126,
                    "midi": 56,
                    "name": "G#3",
                    "ticks": 86528,
                    "time": 122.98132700000004,
                    "velocity": 0.7322834645669292
                },
                {
                    "duration": 0.11358161718749216,
                    "durationTicks": 126,
                    "midi": 59,
                    "name": "B3",
                    "ticks": 86528,
                    "time": 122.98132700000004,
                    "velocity": 0.7322834645669292
                },
                {
                    "duration": 0.11358161718750637,
                    "durationTicks": 126,
                    "midi": 50,
                    "name": "D3",
                    "ticks": 86784,
                    "time": 123.21209600000003,
                    "velocity": 0.952755905511811
                },
                {
                    "duration": 0.11358161718750637,
                    "durationTicks": 126,
                    "midi": 53,
                    "name": "F3",
                    "ticks": 86784,
                    "time": 123.21209600000003,
                    "velocity": 0.968503937007874
                },
                {
                    "duration": 0.11358161718750637,
                    "durationTicks": 126,
                    "midi": 56,
                    "name": "G#3",
                    "ticks": 86784,
                    "time": 123.21209600000003,
                    "velocity": 0.9763779527559056
                },
                {
                    "duration": 0.11358161718750637,
                    "durationTicks": 126,
                    "midi": 59,
                    "name": "B3",
                    "ticks": 86784,
                    "time": 123.21209600000003,
                    "velocity": 0.968503937007874
                },
                {
                    "duration": 0.05228360156250744,
                    "durationTicks": 58,
                    "midi": 35,
                    "name": "B1",
                    "ticks": 87552,
                    "time": 123.90440300000003,
                    "velocity": 0.5433070866141733
                },
                {
                    "duration": 0.05228360156249323,
                    "durationTicks": 58,
                    "midi": 47,
                    "name": "B2",
                    "ticks": 87616,
                    "time": 123.96209525000003,
                    "velocity": 0.4566929133858268
                },
                {
                    "duration": 0.05228360156249323,
                    "durationTicks": 58,
                    "midi": 35,
                    "name": "B1",
                    "ticks": 87680,
                    "time": 124.01978750000004,
                    "velocity": 0.29133858267716534
                },
                {
                    "duration": 0.05228360156249323,
                    "durationTicks": 58,
                    "midi": 47,
                    "name": "B2",
                    "ticks": 87744,
                    "time": 124.07747975000004,
                    "velocity": 0.4566929133858268
                },
                {
                    "duration": 0.05228360156250744,
                    "durationTicks": 58,
                    "midi": 35,
                    "name": "B1",
                    "ticks": 87808,
                    "time": 124.13517200000003,
                    "velocity": 0.2992125984251969
                },
                {
                    "duration": 0.05228360156250744,
                    "durationTicks": 58,
                    "midi": 47,
                    "name": "B2",
                    "ticks": 87872,
                    "time": 124.19286425000003,
                    "velocity": 0.4566929133858268
                },
                {
                    "duration": 0.05228360156250744,
                    "durationTicks": 58,
                    "midi": 35,
                    "name": "B1",
                    "ticks": 87936,
                    "time": 124.25055650000003,
                    "velocity": 0.29133858267716534
                },
                {
                    "duration": 0.05228360156249323,
                    "durationTicks": 58,
                    "midi": 47,
                    "name": "B2",
                    "ticks": 88000,
                    "time": 124.30824875000003,
                    "velocity": 0.4645669291338583
                },
                {
                    "duration": 0.05228360156249323,
                    "durationTicks": 58,
                    "midi": 35,
                    "name": "B1",
                    "ticks": 88064,
                    "time": 124.36594100000003,
                    "velocity": 0.30708661417322836
                },
                {
                    "duration": 0.05228360156249323,
                    "durationTicks": 58,
                    "midi": 47,
                    "name": "B2",
                    "ticks": 88128,
                    "time": 124.42363325000004,
                    "velocity": 0.5118110236220472
                },
                {
                    "duration": 0.05228360156250744,
                    "durationTicks": 58,
                    "midi": 35,
                    "name": "B1",
                    "ticks": 88192,
                    "time": 124.48132550000003,
                    "velocity": 0.33070866141732286
                },
                {
                    "duration": 0.05228360156250744,
                    "durationTicks": 58,
                    "midi": 47,
                    "name": "B2",
                    "ticks": 88256,
                    "time": 124.53901775000003,
                    "velocity": 0.6299212598425197
                },
                {
                    "duration": 0.05228360156250744,
                    "durationTicks": 58,
                    "midi": 35,
                    "name": "B1",
                    "ticks": 88320,
                    "time": 124.59671000000003,
                    "velocity": 0.44881889763779526
                },
                {
                    "duration": 0.05228360156249323,
                    "durationTicks": 58,
                    "midi": 47,
                    "name": "B2",
                    "ticks": 88384,
                    "time": 124.65440225000003,
                    "velocity": 0.7322834645669292
                },
                {
                    "duration": 0.05228360156249323,
                    "durationTicks": 58,
                    "midi": 35,
                    "name": "B1",
                    "ticks": 88448,
                    "time": 124.71209450000003,
                    "velocity": 0.4645669291338583
                },
                {
                    "duration": 0.05228360156249323,
                    "durationTicks": 58,
                    "midi": 47,
                    "name": "B2",
                    "ticks": 88512,
                    "time": 124.76978675000004,
                    "velocity": 0.8110236220472441
                },
                {
                    "duration": 0.05228360156249323,
                    "durationTicks": 58,
                    "midi": 35,
                    "name": "B1",
                    "ticks": 88576,
                    "time": 124.82747900000004,
                    "velocity": 0.5748031496062992
                },
                {
                    "duration": 0.05228360156250744,
                    "durationTicks": 58,
                    "midi": 47,
                    "name": "B2",
                    "ticks": 88640,
                    "time": 124.88517125000003,
                    "velocity": 0.9212598425196851
                },
                {
                    "duration": 0.05228360156250744,
                    "durationTicks": 58,
                    "midi": 35,
                    "name": "B1",
                    "ticks": 88704,
                    "time": 124.94286350000003,
                    "velocity": 0.6062992125984252
                },
                {
                    "duration": 0.05228360156250744,
                    "durationTicks": 58,
                    "midi": 47,
                    "name": "B2",
                    "ticks": 88768,
                    "time": 125.00055575000003,
                    "velocity": 1
                },
                {
                    "duration": 0.05228360156249323,
                    "durationTicks": 58,
                    "midi": 35,
                    "name": "B1",
                    "ticks": 88832,
                    "time": 125.05824800000003,
                    "velocity": 0.6692913385826772
                },
                {
                    "duration": 0.05228360156249323,
                    "durationTicks": 58,
                    "midi": 47,
                    "name": "B2",
                    "ticks": 88896,
                    "time": 125.11594025000004,
                    "velocity": 1
                },
                {
                    "duration": 0.05228360156250744,
                    "durationTicks": 58,
                    "midi": 35,
                    "name": "B1",
                    "ticks": 88960,
                    "time": 125.17363250000002,
                    "velocity": 0.7086614173228346
                },
                {
                    "duration": 0.05228360156250744,
                    "durationTicks": 58,
                    "midi": 47,
                    "name": "B2",
                    "ticks": 89024,
                    "time": 125.23132475000003,
                    "velocity": 0.9921259842519685
                },
                {
                    "duration": 0.2082329648437451,
                    "durationTicks": 231,
                    "midi": 23,
                    "name": "B0",
                    "ticks": 89088,
                    "time": 125.28901700000003,
                    "velocity": 0.7874015748031497
                },
                {
                    "duration": 0.2082329648437451,
                    "durationTicks": 231,
                    "midi": 35,
                    "name": "B1",
                    "ticks": 89088,
                    "time": 125.28901700000003,
                    "velocity": 0.7874015748031497
                },
                {
                    "duration": 0.11358161718749216,
                    "durationTicks": 126,
                    "midi": 47,
                    "name": "B2",
                    "ticks": 89344,
                    "time": 125.51978600000004,
                    "velocity": 1
                },
                {
                    "duration": 0.11358161718749216,
                    "durationTicks": 126,
                    "midi": 50,
                    "name": "D3",
                    "ticks": 89344,
                    "time": 125.51978600000004,
                    "velocity": 1
                },
                {
                    "duration": 0.11358161718749216,
                    "durationTicks": 126,
                    "midi": 54,
                    "name": "F#3",
                    "ticks": 89344,
                    "time": 125.51978600000004,
                    "velocity": 1
                },
                {
                    "duration": 0.11358161718749216,
                    "durationTicks": 126,
                    "midi": 59,
                    "name": "B3",
                    "ticks": 89344,
                    "time": 125.51978600000004,
                    "velocity": 1
                }
            ]
        }
    ]
};